%TF.GenerationSoftware,KiCad,Pcbnew,(6.0.5-0)*%
%TF.CreationDate,2024-03-03T23:29:24-05:00*%
%TF.ProjectId,CubeSat PCB V0.2,43756265-5361-4742-9050-43422056302e,rev?*%
%TF.SameCoordinates,Original*%
%TF.FileFunction,Copper,L2,Bot*%
%TF.FilePolarity,Positive*%
%FSLAX46Y46*%
G04 Gerber Fmt 4.6, Leading zero omitted, Abs format (unit mm)*
G04 Created by KiCad (PCBNEW (6.0.5-0)) date 2024-03-03 23:29:24*
%MOMM*%
%LPD*%
G01*
G04 APERTURE LIST*
%TA.AperFunction,ComponentPad*%
%ADD10R,2.775000X2.775000*%
%TD*%
%TA.AperFunction,ComponentPad*%
%ADD11C,2.775000*%
%TD*%
%TA.AperFunction,ComponentPad*%
%ADD12R,3.716000X3.716000*%
%TD*%
%TA.AperFunction,ComponentPad*%
%ADD13C,3.716000*%
%TD*%
%TA.AperFunction,ComponentPad*%
%ADD14O,1.200000X2.400000*%
%TD*%
%TA.AperFunction,ComponentPad*%
%ADD15R,1.600000X1.600000*%
%TD*%
%TA.AperFunction,ComponentPad*%
%ADD16O,1.600000X1.600000*%
%TD*%
%TA.AperFunction,ComponentPad*%
%ADD17O,1.300000X2.600000*%
%TD*%
%TA.AperFunction,ComponentPad*%
%ADD18R,1.700000X1.700000*%
%TD*%
%TA.AperFunction,ComponentPad*%
%ADD19O,1.700000X1.700000*%
%TD*%
%TA.AperFunction,ViaPad*%
%ADD20C,0.800000*%
%TD*%
%TA.AperFunction,Conductor*%
%ADD21C,0.250000*%
%TD*%
%TA.AperFunction,Conductor*%
%ADD22C,1.000000*%
%TD*%
G04 APERTURE END LIST*
D10*
%TO.P,SW1,1,A*%
%TO.N,Net-(J4-Pad2)*%
X109150000Y-77700000D03*
D11*
%TO.P,SW1,2,B*%
%TO.N,GND*%
X104450000Y-77700000D03*
%TO.P,SW1,3,C*%
%TO.N,unconnected-(SW1-Pad3)*%
X99750000Y-77700000D03*
%TD*%
D12*
%TO.P,J4,1,+*%
%TO.N,+BATT*%
X100500000Y-70150000D03*
D13*
%TO.P,J4,2,-*%
%TO.N,Net-(J4-Pad2)*%
X107700000Y-70150000D03*
D14*
%TO.P,J4,S1*%
%TO.N,N/C*%
X97350000Y-64150000D03*
%TO.P,J4,S2*%
X110850000Y-64150000D03*
%TD*%
D15*
%TO.P,U1,1,Vin*%
%TO.N,+BATT*%
X97209500Y-84098000D03*
X99749500Y-84098000D03*
D16*
%TO.P,U1,2,GND*%
%TO.N,GND*%
X108004500Y-84072600D03*
X110544500Y-84098000D03*
D15*
%TO.P,U1,3,Vout*%
%TO.N,+5V*%
X97082500Y-102894000D03*
X99622500Y-102894000D03*
D16*
%TO.P,U1,4,GND*%
%TO.N,GND*%
X110544500Y-103021000D03*
X108004500Y-102995600D03*
%TD*%
D13*
%TO.P,J6,1,-*%
%TO.N,GND*%
X100600000Y-111750000D03*
%TO.P,J6,2,+*%
%TO.N,+BATT*%
X107800000Y-111750000D03*
D17*
%TO.P,J6,S1,SHIELD*%
%TO.N,N/C*%
X97450000Y-117750000D03*
%TO.P,J6,S2,SHIELD*%
X110950000Y-117750000D03*
%TD*%
D18*
%TO.P,J5,1,Pin_1*%
%TO.N,+5V*%
X87900000Y-85100000D03*
D19*
%TO.P,J5,2,Pin_2*%
%TO.N,/led*%
X87900000Y-87640000D03*
%TO.P,J5,3,Pin_3*%
%TO.N,GND*%
X87900000Y-90180000D03*
%TD*%
D18*
%TO.P,J1,1,3V3*%
%TO.N,unconnected-(J1-Pad1)*%
X114505000Y-119055000D03*
D19*
%TO.P,J1,2,5V*%
%TO.N,+5V*%
X117045000Y-119055000D03*
%TO.P,J1,3,SDA/GPIO2*%
%TO.N,/SDA*%
X114505000Y-116515000D03*
%TO.P,J1,4,5V*%
%TO.N,+5V*%
X117045000Y-116515000D03*
%TO.P,J1,5,SCL/GPIO3*%
%TO.N,/SCL*%
X114505000Y-113975000D03*
%TO.P,J1,6,GND*%
%TO.N,GND*%
X117045000Y-113975000D03*
%TO.P,J1,7,GCLK0/GPIO4*%
%TO.N,unconnected-(J1-Pad7)*%
X114505000Y-111435000D03*
%TO.P,J1,8,GPIO14/TXD*%
%TO.N,unconnected-(J1-Pad8)*%
X117045000Y-111435000D03*
%TO.P,J1,9,GND*%
%TO.N,GND*%
X114505000Y-108895000D03*
%TO.P,J1,10,GPIO15/RXD*%
%TO.N,unconnected-(J1-Pad10)*%
X117045000Y-108895000D03*
%TO.P,J1,11,GPIO17*%
%TO.N,unconnected-(J1-Pad11)*%
X114505000Y-106355000D03*
%TO.P,J1,12,GPIO18/PWM0*%
%TO.N,/led*%
X117045000Y-106355000D03*
%TO.P,J1,13,GPIO27*%
%TO.N,unconnected-(J1-Pad13)*%
X114505000Y-103815000D03*
%TO.P,J1,14,GND*%
%TO.N,GND*%
X117045000Y-103815000D03*
%TO.P,J1,15,GPIO22*%
%TO.N,unconnected-(J1-Pad15)*%
X114505000Y-101275000D03*
%TO.P,J1,16,GPIO23*%
%TO.N,unconnected-(J1-Pad16)*%
X117045000Y-101275000D03*
%TO.P,J1,17,3V3*%
%TO.N,unconnected-(J1-Pad17)*%
X114505000Y-98735000D03*
%TO.P,J1,18,GPIO24*%
%TO.N,unconnected-(J1-Pad18)*%
X117045000Y-98735000D03*
%TO.P,J1,19,MOSI0/GPIO10*%
%TO.N,unconnected-(J1-Pad19)*%
X114505000Y-96195000D03*
%TO.P,J1,20,GND*%
%TO.N,GND*%
X117045000Y-96195000D03*
%TO.P,J1,21,MISO0/GPIO9*%
%TO.N,unconnected-(J1-Pad21)*%
X114505000Y-93655000D03*
%TO.P,J1,22,GPIO25*%
%TO.N,unconnected-(J1-Pad22)*%
X117045000Y-93655000D03*
%TO.P,J1,23,SCLK0/GPIO11*%
%TO.N,unconnected-(J1-Pad23)*%
X114505000Y-91115000D03*
%TO.P,J1,24,~{CE0}/GPIO8*%
%TO.N,unconnected-(J1-Pad24)*%
X117045000Y-91115000D03*
%TO.P,J1,25,GND*%
%TO.N,GND*%
X114505000Y-88575000D03*
%TO.P,J1,26,~{CE1}/GPIO7*%
%TO.N,unconnected-(J1-Pad26)*%
X117045000Y-88575000D03*
%TO.P,J1,27,ID_SD/GPIO0*%
%TO.N,unconnected-(J1-Pad27)*%
X114505000Y-86035000D03*
%TO.P,J1,28,ID_SC/GPIO1*%
%TO.N,unconnected-(J1-Pad28)*%
X117045000Y-86035000D03*
%TO.P,J1,29,GCLK1/GPIO5*%
%TO.N,unconnected-(J1-Pad29)*%
X114505000Y-83495000D03*
%TO.P,J1,30,GND*%
%TO.N,GND*%
X117045000Y-83495000D03*
%TO.P,J1,31,GCLK2/GPIO6*%
%TO.N,unconnected-(J1-Pad31)*%
X114505000Y-80955000D03*
%TO.P,J1,32,PWM0/GPIO12*%
%TO.N,unconnected-(J1-Pad32)*%
X117045000Y-80955000D03*
%TO.P,J1,33,PWM1/GPIO13*%
%TO.N,unconnected-(J1-Pad33)*%
X114505000Y-78415000D03*
%TO.P,J1,34,GND*%
%TO.N,GND*%
X117045000Y-78415000D03*
%TO.P,J1,35,GPIO19/MISO1*%
%TO.N,unconnected-(J1-Pad35)*%
X114505000Y-75875000D03*
%TO.P,J1,36,GPIO16*%
%TO.N,unconnected-(J1-Pad36)*%
X117045000Y-75875000D03*
%TO.P,J1,37,GPIO26*%
%TO.N,unconnected-(J1-Pad37)*%
X114505000Y-73335000D03*
%TO.P,J1,38,GPIO20/MOSI1*%
%TO.N,unconnected-(J1-Pad38)*%
X117045000Y-73335000D03*
%TO.P,J1,39,GND*%
%TO.N,GND*%
X114505000Y-70795000D03*
%TO.P,J1,40,GPIO21/SCLK1*%
%TO.N,unconnected-(J1-Pad40)*%
X117045000Y-70795000D03*
%TD*%
D18*
%TO.P,J2,1,Pin_1*%
%TO.N,+5V*%
X87900000Y-78400000D03*
D19*
%TO.P,J2,2,Pin_2*%
%TO.N,/SDA*%
X87900000Y-75860000D03*
%TO.P,J2,3,Pin_3*%
%TO.N,/SCL*%
X87900000Y-73320000D03*
%TO.P,J2,4,Pin_4*%
%TO.N,GND*%
X87900000Y-70780000D03*
%TD*%
D18*
%TO.P,J3,1,Pin_1*%
%TO.N,+5V*%
X88050000Y-97330000D03*
D19*
%TO.P,J3,2,Pin_2*%
%TO.N,unconnected-(J3-Pad2)*%
X88050000Y-99870000D03*
%TO.P,J3,3,Pin_3*%
%TO.N,GND*%
X88050000Y-102410000D03*
%TO.P,J3,4,Pin_4*%
%TO.N,/SCL*%
X88050000Y-104950000D03*
%TO.P,J3,5,Pin_5*%
%TO.N,/SDA*%
X88050000Y-107490000D03*
%TO.P,J3,6,Pin_6*%
%TO.N,unconnected-(J3-Pad6)*%
X88050000Y-110030000D03*
%TO.P,J3,7,Pin_7*%
%TO.N,unconnected-(J3-Pad7)*%
X88050000Y-112570000D03*
%TO.P,J3,8,Pin_8*%
%TO.N,unconnected-(J3-Pad8)*%
X88050000Y-115110000D03*
%TO.P,J3,9,Pin_9*%
%TO.N,unconnected-(J3-Pad9)*%
X88050000Y-117650000D03*
%TD*%
D20*
%TO.N,/SCL*%
X92650000Y-102350000D03*
X92650000Y-96100000D03*
%TO.N,+5V*%
X92350000Y-114000000D03*
X92575000Y-117125000D03*
%TD*%
D21*
%TO.N,/SDA*%
X111800000Y-120150000D02*
X87550000Y-120150000D01*
X112650000Y-117150000D02*
X112650000Y-119300000D01*
X113285000Y-116515000D02*
X112650000Y-117150000D01*
X86250000Y-118850000D02*
X86250000Y-109290000D01*
X114505000Y-116515000D02*
X113285000Y-116515000D01*
X112650000Y-119300000D02*
X111800000Y-120150000D01*
X86250000Y-109290000D02*
X88050000Y-107490000D01*
X87550000Y-120150000D02*
X86250000Y-118850000D01*
%TO.N,/SCL*%
X92650000Y-102350000D02*
X92650000Y-96100000D01*
D22*
%TO.N,+5V*%
X92350000Y-116900000D02*
X92575000Y-117125000D01*
X92350000Y-114000000D02*
X92350000Y-116900000D01*
%TD*%
%TA.AperFunction,Conductor*%
%TO.N,GND*%
G36*
X98075621Y-69095002D02*
G01*
X98122114Y-69148658D01*
X98133500Y-69201000D01*
X98133500Y-72056134D01*
X98140255Y-72118316D01*
X98191385Y-72254705D01*
X98278739Y-72371261D01*
X98395295Y-72458615D01*
X98531684Y-72509745D01*
X98593866Y-72516500D01*
X102406134Y-72516500D01*
X102468316Y-72509745D01*
X102604705Y-72458615D01*
X102721261Y-72371261D01*
X102808615Y-72254705D01*
X102859745Y-72118316D01*
X102866500Y-72056134D01*
X102866500Y-69201000D01*
X102886502Y-69132879D01*
X102940158Y-69086386D01*
X102992500Y-69075000D01*
X105390022Y-69075000D01*
X105458143Y-69095002D01*
X105504636Y-69148658D01*
X105514740Y-69218932D01*
X105508351Y-69242233D01*
X105508948Y-69242436D01*
X105428310Y-69479989D01*
X105409232Y-69536190D01*
X105408428Y-69540234D01*
X105408426Y-69540240D01*
X105356311Y-69802240D01*
X105348711Y-69840447D01*
X105348442Y-69844552D01*
X105348441Y-69844559D01*
X105330937Y-70111623D01*
X105328422Y-70150000D01*
X105348711Y-70459553D01*
X105349513Y-70463586D01*
X105349514Y-70463592D01*
X105408426Y-70759760D01*
X105409232Y-70763810D01*
X105410559Y-70767719D01*
X105410560Y-70767723D01*
X105507622Y-71053658D01*
X105508948Y-71057564D01*
X105511612Y-71062966D01*
X105621732Y-71286267D01*
X105646153Y-71335789D01*
X105818501Y-71593725D01*
X106023041Y-71826959D01*
X106256275Y-72031499D01*
X106514211Y-72203847D01*
X106517910Y-72205671D01*
X106517915Y-72205674D01*
X106600291Y-72246297D01*
X106792436Y-72341052D01*
X106796341Y-72342377D01*
X106796342Y-72342378D01*
X107082277Y-72439440D01*
X107082281Y-72439441D01*
X107086190Y-72440768D01*
X107090234Y-72441572D01*
X107090240Y-72441574D01*
X107386408Y-72500486D01*
X107386414Y-72500487D01*
X107390447Y-72501289D01*
X107394552Y-72501558D01*
X107394559Y-72501559D01*
X107695881Y-72521308D01*
X107700000Y-72521578D01*
X107704119Y-72521308D01*
X108005441Y-72501559D01*
X108005448Y-72501558D01*
X108009553Y-72501289D01*
X108013586Y-72500487D01*
X108013592Y-72500486D01*
X108309760Y-72441574D01*
X108309766Y-72441572D01*
X108313810Y-72440768D01*
X108317719Y-72439441D01*
X108317723Y-72439440D01*
X108603658Y-72342378D01*
X108603659Y-72342377D01*
X108607564Y-72341052D01*
X108799709Y-72246297D01*
X108882085Y-72205674D01*
X108882090Y-72205671D01*
X108885789Y-72203847D01*
X109143725Y-72031499D01*
X109376959Y-71826959D01*
X109581499Y-71593725D01*
X109753847Y-71335789D01*
X109778269Y-71286267D01*
X109888388Y-71062966D01*
X109891052Y-71057564D01*
X109892378Y-71053658D01*
X109989440Y-70767723D01*
X109989441Y-70767719D01*
X109990768Y-70763810D01*
X109991574Y-70759760D01*
X110037439Y-70529183D01*
X113169389Y-70529183D01*
X113170912Y-70537607D01*
X113183292Y-70541000D01*
X114232885Y-70541000D01*
X114248124Y-70536525D01*
X114249329Y-70535135D01*
X114251000Y-70527452D01*
X114251000Y-69478102D01*
X114247082Y-69464758D01*
X114232806Y-69462771D01*
X114194324Y-69468660D01*
X114184288Y-69471051D01*
X113981868Y-69537212D01*
X113972359Y-69541209D01*
X113783463Y-69639542D01*
X113774738Y-69645036D01*
X113604433Y-69772905D01*
X113596726Y-69779748D01*
X113449590Y-69933717D01*
X113443104Y-69941727D01*
X113323098Y-70117649D01*
X113318000Y-70126623D01*
X113228338Y-70319783D01*
X113224775Y-70329470D01*
X113169389Y-70529183D01*
X110037439Y-70529183D01*
X110050486Y-70463592D01*
X110050487Y-70463586D01*
X110051289Y-70459553D01*
X110071578Y-70150000D01*
X110069063Y-70111623D01*
X110051559Y-69844559D01*
X110051558Y-69844552D01*
X110051289Y-69840447D01*
X110043690Y-69802240D01*
X109991574Y-69540240D01*
X109991572Y-69540234D01*
X109990768Y-69536190D01*
X109971691Y-69479989D01*
X109891052Y-69242436D01*
X109892770Y-69241853D01*
X109885986Y-69178596D01*
X109917782Y-69115117D01*
X109978850Y-69078906D01*
X110009978Y-69075000D01*
X118774000Y-69075000D01*
X118842121Y-69095002D01*
X118888614Y-69148658D01*
X118900000Y-69201000D01*
X118900000Y-120574382D01*
X118879998Y-120642503D01*
X118826342Y-120688996D01*
X118774382Y-120700381D01*
X117230295Y-120705067D01*
X112430838Y-120719633D01*
X112362660Y-120699839D01*
X112316005Y-120646325D01*
X112305688Y-120576082D01*
X112334985Y-120511412D01*
X112341364Y-120504540D01*
X112935681Y-119910223D01*
X112997993Y-119876197D01*
X113068808Y-119881262D01*
X113125644Y-119923809D01*
X113150039Y-119985711D01*
X113152401Y-120007460D01*
X113152402Y-120007464D01*
X113153255Y-120015316D01*
X113204385Y-120151705D01*
X113291739Y-120268261D01*
X113408295Y-120355615D01*
X113544684Y-120406745D01*
X113606866Y-120413500D01*
X115403134Y-120413500D01*
X115465316Y-120406745D01*
X115601705Y-120355615D01*
X115718261Y-120268261D01*
X115805615Y-120151705D01*
X115827799Y-120092529D01*
X115849598Y-120034382D01*
X115892240Y-119977618D01*
X115958802Y-119952918D01*
X116028150Y-119968126D01*
X116062817Y-119996114D01*
X116091250Y-120028938D01*
X116263126Y-120171632D01*
X116456000Y-120284338D01*
X116664692Y-120364030D01*
X116669760Y-120365061D01*
X116669763Y-120365062D01*
X116777017Y-120386883D01*
X116883597Y-120408567D01*
X116888772Y-120408757D01*
X116888774Y-120408757D01*
X117101673Y-120416564D01*
X117101677Y-120416564D01*
X117106837Y-120416753D01*
X117111957Y-120416097D01*
X117111959Y-120416097D01*
X117323288Y-120389025D01*
X117323289Y-120389025D01*
X117328416Y-120388368D01*
X117333366Y-120386883D01*
X117537429Y-120325661D01*
X117537434Y-120325659D01*
X117542384Y-120324174D01*
X117742994Y-120225896D01*
X117924860Y-120096173D01*
X118083096Y-119938489D01*
X118213453Y-119757077D01*
X118262447Y-119657946D01*
X118310136Y-119561453D01*
X118310137Y-119561451D01*
X118312430Y-119556811D01*
X118351000Y-119429863D01*
X118375865Y-119348023D01*
X118375865Y-119348021D01*
X118377370Y-119343069D01*
X118406529Y-119121590D01*
X118408156Y-119055000D01*
X118389852Y-118832361D01*
X118335431Y-118615702D01*
X118246354Y-118410840D01*
X118125014Y-118223277D01*
X117974670Y-118058051D01*
X117970619Y-118054852D01*
X117970615Y-118054848D01*
X117803414Y-117922800D01*
X117803410Y-117922798D01*
X117799359Y-117919598D01*
X117758053Y-117896796D01*
X117708084Y-117846364D01*
X117693312Y-117776921D01*
X117718428Y-117710516D01*
X117745780Y-117683909D01*
X117802734Y-117643284D01*
X117924860Y-117556173D01*
X118083096Y-117398489D01*
X118159895Y-117291612D01*
X118210435Y-117221277D01*
X118213453Y-117217077D01*
X118218951Y-117205954D01*
X118310136Y-117021453D01*
X118310137Y-117021451D01*
X118312430Y-117016811D01*
X118364636Y-116844981D01*
X118375865Y-116808023D01*
X118375865Y-116808021D01*
X118377370Y-116803069D01*
X118406529Y-116581590D01*
X118408156Y-116515000D01*
X118389852Y-116292361D01*
X118335431Y-116075702D01*
X118246354Y-115870840D01*
X118125014Y-115683277D01*
X117974670Y-115518051D01*
X117970619Y-115514852D01*
X117970615Y-115514848D01*
X117803414Y-115382800D01*
X117803410Y-115382798D01*
X117799359Y-115379598D01*
X117757569Y-115356529D01*
X117707598Y-115306097D01*
X117692826Y-115236654D01*
X117717942Y-115170248D01*
X117745294Y-115143641D01*
X117920328Y-115018792D01*
X117928200Y-115012139D01*
X118079052Y-114861812D01*
X118085730Y-114853965D01*
X118210003Y-114681020D01*
X118215313Y-114672183D01*
X118309670Y-114481267D01*
X118313469Y-114471672D01*
X118375377Y-114267910D01*
X118377555Y-114257837D01*
X118378986Y-114246962D01*
X118376775Y-114232778D01*
X118363617Y-114229000D01*
X116917000Y-114229000D01*
X116848879Y-114208998D01*
X116802386Y-114155342D01*
X116791000Y-114103000D01*
X116791000Y-113847000D01*
X116811002Y-113778879D01*
X116864658Y-113732386D01*
X116917000Y-113721000D01*
X118363344Y-113721000D01*
X118376875Y-113717027D01*
X118378180Y-113707947D01*
X118336214Y-113540875D01*
X118332894Y-113531124D01*
X118247972Y-113335814D01*
X118243105Y-113326739D01*
X118127426Y-113147926D01*
X118121136Y-113139757D01*
X117977806Y-112982240D01*
X117970273Y-112975215D01*
X117803139Y-112843222D01*
X117794556Y-112837520D01*
X117757602Y-112817120D01*
X117707631Y-112766687D01*
X117692859Y-112697245D01*
X117717975Y-112630839D01*
X117745327Y-112604232D01*
X117788601Y-112573365D01*
X117924860Y-112476173D01*
X118083096Y-112318489D01*
X118142594Y-112235689D01*
X118210435Y-112141277D01*
X118213453Y-112137077D01*
X118218951Y-112125954D01*
X118310136Y-111941453D01*
X118310137Y-111941451D01*
X118312430Y-111936811D01*
X118372098Y-111740420D01*
X118375865Y-111728023D01*
X118375865Y-111728021D01*
X118377370Y-111723069D01*
X118406529Y-111501590D01*
X118407921Y-111444627D01*
X118408074Y-111438365D01*
X118408074Y-111438361D01*
X118408156Y-111435000D01*
X118389852Y-111212361D01*
X118335431Y-110995702D01*
X118246354Y-110790840D01*
X118125014Y-110603277D01*
X117974670Y-110438051D01*
X117970619Y-110434852D01*
X117970615Y-110434848D01*
X117803414Y-110302800D01*
X117803410Y-110302798D01*
X117799359Y-110299598D01*
X117758053Y-110276796D01*
X117708084Y-110226364D01*
X117693312Y-110156921D01*
X117718428Y-110090516D01*
X117745780Y-110063909D01*
X117798021Y-110026646D01*
X117924860Y-109936173D01*
X117942722Y-109918374D01*
X118079435Y-109782137D01*
X118083096Y-109778489D01*
X118213453Y-109597077D01*
X118218951Y-109585954D01*
X118310136Y-109401453D01*
X118310137Y-109401451D01*
X118312430Y-109396811D01*
X118371431Y-109202617D01*
X118375865Y-109188023D01*
X118375865Y-109188021D01*
X118377370Y-109183069D01*
X118406529Y-108961590D01*
X118408156Y-108895000D01*
X118389852Y-108672361D01*
X118335431Y-108455702D01*
X118246354Y-108250840D01*
X118125014Y-108063277D01*
X117974670Y-107898051D01*
X117970619Y-107894852D01*
X117970615Y-107894848D01*
X117803414Y-107762800D01*
X117803410Y-107762798D01*
X117799359Y-107759598D01*
X117758053Y-107736796D01*
X117708084Y-107686364D01*
X117693312Y-107616921D01*
X117718428Y-107550516D01*
X117745780Y-107523909D01*
X117798021Y-107486646D01*
X117924860Y-107396173D01*
X118083096Y-107238489D01*
X118142594Y-107155689D01*
X118210435Y-107061277D01*
X118213453Y-107057077D01*
X118218951Y-107045954D01*
X118310136Y-106861453D01*
X118310137Y-106861451D01*
X118312430Y-106856811D01*
X118371431Y-106662617D01*
X118375865Y-106648023D01*
X118375865Y-106648021D01*
X118377370Y-106643069D01*
X118406529Y-106421590D01*
X118408156Y-106355000D01*
X118389852Y-106132361D01*
X118335431Y-105915702D01*
X118246354Y-105710840D01*
X118205337Y-105647438D01*
X118127822Y-105527617D01*
X118127820Y-105527614D01*
X118125014Y-105523277D01*
X117974670Y-105358051D01*
X117970619Y-105354852D01*
X117970615Y-105354848D01*
X117803414Y-105222800D01*
X117803410Y-105222798D01*
X117799359Y-105219598D01*
X117757569Y-105196529D01*
X117707598Y-105146097D01*
X117692826Y-105076654D01*
X117717942Y-105010248D01*
X117745294Y-104983641D01*
X117920328Y-104858792D01*
X117928200Y-104852139D01*
X118079052Y-104701812D01*
X118085730Y-104693965D01*
X118210003Y-104521020D01*
X118215313Y-104512183D01*
X118309670Y-104321267D01*
X118313469Y-104311672D01*
X118375377Y-104107910D01*
X118377555Y-104097837D01*
X118378986Y-104086962D01*
X118376775Y-104072778D01*
X118363617Y-104069000D01*
X116917000Y-104069000D01*
X116848879Y-104048998D01*
X116802386Y-103995342D01*
X116791000Y-103943000D01*
X116791000Y-103687000D01*
X116811002Y-103618879D01*
X116864658Y-103572386D01*
X116917000Y-103561000D01*
X118363344Y-103561000D01*
X118376875Y-103557027D01*
X118378180Y-103547947D01*
X118336214Y-103380875D01*
X118332894Y-103371124D01*
X118247972Y-103175814D01*
X118243105Y-103166739D01*
X118127426Y-102987926D01*
X118121136Y-102979757D01*
X117977806Y-102822240D01*
X117970273Y-102815215D01*
X117803139Y-102683222D01*
X117794556Y-102677520D01*
X117757602Y-102657120D01*
X117707631Y-102606687D01*
X117692859Y-102537245D01*
X117717975Y-102470839D01*
X117745327Y-102444232D01*
X117768797Y-102427491D01*
X117924860Y-102316173D01*
X118083096Y-102158489D01*
X118087740Y-102152027D01*
X118210435Y-101981277D01*
X118213453Y-101977077D01*
X118218867Y-101966124D01*
X118310136Y-101781453D01*
X118310137Y-101781451D01*
X118312430Y-101776811D01*
X118377370Y-101563069D01*
X118406529Y-101341590D01*
X118408156Y-101275000D01*
X118389852Y-101052361D01*
X118335431Y-100835702D01*
X118246354Y-100630840D01*
X118205337Y-100567438D01*
X118127822Y-100447617D01*
X118127820Y-100447614D01*
X118125014Y-100443277D01*
X117974670Y-100278051D01*
X117970619Y-100274852D01*
X117970615Y-100274848D01*
X117803414Y-100142800D01*
X117803410Y-100142798D01*
X117799359Y-100139598D01*
X117758053Y-100116796D01*
X117708084Y-100066364D01*
X117693312Y-99996921D01*
X117718428Y-99930516D01*
X117745780Y-99903909D01*
X117798021Y-99866646D01*
X117924860Y-99776173D01*
X118083096Y-99618489D01*
X118142594Y-99535689D01*
X118210435Y-99441277D01*
X118213453Y-99437077D01*
X118218951Y-99425954D01*
X118310136Y-99241453D01*
X118310137Y-99241451D01*
X118312430Y-99236811D01*
X118371431Y-99042617D01*
X118375865Y-99028023D01*
X118375865Y-99028021D01*
X118377370Y-99023069D01*
X118406529Y-98801590D01*
X118406965Y-98783738D01*
X118408074Y-98738365D01*
X118408074Y-98738361D01*
X118408156Y-98735000D01*
X118389852Y-98512361D01*
X118335431Y-98295702D01*
X118246354Y-98090840D01*
X118125014Y-97903277D01*
X117974670Y-97738051D01*
X117970619Y-97734852D01*
X117970615Y-97734848D01*
X117803414Y-97602800D01*
X117803410Y-97602798D01*
X117799359Y-97599598D01*
X117757569Y-97576529D01*
X117707598Y-97526097D01*
X117692826Y-97456654D01*
X117717942Y-97390248D01*
X117745294Y-97363641D01*
X117920328Y-97238792D01*
X117928200Y-97232139D01*
X118079052Y-97081812D01*
X118085730Y-97073965D01*
X118210003Y-96901020D01*
X118215313Y-96892183D01*
X118309670Y-96701267D01*
X118313469Y-96691672D01*
X118375377Y-96487910D01*
X118377555Y-96477837D01*
X118378986Y-96466962D01*
X118376775Y-96452778D01*
X118363617Y-96449000D01*
X116917000Y-96449000D01*
X116848879Y-96428998D01*
X116802386Y-96375342D01*
X116791000Y-96323000D01*
X116791000Y-96067000D01*
X116811002Y-95998879D01*
X116864658Y-95952386D01*
X116917000Y-95941000D01*
X118363344Y-95941000D01*
X118376875Y-95937027D01*
X118378180Y-95927947D01*
X118336214Y-95760875D01*
X118332894Y-95751124D01*
X118247972Y-95555814D01*
X118243105Y-95546739D01*
X118127426Y-95367926D01*
X118121136Y-95359757D01*
X117977806Y-95202240D01*
X117970273Y-95195215D01*
X117803139Y-95063222D01*
X117794556Y-95057520D01*
X117757602Y-95037120D01*
X117707631Y-94986687D01*
X117692859Y-94917245D01*
X117717975Y-94850839D01*
X117745327Y-94824232D01*
X117768797Y-94807491D01*
X117924860Y-94696173D01*
X118083096Y-94538489D01*
X118142594Y-94455689D01*
X118210435Y-94361277D01*
X118213453Y-94357077D01*
X118234320Y-94314857D01*
X118310136Y-94161453D01*
X118310137Y-94161451D01*
X118312430Y-94156811D01*
X118377370Y-93943069D01*
X118406529Y-93721590D01*
X118408156Y-93655000D01*
X118389852Y-93432361D01*
X118335431Y-93215702D01*
X118246354Y-93010840D01*
X118125014Y-92823277D01*
X117974670Y-92658051D01*
X117970619Y-92654852D01*
X117970615Y-92654848D01*
X117803414Y-92522800D01*
X117803410Y-92522798D01*
X117799359Y-92519598D01*
X117758053Y-92496796D01*
X117708084Y-92446364D01*
X117693312Y-92376921D01*
X117718428Y-92310516D01*
X117745780Y-92283909D01*
X117789603Y-92252650D01*
X117924860Y-92156173D01*
X118083096Y-91998489D01*
X118142594Y-91915689D01*
X118210435Y-91821277D01*
X118213453Y-91817077D01*
X118234320Y-91774857D01*
X118310136Y-91621453D01*
X118310137Y-91621451D01*
X118312430Y-91616811D01*
X118377370Y-91403069D01*
X118406529Y-91181590D01*
X118408156Y-91115000D01*
X118389852Y-90892361D01*
X118335431Y-90675702D01*
X118246354Y-90470840D01*
X118125014Y-90283277D01*
X117974670Y-90118051D01*
X117970619Y-90114852D01*
X117970615Y-90114848D01*
X117803414Y-89982800D01*
X117803410Y-89982798D01*
X117799359Y-89979598D01*
X117758053Y-89956796D01*
X117708084Y-89906364D01*
X117693312Y-89836921D01*
X117718428Y-89770516D01*
X117745780Y-89743909D01*
X117800633Y-89704783D01*
X117924860Y-89616173D01*
X118083096Y-89458489D01*
X118213453Y-89277077D01*
X118226995Y-89249678D01*
X118310136Y-89081453D01*
X118310137Y-89081451D01*
X118312430Y-89076811D01*
X118377370Y-88863069D01*
X118406529Y-88641590D01*
X118408156Y-88575000D01*
X118389852Y-88352361D01*
X118335431Y-88135702D01*
X118246354Y-87930840D01*
X118125014Y-87743277D01*
X117974670Y-87578051D01*
X117970619Y-87574852D01*
X117970615Y-87574848D01*
X117803414Y-87442800D01*
X117803410Y-87442798D01*
X117799359Y-87439598D01*
X117758053Y-87416796D01*
X117708084Y-87366364D01*
X117693312Y-87296921D01*
X117718428Y-87230516D01*
X117745780Y-87203909D01*
X117800875Y-87164610D01*
X117924860Y-87076173D01*
X118083096Y-86918489D01*
X118142594Y-86835689D01*
X118210435Y-86741277D01*
X118213453Y-86737077D01*
X118234320Y-86694857D01*
X118310136Y-86541453D01*
X118310137Y-86541451D01*
X118312430Y-86536811D01*
X118377370Y-86323069D01*
X118406529Y-86101590D01*
X118407357Y-86067715D01*
X118408074Y-86038365D01*
X118408074Y-86038361D01*
X118408156Y-86035000D01*
X118389852Y-85812361D01*
X118335431Y-85595702D01*
X118246354Y-85390840D01*
X118143551Y-85231931D01*
X118127822Y-85207617D01*
X118127820Y-85207614D01*
X118125014Y-85203277D01*
X117974670Y-85038051D01*
X117970619Y-85034852D01*
X117970615Y-85034848D01*
X117803414Y-84902800D01*
X117803410Y-84902798D01*
X117799359Y-84899598D01*
X117757569Y-84876529D01*
X117707598Y-84826097D01*
X117692826Y-84756654D01*
X117717942Y-84690248D01*
X117745294Y-84663641D01*
X117920328Y-84538792D01*
X117928200Y-84532139D01*
X118079052Y-84381812D01*
X118085730Y-84373965D01*
X118210003Y-84201020D01*
X118215313Y-84192183D01*
X118309670Y-84001267D01*
X118313469Y-83991672D01*
X118375377Y-83787910D01*
X118377555Y-83777837D01*
X118378986Y-83766962D01*
X118376775Y-83752778D01*
X118363617Y-83749000D01*
X116917000Y-83749000D01*
X116848879Y-83728998D01*
X116802386Y-83675342D01*
X116791000Y-83623000D01*
X116791000Y-83367000D01*
X116811002Y-83298879D01*
X116864658Y-83252386D01*
X116917000Y-83241000D01*
X118363344Y-83241000D01*
X118376875Y-83237027D01*
X118378180Y-83227947D01*
X118336214Y-83060875D01*
X118332894Y-83051124D01*
X118247972Y-82855814D01*
X118243105Y-82846739D01*
X118127426Y-82667926D01*
X118121136Y-82659757D01*
X117977806Y-82502240D01*
X117970273Y-82495215D01*
X117803139Y-82363222D01*
X117794556Y-82357520D01*
X117757602Y-82337120D01*
X117707631Y-82286687D01*
X117692859Y-82217245D01*
X117717975Y-82150839D01*
X117745327Y-82124232D01*
X117768797Y-82107491D01*
X117924860Y-81996173D01*
X118083096Y-81838489D01*
X118142594Y-81755689D01*
X118210435Y-81661277D01*
X118213453Y-81657077D01*
X118234320Y-81614857D01*
X118310136Y-81461453D01*
X118310137Y-81461451D01*
X118312430Y-81456811D01*
X118377370Y-81243069D01*
X118406529Y-81021590D01*
X118408156Y-80955000D01*
X118389852Y-80732361D01*
X118335431Y-80515702D01*
X118246354Y-80310840D01*
X118125014Y-80123277D01*
X117974670Y-79958051D01*
X117970619Y-79954852D01*
X117970615Y-79954848D01*
X117803414Y-79822800D01*
X117803410Y-79822798D01*
X117799359Y-79819598D01*
X117757569Y-79796529D01*
X117707598Y-79746097D01*
X117692826Y-79676654D01*
X117717942Y-79610248D01*
X117745294Y-79583641D01*
X117920328Y-79458792D01*
X117928200Y-79452139D01*
X118079052Y-79301812D01*
X118085730Y-79293965D01*
X118210003Y-79121020D01*
X118215313Y-79112183D01*
X118309670Y-78921267D01*
X118313469Y-78911672D01*
X118375377Y-78707910D01*
X118377555Y-78697837D01*
X118378986Y-78686962D01*
X118376775Y-78672778D01*
X118363617Y-78669000D01*
X116917000Y-78669000D01*
X116848879Y-78648998D01*
X116802386Y-78595342D01*
X116791000Y-78543000D01*
X116791000Y-78287000D01*
X116811002Y-78218879D01*
X116864658Y-78172386D01*
X116917000Y-78161000D01*
X118363344Y-78161000D01*
X118376875Y-78157027D01*
X118378180Y-78147947D01*
X118336214Y-77980875D01*
X118332894Y-77971124D01*
X118247972Y-77775814D01*
X118243105Y-77766739D01*
X118127426Y-77587926D01*
X118121136Y-77579757D01*
X117977806Y-77422240D01*
X117970273Y-77415215D01*
X117803139Y-77283222D01*
X117794556Y-77277520D01*
X117757602Y-77257120D01*
X117707631Y-77206687D01*
X117692859Y-77137245D01*
X117717975Y-77070839D01*
X117745327Y-77044232D01*
X117790069Y-77012318D01*
X117924860Y-76916173D01*
X117941000Y-76900090D01*
X118079435Y-76762137D01*
X118083096Y-76758489D01*
X118096891Y-76739292D01*
X118210435Y-76581277D01*
X118213453Y-76577077D01*
X118220867Y-76562077D01*
X118310136Y-76381453D01*
X118310137Y-76381451D01*
X118312430Y-76376811D01*
X118377370Y-76163069D01*
X118406529Y-75941590D01*
X118406611Y-75938240D01*
X118408074Y-75878365D01*
X118408074Y-75878361D01*
X118408156Y-75875000D01*
X118389852Y-75652361D01*
X118335431Y-75435702D01*
X118246354Y-75230840D01*
X118125014Y-75043277D01*
X117974670Y-74878051D01*
X117970619Y-74874852D01*
X117970615Y-74874848D01*
X117803414Y-74742800D01*
X117803410Y-74742798D01*
X117799359Y-74739598D01*
X117758053Y-74716796D01*
X117708084Y-74666364D01*
X117693312Y-74596921D01*
X117718428Y-74530516D01*
X117745780Y-74503909D01*
X117789603Y-74472650D01*
X117924860Y-74376173D01*
X118083096Y-74218489D01*
X118096891Y-74199292D01*
X118210435Y-74041277D01*
X118213453Y-74037077D01*
X118220867Y-74022077D01*
X118310136Y-73841453D01*
X118310137Y-73841451D01*
X118312430Y-73836811D01*
X118377370Y-73623069D01*
X118406529Y-73401590D01*
X118406611Y-73398240D01*
X118408074Y-73338365D01*
X118408074Y-73338361D01*
X118408156Y-73335000D01*
X118389852Y-73112361D01*
X118335431Y-72895702D01*
X118246354Y-72690840D01*
X118206906Y-72629862D01*
X118127822Y-72507617D01*
X118127820Y-72507614D01*
X118125014Y-72503277D01*
X117974670Y-72338051D01*
X117970619Y-72334852D01*
X117970615Y-72334848D01*
X117803414Y-72202800D01*
X117803410Y-72202798D01*
X117799359Y-72199598D01*
X117758053Y-72176796D01*
X117708084Y-72126364D01*
X117693312Y-72056921D01*
X117718428Y-71990516D01*
X117745780Y-71963909D01*
X117789603Y-71932650D01*
X117924860Y-71836173D01*
X117937285Y-71823792D01*
X118079435Y-71682137D01*
X118083096Y-71678489D01*
X118213453Y-71497077D01*
X118226995Y-71469678D01*
X118310136Y-71301453D01*
X118310137Y-71301451D01*
X118312430Y-71296811D01*
X118377370Y-71083069D01*
X118406529Y-70861590D01*
X118408156Y-70795000D01*
X118389852Y-70572361D01*
X118335431Y-70355702D01*
X118246354Y-70150840D01*
X118125014Y-69963277D01*
X117974670Y-69798051D01*
X117970619Y-69794852D01*
X117970615Y-69794848D01*
X117803414Y-69662800D01*
X117803410Y-69662798D01*
X117799359Y-69659598D01*
X117778752Y-69648222D01*
X117735855Y-69624542D01*
X117603789Y-69551638D01*
X117598920Y-69549914D01*
X117598916Y-69549912D01*
X117398087Y-69478795D01*
X117398083Y-69478794D01*
X117393212Y-69477069D01*
X117388119Y-69476162D01*
X117388116Y-69476161D01*
X117178373Y-69438800D01*
X117178367Y-69438799D01*
X117173284Y-69437894D01*
X117099452Y-69436992D01*
X116955081Y-69435228D01*
X116955079Y-69435228D01*
X116949911Y-69435165D01*
X116729091Y-69468955D01*
X116516756Y-69538357D01*
X116438455Y-69579118D01*
X116340643Y-69630036D01*
X116318607Y-69641507D01*
X116314474Y-69644610D01*
X116314471Y-69644612D01*
X116290247Y-69662800D01*
X116139965Y-69775635D01*
X116136393Y-69779373D01*
X116003233Y-69918717D01*
X115985629Y-69937138D01*
X115982715Y-69941410D01*
X115982714Y-69941411D01*
X115877898Y-70095066D01*
X115822987Y-70140069D01*
X115752462Y-70148240D01*
X115688715Y-70116986D01*
X115668018Y-70092502D01*
X115587426Y-69967926D01*
X115581136Y-69959757D01*
X115437806Y-69802240D01*
X115430273Y-69795215D01*
X115263139Y-69663222D01*
X115254552Y-69657517D01*
X115068117Y-69554599D01*
X115058705Y-69550369D01*
X114857959Y-69479280D01*
X114847988Y-69476646D01*
X114776837Y-69463972D01*
X114763540Y-69465432D01*
X114759000Y-69479989D01*
X114759000Y-70923000D01*
X114738998Y-70991121D01*
X114685342Y-71037614D01*
X114633000Y-71049000D01*
X113188225Y-71049000D01*
X113174694Y-71052973D01*
X113173257Y-71062966D01*
X113203565Y-71197446D01*
X113206645Y-71207275D01*
X113286770Y-71404603D01*
X113291413Y-71413794D01*
X113402694Y-71595388D01*
X113408777Y-71603699D01*
X113548213Y-71764667D01*
X113555580Y-71771883D01*
X113719434Y-71907916D01*
X113727881Y-71913831D01*
X113796969Y-71954203D01*
X113845693Y-72005842D01*
X113858764Y-72075625D01*
X113832033Y-72141396D01*
X113791584Y-72174752D01*
X113778607Y-72181507D01*
X113774474Y-72184610D01*
X113774471Y-72184612D01*
X113604100Y-72312530D01*
X113599965Y-72315635D01*
X113596393Y-72319373D01*
X113463535Y-72458401D01*
X113445629Y-72477138D01*
X113319743Y-72661680D01*
X113304003Y-72695590D01*
X113230334Y-72854297D01*
X113225688Y-72864305D01*
X113165989Y-73079570D01*
X113142251Y-73301695D01*
X113142548Y-73306848D01*
X113142548Y-73306851D01*
X113148011Y-73401590D01*
X113155110Y-73524715D01*
X113156247Y-73529761D01*
X113156248Y-73529767D01*
X113172739Y-73602939D01*
X113204222Y-73742639D01*
X113288266Y-73949616D01*
X113329827Y-74017438D01*
X113402291Y-74135688D01*
X113404987Y-74140088D01*
X113551250Y-74308938D01*
X113723126Y-74451632D01*
X113786918Y-74488909D01*
X113796445Y-74494476D01*
X113845169Y-74546114D01*
X113858240Y-74615897D01*
X113831509Y-74681669D01*
X113791055Y-74715027D01*
X113778607Y-74721507D01*
X113774474Y-74724610D01*
X113774471Y-74724612D01*
X113604100Y-74852530D01*
X113599965Y-74855635D01*
X113596393Y-74859373D01*
X113463535Y-74998401D01*
X113445629Y-75017138D01*
X113319743Y-75201680D01*
X113304003Y-75235590D01*
X113230334Y-75394297D01*
X113225688Y-75404305D01*
X113165989Y-75619570D01*
X113142251Y-75841695D01*
X113142548Y-75846848D01*
X113142548Y-75846851D01*
X113150381Y-75982697D01*
X113155110Y-76064715D01*
X113156247Y-76069761D01*
X113156248Y-76069767D01*
X113166303Y-76114382D01*
X113204222Y-76282639D01*
X113242461Y-76376811D01*
X113279933Y-76469093D01*
X113288266Y-76489616D01*
X113329509Y-76556918D01*
X113402291Y-76675688D01*
X113404987Y-76680088D01*
X113551250Y-76848938D01*
X113723126Y-76991632D01*
X113758526Y-77012318D01*
X113796445Y-77034476D01*
X113845169Y-77086114D01*
X113858240Y-77155897D01*
X113831509Y-77221669D01*
X113791055Y-77255027D01*
X113778607Y-77261507D01*
X113774474Y-77264610D01*
X113774471Y-77264612D01*
X113623953Y-77377624D01*
X113599965Y-77395635D01*
X113445629Y-77557138D01*
X113442715Y-77561410D01*
X113442714Y-77561411D01*
X113385868Y-77644745D01*
X113319743Y-77741680D01*
X113225688Y-77944305D01*
X113165989Y-78159570D01*
X113142251Y-78381695D01*
X113142548Y-78386848D01*
X113142548Y-78386851D01*
X113144887Y-78427421D01*
X113155110Y-78604715D01*
X113156247Y-78609761D01*
X113156248Y-78609767D01*
X113168329Y-78663373D01*
X113204222Y-78822639D01*
X113288266Y-79029616D01*
X113290965Y-79034020D01*
X113399219Y-79210675D01*
X113404987Y-79220088D01*
X113551250Y-79388938D01*
X113723126Y-79531632D01*
X113783949Y-79567174D01*
X113796445Y-79574476D01*
X113845169Y-79626114D01*
X113858240Y-79695897D01*
X113831509Y-79761669D01*
X113791055Y-79795027D01*
X113778607Y-79801507D01*
X113774474Y-79804610D01*
X113774471Y-79804612D01*
X113750247Y-79822800D01*
X113599965Y-79935635D01*
X113445629Y-80097138D01*
X113319743Y-80281680D01*
X113225688Y-80484305D01*
X113165989Y-80699570D01*
X113142251Y-80921695D01*
X113142548Y-80926848D01*
X113142548Y-80926851D01*
X113148011Y-81021590D01*
X113155110Y-81144715D01*
X113156247Y-81149761D01*
X113156248Y-81149767D01*
X113176119Y-81237939D01*
X113204222Y-81362639D01*
X113288266Y-81569616D01*
X113339019Y-81652438D01*
X113402291Y-81755688D01*
X113404987Y-81760088D01*
X113551250Y-81928938D01*
X113723126Y-82071632D01*
X113793595Y-82112811D01*
X113796445Y-82114476D01*
X113845169Y-82166114D01*
X113858240Y-82235897D01*
X113831509Y-82301669D01*
X113791055Y-82335027D01*
X113778607Y-82341507D01*
X113774474Y-82344610D01*
X113774471Y-82344612D01*
X113750247Y-82362800D01*
X113599965Y-82475635D01*
X113445629Y-82637138D01*
X113319743Y-82821680D01*
X113305311Y-82852771D01*
X113253649Y-82964069D01*
X113225688Y-83024305D01*
X113165989Y-83239570D01*
X113142251Y-83461695D01*
X113142548Y-83466848D01*
X113142548Y-83466851D01*
X113142669Y-83468941D01*
X113155110Y-83684715D01*
X113156247Y-83689761D01*
X113156248Y-83689767D01*
X113170449Y-83752778D01*
X113204222Y-83902639D01*
X113288266Y-84109616D01*
X113404987Y-84300088D01*
X113551250Y-84468938D01*
X113723126Y-84611632D01*
X113752699Y-84628913D01*
X113796445Y-84654476D01*
X113845169Y-84706114D01*
X113858240Y-84775897D01*
X113831509Y-84841669D01*
X113791055Y-84875027D01*
X113778607Y-84881507D01*
X113774474Y-84884610D01*
X113774471Y-84884612D01*
X113688007Y-84949531D01*
X113599965Y-85015635D01*
X113596393Y-85019373D01*
X113469756Y-85151891D01*
X113445629Y-85177138D01*
X113442720Y-85181403D01*
X113442714Y-85181411D01*
X113359028Y-85304090D01*
X113319743Y-85361680D01*
X113225688Y-85564305D01*
X113165989Y-85779570D01*
X113142251Y-86001695D01*
X113142548Y-86006848D01*
X113142548Y-86006851D01*
X113148011Y-86101590D01*
X113155110Y-86224715D01*
X113156247Y-86229761D01*
X113156248Y-86229767D01*
X113173447Y-86306081D01*
X113204222Y-86442639D01*
X113288266Y-86649616D01*
X113339019Y-86732438D01*
X113402291Y-86835688D01*
X113404987Y-86840088D01*
X113551250Y-87008938D01*
X113723126Y-87151632D01*
X113753370Y-87169305D01*
X113796955Y-87194774D01*
X113845679Y-87246412D01*
X113858750Y-87316195D01*
X113832019Y-87381967D01*
X113791562Y-87415327D01*
X113783457Y-87419546D01*
X113774738Y-87425036D01*
X113604433Y-87552905D01*
X113596726Y-87559748D01*
X113449590Y-87713717D01*
X113443104Y-87721727D01*
X113323098Y-87897649D01*
X113318000Y-87906623D01*
X113228338Y-88099783D01*
X113224775Y-88109470D01*
X113169389Y-88309183D01*
X113170912Y-88317607D01*
X113183292Y-88321000D01*
X114633000Y-88321000D01*
X114701121Y-88341002D01*
X114747614Y-88394658D01*
X114759000Y-88447000D01*
X114759000Y-88703000D01*
X114738998Y-88771121D01*
X114685342Y-88817614D01*
X114633000Y-88829000D01*
X113188225Y-88829000D01*
X113174694Y-88832973D01*
X113173257Y-88842966D01*
X113203565Y-88977446D01*
X113206645Y-88987275D01*
X113286770Y-89184603D01*
X113291413Y-89193794D01*
X113402694Y-89375388D01*
X113408777Y-89383699D01*
X113548213Y-89544667D01*
X113555580Y-89551883D01*
X113719434Y-89687916D01*
X113727881Y-89693831D01*
X113796969Y-89734203D01*
X113845693Y-89785842D01*
X113858764Y-89855625D01*
X113832033Y-89921396D01*
X113791584Y-89954752D01*
X113778607Y-89961507D01*
X113774474Y-89964610D01*
X113774471Y-89964612D01*
X113750247Y-89982800D01*
X113599965Y-90095635D01*
X113445629Y-90257138D01*
X113319743Y-90441680D01*
X113225688Y-90644305D01*
X113165989Y-90859570D01*
X113142251Y-91081695D01*
X113142548Y-91086848D01*
X113142548Y-91086851D01*
X113148011Y-91181590D01*
X113155110Y-91304715D01*
X113156247Y-91309761D01*
X113156248Y-91309767D01*
X113164744Y-91347464D01*
X113204222Y-91522639D01*
X113288266Y-91729616D01*
X113339019Y-91812438D01*
X113402291Y-91915688D01*
X113404987Y-91920088D01*
X113551250Y-92088938D01*
X113723126Y-92231632D01*
X113793595Y-92272811D01*
X113796445Y-92274476D01*
X113845169Y-92326114D01*
X113858240Y-92395897D01*
X113831509Y-92461669D01*
X113791055Y-92495027D01*
X113778607Y-92501507D01*
X113774474Y-92504610D01*
X113774471Y-92504612D01*
X113750247Y-92522800D01*
X113599965Y-92635635D01*
X113445629Y-92797138D01*
X113319743Y-92981680D01*
X113225688Y-93184305D01*
X113165989Y-93399570D01*
X113142251Y-93621695D01*
X113142548Y-93626848D01*
X113142548Y-93626851D01*
X113148011Y-93721590D01*
X113155110Y-93844715D01*
X113156247Y-93849761D01*
X113156248Y-93849767D01*
X113176119Y-93937939D01*
X113204222Y-94062639D01*
X113288266Y-94269616D01*
X113339019Y-94352438D01*
X113402291Y-94455688D01*
X113404987Y-94460088D01*
X113551250Y-94628938D01*
X113723126Y-94771632D01*
X113793595Y-94812811D01*
X113796445Y-94814476D01*
X113845169Y-94866114D01*
X113858240Y-94935897D01*
X113831509Y-95001669D01*
X113791055Y-95035027D01*
X113778607Y-95041507D01*
X113774474Y-95044610D01*
X113774471Y-95044612D01*
X113750247Y-95062800D01*
X113599965Y-95175635D01*
X113445629Y-95337138D01*
X113319743Y-95521680D01*
X113225688Y-95724305D01*
X113165989Y-95939570D01*
X113142251Y-96161695D01*
X113155110Y-96384715D01*
X113156247Y-96389761D01*
X113156248Y-96389767D01*
X113165736Y-96431866D01*
X113204222Y-96602639D01*
X113288266Y-96809616D01*
X113404987Y-97000088D01*
X113551250Y-97168938D01*
X113723126Y-97311632D01*
X113793595Y-97352811D01*
X113796445Y-97354476D01*
X113845169Y-97406114D01*
X113858240Y-97475897D01*
X113831509Y-97541669D01*
X113791055Y-97575027D01*
X113778607Y-97581507D01*
X113774474Y-97584610D01*
X113774471Y-97584612D01*
X113750247Y-97602800D01*
X113599965Y-97715635D01*
X113445629Y-97877138D01*
X113319743Y-98061680D01*
X113225688Y-98264305D01*
X113165989Y-98479570D01*
X113142251Y-98701695D01*
X113142548Y-98706848D01*
X113142548Y-98706851D01*
X113148011Y-98801590D01*
X113155110Y-98924715D01*
X113156247Y-98929761D01*
X113156248Y-98929767D01*
X113173970Y-99008401D01*
X113204222Y-99142639D01*
X113288266Y-99349616D01*
X113335046Y-99425954D01*
X113402291Y-99535688D01*
X113404987Y-99540088D01*
X113551250Y-99708938D01*
X113723126Y-99851632D01*
X113754559Y-99870000D01*
X113796445Y-99894476D01*
X113845169Y-99946114D01*
X113858240Y-100015897D01*
X113831509Y-100081669D01*
X113791055Y-100115027D01*
X113778607Y-100121507D01*
X113774474Y-100124610D01*
X113774471Y-100124612D01*
X113604100Y-100252530D01*
X113599965Y-100255635D01*
X113578544Y-100278051D01*
X113484509Y-100376453D01*
X113445629Y-100417138D01*
X113319743Y-100601680D01*
X113304003Y-100635590D01*
X113247583Y-100757137D01*
X113225688Y-100804305D01*
X113165989Y-101019570D01*
X113142251Y-101241695D01*
X113142548Y-101246848D01*
X113142548Y-101246851D01*
X113148011Y-101341590D01*
X113155110Y-101464715D01*
X113156247Y-101469761D01*
X113156248Y-101469767D01*
X113174041Y-101548717D01*
X113204222Y-101682639D01*
X113259500Y-101818774D01*
X113274692Y-101856186D01*
X113288266Y-101889616D01*
X113335150Y-101966124D01*
X113402291Y-102075688D01*
X113404987Y-102080088D01*
X113551250Y-102248938D01*
X113723126Y-102391632D01*
X113793595Y-102432811D01*
X113796445Y-102434476D01*
X113845169Y-102486114D01*
X113858240Y-102555897D01*
X113831509Y-102621669D01*
X113791055Y-102655027D01*
X113778607Y-102661507D01*
X113774474Y-102664610D01*
X113774471Y-102664612D01*
X113638103Y-102767000D01*
X113599965Y-102795635D01*
X113445629Y-102957138D01*
X113442715Y-102961410D01*
X113442714Y-102961411D01*
X113396749Y-103028794D01*
X113319743Y-103141680D01*
X113303899Y-103175814D01*
X113249450Y-103293115D01*
X113225688Y-103344305D01*
X113165989Y-103559570D01*
X113142251Y-103781695D01*
X113142548Y-103786848D01*
X113142548Y-103786851D01*
X113148011Y-103881590D01*
X113155110Y-104004715D01*
X113156247Y-104009761D01*
X113156248Y-104009767D01*
X113169597Y-104069000D01*
X113204222Y-104222639D01*
X113288266Y-104429616D01*
X113404987Y-104620088D01*
X113551250Y-104788938D01*
X113723126Y-104931632D01*
X113754559Y-104950000D01*
X113796445Y-104974476D01*
X113845169Y-105026114D01*
X113858240Y-105095897D01*
X113831509Y-105161669D01*
X113791055Y-105195027D01*
X113778607Y-105201507D01*
X113774474Y-105204610D01*
X113774471Y-105204612D01*
X113604100Y-105332530D01*
X113599965Y-105335635D01*
X113578544Y-105358051D01*
X113484509Y-105456453D01*
X113445629Y-105497138D01*
X113319743Y-105681680D01*
X113304003Y-105715590D01*
X113247583Y-105837137D01*
X113225688Y-105884305D01*
X113165989Y-106099570D01*
X113142251Y-106321695D01*
X113142548Y-106326848D01*
X113142548Y-106326851D01*
X113148011Y-106421590D01*
X113155110Y-106544715D01*
X113156247Y-106549761D01*
X113156248Y-106549767D01*
X113173970Y-106628401D01*
X113204222Y-106762639D01*
X113288266Y-106969616D01*
X113335046Y-107045954D01*
X113402291Y-107155688D01*
X113404987Y-107160088D01*
X113551250Y-107328938D01*
X113723126Y-107471632D01*
X113760318Y-107493365D01*
X113796955Y-107514774D01*
X113845679Y-107566412D01*
X113858750Y-107636195D01*
X113832019Y-107701967D01*
X113791562Y-107735327D01*
X113783457Y-107739546D01*
X113774738Y-107745036D01*
X113604433Y-107872905D01*
X113596726Y-107879748D01*
X113449590Y-108033717D01*
X113443104Y-108041727D01*
X113323098Y-108217649D01*
X113318000Y-108226623D01*
X113228338Y-108419783D01*
X113224775Y-108429470D01*
X113169389Y-108629183D01*
X113170912Y-108637607D01*
X113183292Y-108641000D01*
X114633000Y-108641000D01*
X114701121Y-108661002D01*
X114747614Y-108714658D01*
X114759000Y-108767000D01*
X114759000Y-109023000D01*
X114738998Y-109091121D01*
X114685342Y-109137614D01*
X114633000Y-109149000D01*
X113188225Y-109149000D01*
X113174694Y-109152973D01*
X113173257Y-109162966D01*
X113203565Y-109297446D01*
X113206645Y-109307275D01*
X113286770Y-109504603D01*
X113291413Y-109513794D01*
X113402694Y-109695388D01*
X113408777Y-109703699D01*
X113548213Y-109864667D01*
X113555580Y-109871883D01*
X113719434Y-110007916D01*
X113727881Y-110013831D01*
X113796969Y-110054203D01*
X113845693Y-110105842D01*
X113858764Y-110175625D01*
X113832033Y-110241396D01*
X113791584Y-110274752D01*
X113778607Y-110281507D01*
X113774474Y-110284610D01*
X113774471Y-110284612D01*
X113604100Y-110412530D01*
X113599965Y-110415635D01*
X113596393Y-110419373D01*
X113484509Y-110536453D01*
X113445629Y-110577138D01*
X113319743Y-110761680D01*
X113280444Y-110846342D01*
X113247583Y-110917137D01*
X113225688Y-110964305D01*
X113165989Y-111179570D01*
X113142251Y-111401695D01*
X113142548Y-111406848D01*
X113142548Y-111406851D01*
X113149179Y-111521852D01*
X113155110Y-111624715D01*
X113156247Y-111629761D01*
X113156248Y-111629767D01*
X113174812Y-111712138D01*
X113204222Y-111842639D01*
X113288266Y-112049616D01*
X113328051Y-112114539D01*
X113402291Y-112235688D01*
X113404987Y-112240088D01*
X113551250Y-112408938D01*
X113723126Y-112551632D01*
X113754559Y-112570000D01*
X113796445Y-112594476D01*
X113845169Y-112646114D01*
X113858240Y-112715897D01*
X113831509Y-112781669D01*
X113791055Y-112815027D01*
X113778607Y-112821507D01*
X113774474Y-112824610D01*
X113774471Y-112824612D01*
X113621825Y-112939222D01*
X113599965Y-112955635D01*
X113596393Y-112959373D01*
X113484509Y-113076453D01*
X113445629Y-113117138D01*
X113442715Y-113121410D01*
X113442714Y-113121411D01*
X113416479Y-113159870D01*
X113319743Y-113301680D01*
X113303899Y-113335814D01*
X113247583Y-113457137D01*
X113225688Y-113504305D01*
X113165989Y-113719570D01*
X113142251Y-113941695D01*
X113142548Y-113946848D01*
X113142548Y-113946851D01*
X113151552Y-114103000D01*
X113155110Y-114164715D01*
X113156247Y-114169761D01*
X113156248Y-114169767D01*
X113169597Y-114229000D01*
X113204222Y-114382639D01*
X113288266Y-114589616D01*
X113404987Y-114780088D01*
X113551250Y-114948938D01*
X113723126Y-115091632D01*
X113754559Y-115110000D01*
X113796445Y-115134476D01*
X113845169Y-115186114D01*
X113858240Y-115255897D01*
X113831509Y-115321669D01*
X113791055Y-115355027D01*
X113778607Y-115361507D01*
X113774474Y-115364610D01*
X113774471Y-115364612D01*
X113604100Y-115492530D01*
X113599965Y-115495635D01*
X113596393Y-115499373D01*
X113484509Y-115616453D01*
X113445629Y-115657138D01*
X113442720Y-115661403D01*
X113442714Y-115661411D01*
X113329065Y-115828014D01*
X113274154Y-115873017D01*
X113228937Y-115882948D01*
X113203762Y-115883740D01*
X113185111Y-115884326D01*
X113177495Y-115886539D01*
X113177493Y-115886539D01*
X113165652Y-115889979D01*
X113146293Y-115893988D01*
X113144983Y-115894154D01*
X113126203Y-115896526D01*
X113118837Y-115899442D01*
X113118831Y-115899444D01*
X113085098Y-115912800D01*
X113073868Y-115916645D01*
X113039017Y-115926770D01*
X113031407Y-115928981D01*
X113024584Y-115933016D01*
X113013966Y-115939295D01*
X112996213Y-115947992D01*
X112988568Y-115951019D01*
X112977383Y-115955448D01*
X112970968Y-115960109D01*
X112941612Y-115981437D01*
X112931695Y-115987951D01*
X112893638Y-116010458D01*
X112879317Y-116024779D01*
X112864284Y-116037619D01*
X112847893Y-116049528D01*
X112833914Y-116066426D01*
X112819712Y-116083593D01*
X112811722Y-116092374D01*
X112257742Y-116646353D01*
X112249463Y-116653887D01*
X112242982Y-116658000D01*
X112237555Y-116663779D01*
X112237554Y-116663780D01*
X112223741Y-116678490D01*
X112162528Y-116714456D01*
X112091588Y-116711619D01*
X112033444Y-116670879D01*
X112018884Y-116647967D01*
X112010337Y-116630635D01*
X111942015Y-116492092D01*
X111814622Y-116321491D01*
X111658271Y-116176963D01*
X111478201Y-116063347D01*
X111280441Y-115984449D01*
X111274781Y-115983323D01*
X111274777Y-115983322D01*
X111077282Y-115944038D01*
X111077280Y-115944038D01*
X111071615Y-115942911D01*
X111065840Y-115942835D01*
X111065836Y-115942835D01*
X110959161Y-115941439D01*
X110858716Y-115940124D01*
X110853019Y-115941103D01*
X110853018Y-115941103D01*
X110654564Y-115975203D01*
X110654561Y-115975204D01*
X110648874Y-115976181D01*
X110449116Y-116049875D01*
X110266134Y-116158739D01*
X110106054Y-116299125D01*
X109974238Y-116466333D01*
X109971549Y-116471444D01*
X109971547Y-116471447D01*
X109920609Y-116568264D01*
X109875100Y-116654762D01*
X109873386Y-116660283D01*
X109873384Y-116660287D01*
X109832443Y-116792138D01*
X109811961Y-116858102D01*
X109791500Y-117030982D01*
X109791500Y-118454013D01*
X109806019Y-118612024D01*
X109807587Y-118617583D01*
X109807587Y-118617584D01*
X109828342Y-118691173D01*
X109863814Y-118816948D01*
X109866366Y-118822123D01*
X109866368Y-118822128D01*
X109932971Y-118957185D01*
X109957985Y-119007908D01*
X109961439Y-119012534D01*
X109961440Y-119012535D01*
X109993150Y-119055000D01*
X110085378Y-119178509D01*
X110109574Y-119200875D01*
X110214617Y-119297975D01*
X110251063Y-119358903D01*
X110248783Y-119429863D01*
X110208500Y-119488326D01*
X110143006Y-119515729D01*
X110129089Y-119516500D01*
X98268818Y-119516500D01*
X98200697Y-119496498D01*
X98154204Y-119442842D01*
X98144100Y-119372568D01*
X98173594Y-119307988D01*
X98185741Y-119295768D01*
X98289607Y-119204680D01*
X98293946Y-119200875D01*
X98425762Y-119033667D01*
X98441599Y-119003567D01*
X98522207Y-118850356D01*
X98524900Y-118845238D01*
X98528899Y-118832361D01*
X98586324Y-118647421D01*
X98588039Y-118641898D01*
X98608500Y-118469018D01*
X98608500Y-117045987D01*
X98599177Y-116944528D01*
X98594510Y-116893730D01*
X98594509Y-116893727D01*
X98593981Y-116887976D01*
X98581855Y-116844981D01*
X98537754Y-116688611D01*
X98537753Y-116688609D01*
X98536186Y-116683052D01*
X98526683Y-116663780D01*
X98444570Y-116497273D01*
X98444568Y-116497269D01*
X98442015Y-116492092D01*
X98314622Y-116321491D01*
X98158271Y-116176963D01*
X97978201Y-116063347D01*
X97780441Y-115984449D01*
X97774781Y-115983323D01*
X97774777Y-115983322D01*
X97577282Y-115944038D01*
X97577280Y-115944038D01*
X97571615Y-115942911D01*
X97565840Y-115942835D01*
X97565836Y-115942835D01*
X97459161Y-115941439D01*
X97358716Y-115940124D01*
X97353019Y-115941103D01*
X97353018Y-115941103D01*
X97154564Y-115975203D01*
X97154561Y-115975204D01*
X97148874Y-115976181D01*
X96949116Y-116049875D01*
X96766134Y-116158739D01*
X96606054Y-116299125D01*
X96474238Y-116466333D01*
X96471549Y-116471444D01*
X96471547Y-116471447D01*
X96420609Y-116568264D01*
X96375100Y-116654762D01*
X96373386Y-116660283D01*
X96373384Y-116660287D01*
X96332443Y-116792138D01*
X96311961Y-116858102D01*
X96291500Y-117030982D01*
X96291500Y-118454013D01*
X96306019Y-118612024D01*
X96307587Y-118617583D01*
X96307587Y-118617584D01*
X96328342Y-118691173D01*
X96363814Y-118816948D01*
X96366366Y-118822123D01*
X96366368Y-118822128D01*
X96432971Y-118957185D01*
X96457985Y-119007908D01*
X96461439Y-119012534D01*
X96461440Y-119012535D01*
X96493150Y-119055000D01*
X96585378Y-119178509D01*
X96609574Y-119200875D01*
X96714617Y-119297975D01*
X96751063Y-119358903D01*
X96748783Y-119429863D01*
X96708500Y-119488326D01*
X96643006Y-119515729D01*
X96629089Y-119516500D01*
X87864595Y-119516500D01*
X87796474Y-119496498D01*
X87775499Y-119479595D01*
X87416082Y-119120177D01*
X87382057Y-119057865D01*
X87387122Y-118987049D01*
X87429669Y-118930214D01*
X87496189Y-118905403D01*
X87550125Y-118913372D01*
X87669692Y-118959030D01*
X87674760Y-118960061D01*
X87674763Y-118960062D01*
X87782017Y-118981883D01*
X87888597Y-119003567D01*
X87893772Y-119003757D01*
X87893774Y-119003757D01*
X88106673Y-119011564D01*
X88106677Y-119011564D01*
X88111837Y-119011753D01*
X88116957Y-119011097D01*
X88116959Y-119011097D01*
X88328288Y-118984025D01*
X88328289Y-118984025D01*
X88333416Y-118983368D01*
X88338366Y-118981883D01*
X88542429Y-118920661D01*
X88542434Y-118920659D01*
X88547384Y-118919174D01*
X88747994Y-118820896D01*
X88929860Y-118691173D01*
X88979308Y-118641898D01*
X89084435Y-118537137D01*
X89088096Y-118533489D01*
X89218453Y-118352077D01*
X89221165Y-118346591D01*
X89315136Y-118156453D01*
X89315137Y-118156451D01*
X89317430Y-118151811D01*
X89353670Y-118032530D01*
X89380865Y-117943023D01*
X89380865Y-117943021D01*
X89382370Y-117938069D01*
X89411529Y-117716590D01*
X89411611Y-117713240D01*
X89413074Y-117653365D01*
X89413074Y-117653361D01*
X89413156Y-117650000D01*
X89394852Y-117427361D01*
X89340431Y-117210702D01*
X89251354Y-117005840D01*
X89176018Y-116889388D01*
X91336676Y-116889388D01*
X91337213Y-116895523D01*
X91341050Y-116939388D01*
X91341379Y-116944214D01*
X91341500Y-116946686D01*
X91341500Y-116949769D01*
X91341801Y-116952837D01*
X91345690Y-116992506D01*
X91345812Y-116993819D01*
X91347390Y-117011857D01*
X91353913Y-117086413D01*
X91355400Y-117091532D01*
X91355920Y-117096833D01*
X91382791Y-117185834D01*
X91383126Y-117186967D01*
X91393303Y-117221994D01*
X91409091Y-117276336D01*
X91411544Y-117281068D01*
X91413084Y-117286169D01*
X91415978Y-117291612D01*
X91456731Y-117368260D01*
X91457343Y-117369426D01*
X91490050Y-117432522D01*
X91500108Y-117451926D01*
X91503431Y-117456089D01*
X91505934Y-117460796D01*
X91564755Y-117532918D01*
X91565446Y-117533774D01*
X91596738Y-117572973D01*
X91599242Y-117575477D01*
X91599884Y-117576195D01*
X91603585Y-117580528D01*
X91630935Y-117614062D01*
X91635683Y-117617990D01*
X91635684Y-117617991D01*
X91666258Y-117643284D01*
X91675037Y-117651272D01*
X91897075Y-117873309D01*
X92011261Y-117967103D01*
X92185563Y-118060562D01*
X92240124Y-118077243D01*
X92368800Y-118116584D01*
X92368802Y-118116584D01*
X92374698Y-118118387D01*
X92432551Y-118124264D01*
X92565334Y-118137752D01*
X92565339Y-118137752D01*
X92571462Y-118138374D01*
X92695525Y-118126646D01*
X92762229Y-118120341D01*
X92762231Y-118120341D01*
X92768362Y-118119761D01*
X92863129Y-118091510D01*
X92951993Y-118065019D01*
X92951995Y-118065018D01*
X92957896Y-118063259D01*
X93132846Y-117971018D01*
X93157432Y-117951109D01*
X93281757Y-117850432D01*
X93281758Y-117850431D01*
X93286547Y-117846553D01*
X93358851Y-117759771D01*
X93409202Y-117699338D01*
X93409203Y-117699337D01*
X93413146Y-117694604D01*
X93507822Y-117520959D01*
X93545058Y-117402137D01*
X93565122Y-117338114D01*
X93565123Y-117338111D01*
X93566965Y-117332232D01*
X93567861Y-117323990D01*
X93587659Y-117141737D01*
X93587659Y-117141733D01*
X93588324Y-117135612D01*
X93571087Y-116938587D01*
X93569368Y-116932670D01*
X93569367Y-116932665D01*
X93517627Y-116754578D01*
X93515909Y-116748664D01*
X93424892Y-116573074D01*
X93386028Y-116524390D01*
X93359161Y-116458673D01*
X93358500Y-116445781D01*
X93358500Y-113950231D01*
X93357814Y-113943227D01*
X93347868Y-113841797D01*
X93344080Y-113803167D01*
X93332713Y-113765516D01*
X93288697Y-113619731D01*
X93286916Y-113613831D01*
X93277109Y-113595387D01*
X99120070Y-113595387D01*
X99126528Y-113604747D01*
X99153488Y-113628391D01*
X99160003Y-113633389D01*
X99411028Y-113801119D01*
X99418165Y-113805240D01*
X99688930Y-113938766D01*
X99696534Y-113941916D01*
X99982413Y-114038959D01*
X99990365Y-114041090D01*
X100286469Y-114099988D01*
X100294627Y-114101062D01*
X100595881Y-114120807D01*
X100604119Y-114120807D01*
X100905373Y-114101062D01*
X100913531Y-114099988D01*
X101209635Y-114041090D01*
X101217587Y-114038959D01*
X101503466Y-113941916D01*
X101511070Y-113938766D01*
X101781835Y-113805240D01*
X101788972Y-113801119D01*
X102039997Y-113633389D01*
X102046512Y-113628391D01*
X102071609Y-113606381D01*
X102080004Y-113593146D01*
X102074169Y-113583379D01*
X100612812Y-112122022D01*
X100598868Y-112114408D01*
X100597035Y-112114539D01*
X100590420Y-112118790D01*
X99127584Y-113581626D01*
X99120070Y-113595387D01*
X93277109Y-113595387D01*
X93194066Y-113439204D01*
X93105686Y-113330840D01*
X93072960Y-113290713D01*
X93072957Y-113290710D01*
X93069065Y-113285938D01*
X93057387Y-113276277D01*
X92921425Y-113163799D01*
X92921421Y-113163797D01*
X92916675Y-113159870D01*
X92742701Y-113065802D01*
X92553768Y-113007318D01*
X92547643Y-113006674D01*
X92547642Y-113006674D01*
X92363204Y-112987289D01*
X92363202Y-112987289D01*
X92357075Y-112986645D01*
X92274576Y-112994153D01*
X92166251Y-113004011D01*
X92166248Y-113004012D01*
X92160112Y-113004570D01*
X92154206Y-113006308D01*
X92154202Y-113006309D01*
X92049076Y-113037249D01*
X91970381Y-113060410D01*
X91964923Y-113063263D01*
X91964919Y-113063265D01*
X91874147Y-113110720D01*
X91795110Y-113152040D01*
X91640975Y-113275968D01*
X91513846Y-113427474D01*
X91510879Y-113432872D01*
X91510875Y-113432877D01*
X91452247Y-113539523D01*
X91418567Y-113600787D01*
X91416706Y-113606654D01*
X91416705Y-113606656D01*
X91391335Y-113686632D01*
X91358765Y-113789306D01*
X91341500Y-113943227D01*
X91341500Y-116838157D01*
X91340763Y-116851764D01*
X91340075Y-116858102D01*
X91336676Y-116889388D01*
X89176018Y-116889388D01*
X89172055Y-116883262D01*
X89132822Y-116822617D01*
X89132820Y-116822614D01*
X89130014Y-116818277D01*
X88979670Y-116653051D01*
X88975619Y-116649852D01*
X88975615Y-116649848D01*
X88808414Y-116517800D01*
X88808410Y-116517798D01*
X88804359Y-116514598D01*
X88763053Y-116491796D01*
X88713084Y-116441364D01*
X88698312Y-116371921D01*
X88723428Y-116305516D01*
X88750780Y-116278909D01*
X88794603Y-116247650D01*
X88929860Y-116151173D01*
X89088096Y-115993489D01*
X89123412Y-115944342D01*
X89215435Y-115816277D01*
X89218453Y-115812077D01*
X89221165Y-115806591D01*
X89315136Y-115616453D01*
X89315137Y-115616451D01*
X89317430Y-115611811D01*
X89382370Y-115398069D01*
X89411529Y-115176590D01*
X89411611Y-115173240D01*
X89413074Y-115113365D01*
X89413074Y-115113361D01*
X89413156Y-115110000D01*
X89394852Y-114887361D01*
X89340431Y-114670702D01*
X89251354Y-114465840D01*
X89130014Y-114278277D01*
X88979670Y-114113051D01*
X88975619Y-114109852D01*
X88975615Y-114109848D01*
X88808414Y-113977800D01*
X88808410Y-113977798D01*
X88804359Y-113974598D01*
X88763053Y-113951796D01*
X88713084Y-113901364D01*
X88698312Y-113831921D01*
X88723428Y-113765516D01*
X88750780Y-113738909D01*
X88794603Y-113707650D01*
X88929860Y-113611173D01*
X88936309Y-113604747D01*
X89037102Y-113504305D01*
X89088096Y-113453489D01*
X89218453Y-113272077D01*
X89221165Y-113266591D01*
X89315136Y-113076453D01*
X89315137Y-113076451D01*
X89317430Y-113071811D01*
X89382370Y-112858069D01*
X89411529Y-112636590D01*
X89411670Y-112630839D01*
X89413074Y-112573365D01*
X89413074Y-112573361D01*
X89413156Y-112570000D01*
X89394852Y-112347361D01*
X89340431Y-112130702D01*
X89251354Y-111925840D01*
X89194266Y-111837596D01*
X89140263Y-111754119D01*
X98229193Y-111754119D01*
X98248938Y-112055373D01*
X98250012Y-112063531D01*
X98308910Y-112359635D01*
X98311041Y-112367587D01*
X98408081Y-112653457D01*
X98411236Y-112661076D01*
X98544761Y-112931835D01*
X98548882Y-112938973D01*
X98716611Y-113189997D01*
X98721609Y-113196512D01*
X98743619Y-113221609D01*
X98756854Y-113230004D01*
X98766621Y-113224169D01*
X100227978Y-111762812D01*
X100234356Y-111751132D01*
X100964408Y-111751132D01*
X100964539Y-111752965D01*
X100968790Y-111759580D01*
X102431626Y-113222416D01*
X102445387Y-113229930D01*
X102454747Y-113223472D01*
X102478391Y-113196512D01*
X102483389Y-113189997D01*
X102651118Y-112938973D01*
X102655239Y-112931835D01*
X102788764Y-112661076D01*
X102791919Y-112653457D01*
X102888959Y-112367587D01*
X102891090Y-112359635D01*
X102949988Y-112063531D01*
X102951062Y-112055373D01*
X102970807Y-111754119D01*
X102970807Y-111750000D01*
X105428422Y-111750000D01*
X105428692Y-111754119D01*
X105448060Y-112049616D01*
X105448711Y-112059553D01*
X105449513Y-112063586D01*
X105449514Y-112063592D01*
X105508426Y-112359760D01*
X105509232Y-112363810D01*
X105510559Y-112367719D01*
X105510560Y-112367723D01*
X105605061Y-112646114D01*
X105608948Y-112657564D01*
X105633227Y-112706797D01*
X105689796Y-112821507D01*
X105746153Y-112935789D01*
X105918501Y-113193725D01*
X106123041Y-113426959D01*
X106356275Y-113631499D01*
X106614211Y-113803847D01*
X106617910Y-113805671D01*
X106617915Y-113805674D01*
X106741539Y-113866638D01*
X106892436Y-113941052D01*
X106896341Y-113942377D01*
X106896342Y-113942378D01*
X107182277Y-114039440D01*
X107182281Y-114039441D01*
X107186190Y-114040768D01*
X107190234Y-114041572D01*
X107190240Y-114041574D01*
X107486408Y-114100486D01*
X107486414Y-114100487D01*
X107490447Y-114101289D01*
X107494552Y-114101558D01*
X107494559Y-114101559D01*
X107795881Y-114121308D01*
X107800000Y-114121578D01*
X107804119Y-114121308D01*
X108105441Y-114101559D01*
X108105448Y-114101558D01*
X108109553Y-114101289D01*
X108113586Y-114100487D01*
X108113592Y-114100486D01*
X108409760Y-114041574D01*
X108409766Y-114041572D01*
X108413810Y-114040768D01*
X108417719Y-114039441D01*
X108417723Y-114039440D01*
X108703658Y-113942378D01*
X108703659Y-113942377D01*
X108707564Y-113941052D01*
X108858461Y-113866638D01*
X108982085Y-113805674D01*
X108982090Y-113805671D01*
X108985789Y-113803847D01*
X109243725Y-113631499D01*
X109476959Y-113426959D01*
X109681499Y-113193725D01*
X109853847Y-112935789D01*
X109910205Y-112821507D01*
X109966773Y-112706797D01*
X109991052Y-112657564D01*
X109994939Y-112646114D01*
X110089440Y-112367723D01*
X110089441Y-112367719D01*
X110090768Y-112363810D01*
X110091574Y-112359760D01*
X110150486Y-112063592D01*
X110150487Y-112063586D01*
X110151289Y-112059553D01*
X110151941Y-112049616D01*
X110171308Y-111754119D01*
X110171578Y-111750000D01*
X110169096Y-111712138D01*
X110151559Y-111444559D01*
X110151558Y-111444552D01*
X110151289Y-111440447D01*
X110149630Y-111432104D01*
X110091574Y-111140240D01*
X110091572Y-111140234D01*
X110090768Y-111136190D01*
X110069716Y-111074171D01*
X109992378Y-110846342D01*
X109992377Y-110846341D01*
X109991052Y-110842436D01*
X109926124Y-110710775D01*
X109855674Y-110567915D01*
X109855671Y-110567910D01*
X109853847Y-110564211D01*
X109681499Y-110306275D01*
X109476959Y-110073041D01*
X109243725Y-109868501D01*
X108985789Y-109696153D01*
X108982090Y-109694329D01*
X108982085Y-109694326D01*
X108771955Y-109590702D01*
X108707564Y-109558948D01*
X108547469Y-109504603D01*
X108417723Y-109460560D01*
X108417719Y-109460559D01*
X108413810Y-109459232D01*
X108409766Y-109458428D01*
X108409760Y-109458426D01*
X108113592Y-109399514D01*
X108113586Y-109399513D01*
X108109553Y-109398711D01*
X108105448Y-109398442D01*
X108105441Y-109398441D01*
X107804119Y-109378692D01*
X107800000Y-109378422D01*
X107795881Y-109378692D01*
X107494559Y-109398441D01*
X107494552Y-109398442D01*
X107490447Y-109398711D01*
X107486414Y-109399513D01*
X107486408Y-109399514D01*
X107190240Y-109458426D01*
X107190234Y-109458428D01*
X107186190Y-109459232D01*
X107182281Y-109460559D01*
X107182277Y-109460560D01*
X107052531Y-109504603D01*
X106892436Y-109558948D01*
X106828045Y-109590702D01*
X106617915Y-109694326D01*
X106617910Y-109694329D01*
X106614211Y-109696153D01*
X106356275Y-109868501D01*
X106123041Y-110073041D01*
X105918501Y-110306275D01*
X105746153Y-110564211D01*
X105744329Y-110567910D01*
X105744326Y-110567915D01*
X105673876Y-110710775D01*
X105608948Y-110842436D01*
X105607623Y-110846341D01*
X105607622Y-110846342D01*
X105530285Y-111074171D01*
X105509232Y-111136190D01*
X105508428Y-111140234D01*
X105508426Y-111140240D01*
X105450371Y-111432104D01*
X105448711Y-111440447D01*
X105448442Y-111444552D01*
X105448441Y-111444559D01*
X105430904Y-111712138D01*
X105428422Y-111750000D01*
X102970807Y-111750000D01*
X102970807Y-111745881D01*
X102951062Y-111444627D01*
X102949988Y-111436469D01*
X102891089Y-111140363D01*
X102888959Y-111132413D01*
X102791919Y-110846543D01*
X102788764Y-110838924D01*
X102655239Y-110568165D01*
X102651118Y-110561027D01*
X102483389Y-110310003D01*
X102478391Y-110303488D01*
X102456381Y-110278391D01*
X102443146Y-110269996D01*
X102433379Y-110275831D01*
X100972022Y-111737188D01*
X100964408Y-111751132D01*
X100234356Y-111751132D01*
X100235592Y-111748868D01*
X100235461Y-111747035D01*
X100231210Y-111740420D01*
X98768374Y-110277584D01*
X98754613Y-110270070D01*
X98745253Y-110276528D01*
X98721609Y-110303488D01*
X98716611Y-110310003D01*
X98548882Y-110561027D01*
X98544761Y-110568165D01*
X98411236Y-110838924D01*
X98408081Y-110846543D01*
X98311041Y-111132413D01*
X98308911Y-111140363D01*
X98250012Y-111436469D01*
X98248938Y-111444627D01*
X98229193Y-111745881D01*
X98229193Y-111754119D01*
X89140263Y-111754119D01*
X89132822Y-111742617D01*
X89132820Y-111742614D01*
X89130014Y-111738277D01*
X88979670Y-111573051D01*
X88975619Y-111569852D01*
X88975615Y-111569848D01*
X88808414Y-111437800D01*
X88808410Y-111437798D01*
X88804359Y-111434598D01*
X88763053Y-111411796D01*
X88713084Y-111361364D01*
X88698312Y-111291921D01*
X88723428Y-111225516D01*
X88750780Y-111198909D01*
X88794603Y-111167650D01*
X88929860Y-111071173D01*
X89088096Y-110913489D01*
X89139153Y-110842436D01*
X89215435Y-110736277D01*
X89218453Y-110732077D01*
X89221165Y-110726591D01*
X89315136Y-110536453D01*
X89315137Y-110536451D01*
X89317430Y-110531811D01*
X89382370Y-110318069D01*
X89411529Y-110096590D01*
X89411611Y-110093240D01*
X89413074Y-110033365D01*
X89413074Y-110033361D01*
X89413156Y-110030000D01*
X89403032Y-109906854D01*
X99119996Y-109906854D01*
X99125831Y-109916621D01*
X100587188Y-111377978D01*
X100601132Y-111385592D01*
X100602965Y-111385461D01*
X100609580Y-111381210D01*
X102072416Y-109918374D01*
X102079930Y-109904613D01*
X102073472Y-109895253D01*
X102046512Y-109871609D01*
X102039997Y-109866611D01*
X101788972Y-109698881D01*
X101781835Y-109694760D01*
X101511070Y-109561234D01*
X101503466Y-109558084D01*
X101217587Y-109461041D01*
X101209635Y-109458910D01*
X100913531Y-109400012D01*
X100905373Y-109398938D01*
X100604119Y-109379193D01*
X100595881Y-109379193D01*
X100294627Y-109398938D01*
X100286469Y-109400012D01*
X99990365Y-109458910D01*
X99982413Y-109461041D01*
X99696543Y-109558081D01*
X99688924Y-109561236D01*
X99418165Y-109694761D01*
X99411027Y-109698882D01*
X99160003Y-109866611D01*
X99153488Y-109871609D01*
X99128391Y-109893619D01*
X99119996Y-109906854D01*
X89403032Y-109906854D01*
X89394852Y-109807361D01*
X89340431Y-109590702D01*
X89251354Y-109385840D01*
X89130014Y-109198277D01*
X88979670Y-109033051D01*
X88975619Y-109029852D01*
X88975615Y-109029848D01*
X88808414Y-108897800D01*
X88808410Y-108897798D01*
X88804359Y-108894598D01*
X88763053Y-108871796D01*
X88713084Y-108821364D01*
X88698312Y-108751921D01*
X88723428Y-108685516D01*
X88750780Y-108658909D01*
X88794603Y-108627650D01*
X88929860Y-108531173D01*
X89088096Y-108373489D01*
X89218453Y-108192077D01*
X89283998Y-108059457D01*
X89315136Y-107996453D01*
X89315137Y-107996451D01*
X89317430Y-107991811D01*
X89382370Y-107778069D01*
X89411529Y-107556590D01*
X89411670Y-107550839D01*
X89413074Y-107493365D01*
X89413074Y-107493361D01*
X89413156Y-107490000D01*
X89394852Y-107267361D01*
X89340431Y-107050702D01*
X89251354Y-106845840D01*
X89130014Y-106658277D01*
X88979670Y-106493051D01*
X88975619Y-106489852D01*
X88975615Y-106489848D01*
X88808414Y-106357800D01*
X88808410Y-106357798D01*
X88804359Y-106354598D01*
X88763053Y-106331796D01*
X88713084Y-106281364D01*
X88698312Y-106211921D01*
X88723428Y-106145516D01*
X88750780Y-106118909D01*
X88794603Y-106087650D01*
X88929860Y-105991173D01*
X89088096Y-105833489D01*
X89147594Y-105750689D01*
X89215435Y-105656277D01*
X89218453Y-105652077D01*
X89283998Y-105519457D01*
X89315136Y-105456453D01*
X89315137Y-105456451D01*
X89317430Y-105451811D01*
X89382370Y-105238069D01*
X89411529Y-105016590D01*
X89411611Y-105013240D01*
X89413074Y-104953365D01*
X89413074Y-104953361D01*
X89413156Y-104950000D01*
X89394852Y-104727361D01*
X89340431Y-104510702D01*
X89251354Y-104305840D01*
X89147053Y-104144615D01*
X89132822Y-104122617D01*
X89132820Y-104122614D01*
X89130014Y-104118277D01*
X88979670Y-103953051D01*
X88975619Y-103949852D01*
X88975615Y-103949848D01*
X88808414Y-103817800D01*
X88808410Y-103817798D01*
X88804359Y-103814598D01*
X88799137Y-103811715D01*
X88762569Y-103791529D01*
X88713626Y-103742134D01*
X95774000Y-103742134D01*
X95780755Y-103804316D01*
X95831885Y-103940705D01*
X95919239Y-104057261D01*
X96035795Y-104144615D01*
X96172184Y-104195745D01*
X96234366Y-104202500D01*
X97930634Y-104202500D01*
X97992816Y-104195745D01*
X98129205Y-104144615D01*
X98245761Y-104057261D01*
X98251674Y-104049372D01*
X98252378Y-104048845D01*
X98257492Y-104043731D01*
X98258230Y-104044469D01*
X98308531Y-104006857D01*
X98379349Y-104001830D01*
X98441643Y-104035888D01*
X98453323Y-104049367D01*
X98459239Y-104057261D01*
X98575795Y-104144615D01*
X98712184Y-104195745D01*
X98774366Y-104202500D01*
X100470634Y-104202500D01*
X100532816Y-104195745D01*
X100669205Y-104144615D01*
X100785761Y-104057261D01*
X100873115Y-103940705D01*
X100924245Y-103804316D01*
X100931000Y-103742134D01*
X100931000Y-103262122D01*
X106721773Y-103262122D01*
X106769264Y-103439361D01*
X106773010Y-103449653D01*
X106865086Y-103647111D01*
X106870569Y-103656607D01*
X106995528Y-103835067D01*
X107002584Y-103843475D01*
X107156625Y-103997516D01*
X107165033Y-104004572D01*
X107343493Y-104129531D01*
X107352989Y-104135014D01*
X107550447Y-104227090D01*
X107560739Y-104230836D01*
X107733003Y-104276994D01*
X107747099Y-104276658D01*
X107750500Y-104268716D01*
X107750500Y-104263567D01*
X108258500Y-104263567D01*
X108262473Y-104277098D01*
X108271022Y-104278327D01*
X108448261Y-104230836D01*
X108458553Y-104227090D01*
X108656011Y-104135014D01*
X108665507Y-104129531D01*
X108843967Y-104004572D01*
X108852375Y-103997516D01*
X109006416Y-103843475D01*
X109013472Y-103835067D01*
X109138431Y-103656607D01*
X109143914Y-103647111D01*
X109154383Y-103624659D01*
X109201300Y-103571374D01*
X109269578Y-103551913D01*
X109337537Y-103572455D01*
X109382773Y-103624660D01*
X109405084Y-103672507D01*
X109410569Y-103682007D01*
X109535528Y-103860467D01*
X109542584Y-103868875D01*
X109696625Y-104022916D01*
X109705033Y-104029972D01*
X109883493Y-104154931D01*
X109892989Y-104160414D01*
X110090447Y-104252490D01*
X110100739Y-104256236D01*
X110273003Y-104302394D01*
X110287099Y-104302058D01*
X110290500Y-104294116D01*
X110290500Y-104288967D01*
X110798500Y-104288967D01*
X110802473Y-104302498D01*
X110811022Y-104303727D01*
X110988261Y-104256236D01*
X110998553Y-104252490D01*
X111196011Y-104160414D01*
X111205507Y-104154931D01*
X111383967Y-104029972D01*
X111392375Y-104022916D01*
X111546416Y-103868875D01*
X111553472Y-103860467D01*
X111678431Y-103682007D01*
X111683914Y-103672511D01*
X111775990Y-103475053D01*
X111779736Y-103464761D01*
X111825894Y-103292497D01*
X111825558Y-103278401D01*
X111817616Y-103275000D01*
X110816615Y-103275000D01*
X110801376Y-103279475D01*
X110800171Y-103280865D01*
X110798500Y-103288548D01*
X110798500Y-104288967D01*
X110290500Y-104288967D01*
X110290500Y-103293115D01*
X110286025Y-103277876D01*
X110284635Y-103276671D01*
X110276952Y-103275000D01*
X109265015Y-103275000D01*
X109196894Y-103254998D01*
X109192440Y-103251664D01*
X109182952Y-103249600D01*
X108276615Y-103249600D01*
X108261376Y-103254075D01*
X108260171Y-103255465D01*
X108258500Y-103263148D01*
X108258500Y-104263567D01*
X107750500Y-104263567D01*
X107750500Y-103267715D01*
X107746025Y-103252476D01*
X107744635Y-103251271D01*
X107736952Y-103249600D01*
X106736533Y-103249600D01*
X106723002Y-103253573D01*
X106721773Y-103262122D01*
X100931000Y-103262122D01*
X100931000Y-102724103D01*
X106723106Y-102724103D01*
X106723442Y-102738199D01*
X106731384Y-102741600D01*
X107732385Y-102741600D01*
X107747624Y-102737125D01*
X107748829Y-102735735D01*
X107750500Y-102728052D01*
X107750500Y-102723485D01*
X108258500Y-102723485D01*
X108262975Y-102738724D01*
X108264365Y-102739929D01*
X108272048Y-102741600D01*
X109283985Y-102741600D01*
X109352106Y-102761602D01*
X109356560Y-102764936D01*
X109366048Y-102767000D01*
X110272385Y-102767000D01*
X110287624Y-102762525D01*
X110288829Y-102761135D01*
X110290500Y-102753452D01*
X110290500Y-102748885D01*
X110798500Y-102748885D01*
X110802975Y-102764124D01*
X110804365Y-102765329D01*
X110812048Y-102767000D01*
X111812467Y-102767000D01*
X111825998Y-102763027D01*
X111827227Y-102754478D01*
X111779736Y-102577239D01*
X111775990Y-102566947D01*
X111683914Y-102369489D01*
X111678431Y-102359993D01*
X111553472Y-102181533D01*
X111546416Y-102173125D01*
X111392375Y-102019084D01*
X111383967Y-102012028D01*
X111205507Y-101887069D01*
X111196011Y-101881586D01*
X110998553Y-101789510D01*
X110988261Y-101785764D01*
X110815997Y-101739606D01*
X110801901Y-101739942D01*
X110798500Y-101747884D01*
X110798500Y-102748885D01*
X110290500Y-102748885D01*
X110290500Y-101753033D01*
X110286527Y-101739502D01*
X110277978Y-101738273D01*
X110100739Y-101785764D01*
X110090447Y-101789510D01*
X109892989Y-101881586D01*
X109883493Y-101887069D01*
X109705033Y-102012028D01*
X109696625Y-102019084D01*
X109542584Y-102173125D01*
X109535528Y-102181533D01*
X109410569Y-102359993D01*
X109405086Y-102369489D01*
X109394617Y-102391941D01*
X109347700Y-102445226D01*
X109279422Y-102464687D01*
X109211463Y-102444145D01*
X109166227Y-102391940D01*
X109143916Y-102344093D01*
X109138431Y-102334593D01*
X109013472Y-102156133D01*
X109006416Y-102147725D01*
X108852375Y-101993684D01*
X108843967Y-101986628D01*
X108665507Y-101861669D01*
X108656011Y-101856186D01*
X108458553Y-101764110D01*
X108448261Y-101760364D01*
X108275997Y-101714206D01*
X108261901Y-101714542D01*
X108258500Y-101722484D01*
X108258500Y-102723485D01*
X107750500Y-102723485D01*
X107750500Y-101727633D01*
X107746527Y-101714102D01*
X107737978Y-101712873D01*
X107560739Y-101760364D01*
X107550447Y-101764110D01*
X107352989Y-101856186D01*
X107343493Y-101861669D01*
X107165033Y-101986628D01*
X107156625Y-101993684D01*
X107002584Y-102147725D01*
X106995528Y-102156133D01*
X106870569Y-102334593D01*
X106865086Y-102344089D01*
X106773010Y-102541547D01*
X106769264Y-102551839D01*
X106723106Y-102724103D01*
X100931000Y-102724103D01*
X100931000Y-102045866D01*
X100924245Y-101983684D01*
X100873115Y-101847295D01*
X100785761Y-101730739D01*
X100669205Y-101643385D01*
X100532816Y-101592255D01*
X100470634Y-101585500D01*
X98774366Y-101585500D01*
X98712184Y-101592255D01*
X98575795Y-101643385D01*
X98459239Y-101730739D01*
X98453326Y-101738628D01*
X98452622Y-101739155D01*
X98447508Y-101744269D01*
X98446770Y-101743531D01*
X98396469Y-101781143D01*
X98325651Y-101786170D01*
X98263357Y-101752112D01*
X98251677Y-101738633D01*
X98245761Y-101730739D01*
X98129205Y-101643385D01*
X97992816Y-101592255D01*
X97930634Y-101585500D01*
X96234366Y-101585500D01*
X96172184Y-101592255D01*
X96035795Y-101643385D01*
X95919239Y-101730739D01*
X95831885Y-101847295D01*
X95780755Y-101983684D01*
X95774000Y-102045866D01*
X95774000Y-103742134D01*
X88713626Y-103742134D01*
X88712598Y-103741097D01*
X88697826Y-103671654D01*
X88722942Y-103605248D01*
X88750294Y-103578641D01*
X88925328Y-103453792D01*
X88933200Y-103447139D01*
X89084052Y-103296812D01*
X89090730Y-103288965D01*
X89215003Y-103116020D01*
X89220313Y-103107183D01*
X89314670Y-102916267D01*
X89318469Y-102906672D01*
X89380377Y-102702910D01*
X89382555Y-102692837D01*
X89383986Y-102681962D01*
X89381775Y-102667778D01*
X89368617Y-102664000D01*
X86733225Y-102664000D01*
X86719694Y-102667973D01*
X86718257Y-102677966D01*
X86748565Y-102812446D01*
X86751645Y-102822275D01*
X86831770Y-103019603D01*
X86836413Y-103028794D01*
X86947694Y-103210388D01*
X86953777Y-103218699D01*
X87093213Y-103379667D01*
X87100580Y-103386883D01*
X87264434Y-103522916D01*
X87272881Y-103528831D01*
X87341969Y-103569203D01*
X87390693Y-103620842D01*
X87403764Y-103690625D01*
X87377033Y-103756396D01*
X87336584Y-103789752D01*
X87323607Y-103796507D01*
X87319474Y-103799610D01*
X87319471Y-103799612D01*
X87200423Y-103888996D01*
X87144965Y-103930635D01*
X87081052Y-103997516D01*
X87031855Y-104048998D01*
X86990629Y-104092138D01*
X86987715Y-104096410D01*
X86987714Y-104096411D01*
X86944054Y-104160414D01*
X86864743Y-104276680D01*
X86817715Y-104377993D01*
X86791709Y-104434020D01*
X86770688Y-104479305D01*
X86710989Y-104694570D01*
X86687251Y-104916695D01*
X86687548Y-104921848D01*
X86687548Y-104921851D01*
X86697725Y-105098357D01*
X86700110Y-105139715D01*
X86701247Y-105144761D01*
X86701248Y-105144767D01*
X86718113Y-105219598D01*
X86749222Y-105357639D01*
X86833266Y-105564616D01*
X86835965Y-105569020D01*
X86925783Y-105715590D01*
X86949987Y-105755088D01*
X87096250Y-105923938D01*
X87268126Y-106066632D01*
X87315967Y-106094588D01*
X87341445Y-106109476D01*
X87390169Y-106161114D01*
X87403240Y-106230897D01*
X87376509Y-106296669D01*
X87336055Y-106330027D01*
X87323607Y-106336507D01*
X87319474Y-106339610D01*
X87319471Y-106339612D01*
X87149100Y-106467530D01*
X87144965Y-106470635D01*
X86990629Y-106632138D01*
X86864743Y-106816680D01*
X86846115Y-106856811D01*
X86778431Y-107002625D01*
X86770688Y-107019305D01*
X86710989Y-107234570D01*
X86687251Y-107456695D01*
X86687548Y-107461848D01*
X86687548Y-107461851D01*
X86697601Y-107636195D01*
X86700110Y-107679715D01*
X86701247Y-107684761D01*
X86701248Y-107684767D01*
X86733453Y-107827668D01*
X86728917Y-107898520D01*
X86699631Y-107944464D01*
X86129210Y-108514885D01*
X86066898Y-108548911D01*
X85996083Y-108543846D01*
X85939247Y-108501299D01*
X85914436Y-108434779D01*
X85914116Y-108426155D01*
X85913952Y-108369292D01*
X85899141Y-103262122D01*
X85896496Y-102350000D01*
X91736496Y-102350000D01*
X91737186Y-102356565D01*
X91749197Y-102470839D01*
X91756458Y-102539928D01*
X91815473Y-102721556D01*
X91818776Y-102727278D01*
X91818777Y-102727279D01*
X91840745Y-102765329D01*
X91910960Y-102886944D01*
X91915378Y-102891851D01*
X91915379Y-102891852D01*
X92034325Y-103023955D01*
X92038747Y-103028866D01*
X92193248Y-103141118D01*
X92199276Y-103143802D01*
X92199278Y-103143803D01*
X92361681Y-103216109D01*
X92367712Y-103218794D01*
X92461112Y-103238647D01*
X92548056Y-103257128D01*
X92548061Y-103257128D01*
X92554513Y-103258500D01*
X92745487Y-103258500D01*
X92751939Y-103257128D01*
X92751944Y-103257128D01*
X92838887Y-103238647D01*
X92932288Y-103218794D01*
X92938319Y-103216109D01*
X93100722Y-103143803D01*
X93100724Y-103143802D01*
X93106752Y-103141118D01*
X93261253Y-103028866D01*
X93265675Y-103023955D01*
X93384621Y-102891852D01*
X93384622Y-102891851D01*
X93389040Y-102886944D01*
X93459255Y-102765329D01*
X93481223Y-102727279D01*
X93481224Y-102727278D01*
X93484527Y-102721556D01*
X93543542Y-102539928D01*
X93550804Y-102470839D01*
X93562814Y-102356565D01*
X93563504Y-102350000D01*
X93552882Y-102248938D01*
X93544232Y-102166635D01*
X93544232Y-102166633D01*
X93543542Y-102160072D01*
X93484527Y-101978444D01*
X93481060Y-101972438D01*
X93433242Y-101889616D01*
X93389040Y-101813056D01*
X93315863Y-101731785D01*
X93285147Y-101667779D01*
X93283500Y-101647476D01*
X93283500Y-96802524D01*
X93303502Y-96734403D01*
X93315858Y-96718221D01*
X93389040Y-96636944D01*
X93484527Y-96471556D01*
X93543542Y-96289928D01*
X93546521Y-96261590D01*
X93562814Y-96106565D01*
X93563504Y-96100000D01*
X93546793Y-95941000D01*
X93544232Y-95916635D01*
X93544232Y-95916633D01*
X93543542Y-95910072D01*
X93484527Y-95728444D01*
X93389040Y-95563056D01*
X93261253Y-95421134D01*
X93106752Y-95308882D01*
X93100724Y-95306198D01*
X93100722Y-95306197D01*
X92938319Y-95233891D01*
X92938318Y-95233891D01*
X92932288Y-95231206D01*
X92838888Y-95211353D01*
X92751944Y-95192872D01*
X92751939Y-95192872D01*
X92745487Y-95191500D01*
X92554513Y-95191500D01*
X92548061Y-95192872D01*
X92548056Y-95192872D01*
X92461113Y-95211353D01*
X92367712Y-95231206D01*
X92361682Y-95233891D01*
X92361681Y-95233891D01*
X92199278Y-95306197D01*
X92199276Y-95306198D01*
X92193248Y-95308882D01*
X92038747Y-95421134D01*
X91910960Y-95563056D01*
X91815473Y-95728444D01*
X91756458Y-95910072D01*
X91755768Y-95916633D01*
X91755768Y-95916635D01*
X91753207Y-95941000D01*
X91736496Y-96100000D01*
X91737186Y-96106565D01*
X91753480Y-96261590D01*
X91756458Y-96289928D01*
X91815473Y-96471556D01*
X91910960Y-96636944D01*
X91984137Y-96718215D01*
X92014853Y-96782221D01*
X92016500Y-96802524D01*
X92016500Y-101647476D01*
X91996498Y-101715597D01*
X91984142Y-101731779D01*
X91910960Y-101813056D01*
X91866758Y-101889616D01*
X91818941Y-101972438D01*
X91815473Y-101978444D01*
X91756458Y-102160072D01*
X91755768Y-102166633D01*
X91755768Y-102166635D01*
X91747118Y-102248938D01*
X91736496Y-102350000D01*
X85896496Y-102350000D01*
X85889208Y-99836695D01*
X86687251Y-99836695D01*
X86687548Y-99841848D01*
X86687548Y-99841851D01*
X86697725Y-100018357D01*
X86700110Y-100059715D01*
X86701247Y-100064761D01*
X86701248Y-100064767D01*
X86718113Y-100139598D01*
X86749222Y-100277639D01*
X86833266Y-100484616D01*
X86835965Y-100489020D01*
X86925783Y-100635590D01*
X86949987Y-100675088D01*
X87096250Y-100843938D01*
X87268126Y-100986632D01*
X87315967Y-101014588D01*
X87341955Y-101029774D01*
X87390679Y-101081412D01*
X87403750Y-101151195D01*
X87377019Y-101216967D01*
X87336562Y-101250327D01*
X87328457Y-101254546D01*
X87319738Y-101260036D01*
X87149433Y-101387905D01*
X87141726Y-101394748D01*
X86994590Y-101548717D01*
X86988104Y-101556727D01*
X86868098Y-101732649D01*
X86863000Y-101741623D01*
X86773338Y-101934783D01*
X86769775Y-101944470D01*
X86714389Y-102144183D01*
X86715912Y-102152607D01*
X86728292Y-102156000D01*
X89368344Y-102156000D01*
X89381875Y-102152027D01*
X89383180Y-102142947D01*
X89341214Y-101975875D01*
X89337894Y-101966124D01*
X89252972Y-101770814D01*
X89248105Y-101761739D01*
X89132426Y-101582926D01*
X89126136Y-101574757D01*
X88982806Y-101417240D01*
X88975273Y-101410215D01*
X88808139Y-101278222D01*
X88799556Y-101272520D01*
X88762602Y-101252120D01*
X88712631Y-101201687D01*
X88697859Y-101132245D01*
X88722975Y-101065839D01*
X88750327Y-101039232D01*
X88784877Y-101014588D01*
X88929860Y-100911173D01*
X89088096Y-100753489D01*
X89147594Y-100670689D01*
X89215435Y-100576277D01*
X89218453Y-100572077D01*
X89283998Y-100439457D01*
X89315136Y-100376453D01*
X89315137Y-100376451D01*
X89317430Y-100371811D01*
X89382370Y-100158069D01*
X89411529Y-99936590D01*
X89411611Y-99933240D01*
X89413074Y-99873365D01*
X89413074Y-99873361D01*
X89413156Y-99870000D01*
X89394852Y-99647361D01*
X89340431Y-99430702D01*
X89251354Y-99225840D01*
X89130014Y-99038277D01*
X89111508Y-99017939D01*
X88982798Y-98876488D01*
X88951746Y-98812642D01*
X88960141Y-98742143D01*
X89005317Y-98687375D01*
X89031761Y-98673706D01*
X89138297Y-98633767D01*
X89146705Y-98630615D01*
X89263261Y-98543261D01*
X89350615Y-98426705D01*
X89401745Y-98290316D01*
X89408500Y-98228134D01*
X89408500Y-96431866D01*
X89401745Y-96369684D01*
X89350615Y-96233295D01*
X89263261Y-96116739D01*
X89146705Y-96029385D01*
X89010316Y-95978255D01*
X88948134Y-95971500D01*
X87151866Y-95971500D01*
X87089684Y-95978255D01*
X86953295Y-96029385D01*
X86836739Y-96116739D01*
X86749385Y-96233295D01*
X86698255Y-96369684D01*
X86691500Y-96431866D01*
X86691500Y-98228134D01*
X86698255Y-98290316D01*
X86749385Y-98426705D01*
X86836739Y-98543261D01*
X86953295Y-98630615D01*
X86961704Y-98633767D01*
X86961705Y-98633768D01*
X87070451Y-98674535D01*
X87127216Y-98717176D01*
X87151916Y-98783738D01*
X87136709Y-98853087D01*
X87117316Y-98879568D01*
X86990629Y-99012138D01*
X86864743Y-99196680D01*
X86846115Y-99236811D01*
X86778431Y-99382625D01*
X86770688Y-99399305D01*
X86710989Y-99614570D01*
X86687251Y-99836695D01*
X85889208Y-99836695D01*
X85879468Y-96478010D01*
X85879467Y-96477750D01*
X85874438Y-90447966D01*
X86568257Y-90447966D01*
X86598565Y-90582446D01*
X86601645Y-90592275D01*
X86681770Y-90789603D01*
X86686413Y-90798794D01*
X86797694Y-90980388D01*
X86803777Y-90988699D01*
X86943213Y-91149667D01*
X86950580Y-91156883D01*
X87114434Y-91292916D01*
X87122881Y-91298831D01*
X87306756Y-91406279D01*
X87316042Y-91410729D01*
X87515001Y-91486703D01*
X87524899Y-91489579D01*
X87628250Y-91510606D01*
X87642299Y-91509410D01*
X87646000Y-91499065D01*
X87646000Y-91498517D01*
X88154000Y-91498517D01*
X88158064Y-91512359D01*
X88171478Y-91514393D01*
X88178184Y-91513534D01*
X88188262Y-91511392D01*
X88392255Y-91450191D01*
X88401842Y-91446433D01*
X88593095Y-91352739D01*
X88601945Y-91347464D01*
X88775328Y-91223792D01*
X88783200Y-91217139D01*
X88934052Y-91066812D01*
X88940730Y-91058965D01*
X89065003Y-90886020D01*
X89070313Y-90877183D01*
X89164670Y-90686267D01*
X89168469Y-90676672D01*
X89230377Y-90472910D01*
X89232555Y-90462837D01*
X89233986Y-90451962D01*
X89231775Y-90437778D01*
X89218617Y-90434000D01*
X88172115Y-90434000D01*
X88156876Y-90438475D01*
X88155671Y-90439865D01*
X88154000Y-90447548D01*
X88154000Y-91498517D01*
X87646000Y-91498517D01*
X87646000Y-90452115D01*
X87641525Y-90436876D01*
X87640135Y-90435671D01*
X87632452Y-90434000D01*
X86583225Y-90434000D01*
X86569694Y-90437973D01*
X86568257Y-90447966D01*
X85874438Y-90447966D01*
X85872069Y-87606695D01*
X86537251Y-87606695D01*
X86537548Y-87611848D01*
X86537548Y-87611851D01*
X86544906Y-87739457D01*
X86550110Y-87829715D01*
X86551247Y-87834761D01*
X86551248Y-87834767D01*
X86560330Y-87875066D01*
X86599222Y-88047639D01*
X86683266Y-88254616D01*
X86685965Y-88259020D01*
X86769084Y-88394658D01*
X86799987Y-88445088D01*
X86946250Y-88613938D01*
X87118126Y-88756632D01*
X87142921Y-88771121D01*
X87191955Y-88799774D01*
X87240679Y-88851412D01*
X87253750Y-88921195D01*
X87227019Y-88986967D01*
X87186562Y-89020327D01*
X87178457Y-89024546D01*
X87169738Y-89030036D01*
X86999433Y-89157905D01*
X86991726Y-89164748D01*
X86844590Y-89318717D01*
X86838104Y-89326727D01*
X86718098Y-89502649D01*
X86713000Y-89511623D01*
X86623338Y-89704783D01*
X86619775Y-89714470D01*
X86564389Y-89914183D01*
X86565912Y-89922607D01*
X86578292Y-89926000D01*
X89218344Y-89926000D01*
X89231875Y-89922027D01*
X89233180Y-89912947D01*
X89191214Y-89745875D01*
X89187894Y-89736124D01*
X89102972Y-89540814D01*
X89098105Y-89531739D01*
X88982426Y-89352926D01*
X88976136Y-89344757D01*
X88832806Y-89187240D01*
X88825273Y-89180215D01*
X88658139Y-89048222D01*
X88649556Y-89042520D01*
X88612602Y-89022120D01*
X88562631Y-88971687D01*
X88547859Y-88902245D01*
X88572975Y-88835839D01*
X88600327Y-88809232D01*
X88662738Y-88764715D01*
X88779860Y-88681173D01*
X88938096Y-88523489D01*
X88997594Y-88440689D01*
X89065435Y-88346277D01*
X89068453Y-88342077D01*
X89167430Y-88141811D01*
X89232370Y-87928069D01*
X89261529Y-87706590D01*
X89263156Y-87640000D01*
X89244852Y-87417361D01*
X89190431Y-87200702D01*
X89101354Y-86995840D01*
X89003118Y-86843990D01*
X88982822Y-86812617D01*
X88982820Y-86812614D01*
X88980014Y-86808277D01*
X88976532Y-86804450D01*
X88832798Y-86646488D01*
X88801746Y-86582642D01*
X88810141Y-86512143D01*
X88855317Y-86457375D01*
X88881761Y-86443706D01*
X88988297Y-86403767D01*
X88996705Y-86400615D01*
X89113261Y-86313261D01*
X89200615Y-86196705D01*
X89251745Y-86060316D01*
X89258500Y-85998134D01*
X89258500Y-84946134D01*
X95901000Y-84946134D01*
X95907755Y-85008316D01*
X95958885Y-85144705D01*
X96046239Y-85261261D01*
X96162795Y-85348615D01*
X96299184Y-85399745D01*
X96361366Y-85406500D01*
X98057634Y-85406500D01*
X98119816Y-85399745D01*
X98256205Y-85348615D01*
X98372761Y-85261261D01*
X98378674Y-85253372D01*
X98379378Y-85252845D01*
X98384492Y-85247731D01*
X98385230Y-85248469D01*
X98435531Y-85210857D01*
X98506349Y-85205830D01*
X98568643Y-85239888D01*
X98580323Y-85253367D01*
X98586239Y-85261261D01*
X98702795Y-85348615D01*
X98839184Y-85399745D01*
X98901366Y-85406500D01*
X100597634Y-85406500D01*
X100659816Y-85399745D01*
X100796205Y-85348615D01*
X100912761Y-85261261D01*
X101000115Y-85144705D01*
X101051245Y-85008316D01*
X101058000Y-84946134D01*
X101058000Y-84339122D01*
X106721773Y-84339122D01*
X106769264Y-84516361D01*
X106773010Y-84526653D01*
X106865086Y-84724111D01*
X106870569Y-84733607D01*
X106995528Y-84912067D01*
X107002584Y-84920475D01*
X107156625Y-85074516D01*
X107165033Y-85081572D01*
X107343493Y-85206531D01*
X107352989Y-85212014D01*
X107550447Y-85304090D01*
X107560739Y-85307836D01*
X107733003Y-85353994D01*
X107747099Y-85353658D01*
X107750500Y-85345716D01*
X107750500Y-85340567D01*
X108258500Y-85340567D01*
X108262473Y-85354098D01*
X108271022Y-85355327D01*
X108448261Y-85307836D01*
X108458553Y-85304090D01*
X108656011Y-85212014D01*
X108665507Y-85206531D01*
X108843967Y-85081572D01*
X108852375Y-85074516D01*
X109006416Y-84920475D01*
X109013472Y-84912067D01*
X109138431Y-84733607D01*
X109143914Y-84724111D01*
X109154383Y-84701659D01*
X109201300Y-84648374D01*
X109269578Y-84628913D01*
X109337537Y-84649455D01*
X109382773Y-84701660D01*
X109405084Y-84749507D01*
X109410569Y-84759007D01*
X109535528Y-84937467D01*
X109542584Y-84945875D01*
X109696625Y-85099916D01*
X109705033Y-85106972D01*
X109883493Y-85231931D01*
X109892989Y-85237414D01*
X110090447Y-85329490D01*
X110100739Y-85333236D01*
X110273003Y-85379394D01*
X110287099Y-85379058D01*
X110290500Y-85371116D01*
X110290500Y-85365967D01*
X110798500Y-85365967D01*
X110802473Y-85379498D01*
X110811022Y-85380727D01*
X110988261Y-85333236D01*
X110998553Y-85329490D01*
X111196011Y-85237414D01*
X111205507Y-85231931D01*
X111383967Y-85106972D01*
X111392375Y-85099916D01*
X111546416Y-84945875D01*
X111553472Y-84937467D01*
X111678431Y-84759007D01*
X111683914Y-84749511D01*
X111775990Y-84552053D01*
X111779736Y-84541761D01*
X111825894Y-84369497D01*
X111825558Y-84355401D01*
X111817616Y-84352000D01*
X110816615Y-84352000D01*
X110801376Y-84356475D01*
X110800171Y-84357865D01*
X110798500Y-84365548D01*
X110798500Y-85365967D01*
X110290500Y-85365967D01*
X110290500Y-84370115D01*
X110286025Y-84354876D01*
X110284635Y-84353671D01*
X110276952Y-84352000D01*
X109265015Y-84352000D01*
X109196894Y-84331998D01*
X109192440Y-84328664D01*
X109182952Y-84326600D01*
X108276615Y-84326600D01*
X108261376Y-84331075D01*
X108260171Y-84332465D01*
X108258500Y-84340148D01*
X108258500Y-85340567D01*
X107750500Y-85340567D01*
X107750500Y-84344715D01*
X107746025Y-84329476D01*
X107744635Y-84328271D01*
X107736952Y-84326600D01*
X106736533Y-84326600D01*
X106723002Y-84330573D01*
X106721773Y-84339122D01*
X101058000Y-84339122D01*
X101058000Y-83801103D01*
X106723106Y-83801103D01*
X106723442Y-83815199D01*
X106731384Y-83818600D01*
X107732385Y-83818600D01*
X107747624Y-83814125D01*
X107748829Y-83812735D01*
X107750500Y-83805052D01*
X107750500Y-83800485D01*
X108258500Y-83800485D01*
X108262975Y-83815724D01*
X108264365Y-83816929D01*
X108272048Y-83818600D01*
X109283985Y-83818600D01*
X109352106Y-83838602D01*
X109356560Y-83841936D01*
X109366048Y-83844000D01*
X110272385Y-83844000D01*
X110287624Y-83839525D01*
X110288829Y-83838135D01*
X110290500Y-83830452D01*
X110290500Y-83825885D01*
X110798500Y-83825885D01*
X110802975Y-83841124D01*
X110804365Y-83842329D01*
X110812048Y-83844000D01*
X111812467Y-83844000D01*
X111825998Y-83840027D01*
X111827227Y-83831478D01*
X111779736Y-83654239D01*
X111775990Y-83643947D01*
X111683914Y-83446489D01*
X111678431Y-83436993D01*
X111553472Y-83258533D01*
X111546416Y-83250125D01*
X111392375Y-83096084D01*
X111383967Y-83089028D01*
X111205507Y-82964069D01*
X111196011Y-82958586D01*
X110998553Y-82866510D01*
X110988261Y-82862764D01*
X110815997Y-82816606D01*
X110801901Y-82816942D01*
X110798500Y-82824884D01*
X110798500Y-83825885D01*
X110290500Y-83825885D01*
X110290500Y-82830033D01*
X110286527Y-82816502D01*
X110277978Y-82815273D01*
X110100739Y-82862764D01*
X110090447Y-82866510D01*
X109892989Y-82958586D01*
X109883493Y-82964069D01*
X109705033Y-83089028D01*
X109696625Y-83096084D01*
X109542584Y-83250125D01*
X109535528Y-83258533D01*
X109410569Y-83436993D01*
X109405086Y-83446489D01*
X109394617Y-83468941D01*
X109347700Y-83522226D01*
X109279422Y-83541687D01*
X109211463Y-83521145D01*
X109166227Y-83468940D01*
X109143916Y-83421093D01*
X109138431Y-83411593D01*
X109013472Y-83233133D01*
X109006416Y-83224725D01*
X108852375Y-83070684D01*
X108843967Y-83063628D01*
X108665507Y-82938669D01*
X108656011Y-82933186D01*
X108458553Y-82841110D01*
X108448261Y-82837364D01*
X108275997Y-82791206D01*
X108261901Y-82791542D01*
X108258500Y-82799484D01*
X108258500Y-83800485D01*
X107750500Y-83800485D01*
X107750500Y-82804633D01*
X107746527Y-82791102D01*
X107737978Y-82789873D01*
X107560739Y-82837364D01*
X107550447Y-82841110D01*
X107352989Y-82933186D01*
X107343493Y-82938669D01*
X107165033Y-83063628D01*
X107156625Y-83070684D01*
X107002584Y-83224725D01*
X106995528Y-83233133D01*
X106870569Y-83411593D01*
X106865086Y-83421089D01*
X106773010Y-83618547D01*
X106769264Y-83628839D01*
X106723106Y-83801103D01*
X101058000Y-83801103D01*
X101058000Y-83249866D01*
X101051245Y-83187684D01*
X101000115Y-83051295D01*
X100912761Y-82934739D01*
X100796205Y-82847385D01*
X100659816Y-82796255D01*
X100597634Y-82789500D01*
X98901366Y-82789500D01*
X98839184Y-82796255D01*
X98702795Y-82847385D01*
X98586239Y-82934739D01*
X98580326Y-82942628D01*
X98579622Y-82943155D01*
X98574508Y-82948269D01*
X98573770Y-82947531D01*
X98523469Y-82985143D01*
X98452651Y-82990170D01*
X98390357Y-82956112D01*
X98378677Y-82942633D01*
X98372761Y-82934739D01*
X98256205Y-82847385D01*
X98119816Y-82796255D01*
X98057634Y-82789500D01*
X96361366Y-82789500D01*
X96299184Y-82796255D01*
X96162795Y-82847385D01*
X96046239Y-82934739D01*
X95958885Y-83051295D01*
X95907755Y-83187684D01*
X95901000Y-83249866D01*
X95901000Y-84946134D01*
X89258500Y-84946134D01*
X89258500Y-84201866D01*
X89251745Y-84139684D01*
X89200615Y-84003295D01*
X89113261Y-83886739D01*
X88996705Y-83799385D01*
X88860316Y-83748255D01*
X88798134Y-83741500D01*
X87001866Y-83741500D01*
X86939684Y-83748255D01*
X86803295Y-83799385D01*
X86686739Y-83886739D01*
X86599385Y-84003295D01*
X86548255Y-84139684D01*
X86541500Y-84201866D01*
X86541500Y-85998134D01*
X86548255Y-86060316D01*
X86599385Y-86196705D01*
X86686739Y-86313261D01*
X86803295Y-86400615D01*
X86811704Y-86403767D01*
X86811705Y-86403768D01*
X86920451Y-86444535D01*
X86977216Y-86487176D01*
X87001916Y-86553738D01*
X86986709Y-86623087D01*
X86967316Y-86649568D01*
X86878992Y-86741994D01*
X86840629Y-86782138D01*
X86714743Y-86966680D01*
X86699003Y-87000590D01*
X86630426Y-87148327D01*
X86620688Y-87169305D01*
X86560989Y-87384570D01*
X86537251Y-87606695D01*
X85872069Y-87606695D01*
X85862245Y-75826695D01*
X86537251Y-75826695D01*
X86537548Y-75831848D01*
X86537548Y-75831851D01*
X86544677Y-75955493D01*
X86550110Y-76049715D01*
X86551247Y-76054761D01*
X86551248Y-76054767D01*
X86571119Y-76142939D01*
X86599222Y-76267639D01*
X86683266Y-76474616D01*
X86685965Y-76479020D01*
X86777304Y-76628072D01*
X86799987Y-76665088D01*
X86946250Y-76833938D01*
X86950230Y-76837242D01*
X86954981Y-76841187D01*
X86994616Y-76900090D01*
X86996113Y-76971071D01*
X86958997Y-77031593D01*
X86918724Y-77056112D01*
X86803295Y-77099385D01*
X86686739Y-77186739D01*
X86599385Y-77303295D01*
X86548255Y-77439684D01*
X86541500Y-77501866D01*
X86541500Y-79298134D01*
X86548255Y-79360316D01*
X86599385Y-79496705D01*
X86686739Y-79613261D01*
X86803295Y-79700615D01*
X86939684Y-79751745D01*
X87001866Y-79758500D01*
X88798134Y-79758500D01*
X88860316Y-79751745D01*
X88996705Y-79700615D01*
X89113261Y-79613261D01*
X89200615Y-79496705D01*
X89251745Y-79360316D01*
X89258500Y-79298134D01*
X89258500Y-77640293D01*
X97850095Y-77640293D01*
X97860636Y-77908588D01*
X97861436Y-77912968D01*
X97907412Y-78164707D01*
X97908875Y-78172720D01*
X97993850Y-78427421D01*
X97995843Y-78431409D01*
X98077756Y-78595342D01*
X98113865Y-78667608D01*
X98138374Y-78703069D01*
X98230579Y-78836479D01*
X98266524Y-78888488D01*
X98296825Y-78921267D01*
X98427051Y-79062145D01*
X98448783Y-79085655D01*
X98452237Y-79088467D01*
X98653548Y-79252360D01*
X98653552Y-79252363D01*
X98657005Y-79255174D01*
X98887035Y-79393664D01*
X98891130Y-79395398D01*
X98891132Y-79395399D01*
X99055419Y-79464965D01*
X99134284Y-79498360D01*
X99138577Y-79499498D01*
X99138582Y-79499500D01*
X99245755Y-79527916D01*
X99393818Y-79567174D01*
X99660458Y-79598733D01*
X99928885Y-79592407D01*
X99933279Y-79591676D01*
X99933286Y-79591675D01*
X100189341Y-79549056D01*
X100189345Y-79549055D01*
X100193743Y-79548323D01*
X100449747Y-79467359D01*
X100453758Y-79465433D01*
X100453763Y-79465431D01*
X100687770Y-79353062D01*
X100687771Y-79353061D01*
X100691789Y-79351132D01*
X100696146Y-79348221D01*
X100904626Y-79208920D01*
X103306247Y-79208920D01*
X103313637Y-79219222D01*
X103353837Y-79251950D01*
X103361113Y-79257064D01*
X103583444Y-79390918D01*
X103591368Y-79394955D01*
X103830348Y-79496151D01*
X103838741Y-79499025D01*
X104089605Y-79565540D01*
X104098337Y-79567206D01*
X104356065Y-79597709D01*
X104364931Y-79598127D01*
X104624381Y-79592013D01*
X104633235Y-79591176D01*
X104889236Y-79548566D01*
X104897870Y-79546493D01*
X105145317Y-79468236D01*
X105153579Y-79464965D01*
X105387522Y-79352627D01*
X105395246Y-79348221D01*
X105586255Y-79220593D01*
X105594543Y-79210675D01*
X105587286Y-79196496D01*
X105526424Y-79135634D01*
X107254000Y-79135634D01*
X107260755Y-79197816D01*
X107311885Y-79334205D01*
X107399239Y-79450761D01*
X107515795Y-79538115D01*
X107652184Y-79589245D01*
X107714366Y-79596000D01*
X110585634Y-79596000D01*
X110647816Y-79589245D01*
X110784205Y-79538115D01*
X110900761Y-79450761D01*
X110988115Y-79334205D01*
X111039245Y-79197816D01*
X111046000Y-79135634D01*
X111046000Y-76264366D01*
X111039245Y-76202184D01*
X110988115Y-76065795D01*
X110900761Y-75949239D01*
X110784205Y-75861885D01*
X110647816Y-75810755D01*
X110585634Y-75804000D01*
X107714366Y-75804000D01*
X107652184Y-75810755D01*
X107515795Y-75861885D01*
X107399239Y-75949239D01*
X107311885Y-76065795D01*
X107260755Y-76202184D01*
X107254000Y-76264366D01*
X107254000Y-79135634D01*
X105526424Y-79135634D01*
X104462812Y-78072022D01*
X104448868Y-78064408D01*
X104447035Y-78064539D01*
X104440420Y-78068790D01*
X103313413Y-79195797D01*
X103306247Y-79208920D01*
X100904626Y-79208920D01*
X100911332Y-79204439D01*
X100911336Y-79204436D01*
X100915040Y-79201961D01*
X101115045Y-79022821D01*
X101287814Y-78817287D01*
X101290355Y-78813214D01*
X101427542Y-78593242D01*
X101427542Y-78593241D01*
X101429900Y-78589461D01*
X101538467Y-78343888D01*
X101611349Y-78085467D01*
X101630940Y-77939610D01*
X101646665Y-77822537D01*
X101646666Y-77822529D01*
X101647092Y-77819355D01*
X101647194Y-77816112D01*
X101650742Y-77703222D01*
X101650742Y-77703217D01*
X101650843Y-77700000D01*
X101646932Y-77644761D01*
X102550771Y-77644761D01*
X102560959Y-77904085D01*
X102561934Y-77912912D01*
X102608561Y-78168215D01*
X102610770Y-78176819D01*
X102692902Y-78423000D01*
X102696306Y-78431218D01*
X102812307Y-78663373D01*
X102816825Y-78671012D01*
X102930337Y-78835251D01*
X102940657Y-78843603D01*
X102954311Y-78836479D01*
X104077978Y-77712812D01*
X104084356Y-77701132D01*
X104814408Y-77701132D01*
X104814539Y-77702965D01*
X104818790Y-77709580D01*
X105946645Y-78837435D01*
X105960045Y-78844752D01*
X105969949Y-78837764D01*
X105984543Y-78820403D01*
X105989766Y-78813214D01*
X106127103Y-78593001D01*
X106131255Y-78585161D01*
X106236195Y-78347789D01*
X106239205Y-78339428D01*
X106309647Y-78089658D01*
X106311451Y-78080950D01*
X106346165Y-77822505D01*
X106346693Y-77816112D01*
X106350241Y-77703222D01*
X106350114Y-77696779D01*
X106331699Y-77436688D01*
X106330447Y-77427885D01*
X106275823Y-77174173D01*
X106273344Y-77165640D01*
X106183519Y-76922159D01*
X106179864Y-76914064D01*
X106056630Y-76685672D01*
X106051862Y-76678158D01*
X105968819Y-76565728D01*
X105957692Y-76557287D01*
X105945099Y-76564111D01*
X104822022Y-77687188D01*
X104814408Y-77701132D01*
X104084356Y-77701132D01*
X104085592Y-77698868D01*
X104085461Y-77697035D01*
X104081210Y-77690420D01*
X102954720Y-76563930D01*
X102941879Y-76556918D01*
X102931190Y-76564714D01*
X102881027Y-76628344D01*
X102876026Y-76635703D01*
X102745678Y-76860111D01*
X102741766Y-76868099D01*
X102644340Y-77108630D01*
X102641593Y-77117088D01*
X102579029Y-77368951D01*
X102577501Y-77377709D01*
X102551050Y-77635877D01*
X102550771Y-77644761D01*
X101646932Y-77644761D01*
X101631880Y-77432169D01*
X101629743Y-77422240D01*
X101576304Y-77174029D01*
X101576304Y-77174027D01*
X101575368Y-77169682D01*
X101482435Y-76917776D01*
X101438981Y-76837242D01*
X101357048Y-76685393D01*
X101354935Y-76681477D01*
X101195412Y-76465501D01*
X101007050Y-76274157D01*
X101003510Y-76271456D01*
X101003504Y-76271450D01*
X100898940Y-76191649D01*
X103307006Y-76191649D01*
X103313986Y-76204776D01*
X104437188Y-77327978D01*
X104451132Y-77335592D01*
X104452965Y-77335461D01*
X104459580Y-77331210D01*
X105585885Y-76204905D01*
X105592739Y-76192353D01*
X105584532Y-76181283D01*
X105496872Y-76114382D01*
X105489446Y-76109505D01*
X105263015Y-75982697D01*
X105254963Y-75978908D01*
X105012932Y-75885273D01*
X105004442Y-75882661D01*
X104751618Y-75824060D01*
X104742840Y-75822670D01*
X104484281Y-75800276D01*
X104475410Y-75800136D01*
X104216267Y-75814398D01*
X104207457Y-75815512D01*
X103952923Y-75866141D01*
X103944348Y-75868487D01*
X103699491Y-75954474D01*
X103691324Y-75958008D01*
X103461025Y-76077640D01*
X103453453Y-76082279D01*
X103315408Y-76180928D01*
X103307006Y-76191649D01*
X100898940Y-76191649D01*
X100797147Y-76113963D01*
X100797143Y-76113960D01*
X100793606Y-76111261D01*
X100559340Y-75980066D01*
X100308924Y-75883188D01*
X100304599Y-75882185D01*
X100304594Y-75882184D01*
X100160944Y-75848888D01*
X100047357Y-75822560D01*
X99779857Y-75799392D01*
X99775422Y-75799636D01*
X99775418Y-75799636D01*
X99516204Y-75813901D01*
X99516197Y-75813902D01*
X99511761Y-75814146D01*
X99248419Y-75866528D01*
X98995084Y-75955493D01*
X98756812Y-76079265D01*
X98753197Y-76081848D01*
X98753191Y-76081852D01*
X98541978Y-76232787D01*
X98541974Y-76232790D01*
X98538357Y-76235375D01*
X98344077Y-76420709D01*
X98177850Y-76631568D01*
X98042991Y-76863745D01*
X98041323Y-76867862D01*
X98041320Y-76867869D01*
X97965074Y-77056112D01*
X97942191Y-77112607D01*
X97877462Y-77373190D01*
X97850095Y-77640293D01*
X89258500Y-77640293D01*
X89258500Y-77501866D01*
X89251745Y-77439684D01*
X89200615Y-77303295D01*
X89113261Y-77186739D01*
X88996705Y-77099385D01*
X88961305Y-77086114D01*
X88878203Y-77054960D01*
X88821439Y-77012318D01*
X88796739Y-76945756D01*
X88811947Y-76876408D01*
X88833493Y-76847727D01*
X88938096Y-76743489D01*
X88979642Y-76685672D01*
X89065435Y-76566277D01*
X89068453Y-76562077D01*
X89070821Y-76557287D01*
X89165136Y-76366453D01*
X89165137Y-76366451D01*
X89167430Y-76361811D01*
X89218177Y-76194785D01*
X89230865Y-76153023D01*
X89230865Y-76153021D01*
X89232370Y-76148069D01*
X89261529Y-75926590D01*
X89262550Y-75884791D01*
X89263074Y-75863365D01*
X89263074Y-75863361D01*
X89263156Y-75860000D01*
X89244852Y-75637361D01*
X89190431Y-75420702D01*
X89101354Y-75215840D01*
X88980014Y-75028277D01*
X88829670Y-74863051D01*
X88825619Y-74859852D01*
X88825615Y-74859848D01*
X88658414Y-74727800D01*
X88658410Y-74727798D01*
X88654359Y-74724598D01*
X88613053Y-74701796D01*
X88563084Y-74651364D01*
X88548312Y-74581921D01*
X88573428Y-74515516D01*
X88600780Y-74488909D01*
X88657674Y-74448327D01*
X88779860Y-74361173D01*
X88938096Y-74203489D01*
X88997594Y-74120689D01*
X89065435Y-74026277D01*
X89068453Y-74022077D01*
X89087952Y-73982625D01*
X89165136Y-73826453D01*
X89165137Y-73826451D01*
X89167430Y-73821811D01*
X89199900Y-73714940D01*
X89230865Y-73613023D01*
X89230865Y-73613021D01*
X89232370Y-73608069D01*
X89261529Y-73386590D01*
X89262790Y-73335000D01*
X89263074Y-73323365D01*
X89263074Y-73323361D01*
X89263156Y-73320000D01*
X89244852Y-73097361D01*
X89190431Y-72880702D01*
X89101354Y-72675840D01*
X89061906Y-72614862D01*
X88982822Y-72492617D01*
X88982820Y-72492614D01*
X88980014Y-72488277D01*
X88829670Y-72323051D01*
X88825619Y-72319852D01*
X88825615Y-72319848D01*
X88658414Y-72187800D01*
X88658410Y-72187798D01*
X88654359Y-72184598D01*
X88640228Y-72176797D01*
X88612569Y-72161529D01*
X88562598Y-72111097D01*
X88547826Y-72041654D01*
X88572942Y-71975248D01*
X88600294Y-71948641D01*
X88775328Y-71823792D01*
X88783200Y-71817139D01*
X88934052Y-71666812D01*
X88940730Y-71658965D01*
X89065003Y-71486020D01*
X89070313Y-71477183D01*
X89164670Y-71286267D01*
X89168469Y-71276672D01*
X89230377Y-71072910D01*
X89232555Y-71062837D01*
X89233986Y-71051962D01*
X89231775Y-71037778D01*
X89218617Y-71034000D01*
X86583225Y-71034000D01*
X86569694Y-71037973D01*
X86568257Y-71047966D01*
X86598565Y-71182446D01*
X86601645Y-71192275D01*
X86681770Y-71389603D01*
X86686413Y-71398794D01*
X86797694Y-71580388D01*
X86803777Y-71588699D01*
X86943213Y-71749667D01*
X86950580Y-71756883D01*
X87114434Y-71892916D01*
X87122881Y-71898831D01*
X87191969Y-71939203D01*
X87240693Y-71990842D01*
X87253764Y-72060625D01*
X87227033Y-72126396D01*
X87186584Y-72159752D01*
X87173607Y-72166507D01*
X87169474Y-72169610D01*
X87169471Y-72169612D01*
X87056138Y-72254705D01*
X86994965Y-72300635D01*
X86991393Y-72304373D01*
X86849143Y-72453229D01*
X86840629Y-72462138D01*
X86714743Y-72646680D01*
X86620688Y-72849305D01*
X86560989Y-73064570D01*
X86537251Y-73286695D01*
X86537548Y-73291848D01*
X86537548Y-73291851D01*
X86543876Y-73401590D01*
X86550110Y-73509715D01*
X86551247Y-73514761D01*
X86551248Y-73514767D01*
X86553490Y-73524715D01*
X86599222Y-73727639D01*
X86683266Y-73934616D01*
X86799987Y-74125088D01*
X86946250Y-74293938D01*
X87118126Y-74436632D01*
X87138140Y-74448327D01*
X87191445Y-74479476D01*
X87240169Y-74531114D01*
X87253240Y-74600897D01*
X87226509Y-74666669D01*
X87186055Y-74700027D01*
X87173607Y-74706507D01*
X87169474Y-74709610D01*
X87169471Y-74709612D01*
X87125269Y-74742800D01*
X86994965Y-74840635D01*
X86840629Y-75002138D01*
X86714743Y-75186680D01*
X86620688Y-75389305D01*
X86560989Y-75604570D01*
X86537251Y-75826695D01*
X85862245Y-75826695D01*
X85857814Y-70514183D01*
X86564389Y-70514183D01*
X86565912Y-70522607D01*
X86578292Y-70526000D01*
X87627885Y-70526000D01*
X87643124Y-70521525D01*
X87644329Y-70520135D01*
X87646000Y-70512452D01*
X87646000Y-70507885D01*
X88154000Y-70507885D01*
X88158475Y-70523124D01*
X88159865Y-70524329D01*
X88167548Y-70526000D01*
X89218344Y-70526000D01*
X89231875Y-70522027D01*
X89233180Y-70512947D01*
X89191214Y-70345875D01*
X89187894Y-70336124D01*
X89102972Y-70140814D01*
X89098105Y-70131739D01*
X88982426Y-69952926D01*
X88976136Y-69944757D01*
X88832806Y-69787240D01*
X88825273Y-69780215D01*
X88658139Y-69648222D01*
X88649552Y-69642517D01*
X88463117Y-69539599D01*
X88453705Y-69535369D01*
X88252959Y-69464280D01*
X88242988Y-69461646D01*
X88171837Y-69448972D01*
X88158540Y-69450432D01*
X88154000Y-69464989D01*
X88154000Y-70507885D01*
X87646000Y-70507885D01*
X87646000Y-69463102D01*
X87642082Y-69449758D01*
X87627806Y-69447771D01*
X87589324Y-69453660D01*
X87579288Y-69456051D01*
X87376868Y-69522212D01*
X87367359Y-69526209D01*
X87178463Y-69624542D01*
X87169738Y-69630036D01*
X86999433Y-69757905D01*
X86991726Y-69764748D01*
X86844590Y-69918717D01*
X86838104Y-69926727D01*
X86718098Y-70102649D01*
X86713000Y-70111623D01*
X86623338Y-70304783D01*
X86619775Y-70314470D01*
X86564389Y-70514183D01*
X85857814Y-70514183D01*
X85856719Y-69201105D01*
X85876664Y-69132968D01*
X85930281Y-69086430D01*
X85982719Y-69075000D01*
X98007500Y-69075000D01*
X98075621Y-69095002D01*
G37*
%TD.AperFunction*%
%TD*%
M02*
