M48
; DRILL file {KiCad (6.0.5-0)} date Sunday, March 03, 2024 at 11:29:26 PM
; FORMAT={-:-/ absolute / metric / decimal}
; #@! TF.CreationDate,2024-03-03T23:29:26-05:00
; #@! TF.GenerationSoftware,Kicad,Pcbnew,(6.0.5-0)
; #@! TF.FileFunction,Plated,1,2,PTH
FMAT,2
METRIC
; #@! TA.AperFunction,Plated,PTH,ViaDrill
T1C0.400
; #@! TA.AperFunction,Plated,PTH,ComponentDrill
T2C0.600
; #@! TA.AperFunction,Plated,PTH,ComponentDrill
T3C0.800
; #@! TA.AperFunction,Plated,PTH,ComponentDrill
T4C1.000
; #@! TA.AperFunction,Plated,PTH,ComponentDrill
T5C1.850
; #@! TA.AperFunction,Plated,PTH,ComponentDrill
T6C2.700
%
G90
G05
T1
X92.35Y-114.0
X92.575Y-117.125
X92.65Y-96.1
X92.65Y-102.35
T3
X97.082Y-102.894
X97.209Y-84.098
X99.623Y-102.894
X99.749Y-84.098
X108.004Y-84.073
X108.004Y-102.996
X110.544Y-84.098
X110.544Y-103.021
T4
X87.9Y-70.78
X87.9Y-73.32
X87.9Y-75.86
X87.9Y-78.4
X87.9Y-85.1
X87.9Y-87.64
X87.9Y-90.18
X88.05Y-97.33
X88.05Y-99.87
X88.05Y-102.41
X88.05Y-104.95
X88.05Y-107.49
X88.05Y-110.03
X88.05Y-112.57
X88.05Y-115.11
X88.05Y-117.65
X114.505Y-70.795
X114.505Y-73.335
X114.505Y-75.875
X114.505Y-78.415
X114.505Y-80.955
X114.505Y-83.495
X114.505Y-86.035
X114.505Y-88.575
X114.505Y-91.115
X114.505Y-93.655
X114.505Y-96.195
X114.505Y-98.735
X114.505Y-101.275
X114.505Y-103.815
X114.505Y-106.355
X114.505Y-108.895
X114.505Y-111.435
X114.505Y-113.975
X114.505Y-116.515
X114.505Y-119.055
X117.045Y-70.795
X117.045Y-73.335
X117.045Y-75.875
X117.045Y-78.415
X117.045Y-80.955
X117.045Y-83.495
X117.045Y-86.035
X117.045Y-88.575
X117.045Y-91.115
X117.045Y-93.655
X117.045Y-96.195
X117.045Y-98.735
X117.045Y-101.275
X117.045Y-103.815
X117.045Y-106.355
X117.045Y-108.895
X117.045Y-111.435
X117.045Y-113.975
X117.045Y-116.515
X117.045Y-119.055
T5
X99.75Y-77.7
X104.45Y-77.7
X109.15Y-77.7
T6
X100.5Y-70.15
X100.6Y-111.75
X107.7Y-70.15
X107.8Y-111.75
T2
X97.35Y-63.6G85X97.35Y-64.7
G05
X97.45Y-117.2G85X97.45Y-118.3
G05
X110.85Y-63.6G85X110.85Y-64.7
G05
X110.95Y-117.2G85X110.95Y-118.3
G05
T0
M30
