%TF.GenerationSoftware,KiCad,Pcbnew,(6.0.5-0)*%
%TF.CreationDate,2024-02-05T18:51:56-05:00*%
%TF.ProjectId,CubeSat PCB,43756265-5361-4742-9050-43422e6b6963,rev?*%
%TF.SameCoordinates,Original*%
%TF.FileFunction,Soldermask,Bot*%
%TF.FilePolarity,Negative*%
%FSLAX46Y46*%
G04 Gerber Fmt 4.6, Leading zero omitted, Abs format (unit mm)*
G04 Created by KiCad (PCBNEW (6.0.5-0)) date 2024-02-05 18:51:56*
%MOMM*%
%LPD*%
G01*
G04 APERTURE LIST*
%ADD10O,1.200000X2.400000*%
%ADD11C,3.716000*%
%ADD12R,3.716000X3.716000*%
%ADD13O,1.700000X1.700000*%
%ADD14R,1.700000X1.700000*%
%ADD15C,6.000000*%
%ADD16C,2.540000*%
%ADD17R,2.540000X2.540000*%
G04 APERTURE END LIST*
D10*
%TO.C,J4*%
X107500000Y-64600000D03*
X94000000Y-64600000D03*
D11*
X104350000Y-70600000D03*
D12*
X97150000Y-70600000D03*
%TD*%
D13*
%TO.C,J1*%
X87880000Y-118880000D03*
X90420000Y-118880000D03*
X87880000Y-116340000D03*
X90420000Y-116340000D03*
X87880000Y-113800000D03*
X90420000Y-113800000D03*
X87880000Y-111260000D03*
X90420000Y-111260000D03*
X87880000Y-108720000D03*
X90420000Y-108720000D03*
X87880000Y-106180000D03*
X90420000Y-106180000D03*
X87880000Y-103640000D03*
X90420000Y-103640000D03*
X87880000Y-101100000D03*
X90420000Y-101100000D03*
X87880000Y-98560000D03*
X90420000Y-98560000D03*
X87880000Y-96020000D03*
X90420000Y-96020000D03*
X87880000Y-93480000D03*
X90420000Y-93480000D03*
X87880000Y-90940000D03*
X90420000Y-90940000D03*
X87880000Y-88400000D03*
X90420000Y-88400000D03*
X87880000Y-85860000D03*
X90420000Y-85860000D03*
X87880000Y-83320000D03*
X90420000Y-83320000D03*
X87880000Y-80780000D03*
X90420000Y-80780000D03*
X87880000Y-78240000D03*
X90420000Y-78240000D03*
X87880000Y-75700000D03*
X90420000Y-75700000D03*
X87880000Y-73160000D03*
X90420000Y-73160000D03*
X87880000Y-70620000D03*
D14*
X90420000Y-70620000D03*
D15*
X89150000Y-65750000D03*
X112150000Y-65750000D03*
X89150000Y-123750000D03*
X112150000Y-123750000D03*
%TD*%
D14*
%TO.C,J3*%
X116000000Y-89700000D03*
D13*
X116000000Y-92240000D03*
X116000000Y-94780000D03*
X116000000Y-97320000D03*
X116000000Y-99860000D03*
X116000000Y-102400000D03*
X116000000Y-104940000D03*
X116000000Y-107480000D03*
X116000000Y-110020000D03*
%TD*%
D14*
%TO.C,J2*%
X117550000Y-82900000D03*
D13*
X117550000Y-80360000D03*
X117550000Y-77820000D03*
X117550000Y-75280000D03*
%TD*%
D16*
%TO.C,U1*%
X95110000Y-116020000D03*
X112890000Y-116020000D03*
X95110000Y-75380000D03*
D17*
X112890000Y-75380000D03*
%TD*%
M02*
