M48
; DRILL file {KiCad (6.0.5-0)} date Monday, February 05, 2024 at 06:51:58 PM
; FORMAT={-:-/ absolute / metric / decimal}
; #@! TF.CreationDate,2024-02-05T18:51:58-05:00
; #@! TF.GenerationSoftware,Kicad,Pcbnew,(6.0.5-0)
; #@! TF.FileFunction,Plated,1,2,PTH
FMAT,2
METRIC
; #@! TA.AperFunction,Plated,PTH,ComponentDrill
T1C0.600
; #@! TA.AperFunction,Plated,PTH,ComponentDrill
T2C1.000
; #@! TA.AperFunction,Plated,PTH,ComponentDrill
T3C2.700
%
G90
G05
T2
X87.88Y-70.62
X87.88Y-73.16
X87.88Y-75.7
X87.88Y-78.24
X87.88Y-80.78
X87.88Y-83.32
X87.88Y-85.86
X87.88Y-88.4
X87.88Y-90.94
X87.88Y-93.48
X87.88Y-96.02
X87.88Y-98.56
X87.88Y-101.1
X87.88Y-103.64
X87.88Y-106.18
X87.88Y-108.72
X87.88Y-111.26
X87.88Y-113.8
X87.88Y-116.34
X87.88Y-118.88
X90.42Y-70.62
X90.42Y-73.16
X90.42Y-75.7
X90.42Y-78.24
X90.42Y-80.78
X90.42Y-83.32
X90.42Y-85.86
X90.42Y-88.4
X90.42Y-90.94
X90.42Y-93.48
X90.42Y-96.02
X90.42Y-98.56
X90.42Y-101.1
X90.42Y-103.64
X90.42Y-106.18
X90.42Y-108.72
X90.42Y-111.26
X90.42Y-113.8
X90.42Y-116.34
X90.42Y-118.88
X95.11Y-75.38
X95.11Y-116.02
X112.89Y-75.38
X112.89Y-116.02
X116.0Y-89.7
X116.0Y-92.24
X116.0Y-94.78
X116.0Y-97.32
X116.0Y-99.86
X116.0Y-102.4
X116.0Y-104.94
X116.0Y-107.48
X116.0Y-110.02
X117.55Y-75.28
X117.55Y-77.82
X117.55Y-80.36
X117.55Y-82.9
T3
X97.15Y-70.6
X104.35Y-70.6
T1
X94.0Y-64.05G85X94.0Y-65.15
G05
X107.5Y-64.05G85X107.5Y-65.15
G05
T0
M30
