%TF.GenerationSoftware,KiCad,Pcbnew,(6.0.5-0)*%
%TF.CreationDate,2024-02-05T18:51:55-05:00*%
%TF.ProjectId,CubeSat PCB,43756265-5361-4742-9050-43422e6b6963,rev?*%
%TF.SameCoordinates,Original*%
%TF.FileFunction,Copper,L1,Top*%
%TF.FilePolarity,Positive*%
%FSLAX46Y46*%
G04 Gerber Fmt 4.6, Leading zero omitted, Abs format (unit mm)*
G04 Created by KiCad (PCBNEW (6.0.5-0)) date 2024-02-05 18:51:55*
%MOMM*%
%LPD*%
G01*
G04 APERTURE LIST*
%TA.AperFunction,ComponentPad*%
%ADD10O,1.200000X2.400000*%
%TD*%
%TA.AperFunction,ComponentPad*%
%ADD11C,3.716000*%
%TD*%
%TA.AperFunction,ComponentPad*%
%ADD12R,3.716000X3.716000*%
%TD*%
%TA.AperFunction,ComponentPad*%
%ADD13O,1.700000X1.700000*%
%TD*%
%TA.AperFunction,ComponentPad*%
%ADD14R,1.700000X1.700000*%
%TD*%
%TA.AperFunction,ComponentPad*%
%ADD15C,2.540000*%
%TD*%
%TA.AperFunction,ComponentPad*%
%ADD16R,2.540000X2.540000*%
%TD*%
%TA.AperFunction,Conductor*%
%ADD17C,0.250000*%
%TD*%
%TA.AperFunction,Conductor*%
%ADD18C,1.000000*%
%TD*%
G04 APERTURE END LIST*
D10*
%TO.P,J4,S2*%
%TO.N,N/C*%
X107500000Y-64600000D03*
%TO.P,J4,S1*%
X94000000Y-64600000D03*
D11*
%TO.P,J4,2,-*%
%TO.N,GND*%
X104350000Y-70600000D03*
D12*
%TO.P,J4,1,+*%
%TO.N,+BATT*%
X97150000Y-70600000D03*
%TD*%
D13*
%TO.P,J1,40,GPIO21/SCLK1*%
%TO.N,unconnected-(J1-Pad40)*%
X87880000Y-118880000D03*
%TO.P,J1,39,GND*%
%TO.N,GND*%
X90420000Y-118880000D03*
%TO.P,J1,38,GPIO20/MOSI1*%
%TO.N,unconnected-(J1-Pad38)*%
X87880000Y-116340000D03*
%TO.P,J1,37,GPIO26*%
%TO.N,unconnected-(J1-Pad37)*%
X90420000Y-116340000D03*
%TO.P,J1,36,GPIO16*%
%TO.N,unconnected-(J1-Pad36)*%
X87880000Y-113800000D03*
%TO.P,J1,35,GPIO19/MISO1*%
%TO.N,unconnected-(J1-Pad35)*%
X90420000Y-113800000D03*
%TO.P,J1,34,GND*%
%TO.N,GND*%
X87880000Y-111260000D03*
%TO.P,J1,33,PWM1/GPIO13*%
%TO.N,unconnected-(J1-Pad33)*%
X90420000Y-111260000D03*
%TO.P,J1,32,PWM0/GPIO12*%
%TO.N,unconnected-(J1-Pad32)*%
X87880000Y-108720000D03*
%TO.P,J1,31,GCLK2/GPIO6*%
%TO.N,unconnected-(J1-Pad31)*%
X90420000Y-108720000D03*
%TO.P,J1,30,GND*%
%TO.N,GND*%
X87880000Y-106180000D03*
%TO.P,J1,29,GCLK1/GPIO5*%
%TO.N,unconnected-(J1-Pad29)*%
X90420000Y-106180000D03*
%TO.P,J1,28,ID_SC/GPIO1*%
%TO.N,unconnected-(J1-Pad28)*%
X87880000Y-103640000D03*
%TO.P,J1,27,ID_SD/GPIO0*%
%TO.N,unconnected-(J1-Pad27)*%
X90420000Y-103640000D03*
%TO.P,J1,26,~{CE1}/GPIO7*%
%TO.N,unconnected-(J1-Pad26)*%
X87880000Y-101100000D03*
%TO.P,J1,25,GND*%
%TO.N,GND*%
X90420000Y-101100000D03*
%TO.P,J1,24,~{CE0}/GPIO8*%
%TO.N,unconnected-(J1-Pad24)*%
X87880000Y-98560000D03*
%TO.P,J1,23,SCLK0/GPIO11*%
%TO.N,unconnected-(J1-Pad23)*%
X90420000Y-98560000D03*
%TO.P,J1,22,GPIO25*%
%TO.N,unconnected-(J1-Pad22)*%
X87880000Y-96020000D03*
%TO.P,J1,21,MISO0/GPIO9*%
%TO.N,unconnected-(J1-Pad21)*%
X90420000Y-96020000D03*
%TO.P,J1,20,GND*%
%TO.N,GND*%
X87880000Y-93480000D03*
%TO.P,J1,19,MOSI0/GPIO10*%
%TO.N,unconnected-(J1-Pad19)*%
X90420000Y-93480000D03*
%TO.P,J1,18,GPIO24*%
%TO.N,unconnected-(J1-Pad18)*%
X87880000Y-90940000D03*
%TO.P,J1,17,3V3*%
%TO.N,unconnected-(J1-Pad17)*%
X90420000Y-90940000D03*
%TO.P,J1,16,GPIO23*%
%TO.N,unconnected-(J1-Pad16)*%
X87880000Y-88400000D03*
%TO.P,J1,15,GPIO22*%
%TO.N,unconnected-(J1-Pad15)*%
X90420000Y-88400000D03*
%TO.P,J1,14,GND*%
%TO.N,GND*%
X87880000Y-85860000D03*
%TO.P,J1,13,GPIO27*%
%TO.N,unconnected-(J1-Pad13)*%
X90420000Y-85860000D03*
%TO.P,J1,12,GPIO18/PWM0*%
%TO.N,unconnected-(J1-Pad12)*%
X87880000Y-83320000D03*
%TO.P,J1,11,GPIO17*%
%TO.N,unconnected-(J1-Pad11)*%
X90420000Y-83320000D03*
%TO.P,J1,10,GPIO15/RXD*%
%TO.N,unconnected-(J1-Pad10)*%
X87880000Y-80780000D03*
%TO.P,J1,9,GND*%
%TO.N,GND*%
X90420000Y-80780000D03*
%TO.P,J1,8,GPIO14/TXD*%
%TO.N,unconnected-(J1-Pad8)*%
X87880000Y-78240000D03*
%TO.P,J1,7,GCLK0/GPIO4*%
%TO.N,unconnected-(J1-Pad7)*%
X90420000Y-78240000D03*
%TO.P,J1,6,GND*%
%TO.N,GND*%
X87880000Y-75700000D03*
%TO.P,J1,5,SCL/GPIO3*%
%TO.N,/SCL*%
X90420000Y-75700000D03*
%TO.P,J1,4,5V*%
%TO.N,+5V*%
X87880000Y-73160000D03*
%TO.P,J1,3,SDA/GPIO2*%
%TO.N,/SDA*%
X90420000Y-73160000D03*
%TO.P,J1,2,5V*%
%TO.N,+5V*%
X87880000Y-70620000D03*
D14*
%TO.P,J1,1,3V3*%
%TO.N,unconnected-(J1-Pad1)*%
X90420000Y-70620000D03*
%TD*%
%TO.P,J3,1,Pin_1*%
%TO.N,+5V*%
X116000000Y-89700000D03*
D13*
%TO.P,J3,2,Pin_2*%
%TO.N,unconnected-(J3-Pad2)*%
X116000000Y-92240000D03*
%TO.P,J3,3,Pin_3*%
%TO.N,GND*%
X116000000Y-94780000D03*
%TO.P,J3,4,Pin_4*%
%TO.N,/SCL*%
X116000000Y-97320000D03*
%TO.P,J3,5,Pin_5*%
%TO.N,/SDA*%
X116000000Y-99860000D03*
%TO.P,J3,6,Pin_6*%
%TO.N,unconnected-(J3-Pad6)*%
X116000000Y-102400000D03*
%TO.P,J3,7,Pin_7*%
%TO.N,unconnected-(J3-Pad7)*%
X116000000Y-104940000D03*
%TO.P,J3,8,Pin_8*%
%TO.N,unconnected-(J3-Pad8)*%
X116000000Y-107480000D03*
%TO.P,J3,9,Pin_9*%
%TO.N,unconnected-(J3-Pad9)*%
X116000000Y-110020000D03*
%TD*%
D14*
%TO.P,J2,1,Pin_1*%
%TO.N,+5V*%
X117550000Y-82900000D03*
D13*
%TO.P,J2,2,Pin_2*%
%TO.N,/SDA*%
X117550000Y-80360000D03*
%TO.P,J2,3,Pin_3*%
%TO.N,/SCL*%
X117550000Y-77820000D03*
%TO.P,J2,4,Pin_4*%
%TO.N,GND*%
X117550000Y-75280000D03*
%TD*%
D15*
%TO.P,U1,3,GND*%
%TO.N,GND*%
X95110000Y-116020000D03*
%TO.P,U1,4,Vout*%
%TO.N,+5V*%
X112890000Y-116020000D03*
%TO.P,U1,2,GND*%
%TO.N,GND*%
X95110000Y-75380000D03*
D16*
%TO.P,U1,1,Vin*%
%TO.N,+BATT*%
X112890000Y-75380000D03*
%TD*%
D17*
%TO.N,/SCL*%
X90350000Y-75730000D02*
X89150000Y-74530000D01*
X89150000Y-74530000D02*
X89150000Y-72400000D01*
X89150000Y-72400000D02*
X89650000Y-71900000D01*
X89650000Y-71900000D02*
X91300000Y-71900000D01*
X91300000Y-71900000D02*
X92850000Y-73450000D01*
X92850000Y-73450000D02*
X92850000Y-77050000D01*
X92850000Y-77050000D02*
X93620000Y-77820000D01*
X93620000Y-77820000D02*
X117550000Y-77820000D01*
%TO.N,+5V*%
X87810000Y-73190000D02*
X87810000Y-73825718D01*
X89968990Y-79550000D02*
X91650000Y-79550000D01*
X87810000Y-73825718D02*
X89150000Y-75165718D01*
X89150000Y-75165718D02*
X89150000Y-78731010D01*
X89150000Y-78731010D02*
X89968990Y-79550000D01*
X91650000Y-79550000D02*
X92450000Y-80350000D01*
%TO.N,/SCL*%
X116000000Y-97320000D02*
X115670000Y-97320000D01*
X115670000Y-97320000D02*
X113400000Y-95050000D01*
X113400000Y-84200000D02*
X115950000Y-81650000D01*
X115950000Y-81650000D02*
X118450000Y-81650000D01*
X113400000Y-95050000D02*
X113400000Y-84200000D01*
X118450000Y-81650000D02*
X119050000Y-81050000D01*
X119050000Y-81050000D02*
X119050000Y-79320000D01*
X119050000Y-79320000D02*
X117550000Y-77820000D01*
%TO.N,/SDA*%
X117550000Y-80360000D02*
X97810000Y-80360000D01*
X115660000Y-99860000D02*
X97810000Y-82010000D01*
X116000000Y-99860000D02*
X115660000Y-99860000D01*
X97810000Y-82010000D02*
X97810000Y-80360000D01*
D18*
%TO.N,+BATT*%
X97150000Y-70600000D02*
X99000000Y-70600000D01*
X99000000Y-70600000D02*
X103780000Y-75380000D01*
X103780000Y-75380000D02*
X112890000Y-75380000D01*
D17*
%TO.N,/SDA*%
X97810000Y-80360000D02*
X95260000Y-80360000D01*
X95260000Y-80360000D02*
X92200000Y-77300000D01*
X92200000Y-77300000D02*
X92200000Y-75040000D01*
X92200000Y-75040000D02*
X90350000Y-73190000D01*
%TD*%
%TA.AperFunction,Conductor*%
%TO.N,+5V*%
G36*
X91970009Y-77968006D02*
G01*
X91984672Y-77980576D01*
X94756343Y-80752247D01*
X94763887Y-80760537D01*
X94768000Y-80767018D01*
X94773777Y-80772443D01*
X94817667Y-80813658D01*
X94820509Y-80816413D01*
X94840231Y-80836135D01*
X94843355Y-80838558D01*
X94843359Y-80838562D01*
X94843424Y-80838612D01*
X94852445Y-80846317D01*
X94884679Y-80876586D01*
X94891627Y-80880405D01*
X94891629Y-80880407D01*
X94902432Y-80886346D01*
X94918959Y-80897202D01*
X94928698Y-80904757D01*
X94928700Y-80904758D01*
X94934960Y-80909614D01*
X94975540Y-80927174D01*
X94986188Y-80932391D01*
X95024940Y-80953695D01*
X95032616Y-80955666D01*
X95032619Y-80955667D01*
X95044562Y-80958733D01*
X95063267Y-80965137D01*
X95081855Y-80973181D01*
X95089678Y-80974420D01*
X95089688Y-80974423D01*
X95125524Y-80980099D01*
X95137144Y-80982505D01*
X95172289Y-80991528D01*
X95179970Y-80993500D01*
X95200224Y-80993500D01*
X95219934Y-80995051D01*
X95239943Y-80998220D01*
X95247835Y-80997474D01*
X95283961Y-80994059D01*
X95295819Y-80993500D01*
X97050500Y-80993500D01*
X97118621Y-81013502D01*
X97165114Y-81067158D01*
X97176500Y-81119500D01*
X97176500Y-81931233D01*
X97175973Y-81942416D01*
X97174298Y-81949909D01*
X97174547Y-81957835D01*
X97174547Y-81957836D01*
X97176438Y-82017986D01*
X97176500Y-82021945D01*
X97176500Y-82049856D01*
X97176997Y-82053790D01*
X97176997Y-82053791D01*
X97177005Y-82053856D01*
X97177938Y-82065693D01*
X97179327Y-82109889D01*
X97184202Y-82126669D01*
X97184978Y-82129339D01*
X97188987Y-82148700D01*
X97191526Y-82168797D01*
X97194445Y-82176168D01*
X97194445Y-82176170D01*
X97207804Y-82209912D01*
X97211649Y-82221142D01*
X97223982Y-82263593D01*
X97228015Y-82270412D01*
X97228017Y-82270417D01*
X97234293Y-82281028D01*
X97242988Y-82298776D01*
X97250448Y-82317617D01*
X97255110Y-82324033D01*
X97255110Y-82324034D01*
X97276436Y-82353387D01*
X97282952Y-82363307D01*
X97305458Y-82401362D01*
X97319779Y-82415683D01*
X97332619Y-82430716D01*
X97344528Y-82447107D01*
X97378605Y-82475298D01*
X97387384Y-82483288D01*
X114603690Y-99699595D01*
X114637716Y-99761907D01*
X114639881Y-99802081D01*
X114637251Y-99826695D01*
X114637548Y-99831848D01*
X114637548Y-99831851D01*
X114644021Y-99944118D01*
X114650110Y-100049715D01*
X114651247Y-100054761D01*
X114651248Y-100054767D01*
X114671119Y-100142939D01*
X114699222Y-100267639D01*
X114737461Y-100361811D01*
X114777571Y-100460590D01*
X114783266Y-100474616D01*
X114785965Y-100479020D01*
X114894390Y-100655954D01*
X114899987Y-100665088D01*
X115046250Y-100833938D01*
X115218126Y-100976632D01*
X115288595Y-101017811D01*
X115291445Y-101019476D01*
X115340169Y-101071114D01*
X115353240Y-101140897D01*
X115326509Y-101206669D01*
X115286055Y-101240027D01*
X115273607Y-101246507D01*
X115269474Y-101249610D01*
X115269471Y-101249612D01*
X115099100Y-101377530D01*
X115094965Y-101380635D01*
X114940629Y-101542138D01*
X114814743Y-101726680D01*
X114777463Y-101806994D01*
X114733972Y-101900688D01*
X114720688Y-101929305D01*
X114660989Y-102144570D01*
X114637251Y-102366695D01*
X114637548Y-102371848D01*
X114637548Y-102371851D01*
X114644021Y-102484118D01*
X114650110Y-102589715D01*
X114651247Y-102594761D01*
X114651248Y-102594767D01*
X114671119Y-102682939D01*
X114699222Y-102807639D01*
X114737461Y-102901811D01*
X114777571Y-103000590D01*
X114783266Y-103014616D01*
X114785965Y-103019020D01*
X114894390Y-103195954D01*
X114899987Y-103205088D01*
X115046250Y-103373938D01*
X115218126Y-103516632D01*
X115288595Y-103557811D01*
X115291445Y-103559476D01*
X115340169Y-103611114D01*
X115353240Y-103680897D01*
X115326509Y-103746669D01*
X115286055Y-103780027D01*
X115273607Y-103786507D01*
X115269474Y-103789610D01*
X115269471Y-103789612D01*
X115099100Y-103917530D01*
X115094965Y-103920635D01*
X114940629Y-104082138D01*
X114814743Y-104266680D01*
X114777463Y-104346994D01*
X114733972Y-104440688D01*
X114720688Y-104469305D01*
X114660989Y-104684570D01*
X114637251Y-104906695D01*
X114637548Y-104911848D01*
X114637548Y-104911851D01*
X114644021Y-105024118D01*
X114650110Y-105129715D01*
X114651247Y-105134761D01*
X114651248Y-105134767D01*
X114671119Y-105222939D01*
X114699222Y-105347639D01*
X114737461Y-105441811D01*
X114777571Y-105540590D01*
X114783266Y-105554616D01*
X114785965Y-105559020D01*
X114894390Y-105735954D01*
X114899987Y-105745088D01*
X115046250Y-105913938D01*
X115218126Y-106056632D01*
X115288595Y-106097811D01*
X115291445Y-106099476D01*
X115340169Y-106151114D01*
X115353240Y-106220897D01*
X115326509Y-106286669D01*
X115286055Y-106320027D01*
X115273607Y-106326507D01*
X115269474Y-106329610D01*
X115269471Y-106329612D01*
X115099100Y-106457530D01*
X115094965Y-106460635D01*
X114940629Y-106622138D01*
X114814743Y-106806680D01*
X114777463Y-106886994D01*
X114733972Y-106980688D01*
X114720688Y-107009305D01*
X114660989Y-107224570D01*
X114637251Y-107446695D01*
X114637548Y-107451848D01*
X114637548Y-107451851D01*
X114644021Y-107564118D01*
X114650110Y-107669715D01*
X114651247Y-107674761D01*
X114651248Y-107674767D01*
X114671119Y-107762939D01*
X114699222Y-107887639D01*
X114737461Y-107981811D01*
X114777571Y-108080590D01*
X114783266Y-108094616D01*
X114785965Y-108099020D01*
X114894390Y-108275954D01*
X114899987Y-108285088D01*
X115046250Y-108453938D01*
X115218126Y-108596632D01*
X115288595Y-108637811D01*
X115291445Y-108639476D01*
X115340169Y-108691114D01*
X115353240Y-108760897D01*
X115326509Y-108826669D01*
X115286055Y-108860027D01*
X115273607Y-108866507D01*
X115269474Y-108869610D01*
X115269471Y-108869612D01*
X115099100Y-108997530D01*
X115094965Y-109000635D01*
X114940629Y-109162138D01*
X114814743Y-109346680D01*
X114777463Y-109426994D01*
X114733972Y-109520688D01*
X114720688Y-109549305D01*
X114660989Y-109764570D01*
X114637251Y-109986695D01*
X114637548Y-109991848D01*
X114637548Y-109991851D01*
X114644021Y-110104118D01*
X114650110Y-110209715D01*
X114651247Y-110214761D01*
X114651248Y-110214767D01*
X114671119Y-110302939D01*
X114699222Y-110427639D01*
X114737461Y-110521811D01*
X114777571Y-110620590D01*
X114783266Y-110634616D01*
X114785965Y-110639020D01*
X114894390Y-110815954D01*
X114899987Y-110825088D01*
X115046250Y-110993938D01*
X115218126Y-111136632D01*
X115411000Y-111249338D01*
X115415825Y-111251180D01*
X115415826Y-111251181D01*
X115438921Y-111260000D01*
X115619692Y-111329030D01*
X115624760Y-111330061D01*
X115624763Y-111330062D01*
X115732017Y-111351883D01*
X115838597Y-111373567D01*
X115843772Y-111373757D01*
X115843774Y-111373757D01*
X116056673Y-111381564D01*
X116056677Y-111381564D01*
X116061837Y-111381753D01*
X116066957Y-111381097D01*
X116066959Y-111381097D01*
X116278288Y-111354025D01*
X116278289Y-111354025D01*
X116283416Y-111353368D01*
X116288366Y-111351883D01*
X116492429Y-111290661D01*
X116492434Y-111290659D01*
X116497384Y-111289174D01*
X116697994Y-111190896D01*
X116879860Y-111061173D01*
X116903756Y-111037361D01*
X117034435Y-110907137D01*
X117038096Y-110903489D01*
X117097594Y-110820689D01*
X117165435Y-110726277D01*
X117168453Y-110722077D01*
X117220959Y-110615840D01*
X117265136Y-110526453D01*
X117265137Y-110526451D01*
X117267430Y-110521811D01*
X117332370Y-110308069D01*
X117361529Y-110086590D01*
X117363156Y-110020000D01*
X117344852Y-109797361D01*
X117290431Y-109580702D01*
X117201354Y-109375840D01*
X117101708Y-109221811D01*
X117082822Y-109192617D01*
X117082820Y-109192614D01*
X117080014Y-109188277D01*
X116929670Y-109023051D01*
X116925619Y-109019852D01*
X116925615Y-109019848D01*
X116758414Y-108887800D01*
X116758410Y-108887798D01*
X116754359Y-108884598D01*
X116713053Y-108861796D01*
X116663084Y-108811364D01*
X116648312Y-108741921D01*
X116673428Y-108675516D01*
X116700780Y-108648909D01*
X116744603Y-108617650D01*
X116879860Y-108521173D01*
X116903756Y-108497361D01*
X117034435Y-108367137D01*
X117038096Y-108363489D01*
X117097594Y-108280689D01*
X117165435Y-108186277D01*
X117168453Y-108182077D01*
X117220959Y-108075840D01*
X117265136Y-107986453D01*
X117265137Y-107986451D01*
X117267430Y-107981811D01*
X117332370Y-107768069D01*
X117361529Y-107546590D01*
X117363156Y-107480000D01*
X117344852Y-107257361D01*
X117290431Y-107040702D01*
X117201354Y-106835840D01*
X117101708Y-106681811D01*
X117082822Y-106652617D01*
X117082820Y-106652614D01*
X117080014Y-106648277D01*
X116929670Y-106483051D01*
X116925619Y-106479852D01*
X116925615Y-106479848D01*
X116758414Y-106347800D01*
X116758410Y-106347798D01*
X116754359Y-106344598D01*
X116713053Y-106321796D01*
X116663084Y-106271364D01*
X116648312Y-106201921D01*
X116673428Y-106135516D01*
X116700780Y-106108909D01*
X116744603Y-106077650D01*
X116879860Y-105981173D01*
X116903756Y-105957361D01*
X117034435Y-105827137D01*
X117038096Y-105823489D01*
X117097594Y-105740689D01*
X117165435Y-105646277D01*
X117168453Y-105642077D01*
X117220959Y-105535840D01*
X117265136Y-105446453D01*
X117265137Y-105446451D01*
X117267430Y-105441811D01*
X117332370Y-105228069D01*
X117361529Y-105006590D01*
X117363156Y-104940000D01*
X117344852Y-104717361D01*
X117290431Y-104500702D01*
X117201354Y-104295840D01*
X117101708Y-104141811D01*
X117082822Y-104112617D01*
X117082820Y-104112614D01*
X117080014Y-104108277D01*
X116929670Y-103943051D01*
X116925619Y-103939852D01*
X116925615Y-103939848D01*
X116758414Y-103807800D01*
X116758410Y-103807798D01*
X116754359Y-103804598D01*
X116713053Y-103781796D01*
X116663084Y-103731364D01*
X116648312Y-103661921D01*
X116673428Y-103595516D01*
X116700780Y-103568909D01*
X116744603Y-103537650D01*
X116879860Y-103441173D01*
X116903756Y-103417361D01*
X117034435Y-103287137D01*
X117038096Y-103283489D01*
X117097594Y-103200689D01*
X117165435Y-103106277D01*
X117168453Y-103102077D01*
X117220959Y-102995840D01*
X117265136Y-102906453D01*
X117265137Y-102906451D01*
X117267430Y-102901811D01*
X117332370Y-102688069D01*
X117361529Y-102466590D01*
X117363156Y-102400000D01*
X117344852Y-102177361D01*
X117290431Y-101960702D01*
X117201354Y-101755840D01*
X117101708Y-101601811D01*
X117082822Y-101572617D01*
X117082820Y-101572614D01*
X117080014Y-101568277D01*
X116929670Y-101403051D01*
X116925619Y-101399852D01*
X116925615Y-101399848D01*
X116758414Y-101267800D01*
X116758410Y-101267798D01*
X116754359Y-101264598D01*
X116713053Y-101241796D01*
X116663084Y-101191364D01*
X116648312Y-101121921D01*
X116673428Y-101055516D01*
X116700780Y-101028909D01*
X116744603Y-100997650D01*
X116879860Y-100901173D01*
X116903756Y-100877361D01*
X117034435Y-100747137D01*
X117038096Y-100743489D01*
X117097594Y-100660689D01*
X117165435Y-100566277D01*
X117168453Y-100562077D01*
X117220959Y-100455840D01*
X117265136Y-100366453D01*
X117265137Y-100366451D01*
X117267430Y-100361811D01*
X117332370Y-100148069D01*
X117361529Y-99926590D01*
X117363156Y-99860000D01*
X117344852Y-99637361D01*
X117290431Y-99420702D01*
X117201354Y-99215840D01*
X117101708Y-99061811D01*
X117082822Y-99032617D01*
X117082820Y-99032614D01*
X117080014Y-99028277D01*
X116929670Y-98863051D01*
X116925619Y-98859852D01*
X116925615Y-98859848D01*
X116758414Y-98727800D01*
X116758410Y-98727798D01*
X116754359Y-98724598D01*
X116713053Y-98701796D01*
X116663084Y-98651364D01*
X116648312Y-98581921D01*
X116673428Y-98515516D01*
X116700780Y-98488909D01*
X116774070Y-98436632D01*
X116879860Y-98361173D01*
X116903756Y-98337361D01*
X117034435Y-98207137D01*
X117038096Y-98203489D01*
X117168453Y-98022077D01*
X117220959Y-97915840D01*
X117265136Y-97826453D01*
X117265137Y-97826451D01*
X117267430Y-97821811D01*
X117332370Y-97608069D01*
X117361529Y-97386590D01*
X117363156Y-97320000D01*
X117344852Y-97097361D01*
X117290431Y-96880702D01*
X117201354Y-96675840D01*
X117101708Y-96521811D01*
X117082822Y-96492617D01*
X117082820Y-96492614D01*
X117080014Y-96488277D01*
X116929670Y-96323051D01*
X116925619Y-96319852D01*
X116925615Y-96319848D01*
X116758414Y-96187800D01*
X116758410Y-96187798D01*
X116754359Y-96184598D01*
X116713053Y-96161796D01*
X116663084Y-96111364D01*
X116648312Y-96041921D01*
X116673428Y-95975516D01*
X116700780Y-95948909D01*
X116774070Y-95896632D01*
X116879860Y-95821173D01*
X116903756Y-95797361D01*
X117034435Y-95667137D01*
X117038096Y-95663489D01*
X117168453Y-95482077D01*
X117174068Y-95470717D01*
X117265136Y-95286453D01*
X117265137Y-95286451D01*
X117267430Y-95281811D01*
X117332370Y-95068069D01*
X117361529Y-94846590D01*
X117362390Y-94811364D01*
X117363074Y-94783365D01*
X117363074Y-94783361D01*
X117363156Y-94780000D01*
X117344852Y-94557361D01*
X117290431Y-94340702D01*
X117201354Y-94135840D01*
X117101708Y-93981811D01*
X117082822Y-93952617D01*
X117082820Y-93952614D01*
X117080014Y-93948277D01*
X116929670Y-93783051D01*
X116925619Y-93779852D01*
X116925615Y-93779848D01*
X116758414Y-93647800D01*
X116758410Y-93647798D01*
X116754359Y-93644598D01*
X116713053Y-93621796D01*
X116663084Y-93571364D01*
X116648312Y-93501921D01*
X116673428Y-93435516D01*
X116700780Y-93408909D01*
X116744603Y-93377650D01*
X116879860Y-93281173D01*
X116903756Y-93257361D01*
X117034435Y-93127137D01*
X117038096Y-93123489D01*
X117097594Y-93040689D01*
X117165435Y-92946277D01*
X117168453Y-92942077D01*
X117220959Y-92835840D01*
X117265136Y-92746453D01*
X117265137Y-92746451D01*
X117267430Y-92741811D01*
X117332370Y-92528069D01*
X117361529Y-92306590D01*
X117363156Y-92240000D01*
X117344852Y-92017361D01*
X117290431Y-91800702D01*
X117201354Y-91595840D01*
X117101708Y-91441811D01*
X117082822Y-91412617D01*
X117082820Y-91412614D01*
X117080014Y-91408277D01*
X117076540Y-91404459D01*
X117076533Y-91404450D01*
X116932435Y-91246088D01*
X116901383Y-91182242D01*
X116909779Y-91111744D01*
X116954956Y-91056976D01*
X116981400Y-91043307D01*
X117088052Y-91003325D01*
X117103649Y-90994786D01*
X117205724Y-90918285D01*
X117218285Y-90905724D01*
X117294786Y-90803649D01*
X117303324Y-90788054D01*
X117348478Y-90667606D01*
X117352105Y-90652351D01*
X117357631Y-90601486D01*
X117358000Y-90594672D01*
X117358000Y-89972115D01*
X117353525Y-89956876D01*
X117352135Y-89955671D01*
X117344452Y-89954000D01*
X114660116Y-89954000D01*
X114644877Y-89958475D01*
X114643672Y-89959865D01*
X114642001Y-89967548D01*
X114642001Y-90594669D01*
X114642371Y-90601490D01*
X114647895Y-90652352D01*
X114651521Y-90667604D01*
X114696676Y-90788054D01*
X114705214Y-90803649D01*
X114781715Y-90905724D01*
X114794276Y-90918285D01*
X114896351Y-90994786D01*
X114911946Y-91003324D01*
X115020827Y-91044142D01*
X115077591Y-91086784D01*
X115102291Y-91153345D01*
X115087083Y-91222694D01*
X115067691Y-91249175D01*
X114978416Y-91342596D01*
X114940629Y-91382138D01*
X114814743Y-91566680D01*
X114777463Y-91646994D01*
X114733972Y-91740688D01*
X114720688Y-91769305D01*
X114660989Y-91984570D01*
X114637251Y-92206695D01*
X114637548Y-92211848D01*
X114637548Y-92211851D01*
X114644021Y-92324118D01*
X114650110Y-92429715D01*
X114651247Y-92434761D01*
X114651248Y-92434767D01*
X114671119Y-92522939D01*
X114699222Y-92647639D01*
X114737461Y-92741811D01*
X114777571Y-92840590D01*
X114783266Y-92854616D01*
X114785965Y-92859020D01*
X114894390Y-93035954D01*
X114899987Y-93045088D01*
X115046250Y-93213938D01*
X115218126Y-93356632D01*
X115288595Y-93397811D01*
X115291445Y-93399476D01*
X115340169Y-93451114D01*
X115353240Y-93520897D01*
X115326509Y-93586669D01*
X115286055Y-93620027D01*
X115273607Y-93626507D01*
X115269474Y-93629610D01*
X115269471Y-93629612D01*
X115099100Y-93757530D01*
X115094965Y-93760635D01*
X114940629Y-93922138D01*
X114814743Y-94106680D01*
X114777463Y-94186994D01*
X114733972Y-94280688D01*
X114720688Y-94309305D01*
X114660989Y-94524570D01*
X114637251Y-94746695D01*
X114637548Y-94751848D01*
X114637548Y-94751851D01*
X114644021Y-94864118D01*
X114650110Y-94969715D01*
X114651247Y-94974761D01*
X114651248Y-94974767D01*
X114680856Y-95106143D01*
X114676320Y-95176994D01*
X114634199Y-95234146D01*
X114567865Y-95259452D01*
X114498380Y-95244879D01*
X114468844Y-95222939D01*
X114070405Y-94824500D01*
X114036379Y-94762188D01*
X114033500Y-94735405D01*
X114033500Y-89427885D01*
X114642000Y-89427885D01*
X114646475Y-89443124D01*
X114647865Y-89444329D01*
X114655548Y-89446000D01*
X115727885Y-89446000D01*
X115743124Y-89441525D01*
X115744329Y-89440135D01*
X115746000Y-89432452D01*
X115746000Y-89427885D01*
X116254000Y-89427885D01*
X116258475Y-89443124D01*
X116259865Y-89444329D01*
X116267548Y-89446000D01*
X117339884Y-89446000D01*
X117355123Y-89441525D01*
X117356328Y-89440135D01*
X117357999Y-89432452D01*
X117357999Y-88805331D01*
X117357629Y-88798510D01*
X117352105Y-88747648D01*
X117348479Y-88732396D01*
X117303324Y-88611946D01*
X117294786Y-88596351D01*
X117218285Y-88494276D01*
X117205724Y-88481715D01*
X117103649Y-88405214D01*
X117088054Y-88396676D01*
X116967606Y-88351522D01*
X116952351Y-88347895D01*
X116901486Y-88342369D01*
X116894672Y-88342000D01*
X116272115Y-88342000D01*
X116256876Y-88346475D01*
X116255671Y-88347865D01*
X116254000Y-88355548D01*
X116254000Y-89427885D01*
X115746000Y-89427885D01*
X115746000Y-88360116D01*
X115741525Y-88344877D01*
X115740135Y-88343672D01*
X115732452Y-88342001D01*
X115105331Y-88342001D01*
X115098510Y-88342371D01*
X115047648Y-88347895D01*
X115032396Y-88351521D01*
X114911946Y-88396676D01*
X114896351Y-88405214D01*
X114794276Y-88481715D01*
X114781715Y-88494276D01*
X114705214Y-88596351D01*
X114696676Y-88611946D01*
X114651522Y-88732394D01*
X114647895Y-88747649D01*
X114642369Y-88798514D01*
X114642000Y-88805328D01*
X114642000Y-89427885D01*
X114033500Y-89427885D01*
X114033500Y-84514594D01*
X114053502Y-84446473D01*
X114070405Y-84425499D01*
X114701235Y-83794669D01*
X116192001Y-83794669D01*
X116192371Y-83801490D01*
X116197895Y-83852352D01*
X116201521Y-83867604D01*
X116246676Y-83988054D01*
X116255214Y-84003649D01*
X116331715Y-84105724D01*
X116344276Y-84118285D01*
X116446351Y-84194786D01*
X116461946Y-84203324D01*
X116582394Y-84248478D01*
X116597649Y-84252105D01*
X116648514Y-84257631D01*
X116655328Y-84258000D01*
X117277885Y-84258000D01*
X117293124Y-84253525D01*
X117294329Y-84252135D01*
X117296000Y-84244452D01*
X117296000Y-83172115D01*
X117291525Y-83156876D01*
X117290135Y-83155671D01*
X117282452Y-83154000D01*
X116210116Y-83154000D01*
X116194877Y-83158475D01*
X116193672Y-83159865D01*
X116192001Y-83167548D01*
X116192001Y-83794669D01*
X114701235Y-83794669D01*
X115976905Y-82518999D01*
X116039217Y-82484973D01*
X116110032Y-82490038D01*
X116166868Y-82532585D01*
X116191679Y-82599105D01*
X116192000Y-82608094D01*
X116192000Y-82627885D01*
X116196475Y-82643124D01*
X116197865Y-82644329D01*
X116205548Y-82646000D01*
X117678000Y-82646000D01*
X117746121Y-82666002D01*
X117792614Y-82719658D01*
X117804000Y-82772000D01*
X117804000Y-84239884D01*
X117808475Y-84255123D01*
X117809865Y-84256328D01*
X117817548Y-84257999D01*
X118444669Y-84257999D01*
X118451490Y-84257629D01*
X118502352Y-84252105D01*
X118517604Y-84248479D01*
X118638054Y-84203324D01*
X118653649Y-84194786D01*
X118755724Y-84118285D01*
X118768283Y-84105726D01*
X118773174Y-84099200D01*
X118830034Y-84056686D01*
X118900853Y-84051661D01*
X118963146Y-84085721D01*
X118997136Y-84148052D01*
X119000000Y-84174766D01*
X119000000Y-120174000D01*
X118979998Y-120242121D01*
X118926342Y-120288614D01*
X118874000Y-120300000D01*
X91153109Y-120300000D01*
X91084988Y-120279998D01*
X91038495Y-120226342D01*
X91028391Y-120156068D01*
X91057885Y-120091488D01*
X91097675Y-120060850D01*
X91117994Y-120050896D01*
X91299860Y-119921173D01*
X91458096Y-119763489D01*
X91517594Y-119680689D01*
X91585435Y-119586277D01*
X91588453Y-119582077D01*
X91609320Y-119539857D01*
X91685136Y-119386453D01*
X91685137Y-119386451D01*
X91687430Y-119381811D01*
X91752370Y-119168069D01*
X91781529Y-118946590D01*
X91783156Y-118880000D01*
X91764852Y-118657361D01*
X91710431Y-118440702D01*
X91621354Y-118235840D01*
X91500014Y-118048277D01*
X91349670Y-117883051D01*
X91345619Y-117879852D01*
X91345615Y-117879848D01*
X91178414Y-117747800D01*
X91178410Y-117747798D01*
X91174359Y-117744598D01*
X91133053Y-117721796D01*
X91083084Y-117671364D01*
X91068312Y-117601921D01*
X91093428Y-117535516D01*
X91120780Y-117508909D01*
X91181874Y-117465331D01*
X91299860Y-117381173D01*
X91304877Y-117376174D01*
X91454435Y-117227137D01*
X91458096Y-117223489D01*
X91517594Y-117140689D01*
X91585435Y-117046277D01*
X91588453Y-117042077D01*
X91609320Y-116999857D01*
X91685136Y-116846453D01*
X91685137Y-116846451D01*
X91687430Y-116841811D01*
X91752370Y-116628069D01*
X91781529Y-116406590D01*
X91782177Y-116380068D01*
X91783074Y-116343365D01*
X91783074Y-116343361D01*
X91783156Y-116340000D01*
X91764852Y-116117361D01*
X91728670Y-115973314D01*
X93327124Y-115973314D01*
X93327348Y-115977980D01*
X93327348Y-115977985D01*
X93329421Y-116021132D01*
X93339807Y-116237352D01*
X93340720Y-116241940D01*
X93390439Y-116491894D01*
X93391378Y-116496616D01*
X93392957Y-116501014D01*
X93392959Y-116501021D01*
X93479048Y-116740797D01*
X93480704Y-116745410D01*
X93482921Y-116749536D01*
X93550301Y-116874936D01*
X93605822Y-116978267D01*
X93608617Y-116982011D01*
X93608619Y-116982013D01*
X93691743Y-117093329D01*
X93763985Y-117190073D01*
X93767292Y-117193351D01*
X93767297Y-117193357D01*
X93866879Y-117292073D01*
X93951718Y-117376174D01*
X93955485Y-117378936D01*
X93955486Y-117378937D01*
X94063333Y-117458014D01*
X94164896Y-117532483D01*
X94169031Y-117534659D01*
X94169035Y-117534661D01*
X94291449Y-117599066D01*
X94398836Y-117655565D01*
X94403255Y-117657108D01*
X94610876Y-117729612D01*
X94648400Y-117742716D01*
X94652993Y-117743588D01*
X94903515Y-117791151D01*
X94903518Y-117791151D01*
X94908104Y-117792022D01*
X95040173Y-117797211D01*
X95167575Y-117802218D01*
X95167581Y-117802218D01*
X95172243Y-117802401D01*
X95435015Y-117773622D01*
X95439526Y-117772434D01*
X95439528Y-117772434D01*
X95686124Y-117707511D01*
X95686126Y-117707510D01*
X95690647Y-117706320D01*
X95806264Y-117656647D01*
X95929229Y-117603817D01*
X95929231Y-117603816D01*
X95933523Y-117601972D01*
X96158307Y-117462871D01*
X96181258Y-117443442D01*
X111831303Y-117443442D01*
X111840017Y-117454962D01*
X111941394Y-117529296D01*
X111949293Y-117534232D01*
X112174901Y-117652930D01*
X112183450Y-117656647D01*
X112424113Y-117740690D01*
X112433122Y-117743104D01*
X112683572Y-117790654D01*
X112692827Y-117791708D01*
X112947557Y-117801717D01*
X112956871Y-117801391D01*
X113210270Y-117773640D01*
X113219447Y-117771939D01*
X113465960Y-117707037D01*
X113474780Y-117704000D01*
X113708997Y-117603373D01*
X113717269Y-117599066D01*
X113934036Y-117464927D01*
X113941579Y-117459447D01*
X113943272Y-117458014D01*
X113951710Y-117445211D01*
X113945645Y-117434855D01*
X112902812Y-116392022D01*
X112888868Y-116384408D01*
X112887035Y-116384539D01*
X112880420Y-116388790D01*
X111837961Y-117431249D01*
X111831303Y-117443442D01*
X96181258Y-117443442D01*
X96254813Y-117381173D01*
X96356496Y-117295093D01*
X96356498Y-117295091D01*
X96360063Y-117292073D01*
X96534356Y-117093329D01*
X96541685Y-117081936D01*
X96674831Y-116874936D01*
X96677359Y-116871006D01*
X96785930Y-116629988D01*
X96857683Y-116375570D01*
X96889875Y-116122522D01*
X96890645Y-116116471D01*
X96890645Y-116116465D01*
X96891043Y-116113340D01*
X96891127Y-116110158D01*
X96892415Y-116060943D01*
X96893487Y-116020000D01*
X96890366Y-115977999D01*
X111107849Y-115977999D01*
X111120080Y-116232619D01*
X111121217Y-116241879D01*
X111170947Y-116491894D01*
X111173441Y-116500887D01*
X111259578Y-116740797D01*
X111263378Y-116749332D01*
X111384031Y-116973877D01*
X111389045Y-116981748D01*
X111455154Y-117070279D01*
X111466414Y-117078729D01*
X111478832Y-117071958D01*
X112517978Y-116032812D01*
X112524356Y-116021132D01*
X113254408Y-116021132D01*
X113254539Y-116022965D01*
X113258790Y-116029580D01*
X114304386Y-117075176D01*
X114316766Y-117081936D01*
X114325107Y-117075692D01*
X114454391Y-116874697D01*
X114458838Y-116866506D01*
X114563536Y-116634085D01*
X114566731Y-116625307D01*
X114635923Y-116379968D01*
X114637781Y-116370839D01*
X114670144Y-116116444D01*
X114670625Y-116110158D01*
X114672903Y-116023160D01*
X114672752Y-116016851D01*
X114653747Y-115761110D01*
X114652370Y-115751904D01*
X114596109Y-115503262D01*
X114593385Y-115494351D01*
X114500990Y-115256758D01*
X114496979Y-115248349D01*
X114370482Y-115027027D01*
X114365269Y-115019298D01*
X114325633Y-114969019D01*
X114313709Y-114960549D01*
X114302174Y-114967036D01*
X113262022Y-116007188D01*
X113254408Y-116021132D01*
X112524356Y-116021132D01*
X112525592Y-116018868D01*
X112525461Y-116017035D01*
X112521210Y-116010420D01*
X111477119Y-114966329D01*
X111463811Y-114959062D01*
X111453772Y-114966184D01*
X111441433Y-114981020D01*
X111436018Y-114988612D01*
X111303776Y-115206540D01*
X111299538Y-115214857D01*
X111200961Y-115449935D01*
X111198000Y-115458785D01*
X111135255Y-115705849D01*
X111133633Y-115715046D01*
X111108094Y-115968673D01*
X111107849Y-115977999D01*
X96890366Y-115977999D01*
X96884269Y-115895954D01*
X96874243Y-115761036D01*
X96874242Y-115761032D01*
X96873897Y-115756384D01*
X96815557Y-115498559D01*
X96800028Y-115458626D01*
X96721442Y-115256542D01*
X96721441Y-115256540D01*
X96719749Y-115252189D01*
X96693659Y-115206540D01*
X96623254Y-115083357D01*
X96588578Y-115022687D01*
X96424925Y-114815094D01*
X96232385Y-114633970D01*
X96190752Y-114605088D01*
X96175283Y-114594357D01*
X111828770Y-114594357D01*
X111833343Y-114604133D01*
X112877188Y-115647978D01*
X112891132Y-115655592D01*
X112892965Y-115655461D01*
X112899580Y-115651210D01*
X113942790Y-114608000D01*
X113949174Y-114596310D01*
X113939762Y-114584199D01*
X113798776Y-114486392D01*
X113790741Y-114481659D01*
X113562106Y-114368909D01*
X113553473Y-114365421D01*
X113310675Y-114287701D01*
X113301624Y-114285528D01*
X113050009Y-114244550D01*
X113040720Y-114243738D01*
X112785828Y-114240401D01*
X112776517Y-114240971D01*
X112523927Y-114275347D01*
X112514808Y-114277285D01*
X112270084Y-114348616D01*
X112261331Y-114351888D01*
X112029837Y-114458608D01*
X112021682Y-114463128D01*
X111837907Y-114583616D01*
X111828770Y-114594357D01*
X96175283Y-114594357D01*
X96019026Y-114485958D01*
X96019021Y-114485955D01*
X96015188Y-114483296D01*
X96010997Y-114481229D01*
X95782294Y-114368445D01*
X95782291Y-114368444D01*
X95778106Y-114366380D01*
X95722612Y-114348616D01*
X95560917Y-114296857D01*
X95526347Y-114285791D01*
X95383825Y-114262580D01*
X95270053Y-114244051D01*
X95270052Y-114244051D01*
X95265441Y-114243300D01*
X95133281Y-114241570D01*
X95005798Y-114239901D01*
X95005795Y-114239901D01*
X95001121Y-114239840D01*
X94739192Y-114275486D01*
X94734702Y-114276795D01*
X94734696Y-114276796D01*
X94648875Y-114301811D01*
X94485410Y-114349457D01*
X94481163Y-114351415D01*
X94481160Y-114351416D01*
X94443215Y-114368909D01*
X94245348Y-114460127D01*
X94213162Y-114481229D01*
X94028195Y-114602499D01*
X94028190Y-114602503D01*
X94024282Y-114605065D01*
X93994884Y-114631304D01*
X93835076Y-114773938D01*
X93827067Y-114781086D01*
X93714335Y-114916632D01*
X93670857Y-114968909D01*
X93658036Y-114984324D01*
X93520901Y-115210314D01*
X93519095Y-115214622D01*
X93519094Y-115214623D01*
X93474640Y-115320635D01*
X93418677Y-115454091D01*
X93417526Y-115458623D01*
X93417525Y-115458626D01*
X93403813Y-115512617D01*
X93353608Y-115710301D01*
X93327124Y-115973314D01*
X91728670Y-115973314D01*
X91710431Y-115900702D01*
X91621354Y-115695840D01*
X91500014Y-115508277D01*
X91349670Y-115343051D01*
X91345619Y-115339852D01*
X91345615Y-115339848D01*
X91178414Y-115207800D01*
X91178410Y-115207798D01*
X91174359Y-115204598D01*
X91133053Y-115181796D01*
X91083084Y-115131364D01*
X91068312Y-115061921D01*
X91093428Y-114995516D01*
X91120780Y-114968909D01*
X91164603Y-114937650D01*
X91299860Y-114841173D01*
X91322350Y-114818762D01*
X91454435Y-114687137D01*
X91458096Y-114683489D01*
X91517594Y-114600689D01*
X91585435Y-114506277D01*
X91588453Y-114502077D01*
X91596420Y-114485958D01*
X91685136Y-114306453D01*
X91685137Y-114306451D01*
X91687430Y-114301811D01*
X91752370Y-114088069D01*
X91781529Y-113866590D01*
X91783156Y-113800000D01*
X91764852Y-113577361D01*
X91710431Y-113360702D01*
X91621354Y-113155840D01*
X91500014Y-112968277D01*
X91349670Y-112803051D01*
X91345619Y-112799852D01*
X91345615Y-112799848D01*
X91178414Y-112667800D01*
X91178410Y-112667798D01*
X91174359Y-112664598D01*
X91133053Y-112641796D01*
X91083084Y-112591364D01*
X91068312Y-112521921D01*
X91093428Y-112455516D01*
X91120780Y-112428909D01*
X91164603Y-112397650D01*
X91299860Y-112301173D01*
X91458096Y-112143489D01*
X91517594Y-112060689D01*
X91585435Y-111966277D01*
X91588453Y-111962077D01*
X91609320Y-111919857D01*
X91685136Y-111766453D01*
X91685137Y-111766451D01*
X91687430Y-111761811D01*
X91752370Y-111548069D01*
X91781529Y-111326590D01*
X91783156Y-111260000D01*
X91764852Y-111037361D01*
X91710431Y-110820702D01*
X91621354Y-110615840D01*
X91500014Y-110428277D01*
X91349670Y-110263051D01*
X91345619Y-110259852D01*
X91345615Y-110259848D01*
X91178414Y-110127800D01*
X91178410Y-110127798D01*
X91174359Y-110124598D01*
X91133053Y-110101796D01*
X91083084Y-110051364D01*
X91068312Y-109981921D01*
X91093428Y-109915516D01*
X91120780Y-109888909D01*
X91164603Y-109857650D01*
X91299860Y-109761173D01*
X91458096Y-109603489D01*
X91517594Y-109520689D01*
X91585435Y-109426277D01*
X91588453Y-109422077D01*
X91609320Y-109379857D01*
X91685136Y-109226453D01*
X91685137Y-109226451D01*
X91687430Y-109221811D01*
X91752370Y-109008069D01*
X91781529Y-108786590D01*
X91782444Y-108749144D01*
X91783074Y-108723365D01*
X91783074Y-108723361D01*
X91783156Y-108720000D01*
X91764852Y-108497361D01*
X91710431Y-108280702D01*
X91621354Y-108075840D01*
X91500014Y-107888277D01*
X91349670Y-107723051D01*
X91345619Y-107719852D01*
X91345615Y-107719848D01*
X91178414Y-107587800D01*
X91178410Y-107587798D01*
X91174359Y-107584598D01*
X91133053Y-107561796D01*
X91083084Y-107511364D01*
X91068312Y-107441921D01*
X91093428Y-107375516D01*
X91120780Y-107348909D01*
X91164603Y-107317650D01*
X91299860Y-107221173D01*
X91458096Y-107063489D01*
X91517594Y-106980689D01*
X91585435Y-106886277D01*
X91588453Y-106882077D01*
X91609320Y-106839857D01*
X91685136Y-106686453D01*
X91685137Y-106686451D01*
X91687430Y-106681811D01*
X91752370Y-106468069D01*
X91781529Y-106246590D01*
X91782444Y-106209144D01*
X91783074Y-106183365D01*
X91783074Y-106183361D01*
X91783156Y-106180000D01*
X91764852Y-105957361D01*
X91710431Y-105740702D01*
X91621354Y-105535840D01*
X91500014Y-105348277D01*
X91349670Y-105183051D01*
X91345619Y-105179852D01*
X91345615Y-105179848D01*
X91178414Y-105047800D01*
X91178410Y-105047798D01*
X91174359Y-105044598D01*
X91133053Y-105021796D01*
X91083084Y-104971364D01*
X91068312Y-104901921D01*
X91093428Y-104835516D01*
X91120780Y-104808909D01*
X91164603Y-104777650D01*
X91299860Y-104681173D01*
X91458096Y-104523489D01*
X91517594Y-104440689D01*
X91585435Y-104346277D01*
X91588453Y-104342077D01*
X91609320Y-104299857D01*
X91685136Y-104146453D01*
X91685137Y-104146451D01*
X91687430Y-104141811D01*
X91752370Y-103928069D01*
X91781529Y-103706590D01*
X91782444Y-103669144D01*
X91783074Y-103643365D01*
X91783074Y-103643361D01*
X91783156Y-103640000D01*
X91764852Y-103417361D01*
X91710431Y-103200702D01*
X91621354Y-102995840D01*
X91500014Y-102808277D01*
X91349670Y-102643051D01*
X91345619Y-102639852D01*
X91345615Y-102639848D01*
X91178414Y-102507800D01*
X91178410Y-102507798D01*
X91174359Y-102504598D01*
X91133053Y-102481796D01*
X91083084Y-102431364D01*
X91068312Y-102361921D01*
X91093428Y-102295516D01*
X91120780Y-102268909D01*
X91164603Y-102237650D01*
X91299860Y-102141173D01*
X91458096Y-101983489D01*
X91517594Y-101900689D01*
X91585435Y-101806277D01*
X91588453Y-101802077D01*
X91609320Y-101759857D01*
X91685136Y-101606453D01*
X91685137Y-101606451D01*
X91687430Y-101601811D01*
X91752370Y-101388069D01*
X91781529Y-101166590D01*
X91782444Y-101129144D01*
X91783074Y-101103365D01*
X91783074Y-101103361D01*
X91783156Y-101100000D01*
X91764852Y-100877361D01*
X91710431Y-100660702D01*
X91621354Y-100455840D01*
X91500014Y-100268277D01*
X91349670Y-100103051D01*
X91345619Y-100099852D01*
X91345615Y-100099848D01*
X91178414Y-99967800D01*
X91178410Y-99967798D01*
X91174359Y-99964598D01*
X91133053Y-99941796D01*
X91083084Y-99891364D01*
X91068312Y-99821921D01*
X91093428Y-99755516D01*
X91120780Y-99728909D01*
X91164603Y-99697650D01*
X91299860Y-99601173D01*
X91458096Y-99443489D01*
X91517594Y-99360689D01*
X91585435Y-99266277D01*
X91588453Y-99262077D01*
X91609320Y-99219857D01*
X91685136Y-99066453D01*
X91685137Y-99066451D01*
X91687430Y-99061811D01*
X91752370Y-98848069D01*
X91781529Y-98626590D01*
X91782444Y-98589144D01*
X91783074Y-98563365D01*
X91783074Y-98563361D01*
X91783156Y-98560000D01*
X91764852Y-98337361D01*
X91710431Y-98120702D01*
X91621354Y-97915840D01*
X91554411Y-97812362D01*
X91502822Y-97732617D01*
X91502820Y-97732614D01*
X91500014Y-97728277D01*
X91349670Y-97563051D01*
X91345619Y-97559852D01*
X91345615Y-97559848D01*
X91178414Y-97427800D01*
X91178410Y-97427798D01*
X91174359Y-97424598D01*
X91133053Y-97401796D01*
X91083084Y-97351364D01*
X91068312Y-97281921D01*
X91093428Y-97215516D01*
X91120780Y-97188909D01*
X91174545Y-97150559D01*
X91299860Y-97061173D01*
X91458096Y-96903489D01*
X91517594Y-96820689D01*
X91585435Y-96726277D01*
X91588453Y-96722077D01*
X91609320Y-96679857D01*
X91685136Y-96526453D01*
X91685137Y-96526451D01*
X91687430Y-96521811D01*
X91752370Y-96308069D01*
X91781529Y-96086590D01*
X91782444Y-96049144D01*
X91783074Y-96023365D01*
X91783074Y-96023361D01*
X91783156Y-96020000D01*
X91764852Y-95797361D01*
X91710431Y-95580702D01*
X91621354Y-95375840D01*
X91543458Y-95255431D01*
X91502822Y-95192617D01*
X91502820Y-95192614D01*
X91500014Y-95188277D01*
X91349670Y-95023051D01*
X91345619Y-95019852D01*
X91345615Y-95019848D01*
X91178414Y-94887800D01*
X91178410Y-94887798D01*
X91174359Y-94884598D01*
X91133053Y-94861796D01*
X91083084Y-94811364D01*
X91068312Y-94741921D01*
X91093428Y-94675516D01*
X91120780Y-94648909D01*
X91164603Y-94617650D01*
X91299860Y-94521173D01*
X91458096Y-94363489D01*
X91517594Y-94280689D01*
X91585435Y-94186277D01*
X91588453Y-94182077D01*
X91609320Y-94139857D01*
X91685136Y-93986453D01*
X91685137Y-93986451D01*
X91687430Y-93981811D01*
X91752370Y-93768069D01*
X91781529Y-93546590D01*
X91782444Y-93509144D01*
X91783074Y-93483365D01*
X91783074Y-93483361D01*
X91783156Y-93480000D01*
X91764852Y-93257361D01*
X91710431Y-93040702D01*
X91621354Y-92835840D01*
X91500014Y-92648277D01*
X91349670Y-92483051D01*
X91345619Y-92479852D01*
X91345615Y-92479848D01*
X91178414Y-92347800D01*
X91178410Y-92347798D01*
X91174359Y-92344598D01*
X91133053Y-92321796D01*
X91083084Y-92271364D01*
X91068312Y-92201921D01*
X91093428Y-92135516D01*
X91120780Y-92108909D01*
X91164603Y-92077650D01*
X91299860Y-91981173D01*
X91458096Y-91823489D01*
X91517594Y-91740689D01*
X91585435Y-91646277D01*
X91588453Y-91642077D01*
X91609320Y-91599857D01*
X91685136Y-91446453D01*
X91685137Y-91446451D01*
X91687430Y-91441811D01*
X91719900Y-91334940D01*
X91750865Y-91233023D01*
X91750865Y-91233021D01*
X91752370Y-91228069D01*
X91781529Y-91006590D01*
X91781772Y-90996638D01*
X91783074Y-90943365D01*
X91783074Y-90943361D01*
X91783156Y-90940000D01*
X91764852Y-90717361D01*
X91710431Y-90500702D01*
X91621354Y-90295840D01*
X91500014Y-90108277D01*
X91349670Y-89943051D01*
X91345619Y-89939852D01*
X91345615Y-89939848D01*
X91178414Y-89807800D01*
X91178410Y-89807798D01*
X91174359Y-89804598D01*
X91133053Y-89781796D01*
X91083084Y-89731364D01*
X91068312Y-89661921D01*
X91093428Y-89595516D01*
X91120780Y-89568909D01*
X91164603Y-89537650D01*
X91299860Y-89441173D01*
X91458096Y-89283489D01*
X91517594Y-89200689D01*
X91585435Y-89106277D01*
X91588453Y-89102077D01*
X91609320Y-89059857D01*
X91685136Y-88906453D01*
X91685137Y-88906451D01*
X91687430Y-88901811D01*
X91734268Y-88747649D01*
X91750865Y-88693023D01*
X91750865Y-88693021D01*
X91752370Y-88688069D01*
X91781529Y-88466590D01*
X91783156Y-88400000D01*
X91764852Y-88177361D01*
X91710431Y-87960702D01*
X91621354Y-87755840D01*
X91500014Y-87568277D01*
X91349670Y-87403051D01*
X91345619Y-87399852D01*
X91345615Y-87399848D01*
X91178414Y-87267800D01*
X91178410Y-87267798D01*
X91174359Y-87264598D01*
X91133053Y-87241796D01*
X91083084Y-87191364D01*
X91068312Y-87121921D01*
X91093428Y-87055516D01*
X91120780Y-87028909D01*
X91164603Y-86997650D01*
X91299860Y-86901173D01*
X91458096Y-86743489D01*
X91517594Y-86660689D01*
X91585435Y-86566277D01*
X91588453Y-86562077D01*
X91609320Y-86519857D01*
X91685136Y-86366453D01*
X91685137Y-86366451D01*
X91687430Y-86361811D01*
X91752370Y-86148069D01*
X91781529Y-85926590D01*
X91783156Y-85860000D01*
X91764852Y-85637361D01*
X91710431Y-85420702D01*
X91621354Y-85215840D01*
X91500014Y-85028277D01*
X91349670Y-84863051D01*
X91345619Y-84859852D01*
X91345615Y-84859848D01*
X91178414Y-84727800D01*
X91178410Y-84727798D01*
X91174359Y-84724598D01*
X91133053Y-84701796D01*
X91083084Y-84651364D01*
X91068312Y-84581921D01*
X91093428Y-84515516D01*
X91120780Y-84488909D01*
X91180273Y-84446473D01*
X91299860Y-84361173D01*
X91458096Y-84203489D01*
X91469345Y-84187835D01*
X91585435Y-84026277D01*
X91588453Y-84022077D01*
X91592159Y-84014580D01*
X91685136Y-83826453D01*
X91685137Y-83826451D01*
X91687430Y-83821811D01*
X91752370Y-83608069D01*
X91781529Y-83386590D01*
X91783156Y-83320000D01*
X91764852Y-83097361D01*
X91710431Y-82880702D01*
X91621354Y-82675840D01*
X91500014Y-82488277D01*
X91349670Y-82323051D01*
X91345619Y-82319852D01*
X91345615Y-82319848D01*
X91178414Y-82187800D01*
X91178410Y-82187798D01*
X91174359Y-82184598D01*
X91133053Y-82161796D01*
X91083084Y-82111364D01*
X91068312Y-82041921D01*
X91093428Y-81975516D01*
X91120780Y-81948909D01*
X91164603Y-81917650D01*
X91299860Y-81821173D01*
X91336662Y-81784500D01*
X91381209Y-81740107D01*
X91458096Y-81663489D01*
X91517594Y-81580689D01*
X91585435Y-81486277D01*
X91588453Y-81482077D01*
X91594536Y-81469770D01*
X91685136Y-81286453D01*
X91685137Y-81286451D01*
X91687430Y-81281811D01*
X91752370Y-81068069D01*
X91781529Y-80846590D01*
X91781725Y-80838562D01*
X91783074Y-80783365D01*
X91783074Y-80783361D01*
X91783156Y-80780000D01*
X91764852Y-80557361D01*
X91710431Y-80340702D01*
X91621354Y-80135840D01*
X91500014Y-79948277D01*
X91349670Y-79783051D01*
X91345619Y-79779852D01*
X91345615Y-79779848D01*
X91178414Y-79647800D01*
X91178410Y-79647798D01*
X91174359Y-79644598D01*
X91133053Y-79621796D01*
X91083084Y-79571364D01*
X91068312Y-79501921D01*
X91093428Y-79435516D01*
X91120780Y-79408909D01*
X91164603Y-79377650D01*
X91299860Y-79281173D01*
X91310835Y-79270237D01*
X91454435Y-79127137D01*
X91458096Y-79123489D01*
X91517594Y-79040689D01*
X91585435Y-78946277D01*
X91588453Y-78942077D01*
X91592778Y-78933327D01*
X91685136Y-78746453D01*
X91685137Y-78746451D01*
X91687430Y-78741811D01*
X91752370Y-78528069D01*
X91781529Y-78306590D01*
X91783156Y-78240000D01*
X91770001Y-78079994D01*
X91784354Y-78010465D01*
X91834019Y-77959732D01*
X91903229Y-77943904D01*
X91970009Y-77968006D01*
G37*
%TD.AperFunction*%
%TA.AperFunction,Conductor*%
G36*
X94725621Y-68720002D02*
G01*
X94772114Y-68773658D01*
X94783500Y-68826000D01*
X94783500Y-72506134D01*
X94790255Y-72568316D01*
X94841385Y-72704705D01*
X94928739Y-72821261D01*
X95045295Y-72908615D01*
X95181684Y-72959745D01*
X95243866Y-72966500D01*
X99056134Y-72966500D01*
X99118316Y-72959745D01*
X99254705Y-72908615D01*
X99371261Y-72821261D01*
X99415287Y-72762517D01*
X99453231Y-72711889D01*
X99453231Y-72711888D01*
X99458615Y-72704705D01*
X99458943Y-72704951D01*
X99504983Y-72659014D01*
X99574374Y-72644000D01*
X99640867Y-72668885D01*
X99654340Y-72680574D01*
X103023145Y-76049379D01*
X103032247Y-76059522D01*
X103055968Y-76089025D01*
X103060696Y-76092992D01*
X103094421Y-76121291D01*
X103098069Y-76124472D01*
X103099881Y-76126115D01*
X103102075Y-76128309D01*
X103135349Y-76155642D01*
X103136147Y-76156304D01*
X103207474Y-76216154D01*
X103212144Y-76218722D01*
X103216261Y-76222103D01*
X103240195Y-76234936D01*
X103298086Y-76265977D01*
X103299245Y-76266606D01*
X103375381Y-76308462D01*
X103375389Y-76308465D01*
X103380787Y-76311433D01*
X103385869Y-76313045D01*
X103390563Y-76315562D01*
X103463771Y-76337945D01*
X103479477Y-76342747D01*
X103480735Y-76343139D01*
X103569306Y-76371235D01*
X103574597Y-76371829D01*
X103579698Y-76373388D01*
X103672263Y-76382790D01*
X103673450Y-76382916D01*
X103702838Y-76386213D01*
X103719730Y-76388108D01*
X103719735Y-76388108D01*
X103723227Y-76388500D01*
X103726752Y-76388500D01*
X103727737Y-76388555D01*
X103733432Y-76389003D01*
X103745342Y-76390213D01*
X103770334Y-76392752D01*
X103770339Y-76392752D01*
X103776462Y-76393374D01*
X103822108Y-76389059D01*
X103833967Y-76388500D01*
X110985500Y-76388500D01*
X111053621Y-76408502D01*
X111100114Y-76462158D01*
X111111500Y-76514500D01*
X111111500Y-76698134D01*
X111118255Y-76760316D01*
X111169385Y-76896705D01*
X111234327Y-76983357D01*
X111235510Y-76984935D01*
X111260358Y-77051441D01*
X111245305Y-77120824D01*
X111195131Y-77171054D01*
X111134684Y-77186500D01*
X96013749Y-77186500D01*
X95945628Y-77166498D01*
X95899135Y-77112842D01*
X95889031Y-77042568D01*
X95918525Y-76977988D01*
X95947446Y-76953356D01*
X96154332Y-76825331D01*
X96154334Y-76825330D01*
X96158307Y-76822871D01*
X96229989Y-76762188D01*
X96356496Y-76655093D01*
X96356498Y-76655091D01*
X96360063Y-76652073D01*
X96534356Y-76453329D01*
X96543466Y-76439167D01*
X96674831Y-76234936D01*
X96677359Y-76231006D01*
X96785930Y-75989988D01*
X96857683Y-75735570D01*
X96891043Y-75473340D01*
X96891274Y-75464547D01*
X96893404Y-75383160D01*
X96893487Y-75380000D01*
X96883199Y-75241562D01*
X96874243Y-75121036D01*
X96874242Y-75121032D01*
X96873897Y-75116384D01*
X96815557Y-74858559D01*
X96807718Y-74838401D01*
X96721442Y-74616542D01*
X96721441Y-74616540D01*
X96719749Y-74612189D01*
X96716601Y-74606680D01*
X96590897Y-74386745D01*
X96588578Y-74382687D01*
X96424925Y-74175094D01*
X96232385Y-73993970D01*
X96228542Y-73991304D01*
X96019026Y-73845958D01*
X96019021Y-73845955D01*
X96015188Y-73843296D01*
X96010997Y-73841229D01*
X95782294Y-73728445D01*
X95782291Y-73728444D01*
X95778106Y-73726380D01*
X95734449Y-73712405D01*
X95652227Y-73686086D01*
X95526347Y-73645791D01*
X95383825Y-73622580D01*
X95270053Y-73604051D01*
X95270052Y-73604051D01*
X95265441Y-73603300D01*
X95133281Y-73601570D01*
X95005798Y-73599901D01*
X95005795Y-73599901D01*
X95001121Y-73599840D01*
X94739192Y-73635486D01*
X94734702Y-73636795D01*
X94734696Y-73636796D01*
X94638720Y-73664771D01*
X94485410Y-73709457D01*
X94481163Y-73711415D01*
X94481160Y-73711416D01*
X94423903Y-73737812D01*
X94245348Y-73820127D01*
X94241439Y-73822690D01*
X94028195Y-73962499D01*
X94028190Y-73962503D01*
X94024282Y-73965065D01*
X93994884Y-73991304D01*
X93839923Y-74129612D01*
X93827067Y-74141086D01*
X93712506Y-74278831D01*
X93706374Y-74286204D01*
X93647437Y-74325788D01*
X93576455Y-74327225D01*
X93515964Y-74290057D01*
X93485171Y-74226086D01*
X93483500Y-74205635D01*
X93483500Y-73528767D01*
X93484027Y-73517584D01*
X93485702Y-73510091D01*
X93483562Y-73442014D01*
X93483500Y-73438055D01*
X93483500Y-73410144D01*
X93482995Y-73406144D01*
X93482062Y-73394301D01*
X93480922Y-73358030D01*
X93480673Y-73350111D01*
X93475021Y-73330657D01*
X93471013Y-73311300D01*
X93469468Y-73299070D01*
X93469468Y-73299069D01*
X93468474Y-73291203D01*
X93465555Y-73283830D01*
X93452196Y-73250088D01*
X93448351Y-73238858D01*
X93438229Y-73204017D01*
X93438229Y-73204016D01*
X93436018Y-73196407D01*
X93431985Y-73189588D01*
X93431983Y-73189583D01*
X93425707Y-73178972D01*
X93417012Y-73161224D01*
X93409552Y-73142383D01*
X93383564Y-73106613D01*
X93377048Y-73096693D01*
X93358580Y-73065465D01*
X93358578Y-73065462D01*
X93354542Y-73058638D01*
X93340221Y-73044317D01*
X93327380Y-73029283D01*
X93320131Y-73019306D01*
X93315472Y-73012893D01*
X93281395Y-72984702D01*
X93272616Y-72976712D01*
X91815405Y-71519500D01*
X91781379Y-71457188D01*
X91778500Y-71430405D01*
X91778500Y-69721866D01*
X91771745Y-69659684D01*
X91720615Y-69523295D01*
X91633261Y-69406739D01*
X91516705Y-69319385D01*
X91380316Y-69268255D01*
X91318134Y-69261500D01*
X89521866Y-69261500D01*
X89459684Y-69268255D01*
X89323295Y-69319385D01*
X89206739Y-69406739D01*
X89119385Y-69523295D01*
X89116233Y-69531703D01*
X89116232Y-69531705D01*
X89074722Y-69642433D01*
X89032081Y-69699198D01*
X88965519Y-69723898D01*
X88896170Y-69708691D01*
X88863546Y-69683004D01*
X88812799Y-69627234D01*
X88805273Y-69620215D01*
X88638139Y-69488222D01*
X88629552Y-69482517D01*
X88443117Y-69379599D01*
X88433705Y-69375369D01*
X88232959Y-69304280D01*
X88222988Y-69301646D01*
X88151837Y-69288972D01*
X88138540Y-69290432D01*
X88134000Y-69304989D01*
X88134000Y-73288000D01*
X88113998Y-73356121D01*
X88060342Y-73402614D01*
X88008000Y-73414000D01*
X86563225Y-73414000D01*
X86549694Y-73417973D01*
X86548257Y-73427966D01*
X86578565Y-73562446D01*
X86581645Y-73572275D01*
X86661770Y-73769603D01*
X86666413Y-73778794D01*
X86777694Y-73960388D01*
X86783777Y-73968699D01*
X86923213Y-74129667D01*
X86930580Y-74136883D01*
X87094434Y-74272916D01*
X87102881Y-74278831D01*
X87171969Y-74319203D01*
X87220693Y-74370842D01*
X87233764Y-74440625D01*
X87207033Y-74506396D01*
X87166584Y-74539752D01*
X87153607Y-74546507D01*
X87149474Y-74549610D01*
X87149471Y-74549612D01*
X86989076Y-74670040D01*
X86974965Y-74680635D01*
X86971393Y-74684373D01*
X86847235Y-74814297D01*
X86820629Y-74842138D01*
X86694743Y-75026680D01*
X86600688Y-75229305D01*
X86540989Y-75444570D01*
X86517251Y-75666695D01*
X86517548Y-75671848D01*
X86517548Y-75671851D01*
X86527697Y-75847866D01*
X86530110Y-75889715D01*
X86531247Y-75894761D01*
X86531248Y-75894767D01*
X86550925Y-75982077D01*
X86579222Y-76107639D01*
X86663266Y-76314616D01*
X86705040Y-76382785D01*
X86777291Y-76500688D01*
X86779987Y-76505088D01*
X86926250Y-76673938D01*
X87098126Y-76816632D01*
X87168595Y-76857811D01*
X87171445Y-76859476D01*
X87220169Y-76911114D01*
X87233240Y-76980897D01*
X87206509Y-77046669D01*
X87166055Y-77080027D01*
X87153607Y-77086507D01*
X87149474Y-77089610D01*
X87149471Y-77089612D01*
X86989076Y-77210040D01*
X86974965Y-77220635D01*
X86820629Y-77382138D01*
X86694743Y-77566680D01*
X86600688Y-77769305D01*
X86540989Y-77984570D01*
X86517251Y-78206695D01*
X86517548Y-78211848D01*
X86517548Y-78211851D01*
X86523011Y-78306590D01*
X86530110Y-78429715D01*
X86531247Y-78434761D01*
X86531248Y-78434767D01*
X86539978Y-78473502D01*
X86579222Y-78647639D01*
X86663266Y-78854616D01*
X86708626Y-78928637D01*
X86777291Y-79040688D01*
X86779987Y-79045088D01*
X86926250Y-79213938D01*
X87098126Y-79356632D01*
X87155123Y-79389938D01*
X87171445Y-79399476D01*
X87220169Y-79451114D01*
X87233240Y-79520897D01*
X87206509Y-79586669D01*
X87166055Y-79620027D01*
X87153607Y-79626507D01*
X87149474Y-79629610D01*
X87149471Y-79629612D01*
X86979100Y-79757530D01*
X86974965Y-79760635D01*
X86820629Y-79922138D01*
X86694743Y-80106680D01*
X86600688Y-80309305D01*
X86540989Y-80524570D01*
X86517251Y-80746695D01*
X86517548Y-80751848D01*
X86517548Y-80751851D01*
X86522995Y-80846317D01*
X86530110Y-80969715D01*
X86531247Y-80974761D01*
X86531248Y-80974767D01*
X86543188Y-81027745D01*
X86579222Y-81187639D01*
X86663266Y-81394616D01*
X86704489Y-81461886D01*
X86777291Y-81580688D01*
X86779987Y-81585088D01*
X86926250Y-81753938D01*
X87098126Y-81896632D01*
X87157339Y-81931233D01*
X87171445Y-81939476D01*
X87220169Y-81991114D01*
X87233240Y-82060897D01*
X87206509Y-82126669D01*
X87166055Y-82160027D01*
X87153607Y-82166507D01*
X87149474Y-82169610D01*
X87149471Y-82169612D01*
X86979100Y-82297530D01*
X86974965Y-82300635D01*
X86820629Y-82462138D01*
X86694743Y-82646680D01*
X86600688Y-82849305D01*
X86540989Y-83064570D01*
X86517251Y-83286695D01*
X86517548Y-83291848D01*
X86517548Y-83291851D01*
X86523011Y-83386590D01*
X86530110Y-83509715D01*
X86531247Y-83514761D01*
X86531248Y-83514767D01*
X86551119Y-83602939D01*
X86579222Y-83727639D01*
X86663266Y-83934616D01*
X86705335Y-84003266D01*
X86777291Y-84120688D01*
X86779987Y-84125088D01*
X86926250Y-84293938D01*
X87098126Y-84436632D01*
X87114967Y-84446473D01*
X87171445Y-84479476D01*
X87220169Y-84531114D01*
X87233240Y-84600897D01*
X87206509Y-84666669D01*
X87166055Y-84700027D01*
X87153607Y-84706507D01*
X87149474Y-84709610D01*
X87149471Y-84709612D01*
X87125247Y-84727800D01*
X86974965Y-84840635D01*
X86820629Y-85002138D01*
X86694743Y-85186680D01*
X86600688Y-85389305D01*
X86540989Y-85604570D01*
X86517251Y-85826695D01*
X86517548Y-85831848D01*
X86517548Y-85831851D01*
X86523011Y-85926590D01*
X86530110Y-86049715D01*
X86531247Y-86054761D01*
X86531248Y-86054767D01*
X86551119Y-86142939D01*
X86579222Y-86267639D01*
X86663266Y-86474616D01*
X86714019Y-86557438D01*
X86777291Y-86660688D01*
X86779987Y-86665088D01*
X86926250Y-86833938D01*
X87098126Y-86976632D01*
X87168595Y-87017811D01*
X87171445Y-87019476D01*
X87220169Y-87071114D01*
X87233240Y-87140897D01*
X87206509Y-87206669D01*
X87166055Y-87240027D01*
X87153607Y-87246507D01*
X87149474Y-87249610D01*
X87149471Y-87249612D01*
X87125247Y-87267800D01*
X86974965Y-87380635D01*
X86820629Y-87542138D01*
X86694743Y-87726680D01*
X86600688Y-87929305D01*
X86540989Y-88144570D01*
X86517251Y-88366695D01*
X86517548Y-88371848D01*
X86517548Y-88371851D01*
X86523011Y-88466590D01*
X86530110Y-88589715D01*
X86531247Y-88594761D01*
X86531248Y-88594767D01*
X86535120Y-88611946D01*
X86579222Y-88807639D01*
X86663266Y-89014616D01*
X86714019Y-89097438D01*
X86777291Y-89200688D01*
X86779987Y-89205088D01*
X86926250Y-89373938D01*
X87098126Y-89516632D01*
X87168595Y-89557811D01*
X87171445Y-89559476D01*
X87220169Y-89611114D01*
X87233240Y-89680897D01*
X87206509Y-89746669D01*
X87166055Y-89780027D01*
X87153607Y-89786507D01*
X87149474Y-89789610D01*
X87149471Y-89789612D01*
X87125247Y-89807800D01*
X86974965Y-89920635D01*
X86820629Y-90082138D01*
X86694743Y-90266680D01*
X86600688Y-90469305D01*
X86540989Y-90684570D01*
X86517251Y-90906695D01*
X86517548Y-90911848D01*
X86517548Y-90911851D01*
X86523011Y-91006590D01*
X86530110Y-91129715D01*
X86531247Y-91134761D01*
X86531248Y-91134767D01*
X86550600Y-91220635D01*
X86579222Y-91347639D01*
X86663266Y-91554616D01*
X86714019Y-91637438D01*
X86777291Y-91740688D01*
X86779987Y-91745088D01*
X86926250Y-91913938D01*
X87098126Y-92056632D01*
X87168595Y-92097811D01*
X87171445Y-92099476D01*
X87220169Y-92151114D01*
X87233240Y-92220897D01*
X87206509Y-92286669D01*
X87166055Y-92320027D01*
X87153607Y-92326507D01*
X87149474Y-92329610D01*
X87149471Y-92329612D01*
X87009418Y-92434767D01*
X86974965Y-92460635D01*
X86820629Y-92622138D01*
X86817720Y-92626403D01*
X86817714Y-92626411D01*
X86799838Y-92652617D01*
X86694743Y-92806680D01*
X86679003Y-92840590D01*
X86629945Y-92946277D01*
X86600688Y-93009305D01*
X86540989Y-93224570D01*
X86517251Y-93446695D01*
X86517548Y-93451848D01*
X86517548Y-93451851D01*
X86523011Y-93546590D01*
X86530110Y-93669715D01*
X86531247Y-93674761D01*
X86531248Y-93674767D01*
X86549900Y-93757530D01*
X86579222Y-93887639D01*
X86663266Y-94094616D01*
X86714019Y-94177438D01*
X86777291Y-94280688D01*
X86779987Y-94285088D01*
X86926250Y-94453938D01*
X87098126Y-94596632D01*
X87168595Y-94637811D01*
X87171445Y-94639476D01*
X87220169Y-94691114D01*
X87233240Y-94760897D01*
X87206509Y-94826669D01*
X87166055Y-94860027D01*
X87153607Y-94866507D01*
X87149474Y-94869610D01*
X87149471Y-94869612D01*
X86979100Y-94997530D01*
X86974965Y-95000635D01*
X86820629Y-95162138D01*
X86694743Y-95346680D01*
X86672492Y-95394616D01*
X86612765Y-95523288D01*
X86600688Y-95549305D01*
X86540989Y-95764570D01*
X86517251Y-95986695D01*
X86517548Y-95991848D01*
X86517548Y-95991851D01*
X86523011Y-96086590D01*
X86530110Y-96209715D01*
X86531247Y-96214761D01*
X86531248Y-96214767D01*
X86551119Y-96302939D01*
X86579222Y-96427639D01*
X86663266Y-96634616D01*
X86714019Y-96717438D01*
X86777291Y-96820688D01*
X86779987Y-96825088D01*
X86926250Y-96993938D01*
X87098126Y-97136632D01*
X87168595Y-97177811D01*
X87171445Y-97179476D01*
X87220169Y-97231114D01*
X87233240Y-97300897D01*
X87206509Y-97366669D01*
X87166055Y-97400027D01*
X87153607Y-97406507D01*
X87149474Y-97409610D01*
X87149471Y-97409612D01*
X87009418Y-97514767D01*
X86974965Y-97540635D01*
X86820629Y-97702138D01*
X86694743Y-97886680D01*
X86679003Y-97920590D01*
X86629945Y-98026277D01*
X86600688Y-98089305D01*
X86540989Y-98304570D01*
X86517251Y-98526695D01*
X86517548Y-98531848D01*
X86517548Y-98531851D01*
X86523011Y-98626590D01*
X86530110Y-98749715D01*
X86531247Y-98754761D01*
X86531248Y-98754767D01*
X86551119Y-98842939D01*
X86579222Y-98967639D01*
X86663266Y-99174616D01*
X86714019Y-99257438D01*
X86777291Y-99360688D01*
X86779987Y-99365088D01*
X86926250Y-99533938D01*
X87098126Y-99676632D01*
X87137423Y-99699595D01*
X87171445Y-99719476D01*
X87220169Y-99771114D01*
X87233240Y-99840897D01*
X87206509Y-99906669D01*
X87166055Y-99940027D01*
X87153607Y-99946507D01*
X87149474Y-99949610D01*
X87149471Y-99949612D01*
X87009418Y-100054767D01*
X86974965Y-100080635D01*
X86820629Y-100242138D01*
X86817720Y-100246403D01*
X86817714Y-100246411D01*
X86799838Y-100272617D01*
X86694743Y-100426680D01*
X86679003Y-100460590D01*
X86629945Y-100566277D01*
X86600688Y-100629305D01*
X86540989Y-100844570D01*
X86517251Y-101066695D01*
X86517548Y-101071848D01*
X86517548Y-101071851D01*
X86523011Y-101166590D01*
X86530110Y-101289715D01*
X86531247Y-101294761D01*
X86531248Y-101294767D01*
X86549900Y-101377530D01*
X86579222Y-101507639D01*
X86663266Y-101714616D01*
X86714019Y-101797438D01*
X86777291Y-101900688D01*
X86779987Y-101905088D01*
X86926250Y-102073938D01*
X87098126Y-102216632D01*
X87168595Y-102257811D01*
X87171445Y-102259476D01*
X87220169Y-102311114D01*
X87233240Y-102380897D01*
X87206509Y-102446669D01*
X87166055Y-102480027D01*
X87153607Y-102486507D01*
X87149474Y-102489610D01*
X87149471Y-102489612D01*
X87009418Y-102594767D01*
X86974965Y-102620635D01*
X86820629Y-102782138D01*
X86817720Y-102786403D01*
X86817714Y-102786411D01*
X86799838Y-102812617D01*
X86694743Y-102966680D01*
X86679003Y-103000590D01*
X86629945Y-103106277D01*
X86600688Y-103169305D01*
X86540989Y-103384570D01*
X86517251Y-103606695D01*
X86517548Y-103611848D01*
X86517548Y-103611851D01*
X86523011Y-103706590D01*
X86530110Y-103829715D01*
X86531247Y-103834761D01*
X86531248Y-103834767D01*
X86549900Y-103917530D01*
X86579222Y-104047639D01*
X86663266Y-104254616D01*
X86714019Y-104337438D01*
X86777291Y-104440688D01*
X86779987Y-104445088D01*
X86926250Y-104613938D01*
X87098126Y-104756632D01*
X87168595Y-104797811D01*
X87171445Y-104799476D01*
X87220169Y-104851114D01*
X87233240Y-104920897D01*
X87206509Y-104986669D01*
X87166055Y-105020027D01*
X87153607Y-105026507D01*
X87149474Y-105029610D01*
X87149471Y-105029612D01*
X87009418Y-105134767D01*
X86974965Y-105160635D01*
X86820629Y-105322138D01*
X86817720Y-105326403D01*
X86817714Y-105326411D01*
X86799838Y-105352617D01*
X86694743Y-105506680D01*
X86679003Y-105540590D01*
X86629945Y-105646277D01*
X86600688Y-105709305D01*
X86540989Y-105924570D01*
X86517251Y-106146695D01*
X86517548Y-106151848D01*
X86517548Y-106151851D01*
X86523011Y-106246590D01*
X86530110Y-106369715D01*
X86531247Y-106374761D01*
X86531248Y-106374767D01*
X86549900Y-106457530D01*
X86579222Y-106587639D01*
X86663266Y-106794616D01*
X86714019Y-106877438D01*
X86777291Y-106980688D01*
X86779987Y-106985088D01*
X86926250Y-107153938D01*
X87098126Y-107296632D01*
X87168595Y-107337811D01*
X87171445Y-107339476D01*
X87220169Y-107391114D01*
X87233240Y-107460897D01*
X87206509Y-107526669D01*
X87166055Y-107560027D01*
X87153607Y-107566507D01*
X87149474Y-107569610D01*
X87149471Y-107569612D01*
X87009418Y-107674767D01*
X86974965Y-107700635D01*
X86820629Y-107862138D01*
X86817720Y-107866403D01*
X86817714Y-107866411D01*
X86799838Y-107892617D01*
X86694743Y-108046680D01*
X86679003Y-108080590D01*
X86629945Y-108186277D01*
X86600688Y-108249305D01*
X86540989Y-108464570D01*
X86517251Y-108686695D01*
X86517548Y-108691848D01*
X86517548Y-108691851D01*
X86523011Y-108786590D01*
X86530110Y-108909715D01*
X86531247Y-108914761D01*
X86531248Y-108914767D01*
X86549900Y-108997530D01*
X86579222Y-109127639D01*
X86663266Y-109334616D01*
X86714019Y-109417438D01*
X86777291Y-109520688D01*
X86779987Y-109525088D01*
X86926250Y-109693938D01*
X87098126Y-109836632D01*
X87168595Y-109877811D01*
X87171445Y-109879476D01*
X87220169Y-109931114D01*
X87233240Y-110000897D01*
X87206509Y-110066669D01*
X87166055Y-110100027D01*
X87153607Y-110106507D01*
X87149474Y-110109610D01*
X87149471Y-110109612D01*
X87009418Y-110214767D01*
X86974965Y-110240635D01*
X86820629Y-110402138D01*
X86817720Y-110406403D01*
X86817714Y-110406411D01*
X86799838Y-110432617D01*
X86694743Y-110586680D01*
X86679003Y-110620590D01*
X86629945Y-110726277D01*
X86600688Y-110789305D01*
X86540989Y-111004570D01*
X86517251Y-111226695D01*
X86517548Y-111231848D01*
X86517548Y-111231851D01*
X86526191Y-111381753D01*
X86530110Y-111449715D01*
X86531247Y-111454761D01*
X86531248Y-111454767D01*
X86551119Y-111542939D01*
X86579222Y-111667639D01*
X86663266Y-111874616D01*
X86714019Y-111957438D01*
X86777291Y-112060688D01*
X86779987Y-112065088D01*
X86926250Y-112233938D01*
X87098126Y-112376632D01*
X87168595Y-112417811D01*
X87171445Y-112419476D01*
X87220169Y-112471114D01*
X87233240Y-112540897D01*
X87206509Y-112606669D01*
X87166055Y-112640027D01*
X87153607Y-112646507D01*
X87149474Y-112649610D01*
X87149471Y-112649612D01*
X87125247Y-112667800D01*
X86974965Y-112780635D01*
X86820629Y-112942138D01*
X86694743Y-113126680D01*
X86600688Y-113329305D01*
X86540989Y-113544570D01*
X86517251Y-113766695D01*
X86517548Y-113771848D01*
X86517548Y-113771851D01*
X86523011Y-113866590D01*
X86530110Y-113989715D01*
X86531247Y-113994761D01*
X86531248Y-113994767D01*
X86551119Y-114082939D01*
X86579222Y-114207639D01*
X86663266Y-114414616D01*
X86704086Y-114481229D01*
X86777291Y-114600688D01*
X86779987Y-114605088D01*
X86926250Y-114773938D01*
X87098126Y-114916632D01*
X87168595Y-114957811D01*
X87171445Y-114959476D01*
X87220169Y-115011114D01*
X87233240Y-115080897D01*
X87206509Y-115146669D01*
X87166055Y-115180027D01*
X87153607Y-115186507D01*
X87149474Y-115189610D01*
X87149471Y-115189612D01*
X87060041Y-115256758D01*
X86974965Y-115320635D01*
X86971393Y-115324373D01*
X86843098Y-115458626D01*
X86820629Y-115482138D01*
X86694743Y-115666680D01*
X86600688Y-115869305D01*
X86540989Y-116084570D01*
X86517251Y-116306695D01*
X86517548Y-116311848D01*
X86517548Y-116311851D01*
X86529812Y-116524547D01*
X86530110Y-116529715D01*
X86531247Y-116534761D01*
X86531248Y-116534767D01*
X86551119Y-116622939D01*
X86579222Y-116747639D01*
X86663266Y-116954616D01*
X86714019Y-117037438D01*
X86777291Y-117140688D01*
X86779987Y-117145088D01*
X86926250Y-117313938D01*
X87098126Y-117456632D01*
X87113013Y-117465331D01*
X87171445Y-117499476D01*
X87220169Y-117551114D01*
X87233240Y-117620897D01*
X87206509Y-117686669D01*
X87166055Y-117720027D01*
X87153607Y-117726507D01*
X87149474Y-117729610D01*
X87149471Y-117729612D01*
X86979100Y-117857530D01*
X86974965Y-117860635D01*
X86820629Y-118022138D01*
X86694743Y-118206680D01*
X86600688Y-118409305D01*
X86540989Y-118624570D01*
X86517251Y-118846695D01*
X86517548Y-118851848D01*
X86517548Y-118851851D01*
X86523011Y-118946590D01*
X86530110Y-119069715D01*
X86531247Y-119074761D01*
X86531248Y-119074767D01*
X86551119Y-119162939D01*
X86579222Y-119287639D01*
X86663266Y-119494616D01*
X86714019Y-119577438D01*
X86777291Y-119680688D01*
X86779987Y-119685088D01*
X86926250Y-119853938D01*
X87098126Y-119996632D01*
X87185847Y-120047892D01*
X87215487Y-120065212D01*
X87264211Y-120116850D01*
X87277282Y-120186633D01*
X87250551Y-120252405D01*
X87192504Y-120293284D01*
X87151917Y-120300000D01*
X86225513Y-120300000D01*
X86157392Y-120279998D01*
X86110899Y-120226342D01*
X86099514Y-120174488D01*
X85964828Y-85425720D01*
X85916256Y-72894183D01*
X86544389Y-72894183D01*
X86545912Y-72902607D01*
X86558292Y-72906000D01*
X87607885Y-72906000D01*
X87623124Y-72901525D01*
X87624329Y-72900135D01*
X87626000Y-72892452D01*
X87626000Y-70892115D01*
X87621525Y-70876876D01*
X87620135Y-70875671D01*
X87612452Y-70874000D01*
X86563225Y-70874000D01*
X86549694Y-70877973D01*
X86548257Y-70887966D01*
X86578565Y-71022446D01*
X86581645Y-71032275D01*
X86661770Y-71229603D01*
X86666413Y-71238794D01*
X86777694Y-71420388D01*
X86783777Y-71428699D01*
X86923213Y-71589667D01*
X86930580Y-71596883D01*
X87094434Y-71732916D01*
X87102881Y-71738831D01*
X87172479Y-71779501D01*
X87221203Y-71831140D01*
X87234274Y-71900923D01*
X87207543Y-71966694D01*
X87167087Y-72000053D01*
X87158462Y-72004542D01*
X87149738Y-72010036D01*
X86979433Y-72137905D01*
X86971726Y-72144748D01*
X86824590Y-72298717D01*
X86818104Y-72306727D01*
X86698098Y-72482649D01*
X86693000Y-72491623D01*
X86603338Y-72684783D01*
X86599775Y-72694470D01*
X86544389Y-72894183D01*
X85916256Y-72894183D01*
X85906411Y-70354183D01*
X86544389Y-70354183D01*
X86545912Y-70362607D01*
X86558292Y-70366000D01*
X87607885Y-70366000D01*
X87623124Y-70361525D01*
X87624329Y-70360135D01*
X87626000Y-70352452D01*
X87626000Y-69303102D01*
X87622082Y-69289758D01*
X87607806Y-69287771D01*
X87569324Y-69293660D01*
X87559288Y-69296051D01*
X87356868Y-69362212D01*
X87347359Y-69366209D01*
X87158463Y-69464542D01*
X87149738Y-69470036D01*
X86979433Y-69597905D01*
X86971726Y-69604748D01*
X86824590Y-69758717D01*
X86818104Y-69766727D01*
X86698098Y-69942649D01*
X86693000Y-69951623D01*
X86603338Y-70144783D01*
X86599775Y-70154470D01*
X86544389Y-70354183D01*
X85906411Y-70354183D01*
X85900490Y-68826487D01*
X85920228Y-68758291D01*
X85973703Y-68711590D01*
X86026489Y-68700000D01*
X94657500Y-68700000D01*
X94725621Y-68720002D01*
G37*
%TD.AperFunction*%
%TD*%
M02*
