%TF.GenerationSoftware,KiCad,Pcbnew,(6.0.5-0)*%
%TF.CreationDate,2024-02-05T18:51:56-05:00*%
%TF.ProjectId,CubeSat PCB,43756265-5361-4742-9050-43422e6b6963,rev?*%
%TF.SameCoordinates,Original*%
%TF.FileFunction,Legend,Bot*%
%TF.FilePolarity,Positive*%
%FSLAX46Y46*%
G04 Gerber Fmt 4.6, Leading zero omitted, Abs format (unit mm)*
G04 Created by KiCad (PCBNEW (6.0.5-0)) date 2024-02-05 18:51:56*
%MOMM*%
%LPD*%
G01*
G04 APERTURE LIST*
%ADD10C,0.300000*%
%ADD11C,0.150000*%
%ADD12C,0.010000*%
%ADD13C,0.120000*%
G04 APERTURE END LIST*
D10*
X108575000Y-74564285D02*
X108575000Y-75064285D01*
X109491666Y-75278571D02*
X109491666Y-74564285D01*
X107741666Y-74564285D01*
X107741666Y-75278571D01*
X108325000Y-75921428D02*
X109491666Y-75921428D01*
X108491666Y-75921428D02*
X108408333Y-75992857D01*
X108325000Y-76135714D01*
X108325000Y-76350000D01*
X108408333Y-76492857D01*
X108575000Y-76564285D01*
X109491666Y-76564285D01*
X108325000Y-77921428D02*
X109741666Y-77921428D01*
X109908333Y-77850000D01*
X109991666Y-77778571D01*
X110075000Y-77635714D01*
X110075000Y-77421428D01*
X109991666Y-77278571D01*
X109408333Y-77921428D02*
X109491666Y-77778571D01*
X109491666Y-77492857D01*
X109408333Y-77350000D01*
X109325000Y-77278571D01*
X109158333Y-77207142D01*
X108658333Y-77207142D01*
X108491666Y-77278571D01*
X108408333Y-77350000D01*
X108325000Y-77492857D01*
X108325000Y-77778571D01*
X108408333Y-77921428D01*
X109491666Y-78635714D02*
X108325000Y-78635714D01*
X107741666Y-78635714D02*
X107825000Y-78564285D01*
X107908333Y-78635714D01*
X107825000Y-78707142D01*
X107741666Y-78635714D01*
X107908333Y-78635714D01*
X108325000Y-79350000D02*
X109491666Y-79350000D01*
X108491666Y-79350000D02*
X108408333Y-79421428D01*
X108325000Y-79564285D01*
X108325000Y-79778571D01*
X108408333Y-79921428D01*
X108575000Y-79992857D01*
X109491666Y-79992857D01*
X109408333Y-81278571D02*
X109491666Y-81135714D01*
X109491666Y-80850000D01*
X109408333Y-80707142D01*
X109241666Y-80635714D01*
X108575000Y-80635714D01*
X108408333Y-80707142D01*
X108325000Y-80850000D01*
X108325000Y-81135714D01*
X108408333Y-81278571D01*
X108575000Y-81350000D01*
X108741666Y-81350000D01*
X108908333Y-80635714D01*
X109408333Y-82564285D02*
X109491666Y-82421428D01*
X109491666Y-82135714D01*
X109408333Y-81992857D01*
X109241666Y-81921428D01*
X108575000Y-81921428D01*
X108408333Y-81992857D01*
X108325000Y-82135714D01*
X108325000Y-82421428D01*
X108408333Y-82564285D01*
X108575000Y-82635714D01*
X108741666Y-82635714D01*
X108908333Y-81921428D01*
X109491666Y-83278571D02*
X108325000Y-83278571D01*
X108658333Y-83278571D02*
X108491666Y-83350000D01*
X108408333Y-83421428D01*
X108325000Y-83564285D01*
X108325000Y-83707142D01*
X109491666Y-84207142D02*
X108325000Y-84207142D01*
X107741666Y-84207142D02*
X107825000Y-84135714D01*
X107908333Y-84207142D01*
X107825000Y-84278571D01*
X107741666Y-84207142D01*
X107908333Y-84207142D01*
X108325000Y-84921428D02*
X109491666Y-84921428D01*
X108491666Y-84921428D02*
X108408333Y-84992857D01*
X108325000Y-85135714D01*
X108325000Y-85350000D01*
X108408333Y-85492857D01*
X108575000Y-85564285D01*
X109491666Y-85564285D01*
X108325000Y-86921428D02*
X109741666Y-86921428D01*
X109908333Y-86850000D01*
X109991666Y-86778571D01*
X110075000Y-86635714D01*
X110075000Y-86421428D01*
X109991666Y-86278571D01*
X109408333Y-86921428D02*
X109491666Y-86778571D01*
X109491666Y-86492857D01*
X109408333Y-86350000D01*
X109325000Y-86278571D01*
X109158333Y-86207142D01*
X108658333Y-86207142D01*
X108491666Y-86278571D01*
X108408333Y-86350000D01*
X108325000Y-86492857D01*
X108325000Y-86778571D01*
X108408333Y-86921428D01*
X109491666Y-88778571D02*
X107741666Y-88778571D01*
X107741666Y-89350000D01*
X107825000Y-89492857D01*
X107908333Y-89564285D01*
X108075000Y-89635714D01*
X108325000Y-89635714D01*
X108491666Y-89564285D01*
X108575000Y-89492857D01*
X108658333Y-89350000D01*
X108658333Y-88778571D01*
X109491666Y-90278571D02*
X107741666Y-90278571D01*
X109491666Y-90921428D02*
X108575000Y-90921428D01*
X108408333Y-90850000D01*
X108325000Y-90707142D01*
X108325000Y-90492857D01*
X108408333Y-90350000D01*
X108491666Y-90278571D01*
X108325000Y-91492857D02*
X109491666Y-91850000D01*
X108325000Y-92207142D02*
X109491666Y-91850000D01*
X109908333Y-91707142D01*
X109991666Y-91635714D01*
X110075000Y-91492857D01*
X109408333Y-92707142D02*
X109491666Y-92850000D01*
X109491666Y-93135714D01*
X109408333Y-93278571D01*
X109241666Y-93350000D01*
X109158333Y-93350000D01*
X108991666Y-93278571D01*
X108908333Y-93135714D01*
X108908333Y-92921428D01*
X108825000Y-92778571D01*
X108658333Y-92707142D01*
X108575000Y-92707142D01*
X108408333Y-92778571D01*
X108325000Y-92921428D01*
X108325000Y-93135714D01*
X108408333Y-93278571D01*
X109491666Y-93992857D02*
X108325000Y-93992857D01*
X107741666Y-93992857D02*
X107825000Y-93921428D01*
X107908333Y-93992857D01*
X107825000Y-94064285D01*
X107741666Y-93992857D01*
X107908333Y-93992857D01*
X109408333Y-95350000D02*
X109491666Y-95207142D01*
X109491666Y-94921428D01*
X109408333Y-94778571D01*
X109325000Y-94707142D01*
X109158333Y-94635714D01*
X108658333Y-94635714D01*
X108491666Y-94707142D01*
X108408333Y-94778571D01*
X108325000Y-94921428D01*
X108325000Y-95207142D01*
X108408333Y-95350000D01*
X109408333Y-95921428D02*
X109491666Y-96064285D01*
X109491666Y-96350000D01*
X109408333Y-96492857D01*
X109241666Y-96564285D01*
X109158333Y-96564285D01*
X108991666Y-96492857D01*
X108908333Y-96350000D01*
X108908333Y-96135714D01*
X108825000Y-95992857D01*
X108658333Y-95921428D01*
X108575000Y-95921428D01*
X108408333Y-95992857D01*
X108325000Y-96135714D01*
X108325000Y-96350000D01*
X108408333Y-96492857D01*
X109491666Y-98350000D02*
X107741666Y-98350000D01*
X107741666Y-98921428D01*
X107825000Y-99064285D01*
X107908333Y-99135714D01*
X108075000Y-99207142D01*
X108325000Y-99207142D01*
X108491666Y-99135714D01*
X108575000Y-99064285D01*
X108658333Y-98921428D01*
X108658333Y-98350000D01*
X109491666Y-99850000D02*
X108325000Y-99850000D01*
X108658333Y-99850000D02*
X108491666Y-99921428D01*
X108408333Y-99992857D01*
X108325000Y-100135714D01*
X108325000Y-100278571D01*
X109491666Y-100992857D02*
X109408333Y-100850000D01*
X109325000Y-100778571D01*
X109158333Y-100707142D01*
X108658333Y-100707142D01*
X108491666Y-100778571D01*
X108408333Y-100850000D01*
X108325000Y-100992857D01*
X108325000Y-101207142D01*
X108408333Y-101350000D01*
X108491666Y-101421428D01*
X108658333Y-101492857D01*
X109158333Y-101492857D01*
X109325000Y-101421428D01*
X109408333Y-101350000D01*
X109491666Y-101207142D01*
X109491666Y-100992857D01*
X108325000Y-102135714D02*
X110075000Y-102135714D01*
X108408333Y-102135714D02*
X108325000Y-102278571D01*
X108325000Y-102564285D01*
X108408333Y-102707142D01*
X108491666Y-102778571D01*
X108658333Y-102850000D01*
X109158333Y-102850000D01*
X109325000Y-102778571D01*
X109408333Y-102707142D01*
X109491666Y-102564285D01*
X109491666Y-102278571D01*
X109408333Y-102135714D01*
X108325000Y-104135714D02*
X109491666Y-104135714D01*
X108325000Y-103492857D02*
X109241666Y-103492857D01*
X109408333Y-103564285D01*
X109491666Y-103707142D01*
X109491666Y-103921428D01*
X109408333Y-104064285D01*
X109325000Y-104135714D01*
X109491666Y-105064285D02*
X109408333Y-104921428D01*
X109241666Y-104850000D01*
X107741666Y-104850000D01*
X109408333Y-105564285D02*
X109491666Y-105707142D01*
X109491666Y-105992857D01*
X109408333Y-106135714D01*
X109241666Y-106207142D01*
X109158333Y-106207142D01*
X108991666Y-106135714D01*
X108908333Y-105992857D01*
X108908333Y-105778571D01*
X108825000Y-105635714D01*
X108658333Y-105564285D01*
X108575000Y-105564285D01*
X108408333Y-105635714D01*
X108325000Y-105778571D01*
X108325000Y-105992857D01*
X108408333Y-106135714D01*
X109491666Y-106850000D02*
X108325000Y-106850000D01*
X107741666Y-106850000D02*
X107825000Y-106778571D01*
X107908333Y-106850000D01*
X107825000Y-106921428D01*
X107741666Y-106850000D01*
X107908333Y-106850000D01*
X109491666Y-107778571D02*
X109408333Y-107635714D01*
X109325000Y-107564285D01*
X109158333Y-107492857D01*
X108658333Y-107492857D01*
X108491666Y-107564285D01*
X108408333Y-107635714D01*
X108325000Y-107778571D01*
X108325000Y-107992857D01*
X108408333Y-108135714D01*
X108491666Y-108207142D01*
X108658333Y-108278571D01*
X109158333Y-108278571D01*
X109325000Y-108207142D01*
X109408333Y-108135714D01*
X109491666Y-107992857D01*
X109491666Y-107778571D01*
X108325000Y-108921428D02*
X109491666Y-108921428D01*
X108491666Y-108921428D02*
X108408333Y-108992857D01*
X108325000Y-109135714D01*
X108325000Y-109350000D01*
X108408333Y-109492857D01*
X108575000Y-109564285D01*
X109491666Y-109564285D01*
X109491666Y-112135714D02*
X109491666Y-111421428D01*
X107741666Y-111421428D01*
X109491666Y-113278571D02*
X108575000Y-113278571D01*
X108408333Y-113207142D01*
X108325000Y-113064285D01*
X108325000Y-112778571D01*
X108408333Y-112635714D01*
X109408333Y-113278571D02*
X109491666Y-113135714D01*
X109491666Y-112778571D01*
X109408333Y-112635714D01*
X109241666Y-112564285D01*
X109075000Y-112564285D01*
X108908333Y-112635714D01*
X108825000Y-112778571D01*
X108825000Y-113135714D01*
X108741666Y-113278571D01*
X109491666Y-113992857D02*
X107741666Y-113992857D01*
X108408333Y-113992857D02*
X108325000Y-114135714D01*
X108325000Y-114421428D01*
X108408333Y-114564285D01*
X108491666Y-114635714D01*
X108658333Y-114707142D01*
X109158333Y-114707142D01*
X109325000Y-114635714D01*
X109408333Y-114564285D01*
X109491666Y-114421428D01*
X109491666Y-114135714D01*
X109408333Y-113992857D01*
D11*
X94602142Y-84835714D02*
X94649761Y-84788095D01*
X94697380Y-84645238D01*
X94697380Y-84550000D01*
X94649761Y-84407142D01*
X94554523Y-84311904D01*
X94459285Y-84264285D01*
X94268809Y-84216666D01*
X94125952Y-84216666D01*
X93935476Y-84264285D01*
X93840238Y-84311904D01*
X93745000Y-84407142D01*
X93697380Y-84550000D01*
X93697380Y-84645238D01*
X93745000Y-84788095D01*
X93792619Y-84835714D01*
X94030714Y-85692857D02*
X94697380Y-85692857D01*
X94030714Y-85264285D02*
X94554523Y-85264285D01*
X94649761Y-85311904D01*
X94697380Y-85407142D01*
X94697380Y-85550000D01*
X94649761Y-85645238D01*
X94602142Y-85692857D01*
X94697380Y-86169047D02*
X93697380Y-86169047D01*
X94078333Y-86169047D02*
X94030714Y-86264285D01*
X94030714Y-86454761D01*
X94078333Y-86550000D01*
X94125952Y-86597619D01*
X94221190Y-86645238D01*
X94506904Y-86645238D01*
X94602142Y-86597619D01*
X94649761Y-86550000D01*
X94697380Y-86454761D01*
X94697380Y-86264285D01*
X94649761Y-86169047D01*
X94649761Y-87454761D02*
X94697380Y-87359523D01*
X94697380Y-87169047D01*
X94649761Y-87073809D01*
X94554523Y-87026190D01*
X94173571Y-87026190D01*
X94078333Y-87073809D01*
X94030714Y-87169047D01*
X94030714Y-87359523D01*
X94078333Y-87454761D01*
X94173571Y-87502380D01*
X94268809Y-87502380D01*
X94364047Y-87026190D01*
X94649761Y-87883333D02*
X94697380Y-88026190D01*
X94697380Y-88264285D01*
X94649761Y-88359523D01*
X94602142Y-88407142D01*
X94506904Y-88454761D01*
X94411666Y-88454761D01*
X94316428Y-88407142D01*
X94268809Y-88359523D01*
X94221190Y-88264285D01*
X94173571Y-88073809D01*
X94125952Y-87978571D01*
X94078333Y-87930952D01*
X93983095Y-87883333D01*
X93887857Y-87883333D01*
X93792619Y-87930952D01*
X93745000Y-87978571D01*
X93697380Y-88073809D01*
X93697380Y-88311904D01*
X93745000Y-88454761D01*
X94697380Y-89311904D02*
X94173571Y-89311904D01*
X94078333Y-89264285D01*
X94030714Y-89169047D01*
X94030714Y-88978571D01*
X94078333Y-88883333D01*
X94649761Y-89311904D02*
X94697380Y-89216666D01*
X94697380Y-88978571D01*
X94649761Y-88883333D01*
X94554523Y-88835714D01*
X94459285Y-88835714D01*
X94364047Y-88883333D01*
X94316428Y-88978571D01*
X94316428Y-89216666D01*
X94268809Y-89311904D01*
X94030714Y-89645238D02*
X94030714Y-90026190D01*
X93697380Y-89788095D02*
X94554523Y-89788095D01*
X94649761Y-89835714D01*
X94697380Y-89930952D01*
X94697380Y-90026190D01*
X94697380Y-91121428D02*
X93697380Y-91121428D01*
X94697380Y-91597619D02*
X93697380Y-91597619D01*
X94411666Y-91930952D01*
X93697380Y-92264285D01*
X94697380Y-92264285D01*
X93697380Y-92740476D02*
X94506904Y-92740476D01*
X94602142Y-92788095D01*
X94649761Y-92835714D01*
X94697380Y-92930952D01*
X94697380Y-93121428D01*
X94649761Y-93216666D01*
X94602142Y-93264285D01*
X94506904Y-93311904D01*
X93697380Y-93311904D01*
X93649761Y-94502380D02*
X94935476Y-93645238D01*
X94173571Y-94835714D02*
X94173571Y-95169047D01*
X94697380Y-95311904D02*
X94697380Y-94835714D01*
X93697380Y-94835714D01*
X93697380Y-95311904D01*
X94030714Y-95740476D02*
X94697380Y-95740476D01*
X94125952Y-95740476D02*
X94078333Y-95788095D01*
X94030714Y-95883333D01*
X94030714Y-96026190D01*
X94078333Y-96121428D01*
X94173571Y-96169047D01*
X94697380Y-96169047D01*
X94649761Y-97073809D02*
X94697380Y-96978571D01*
X94697380Y-96788095D01*
X94649761Y-96692857D01*
X94602142Y-96645238D01*
X94506904Y-96597619D01*
X94221190Y-96597619D01*
X94125952Y-96645238D01*
X94078333Y-96692857D01*
X94030714Y-96788095D01*
X94030714Y-96978571D01*
X94078333Y-97073809D01*
X94697380Y-97645238D02*
X94649761Y-97549999D01*
X94602142Y-97502380D01*
X94506904Y-97454761D01*
X94221190Y-97454761D01*
X94125952Y-97502380D01*
X94078333Y-97549999D01*
X94030714Y-97645238D01*
X94030714Y-97788095D01*
X94078333Y-97883333D01*
X94125952Y-97930952D01*
X94221190Y-97978571D01*
X94506904Y-97978571D01*
X94602142Y-97930952D01*
X94649761Y-97883333D01*
X94697380Y-97788095D01*
X94697380Y-97645238D01*
X94697380Y-98835714D02*
X93697380Y-98835714D01*
X94649761Y-98835714D02*
X94697380Y-98740476D01*
X94697380Y-98549999D01*
X94649761Y-98454761D01*
X94602142Y-98407142D01*
X94506904Y-98359523D01*
X94221190Y-98359523D01*
X94125952Y-98407142D01*
X94078333Y-98454761D01*
X94030714Y-98549999D01*
X94030714Y-98740476D01*
X94078333Y-98835714D01*
X94649761Y-99692857D02*
X94697380Y-99597619D01*
X94697380Y-99407142D01*
X94649761Y-99311904D01*
X94554523Y-99264285D01*
X94173571Y-99264285D01*
X94078333Y-99311904D01*
X94030714Y-99407142D01*
X94030714Y-99597619D01*
X94078333Y-99692857D01*
X94173571Y-99740476D01*
X94268809Y-99740476D01*
X94364047Y-99264285D01*
X94697380Y-100169047D02*
X94030714Y-100169047D01*
X94221190Y-100169047D02*
X94125952Y-100216666D01*
X94078333Y-100264285D01*
X94030714Y-100359523D01*
X94030714Y-100454761D01*
X94697380Y-101549999D02*
X93697380Y-101549999D01*
X93697380Y-101930952D01*
X93745000Y-102026190D01*
X93792619Y-102073809D01*
X93887857Y-102121428D01*
X94030714Y-102121428D01*
X94125952Y-102073809D01*
X94173571Y-102026190D01*
X94221190Y-101930952D01*
X94221190Y-101549999D01*
X94697380Y-102549999D02*
X94030714Y-102549999D01*
X93697380Y-102549999D02*
X93745000Y-102502380D01*
X93792619Y-102549999D01*
X93745000Y-102597619D01*
X93697380Y-102549999D01*
X93792619Y-102549999D01*
X94697380Y-103788095D02*
X93697380Y-103788095D01*
X94173571Y-103788095D02*
X94173571Y-104359523D01*
X94697380Y-104359523D02*
X93697380Y-104359523D01*
X94697380Y-105264285D02*
X94173571Y-105264285D01*
X94078333Y-105216666D01*
X94030714Y-105121428D01*
X94030714Y-104930952D01*
X94078333Y-104835714D01*
X94649761Y-105264285D02*
X94697380Y-105169047D01*
X94697380Y-104930952D01*
X94649761Y-104835714D01*
X94554523Y-104788095D01*
X94459285Y-104788095D01*
X94364047Y-104835714D01*
X94316428Y-104930952D01*
X94316428Y-105169047D01*
X94268809Y-105264285D01*
X94030714Y-105597619D02*
X94030714Y-105978571D01*
X93697380Y-105740476D02*
X94554523Y-105740476D01*
X94649761Y-105788095D01*
X94697380Y-105883333D01*
X94697380Y-105978571D01*
X95307380Y-91716666D02*
X96307380Y-92050000D01*
X95307380Y-92383333D01*
X95307380Y-92907142D02*
X95307380Y-93002380D01*
X95355000Y-93097619D01*
X95402619Y-93145238D01*
X95497857Y-93192857D01*
X95688333Y-93240476D01*
X95926428Y-93240476D01*
X96116904Y-93192857D01*
X96212142Y-93145238D01*
X96259761Y-93097619D01*
X96307380Y-93002380D01*
X96307380Y-92907142D01*
X96259761Y-92811904D01*
X96212142Y-92764285D01*
X96116904Y-92716666D01*
X95926428Y-92669047D01*
X95688333Y-92669047D01*
X95497857Y-92716666D01*
X95402619Y-92764285D01*
X95355000Y-92811904D01*
X95307380Y-92907142D01*
X96212142Y-93669047D02*
X96259761Y-93716666D01*
X96307380Y-93669047D01*
X96259761Y-93621428D01*
X96212142Y-93669047D01*
X96307380Y-93669047D01*
X96307380Y-94669047D02*
X96307380Y-94097619D01*
X96307380Y-94383333D02*
X95307380Y-94383333D01*
X95450238Y-94288095D01*
X95545476Y-94192857D01*
X95593095Y-94097619D01*
X95402619Y-95811904D02*
X95355000Y-95859523D01*
X95307380Y-95954761D01*
X95307380Y-96192857D01*
X95355000Y-96288095D01*
X95402619Y-96335714D01*
X95497857Y-96383333D01*
X95593095Y-96383333D01*
X95735952Y-96335714D01*
X96307380Y-95764285D01*
X96307380Y-96383333D01*
X95259761Y-97526190D02*
X96545476Y-96669047D01*
X95307380Y-98335714D02*
X95307380Y-97859523D01*
X95783571Y-97811904D01*
X95735952Y-97859523D01*
X95688333Y-97954761D01*
X95688333Y-98192857D01*
X95735952Y-98288095D01*
X95783571Y-98335714D01*
X95878809Y-98383333D01*
X96116904Y-98383333D01*
X96212142Y-98335714D01*
X96259761Y-98288095D01*
X96307380Y-98192857D01*
X96307380Y-97954761D01*
X96259761Y-97859523D01*
X96212142Y-97811904D01*
X95259761Y-99526190D02*
X96545476Y-98669047D01*
X95402619Y-99811904D02*
X95355000Y-99859523D01*
X95307380Y-99954761D01*
X95307380Y-100192857D01*
X95355000Y-100288095D01*
X95402619Y-100335714D01*
X95497857Y-100383333D01*
X95593095Y-100383333D01*
X95735952Y-100335714D01*
X96307380Y-99764285D01*
X96307380Y-100383333D01*
X95640714Y-101240476D02*
X96307380Y-101240476D01*
X95259761Y-101002380D02*
X95974047Y-100764285D01*
X95974047Y-101383333D01*
%TO.C,J3*%
X116333333Y-86822380D02*
X116333333Y-87536666D01*
X116380952Y-87679523D01*
X116476190Y-87774761D01*
X116619047Y-87822380D01*
X116714285Y-87822380D01*
X115952380Y-86822380D02*
X115333333Y-86822380D01*
X115666666Y-87203333D01*
X115523809Y-87203333D01*
X115428571Y-87250952D01*
X115380952Y-87298571D01*
X115333333Y-87393809D01*
X115333333Y-87631904D01*
X115380952Y-87727142D01*
X115428571Y-87774761D01*
X115523809Y-87822380D01*
X115809523Y-87822380D01*
X115904761Y-87774761D01*
X115952380Y-87727142D01*
%TO.C,J2*%
X117883333Y-84682380D02*
X117883333Y-85396666D01*
X117930952Y-85539523D01*
X118026190Y-85634761D01*
X118169047Y-85682380D01*
X118264285Y-85682380D01*
X117454761Y-84777619D02*
X117407142Y-84730000D01*
X117311904Y-84682380D01*
X117073809Y-84682380D01*
X116978571Y-84730000D01*
X116930952Y-84777619D01*
X116883333Y-84872857D01*
X116883333Y-84968095D01*
X116930952Y-85110952D01*
X117502380Y-85682380D01*
X116883333Y-85682380D01*
%TO.C,G\u002A\u002A\u002A*%
G36*
X104679001Y-80570124D02*
G01*
X104856866Y-80660449D01*
X105076960Y-80802896D01*
X105294840Y-80968622D01*
X105466065Y-81128783D01*
X105562702Y-81243533D01*
X105891377Y-81753322D01*
X106183640Y-82393964D01*
X106429516Y-83136659D01*
X106619029Y-83952604D01*
X106742202Y-84813000D01*
X106787137Y-85378301D01*
X106824158Y-86429323D01*
X106812444Y-87557014D01*
X106751861Y-88707667D01*
X106703212Y-89286577D01*
X106562426Y-90572804D01*
X106372241Y-91959539D01*
X106139561Y-93407816D01*
X105871288Y-94878667D01*
X105574327Y-96333126D01*
X105255579Y-97732226D01*
X104921949Y-99037000D01*
X104890958Y-99151265D01*
X104774223Y-99587406D01*
X104648866Y-100063010D01*
X104522321Y-100549057D01*
X104402023Y-101016529D01*
X104295407Y-101436407D01*
X104209907Y-101779670D01*
X104152959Y-102017300D01*
X104131998Y-102120278D01*
X104131472Y-102124561D01*
X104082657Y-102106880D01*
X104078470Y-102089816D01*
X104090829Y-101942307D01*
X104134286Y-101671926D01*
X104203508Y-101309602D01*
X104293159Y-100886269D01*
X104365525Y-100558243D01*
X104764191Y-98717034D01*
X105116608Y-97024130D01*
X105424483Y-95467557D01*
X105689528Y-94035340D01*
X105913450Y-92715502D01*
X106097962Y-91496068D01*
X106244771Y-90365063D01*
X106355588Y-89310512D01*
X106432123Y-88320438D01*
X106476085Y-87382868D01*
X106489184Y-86485825D01*
X106473130Y-85617334D01*
X106472123Y-85588987D01*
X106414495Y-84587880D01*
X106315940Y-83730566D01*
X106171203Y-82995831D01*
X105975028Y-82362463D01*
X105722161Y-81809245D01*
X105407346Y-81314966D01*
X105311449Y-81195550D01*
X105071383Y-80950843D01*
X104842845Y-80775304D01*
X104773681Y-80732592D01*
X104627398Y-80623164D01*
X104588931Y-80559513D01*
X104679001Y-80570124D01*
G37*
D12*
X104679001Y-80570124D02*
X104856866Y-80660449D01*
X105076960Y-80802896D01*
X105294840Y-80968622D01*
X105466065Y-81128783D01*
X105562702Y-81243533D01*
X105891377Y-81753322D01*
X106183640Y-82393964D01*
X106429516Y-83136659D01*
X106619029Y-83952604D01*
X106742202Y-84813000D01*
X106787137Y-85378301D01*
X106824158Y-86429323D01*
X106812444Y-87557014D01*
X106751861Y-88707667D01*
X106703212Y-89286577D01*
X106562426Y-90572804D01*
X106372241Y-91959539D01*
X106139561Y-93407816D01*
X105871288Y-94878667D01*
X105574327Y-96333126D01*
X105255579Y-97732226D01*
X104921949Y-99037000D01*
X104890958Y-99151265D01*
X104774223Y-99587406D01*
X104648866Y-100063010D01*
X104522321Y-100549057D01*
X104402023Y-101016529D01*
X104295407Y-101436407D01*
X104209907Y-101779670D01*
X104152959Y-102017300D01*
X104131998Y-102120278D01*
X104131472Y-102124561D01*
X104082657Y-102106880D01*
X104078470Y-102089816D01*
X104090829Y-101942307D01*
X104134286Y-101671926D01*
X104203508Y-101309602D01*
X104293159Y-100886269D01*
X104365525Y-100558243D01*
X104764191Y-98717034D01*
X105116608Y-97024130D01*
X105424483Y-95467557D01*
X105689528Y-94035340D01*
X105913450Y-92715502D01*
X106097962Y-91496068D01*
X106244771Y-90365063D01*
X106355588Y-89310512D01*
X106432123Y-88320438D01*
X106476085Y-87382868D01*
X106489184Y-86485825D01*
X106473130Y-85617334D01*
X106472123Y-85588987D01*
X106414495Y-84587880D01*
X106315940Y-83730566D01*
X106171203Y-82995831D01*
X105975028Y-82362463D01*
X105722161Y-81809245D01*
X105407346Y-81314966D01*
X105311449Y-81195550D01*
X105071383Y-80950843D01*
X104842845Y-80775304D01*
X104773681Y-80732592D01*
X104627398Y-80623164D01*
X104588931Y-80559513D01*
X104679001Y-80570124D01*
G36*
X102997831Y-81255093D02*
G01*
X103484414Y-81473198D01*
X103927960Y-81826413D01*
X104269119Y-82273497D01*
X104475497Y-82781000D01*
X104489595Y-82893648D01*
X104505926Y-83164872D01*
X104520484Y-83558302D01*
X104532518Y-84047974D01*
X104541274Y-84607924D01*
X104546000Y-85212188D01*
X104546904Y-85451336D01*
X104548198Y-86063463D01*
X104546294Y-86532974D01*
X104539822Y-86879903D01*
X104527408Y-87124284D01*
X104507681Y-87286152D01*
X104479268Y-87385541D01*
X104440798Y-87442486D01*
X104390899Y-87477021D01*
X104261636Y-87533986D01*
X104018426Y-87544293D01*
X103792666Y-87395334D01*
X103743571Y-87339341D01*
X103701415Y-87261275D01*
X103670434Y-87145155D01*
X103648919Y-86969101D01*
X103635161Y-86711235D01*
X103627450Y-86349676D01*
X103624077Y-85862545D01*
X103623333Y-85227962D01*
X103622714Y-84806969D01*
X103616776Y-84188467D01*
X103600794Y-83705316D01*
X103570254Y-83335880D01*
X103520644Y-83058522D01*
X103447450Y-82851607D01*
X103346161Y-82693500D01*
X103212264Y-82562564D01*
X103041245Y-82437163D01*
X102961348Y-82384262D01*
X102778106Y-82274404D01*
X102676233Y-82230667D01*
X102675537Y-82230813D01*
X102658538Y-82318421D01*
X102641546Y-82552654D01*
X102625381Y-82911712D01*
X102610863Y-83373797D01*
X102598814Y-83917109D01*
X102590053Y-84519850D01*
X102586517Y-84842080D01*
X102578232Y-85482109D01*
X102566942Y-85978803D01*
X102548972Y-86350358D01*
X102520648Y-86614968D01*
X102478295Y-86790830D01*
X102418238Y-86896139D01*
X102336803Y-86949091D01*
X102230315Y-86967880D01*
X102095100Y-86970704D01*
X102089752Y-86970732D01*
X101969103Y-86965836D01*
X101874520Y-86937704D01*
X101802832Y-86868075D01*
X101750870Y-86738686D01*
X101715464Y-86531276D01*
X101693444Y-86227582D01*
X101681639Y-85809342D01*
X101676881Y-85258295D01*
X101676000Y-84556178D01*
X101674273Y-84004406D01*
X101668851Y-83460076D01*
X101660275Y-82993431D01*
X101649100Y-82627383D01*
X101635878Y-82384842D01*
X101621164Y-82288720D01*
X101613433Y-82282158D01*
X101485533Y-82281499D01*
X101294470Y-82378358D01*
X101080480Y-82542362D01*
X100883802Y-82743139D01*
X100744674Y-82950318D01*
X100715777Y-83012711D01*
X100667873Y-83141150D01*
X100632206Y-83293559D01*
X100607001Y-83494164D01*
X100590486Y-83767191D01*
X100580885Y-84136867D01*
X100576425Y-84627416D01*
X100575333Y-85263065D01*
X100574846Y-85791964D01*
X100571971Y-86297533D01*
X100564940Y-86674086D01*
X100551998Y-86943728D01*
X100531388Y-87128568D01*
X100501356Y-87250710D01*
X100460145Y-87332263D01*
X100406000Y-87395334D01*
X100241927Y-87514979D01*
X99999363Y-87552940D01*
X99777047Y-87431619D01*
X99751203Y-87383734D01*
X99707191Y-87175386D01*
X99672927Y-86839551D01*
X99648333Y-86403880D01*
X99633331Y-85896023D01*
X99627845Y-85343634D01*
X99631798Y-84774362D01*
X99645111Y-84215858D01*
X99667707Y-83695775D01*
X99699510Y-83241762D01*
X99740443Y-82881472D01*
X99790427Y-82642556D01*
X99901363Y-82371426D01*
X100215558Y-81917253D01*
X100643226Y-81556173D01*
X101159828Y-81298802D01*
X101740823Y-81155754D01*
X102361671Y-81137645D01*
X102997831Y-81255093D01*
G37*
X102997831Y-81255093D02*
X103484414Y-81473198D01*
X103927960Y-81826413D01*
X104269119Y-82273497D01*
X104475497Y-82781000D01*
X104489595Y-82893648D01*
X104505926Y-83164872D01*
X104520484Y-83558302D01*
X104532518Y-84047974D01*
X104541274Y-84607924D01*
X104546000Y-85212188D01*
X104546904Y-85451336D01*
X104548198Y-86063463D01*
X104546294Y-86532974D01*
X104539822Y-86879903D01*
X104527408Y-87124284D01*
X104507681Y-87286152D01*
X104479268Y-87385541D01*
X104440798Y-87442486D01*
X104390899Y-87477021D01*
X104261636Y-87533986D01*
X104018426Y-87544293D01*
X103792666Y-87395334D01*
X103743571Y-87339341D01*
X103701415Y-87261275D01*
X103670434Y-87145155D01*
X103648919Y-86969101D01*
X103635161Y-86711235D01*
X103627450Y-86349676D01*
X103624077Y-85862545D01*
X103623333Y-85227962D01*
X103622714Y-84806969D01*
X103616776Y-84188467D01*
X103600794Y-83705316D01*
X103570254Y-83335880D01*
X103520644Y-83058522D01*
X103447450Y-82851607D01*
X103346161Y-82693500D01*
X103212264Y-82562564D01*
X103041245Y-82437163D01*
X102961348Y-82384262D01*
X102778106Y-82274404D01*
X102676233Y-82230667D01*
X102675537Y-82230813D01*
X102658538Y-82318421D01*
X102641546Y-82552654D01*
X102625381Y-82911712D01*
X102610863Y-83373797D01*
X102598814Y-83917109D01*
X102590053Y-84519850D01*
X102586517Y-84842080D01*
X102578232Y-85482109D01*
X102566942Y-85978803D01*
X102548972Y-86350358D01*
X102520648Y-86614968D01*
X102478295Y-86790830D01*
X102418238Y-86896139D01*
X102336803Y-86949091D01*
X102230315Y-86967880D01*
X102095100Y-86970704D01*
X102089752Y-86970732D01*
X101969103Y-86965836D01*
X101874520Y-86937704D01*
X101802832Y-86868075D01*
X101750870Y-86738686D01*
X101715464Y-86531276D01*
X101693444Y-86227582D01*
X101681639Y-85809342D01*
X101676881Y-85258295D01*
X101676000Y-84556178D01*
X101674273Y-84004406D01*
X101668851Y-83460076D01*
X101660275Y-82993431D01*
X101649100Y-82627383D01*
X101635878Y-82384842D01*
X101621164Y-82288720D01*
X101613433Y-82282158D01*
X101485533Y-82281499D01*
X101294470Y-82378358D01*
X101080480Y-82542362D01*
X100883802Y-82743139D01*
X100744674Y-82950318D01*
X100715777Y-83012711D01*
X100667873Y-83141150D01*
X100632206Y-83293559D01*
X100607001Y-83494164D01*
X100590486Y-83767191D01*
X100580885Y-84136867D01*
X100576425Y-84627416D01*
X100575333Y-85263065D01*
X100574846Y-85791964D01*
X100571971Y-86297533D01*
X100564940Y-86674086D01*
X100551998Y-86943728D01*
X100531388Y-87128568D01*
X100501356Y-87250710D01*
X100460145Y-87332263D01*
X100406000Y-87395334D01*
X100241927Y-87514979D01*
X99999363Y-87552940D01*
X99777047Y-87431619D01*
X99751203Y-87383734D01*
X99707191Y-87175386D01*
X99672927Y-86839551D01*
X99648333Y-86403880D01*
X99633331Y-85896023D01*
X99627845Y-85343634D01*
X99631798Y-84774362D01*
X99645111Y-84215858D01*
X99667707Y-83695775D01*
X99699510Y-83241762D01*
X99740443Y-82881472D01*
X99790427Y-82642556D01*
X99901363Y-82371426D01*
X100215558Y-81917253D01*
X100643226Y-81556173D01*
X101159828Y-81298802D01*
X101740823Y-81155754D01*
X102361671Y-81137645D01*
X102997831Y-81255093D01*
G36*
X100575333Y-93583697D02*
G01*
X100783151Y-93791515D01*
X100971979Y-93930241D01*
X101294999Y-93999334D01*
X101532198Y-93965086D01*
X101806848Y-93791515D01*
X102014666Y-93583697D01*
X102014666Y-91502796D01*
X102015289Y-91066123D01*
X102020788Y-90435449D01*
X102034990Y-89941240D01*
X102061504Y-89562714D01*
X102103935Y-89279087D01*
X102165892Y-89069578D01*
X102250982Y-88913402D01*
X102362812Y-88789777D01*
X102504990Y-88677920D01*
X102558792Y-88641548D01*
X102709448Y-88566739D01*
X102899056Y-88522492D01*
X103171007Y-88501386D01*
X103568696Y-88496000D01*
X103730994Y-88496557D01*
X104064585Y-88505330D01*
X104275316Y-88529128D01*
X104396942Y-88573544D01*
X104463218Y-88644167D01*
X104515331Y-88775953D01*
X104550795Y-89004000D01*
X104541286Y-89167424D01*
X104480381Y-89322546D01*
X104337645Y-89420219D01*
X104083944Y-89477638D01*
X103690145Y-89512000D01*
X102988333Y-89554334D01*
X102946000Y-91798000D01*
X102940240Y-92103298D01*
X102926838Y-92741508D01*
X102910777Y-93241607D01*
X102887492Y-93625735D01*
X102852417Y-93916035D01*
X102800987Y-94134648D01*
X102728637Y-94303717D01*
X102630801Y-94445382D01*
X102502914Y-94581787D01*
X102340410Y-94735072D01*
X102160157Y-94863189D01*
X101780358Y-95003362D01*
X101339240Y-95056582D01*
X100891208Y-95018453D01*
X100490666Y-94884577D01*
X100465026Y-94871013D01*
X100152426Y-94635686D01*
X99887559Y-94321185D01*
X99726999Y-93993519D01*
X99710498Y-93899686D01*
X99688704Y-93637807D01*
X99671269Y-93256732D01*
X99658171Y-92782685D01*
X99649386Y-92241892D01*
X99644891Y-91660580D01*
X99644664Y-91064973D01*
X99648682Y-90481297D01*
X99656922Y-89935776D01*
X99669361Y-89454638D01*
X99685977Y-89064107D01*
X99706746Y-88790408D01*
X99731645Y-88659767D01*
X99779930Y-88593095D01*
X99930272Y-88517431D01*
X100197312Y-88496000D01*
X100575333Y-88496000D01*
X100575333Y-93583697D01*
G37*
X100575333Y-93583697D02*
X100783151Y-93791515D01*
X100971979Y-93930241D01*
X101294999Y-93999334D01*
X101532198Y-93965086D01*
X101806848Y-93791515D01*
X102014666Y-93583697D01*
X102014666Y-91502796D01*
X102015289Y-91066123D01*
X102020788Y-90435449D01*
X102034990Y-89941240D01*
X102061504Y-89562714D01*
X102103935Y-89279087D01*
X102165892Y-89069578D01*
X102250982Y-88913402D01*
X102362812Y-88789777D01*
X102504990Y-88677920D01*
X102558792Y-88641548D01*
X102709448Y-88566739D01*
X102899056Y-88522492D01*
X103171007Y-88501386D01*
X103568696Y-88496000D01*
X103730994Y-88496557D01*
X104064585Y-88505330D01*
X104275316Y-88529128D01*
X104396942Y-88573544D01*
X104463218Y-88644167D01*
X104515331Y-88775953D01*
X104550795Y-89004000D01*
X104541286Y-89167424D01*
X104480381Y-89322546D01*
X104337645Y-89420219D01*
X104083944Y-89477638D01*
X103690145Y-89512000D01*
X102988333Y-89554334D01*
X102946000Y-91798000D01*
X102940240Y-92103298D01*
X102926838Y-92741508D01*
X102910777Y-93241607D01*
X102887492Y-93625735D01*
X102852417Y-93916035D01*
X102800987Y-94134648D01*
X102728637Y-94303717D01*
X102630801Y-94445382D01*
X102502914Y-94581787D01*
X102340410Y-94735072D01*
X102160157Y-94863189D01*
X101780358Y-95003362D01*
X101339240Y-95056582D01*
X100891208Y-95018453D01*
X100490666Y-94884577D01*
X100465026Y-94871013D01*
X100152426Y-94635686D01*
X99887559Y-94321185D01*
X99726999Y-93993519D01*
X99710498Y-93899686D01*
X99688704Y-93637807D01*
X99671269Y-93256732D01*
X99658171Y-92782685D01*
X99649386Y-92241892D01*
X99644891Y-91660580D01*
X99644664Y-91064973D01*
X99648682Y-90481297D01*
X99656922Y-89935776D01*
X99669361Y-89454638D01*
X99685977Y-89064107D01*
X99706746Y-88790408D01*
X99731645Y-88659767D01*
X99779930Y-88593095D01*
X99930272Y-88517431D01*
X100197312Y-88496000D01*
X100575333Y-88496000D01*
X100575333Y-93583697D01*
G36*
X103701976Y-95904841D02*
G01*
X104025072Y-95913839D01*
X104229827Y-95939491D01*
X104353746Y-95988779D01*
X104434330Y-96068682D01*
X104509044Y-96219599D01*
X104554666Y-96457727D01*
X104553483Y-96502184D01*
X104495430Y-96713592D01*
X104334766Y-96855785D01*
X104050387Y-96940568D01*
X103621189Y-96979740D01*
X102988333Y-97005000D01*
X102946000Y-99206334D01*
X102942721Y-99375278D01*
X102929272Y-100012061D01*
X102915613Y-100507136D01*
X102899722Y-100882946D01*
X102879577Y-101161935D01*
X102853154Y-101366549D01*
X102818432Y-101519230D01*
X102773387Y-101642425D01*
X102715998Y-101758577D01*
X102556801Y-101993883D01*
X102210294Y-102273130D01*
X101753741Y-102425106D01*
X101185464Y-102450569D01*
X100797981Y-102401767D01*
X100367963Y-102249571D01*
X100047353Y-101987783D01*
X99815498Y-101603638D01*
X99782554Y-101523759D01*
X99739818Y-101396196D01*
X99706858Y-101247202D01*
X99682415Y-101055648D01*
X99665235Y-100800406D01*
X99654059Y-100460348D01*
X99647633Y-100014344D01*
X99644698Y-99441266D01*
X99644000Y-98719987D01*
X99644465Y-97997718D01*
X99648118Y-97382622D01*
X99658363Y-96903482D01*
X99678605Y-96543144D01*
X99712248Y-96284453D01*
X99762698Y-96110255D01*
X99833358Y-96003396D01*
X99927634Y-95946722D01*
X100048929Y-95923077D01*
X100200650Y-95915308D01*
X100533000Y-95904334D01*
X100575333Y-98486667D01*
X100579859Y-98744553D01*
X100593500Y-99373623D01*
X100609434Y-99941069D01*
X100626822Y-100425350D01*
X100644829Y-100804926D01*
X100662617Y-101058259D01*
X100679350Y-101163809D01*
X100746591Y-101233675D01*
X100964223Y-101349671D01*
X101230200Y-101418644D01*
X101464843Y-101415104D01*
X101638496Y-101343270D01*
X101847486Y-101193847D01*
X101852033Y-101189264D01*
X101902975Y-101127722D01*
X101942032Y-101045624D01*
X101970776Y-100921717D01*
X101990778Y-100734747D01*
X102003609Y-100463461D01*
X102010842Y-100086604D01*
X102014048Y-99582924D01*
X102014798Y-98931167D01*
X102015655Y-98427827D01*
X102021784Y-97815289D01*
X102037270Y-97336386D01*
X102066100Y-96969874D01*
X102112261Y-96694510D01*
X102179740Y-96489052D01*
X102272523Y-96332257D01*
X102394597Y-96202883D01*
X102549949Y-96079685D01*
X102564927Y-96068871D01*
X102713215Y-95985240D01*
X102897503Y-95935116D01*
X103162133Y-95910735D01*
X103551446Y-95904334D01*
X103701976Y-95904841D01*
G37*
X103701976Y-95904841D02*
X104025072Y-95913839D01*
X104229827Y-95939491D01*
X104353746Y-95988779D01*
X104434330Y-96068682D01*
X104509044Y-96219599D01*
X104554666Y-96457727D01*
X104553483Y-96502184D01*
X104495430Y-96713592D01*
X104334766Y-96855785D01*
X104050387Y-96940568D01*
X103621189Y-96979740D01*
X102988333Y-97005000D01*
X102946000Y-99206334D01*
X102942721Y-99375278D01*
X102929272Y-100012061D01*
X102915613Y-100507136D01*
X102899722Y-100882946D01*
X102879577Y-101161935D01*
X102853154Y-101366549D01*
X102818432Y-101519230D01*
X102773387Y-101642425D01*
X102715998Y-101758577D01*
X102556801Y-101993883D01*
X102210294Y-102273130D01*
X101753741Y-102425106D01*
X101185464Y-102450569D01*
X100797981Y-102401767D01*
X100367963Y-102249571D01*
X100047353Y-101987783D01*
X99815498Y-101603638D01*
X99782554Y-101523759D01*
X99739818Y-101396196D01*
X99706858Y-101247202D01*
X99682415Y-101055648D01*
X99665235Y-100800406D01*
X99654059Y-100460348D01*
X99647633Y-100014344D01*
X99644698Y-99441266D01*
X99644000Y-98719987D01*
X99644465Y-97997718D01*
X99648118Y-97382622D01*
X99658363Y-96903482D01*
X99678605Y-96543144D01*
X99712248Y-96284453D01*
X99762698Y-96110255D01*
X99833358Y-96003396D01*
X99927634Y-95946722D01*
X100048929Y-95923077D01*
X100200650Y-95915308D01*
X100533000Y-95904334D01*
X100575333Y-98486667D01*
X100579859Y-98744553D01*
X100593500Y-99373623D01*
X100609434Y-99941069D01*
X100626822Y-100425350D01*
X100644829Y-100804926D01*
X100662617Y-101058259D01*
X100679350Y-101163809D01*
X100746591Y-101233675D01*
X100964223Y-101349671D01*
X101230200Y-101418644D01*
X101464843Y-101415104D01*
X101638496Y-101343270D01*
X101847486Y-101193847D01*
X101852033Y-101189264D01*
X101902975Y-101127722D01*
X101942032Y-101045624D01*
X101970776Y-100921717D01*
X101990778Y-100734747D01*
X102003609Y-100463461D01*
X102010842Y-100086604D01*
X102014048Y-99582924D01*
X102014798Y-98931167D01*
X102015655Y-98427827D01*
X102021784Y-97815289D01*
X102037270Y-97336386D01*
X102066100Y-96969874D01*
X102112261Y-96694510D01*
X102179740Y-96489052D01*
X102272523Y-96332257D01*
X102394597Y-96202883D01*
X102549949Y-96079685D01*
X102564927Y-96068871D01*
X102713215Y-95985240D01*
X102897503Y-95935116D01*
X103162133Y-95910735D01*
X103551446Y-95904334D01*
X103701976Y-95904841D01*
G36*
X104462130Y-104731539D02*
G01*
X104494023Y-104900167D01*
X104498786Y-104947537D01*
X104509593Y-105164124D01*
X104519941Y-105509796D01*
X104529204Y-105956643D01*
X104536759Y-106476758D01*
X104541980Y-107042234D01*
X104543754Y-107329180D01*
X104544886Y-107916652D01*
X104538355Y-108362380D01*
X104520250Y-108685908D01*
X104486659Y-108906784D01*
X104433671Y-109044551D01*
X104357373Y-109118757D01*
X104253853Y-109148947D01*
X104119200Y-109154667D01*
X104007138Y-109148790D01*
X103877288Y-109110420D01*
X103780229Y-109019307D01*
X103711291Y-108856031D01*
X103665803Y-108601171D01*
X103639095Y-108235306D01*
X103626495Y-107739017D01*
X103623333Y-107092881D01*
X103623333Y-105407440D01*
X104020708Y-105037387D01*
X104215353Y-104858500D01*
X104371142Y-104720256D01*
X104438418Y-104667334D01*
X104462130Y-104731539D01*
G37*
X104462130Y-104731539D02*
X104494023Y-104900167D01*
X104498786Y-104947537D01*
X104509593Y-105164124D01*
X104519941Y-105509796D01*
X104529204Y-105956643D01*
X104536759Y-106476758D01*
X104541980Y-107042234D01*
X104543754Y-107329180D01*
X104544886Y-107916652D01*
X104538355Y-108362380D01*
X104520250Y-108685908D01*
X104486659Y-108906784D01*
X104433671Y-109044551D01*
X104357373Y-109118757D01*
X104253853Y-109148947D01*
X104119200Y-109154667D01*
X104007138Y-109148790D01*
X103877288Y-109110420D01*
X103780229Y-109019307D01*
X103711291Y-108856031D01*
X103665803Y-108601171D01*
X103639095Y-108235306D01*
X103626495Y-107739017D01*
X103623333Y-107092881D01*
X103623333Y-105407440D01*
X104020708Y-105037387D01*
X104215353Y-104858500D01*
X104371142Y-104720256D01*
X104438418Y-104667334D01*
X104462130Y-104731539D01*
G36*
X103025056Y-103778334D02*
G01*
X103025403Y-103788415D01*
X103064113Y-104042228D01*
X103178379Y-104171715D01*
X103401559Y-104215618D01*
X103586207Y-104254051D01*
X103715367Y-104340587D01*
X103777732Y-104382023D01*
X103897178Y-104329487D01*
X104095045Y-104158355D01*
X104230843Y-104030720D01*
X104340141Y-103942587D01*
X104369122Y-103959913D01*
X104341432Y-104074667D01*
X104275558Y-104281909D01*
X104167014Y-104535563D01*
X104026748Y-104724902D01*
X103814621Y-104913871D01*
X103737028Y-104981995D01*
X103517523Y-105236754D01*
X103375673Y-105493541D01*
X103358600Y-105540104D01*
X103254809Y-105775536D01*
X103156906Y-105937334D01*
X103099006Y-106019589D01*
X102973781Y-106231334D01*
X102835256Y-106492985D01*
X102741876Y-106667241D01*
X102598545Y-106896820D01*
X102486938Y-107032519D01*
X102485721Y-107033521D01*
X102395510Y-107050404D01*
X102352151Y-106930672D01*
X102353569Y-106699545D01*
X102397687Y-106382244D01*
X102482428Y-106003989D01*
X102605715Y-105590001D01*
X102666110Y-105404514D01*
X102772685Y-105019236D01*
X102817510Y-104724699D01*
X102808706Y-104476345D01*
X102796617Y-104234925D01*
X102888084Y-103820167D01*
X103016853Y-103524334D01*
X103025056Y-103778334D01*
G37*
X103025056Y-103778334D02*
X103025403Y-103788415D01*
X103064113Y-104042228D01*
X103178379Y-104171715D01*
X103401559Y-104215618D01*
X103586207Y-104254051D01*
X103715367Y-104340587D01*
X103777732Y-104382023D01*
X103897178Y-104329487D01*
X104095045Y-104158355D01*
X104230843Y-104030720D01*
X104340141Y-103942587D01*
X104369122Y-103959913D01*
X104341432Y-104074667D01*
X104275558Y-104281909D01*
X104167014Y-104535563D01*
X104026748Y-104724902D01*
X103814621Y-104913871D01*
X103737028Y-104981995D01*
X103517523Y-105236754D01*
X103375673Y-105493541D01*
X103358600Y-105540104D01*
X103254809Y-105775536D01*
X103156906Y-105937334D01*
X103099006Y-106019589D01*
X102973781Y-106231334D01*
X102835256Y-106492985D01*
X102741876Y-106667241D01*
X102598545Y-106896820D01*
X102486938Y-107032519D01*
X102485721Y-107033521D01*
X102395510Y-107050404D01*
X102352151Y-106930672D01*
X102353569Y-106699545D01*
X102397687Y-106382244D01*
X102482428Y-106003989D01*
X102605715Y-105590001D01*
X102666110Y-105404514D01*
X102772685Y-105019236D01*
X102817510Y-104724699D01*
X102808706Y-104476345D01*
X102796617Y-104234925D01*
X102888084Y-103820167D01*
X103016853Y-103524334D01*
X103025056Y-103778334D01*
G36*
X104039982Y-102331945D02*
G01*
X104033995Y-102417819D01*
X103995513Y-102443070D01*
X103978736Y-102413116D01*
X103988829Y-102280792D01*
X104019305Y-102241602D01*
X104039982Y-102331945D01*
G37*
X104039982Y-102331945D02*
X104033995Y-102417819D01*
X103995513Y-102443070D01*
X103978736Y-102413116D01*
X103988829Y-102280792D01*
X104019305Y-102241602D01*
X104039982Y-102331945D01*
G36*
X103954752Y-102635334D02*
G01*
X103947533Y-102708592D01*
X103877333Y-102889334D01*
X103853284Y-102923579D01*
X103805824Y-102949787D01*
X103813841Y-102857171D01*
X103877333Y-102677667D01*
X103930578Y-102584703D01*
X103954752Y-102635334D01*
G37*
X103954752Y-102635334D02*
X103947533Y-102708592D01*
X103877333Y-102889334D01*
X103853284Y-102923579D01*
X103805824Y-102949787D01*
X103813841Y-102857171D01*
X103877333Y-102677667D01*
X103930578Y-102584703D01*
X103954752Y-102635334D01*
G36*
X101524653Y-103229073D02*
G01*
X101966342Y-103235617D01*
X102336093Y-103247112D01*
X102601444Y-103262410D01*
X102729931Y-103280360D01*
X102745713Y-103286866D01*
X102812545Y-103343939D01*
X102819955Y-103452989D01*
X102763427Y-103647625D01*
X102638447Y-103961459D01*
X102520394Y-104244000D01*
X101215244Y-104244000D01*
X100759465Y-104241588D01*
X100325534Y-104227900D01*
X100020601Y-104195613D01*
X99822324Y-104137504D01*
X99708360Y-104046347D01*
X99656366Y-103914921D01*
X99644000Y-103736000D01*
X99653589Y-103572528D01*
X99699626Y-103438129D01*
X99804296Y-103343841D01*
X99989722Y-103282675D01*
X100278031Y-103247640D01*
X100691345Y-103231745D01*
X101251789Y-103228000D01*
X101524653Y-103229073D01*
G37*
X101524653Y-103229073D02*
X101966342Y-103235617D01*
X102336093Y-103247112D01*
X102601444Y-103262410D01*
X102729931Y-103280360D01*
X102745713Y-103286866D01*
X102812545Y-103343939D01*
X102819955Y-103452989D01*
X102763427Y-103647625D01*
X102638447Y-103961459D01*
X102520394Y-104244000D01*
X101215244Y-104244000D01*
X100759465Y-104241588D01*
X100325534Y-104227900D01*
X100020601Y-104195613D01*
X99822324Y-104137504D01*
X99708360Y-104046347D01*
X99656366Y-103914921D01*
X99644000Y-103736000D01*
X99653589Y-103572528D01*
X99699626Y-103438129D01*
X99804296Y-103343841D01*
X99989722Y-103282675D01*
X100278031Y-103247640D01*
X100691345Y-103231745D01*
X101251789Y-103228000D01*
X101524653Y-103229073D01*
D13*
%TO.C,J3*%
X117330000Y-89700000D02*
X117330000Y-88370000D01*
X117330000Y-90970000D02*
X117330000Y-111350000D01*
X114670000Y-90970000D02*
X114670000Y-111350000D01*
X117330000Y-90970000D02*
X114670000Y-90970000D01*
X117330000Y-111350000D02*
X114670000Y-111350000D01*
X117330000Y-88370000D02*
X116000000Y-88370000D01*
%TO.C,J2*%
X118880000Y-81630000D02*
X118880000Y-73950000D01*
X116220000Y-82900000D02*
X116220000Y-84230000D01*
X116220000Y-73950000D02*
X118880000Y-73950000D01*
X116220000Y-81630000D02*
X118880000Y-81630000D01*
X116220000Y-84230000D02*
X117550000Y-84230000D01*
X116220000Y-81630000D02*
X116220000Y-73950000D01*
%TD*%
M02*
