%TF.GenerationSoftware,KiCad,Pcbnew,(6.0.5-0)*%
%TF.CreationDate,2024-02-05T18:51:56-05:00*%
%TF.ProjectId,CubeSat PCB,43756265-5361-4742-9050-43422e6b6963,rev?*%
%TF.SameCoordinates,Original*%
%TF.FileFunction,Copper,L2,Bot*%
%TF.FilePolarity,Positive*%
%FSLAX46Y46*%
G04 Gerber Fmt 4.6, Leading zero omitted, Abs format (unit mm)*
G04 Created by KiCad (PCBNEW (6.0.5-0)) date 2024-02-05 18:51:56*
%MOMM*%
%LPD*%
G01*
G04 APERTURE LIST*
%TA.AperFunction,ComponentPad*%
%ADD10O,1.200000X2.400000*%
%TD*%
%TA.AperFunction,ComponentPad*%
%ADD11C,3.716000*%
%TD*%
%TA.AperFunction,ComponentPad*%
%ADD12R,3.716000X3.716000*%
%TD*%
%TA.AperFunction,ComponentPad*%
%ADD13O,1.700000X1.700000*%
%TD*%
%TA.AperFunction,ComponentPad*%
%ADD14R,1.700000X1.700000*%
%TD*%
%TA.AperFunction,ComponentPad*%
%ADD15C,2.540000*%
%TD*%
%TA.AperFunction,ComponentPad*%
%ADD16R,2.540000X2.540000*%
%TD*%
G04 APERTURE END LIST*
D10*
%TO.P,J4,S2*%
%TO.N,N/C*%
X107500000Y-64600000D03*
%TO.P,J4,S1*%
X94000000Y-64600000D03*
D11*
%TO.P,J4,2,-*%
%TO.N,GND*%
X104350000Y-70600000D03*
D12*
%TO.P,J4,1,+*%
%TO.N,+BATT*%
X97150000Y-70600000D03*
%TD*%
D13*
%TO.P,J1,40,GPIO21/SCLK1*%
%TO.N,unconnected-(J1-Pad40)*%
X87880000Y-118880000D03*
%TO.P,J1,39,GND*%
%TO.N,GND*%
X90420000Y-118880000D03*
%TO.P,J1,38,GPIO20/MOSI1*%
%TO.N,unconnected-(J1-Pad38)*%
X87880000Y-116340000D03*
%TO.P,J1,37,GPIO26*%
%TO.N,unconnected-(J1-Pad37)*%
X90420000Y-116340000D03*
%TO.P,J1,36,GPIO16*%
%TO.N,unconnected-(J1-Pad36)*%
X87880000Y-113800000D03*
%TO.P,J1,35,GPIO19/MISO1*%
%TO.N,unconnected-(J1-Pad35)*%
X90420000Y-113800000D03*
%TO.P,J1,34,GND*%
%TO.N,GND*%
X87880000Y-111260000D03*
%TO.P,J1,33,PWM1/GPIO13*%
%TO.N,unconnected-(J1-Pad33)*%
X90420000Y-111260000D03*
%TO.P,J1,32,PWM0/GPIO12*%
%TO.N,unconnected-(J1-Pad32)*%
X87880000Y-108720000D03*
%TO.P,J1,31,GCLK2/GPIO6*%
%TO.N,unconnected-(J1-Pad31)*%
X90420000Y-108720000D03*
%TO.P,J1,30,GND*%
%TO.N,GND*%
X87880000Y-106180000D03*
%TO.P,J1,29,GCLK1/GPIO5*%
%TO.N,unconnected-(J1-Pad29)*%
X90420000Y-106180000D03*
%TO.P,J1,28,ID_SC/GPIO1*%
%TO.N,unconnected-(J1-Pad28)*%
X87880000Y-103640000D03*
%TO.P,J1,27,ID_SD/GPIO0*%
%TO.N,unconnected-(J1-Pad27)*%
X90420000Y-103640000D03*
%TO.P,J1,26,~{CE1}/GPIO7*%
%TO.N,unconnected-(J1-Pad26)*%
X87880000Y-101100000D03*
%TO.P,J1,25,GND*%
%TO.N,GND*%
X90420000Y-101100000D03*
%TO.P,J1,24,~{CE0}/GPIO8*%
%TO.N,unconnected-(J1-Pad24)*%
X87880000Y-98560000D03*
%TO.P,J1,23,SCLK0/GPIO11*%
%TO.N,unconnected-(J1-Pad23)*%
X90420000Y-98560000D03*
%TO.P,J1,22,GPIO25*%
%TO.N,unconnected-(J1-Pad22)*%
X87880000Y-96020000D03*
%TO.P,J1,21,MISO0/GPIO9*%
%TO.N,unconnected-(J1-Pad21)*%
X90420000Y-96020000D03*
%TO.P,J1,20,GND*%
%TO.N,GND*%
X87880000Y-93480000D03*
%TO.P,J1,19,MOSI0/GPIO10*%
%TO.N,unconnected-(J1-Pad19)*%
X90420000Y-93480000D03*
%TO.P,J1,18,GPIO24*%
%TO.N,unconnected-(J1-Pad18)*%
X87880000Y-90940000D03*
%TO.P,J1,17,3V3*%
%TO.N,unconnected-(J1-Pad17)*%
X90420000Y-90940000D03*
%TO.P,J1,16,GPIO23*%
%TO.N,unconnected-(J1-Pad16)*%
X87880000Y-88400000D03*
%TO.P,J1,15,GPIO22*%
%TO.N,unconnected-(J1-Pad15)*%
X90420000Y-88400000D03*
%TO.P,J1,14,GND*%
%TO.N,GND*%
X87880000Y-85860000D03*
%TO.P,J1,13,GPIO27*%
%TO.N,unconnected-(J1-Pad13)*%
X90420000Y-85860000D03*
%TO.P,J1,12,GPIO18/PWM0*%
%TO.N,unconnected-(J1-Pad12)*%
X87880000Y-83320000D03*
%TO.P,J1,11,GPIO17*%
%TO.N,unconnected-(J1-Pad11)*%
X90420000Y-83320000D03*
%TO.P,J1,10,GPIO15/RXD*%
%TO.N,unconnected-(J1-Pad10)*%
X87880000Y-80780000D03*
%TO.P,J1,9,GND*%
%TO.N,GND*%
X90420000Y-80780000D03*
%TO.P,J1,8,GPIO14/TXD*%
%TO.N,unconnected-(J1-Pad8)*%
X87880000Y-78240000D03*
%TO.P,J1,7,GCLK0/GPIO4*%
%TO.N,unconnected-(J1-Pad7)*%
X90420000Y-78240000D03*
%TO.P,J1,6,GND*%
%TO.N,GND*%
X87880000Y-75700000D03*
%TO.P,J1,5,SCL/GPIO3*%
%TO.N,/SCL*%
X90420000Y-75700000D03*
%TO.P,J1,4,5V*%
%TO.N,+5V*%
X87880000Y-73160000D03*
%TO.P,J1,3,SDA/GPIO2*%
%TO.N,/SDA*%
X90420000Y-73160000D03*
%TO.P,J1,2,5V*%
%TO.N,+5V*%
X87880000Y-70620000D03*
D14*
%TO.P,J1,1,3V3*%
%TO.N,unconnected-(J1-Pad1)*%
X90420000Y-70620000D03*
%TD*%
%TO.P,J3,1,Pin_1*%
%TO.N,+5V*%
X116000000Y-89700000D03*
D13*
%TO.P,J3,2,Pin_2*%
%TO.N,unconnected-(J3-Pad2)*%
X116000000Y-92240000D03*
%TO.P,J3,3,Pin_3*%
%TO.N,GND*%
X116000000Y-94780000D03*
%TO.P,J3,4,Pin_4*%
%TO.N,/SCL*%
X116000000Y-97320000D03*
%TO.P,J3,5,Pin_5*%
%TO.N,/SDA*%
X116000000Y-99860000D03*
%TO.P,J3,6,Pin_6*%
%TO.N,unconnected-(J3-Pad6)*%
X116000000Y-102400000D03*
%TO.P,J3,7,Pin_7*%
%TO.N,unconnected-(J3-Pad7)*%
X116000000Y-104940000D03*
%TO.P,J3,8,Pin_8*%
%TO.N,unconnected-(J3-Pad8)*%
X116000000Y-107480000D03*
%TO.P,J3,9,Pin_9*%
%TO.N,unconnected-(J3-Pad9)*%
X116000000Y-110020000D03*
%TD*%
D14*
%TO.P,J2,1,Pin_1*%
%TO.N,+5V*%
X117550000Y-82900000D03*
D13*
%TO.P,J2,2,Pin_2*%
%TO.N,/SDA*%
X117550000Y-80360000D03*
%TO.P,J2,3,Pin_3*%
%TO.N,/SCL*%
X117550000Y-77820000D03*
%TO.P,J2,4,Pin_4*%
%TO.N,GND*%
X117550000Y-75280000D03*
%TD*%
D15*
%TO.P,U1,3,GND*%
%TO.N,GND*%
X95110000Y-116020000D03*
%TO.P,U1,4,Vout*%
%TO.N,+5V*%
X112890000Y-116020000D03*
%TO.P,U1,2,GND*%
%TO.N,GND*%
X95110000Y-75380000D03*
D16*
%TO.P,U1,1,Vin*%
%TO.N,+BATT*%
X112890000Y-75380000D03*
%TD*%
%TA.AperFunction,Conductor*%
%TO.N,GND*%
G36*
X94725621Y-68820002D02*
G01*
X94772114Y-68873658D01*
X94783500Y-68926000D01*
X94783500Y-72506134D01*
X94790255Y-72568316D01*
X94841385Y-72704705D01*
X94928739Y-72821261D01*
X95045295Y-72908615D01*
X95181684Y-72959745D01*
X95243866Y-72966500D01*
X99056134Y-72966500D01*
X99118316Y-72959745D01*
X99254705Y-72908615D01*
X99371261Y-72821261D01*
X99458615Y-72704705D01*
X99509745Y-72568316D01*
X99516500Y-72506134D01*
X99516500Y-72445387D01*
X102870070Y-72445387D01*
X102876528Y-72454747D01*
X102903488Y-72478391D01*
X102910003Y-72483389D01*
X103161028Y-72651119D01*
X103168165Y-72655240D01*
X103438930Y-72788766D01*
X103446534Y-72791916D01*
X103732413Y-72888959D01*
X103740365Y-72891090D01*
X104036469Y-72949988D01*
X104044627Y-72951062D01*
X104345881Y-72970807D01*
X104354119Y-72970807D01*
X104655373Y-72951062D01*
X104663531Y-72949988D01*
X104959635Y-72891090D01*
X104967587Y-72888959D01*
X105253466Y-72791916D01*
X105261070Y-72788766D01*
X105531835Y-72655240D01*
X105538972Y-72651119D01*
X105789997Y-72483389D01*
X105796512Y-72478391D01*
X105821609Y-72456381D01*
X105830004Y-72443146D01*
X105824169Y-72433379D01*
X104362812Y-70972022D01*
X104348868Y-70964408D01*
X104347035Y-70964539D01*
X104340420Y-70968790D01*
X102877584Y-72431626D01*
X102870070Y-72445387D01*
X99516500Y-72445387D01*
X99516500Y-68926000D01*
X99536502Y-68857879D01*
X99590158Y-68811386D01*
X99642500Y-68800000D01*
X102503522Y-68800000D01*
X102571643Y-68820002D01*
X102618136Y-68873658D01*
X102628240Y-68943932D01*
X102598254Y-69009077D01*
X102471622Y-69153474D01*
X102466604Y-69160014D01*
X102298882Y-69411027D01*
X102294761Y-69418165D01*
X102161236Y-69688924D01*
X102158081Y-69696543D01*
X102061041Y-69982413D01*
X102058910Y-69990365D01*
X102000012Y-70286469D01*
X101998938Y-70294627D01*
X101979193Y-70595881D01*
X101979193Y-70604119D01*
X101998938Y-70905373D01*
X102000012Y-70913531D01*
X102058910Y-71209635D01*
X102061041Y-71217587D01*
X102158081Y-71503457D01*
X102161236Y-71511076D01*
X102294761Y-71781835D01*
X102298882Y-71788973D01*
X102466611Y-72039997D01*
X102471609Y-72046512D01*
X102493619Y-72071609D01*
X102506854Y-72080004D01*
X102516621Y-72074169D01*
X104260905Y-70329885D01*
X104323217Y-70295859D01*
X104394032Y-70300924D01*
X104439095Y-70329885D01*
X106181626Y-72072416D01*
X106195387Y-72079930D01*
X106204747Y-72073472D01*
X106228391Y-72046512D01*
X106233389Y-72039997D01*
X106401118Y-71788973D01*
X106405239Y-71781835D01*
X106538764Y-71511076D01*
X106541919Y-71503457D01*
X106638959Y-71217587D01*
X106641090Y-71209635D01*
X106699988Y-70913531D01*
X106701062Y-70905373D01*
X106720807Y-70604119D01*
X106720807Y-70595881D01*
X106701062Y-70294627D01*
X106699988Y-70286469D01*
X106641090Y-69990365D01*
X106638959Y-69982413D01*
X106541919Y-69696543D01*
X106538764Y-69688924D01*
X106405239Y-69418165D01*
X106401118Y-69411027D01*
X106233396Y-69160014D01*
X106228378Y-69153474D01*
X106101746Y-69009077D01*
X106071869Y-68944673D01*
X106081555Y-68874340D01*
X106127728Y-68820409D01*
X106196478Y-68800000D01*
X118774000Y-68800000D01*
X118842121Y-68820002D01*
X118888614Y-68873658D01*
X118900000Y-68926000D01*
X118900000Y-74439796D01*
X118879998Y-74507917D01*
X118826342Y-74554410D01*
X118756068Y-74564514D01*
X118691488Y-74535020D01*
X118668208Y-74508236D01*
X118632426Y-74452926D01*
X118626136Y-74444757D01*
X118482806Y-74287240D01*
X118475273Y-74280215D01*
X118308139Y-74148222D01*
X118299552Y-74142517D01*
X118113117Y-74039599D01*
X118103705Y-74035369D01*
X117902959Y-73964280D01*
X117892988Y-73961646D01*
X117821837Y-73948972D01*
X117808540Y-73950432D01*
X117804000Y-73964989D01*
X117804000Y-75408000D01*
X117783998Y-75476121D01*
X117730342Y-75522614D01*
X117678000Y-75534000D01*
X116233225Y-75534000D01*
X116219694Y-75537973D01*
X116218257Y-75547966D01*
X116248565Y-75682446D01*
X116251645Y-75692275D01*
X116331770Y-75889603D01*
X116336413Y-75898794D01*
X116447694Y-76080388D01*
X116453777Y-76088699D01*
X116593213Y-76249667D01*
X116600580Y-76256883D01*
X116764434Y-76392916D01*
X116772881Y-76398831D01*
X116841969Y-76439203D01*
X116890693Y-76490842D01*
X116903764Y-76560625D01*
X116877033Y-76626396D01*
X116836584Y-76659752D01*
X116823607Y-76666507D01*
X116819474Y-76669610D01*
X116819471Y-76669612D01*
X116688810Y-76767715D01*
X116644965Y-76800635D01*
X116627184Y-76819242D01*
X116554295Y-76895516D01*
X116490629Y-76962138D01*
X116487715Y-76966410D01*
X116487714Y-76966411D01*
X116421143Y-77064000D01*
X116364743Y-77146680D01*
X116270688Y-77349305D01*
X116210989Y-77564570D01*
X116187251Y-77786695D01*
X116187548Y-77791848D01*
X116187548Y-77791851D01*
X116188348Y-77805720D01*
X116200110Y-78009715D01*
X116201247Y-78014761D01*
X116201248Y-78014767D01*
X116201833Y-78017361D01*
X116249222Y-78227639D01*
X116333266Y-78434616D01*
X116449987Y-78625088D01*
X116596250Y-78793938D01*
X116768126Y-78936632D01*
X116784632Y-78946277D01*
X116841445Y-78979476D01*
X116890169Y-79031114D01*
X116903240Y-79100897D01*
X116876509Y-79166669D01*
X116836055Y-79200027D01*
X116823607Y-79206507D01*
X116819474Y-79209610D01*
X116819471Y-79209612D01*
X116795247Y-79227800D01*
X116644965Y-79340635D01*
X116641393Y-79344373D01*
X116554295Y-79435516D01*
X116490629Y-79502138D01*
X116487715Y-79506410D01*
X116487714Y-79506411D01*
X116428260Y-79593567D01*
X116364743Y-79686680D01*
X116270688Y-79889305D01*
X116210989Y-80104570D01*
X116187251Y-80326695D01*
X116187548Y-80331848D01*
X116187548Y-80331851D01*
X116188357Y-80345875D01*
X116200110Y-80549715D01*
X116201247Y-80554761D01*
X116201248Y-80554767D01*
X116201833Y-80557361D01*
X116249222Y-80767639D01*
X116333266Y-80974616D01*
X116449987Y-81165088D01*
X116596250Y-81333938D01*
X116600230Y-81337242D01*
X116604981Y-81341187D01*
X116644616Y-81400090D01*
X116646113Y-81471071D01*
X116608997Y-81531593D01*
X116568724Y-81556112D01*
X116453295Y-81599385D01*
X116336739Y-81686739D01*
X116249385Y-81803295D01*
X116198255Y-81939684D01*
X116191500Y-82001866D01*
X116191500Y-83798134D01*
X116198255Y-83860316D01*
X116249385Y-83996705D01*
X116336739Y-84113261D01*
X116453295Y-84200615D01*
X116589684Y-84251745D01*
X116651866Y-84258500D01*
X118448134Y-84258500D01*
X118510316Y-84251745D01*
X118646705Y-84200615D01*
X118698437Y-84161844D01*
X118764941Y-84136997D01*
X118834323Y-84152050D01*
X118884554Y-84202223D01*
X118900000Y-84262671D01*
X118900000Y-120274000D01*
X118879998Y-120342121D01*
X118826342Y-120388614D01*
X118774000Y-120400000D01*
X90938053Y-120400000D01*
X90869932Y-120379998D01*
X90823439Y-120326342D01*
X90813335Y-120256068D01*
X90842829Y-120191488D01*
X90901846Y-120153314D01*
X90912252Y-120150192D01*
X90921842Y-120146433D01*
X91113095Y-120052739D01*
X91121945Y-120047464D01*
X91295328Y-119923792D01*
X91303200Y-119917139D01*
X91454052Y-119766812D01*
X91460730Y-119758965D01*
X91585003Y-119586020D01*
X91590313Y-119577183D01*
X91684670Y-119386267D01*
X91688469Y-119376672D01*
X91750377Y-119172910D01*
X91752555Y-119162837D01*
X91753986Y-119151962D01*
X91751775Y-119137778D01*
X91738617Y-119134000D01*
X90292000Y-119134000D01*
X90223879Y-119113998D01*
X90177386Y-119060342D01*
X90166000Y-119008000D01*
X90166000Y-118752000D01*
X90186002Y-118683879D01*
X90239658Y-118637386D01*
X90292000Y-118626000D01*
X91738344Y-118626000D01*
X91751875Y-118622027D01*
X91753180Y-118612947D01*
X91711214Y-118445875D01*
X91707894Y-118436124D01*
X91622972Y-118240814D01*
X91618105Y-118231739D01*
X91502426Y-118052926D01*
X91496136Y-118044757D01*
X91352806Y-117887240D01*
X91345273Y-117880215D01*
X91178139Y-117748222D01*
X91169556Y-117742520D01*
X91132602Y-117722120D01*
X91082631Y-117671687D01*
X91067859Y-117602245D01*
X91092975Y-117535839D01*
X91120327Y-117509232D01*
X91181874Y-117465331D01*
X91212561Y-117443442D01*
X94051303Y-117443442D01*
X94060017Y-117454962D01*
X94161394Y-117529296D01*
X94169293Y-117534232D01*
X94394901Y-117652930D01*
X94403450Y-117656647D01*
X94644113Y-117740690D01*
X94653122Y-117743104D01*
X94903572Y-117790654D01*
X94912827Y-117791708D01*
X95167557Y-117801717D01*
X95176871Y-117801391D01*
X95430270Y-117773640D01*
X95439447Y-117771939D01*
X95685960Y-117707037D01*
X95694780Y-117704000D01*
X95928997Y-117603373D01*
X95937269Y-117599066D01*
X96154036Y-117464927D01*
X96161579Y-117459447D01*
X96163272Y-117458014D01*
X96171710Y-117445211D01*
X96165645Y-117434855D01*
X95122812Y-116392022D01*
X95108868Y-116384408D01*
X95107035Y-116384539D01*
X95100420Y-116388790D01*
X94057961Y-117431249D01*
X94051303Y-117443442D01*
X91212561Y-117443442D01*
X91299860Y-117381173D01*
X91304877Y-117376174D01*
X91454435Y-117227137D01*
X91458096Y-117223489D01*
X91517594Y-117140689D01*
X91585435Y-117046277D01*
X91588453Y-117042077D01*
X91609320Y-116999857D01*
X91685136Y-116846453D01*
X91685137Y-116846451D01*
X91687430Y-116841811D01*
X91752370Y-116628069D01*
X91781529Y-116406590D01*
X91782177Y-116380068D01*
X91783074Y-116343365D01*
X91783074Y-116343361D01*
X91783156Y-116340000D01*
X91764852Y-116117361D01*
X91729847Y-115977999D01*
X93327849Y-115977999D01*
X93340080Y-116232619D01*
X93341217Y-116241879D01*
X93390947Y-116491894D01*
X93393441Y-116500887D01*
X93479578Y-116740797D01*
X93483378Y-116749332D01*
X93604031Y-116973877D01*
X93609045Y-116981748D01*
X93675154Y-117070279D01*
X93686414Y-117078729D01*
X93698832Y-117071958D01*
X94737978Y-116032812D01*
X94744356Y-116021132D01*
X95474408Y-116021132D01*
X95474539Y-116022965D01*
X95478790Y-116029580D01*
X96524386Y-117075176D01*
X96536766Y-117081936D01*
X96545107Y-117075692D01*
X96674391Y-116874697D01*
X96678838Y-116866506D01*
X96783536Y-116634085D01*
X96786731Y-116625307D01*
X96855923Y-116379968D01*
X96857781Y-116370839D01*
X96890144Y-116116444D01*
X96890625Y-116110158D01*
X96892903Y-116023160D01*
X96892752Y-116016851D01*
X96889517Y-115973314D01*
X111107124Y-115973314D01*
X111107348Y-115977980D01*
X111107348Y-115977985D01*
X111109421Y-116021132D01*
X111119807Y-116237352D01*
X111120720Y-116241940D01*
X111170439Y-116491894D01*
X111171378Y-116496616D01*
X111172957Y-116501014D01*
X111172959Y-116501021D01*
X111259048Y-116740797D01*
X111260704Y-116745410D01*
X111262921Y-116749536D01*
X111330301Y-116874936D01*
X111385822Y-116978267D01*
X111388617Y-116982011D01*
X111388619Y-116982013D01*
X111471743Y-117093329D01*
X111543985Y-117190073D01*
X111547292Y-117193351D01*
X111547297Y-117193357D01*
X111646879Y-117292073D01*
X111731718Y-117376174D01*
X111735485Y-117378936D01*
X111735486Y-117378937D01*
X111843333Y-117458014D01*
X111944896Y-117532483D01*
X111949031Y-117534659D01*
X111949035Y-117534661D01*
X112071449Y-117599066D01*
X112178836Y-117655565D01*
X112267905Y-117686669D01*
X112390876Y-117729612D01*
X112428400Y-117742716D01*
X112432993Y-117743588D01*
X112683515Y-117791151D01*
X112683518Y-117791151D01*
X112688104Y-117792022D01*
X112820173Y-117797211D01*
X112947575Y-117802218D01*
X112947581Y-117802218D01*
X112952243Y-117802401D01*
X113215015Y-117773622D01*
X113219526Y-117772434D01*
X113219528Y-117772434D01*
X113466124Y-117707511D01*
X113466126Y-117707510D01*
X113470647Y-117706320D01*
X113481277Y-117701753D01*
X113709229Y-117603817D01*
X113709231Y-117603816D01*
X113713523Y-117601972D01*
X113938307Y-117462871D01*
X114034813Y-117381173D01*
X114136496Y-117295093D01*
X114136498Y-117295091D01*
X114140063Y-117292073D01*
X114314356Y-117093329D01*
X114321685Y-117081936D01*
X114454831Y-116874936D01*
X114457359Y-116871006D01*
X114565930Y-116629988D01*
X114637683Y-116375570D01*
X114669875Y-116122522D01*
X114670645Y-116116471D01*
X114670645Y-116116465D01*
X114671043Y-116113340D01*
X114671127Y-116110158D01*
X114672415Y-116060943D01*
X114673487Y-116020000D01*
X114664269Y-115895954D01*
X114654243Y-115761036D01*
X114654242Y-115761032D01*
X114653897Y-115756384D01*
X114595557Y-115498559D01*
X114580028Y-115458626D01*
X114501442Y-115256542D01*
X114501441Y-115256540D01*
X114499749Y-115252189D01*
X114473659Y-115206540D01*
X114403254Y-115083357D01*
X114368578Y-115022687D01*
X114204925Y-114815094D01*
X114012385Y-114633970D01*
X113970752Y-114605088D01*
X113799026Y-114485958D01*
X113799021Y-114485955D01*
X113795188Y-114483296D01*
X113790997Y-114481229D01*
X113562294Y-114368445D01*
X113562291Y-114368444D01*
X113558106Y-114366380D01*
X113502612Y-114348616D01*
X113340917Y-114296857D01*
X113306347Y-114285791D01*
X113163825Y-114262580D01*
X113050053Y-114244051D01*
X113050052Y-114244051D01*
X113045441Y-114243300D01*
X112913281Y-114241570D01*
X112785798Y-114239901D01*
X112785795Y-114239901D01*
X112781121Y-114239840D01*
X112519192Y-114275486D01*
X112514702Y-114276795D01*
X112514696Y-114276796D01*
X112428875Y-114301811D01*
X112265410Y-114349457D01*
X112261163Y-114351415D01*
X112261160Y-114351416D01*
X112223215Y-114368909D01*
X112025348Y-114460127D01*
X111993162Y-114481229D01*
X111808195Y-114602499D01*
X111808190Y-114602503D01*
X111804282Y-114605065D01*
X111774884Y-114631304D01*
X111615076Y-114773938D01*
X111607067Y-114781086D01*
X111494335Y-114916632D01*
X111450857Y-114968909D01*
X111438036Y-114984324D01*
X111300901Y-115210314D01*
X111299095Y-115214622D01*
X111299094Y-115214623D01*
X111254640Y-115320635D01*
X111198677Y-115454091D01*
X111197526Y-115458623D01*
X111197525Y-115458626D01*
X111183813Y-115512617D01*
X111133608Y-115710301D01*
X111107124Y-115973314D01*
X96889517Y-115973314D01*
X96873747Y-115761110D01*
X96872370Y-115751904D01*
X96816109Y-115503262D01*
X96813385Y-115494351D01*
X96720990Y-115256758D01*
X96716979Y-115248349D01*
X96590482Y-115027027D01*
X96585269Y-115019298D01*
X96545633Y-114969019D01*
X96533709Y-114960549D01*
X96522174Y-114967036D01*
X95482022Y-116007188D01*
X95474408Y-116021132D01*
X94744356Y-116021132D01*
X94745592Y-116018868D01*
X94745461Y-116017035D01*
X94741210Y-116010420D01*
X93697119Y-114966329D01*
X93683811Y-114959062D01*
X93673772Y-114966184D01*
X93661433Y-114981020D01*
X93656018Y-114988612D01*
X93523776Y-115206540D01*
X93519538Y-115214857D01*
X93420961Y-115449935D01*
X93418000Y-115458785D01*
X93355255Y-115705849D01*
X93353633Y-115715046D01*
X93328094Y-115968673D01*
X93327849Y-115977999D01*
X91729847Y-115977999D01*
X91710431Y-115900702D01*
X91621354Y-115695840D01*
X91500014Y-115508277D01*
X91349670Y-115343051D01*
X91345619Y-115339852D01*
X91345615Y-115339848D01*
X91178414Y-115207800D01*
X91178410Y-115207798D01*
X91174359Y-115204598D01*
X91133053Y-115181796D01*
X91083084Y-115131364D01*
X91068312Y-115061921D01*
X91093428Y-114995516D01*
X91120780Y-114968909D01*
X91164603Y-114937650D01*
X91299860Y-114841173D01*
X91322350Y-114818762D01*
X91454435Y-114687137D01*
X91458096Y-114683489D01*
X91517594Y-114600689D01*
X91522144Y-114594357D01*
X94048770Y-114594357D01*
X94053343Y-114604133D01*
X95097188Y-115647978D01*
X95111132Y-115655592D01*
X95112965Y-115655461D01*
X95119580Y-115651210D01*
X96162790Y-114608000D01*
X96169174Y-114596310D01*
X96159762Y-114584199D01*
X96018776Y-114486392D01*
X96010741Y-114481659D01*
X95782106Y-114368909D01*
X95773473Y-114365421D01*
X95530675Y-114287701D01*
X95521624Y-114285528D01*
X95270009Y-114244550D01*
X95260720Y-114243738D01*
X95005828Y-114240401D01*
X94996517Y-114240971D01*
X94743927Y-114275347D01*
X94734808Y-114277285D01*
X94490084Y-114348616D01*
X94481331Y-114351888D01*
X94249837Y-114458608D01*
X94241682Y-114463128D01*
X94057907Y-114583616D01*
X94048770Y-114594357D01*
X91522144Y-114594357D01*
X91585435Y-114506277D01*
X91588453Y-114502077D01*
X91596420Y-114485958D01*
X91685136Y-114306453D01*
X91685137Y-114306451D01*
X91687430Y-114301811D01*
X91752370Y-114088069D01*
X91781529Y-113866590D01*
X91783156Y-113800000D01*
X91764852Y-113577361D01*
X91710431Y-113360702D01*
X91621354Y-113155840D01*
X91500014Y-112968277D01*
X91349670Y-112803051D01*
X91345619Y-112799852D01*
X91345615Y-112799848D01*
X91178414Y-112667800D01*
X91178410Y-112667798D01*
X91174359Y-112664598D01*
X91133053Y-112641796D01*
X91083084Y-112591364D01*
X91068312Y-112521921D01*
X91093428Y-112455516D01*
X91120780Y-112428909D01*
X91164603Y-112397650D01*
X91299860Y-112301173D01*
X91458096Y-112143489D01*
X91588453Y-111962077D01*
X91601995Y-111934678D01*
X91685136Y-111766453D01*
X91685137Y-111766451D01*
X91687430Y-111761811D01*
X91752370Y-111548069D01*
X91781529Y-111326590D01*
X91783156Y-111260000D01*
X91764852Y-111037361D01*
X91710431Y-110820702D01*
X91621354Y-110615840D01*
X91500014Y-110428277D01*
X91349670Y-110263051D01*
X91345619Y-110259852D01*
X91345615Y-110259848D01*
X91178414Y-110127800D01*
X91178410Y-110127798D01*
X91174359Y-110124598D01*
X91133053Y-110101796D01*
X91083084Y-110051364D01*
X91069328Y-109986695D01*
X114637251Y-109986695D01*
X114637548Y-109991848D01*
X114637548Y-109991851D01*
X114643906Y-110102120D01*
X114650110Y-110209715D01*
X114651247Y-110214761D01*
X114651248Y-110214767D01*
X114663074Y-110267240D01*
X114699222Y-110427639D01*
X114752995Y-110560066D01*
X114777571Y-110620590D01*
X114783266Y-110634616D01*
X114785965Y-110639020D01*
X114894390Y-110815954D01*
X114899987Y-110825088D01*
X115046250Y-110993938D01*
X115218126Y-111136632D01*
X115411000Y-111249338D01*
X115415825Y-111251180D01*
X115415826Y-111251181D01*
X115438921Y-111260000D01*
X115619692Y-111329030D01*
X115624760Y-111330061D01*
X115624763Y-111330062D01*
X115732017Y-111351883D01*
X115838597Y-111373567D01*
X115843772Y-111373757D01*
X115843774Y-111373757D01*
X116056673Y-111381564D01*
X116056677Y-111381564D01*
X116061837Y-111381753D01*
X116066957Y-111381097D01*
X116066959Y-111381097D01*
X116278288Y-111354025D01*
X116278289Y-111354025D01*
X116283416Y-111353368D01*
X116288366Y-111351883D01*
X116492429Y-111290661D01*
X116492434Y-111290659D01*
X116497384Y-111289174D01*
X116697994Y-111190896D01*
X116879860Y-111061173D01*
X116903756Y-111037361D01*
X117034435Y-110907137D01*
X117038096Y-110903489D01*
X117097594Y-110820689D01*
X117165435Y-110726277D01*
X117168453Y-110722077D01*
X117220959Y-110615840D01*
X117265136Y-110526453D01*
X117265137Y-110526451D01*
X117267430Y-110521811D01*
X117332370Y-110308069D01*
X117361529Y-110086590D01*
X117361847Y-110073567D01*
X117363074Y-110023365D01*
X117363074Y-110023361D01*
X117363156Y-110020000D01*
X117344852Y-109797361D01*
X117290431Y-109580702D01*
X117201354Y-109375840D01*
X117101708Y-109221811D01*
X117082822Y-109192617D01*
X117082820Y-109192614D01*
X117080014Y-109188277D01*
X116929670Y-109023051D01*
X116925619Y-109019852D01*
X116925615Y-109019848D01*
X116758414Y-108887800D01*
X116758410Y-108887798D01*
X116754359Y-108884598D01*
X116713053Y-108861796D01*
X116663084Y-108811364D01*
X116648312Y-108741921D01*
X116673428Y-108675516D01*
X116700780Y-108648909D01*
X116744603Y-108617650D01*
X116879860Y-108521173D01*
X116903756Y-108497361D01*
X117034435Y-108367137D01*
X117038096Y-108363489D01*
X117097594Y-108280689D01*
X117165435Y-108186277D01*
X117168453Y-108182077D01*
X117220959Y-108075840D01*
X117265136Y-107986453D01*
X117265137Y-107986451D01*
X117267430Y-107981811D01*
X117332370Y-107768069D01*
X117361529Y-107546590D01*
X117362016Y-107526669D01*
X117363074Y-107483365D01*
X117363074Y-107483361D01*
X117363156Y-107480000D01*
X117344852Y-107257361D01*
X117290431Y-107040702D01*
X117201354Y-106835840D01*
X117101708Y-106681811D01*
X117082822Y-106652617D01*
X117082820Y-106652614D01*
X117080014Y-106648277D01*
X116929670Y-106483051D01*
X116925619Y-106479852D01*
X116925615Y-106479848D01*
X116758414Y-106347800D01*
X116758410Y-106347798D01*
X116754359Y-106344598D01*
X116713053Y-106321796D01*
X116663084Y-106271364D01*
X116648312Y-106201921D01*
X116673428Y-106135516D01*
X116700780Y-106108909D01*
X116744603Y-106077650D01*
X116879860Y-105981173D01*
X116903756Y-105957361D01*
X117034435Y-105827137D01*
X117038096Y-105823489D01*
X117097594Y-105740689D01*
X117165435Y-105646277D01*
X117168453Y-105642077D01*
X117220959Y-105535840D01*
X117265136Y-105446453D01*
X117265137Y-105446451D01*
X117267430Y-105441811D01*
X117332370Y-105228069D01*
X117361529Y-105006590D01*
X117361847Y-104993567D01*
X117363074Y-104943365D01*
X117363074Y-104943361D01*
X117363156Y-104940000D01*
X117344852Y-104717361D01*
X117290431Y-104500702D01*
X117201354Y-104295840D01*
X117101708Y-104141811D01*
X117082822Y-104112617D01*
X117082820Y-104112614D01*
X117080014Y-104108277D01*
X116929670Y-103943051D01*
X116925619Y-103939852D01*
X116925615Y-103939848D01*
X116758414Y-103807800D01*
X116758410Y-103807798D01*
X116754359Y-103804598D01*
X116713053Y-103781796D01*
X116663084Y-103731364D01*
X116648312Y-103661921D01*
X116673428Y-103595516D01*
X116700780Y-103568909D01*
X116744603Y-103537650D01*
X116879860Y-103441173D01*
X116903756Y-103417361D01*
X117034435Y-103287137D01*
X117038096Y-103283489D01*
X117097594Y-103200689D01*
X117165435Y-103106277D01*
X117168453Y-103102077D01*
X117220959Y-102995840D01*
X117265136Y-102906453D01*
X117265137Y-102906451D01*
X117267430Y-102901811D01*
X117332370Y-102688069D01*
X117361529Y-102466590D01*
X117362016Y-102446669D01*
X117363074Y-102403365D01*
X117363074Y-102403361D01*
X117363156Y-102400000D01*
X117344852Y-102177361D01*
X117290431Y-101960702D01*
X117201354Y-101755840D01*
X117080014Y-101568277D01*
X116929670Y-101403051D01*
X116925619Y-101399852D01*
X116925615Y-101399848D01*
X116758414Y-101267800D01*
X116758410Y-101267798D01*
X116754359Y-101264598D01*
X116713053Y-101241796D01*
X116663084Y-101191364D01*
X116648312Y-101121921D01*
X116673428Y-101055516D01*
X116700780Y-101028909D01*
X116744603Y-100997650D01*
X116879860Y-100901173D01*
X116903756Y-100877361D01*
X117034435Y-100747137D01*
X117038096Y-100743489D01*
X117097594Y-100660689D01*
X117165435Y-100566277D01*
X117168453Y-100562077D01*
X117220959Y-100455840D01*
X117265136Y-100366453D01*
X117265137Y-100366451D01*
X117267430Y-100361811D01*
X117332370Y-100148069D01*
X117361529Y-99926590D01*
X117361847Y-99913567D01*
X117363074Y-99863365D01*
X117363074Y-99863361D01*
X117363156Y-99860000D01*
X117344852Y-99637361D01*
X117290431Y-99420702D01*
X117201354Y-99215840D01*
X117101708Y-99061811D01*
X117082822Y-99032617D01*
X117082820Y-99032614D01*
X117080014Y-99028277D01*
X116929670Y-98863051D01*
X116925619Y-98859852D01*
X116925615Y-98859848D01*
X116758414Y-98727800D01*
X116758410Y-98727798D01*
X116754359Y-98724598D01*
X116713053Y-98701796D01*
X116663084Y-98651364D01*
X116648312Y-98581921D01*
X116673428Y-98515516D01*
X116700780Y-98488909D01*
X116744603Y-98457650D01*
X116879860Y-98361173D01*
X116903756Y-98337361D01*
X117034435Y-98207137D01*
X117038096Y-98203489D01*
X117097594Y-98120689D01*
X117165435Y-98026277D01*
X117168453Y-98022077D01*
X117220959Y-97915840D01*
X117265136Y-97826453D01*
X117265137Y-97826451D01*
X117267430Y-97821811D01*
X117332370Y-97608069D01*
X117361529Y-97386590D01*
X117363156Y-97320000D01*
X117344852Y-97097361D01*
X117290431Y-96880702D01*
X117201354Y-96675840D01*
X117101708Y-96521811D01*
X117082822Y-96492617D01*
X117082820Y-96492614D01*
X117080014Y-96488277D01*
X116929670Y-96323051D01*
X116925619Y-96319852D01*
X116925615Y-96319848D01*
X116758414Y-96187800D01*
X116758410Y-96187798D01*
X116754359Y-96184598D01*
X116712569Y-96161529D01*
X116662598Y-96111097D01*
X116647826Y-96041654D01*
X116672942Y-95975248D01*
X116700294Y-95948641D01*
X116875328Y-95823792D01*
X116883200Y-95817139D01*
X117034052Y-95666812D01*
X117040730Y-95658965D01*
X117165003Y-95486020D01*
X117170313Y-95477183D01*
X117264670Y-95286267D01*
X117268469Y-95276672D01*
X117330377Y-95072910D01*
X117332555Y-95062837D01*
X117333986Y-95051962D01*
X117331775Y-95037778D01*
X117318617Y-95034000D01*
X114683225Y-95034000D01*
X114669694Y-95037973D01*
X114668257Y-95047966D01*
X114698565Y-95182446D01*
X114701645Y-95192275D01*
X114781770Y-95389603D01*
X114786413Y-95398794D01*
X114897694Y-95580388D01*
X114903777Y-95588699D01*
X115043213Y-95749667D01*
X115050580Y-95756883D01*
X115214434Y-95892916D01*
X115222881Y-95898831D01*
X115291969Y-95939203D01*
X115340693Y-95990842D01*
X115353764Y-96060625D01*
X115327033Y-96126396D01*
X115286584Y-96159752D01*
X115273607Y-96166507D01*
X115269474Y-96169610D01*
X115269471Y-96169612D01*
X115099100Y-96297530D01*
X115094965Y-96300635D01*
X114940629Y-96462138D01*
X114814743Y-96646680D01*
X114777463Y-96726994D01*
X114733972Y-96820688D01*
X114720688Y-96849305D01*
X114660989Y-97064570D01*
X114637251Y-97286695D01*
X114637548Y-97291848D01*
X114637548Y-97291851D01*
X114644021Y-97404118D01*
X114650110Y-97509715D01*
X114651247Y-97514761D01*
X114651248Y-97514767D01*
X114671119Y-97602939D01*
X114699222Y-97727639D01*
X114737461Y-97821811D01*
X114777571Y-97920590D01*
X114783266Y-97934616D01*
X114785965Y-97939020D01*
X114894390Y-98115954D01*
X114899987Y-98125088D01*
X115046250Y-98293938D01*
X115218126Y-98436632D01*
X115288595Y-98477811D01*
X115291445Y-98479476D01*
X115340169Y-98531114D01*
X115353240Y-98600897D01*
X115326509Y-98666669D01*
X115286055Y-98700027D01*
X115273607Y-98706507D01*
X115269474Y-98709610D01*
X115269471Y-98709612D01*
X115099100Y-98837530D01*
X115094965Y-98840635D01*
X114940629Y-99002138D01*
X114814743Y-99186680D01*
X114777463Y-99266994D01*
X114733972Y-99360688D01*
X114720688Y-99389305D01*
X114660989Y-99604570D01*
X114637251Y-99826695D01*
X114637548Y-99831848D01*
X114637548Y-99831851D01*
X114643906Y-99942120D01*
X114650110Y-100049715D01*
X114651247Y-100054761D01*
X114651248Y-100054767D01*
X114663074Y-100107240D01*
X114699222Y-100267639D01*
X114737461Y-100361811D01*
X114777662Y-100460814D01*
X114783266Y-100474616D01*
X114899987Y-100665088D01*
X115046250Y-100833938D01*
X115218126Y-100976632D01*
X115288595Y-101017811D01*
X115291445Y-101019476D01*
X115340169Y-101071114D01*
X115353240Y-101140897D01*
X115326509Y-101206669D01*
X115286055Y-101240027D01*
X115273607Y-101246507D01*
X115269474Y-101249610D01*
X115269471Y-101249612D01*
X115106516Y-101371962D01*
X115094965Y-101380635D01*
X114940629Y-101542138D01*
X114814743Y-101726680D01*
X114720688Y-101929305D01*
X114660989Y-102144570D01*
X114637251Y-102366695D01*
X114637548Y-102371848D01*
X114637548Y-102371851D01*
X114644021Y-102484118D01*
X114650110Y-102589715D01*
X114651247Y-102594761D01*
X114651248Y-102594767D01*
X114671119Y-102682939D01*
X114699222Y-102807639D01*
X114737461Y-102901811D01*
X114777571Y-103000590D01*
X114783266Y-103014616D01*
X114785965Y-103019020D01*
X114894390Y-103195954D01*
X114899987Y-103205088D01*
X115046250Y-103373938D01*
X115218126Y-103516632D01*
X115288595Y-103557811D01*
X115291445Y-103559476D01*
X115340169Y-103611114D01*
X115353240Y-103680897D01*
X115326509Y-103746669D01*
X115286055Y-103780027D01*
X115273607Y-103786507D01*
X115269474Y-103789610D01*
X115269471Y-103789612D01*
X115099100Y-103917530D01*
X115094965Y-103920635D01*
X114940629Y-104082138D01*
X114814743Y-104266680D01*
X114777463Y-104346994D01*
X114733972Y-104440688D01*
X114720688Y-104469305D01*
X114660989Y-104684570D01*
X114637251Y-104906695D01*
X114637548Y-104911848D01*
X114637548Y-104911851D01*
X114643906Y-105022120D01*
X114650110Y-105129715D01*
X114651247Y-105134761D01*
X114651248Y-105134767D01*
X114663074Y-105187240D01*
X114699222Y-105347639D01*
X114752995Y-105480066D01*
X114777571Y-105540590D01*
X114783266Y-105554616D01*
X114785965Y-105559020D01*
X114894390Y-105735954D01*
X114899987Y-105745088D01*
X115046250Y-105913938D01*
X115218126Y-106056632D01*
X115288595Y-106097811D01*
X115291445Y-106099476D01*
X115340169Y-106151114D01*
X115353240Y-106220897D01*
X115326509Y-106286669D01*
X115286055Y-106320027D01*
X115273607Y-106326507D01*
X115269474Y-106329610D01*
X115269471Y-106329612D01*
X115099100Y-106457530D01*
X115094965Y-106460635D01*
X115091393Y-106464373D01*
X114978560Y-106582446D01*
X114940629Y-106622138D01*
X114814743Y-106806680D01*
X114777687Y-106886511D01*
X114733972Y-106980688D01*
X114720688Y-107009305D01*
X114660989Y-107224570D01*
X114637251Y-107446695D01*
X114637548Y-107451848D01*
X114637548Y-107451851D01*
X114644021Y-107564118D01*
X114650110Y-107669715D01*
X114651247Y-107674761D01*
X114651248Y-107674767D01*
X114671119Y-107762939D01*
X114699222Y-107887639D01*
X114737461Y-107981811D01*
X114777571Y-108080590D01*
X114783266Y-108094616D01*
X114785965Y-108099020D01*
X114894390Y-108275954D01*
X114899987Y-108285088D01*
X115046250Y-108453938D01*
X115218126Y-108596632D01*
X115288595Y-108637811D01*
X115291445Y-108639476D01*
X115340169Y-108691114D01*
X115353240Y-108760897D01*
X115326509Y-108826669D01*
X115286055Y-108860027D01*
X115273607Y-108866507D01*
X115269474Y-108869610D01*
X115269471Y-108869612D01*
X115099100Y-108997530D01*
X115094965Y-109000635D01*
X114940629Y-109162138D01*
X114814743Y-109346680D01*
X114777463Y-109426994D01*
X114733972Y-109520688D01*
X114720688Y-109549305D01*
X114660989Y-109764570D01*
X114637251Y-109986695D01*
X91069328Y-109986695D01*
X91068312Y-109981921D01*
X91093428Y-109915516D01*
X91120780Y-109888909D01*
X91164603Y-109857650D01*
X91299860Y-109761173D01*
X91458096Y-109603489D01*
X91517594Y-109520689D01*
X91585435Y-109426277D01*
X91588453Y-109422077D01*
X91609320Y-109379857D01*
X91685136Y-109226453D01*
X91685137Y-109226451D01*
X91687430Y-109221811D01*
X91752370Y-109008069D01*
X91781529Y-108786590D01*
X91782444Y-108749144D01*
X91783074Y-108723365D01*
X91783074Y-108723361D01*
X91783156Y-108720000D01*
X91764852Y-108497361D01*
X91710431Y-108280702D01*
X91621354Y-108075840D01*
X91500014Y-107888277D01*
X91349670Y-107723051D01*
X91345619Y-107719852D01*
X91345615Y-107719848D01*
X91178414Y-107587800D01*
X91178410Y-107587798D01*
X91174359Y-107584598D01*
X91133053Y-107561796D01*
X91083084Y-107511364D01*
X91068312Y-107441921D01*
X91093428Y-107375516D01*
X91120780Y-107348909D01*
X91164603Y-107317650D01*
X91299860Y-107221173D01*
X91458096Y-107063489D01*
X91588453Y-106882077D01*
X91601995Y-106854678D01*
X91685136Y-106686453D01*
X91685137Y-106686451D01*
X91687430Y-106681811D01*
X91752370Y-106468069D01*
X91781529Y-106246590D01*
X91782444Y-106209144D01*
X91783074Y-106183365D01*
X91783074Y-106183361D01*
X91783156Y-106180000D01*
X91764852Y-105957361D01*
X91710431Y-105740702D01*
X91621354Y-105535840D01*
X91500014Y-105348277D01*
X91349670Y-105183051D01*
X91345619Y-105179852D01*
X91345615Y-105179848D01*
X91178414Y-105047800D01*
X91178410Y-105047798D01*
X91174359Y-105044598D01*
X91133053Y-105021796D01*
X91083084Y-104971364D01*
X91068312Y-104901921D01*
X91093428Y-104835516D01*
X91120780Y-104808909D01*
X91164603Y-104777650D01*
X91299860Y-104681173D01*
X91458096Y-104523489D01*
X91517594Y-104440689D01*
X91585435Y-104346277D01*
X91588453Y-104342077D01*
X91609320Y-104299857D01*
X91685136Y-104146453D01*
X91685137Y-104146451D01*
X91687430Y-104141811D01*
X91752370Y-103928069D01*
X91781529Y-103706590D01*
X91782444Y-103669144D01*
X91783074Y-103643365D01*
X91783074Y-103643361D01*
X91783156Y-103640000D01*
X91764852Y-103417361D01*
X91710431Y-103200702D01*
X91621354Y-102995840D01*
X91500014Y-102808277D01*
X91349670Y-102643051D01*
X91345619Y-102639852D01*
X91345615Y-102639848D01*
X91178414Y-102507800D01*
X91178410Y-102507798D01*
X91174359Y-102504598D01*
X91132569Y-102481529D01*
X91082598Y-102431097D01*
X91067826Y-102361654D01*
X91092942Y-102295248D01*
X91120294Y-102268641D01*
X91295328Y-102143792D01*
X91303200Y-102137139D01*
X91454052Y-101986812D01*
X91460730Y-101978965D01*
X91585003Y-101806020D01*
X91590313Y-101797183D01*
X91684670Y-101606267D01*
X91688469Y-101596672D01*
X91750377Y-101392910D01*
X91752555Y-101382837D01*
X91753986Y-101371962D01*
X91751775Y-101357778D01*
X91738617Y-101354000D01*
X90292000Y-101354000D01*
X90223879Y-101333998D01*
X90177386Y-101280342D01*
X90166000Y-101228000D01*
X90166000Y-100972000D01*
X90186002Y-100903879D01*
X90239658Y-100857386D01*
X90292000Y-100846000D01*
X91738344Y-100846000D01*
X91751875Y-100842027D01*
X91753180Y-100832947D01*
X91711214Y-100665875D01*
X91707894Y-100656124D01*
X91622972Y-100460814D01*
X91618105Y-100451739D01*
X91502426Y-100272926D01*
X91496136Y-100264757D01*
X91352806Y-100107240D01*
X91345273Y-100100215D01*
X91178139Y-99968222D01*
X91169556Y-99962520D01*
X91132602Y-99942120D01*
X91082631Y-99891687D01*
X91067859Y-99822245D01*
X91092975Y-99755839D01*
X91120327Y-99729232D01*
X91143797Y-99712491D01*
X91299860Y-99601173D01*
X91458096Y-99443489D01*
X91517594Y-99360689D01*
X91585435Y-99266277D01*
X91588453Y-99262077D01*
X91609320Y-99219857D01*
X91685136Y-99066453D01*
X91685137Y-99066451D01*
X91687430Y-99061811D01*
X91752370Y-98848069D01*
X91781529Y-98626590D01*
X91782444Y-98589144D01*
X91783074Y-98563365D01*
X91783074Y-98563361D01*
X91783156Y-98560000D01*
X91764852Y-98337361D01*
X91710431Y-98120702D01*
X91621354Y-97915840D01*
X91500014Y-97728277D01*
X91349670Y-97563051D01*
X91345619Y-97559852D01*
X91345615Y-97559848D01*
X91178414Y-97427800D01*
X91178410Y-97427798D01*
X91174359Y-97424598D01*
X91133053Y-97401796D01*
X91083084Y-97351364D01*
X91068312Y-97281921D01*
X91093428Y-97215516D01*
X91120780Y-97188909D01*
X91164603Y-97157650D01*
X91299860Y-97061173D01*
X91458096Y-96903489D01*
X91517594Y-96820689D01*
X91585435Y-96726277D01*
X91588453Y-96722077D01*
X91609320Y-96679857D01*
X91685136Y-96526453D01*
X91685137Y-96526451D01*
X91687430Y-96521811D01*
X91752370Y-96308069D01*
X91781529Y-96086590D01*
X91782097Y-96063357D01*
X91783074Y-96023365D01*
X91783074Y-96023361D01*
X91783156Y-96020000D01*
X91764852Y-95797361D01*
X91710431Y-95580702D01*
X91621354Y-95375840D01*
X91500014Y-95188277D01*
X91349670Y-95023051D01*
X91345619Y-95019852D01*
X91345615Y-95019848D01*
X91178414Y-94887800D01*
X91178410Y-94887798D01*
X91174359Y-94884598D01*
X91133053Y-94861796D01*
X91083084Y-94811364D01*
X91068312Y-94741921D01*
X91093428Y-94675516D01*
X91120780Y-94648909D01*
X91164603Y-94617650D01*
X91299860Y-94521173D01*
X91306875Y-94514183D01*
X91454435Y-94367137D01*
X91458096Y-94363489D01*
X91588453Y-94182077D01*
X91601995Y-94154678D01*
X91685136Y-93986453D01*
X91685137Y-93986451D01*
X91687430Y-93981811D01*
X91719900Y-93874940D01*
X91750865Y-93773023D01*
X91750865Y-93773021D01*
X91752370Y-93768069D01*
X91781529Y-93546590D01*
X91781611Y-93543240D01*
X91783074Y-93483365D01*
X91783074Y-93483361D01*
X91783156Y-93480000D01*
X91764852Y-93257361D01*
X91710431Y-93040702D01*
X91621354Y-92835840D01*
X91500014Y-92648277D01*
X91349670Y-92483051D01*
X91345619Y-92479852D01*
X91345615Y-92479848D01*
X91178414Y-92347800D01*
X91178410Y-92347798D01*
X91174359Y-92344598D01*
X91133053Y-92321796D01*
X91083084Y-92271364D01*
X91069328Y-92206695D01*
X114637251Y-92206695D01*
X114637548Y-92211848D01*
X114637548Y-92211851D01*
X114643906Y-92322120D01*
X114650110Y-92429715D01*
X114651247Y-92434761D01*
X114651248Y-92434767D01*
X114663074Y-92487240D01*
X114699222Y-92647639D01*
X114752995Y-92780066D01*
X114777571Y-92840590D01*
X114783266Y-92854616D01*
X114785965Y-92859020D01*
X114894390Y-93035954D01*
X114899987Y-93045088D01*
X115046250Y-93213938D01*
X115218126Y-93356632D01*
X115291955Y-93399774D01*
X115340679Y-93451412D01*
X115353750Y-93521195D01*
X115327019Y-93586967D01*
X115286562Y-93620327D01*
X115278457Y-93624546D01*
X115269738Y-93630036D01*
X115099433Y-93757905D01*
X115091726Y-93764748D01*
X114944590Y-93918717D01*
X114938104Y-93926727D01*
X114818098Y-94102649D01*
X114813000Y-94111623D01*
X114723338Y-94304783D01*
X114719775Y-94314470D01*
X114664389Y-94514183D01*
X114665912Y-94522607D01*
X114678292Y-94526000D01*
X117318344Y-94526000D01*
X117331875Y-94522027D01*
X117333180Y-94512947D01*
X117291214Y-94345875D01*
X117287894Y-94336124D01*
X117202972Y-94140814D01*
X117198105Y-94131739D01*
X117082426Y-93952926D01*
X117076136Y-93944757D01*
X116932806Y-93787240D01*
X116925273Y-93780215D01*
X116758139Y-93648222D01*
X116749556Y-93642520D01*
X116712602Y-93622120D01*
X116662631Y-93571687D01*
X116647859Y-93502245D01*
X116672975Y-93435839D01*
X116700327Y-93409232D01*
X116723797Y-93392491D01*
X116879860Y-93281173D01*
X116903756Y-93257361D01*
X117034435Y-93127137D01*
X117038096Y-93123489D01*
X117097594Y-93040689D01*
X117165435Y-92946277D01*
X117168453Y-92942077D01*
X117220959Y-92835840D01*
X117265136Y-92746453D01*
X117265137Y-92746451D01*
X117267430Y-92741811D01*
X117332370Y-92528069D01*
X117361529Y-92306590D01*
X117361847Y-92293567D01*
X117363074Y-92243365D01*
X117363074Y-92243361D01*
X117363156Y-92240000D01*
X117344852Y-92017361D01*
X117290431Y-91800702D01*
X117201354Y-91595840D01*
X117101708Y-91441811D01*
X117082822Y-91412617D01*
X117082820Y-91412614D01*
X117080014Y-91408277D01*
X117076532Y-91404450D01*
X116932798Y-91246488D01*
X116901746Y-91182642D01*
X116910141Y-91112143D01*
X116955317Y-91057375D01*
X116981761Y-91043706D01*
X117088297Y-91003767D01*
X117096705Y-91000615D01*
X117213261Y-90913261D01*
X117300615Y-90796705D01*
X117351745Y-90660316D01*
X117358500Y-90598134D01*
X117358500Y-88801866D01*
X117351745Y-88739684D01*
X117300615Y-88603295D01*
X117213261Y-88486739D01*
X117096705Y-88399385D01*
X116960316Y-88348255D01*
X116898134Y-88341500D01*
X115101866Y-88341500D01*
X115039684Y-88348255D01*
X114903295Y-88399385D01*
X114786739Y-88486739D01*
X114699385Y-88603295D01*
X114648255Y-88739684D01*
X114641500Y-88801866D01*
X114641500Y-90598134D01*
X114648255Y-90660316D01*
X114699385Y-90796705D01*
X114786739Y-90913261D01*
X114903295Y-91000615D01*
X114911704Y-91003767D01*
X114911705Y-91003768D01*
X115020451Y-91044535D01*
X115077216Y-91087176D01*
X115101916Y-91153738D01*
X115086709Y-91223087D01*
X115067316Y-91249568D01*
X114940629Y-91382138D01*
X114814743Y-91566680D01*
X114777463Y-91646994D01*
X114733972Y-91740688D01*
X114720688Y-91769305D01*
X114660989Y-91984570D01*
X114637251Y-92206695D01*
X91069328Y-92206695D01*
X91068312Y-92201921D01*
X91093428Y-92135516D01*
X91120780Y-92108909D01*
X91164603Y-92077650D01*
X91299860Y-91981173D01*
X91458096Y-91823489D01*
X91517594Y-91740689D01*
X91585435Y-91646277D01*
X91588453Y-91642077D01*
X91609320Y-91599857D01*
X91685136Y-91446453D01*
X91685137Y-91446451D01*
X91687430Y-91441811D01*
X91752370Y-91228069D01*
X91781529Y-91006590D01*
X91783156Y-90940000D01*
X91764852Y-90717361D01*
X91710431Y-90500702D01*
X91621354Y-90295840D01*
X91500014Y-90108277D01*
X91349670Y-89943051D01*
X91345619Y-89939852D01*
X91345615Y-89939848D01*
X91178414Y-89807800D01*
X91178410Y-89807798D01*
X91174359Y-89804598D01*
X91133053Y-89781796D01*
X91083084Y-89731364D01*
X91068312Y-89661921D01*
X91093428Y-89595516D01*
X91120780Y-89568909D01*
X91164603Y-89537650D01*
X91299860Y-89441173D01*
X91458096Y-89283489D01*
X91517594Y-89200689D01*
X91585435Y-89106277D01*
X91588453Y-89102077D01*
X91609320Y-89059857D01*
X91685136Y-88906453D01*
X91685137Y-88906451D01*
X91687430Y-88901811D01*
X91752370Y-88688069D01*
X91781529Y-88466590D01*
X91781611Y-88463240D01*
X91783074Y-88403365D01*
X91783074Y-88403361D01*
X91783156Y-88400000D01*
X91764852Y-88177361D01*
X91710431Y-87960702D01*
X91621354Y-87755840D01*
X91500014Y-87568277D01*
X91349670Y-87403051D01*
X91345619Y-87399852D01*
X91345615Y-87399848D01*
X91178414Y-87267800D01*
X91178410Y-87267798D01*
X91174359Y-87264598D01*
X91133053Y-87241796D01*
X91083084Y-87191364D01*
X91068312Y-87121921D01*
X91093428Y-87055516D01*
X91120780Y-87028909D01*
X91164603Y-86997650D01*
X91299860Y-86901173D01*
X91458096Y-86743489D01*
X91588453Y-86562077D01*
X91601995Y-86534678D01*
X91685136Y-86366453D01*
X91685137Y-86366451D01*
X91687430Y-86361811D01*
X91752370Y-86148069D01*
X91781529Y-85926590D01*
X91783156Y-85860000D01*
X91764852Y-85637361D01*
X91710431Y-85420702D01*
X91621354Y-85215840D01*
X91500014Y-85028277D01*
X91349670Y-84863051D01*
X91345619Y-84859852D01*
X91345615Y-84859848D01*
X91178414Y-84727800D01*
X91178410Y-84727798D01*
X91174359Y-84724598D01*
X91133053Y-84701796D01*
X91083084Y-84651364D01*
X91068312Y-84581921D01*
X91093428Y-84515516D01*
X91120780Y-84488909D01*
X91164603Y-84457650D01*
X91299860Y-84361173D01*
X91458096Y-84203489D01*
X91464032Y-84195229D01*
X91585435Y-84026277D01*
X91588453Y-84022077D01*
X91609320Y-83979857D01*
X91685136Y-83826453D01*
X91685137Y-83826451D01*
X91687430Y-83821811D01*
X91752370Y-83608069D01*
X91781529Y-83386590D01*
X91783156Y-83320000D01*
X91764852Y-83097361D01*
X91710431Y-82880702D01*
X91621354Y-82675840D01*
X91500014Y-82488277D01*
X91349670Y-82323051D01*
X91345619Y-82319852D01*
X91345615Y-82319848D01*
X91178414Y-82187800D01*
X91178410Y-82187798D01*
X91174359Y-82184598D01*
X91132569Y-82161529D01*
X91082598Y-82111097D01*
X91067826Y-82041654D01*
X91092942Y-81975248D01*
X91120294Y-81948641D01*
X91295328Y-81823792D01*
X91303200Y-81817139D01*
X91454052Y-81666812D01*
X91460730Y-81658965D01*
X91585003Y-81486020D01*
X91590313Y-81477183D01*
X91684670Y-81286267D01*
X91688469Y-81276672D01*
X91750377Y-81072910D01*
X91752555Y-81062837D01*
X91753986Y-81051962D01*
X91751775Y-81037778D01*
X91738617Y-81034000D01*
X90292000Y-81034000D01*
X90223879Y-81013998D01*
X90177386Y-80960342D01*
X90166000Y-80908000D01*
X90166000Y-80652000D01*
X90186002Y-80583879D01*
X90239658Y-80537386D01*
X90292000Y-80526000D01*
X91738344Y-80526000D01*
X91751875Y-80522027D01*
X91753180Y-80512947D01*
X91711214Y-80345875D01*
X91707894Y-80336124D01*
X91622972Y-80140814D01*
X91618105Y-80131739D01*
X91502426Y-79952926D01*
X91496136Y-79944757D01*
X91352806Y-79787240D01*
X91345273Y-79780215D01*
X91178139Y-79648222D01*
X91169556Y-79642520D01*
X91132602Y-79622120D01*
X91082631Y-79571687D01*
X91067859Y-79502245D01*
X91092975Y-79435839D01*
X91120327Y-79409232D01*
X91143797Y-79392491D01*
X91299860Y-79281173D01*
X91458096Y-79123489D01*
X91487966Y-79081921D01*
X91585435Y-78946277D01*
X91588453Y-78942077D01*
X91592778Y-78933327D01*
X91685136Y-78746453D01*
X91685137Y-78746451D01*
X91687430Y-78741811D01*
X91752370Y-78528069D01*
X91781529Y-78306590D01*
X91783156Y-78240000D01*
X91764852Y-78017361D01*
X91710431Y-77800702D01*
X91621354Y-77595840D01*
X91500014Y-77408277D01*
X91349670Y-77243051D01*
X91345619Y-77239852D01*
X91345615Y-77239848D01*
X91178414Y-77107800D01*
X91178410Y-77107798D01*
X91174359Y-77104598D01*
X91133053Y-77081796D01*
X91083084Y-77031364D01*
X91068312Y-76961921D01*
X91093428Y-76895516D01*
X91120780Y-76868909D01*
X91164603Y-76837650D01*
X91212561Y-76803442D01*
X94051303Y-76803442D01*
X94060017Y-76814962D01*
X94161394Y-76889296D01*
X94169293Y-76894232D01*
X94394901Y-77012930D01*
X94403450Y-77016647D01*
X94644113Y-77100690D01*
X94653122Y-77103104D01*
X94903572Y-77150654D01*
X94912827Y-77151708D01*
X95167557Y-77161717D01*
X95176871Y-77161391D01*
X95430270Y-77133640D01*
X95439447Y-77131939D01*
X95685960Y-77067037D01*
X95694780Y-77064000D01*
X95928997Y-76963373D01*
X95937269Y-76959066D01*
X96154036Y-76824927D01*
X96161579Y-76819447D01*
X96163272Y-76818014D01*
X96171710Y-76805211D01*
X96165645Y-76794855D01*
X96068924Y-76698134D01*
X111111500Y-76698134D01*
X111118255Y-76760316D01*
X111169385Y-76896705D01*
X111256739Y-77013261D01*
X111373295Y-77100615D01*
X111509684Y-77151745D01*
X111571866Y-77158500D01*
X114208134Y-77158500D01*
X114270316Y-77151745D01*
X114406705Y-77100615D01*
X114523261Y-77013261D01*
X114610615Y-76896705D01*
X114661745Y-76760316D01*
X114668500Y-76698134D01*
X114668500Y-75014183D01*
X116214389Y-75014183D01*
X116215912Y-75022607D01*
X116228292Y-75026000D01*
X117277885Y-75026000D01*
X117293124Y-75021525D01*
X117294329Y-75020135D01*
X117296000Y-75012452D01*
X117296000Y-73963102D01*
X117292082Y-73949758D01*
X117277806Y-73947771D01*
X117239324Y-73953660D01*
X117229288Y-73956051D01*
X117026868Y-74022212D01*
X117017359Y-74026209D01*
X116828463Y-74124542D01*
X116819738Y-74130036D01*
X116649433Y-74257905D01*
X116641726Y-74264748D01*
X116494590Y-74418717D01*
X116488104Y-74426727D01*
X116368098Y-74602649D01*
X116363000Y-74611623D01*
X116273338Y-74804783D01*
X116269775Y-74814470D01*
X116214389Y-75014183D01*
X114668500Y-75014183D01*
X114668500Y-74061866D01*
X114661745Y-73999684D01*
X114610615Y-73863295D01*
X114523261Y-73746739D01*
X114406705Y-73659385D01*
X114270316Y-73608255D01*
X114208134Y-73601500D01*
X111571866Y-73601500D01*
X111509684Y-73608255D01*
X111373295Y-73659385D01*
X111256739Y-73746739D01*
X111169385Y-73863295D01*
X111118255Y-73999684D01*
X111111500Y-74061866D01*
X111111500Y-76698134D01*
X96068924Y-76698134D01*
X95122812Y-75752022D01*
X95108868Y-75744408D01*
X95107035Y-75744539D01*
X95100420Y-75748790D01*
X94057961Y-76791249D01*
X94051303Y-76803442D01*
X91212561Y-76803442D01*
X91299860Y-76741173D01*
X91458096Y-76583489D01*
X91474526Y-76560625D01*
X91585435Y-76406277D01*
X91588453Y-76402077D01*
X91601995Y-76374678D01*
X91685136Y-76206453D01*
X91685137Y-76206451D01*
X91687430Y-76201811D01*
X91734674Y-76046313D01*
X91750865Y-75993023D01*
X91750865Y-75993021D01*
X91752370Y-75988069D01*
X91781529Y-75766590D01*
X91782071Y-75744408D01*
X91783074Y-75703365D01*
X91783074Y-75703361D01*
X91783156Y-75700000D01*
X91764852Y-75477361D01*
X91729847Y-75337999D01*
X93327849Y-75337999D01*
X93340080Y-75592619D01*
X93341217Y-75601879D01*
X93390947Y-75851894D01*
X93393441Y-75860887D01*
X93479578Y-76100797D01*
X93483378Y-76109332D01*
X93604031Y-76333877D01*
X93609045Y-76341748D01*
X93675154Y-76430279D01*
X93686414Y-76438729D01*
X93698832Y-76431958D01*
X94737978Y-75392812D01*
X94744356Y-75381132D01*
X95474408Y-75381132D01*
X95474539Y-75382965D01*
X95478790Y-75389580D01*
X96524386Y-76435176D01*
X96536766Y-76441936D01*
X96545107Y-76435692D01*
X96674391Y-76234697D01*
X96678838Y-76226506D01*
X96783536Y-75994085D01*
X96786731Y-75985307D01*
X96855923Y-75739968D01*
X96857781Y-75730839D01*
X96890144Y-75476444D01*
X96890625Y-75470158D01*
X96892903Y-75383160D01*
X96892752Y-75376851D01*
X96873747Y-75121110D01*
X96872370Y-75111904D01*
X96816109Y-74863262D01*
X96813385Y-74854351D01*
X96720990Y-74616758D01*
X96716979Y-74608349D01*
X96590482Y-74387027D01*
X96585269Y-74379298D01*
X96545633Y-74329019D01*
X96533709Y-74320549D01*
X96522174Y-74327036D01*
X95482022Y-75367188D01*
X95474408Y-75381132D01*
X94744356Y-75381132D01*
X94745592Y-75378868D01*
X94745461Y-75377035D01*
X94741210Y-75370420D01*
X93697119Y-74326329D01*
X93683811Y-74319062D01*
X93673772Y-74326184D01*
X93661433Y-74341020D01*
X93656018Y-74348612D01*
X93523776Y-74566540D01*
X93519538Y-74574857D01*
X93420961Y-74809935D01*
X93418000Y-74818785D01*
X93355255Y-75065849D01*
X93353633Y-75075046D01*
X93328094Y-75328673D01*
X93327849Y-75337999D01*
X91729847Y-75337999D01*
X91710431Y-75260702D01*
X91621354Y-75055840D01*
X91500014Y-74868277D01*
X91349670Y-74703051D01*
X91345619Y-74699852D01*
X91345615Y-74699848D01*
X91178414Y-74567800D01*
X91178410Y-74567798D01*
X91174359Y-74564598D01*
X91133053Y-74541796D01*
X91083084Y-74491364D01*
X91068312Y-74421921D01*
X91093428Y-74355516D01*
X91120780Y-74328909D01*
X91179198Y-74287240D01*
X91299860Y-74201173D01*
X91458096Y-74043489D01*
X91517594Y-73960689D01*
X91522144Y-73954357D01*
X94048770Y-73954357D01*
X94053343Y-73964133D01*
X95097188Y-75007978D01*
X95111132Y-75015592D01*
X95112965Y-75015461D01*
X95119580Y-75011210D01*
X96162790Y-73968000D01*
X96169174Y-73956310D01*
X96159762Y-73944199D01*
X96018776Y-73846392D01*
X96010741Y-73841659D01*
X95782106Y-73728909D01*
X95773473Y-73725421D01*
X95530675Y-73647701D01*
X95521624Y-73645528D01*
X95270009Y-73604550D01*
X95260720Y-73603738D01*
X95005828Y-73600401D01*
X94996517Y-73600971D01*
X94743927Y-73635347D01*
X94734808Y-73637285D01*
X94490084Y-73708616D01*
X94481331Y-73711888D01*
X94249837Y-73818608D01*
X94241682Y-73823128D01*
X94057907Y-73943616D01*
X94048770Y-73954357D01*
X91522144Y-73954357D01*
X91585435Y-73866277D01*
X91588453Y-73862077D01*
X91609320Y-73819857D01*
X91685136Y-73666453D01*
X91685137Y-73666451D01*
X91687430Y-73661811D01*
X91752370Y-73448069D01*
X91781529Y-73226590D01*
X91783156Y-73160000D01*
X91764852Y-72937361D01*
X91710431Y-72720702D01*
X91621354Y-72515840D01*
X91568008Y-72433379D01*
X91502822Y-72332617D01*
X91502820Y-72332614D01*
X91500014Y-72328277D01*
X91496532Y-72324450D01*
X91352798Y-72166488D01*
X91321746Y-72102642D01*
X91330141Y-72032143D01*
X91375317Y-71977375D01*
X91401761Y-71963706D01*
X91508297Y-71923767D01*
X91516705Y-71920615D01*
X91633261Y-71833261D01*
X91720615Y-71716705D01*
X91771745Y-71580316D01*
X91778500Y-71518134D01*
X91778500Y-69721866D01*
X91771745Y-69659684D01*
X91720615Y-69523295D01*
X91633261Y-69406739D01*
X91516705Y-69319385D01*
X91380316Y-69268255D01*
X91318134Y-69261500D01*
X89521866Y-69261500D01*
X89459684Y-69268255D01*
X89323295Y-69319385D01*
X89206739Y-69406739D01*
X89119385Y-69523295D01*
X89116233Y-69531703D01*
X89074919Y-69641907D01*
X89032277Y-69698671D01*
X88965716Y-69723371D01*
X88896367Y-69708163D01*
X88863743Y-69682476D01*
X88813151Y-69626875D01*
X88813142Y-69626866D01*
X88809670Y-69623051D01*
X88805619Y-69619852D01*
X88805615Y-69619848D01*
X88638414Y-69487800D01*
X88638410Y-69487798D01*
X88634359Y-69484598D01*
X88438789Y-69376638D01*
X88433920Y-69374914D01*
X88433916Y-69374912D01*
X88233087Y-69303795D01*
X88233083Y-69303794D01*
X88228212Y-69302069D01*
X88223119Y-69301162D01*
X88223116Y-69301161D01*
X88013373Y-69263800D01*
X88013367Y-69263799D01*
X88008284Y-69262894D01*
X87934452Y-69261992D01*
X87790081Y-69260228D01*
X87790079Y-69260228D01*
X87784911Y-69260165D01*
X87564091Y-69293955D01*
X87351756Y-69363357D01*
X87153607Y-69466507D01*
X87149474Y-69469610D01*
X87149471Y-69469612D01*
X86979100Y-69597530D01*
X86974965Y-69600635D01*
X86935525Y-69641907D01*
X86881280Y-69698671D01*
X86820629Y-69762138D01*
X86694743Y-69946680D01*
X86600688Y-70149305D01*
X86540989Y-70364570D01*
X86517251Y-70586695D01*
X86517548Y-70591848D01*
X86517548Y-70591851D01*
X86529812Y-70804547D01*
X86530110Y-70809715D01*
X86531247Y-70814761D01*
X86531248Y-70814767D01*
X86551668Y-70905373D01*
X86579222Y-71027639D01*
X86663266Y-71234616D01*
X86779987Y-71425088D01*
X86926250Y-71593938D01*
X87098126Y-71736632D01*
X87168595Y-71777811D01*
X87171445Y-71779476D01*
X87220169Y-71831114D01*
X87233240Y-71900897D01*
X87206509Y-71966669D01*
X87166055Y-72000027D01*
X87153607Y-72006507D01*
X87149474Y-72009610D01*
X87149471Y-72009612D01*
X87055718Y-72080004D01*
X86974965Y-72140635D01*
X86820629Y-72302138D01*
X86694743Y-72486680D01*
X86600688Y-72689305D01*
X86540989Y-72904570D01*
X86517251Y-73126695D01*
X86517548Y-73131848D01*
X86517548Y-73131851D01*
X86523011Y-73226590D01*
X86530110Y-73349715D01*
X86531247Y-73354761D01*
X86531248Y-73354767D01*
X86551119Y-73442939D01*
X86579222Y-73567639D01*
X86663266Y-73774616D01*
X86704350Y-73841659D01*
X86777291Y-73960688D01*
X86779987Y-73965088D01*
X86926250Y-74133938D01*
X87098126Y-74276632D01*
X87170737Y-74319062D01*
X87171955Y-74319774D01*
X87220679Y-74371412D01*
X87233750Y-74441195D01*
X87207019Y-74506967D01*
X87166562Y-74540327D01*
X87158457Y-74544546D01*
X87149738Y-74550036D01*
X86979433Y-74677905D01*
X86971726Y-74684748D01*
X86824590Y-74838717D01*
X86818104Y-74846727D01*
X86698098Y-75022649D01*
X86693000Y-75031623D01*
X86603338Y-75224783D01*
X86599775Y-75234470D01*
X86544389Y-75434183D01*
X86545912Y-75442607D01*
X86558292Y-75446000D01*
X88008000Y-75446000D01*
X88076121Y-75466002D01*
X88122614Y-75519658D01*
X88134000Y-75572000D01*
X88134000Y-75828000D01*
X88113998Y-75896121D01*
X88060342Y-75942614D01*
X88008000Y-75954000D01*
X86563225Y-75954000D01*
X86549694Y-75957973D01*
X86548257Y-75967966D01*
X86578565Y-76102446D01*
X86581645Y-76112275D01*
X86661770Y-76309603D01*
X86666413Y-76318794D01*
X86777694Y-76500388D01*
X86783777Y-76508699D01*
X86923213Y-76669667D01*
X86930580Y-76676883D01*
X87094434Y-76812916D01*
X87102881Y-76818831D01*
X87171969Y-76859203D01*
X87220693Y-76910842D01*
X87233764Y-76980625D01*
X87207033Y-77046396D01*
X87166584Y-77079752D01*
X87153607Y-77086507D01*
X87149474Y-77089610D01*
X87149471Y-77089612D01*
X87034626Y-77175840D01*
X86974965Y-77220635D01*
X86971393Y-77224373D01*
X86847235Y-77354297D01*
X86820629Y-77382138D01*
X86694743Y-77566680D01*
X86600688Y-77769305D01*
X86540989Y-77984570D01*
X86517251Y-78206695D01*
X86517548Y-78211848D01*
X86517548Y-78211851D01*
X86523011Y-78306590D01*
X86530110Y-78429715D01*
X86531247Y-78434761D01*
X86531248Y-78434767D01*
X86550925Y-78522077D01*
X86579222Y-78647639D01*
X86663266Y-78854616D01*
X86711500Y-78933327D01*
X86777291Y-79040688D01*
X86779987Y-79045088D01*
X86926250Y-79213938D01*
X87098126Y-79356632D01*
X87168595Y-79397811D01*
X87171445Y-79399476D01*
X87220169Y-79451114D01*
X87233240Y-79520897D01*
X87206509Y-79586669D01*
X87166055Y-79620027D01*
X87153607Y-79626507D01*
X87149474Y-79629610D01*
X87149471Y-79629612D01*
X87034626Y-79715840D01*
X86974965Y-79760635D01*
X86971393Y-79764373D01*
X86847235Y-79894297D01*
X86820629Y-79922138D01*
X86694743Y-80106680D01*
X86600688Y-80309305D01*
X86540989Y-80524570D01*
X86517251Y-80746695D01*
X86517548Y-80751848D01*
X86517548Y-80751851D01*
X86519171Y-80780000D01*
X86530110Y-80969715D01*
X86531247Y-80974761D01*
X86531248Y-80974767D01*
X86544597Y-81034000D01*
X86579222Y-81187639D01*
X86637041Y-81330031D01*
X86655873Y-81376408D01*
X86663266Y-81394616D01*
X86667284Y-81401173D01*
X86762231Y-81556112D01*
X86779987Y-81585088D01*
X86926250Y-81753938D01*
X87098126Y-81896632D01*
X87159139Y-81932285D01*
X87171445Y-81939476D01*
X87220169Y-81991114D01*
X87233240Y-82060897D01*
X87206509Y-82126669D01*
X87166055Y-82160027D01*
X87153607Y-82166507D01*
X87149474Y-82169610D01*
X87149471Y-82169612D01*
X87125247Y-82187800D01*
X86974965Y-82300635D01*
X86820629Y-82462138D01*
X86694743Y-82646680D01*
X86600688Y-82849305D01*
X86540989Y-83064570D01*
X86517251Y-83286695D01*
X86517548Y-83291848D01*
X86517548Y-83291851D01*
X86523011Y-83386590D01*
X86530110Y-83509715D01*
X86531247Y-83514761D01*
X86531248Y-83514767D01*
X86551119Y-83602939D01*
X86579222Y-83727639D01*
X86663266Y-83934616D01*
X86701314Y-83996705D01*
X86777291Y-84120688D01*
X86779987Y-84125088D01*
X86926250Y-84293938D01*
X87098126Y-84436632D01*
X87171445Y-84479476D01*
X87171955Y-84479774D01*
X87220679Y-84531412D01*
X87233750Y-84601195D01*
X87207019Y-84666967D01*
X87166562Y-84700327D01*
X87158457Y-84704546D01*
X87149738Y-84710036D01*
X86979433Y-84837905D01*
X86971726Y-84844748D01*
X86824590Y-84998717D01*
X86818104Y-85006727D01*
X86698098Y-85182649D01*
X86693000Y-85191623D01*
X86603338Y-85384783D01*
X86599775Y-85394470D01*
X86544389Y-85594183D01*
X86545912Y-85602607D01*
X86558292Y-85606000D01*
X88008000Y-85606000D01*
X88076121Y-85626002D01*
X88122614Y-85679658D01*
X88134000Y-85732000D01*
X88134000Y-85988000D01*
X88113998Y-86056121D01*
X88060342Y-86102614D01*
X88008000Y-86114000D01*
X86563225Y-86114000D01*
X86549694Y-86117973D01*
X86548257Y-86127966D01*
X86578565Y-86262446D01*
X86581645Y-86272275D01*
X86661770Y-86469603D01*
X86666413Y-86478794D01*
X86777694Y-86660388D01*
X86783777Y-86668699D01*
X86923213Y-86829667D01*
X86930580Y-86836883D01*
X87094434Y-86972916D01*
X87102881Y-86978831D01*
X87171969Y-87019203D01*
X87220693Y-87070842D01*
X87233764Y-87140625D01*
X87207033Y-87206396D01*
X87166584Y-87239752D01*
X87153607Y-87246507D01*
X87149474Y-87249610D01*
X87149471Y-87249612D01*
X87035192Y-87335415D01*
X86974965Y-87380635D01*
X86820629Y-87542138D01*
X86694743Y-87726680D01*
X86600688Y-87929305D01*
X86540989Y-88144570D01*
X86517251Y-88366695D01*
X86517548Y-88371848D01*
X86517548Y-88371851D01*
X86529812Y-88584547D01*
X86530110Y-88589715D01*
X86531247Y-88594761D01*
X86531248Y-88594767D01*
X86533170Y-88603295D01*
X86579222Y-88807639D01*
X86663266Y-89014616D01*
X86714019Y-89097438D01*
X86777291Y-89200688D01*
X86779987Y-89205088D01*
X86926250Y-89373938D01*
X87098126Y-89516632D01*
X87168595Y-89557811D01*
X87171445Y-89559476D01*
X87220169Y-89611114D01*
X87233240Y-89680897D01*
X87206509Y-89746669D01*
X87166055Y-89780027D01*
X87153607Y-89786507D01*
X87149474Y-89789610D01*
X87149471Y-89789612D01*
X87125247Y-89807800D01*
X86974965Y-89920635D01*
X86820629Y-90082138D01*
X86694743Y-90266680D01*
X86600688Y-90469305D01*
X86540989Y-90684570D01*
X86517251Y-90906695D01*
X86517548Y-90911848D01*
X86517548Y-90911851D01*
X86522848Y-91003767D01*
X86530110Y-91129715D01*
X86531247Y-91134761D01*
X86531248Y-91134767D01*
X86552275Y-91228069D01*
X86579222Y-91347639D01*
X86663266Y-91554616D01*
X86714019Y-91637438D01*
X86777291Y-91740688D01*
X86779987Y-91745088D01*
X86926250Y-91913938D01*
X87098126Y-92056632D01*
X87171445Y-92099476D01*
X87171955Y-92099774D01*
X87220679Y-92151412D01*
X87233750Y-92221195D01*
X87207019Y-92286967D01*
X87166562Y-92320327D01*
X87158457Y-92324546D01*
X87149738Y-92330036D01*
X86979433Y-92457905D01*
X86971726Y-92464748D01*
X86824590Y-92618717D01*
X86818104Y-92626727D01*
X86698098Y-92802649D01*
X86693000Y-92811623D01*
X86603338Y-93004783D01*
X86599775Y-93014470D01*
X86544389Y-93214183D01*
X86545912Y-93222607D01*
X86558292Y-93226000D01*
X88008000Y-93226000D01*
X88076121Y-93246002D01*
X88122614Y-93299658D01*
X88134000Y-93352000D01*
X88134000Y-93608000D01*
X88113998Y-93676121D01*
X88060342Y-93722614D01*
X88008000Y-93734000D01*
X86563225Y-93734000D01*
X86549694Y-93737973D01*
X86548257Y-93747966D01*
X86578565Y-93882446D01*
X86581645Y-93892275D01*
X86661770Y-94089603D01*
X86666413Y-94098794D01*
X86777694Y-94280388D01*
X86783777Y-94288699D01*
X86923213Y-94449667D01*
X86930580Y-94456883D01*
X87094434Y-94592916D01*
X87102881Y-94598831D01*
X87171969Y-94639203D01*
X87220693Y-94690842D01*
X87233764Y-94760625D01*
X87207033Y-94826396D01*
X87166584Y-94859752D01*
X87153607Y-94866507D01*
X87149474Y-94869610D01*
X87149471Y-94869612D01*
X87125247Y-94887800D01*
X86974965Y-95000635D01*
X86820629Y-95162138D01*
X86694743Y-95346680D01*
X86600688Y-95549305D01*
X86540989Y-95764570D01*
X86517251Y-95986695D01*
X86517548Y-95991848D01*
X86517548Y-95991851D01*
X86523011Y-96086590D01*
X86530110Y-96209715D01*
X86531247Y-96214761D01*
X86531248Y-96214767D01*
X86549900Y-96297530D01*
X86579222Y-96427639D01*
X86663266Y-96634616D01*
X86714019Y-96717438D01*
X86777291Y-96820688D01*
X86779987Y-96825088D01*
X86926250Y-96993938D01*
X87098126Y-97136632D01*
X87168595Y-97177811D01*
X87171445Y-97179476D01*
X87220169Y-97231114D01*
X87233240Y-97300897D01*
X87206509Y-97366669D01*
X87166055Y-97400027D01*
X87153607Y-97406507D01*
X87149474Y-97409610D01*
X87149471Y-97409612D01*
X87009418Y-97514767D01*
X86974965Y-97540635D01*
X86820629Y-97702138D01*
X86817720Y-97706403D01*
X86817714Y-97706411D01*
X86799838Y-97732617D01*
X86694743Y-97886680D01*
X86679003Y-97920590D01*
X86629945Y-98026277D01*
X86600688Y-98089305D01*
X86540989Y-98304570D01*
X86517251Y-98526695D01*
X86517548Y-98531848D01*
X86517548Y-98531851D01*
X86523011Y-98626590D01*
X86530110Y-98749715D01*
X86531247Y-98754761D01*
X86531248Y-98754767D01*
X86549900Y-98837530D01*
X86579222Y-98967639D01*
X86663266Y-99174616D01*
X86714019Y-99257438D01*
X86777291Y-99360688D01*
X86779987Y-99365088D01*
X86926250Y-99533938D01*
X87098126Y-99676632D01*
X87168595Y-99717811D01*
X87171445Y-99719476D01*
X87220169Y-99771114D01*
X87233240Y-99840897D01*
X87206509Y-99906669D01*
X87166055Y-99940027D01*
X87153607Y-99946507D01*
X87149474Y-99949610D01*
X87149471Y-99949612D01*
X87009418Y-100054767D01*
X86974965Y-100080635D01*
X86820629Y-100242138D01*
X86817715Y-100246410D01*
X86817714Y-100246411D01*
X86799838Y-100272617D01*
X86694743Y-100426680D01*
X86678899Y-100460814D01*
X86629945Y-100566277D01*
X86600688Y-100629305D01*
X86540989Y-100844570D01*
X86517251Y-101066695D01*
X86517548Y-101071848D01*
X86517548Y-101071851D01*
X86521529Y-101140897D01*
X86530110Y-101289715D01*
X86531247Y-101294761D01*
X86531248Y-101294767D01*
X86544597Y-101354000D01*
X86579222Y-101507639D01*
X86663266Y-101714616D01*
X86779987Y-101905088D01*
X86926250Y-102073938D01*
X87098126Y-102216632D01*
X87168595Y-102257811D01*
X87171445Y-102259476D01*
X87220169Y-102311114D01*
X87233240Y-102380897D01*
X87206509Y-102446669D01*
X87166055Y-102480027D01*
X87153607Y-102486507D01*
X87149474Y-102489610D01*
X87149471Y-102489612D01*
X87009418Y-102594767D01*
X86974965Y-102620635D01*
X86820629Y-102782138D01*
X86817720Y-102786403D01*
X86817714Y-102786411D01*
X86799838Y-102812617D01*
X86694743Y-102966680D01*
X86679003Y-103000590D01*
X86629945Y-103106277D01*
X86600688Y-103169305D01*
X86540989Y-103384570D01*
X86517251Y-103606695D01*
X86517548Y-103611848D01*
X86517548Y-103611851D01*
X86523011Y-103706590D01*
X86530110Y-103829715D01*
X86531247Y-103834761D01*
X86531248Y-103834767D01*
X86549900Y-103917530D01*
X86579222Y-104047639D01*
X86663266Y-104254616D01*
X86714019Y-104337438D01*
X86777291Y-104440688D01*
X86779987Y-104445088D01*
X86926250Y-104613938D01*
X87098126Y-104756632D01*
X87171445Y-104799476D01*
X87171955Y-104799774D01*
X87220679Y-104851412D01*
X87233750Y-104921195D01*
X87207019Y-104986967D01*
X87166562Y-105020327D01*
X87158457Y-105024546D01*
X87149738Y-105030036D01*
X86979433Y-105157905D01*
X86971726Y-105164748D01*
X86824590Y-105318717D01*
X86818104Y-105326727D01*
X86698098Y-105502649D01*
X86693000Y-105511623D01*
X86603338Y-105704783D01*
X86599775Y-105714470D01*
X86544389Y-105914183D01*
X86545912Y-105922607D01*
X86558292Y-105926000D01*
X88008000Y-105926000D01*
X88076121Y-105946002D01*
X88122614Y-105999658D01*
X88134000Y-106052000D01*
X88134000Y-106308000D01*
X88113998Y-106376121D01*
X88060342Y-106422614D01*
X88008000Y-106434000D01*
X86563225Y-106434000D01*
X86549694Y-106437973D01*
X86548257Y-106447966D01*
X86578565Y-106582446D01*
X86581645Y-106592275D01*
X86661770Y-106789603D01*
X86666413Y-106798794D01*
X86777694Y-106980388D01*
X86783777Y-106988699D01*
X86923213Y-107149667D01*
X86930580Y-107156883D01*
X87094434Y-107292916D01*
X87102881Y-107298831D01*
X87171969Y-107339203D01*
X87220693Y-107390842D01*
X87233764Y-107460625D01*
X87207033Y-107526396D01*
X87166584Y-107559752D01*
X87153607Y-107566507D01*
X87149474Y-107569610D01*
X87149471Y-107569612D01*
X87009418Y-107674767D01*
X86974965Y-107700635D01*
X86820629Y-107862138D01*
X86817720Y-107866403D01*
X86817714Y-107866411D01*
X86799838Y-107892617D01*
X86694743Y-108046680D01*
X86679003Y-108080590D01*
X86629945Y-108186277D01*
X86600688Y-108249305D01*
X86540989Y-108464570D01*
X86517251Y-108686695D01*
X86517548Y-108691848D01*
X86517548Y-108691851D01*
X86523011Y-108786590D01*
X86530110Y-108909715D01*
X86531247Y-108914761D01*
X86531248Y-108914767D01*
X86549900Y-108997530D01*
X86579222Y-109127639D01*
X86663266Y-109334616D01*
X86714019Y-109417438D01*
X86777291Y-109520688D01*
X86779987Y-109525088D01*
X86926250Y-109693938D01*
X87098126Y-109836632D01*
X87171445Y-109879476D01*
X87171955Y-109879774D01*
X87220679Y-109931412D01*
X87233750Y-110001195D01*
X87207019Y-110066967D01*
X87166562Y-110100327D01*
X87158457Y-110104546D01*
X87149738Y-110110036D01*
X86979433Y-110237905D01*
X86971726Y-110244748D01*
X86824590Y-110398717D01*
X86818104Y-110406727D01*
X86698098Y-110582649D01*
X86693000Y-110591623D01*
X86603338Y-110784783D01*
X86599775Y-110794470D01*
X86544389Y-110994183D01*
X86545912Y-111002607D01*
X86558292Y-111006000D01*
X88008000Y-111006000D01*
X88076121Y-111026002D01*
X88122614Y-111079658D01*
X88134000Y-111132000D01*
X88134000Y-111388000D01*
X88113998Y-111456121D01*
X88060342Y-111502614D01*
X88008000Y-111514000D01*
X86563225Y-111514000D01*
X86549694Y-111517973D01*
X86548257Y-111527966D01*
X86578565Y-111662446D01*
X86581645Y-111672275D01*
X86661770Y-111869603D01*
X86666413Y-111878794D01*
X86777694Y-112060388D01*
X86783777Y-112068699D01*
X86923213Y-112229667D01*
X86930580Y-112236883D01*
X87094434Y-112372916D01*
X87102881Y-112378831D01*
X87171969Y-112419203D01*
X87220693Y-112470842D01*
X87233764Y-112540625D01*
X87207033Y-112606396D01*
X87166584Y-112639752D01*
X87153607Y-112646507D01*
X87149474Y-112649610D01*
X87149471Y-112649612D01*
X87125247Y-112667800D01*
X86974965Y-112780635D01*
X86820629Y-112942138D01*
X86694743Y-113126680D01*
X86600688Y-113329305D01*
X86540989Y-113544570D01*
X86517251Y-113766695D01*
X86517548Y-113771848D01*
X86517548Y-113771851D01*
X86523011Y-113866590D01*
X86530110Y-113989715D01*
X86531247Y-113994761D01*
X86531248Y-113994767D01*
X86551119Y-114082939D01*
X86579222Y-114207639D01*
X86663266Y-114414616D01*
X86704086Y-114481229D01*
X86777291Y-114600688D01*
X86779987Y-114605088D01*
X86926250Y-114773938D01*
X87098126Y-114916632D01*
X87168595Y-114957811D01*
X87171445Y-114959476D01*
X87220169Y-115011114D01*
X87233240Y-115080897D01*
X87206509Y-115146669D01*
X87166055Y-115180027D01*
X87153607Y-115186507D01*
X87149474Y-115189610D01*
X87149471Y-115189612D01*
X87060041Y-115256758D01*
X86974965Y-115320635D01*
X86971393Y-115324373D01*
X86843098Y-115458626D01*
X86820629Y-115482138D01*
X86694743Y-115666680D01*
X86600688Y-115869305D01*
X86540989Y-116084570D01*
X86517251Y-116306695D01*
X86517548Y-116311848D01*
X86517548Y-116311851D01*
X86529812Y-116524547D01*
X86530110Y-116529715D01*
X86531247Y-116534761D01*
X86531248Y-116534767D01*
X86551119Y-116622939D01*
X86579222Y-116747639D01*
X86663266Y-116954616D01*
X86714019Y-117037438D01*
X86777291Y-117140688D01*
X86779987Y-117145088D01*
X86926250Y-117313938D01*
X87098126Y-117456632D01*
X87113013Y-117465331D01*
X87171445Y-117499476D01*
X87220169Y-117551114D01*
X87233240Y-117620897D01*
X87206509Y-117686669D01*
X87166055Y-117720027D01*
X87153607Y-117726507D01*
X87149474Y-117729610D01*
X87149471Y-117729612D01*
X86979100Y-117857530D01*
X86974965Y-117860635D01*
X86820629Y-118022138D01*
X86694743Y-118206680D01*
X86600688Y-118409305D01*
X86540989Y-118624570D01*
X86517251Y-118846695D01*
X86530110Y-119069715D01*
X86531247Y-119074761D01*
X86531248Y-119074767D01*
X86544597Y-119134000D01*
X86579222Y-119287639D01*
X86663266Y-119494616D01*
X86779987Y-119685088D01*
X86926250Y-119853938D01*
X87098126Y-119996632D01*
X87291000Y-120109338D01*
X87406162Y-120153314D01*
X87413955Y-120156290D01*
X87470458Y-120199278D01*
X87494751Y-120265989D01*
X87479121Y-120335243D01*
X87428530Y-120385054D01*
X87369006Y-120400000D01*
X86125513Y-120400000D01*
X86057392Y-120379998D01*
X86010899Y-120326342D01*
X85999514Y-120274488D01*
X85871843Y-87335415D01*
X85871842Y-87335032D01*
X85863962Y-77886590D01*
X85856489Y-68926104D01*
X85876434Y-68857968D01*
X85930051Y-68811430D01*
X85982489Y-68800000D01*
X94657500Y-68800000D01*
X94725621Y-68820002D01*
G37*
%TD.AperFunction*%
%TD*%
M02*
