%TF.GenerationSoftware,KiCad,Pcbnew,(6.0.5-0)*%
%TF.CreationDate,2024-03-04T13:36:45-05:00*%
%TF.ProjectId,CubeSat PCB V0.3,43756265-5361-4742-9050-43422056302e,rev?*%
%TF.SameCoordinates,Original*%
%TF.FileFunction,Soldermask,Bot*%
%TF.FilePolarity,Negative*%
%FSLAX46Y46*%
G04 Gerber Fmt 4.6, Leading zero omitted, Abs format (unit mm)*
G04 Created by KiCad (PCBNEW (6.0.5-0)) date 2024-03-04 13:36:45*
%MOMM*%
%LPD*%
G01*
G04 APERTURE LIST*
G04 Aperture macros list*
%AMRoundRect*
0 Rectangle with rounded corners*
0 $1 Rounding radius*
0 $2 $3 $4 $5 $6 $7 $8 $9 X,Y pos of 4 corners*
0 Add a 4 corners polygon primitive as box body*
4,1,4,$2,$3,$4,$5,$6,$7,$8,$9,$2,$3,0*
0 Add four circle primitives for the rounded corners*
1,1,$1+$1,$2,$3*
1,1,$1+$1,$4,$5*
1,1,$1+$1,$6,$7*
1,1,$1+$1,$8,$9*
0 Add four rect primitives between the rounded corners*
20,1,$1+$1,$2,$3,$4,$5,0*
20,1,$1+$1,$4,$5,$6,$7,0*
20,1,$1+$1,$6,$7,$8,$9,0*
20,1,$1+$1,$8,$9,$2,$3,0*%
G04 Aperture macros list end*
%ADD10R,1.700000X1.700000*%
%ADD11O,1.700000X1.700000*%
%ADD12C,6.000000*%
%ADD13R,1.600000X1.600000*%
%ADD14O,1.600000X1.600000*%
%ADD15R,3.716000X3.716000*%
%ADD16C,3.716000*%
%ADD17O,1.200000X2.400000*%
%ADD18RoundRect,0.102000X-1.387500X-1.387500X1.387500X-1.387500X1.387500X1.387500X-1.387500X1.387500X0*%
%ADD19C,2.979000*%
G04 APERTURE END LIST*
D10*
%TO.C,J7*%
X98325000Y-125500000D03*
D11*
X100865000Y-125500000D03*
%TD*%
D12*
%TO.C,J1*%
X111805000Y-123480000D03*
X88805000Y-123480000D03*
X111805000Y-65480000D03*
X88805000Y-65480000D03*
D10*
X90075000Y-70350000D03*
D11*
X87535000Y-70350000D03*
X90075000Y-72890000D03*
X87535000Y-72890000D03*
X90075000Y-75430000D03*
X87535000Y-75430000D03*
X90075000Y-77970000D03*
X87535000Y-77970000D03*
X90075000Y-80510000D03*
X87535000Y-80510000D03*
X90075000Y-83050000D03*
X87535000Y-83050000D03*
X90075000Y-85590000D03*
X87535000Y-85590000D03*
X90075000Y-88130000D03*
X87535000Y-88130000D03*
X90075000Y-90670000D03*
X87535000Y-90670000D03*
X90075000Y-93210000D03*
X87535000Y-93210000D03*
X90075000Y-95750000D03*
X87535000Y-95750000D03*
X90075000Y-98290000D03*
X87535000Y-98290000D03*
X90075000Y-100830000D03*
X87535000Y-100830000D03*
X90075000Y-103370000D03*
X87535000Y-103370000D03*
X90075000Y-105910000D03*
X87535000Y-105910000D03*
X90075000Y-108450000D03*
X87535000Y-108450000D03*
X90075000Y-110990000D03*
X87535000Y-110990000D03*
X90075000Y-113530000D03*
X87535000Y-113530000D03*
X90075000Y-116070000D03*
X87535000Y-116070000D03*
X90075000Y-118610000D03*
X87535000Y-118610000D03*
%TD*%
D13*
%TO.C,U1*%
X107662000Y-81340000D03*
X105122000Y-81340000D03*
D14*
X96867000Y-81314600D03*
X94327000Y-81340000D03*
D13*
X107789000Y-100136000D03*
X105249000Y-100136000D03*
D14*
X94327000Y-100263000D03*
X96867000Y-100237600D03*
%TD*%
D15*
%TO.C,J4*%
X104150000Y-69900000D03*
D16*
X96950000Y-69900000D03*
D17*
X107300000Y-63900000D03*
X93800000Y-63900000D03*
%TD*%
D18*
%TO.C,SW1*%
X95550000Y-75975000D03*
D19*
X100250000Y-75975000D03*
X104950000Y-75975000D03*
%TD*%
D10*
%TO.C,J5*%
X117550000Y-84875000D03*
D11*
X117550000Y-87415000D03*
X117550000Y-89955000D03*
%TD*%
D10*
%TO.C,J2*%
X117725000Y-78000000D03*
D11*
X117725000Y-75460000D03*
X117725000Y-72920000D03*
X117725000Y-70380000D03*
%TD*%
D10*
%TO.C,J3*%
X117525000Y-96650000D03*
D11*
X117525000Y-99190000D03*
X117525000Y-101730000D03*
X117525000Y-104270000D03*
X117525000Y-106810000D03*
X117525000Y-109350000D03*
X117525000Y-111890000D03*
X117525000Y-114430000D03*
X117525000Y-116970000D03*
%TD*%
M02*
