%TF.GenerationSoftware,KiCad,Pcbnew,(6.0.5-0)*%
%TF.CreationDate,2024-03-04T13:36:44-05:00*%
%TF.ProjectId,CubeSat PCB V0.3,43756265-5361-4742-9050-43422056302e,rev?*%
%TF.SameCoordinates,Original*%
%TF.FileFunction,Soldermask,Top*%
%TF.FilePolarity,Negative*%
%FSLAX46Y46*%
G04 Gerber Fmt 4.6, Leading zero omitted, Abs format (unit mm)*
G04 Created by KiCad (PCBNEW (6.0.5-0)) date 2024-03-04 13:36:44*
%MOMM*%
%LPD*%
G01*
G04 APERTURE LIST*
G04 Aperture macros list*
%AMRoundRect*
0 Rectangle with rounded corners*
0 $1 Rounding radius*
0 $2 $3 $4 $5 $6 $7 $8 $9 X,Y pos of 4 corners*
0 Add a 4 corners polygon primitive as box body*
4,1,4,$2,$3,$4,$5,$6,$7,$8,$9,$2,$3,0*
0 Add four circle primitives for the rounded corners*
1,1,$1+$1,$2,$3*
1,1,$1+$1,$4,$5*
1,1,$1+$1,$6,$7*
1,1,$1+$1,$8,$9*
0 Add four rect primitives between the rounded corners*
20,1,$1+$1,$2,$3,$4,$5,0*
20,1,$1+$1,$4,$5,$6,$7,0*
20,1,$1+$1,$6,$7,$8,$9,0*
20,1,$1+$1,$8,$9,$2,$3,0*%
G04 Aperture macros list end*
%ADD10RoundRect,0.250000X-0.350000X-0.450000X0.350000X-0.450000X0.350000X0.450000X-0.350000X0.450000X0*%
%ADD11RoundRect,0.144000X0.943000X0.258000X-0.943000X0.258000X-0.943000X-0.258000X0.943000X-0.258000X0*%
%ADD12R,2.100000X5.600000*%
%ADD13RoundRect,0.250000X0.350000X0.450000X-0.350000X0.450000X-0.350000X-0.450000X0.350000X-0.450000X0*%
%ADD14RoundRect,0.250000X-0.650000X0.412500X-0.650000X-0.412500X0.650000X-0.412500X0.650000X0.412500X0*%
%ADD15R,1.700000X1.700000*%
%ADD16O,1.700000X1.700000*%
%ADD17C,6.000000*%
%ADD18RoundRect,0.144000X0.913000X0.258000X-0.913000X0.258000X-0.913000X-0.258000X0.913000X-0.258000X0*%
%ADD19RoundRect,0.250000X0.650000X-0.412500X0.650000X0.412500X-0.650000X0.412500X-0.650000X-0.412500X0*%
%ADD20RoundRect,0.250000X-0.412500X-0.650000X0.412500X-0.650000X0.412500X0.650000X-0.412500X0.650000X0*%
%ADD21RoundRect,0.250000X0.450000X-0.350000X0.450000X0.350000X-0.450000X0.350000X-0.450000X-0.350000X0*%
%ADD22R,1.600000X1.600000*%
%ADD23O,1.600000X1.600000*%
%ADD24R,3.716000X3.716000*%
%ADD25C,3.716000*%
%ADD26O,1.200000X2.400000*%
%ADD27RoundRect,0.102000X-1.387500X-1.387500X1.387500X-1.387500X1.387500X1.387500X-1.387500X1.387500X0*%
%ADD28C,2.979000*%
G04 APERTURE END LIST*
D10*
%TO.C,R3*%
X95025000Y-122425000D03*
X97025000Y-122425000D03*
%TD*%
D11*
%TO.C,U2*%
X102725000Y-120175000D03*
X102725000Y-118905000D03*
X102725000Y-117635000D03*
X102725000Y-116365000D03*
X97785000Y-116365000D03*
X97785000Y-117635000D03*
X97785000Y-118905000D03*
X97785000Y-120175000D03*
%TD*%
D12*
%TO.C,Y1*%
X111025000Y-113250000D03*
X111025000Y-104250000D03*
%TD*%
D13*
%TO.C,R2*%
X102775000Y-122450000D03*
X100775000Y-122450000D03*
%TD*%
D14*
%TO.C,C1*%
X112225000Y-96812500D03*
X112225000Y-99937500D03*
%TD*%
D15*
%TO.C,J7*%
X98325000Y-125500000D03*
D16*
X100865000Y-125500000D03*
%TD*%
D17*
%TO.C,J1*%
X111805000Y-123480000D03*
X88805000Y-123480000D03*
X111805000Y-65480000D03*
X88805000Y-65480000D03*
D15*
X90075000Y-70350000D03*
D16*
X87535000Y-70350000D03*
X90075000Y-72890000D03*
X87535000Y-72890000D03*
X90075000Y-75430000D03*
X87535000Y-75430000D03*
X90075000Y-77970000D03*
X87535000Y-77970000D03*
X90075000Y-80510000D03*
X87535000Y-80510000D03*
X90075000Y-83050000D03*
X87535000Y-83050000D03*
X90075000Y-85590000D03*
X87535000Y-85590000D03*
X90075000Y-88130000D03*
X87535000Y-88130000D03*
X90075000Y-90670000D03*
X87535000Y-90670000D03*
X90075000Y-93210000D03*
X87535000Y-93210000D03*
X90075000Y-95750000D03*
X87535000Y-95750000D03*
X90075000Y-98290000D03*
X87535000Y-98290000D03*
X90075000Y-100830000D03*
X87535000Y-100830000D03*
X90075000Y-103370000D03*
X87535000Y-103370000D03*
X90075000Y-105910000D03*
X87535000Y-105910000D03*
X90075000Y-108450000D03*
X87535000Y-108450000D03*
X90075000Y-110990000D03*
X87535000Y-110990000D03*
X90075000Y-113530000D03*
X87535000Y-113530000D03*
X90075000Y-116070000D03*
X87535000Y-116070000D03*
X90075000Y-118610000D03*
X87535000Y-118610000D03*
%TD*%
D18*
%TO.C,U3*%
X105695000Y-113930000D03*
X105695000Y-112660000D03*
X105695000Y-111390000D03*
X105695000Y-110120000D03*
X105695000Y-108850000D03*
X105695000Y-107580000D03*
X105695000Y-106310000D03*
X105695000Y-105040000D03*
X105695000Y-103770000D03*
X96475000Y-103770000D03*
X96475000Y-105040000D03*
X96475000Y-106310000D03*
X96475000Y-107580000D03*
X96475000Y-108850000D03*
X96475000Y-110120000D03*
X96475000Y-111390000D03*
X96475000Y-112660000D03*
X96475000Y-113930000D03*
%TD*%
D19*
%TO.C,C3*%
X106200000Y-119912500D03*
X106200000Y-116787500D03*
%TD*%
D20*
%TO.C,C2*%
X109837500Y-117900000D03*
X112962500Y-117900000D03*
%TD*%
D21*
%TO.C,R1*%
X93400000Y-114725000D03*
X93400000Y-112725000D03*
%TD*%
D22*
%TO.C,U1*%
X107662000Y-81340000D03*
X105122000Y-81340000D03*
D23*
X96867000Y-81314600D03*
X94327000Y-81340000D03*
D22*
X107789000Y-100136000D03*
X105249000Y-100136000D03*
D23*
X94327000Y-100263000D03*
X96867000Y-100237600D03*
%TD*%
D24*
%TO.C,J4*%
X104150000Y-69900000D03*
D25*
X96950000Y-69900000D03*
D26*
X107300000Y-63900000D03*
X93800000Y-63900000D03*
%TD*%
D27*
%TO.C,SW1*%
X95550000Y-75975000D03*
D28*
X100250000Y-75975000D03*
X104950000Y-75975000D03*
%TD*%
D15*
%TO.C,J5*%
X117550000Y-84875000D03*
D16*
X117550000Y-87415000D03*
X117550000Y-89955000D03*
%TD*%
D15*
%TO.C,J2*%
X117725000Y-78000000D03*
D16*
X117725000Y-75460000D03*
X117725000Y-72920000D03*
X117725000Y-70380000D03*
%TD*%
D15*
%TO.C,J3*%
X117525000Y-96650000D03*
D16*
X117525000Y-99190000D03*
X117525000Y-101730000D03*
X117525000Y-104270000D03*
X117525000Y-106810000D03*
X117525000Y-109350000D03*
X117525000Y-111890000D03*
X117525000Y-114430000D03*
X117525000Y-116970000D03*
%TD*%
M02*
