%TF.GenerationSoftware,KiCad,Pcbnew,(6.0.5-0)*%
%TF.CreationDate,2024-03-04T13:36:44-05:00*%
%TF.ProjectId,CubeSat PCB V0.3,43756265-5361-4742-9050-43422056302e,rev?*%
%TF.SameCoordinates,Original*%
%TF.FileFunction,Legend,Top*%
%TF.FilePolarity,Positive*%
%FSLAX46Y46*%
G04 Gerber Fmt 4.6, Leading zero omitted, Abs format (unit mm)*
G04 Created by KiCad (PCBNEW (6.0.5-0)) date 2024-03-04 13:36:44*
%MOMM*%
%LPD*%
G01*
G04 APERTURE LIST*
%ADD10C,0.200000*%
%ADD11C,0.300000*%
%ADD12C,0.150000*%
%ADD13C,0.120000*%
%ADD14C,0.010000*%
%ADD15C,0.127000*%
G04 APERTURE END LIST*
D10*
X107878428Y-85028571D02*
X107821285Y-84971428D01*
X107764142Y-84800000D01*
X107764142Y-84685714D01*
X107821285Y-84514285D01*
X107935571Y-84400000D01*
X108049857Y-84342857D01*
X108278428Y-84285714D01*
X108449857Y-84285714D01*
X108678428Y-84342857D01*
X108792714Y-84400000D01*
X108907000Y-84514285D01*
X108964142Y-84685714D01*
X108964142Y-84800000D01*
X108907000Y-84971428D01*
X108849857Y-85028571D01*
X108564142Y-86057142D02*
X107764142Y-86057142D01*
X108564142Y-85542857D02*
X107935571Y-85542857D01*
X107821285Y-85600000D01*
X107764142Y-85714285D01*
X107764142Y-85885714D01*
X107821285Y-86000000D01*
X107878428Y-86057142D01*
X107764142Y-86628571D02*
X108964142Y-86628571D01*
X108507000Y-86628571D02*
X108564142Y-86742857D01*
X108564142Y-86971428D01*
X108507000Y-87085714D01*
X108449857Y-87142857D01*
X108335571Y-87200000D01*
X107992714Y-87200000D01*
X107878428Y-87142857D01*
X107821285Y-87085714D01*
X107764142Y-86971428D01*
X107764142Y-86742857D01*
X107821285Y-86628571D01*
X107821285Y-88171428D02*
X107764142Y-88057142D01*
X107764142Y-87828571D01*
X107821285Y-87714285D01*
X107935571Y-87657142D01*
X108392714Y-87657142D01*
X108507000Y-87714285D01*
X108564142Y-87828571D01*
X108564142Y-88057142D01*
X108507000Y-88171428D01*
X108392714Y-88228571D01*
X108278428Y-88228571D01*
X108164142Y-87657142D01*
X107821285Y-88685714D02*
X107764142Y-88857142D01*
X107764142Y-89142857D01*
X107821285Y-89257142D01*
X107878428Y-89314285D01*
X107992714Y-89371428D01*
X108107000Y-89371428D01*
X108221285Y-89314285D01*
X108278428Y-89257142D01*
X108335571Y-89142857D01*
X108392714Y-88914285D01*
X108449857Y-88800000D01*
X108507000Y-88742857D01*
X108621285Y-88685714D01*
X108735571Y-88685714D01*
X108849857Y-88742857D01*
X108907000Y-88800000D01*
X108964142Y-88914285D01*
X108964142Y-89200000D01*
X108907000Y-89371428D01*
X107764142Y-90400000D02*
X108392714Y-90400000D01*
X108507000Y-90342857D01*
X108564142Y-90228571D01*
X108564142Y-90000000D01*
X108507000Y-89885714D01*
X107821285Y-90400000D02*
X107764142Y-90285714D01*
X107764142Y-90000000D01*
X107821285Y-89885714D01*
X107935571Y-89828571D01*
X108049857Y-89828571D01*
X108164142Y-89885714D01*
X108221285Y-90000000D01*
X108221285Y-90285714D01*
X108278428Y-90400000D01*
X108564142Y-90800000D02*
X108564142Y-91257142D01*
X108964142Y-90971428D02*
X107935571Y-90971428D01*
X107821285Y-91028571D01*
X107764142Y-91142857D01*
X107764142Y-91257142D01*
X107764142Y-92571428D02*
X108964142Y-92571428D01*
X107764142Y-93142857D02*
X108964142Y-93142857D01*
X108107000Y-93542857D01*
X108964142Y-93942857D01*
X107764142Y-93942857D01*
X108964142Y-94514285D02*
X107992714Y-94514285D01*
X107878428Y-94571428D01*
X107821285Y-94628571D01*
X107764142Y-94742857D01*
X107764142Y-94971428D01*
X107821285Y-95085714D01*
X107878428Y-95142857D01*
X107992714Y-95199999D01*
X108964142Y-95199999D01*
X109021285Y-96628571D02*
X107478428Y-95599999D01*
X106460714Y-83800000D02*
X106460714Y-84200000D01*
X105832142Y-84371428D02*
X105832142Y-83800000D01*
X107032142Y-83800000D01*
X107032142Y-84371428D01*
X106632142Y-84885714D02*
X105832142Y-84885714D01*
X106517857Y-84885714D02*
X106575000Y-84942857D01*
X106632142Y-85057142D01*
X106632142Y-85228571D01*
X106575000Y-85342857D01*
X106460714Y-85400000D01*
X105832142Y-85400000D01*
X105889285Y-86485714D02*
X105832142Y-86371428D01*
X105832142Y-86142857D01*
X105889285Y-86028571D01*
X105946428Y-85971428D01*
X106060714Y-85914285D01*
X106403571Y-85914285D01*
X106517857Y-85971428D01*
X106575000Y-86028571D01*
X106632142Y-86142857D01*
X106632142Y-86371428D01*
X106575000Y-86485714D01*
X105832142Y-87171428D02*
X105889285Y-87057142D01*
X105946428Y-87000000D01*
X106060714Y-86942857D01*
X106403571Y-86942857D01*
X106517857Y-87000000D01*
X106575000Y-87057142D01*
X106632142Y-87171428D01*
X106632142Y-87342857D01*
X106575000Y-87457142D01*
X106517857Y-87514285D01*
X106403571Y-87571428D01*
X106060714Y-87571428D01*
X105946428Y-87514285D01*
X105889285Y-87457142D01*
X105832142Y-87342857D01*
X105832142Y-87171428D01*
X105832142Y-88600000D02*
X107032142Y-88600000D01*
X105889285Y-88600000D02*
X105832142Y-88485714D01*
X105832142Y-88257142D01*
X105889285Y-88142857D01*
X105946428Y-88085714D01*
X106060714Y-88028571D01*
X106403571Y-88028571D01*
X106517857Y-88085714D01*
X106575000Y-88142857D01*
X106632142Y-88257142D01*
X106632142Y-88485714D01*
X106575000Y-88600000D01*
X105889285Y-89628571D02*
X105832142Y-89514285D01*
X105832142Y-89285714D01*
X105889285Y-89171428D01*
X106003571Y-89114285D01*
X106460714Y-89114285D01*
X106575000Y-89171428D01*
X106632142Y-89285714D01*
X106632142Y-89514285D01*
X106575000Y-89628571D01*
X106460714Y-89685714D01*
X106346428Y-89685714D01*
X106232142Y-89114285D01*
X105832142Y-90200000D02*
X106632142Y-90200000D01*
X106403571Y-90200000D02*
X106517857Y-90257142D01*
X106575000Y-90314285D01*
X106632142Y-90428571D01*
X106632142Y-90542857D01*
X105832142Y-91857142D02*
X107032142Y-91857142D01*
X107032142Y-92314285D01*
X106975000Y-92428571D01*
X106917857Y-92485714D01*
X106803571Y-92542857D01*
X106632142Y-92542857D01*
X106517857Y-92485714D01*
X106460714Y-92428571D01*
X106403571Y-92314285D01*
X106403571Y-91857142D01*
X105832142Y-93057142D02*
X106632142Y-93057142D01*
X107032142Y-93057142D02*
X106975000Y-93000000D01*
X106917857Y-93057142D01*
X106975000Y-93114285D01*
X107032142Y-93057142D01*
X106917857Y-93057142D01*
X105832142Y-94542857D02*
X107032142Y-94542857D01*
X106460714Y-94542857D02*
X106460714Y-95228571D01*
X105832142Y-95228571D02*
X107032142Y-95228571D01*
X105832142Y-96314285D02*
X106460714Y-96314285D01*
X106575000Y-96257142D01*
X106632142Y-96142857D01*
X106632142Y-95914285D01*
X106575000Y-95800000D01*
X105889285Y-96314285D02*
X105832142Y-96200000D01*
X105832142Y-95914285D01*
X105889285Y-95800000D01*
X106003571Y-95742857D01*
X106117857Y-95742857D01*
X106232142Y-95800000D01*
X106289285Y-95914285D01*
X106289285Y-96200000D01*
X106346428Y-96314285D01*
X106632142Y-96714285D02*
X106632142Y-97171428D01*
X107032142Y-96885714D02*
X106003571Y-96885714D01*
X105889285Y-96942857D01*
X105832142Y-97057142D01*
X105832142Y-97171428D01*
X105100142Y-85028571D02*
X103900142Y-85428571D01*
X105100142Y-85828571D01*
X105100142Y-86457142D02*
X105100142Y-86571428D01*
X105043000Y-86685714D01*
X104985857Y-86742857D01*
X104871571Y-86800000D01*
X104643000Y-86857142D01*
X104357285Y-86857142D01*
X104128714Y-86800000D01*
X104014428Y-86742857D01*
X103957285Y-86685714D01*
X103900142Y-86571428D01*
X103900142Y-86457142D01*
X103957285Y-86342857D01*
X104014428Y-86285714D01*
X104128714Y-86228571D01*
X104357285Y-86171428D01*
X104643000Y-86171428D01*
X104871571Y-86228571D01*
X104985857Y-86285714D01*
X105043000Y-86342857D01*
X105100142Y-86457142D01*
X104014428Y-87371428D02*
X103957285Y-87428571D01*
X103900142Y-87371428D01*
X103957285Y-87314285D01*
X104014428Y-87371428D01*
X103900142Y-87371428D01*
X105100142Y-87828571D02*
X105100142Y-88571428D01*
X104643000Y-88171428D01*
X104643000Y-88342857D01*
X104585857Y-88457142D01*
X104528714Y-88514285D01*
X104414428Y-88571428D01*
X104128714Y-88571428D01*
X104014428Y-88514285D01*
X103957285Y-88457142D01*
X103900142Y-88342857D01*
X103900142Y-88000000D01*
X103957285Y-87885714D01*
X104014428Y-87828571D01*
X105100142Y-89885714D02*
X105100142Y-90628571D01*
X104643000Y-90228571D01*
X104643000Y-90400000D01*
X104585857Y-90514285D01*
X104528714Y-90571428D01*
X104414428Y-90628571D01*
X104128714Y-90628571D01*
X104014428Y-90571428D01*
X103957285Y-90514285D01*
X103900142Y-90400000D01*
X103900142Y-90057142D01*
X103957285Y-89942857D01*
X104014428Y-89885714D01*
X105157285Y-92000000D02*
X103614428Y-90971428D01*
X104700142Y-92914285D02*
X103900142Y-92914285D01*
X105157285Y-92628571D02*
X104300142Y-92342857D01*
X104300142Y-93085714D01*
X105157285Y-94400000D02*
X103614428Y-93371428D01*
X104985857Y-94742857D02*
X105043000Y-94800000D01*
X105100142Y-94914285D01*
X105100142Y-95200000D01*
X105043000Y-95314285D01*
X104985857Y-95371428D01*
X104871571Y-95428571D01*
X104757285Y-95428571D01*
X104585857Y-95371428D01*
X103900142Y-94685714D01*
X103900142Y-95428571D01*
X104700142Y-96457142D02*
X103900142Y-96457142D01*
X105157285Y-96171428D02*
X104300142Y-95885714D01*
X104300142Y-96628571D01*
X103932142Y-125027142D02*
X103884523Y-125074761D01*
X103741666Y-125122380D01*
X103646428Y-125122380D01*
X103503571Y-125074761D01*
X103408333Y-124979523D01*
X103360714Y-124884285D01*
X103313095Y-124693809D01*
X103313095Y-124550952D01*
X103360714Y-124360476D01*
X103408333Y-124265238D01*
X103503571Y-124170000D01*
X103646428Y-124122380D01*
X103741666Y-124122380D01*
X103884523Y-124170000D01*
X103932142Y-124217619D01*
X104313095Y-124836666D02*
X104789285Y-124836666D01*
X104217857Y-125122380D02*
X104551190Y-124122380D01*
X104884523Y-125122380D01*
X105217857Y-125122380D02*
X105217857Y-124122380D01*
X105789285Y-125122380D01*
X105789285Y-124122380D01*
X103789285Y-126732380D02*
X103313095Y-126732380D01*
X103313095Y-125732380D01*
X104313095Y-125732380D02*
X104503571Y-125732380D01*
X104598809Y-125780000D01*
X104694047Y-125875238D01*
X104741666Y-126065714D01*
X104741666Y-126399047D01*
X104694047Y-126589523D01*
X104598809Y-126684761D01*
X104503571Y-126732380D01*
X104313095Y-126732380D01*
X104217857Y-126684761D01*
X104122619Y-126589523D01*
X104075000Y-126399047D01*
X104075000Y-126065714D01*
X104122619Y-125875238D01*
X104217857Y-125780000D01*
X104313095Y-125732380D01*
X105075000Y-125732380D02*
X105313095Y-126732380D01*
X105503571Y-126018095D01*
X105694047Y-126732380D01*
X105932142Y-125732380D01*
D11*
X101664642Y-80577380D02*
X101664642Y-81010714D01*
X100878928Y-81196428D02*
X100878928Y-80577380D01*
X102378928Y-80577380D01*
X102378928Y-81196428D01*
X101878928Y-81753571D02*
X100878928Y-81753571D01*
X101736071Y-81753571D02*
X101807500Y-81815476D01*
X101878928Y-81939285D01*
X101878928Y-82124999D01*
X101807500Y-82248809D01*
X101664642Y-82310714D01*
X100878928Y-82310714D01*
X101878928Y-83486904D02*
X100664642Y-83486904D01*
X100521785Y-83424999D01*
X100450357Y-83363095D01*
X100378928Y-83239285D01*
X100378928Y-83053571D01*
X100450357Y-82929761D01*
X100950357Y-83486904D02*
X100878928Y-83363095D01*
X100878928Y-83115476D01*
X100950357Y-82991666D01*
X101021785Y-82929761D01*
X101164642Y-82867857D01*
X101593214Y-82867857D01*
X101736071Y-82929761D01*
X101807500Y-82991666D01*
X101878928Y-83115476D01*
X101878928Y-83363095D01*
X101807500Y-83486904D01*
X100878928Y-84105952D02*
X101878928Y-84105952D01*
X102378928Y-84105952D02*
X102307500Y-84044047D01*
X102236071Y-84105952D01*
X102307500Y-84167857D01*
X102378928Y-84105952D01*
X102236071Y-84105952D01*
X101878928Y-84724999D02*
X100878928Y-84724999D01*
X101736071Y-84724999D02*
X101807500Y-84786904D01*
X101878928Y-84910714D01*
X101878928Y-85096428D01*
X101807500Y-85220238D01*
X101664642Y-85282142D01*
X100878928Y-85282142D01*
X100950357Y-86396428D02*
X100878928Y-86272619D01*
X100878928Y-86024999D01*
X100950357Y-85901190D01*
X101093214Y-85839285D01*
X101664642Y-85839285D01*
X101807500Y-85901190D01*
X101878928Y-86024999D01*
X101878928Y-86272619D01*
X101807500Y-86396428D01*
X101664642Y-86458333D01*
X101521785Y-86458333D01*
X101378928Y-85839285D01*
X100950357Y-87510714D02*
X100878928Y-87386904D01*
X100878928Y-87139285D01*
X100950357Y-87015476D01*
X101093214Y-86953571D01*
X101664642Y-86953571D01*
X101807500Y-87015476D01*
X101878928Y-87139285D01*
X101878928Y-87386904D01*
X101807500Y-87510714D01*
X101664642Y-87572619D01*
X101521785Y-87572619D01*
X101378928Y-86953571D01*
X100878928Y-88129761D02*
X101878928Y-88129761D01*
X101593214Y-88129761D02*
X101736071Y-88191666D01*
X101807500Y-88253571D01*
X101878928Y-88377380D01*
X101878928Y-88501190D01*
X100878928Y-88934523D02*
X101878928Y-88934523D01*
X102378928Y-88934523D02*
X102307500Y-88872619D01*
X102236071Y-88934523D01*
X102307500Y-88996428D01*
X102378928Y-88934523D01*
X102236071Y-88934523D01*
X101878928Y-89553571D02*
X100878928Y-89553571D01*
X101736071Y-89553571D02*
X101807500Y-89615476D01*
X101878928Y-89739285D01*
X101878928Y-89924999D01*
X101807500Y-90048809D01*
X101664642Y-90110714D01*
X100878928Y-90110714D01*
X101878928Y-91286904D02*
X100664642Y-91286904D01*
X100521785Y-91224999D01*
X100450357Y-91163095D01*
X100378928Y-91039285D01*
X100378928Y-90853571D01*
X100450357Y-90729761D01*
X100950357Y-91286904D02*
X100878928Y-91163095D01*
X100878928Y-90915476D01*
X100950357Y-90791666D01*
X101021785Y-90729761D01*
X101164642Y-90667857D01*
X101593214Y-90667857D01*
X101736071Y-90729761D01*
X101807500Y-90791666D01*
X101878928Y-90915476D01*
X101878928Y-91163095D01*
X101807500Y-91286904D01*
X100878928Y-92896428D02*
X102378928Y-92896428D01*
X102378928Y-93391666D01*
X102307500Y-93515476D01*
X102236071Y-93577380D01*
X102093214Y-93639285D01*
X101878928Y-93639285D01*
X101736071Y-93577380D01*
X101664642Y-93515476D01*
X101593214Y-93391666D01*
X101593214Y-92896428D01*
X100878928Y-94196428D02*
X102378928Y-94196428D01*
X100878928Y-94753571D02*
X101664642Y-94753571D01*
X101807500Y-94691666D01*
X101878928Y-94567857D01*
X101878928Y-94382142D01*
X101807500Y-94258333D01*
X101736071Y-94196428D01*
X101878928Y-95248809D02*
X100878928Y-95558333D01*
X101878928Y-95867857D02*
X100878928Y-95558333D01*
X100521785Y-95434523D01*
X100450357Y-95372619D01*
X100378928Y-95248809D01*
X100950357Y-96301190D02*
X100878928Y-96424999D01*
X100878928Y-96672619D01*
X100950357Y-96796428D01*
X101093214Y-96858333D01*
X101164642Y-96858333D01*
X101307500Y-96796428D01*
X101378928Y-96672619D01*
X101378928Y-96486904D01*
X101450357Y-96363095D01*
X101593214Y-96301190D01*
X101664642Y-96301190D01*
X101807500Y-96363095D01*
X101878928Y-96486904D01*
X101878928Y-96672619D01*
X101807500Y-96796428D01*
X100878928Y-97415476D02*
X101878928Y-97415476D01*
X102378928Y-97415476D02*
X102307500Y-97353571D01*
X102236071Y-97415476D01*
X102307500Y-97477380D01*
X102378928Y-97415476D01*
X102236071Y-97415476D01*
X100950357Y-98591666D02*
X100878928Y-98467857D01*
X100878928Y-98220238D01*
X100950357Y-98096428D01*
X101021785Y-98034523D01*
X101164642Y-97972619D01*
X101593214Y-97972619D01*
X101736071Y-98034523D01*
X101807500Y-98096428D01*
X101878928Y-98220238D01*
X101878928Y-98467857D01*
X101807500Y-98591666D01*
X100950357Y-99086904D02*
X100878928Y-99210714D01*
X100878928Y-99458333D01*
X100950357Y-99582142D01*
X101093214Y-99644047D01*
X101164642Y-99644047D01*
X101307500Y-99582142D01*
X101378928Y-99458333D01*
X101378928Y-99272619D01*
X101450357Y-99148809D01*
X101593214Y-99086904D01*
X101664642Y-99086904D01*
X101807500Y-99148809D01*
X101878928Y-99272619D01*
X101878928Y-99458333D01*
X101807500Y-99582142D01*
X98463928Y-83517857D02*
X99963928Y-83517857D01*
X99963928Y-84013095D01*
X99892500Y-84136904D01*
X99821071Y-84198809D01*
X99678214Y-84260714D01*
X99463928Y-84260714D01*
X99321071Y-84198809D01*
X99249642Y-84136904D01*
X99178214Y-84013095D01*
X99178214Y-83517857D01*
X98463928Y-84817857D02*
X99463928Y-84817857D01*
X99178214Y-84817857D02*
X99321071Y-84879761D01*
X99392500Y-84941666D01*
X99463928Y-85065476D01*
X99463928Y-85189285D01*
X98463928Y-85808333D02*
X98535357Y-85684523D01*
X98606785Y-85622619D01*
X98749642Y-85560714D01*
X99178214Y-85560714D01*
X99321071Y-85622619D01*
X99392500Y-85684523D01*
X99463928Y-85808333D01*
X99463928Y-85994047D01*
X99392500Y-86117857D01*
X99321071Y-86179761D01*
X99178214Y-86241666D01*
X98749642Y-86241666D01*
X98606785Y-86179761D01*
X98535357Y-86117857D01*
X98463928Y-85994047D01*
X98463928Y-85808333D01*
X99463928Y-86798809D02*
X97963928Y-86798809D01*
X99392500Y-86798809D02*
X99463928Y-86922619D01*
X99463928Y-87170238D01*
X99392500Y-87294047D01*
X99321071Y-87355952D01*
X99178214Y-87417857D01*
X98749642Y-87417857D01*
X98606785Y-87355952D01*
X98535357Y-87294047D01*
X98463928Y-87170238D01*
X98463928Y-86922619D01*
X98535357Y-86798809D01*
X99463928Y-88532142D02*
X98463928Y-88532142D01*
X99463928Y-87975000D02*
X98678214Y-87975000D01*
X98535357Y-88036904D01*
X98463928Y-88160714D01*
X98463928Y-88346428D01*
X98535357Y-88470238D01*
X98606785Y-88532142D01*
X98463928Y-89336904D02*
X98535357Y-89213095D01*
X98678214Y-89151190D01*
X99963928Y-89151190D01*
X98535357Y-89770238D02*
X98463928Y-89894047D01*
X98463928Y-90141666D01*
X98535357Y-90265476D01*
X98678214Y-90327380D01*
X98749642Y-90327380D01*
X98892500Y-90265476D01*
X98963928Y-90141666D01*
X98963928Y-89955952D01*
X99035357Y-89832142D01*
X99178214Y-89770238D01*
X99249642Y-89770238D01*
X99392500Y-89832142D01*
X99463928Y-89955952D01*
X99463928Y-90141666D01*
X99392500Y-90265476D01*
X98463928Y-90884523D02*
X99463928Y-90884523D01*
X99963928Y-90884523D02*
X99892500Y-90822619D01*
X99821071Y-90884523D01*
X99892500Y-90946428D01*
X99963928Y-90884523D01*
X99821071Y-90884523D01*
X98463928Y-91689285D02*
X98535357Y-91565476D01*
X98606785Y-91503571D01*
X98749642Y-91441666D01*
X99178214Y-91441666D01*
X99321071Y-91503571D01*
X99392500Y-91565476D01*
X99463928Y-91689285D01*
X99463928Y-91875000D01*
X99392500Y-91998809D01*
X99321071Y-92060714D01*
X99178214Y-92122619D01*
X98749642Y-92122619D01*
X98606785Y-92060714D01*
X98535357Y-91998809D01*
X98463928Y-91875000D01*
X98463928Y-91689285D01*
X99463928Y-92679761D02*
X98463928Y-92679761D01*
X99321071Y-92679761D02*
X99392500Y-92741666D01*
X99463928Y-92865476D01*
X99463928Y-93051190D01*
X99392500Y-93175000D01*
X99249642Y-93236904D01*
X98463928Y-93236904D01*
X98463928Y-95465476D02*
X98463928Y-94846428D01*
X99963928Y-94846428D01*
X98463928Y-96455952D02*
X99249642Y-96455952D01*
X99392500Y-96394047D01*
X99463928Y-96270238D01*
X99463928Y-96022619D01*
X99392500Y-95898809D01*
X98535357Y-96455952D02*
X98463928Y-96332142D01*
X98463928Y-96022619D01*
X98535357Y-95898809D01*
X98678214Y-95836904D01*
X98821071Y-95836904D01*
X98963928Y-95898809D01*
X99035357Y-96022619D01*
X99035357Y-96332142D01*
X99106785Y-96455952D01*
X98463928Y-97075000D02*
X99963928Y-97075000D01*
X99392500Y-97075000D02*
X99463928Y-97198809D01*
X99463928Y-97446428D01*
X99392500Y-97570238D01*
X99321071Y-97632142D01*
X99178214Y-97694047D01*
X98749642Y-97694047D01*
X98606785Y-97632142D01*
X98535357Y-97570238D01*
X98463928Y-97446428D01*
X98463928Y-97198809D01*
X98535357Y-97075000D01*
D10*
X93682142Y-124952142D02*
X93634523Y-124999761D01*
X93491666Y-125047380D01*
X93396428Y-125047380D01*
X93253571Y-124999761D01*
X93158333Y-124904523D01*
X93110714Y-124809285D01*
X93063095Y-124618809D01*
X93063095Y-124475952D01*
X93110714Y-124285476D01*
X93158333Y-124190238D01*
X93253571Y-124095000D01*
X93396428Y-124047380D01*
X93491666Y-124047380D01*
X93634523Y-124095000D01*
X93682142Y-124142619D01*
X94063095Y-124761666D02*
X94539285Y-124761666D01*
X93967857Y-125047380D02*
X94301190Y-124047380D01*
X94634523Y-125047380D01*
X94967857Y-125047380D02*
X94967857Y-124047380D01*
X95539285Y-125047380D01*
X95539285Y-124047380D01*
X92777380Y-126657380D02*
X92777380Y-125657380D01*
X92777380Y-126133571D02*
X93348809Y-126133571D01*
X93348809Y-126657380D02*
X93348809Y-125657380D01*
X93825000Y-126657380D02*
X93825000Y-125657380D01*
X94825000Y-125705000D02*
X94729761Y-125657380D01*
X94586904Y-125657380D01*
X94444047Y-125705000D01*
X94348809Y-125800238D01*
X94301190Y-125895476D01*
X94253571Y-126085952D01*
X94253571Y-126228809D01*
X94301190Y-126419285D01*
X94348809Y-126514523D01*
X94444047Y-126609761D01*
X94586904Y-126657380D01*
X94682142Y-126657380D01*
X94825000Y-126609761D01*
X94872619Y-126562142D01*
X94872619Y-126228809D01*
X94682142Y-126228809D01*
X95301190Y-126657380D02*
X95301190Y-125657380D01*
X95301190Y-126133571D02*
X95872619Y-126133571D01*
X95872619Y-126657380D02*
X95872619Y-125657380D01*
D12*
X104192857Y-65401428D02*
X104050000Y-65353809D01*
X104002380Y-65306190D01*
X103954761Y-65210952D01*
X103954761Y-65068095D01*
X104002380Y-64972857D01*
X104050000Y-64925238D01*
X104145238Y-64877619D01*
X104526190Y-64877619D01*
X104526190Y-65877619D01*
X104192857Y-65877619D01*
X104097619Y-65830000D01*
X104050000Y-65782380D01*
X104002380Y-65687142D01*
X104002380Y-65591904D01*
X104050000Y-65496666D01*
X104097619Y-65449047D01*
X104192857Y-65401428D01*
X104526190Y-65401428D01*
X103573809Y-65163333D02*
X103097619Y-65163333D01*
X103669047Y-64877619D02*
X103335714Y-65877619D01*
X103002380Y-64877619D01*
X102811904Y-65877619D02*
X102240476Y-65877619D01*
X102526190Y-64877619D02*
X102526190Y-65877619D01*
X102050000Y-65877619D02*
X101478571Y-65877619D01*
X101764285Y-64877619D02*
X101764285Y-65877619D01*
X101145238Y-65401428D02*
X100811904Y-65401428D01*
X100669047Y-64877619D02*
X101145238Y-64877619D01*
X101145238Y-65877619D01*
X100669047Y-65877619D01*
X99669047Y-64877619D02*
X100002380Y-65353809D01*
X100240476Y-64877619D02*
X100240476Y-65877619D01*
X99859523Y-65877619D01*
X99764285Y-65830000D01*
X99716666Y-65782380D01*
X99669047Y-65687142D01*
X99669047Y-65544285D01*
X99716666Y-65449047D01*
X99764285Y-65401428D01*
X99859523Y-65353809D01*
X100240476Y-65353809D01*
X99050000Y-65353809D02*
X99050000Y-64877619D01*
X99383333Y-65877619D02*
X99050000Y-65353809D01*
X98716666Y-65877619D01*
X97621428Y-64877619D02*
X97621428Y-65877619D01*
X97145238Y-64877619D02*
X97145238Y-65877619D01*
X96573809Y-64877619D01*
X96573809Y-65877619D01*
X105788095Y-64267619D02*
X105978571Y-64267619D01*
X106073809Y-64220000D01*
X106121428Y-64172380D01*
X106216666Y-64029523D01*
X106264285Y-63839047D01*
X106264285Y-63458095D01*
X106216666Y-63362857D01*
X106169047Y-63315238D01*
X106073809Y-63267619D01*
X105883333Y-63267619D01*
X105788095Y-63315238D01*
X105740476Y-63362857D01*
X105692857Y-63458095D01*
X105692857Y-63696190D01*
X105740476Y-63791428D01*
X105788095Y-63839047D01*
X105883333Y-63886666D01*
X106073809Y-63886666D01*
X106169047Y-63839047D01*
X106216666Y-63791428D01*
X106264285Y-63696190D01*
X105311904Y-63315238D02*
X105169047Y-63267619D01*
X104930952Y-63267619D01*
X104835714Y-63315238D01*
X104788095Y-63362857D01*
X104740476Y-63458095D01*
X104740476Y-63553333D01*
X104788095Y-63648571D01*
X104835714Y-63696190D01*
X104930952Y-63743809D01*
X105121428Y-63791428D01*
X105216666Y-63839047D01*
X105264285Y-63886666D01*
X105311904Y-63981904D01*
X105311904Y-64077142D01*
X105264285Y-64172380D01*
X105216666Y-64220000D01*
X105121428Y-64267619D01*
X104883333Y-64267619D01*
X104740476Y-64220000D01*
X103264285Y-62886666D02*
X103311904Y-62934285D01*
X103407142Y-63077142D01*
X103454761Y-63172380D01*
X103502380Y-63315238D01*
X103550000Y-63553333D01*
X103550000Y-63743809D01*
X103502380Y-63981904D01*
X103454761Y-64124761D01*
X103407142Y-64220000D01*
X103311904Y-64362857D01*
X103264285Y-64410476D01*
X102930952Y-64172380D02*
X102883333Y-64220000D01*
X102788095Y-64267619D01*
X102550000Y-64267619D01*
X102454761Y-64220000D01*
X102407142Y-64172380D01*
X102359523Y-64077142D01*
X102359523Y-63981904D01*
X102407142Y-63839047D01*
X102978571Y-63267619D01*
X102359523Y-63267619D01*
X101454761Y-64267619D02*
X101930952Y-64267619D01*
X101978571Y-63791428D01*
X101930952Y-63839047D01*
X101835714Y-63886666D01*
X101597619Y-63886666D01*
X101502380Y-63839047D01*
X101454761Y-63791428D01*
X101407142Y-63696190D01*
X101407142Y-63458095D01*
X101454761Y-63362857D01*
X101502380Y-63315238D01*
X101597619Y-63267619D01*
X101835714Y-63267619D01*
X101930952Y-63315238D01*
X101978571Y-63362857D01*
X100978571Y-63362857D02*
X100930952Y-63315238D01*
X100978571Y-63267619D01*
X101026190Y-63315238D01*
X100978571Y-63362857D01*
X100978571Y-63267619D01*
X100550000Y-64172380D02*
X100502380Y-64220000D01*
X100407142Y-64267619D01*
X100169047Y-64267619D01*
X100073809Y-64220000D01*
X100026190Y-64172380D01*
X99978571Y-64077142D01*
X99978571Y-63981904D01*
X100026190Y-63839047D01*
X100597619Y-63267619D01*
X99978571Y-63267619D01*
X99692857Y-64267619D02*
X99359523Y-63267619D01*
X99026190Y-64267619D01*
X97930952Y-63267619D02*
X97930952Y-64267619D01*
X97597619Y-63553333D01*
X97264285Y-64267619D01*
X97264285Y-63267619D01*
X96359523Y-63267619D02*
X96359523Y-63791428D01*
X96407142Y-63886666D01*
X96502380Y-63934285D01*
X96692857Y-63934285D01*
X96788095Y-63886666D01*
X96359523Y-63315238D02*
X96454761Y-63267619D01*
X96692857Y-63267619D01*
X96788095Y-63315238D01*
X96835714Y-63410476D01*
X96835714Y-63505714D01*
X96788095Y-63600952D01*
X96692857Y-63648571D01*
X96454761Y-63648571D01*
X96359523Y-63696190D01*
X95978571Y-63267619D02*
X95454761Y-63934285D01*
X95978571Y-63934285D02*
X95454761Y-63267619D01*
X95169047Y-62886666D02*
X95121428Y-62934285D01*
X95026190Y-63077142D01*
X94978571Y-63172380D01*
X94930952Y-63315238D01*
X94883333Y-63553333D01*
X94883333Y-63743809D01*
X94930952Y-63981904D01*
X94978571Y-64124761D01*
X95026190Y-64220000D01*
X95121428Y-64362857D01*
X95169047Y-64410476D01*
D10*
X96076714Y-89610714D02*
X96019571Y-89782142D01*
X95962428Y-89839285D01*
X95848142Y-89896428D01*
X95676714Y-89896428D01*
X95562428Y-89839285D01*
X95505285Y-89782142D01*
X95448142Y-89667857D01*
X95448142Y-89210714D01*
X96648142Y-89210714D01*
X96648142Y-89610714D01*
X96591000Y-89725000D01*
X96533857Y-89782142D01*
X96419571Y-89839285D01*
X96305285Y-89839285D01*
X96191000Y-89782142D01*
X96133857Y-89725000D01*
X96076714Y-89610714D01*
X96076714Y-89210714D01*
X96248142Y-90296428D02*
X95448142Y-90582142D01*
X96248142Y-90867857D02*
X95448142Y-90582142D01*
X95162428Y-90467857D01*
X95105285Y-90410714D01*
X95048142Y-90296428D01*
X95562428Y-91325000D02*
X95505285Y-91382142D01*
X95448142Y-91325000D01*
X95505285Y-91267857D01*
X95562428Y-91325000D01*
X95448142Y-91325000D01*
X96191000Y-91325000D02*
X96133857Y-91382142D01*
X96076714Y-91325000D01*
X96133857Y-91267857D01*
X96191000Y-91325000D01*
X96076714Y-91325000D01*
X93516142Y-84239285D02*
X94716142Y-84239285D01*
X94716142Y-84525000D01*
X94659000Y-84696428D01*
X94544714Y-84810714D01*
X94430428Y-84867857D01*
X94201857Y-84925000D01*
X94030428Y-84925000D01*
X93801857Y-84867857D01*
X93687571Y-84810714D01*
X93573285Y-84696428D01*
X93516142Y-84525000D01*
X93516142Y-84239285D01*
X94316142Y-85325000D02*
X93516142Y-85610714D01*
X94316142Y-85896428D02*
X93516142Y-85610714D01*
X93230428Y-85496428D01*
X93173285Y-85439285D01*
X93116142Y-85325000D01*
X93516142Y-86525000D02*
X93573285Y-86410714D01*
X93687571Y-86353571D01*
X94716142Y-86353571D01*
X93516142Y-87496428D02*
X94144714Y-87496428D01*
X94259000Y-87439285D01*
X94316142Y-87325000D01*
X94316142Y-87096428D01*
X94259000Y-86982142D01*
X93573285Y-87496428D02*
X93516142Y-87382142D01*
X93516142Y-87096428D01*
X93573285Y-86982142D01*
X93687571Y-86925000D01*
X93801857Y-86925000D01*
X93916142Y-86982142D01*
X93973285Y-87096428D01*
X93973285Y-87382142D01*
X94030428Y-87496428D01*
X94316142Y-88067857D02*
X93516142Y-88067857D01*
X94201857Y-88067857D02*
X94259000Y-88125000D01*
X94316142Y-88239285D01*
X94316142Y-88410714D01*
X94259000Y-88525000D01*
X94144714Y-88582142D01*
X93516142Y-88582142D01*
X94144714Y-90467857D02*
X94087571Y-90639285D01*
X94030428Y-90696428D01*
X93916142Y-90753571D01*
X93744714Y-90753571D01*
X93630428Y-90696428D01*
X93573285Y-90639285D01*
X93516142Y-90525000D01*
X93516142Y-90067857D01*
X94716142Y-90067857D01*
X94716142Y-90467857D01*
X94659000Y-90582142D01*
X94601857Y-90639285D01*
X94487571Y-90696428D01*
X94373285Y-90696428D01*
X94259000Y-90639285D01*
X94201857Y-90582142D01*
X94144714Y-90467857D01*
X94144714Y-90067857D01*
X93516142Y-91782142D02*
X94144714Y-91782142D01*
X94259000Y-91725000D01*
X94316142Y-91610714D01*
X94316142Y-91382142D01*
X94259000Y-91267857D01*
X93573285Y-91782142D02*
X93516142Y-91667857D01*
X93516142Y-91382142D01*
X93573285Y-91267857D01*
X93687571Y-91210714D01*
X93801857Y-91210714D01*
X93916142Y-91267857D01*
X93973285Y-91382142D01*
X93973285Y-91667857D01*
X94030428Y-91782142D01*
X93516142Y-92525000D02*
X93573285Y-92410714D01*
X93687571Y-92353571D01*
X94716142Y-92353571D01*
X93516142Y-93153571D02*
X93573285Y-93039285D01*
X93687571Y-92982142D01*
X94716142Y-92982142D01*
X93516142Y-93610714D02*
X94716142Y-93610714D01*
X94259000Y-93610714D02*
X94316142Y-93725000D01*
X94316142Y-93953571D01*
X94259000Y-94067857D01*
X94201857Y-94125000D01*
X94087571Y-94182142D01*
X93744714Y-94182142D01*
X93630428Y-94125000D01*
X93573285Y-94067857D01*
X93516142Y-93953571D01*
X93516142Y-93725000D01*
X93573285Y-93610714D01*
X93516142Y-95210714D02*
X94144714Y-95210714D01*
X94259000Y-95153571D01*
X94316142Y-95039285D01*
X94316142Y-94810714D01*
X94259000Y-94696428D01*
X93573285Y-95210714D02*
X93516142Y-95096428D01*
X93516142Y-94810714D01*
X93573285Y-94696428D01*
X93687571Y-94639285D01*
X93801857Y-94639285D01*
X93916142Y-94696428D01*
X93973285Y-94810714D01*
X93973285Y-95096428D01*
X94030428Y-95210714D01*
X93573285Y-96296428D02*
X93516142Y-96182142D01*
X93516142Y-95953571D01*
X93573285Y-95839285D01*
X93630428Y-95782142D01*
X93744714Y-95725000D01*
X94087571Y-95725000D01*
X94201857Y-95782142D01*
X94259000Y-95839285D01*
X94316142Y-95953571D01*
X94316142Y-96182142D01*
X94259000Y-96296428D01*
X93516142Y-96810714D02*
X94716142Y-96810714D01*
X93973285Y-96925000D02*
X93516142Y-97267857D01*
X94316142Y-97267857D02*
X93859000Y-96810714D01*
D12*
%TO.C,R3*%
X99052380Y-122591666D02*
X98576190Y-122925000D01*
X99052380Y-123163095D02*
X98052380Y-123163095D01*
X98052380Y-122782142D01*
X98100000Y-122686904D01*
X98147619Y-122639285D01*
X98242857Y-122591666D01*
X98385714Y-122591666D01*
X98480952Y-122639285D01*
X98528571Y-122686904D01*
X98576190Y-122782142D01*
X98576190Y-123163095D01*
X98052380Y-122258333D02*
X98052380Y-121639285D01*
X98433333Y-121972619D01*
X98433333Y-121829761D01*
X98480952Y-121734523D01*
X98528571Y-121686904D01*
X98623809Y-121639285D01*
X98861904Y-121639285D01*
X98957142Y-121686904D01*
X99004761Y-121734523D01*
X99052380Y-121829761D01*
X99052380Y-122115476D01*
X99004761Y-122210714D01*
X98957142Y-122258333D01*
%TO.C,U2*%
X99513095Y-117752380D02*
X99513095Y-118561904D01*
X99560714Y-118657142D01*
X99608333Y-118704761D01*
X99703571Y-118752380D01*
X99894047Y-118752380D01*
X99989285Y-118704761D01*
X100036904Y-118657142D01*
X100084523Y-118561904D01*
X100084523Y-117752380D01*
X100513095Y-117847619D02*
X100560714Y-117800000D01*
X100655952Y-117752380D01*
X100894047Y-117752380D01*
X100989285Y-117800000D01*
X101036904Y-117847619D01*
X101084523Y-117942857D01*
X101084523Y-118038095D01*
X101036904Y-118180952D01*
X100465476Y-118752380D01*
X101084523Y-118752380D01*
%TO.C,Y1*%
X111001190Y-109226190D02*
X111477380Y-109226190D01*
X110477380Y-109559523D02*
X111001190Y-109226190D01*
X110477380Y-108892857D01*
X111477380Y-108035714D02*
X111477380Y-108607142D01*
X111477380Y-108321428D02*
X110477380Y-108321428D01*
X110620238Y-108416666D01*
X110715476Y-108511904D01*
X110763095Y-108607142D01*
%TO.C,R2*%
X104952380Y-122591666D02*
X104476190Y-122925000D01*
X104952380Y-123163095D02*
X103952380Y-123163095D01*
X103952380Y-122782142D01*
X104000000Y-122686904D01*
X104047619Y-122639285D01*
X104142857Y-122591666D01*
X104285714Y-122591666D01*
X104380952Y-122639285D01*
X104428571Y-122686904D01*
X104476190Y-122782142D01*
X104476190Y-123163095D01*
X104047619Y-122210714D02*
X104000000Y-122163095D01*
X103952380Y-122067857D01*
X103952380Y-121829761D01*
X104000000Y-121734523D01*
X104047619Y-121686904D01*
X104142857Y-121639285D01*
X104238095Y-121639285D01*
X104380952Y-121686904D01*
X104952380Y-122258333D01*
X104952380Y-121639285D01*
%TO.C,C1*%
X112608333Y-95607142D02*
X112560714Y-95654761D01*
X112417857Y-95702380D01*
X112322619Y-95702380D01*
X112179761Y-95654761D01*
X112084523Y-95559523D01*
X112036904Y-95464285D01*
X111989285Y-95273809D01*
X111989285Y-95130952D01*
X112036904Y-94940476D01*
X112084523Y-94845238D01*
X112179761Y-94750000D01*
X112322619Y-94702380D01*
X112417857Y-94702380D01*
X112560714Y-94750000D01*
X112608333Y-94797619D01*
X113560714Y-95702380D02*
X112989285Y-95702380D01*
X113275000Y-95702380D02*
X113275000Y-94702380D01*
X113179761Y-94845238D01*
X113084523Y-94940476D01*
X112989285Y-94988095D01*
%TO.C,U3*%
X100163095Y-112927380D02*
X100163095Y-113736904D01*
X100210714Y-113832142D01*
X100258333Y-113879761D01*
X100353571Y-113927380D01*
X100544047Y-113927380D01*
X100639285Y-113879761D01*
X100686904Y-113832142D01*
X100734523Y-113736904D01*
X100734523Y-112927380D01*
X101115476Y-112927380D02*
X101734523Y-112927380D01*
X101401190Y-113308333D01*
X101544047Y-113308333D01*
X101639285Y-113355952D01*
X101686904Y-113403571D01*
X101734523Y-113498809D01*
X101734523Y-113736904D01*
X101686904Y-113832142D01*
X101639285Y-113879761D01*
X101544047Y-113927380D01*
X101258333Y-113927380D01*
X101163095Y-113879761D01*
X101115476Y-113832142D01*
%TO.C,C3*%
X107383333Y-121907142D02*
X107335714Y-121954761D01*
X107192857Y-122002380D01*
X107097619Y-122002380D01*
X106954761Y-121954761D01*
X106859523Y-121859523D01*
X106811904Y-121764285D01*
X106764285Y-121573809D01*
X106764285Y-121430952D01*
X106811904Y-121240476D01*
X106859523Y-121145238D01*
X106954761Y-121050000D01*
X107097619Y-121002380D01*
X107192857Y-121002380D01*
X107335714Y-121050000D01*
X107383333Y-121097619D01*
X107716666Y-121002380D02*
X108335714Y-121002380D01*
X108002380Y-121383333D01*
X108145238Y-121383333D01*
X108240476Y-121430952D01*
X108288095Y-121478571D01*
X108335714Y-121573809D01*
X108335714Y-121811904D01*
X108288095Y-121907142D01*
X108240476Y-121954761D01*
X108145238Y-122002380D01*
X107859523Y-122002380D01*
X107764285Y-121954761D01*
X107716666Y-121907142D01*
%TO.C,C2*%
X115057142Y-118066666D02*
X115104761Y-118114285D01*
X115152380Y-118257142D01*
X115152380Y-118352380D01*
X115104761Y-118495238D01*
X115009523Y-118590476D01*
X114914285Y-118638095D01*
X114723809Y-118685714D01*
X114580952Y-118685714D01*
X114390476Y-118638095D01*
X114295238Y-118590476D01*
X114200000Y-118495238D01*
X114152380Y-118352380D01*
X114152380Y-118257142D01*
X114200000Y-118114285D01*
X114247619Y-118066666D01*
X114247619Y-117685714D02*
X114200000Y-117638095D01*
X114152380Y-117542857D01*
X114152380Y-117304761D01*
X114200000Y-117209523D01*
X114247619Y-117161904D01*
X114342857Y-117114285D01*
X114438095Y-117114285D01*
X114580952Y-117161904D01*
X115152380Y-117733333D01*
X115152380Y-117114285D01*
%TO.C,R1*%
X93083333Y-116727380D02*
X92750000Y-116251190D01*
X92511904Y-116727380D02*
X92511904Y-115727380D01*
X92892857Y-115727380D01*
X92988095Y-115775000D01*
X93035714Y-115822619D01*
X93083333Y-115917857D01*
X93083333Y-116060714D01*
X93035714Y-116155952D01*
X92988095Y-116203571D01*
X92892857Y-116251190D01*
X92511904Y-116251190D01*
X94035714Y-116727380D02*
X93464285Y-116727380D01*
X93750000Y-116727380D02*
X93750000Y-115727380D01*
X93654761Y-115870238D01*
X93559523Y-115965476D01*
X93464285Y-116013095D01*
D13*
%TO.C,R3*%
X95797936Y-121690000D02*
X96252064Y-121690000D01*
X95797936Y-123160000D02*
X96252064Y-123160000D01*
%TO.C,G\u002A\u002A\u002A*%
G36*
X110528858Y-91345256D02*
G01*
X110684647Y-91483500D01*
X110879292Y-91662387D01*
X111276667Y-92032440D01*
X111276667Y-93717881D01*
X111273505Y-94364017D01*
X111260905Y-94860306D01*
X111234197Y-95226171D01*
X111188709Y-95481031D01*
X111119771Y-95644307D01*
X111022712Y-95735420D01*
X110892862Y-95773790D01*
X110780800Y-95779667D01*
X110646147Y-95773947D01*
X110542627Y-95743757D01*
X110466329Y-95669551D01*
X110413341Y-95531784D01*
X110379750Y-95310908D01*
X110361645Y-94987380D01*
X110355114Y-94541652D01*
X110356246Y-93954180D01*
X110358020Y-93667234D01*
X110363241Y-93101758D01*
X110370796Y-92581643D01*
X110380059Y-92134796D01*
X110390407Y-91789124D01*
X110401214Y-91572537D01*
X110405977Y-91525167D01*
X110437870Y-91356539D01*
X110461582Y-91292334D01*
X110528858Y-91345256D01*
G37*
D14*
X110528858Y-91345256D02*
X110684647Y-91483500D01*
X110879292Y-91662387D01*
X111276667Y-92032440D01*
X111276667Y-93717881D01*
X111273505Y-94364017D01*
X111260905Y-94860306D01*
X111234197Y-95226171D01*
X111188709Y-95481031D01*
X111119771Y-95644307D01*
X111022712Y-95735420D01*
X110892862Y-95773790D01*
X110780800Y-95779667D01*
X110646147Y-95773947D01*
X110542627Y-95743757D01*
X110466329Y-95669551D01*
X110413341Y-95531784D01*
X110379750Y-95310908D01*
X110361645Y-94987380D01*
X110355114Y-94541652D01*
X110356246Y-93954180D01*
X110358020Y-93667234D01*
X110363241Y-93101758D01*
X110370796Y-92581643D01*
X110380059Y-92134796D01*
X110390407Y-91789124D01*
X110401214Y-91572537D01*
X110405977Y-91525167D01*
X110437870Y-91356539D01*
X110461582Y-91292334D01*
X110528858Y-91345256D01*
G36*
X114969728Y-75142431D02*
G01*
X115120070Y-75218095D01*
X115168355Y-75284767D01*
X115193254Y-75415408D01*
X115214023Y-75689107D01*
X115230639Y-76079638D01*
X115243078Y-76560776D01*
X115251318Y-77106297D01*
X115255336Y-77689973D01*
X115255109Y-78285580D01*
X115250614Y-78866892D01*
X115241829Y-79407685D01*
X115228731Y-79881732D01*
X115211296Y-80262807D01*
X115189502Y-80524686D01*
X115173001Y-80618519D01*
X115012441Y-80946185D01*
X114747574Y-81260686D01*
X114434974Y-81496013D01*
X114409334Y-81509577D01*
X114008792Y-81643453D01*
X113560760Y-81681582D01*
X113119642Y-81628362D01*
X112739843Y-81488189D01*
X112559590Y-81360072D01*
X112397086Y-81206787D01*
X112269199Y-81070382D01*
X112171363Y-80928717D01*
X112099013Y-80759648D01*
X112047583Y-80541035D01*
X112012508Y-80250735D01*
X111989223Y-79866607D01*
X111973162Y-79366508D01*
X111959760Y-78728298D01*
X111954000Y-78423000D01*
X111911667Y-76179334D01*
X111209855Y-76137000D01*
X110816056Y-76102638D01*
X110562355Y-76045219D01*
X110419619Y-75947546D01*
X110358714Y-75792424D01*
X110349205Y-75629000D01*
X110384669Y-75400953D01*
X110436782Y-75269167D01*
X110503058Y-75198544D01*
X110624684Y-75154128D01*
X110835415Y-75130330D01*
X111169006Y-75121557D01*
X111331304Y-75121000D01*
X111728993Y-75126386D01*
X112000944Y-75147492D01*
X112190552Y-75191739D01*
X112341208Y-75266548D01*
X112395010Y-75302920D01*
X112537188Y-75414777D01*
X112649018Y-75538402D01*
X112734108Y-75694578D01*
X112796065Y-75904087D01*
X112838496Y-76187714D01*
X112865010Y-76566240D01*
X112879212Y-77060449D01*
X112884711Y-77691123D01*
X112885334Y-78127796D01*
X112885334Y-80208697D01*
X113093152Y-80416515D01*
X113367802Y-80590086D01*
X113605001Y-80624334D01*
X113928021Y-80555241D01*
X114116849Y-80416515D01*
X114324667Y-80208697D01*
X114324667Y-75121000D01*
X114702688Y-75121000D01*
X114969728Y-75142431D01*
G37*
X114969728Y-75142431D02*
X115120070Y-75218095D01*
X115168355Y-75284767D01*
X115193254Y-75415408D01*
X115214023Y-75689107D01*
X115230639Y-76079638D01*
X115243078Y-76560776D01*
X115251318Y-77106297D01*
X115255336Y-77689973D01*
X115255109Y-78285580D01*
X115250614Y-78866892D01*
X115241829Y-79407685D01*
X115228731Y-79881732D01*
X115211296Y-80262807D01*
X115189502Y-80524686D01*
X115173001Y-80618519D01*
X115012441Y-80946185D01*
X114747574Y-81260686D01*
X114434974Y-81496013D01*
X114409334Y-81509577D01*
X114008792Y-81643453D01*
X113560760Y-81681582D01*
X113119642Y-81628362D01*
X112739843Y-81488189D01*
X112559590Y-81360072D01*
X112397086Y-81206787D01*
X112269199Y-81070382D01*
X112171363Y-80928717D01*
X112099013Y-80759648D01*
X112047583Y-80541035D01*
X112012508Y-80250735D01*
X111989223Y-79866607D01*
X111973162Y-79366508D01*
X111959760Y-78728298D01*
X111954000Y-78423000D01*
X111911667Y-76179334D01*
X111209855Y-76137000D01*
X110816056Y-76102638D01*
X110562355Y-76045219D01*
X110419619Y-75947546D01*
X110358714Y-75792424D01*
X110349205Y-75629000D01*
X110384669Y-75400953D01*
X110436782Y-75269167D01*
X110503058Y-75198544D01*
X110624684Y-75154128D01*
X110835415Y-75130330D01*
X111169006Y-75121557D01*
X111331304Y-75121000D01*
X111728993Y-75126386D01*
X112000944Y-75147492D01*
X112190552Y-75191739D01*
X112341208Y-75266548D01*
X112395010Y-75302920D01*
X112537188Y-75414777D01*
X112649018Y-75538402D01*
X112734108Y-75694578D01*
X112796065Y-75904087D01*
X112838496Y-76187714D01*
X112865010Y-76566240D01*
X112879212Y-77060449D01*
X112884711Y-77691123D01*
X112885334Y-78127796D01*
X112885334Y-80208697D01*
X113093152Y-80416515D01*
X113367802Y-80590086D01*
X113605001Y-80624334D01*
X113928021Y-80555241D01*
X114116849Y-80416515D01*
X114324667Y-80208697D01*
X114324667Y-75121000D01*
X114702688Y-75121000D01*
X114969728Y-75142431D01*
G36*
X113159177Y-67780754D02*
G01*
X113740172Y-67923802D01*
X114256774Y-68181173D01*
X114684442Y-68542253D01*
X114998637Y-68996426D01*
X115109573Y-69267556D01*
X115159557Y-69506472D01*
X115200490Y-69866762D01*
X115232293Y-70320775D01*
X115254889Y-70840858D01*
X115268202Y-71399362D01*
X115272155Y-71968634D01*
X115266669Y-72521023D01*
X115251667Y-73028880D01*
X115227073Y-73464551D01*
X115192809Y-73800386D01*
X115148797Y-74008734D01*
X115122953Y-74056619D01*
X114900637Y-74177940D01*
X114658073Y-74139979D01*
X114494000Y-74020334D01*
X114439855Y-73957263D01*
X114398644Y-73875710D01*
X114368612Y-73753568D01*
X114348002Y-73568728D01*
X114335060Y-73299086D01*
X114328029Y-72922533D01*
X114325154Y-72416964D01*
X114324667Y-71888065D01*
X114323575Y-71252416D01*
X114319115Y-70761867D01*
X114309514Y-70392191D01*
X114292999Y-70119164D01*
X114267794Y-69918559D01*
X114232127Y-69766150D01*
X114184223Y-69637711D01*
X114155326Y-69575318D01*
X114016198Y-69368139D01*
X113819520Y-69167362D01*
X113605530Y-69003358D01*
X113414467Y-68906499D01*
X113286567Y-68907158D01*
X113278836Y-68913720D01*
X113264122Y-69009842D01*
X113250900Y-69252383D01*
X113239725Y-69618431D01*
X113231149Y-70085076D01*
X113225727Y-70629406D01*
X113224000Y-71181178D01*
X113223119Y-71883295D01*
X113218361Y-72434342D01*
X113206556Y-72852582D01*
X113184536Y-73156276D01*
X113149130Y-73363686D01*
X113097168Y-73493075D01*
X113025480Y-73562704D01*
X112930897Y-73590836D01*
X112810248Y-73595732D01*
X112804900Y-73595704D01*
X112669685Y-73592880D01*
X112563197Y-73574091D01*
X112481762Y-73521139D01*
X112421705Y-73415830D01*
X112379352Y-73239968D01*
X112351028Y-72975358D01*
X112333058Y-72603803D01*
X112321768Y-72107109D01*
X112313483Y-71467080D01*
X112309947Y-71144850D01*
X112301186Y-70542109D01*
X112289137Y-69998797D01*
X112274619Y-69536712D01*
X112258454Y-69177654D01*
X112241462Y-68943421D01*
X112224463Y-68855813D01*
X112223767Y-68855667D01*
X112121894Y-68899404D01*
X111938652Y-69009262D01*
X111858755Y-69062163D01*
X111687736Y-69187564D01*
X111553839Y-69318500D01*
X111452550Y-69476607D01*
X111379356Y-69683522D01*
X111329746Y-69960880D01*
X111299206Y-70330316D01*
X111283224Y-70813467D01*
X111277286Y-71431969D01*
X111276667Y-71852962D01*
X111275923Y-72487545D01*
X111272550Y-72974676D01*
X111264839Y-73336235D01*
X111251081Y-73594101D01*
X111229566Y-73770155D01*
X111198585Y-73886275D01*
X111156429Y-73964341D01*
X111107334Y-74020334D01*
X110881574Y-74169293D01*
X110638364Y-74158986D01*
X110509101Y-74102021D01*
X110459202Y-74067486D01*
X110420732Y-74010541D01*
X110392319Y-73911152D01*
X110372592Y-73749284D01*
X110360178Y-73504903D01*
X110353706Y-73157974D01*
X110351802Y-72688463D01*
X110353096Y-72076336D01*
X110354000Y-71837188D01*
X110358726Y-71232924D01*
X110367482Y-70672974D01*
X110379516Y-70183302D01*
X110394074Y-69789872D01*
X110410405Y-69518648D01*
X110424503Y-69406000D01*
X110630881Y-68898497D01*
X110972040Y-68451413D01*
X111415586Y-68098198D01*
X111902169Y-67880093D01*
X112538329Y-67762645D01*
X113159177Y-67780754D01*
G37*
X113159177Y-67780754D02*
X113740172Y-67923802D01*
X114256774Y-68181173D01*
X114684442Y-68542253D01*
X114998637Y-68996426D01*
X115109573Y-69267556D01*
X115159557Y-69506472D01*
X115200490Y-69866762D01*
X115232293Y-70320775D01*
X115254889Y-70840858D01*
X115268202Y-71399362D01*
X115272155Y-71968634D01*
X115266669Y-72521023D01*
X115251667Y-73028880D01*
X115227073Y-73464551D01*
X115192809Y-73800386D01*
X115148797Y-74008734D01*
X115122953Y-74056619D01*
X114900637Y-74177940D01*
X114658073Y-74139979D01*
X114494000Y-74020334D01*
X114439855Y-73957263D01*
X114398644Y-73875710D01*
X114368612Y-73753568D01*
X114348002Y-73568728D01*
X114335060Y-73299086D01*
X114328029Y-72922533D01*
X114325154Y-72416964D01*
X114324667Y-71888065D01*
X114323575Y-71252416D01*
X114319115Y-70761867D01*
X114309514Y-70392191D01*
X114292999Y-70119164D01*
X114267794Y-69918559D01*
X114232127Y-69766150D01*
X114184223Y-69637711D01*
X114155326Y-69575318D01*
X114016198Y-69368139D01*
X113819520Y-69167362D01*
X113605530Y-69003358D01*
X113414467Y-68906499D01*
X113286567Y-68907158D01*
X113278836Y-68913720D01*
X113264122Y-69009842D01*
X113250900Y-69252383D01*
X113239725Y-69618431D01*
X113231149Y-70085076D01*
X113225727Y-70629406D01*
X113224000Y-71181178D01*
X113223119Y-71883295D01*
X113218361Y-72434342D01*
X113206556Y-72852582D01*
X113184536Y-73156276D01*
X113149130Y-73363686D01*
X113097168Y-73493075D01*
X113025480Y-73562704D01*
X112930897Y-73590836D01*
X112810248Y-73595732D01*
X112804900Y-73595704D01*
X112669685Y-73592880D01*
X112563197Y-73574091D01*
X112481762Y-73521139D01*
X112421705Y-73415830D01*
X112379352Y-73239968D01*
X112351028Y-72975358D01*
X112333058Y-72603803D01*
X112321768Y-72107109D01*
X112313483Y-71467080D01*
X112309947Y-71144850D01*
X112301186Y-70542109D01*
X112289137Y-69998797D01*
X112274619Y-69536712D01*
X112258454Y-69177654D01*
X112241462Y-68943421D01*
X112224463Y-68855813D01*
X112223767Y-68855667D01*
X112121894Y-68899404D01*
X111938652Y-69009262D01*
X111858755Y-69062163D01*
X111687736Y-69187564D01*
X111553839Y-69318500D01*
X111452550Y-69476607D01*
X111379356Y-69683522D01*
X111329746Y-69960880D01*
X111299206Y-70330316D01*
X111283224Y-70813467D01*
X111277286Y-71431969D01*
X111276667Y-71852962D01*
X111275923Y-72487545D01*
X111272550Y-72974676D01*
X111264839Y-73336235D01*
X111251081Y-73594101D01*
X111229566Y-73770155D01*
X111198585Y-73886275D01*
X111156429Y-73964341D01*
X111107334Y-74020334D01*
X110881574Y-74169293D01*
X110638364Y-74158986D01*
X110509101Y-74102021D01*
X110459202Y-74067486D01*
X110420732Y-74010541D01*
X110392319Y-73911152D01*
X110372592Y-73749284D01*
X110360178Y-73504903D01*
X110353706Y-73157974D01*
X110351802Y-72688463D01*
X110353096Y-72076336D01*
X110354000Y-71837188D01*
X110358726Y-71232924D01*
X110367482Y-70672974D01*
X110379516Y-70183302D01*
X110394074Y-69789872D01*
X110410405Y-69518648D01*
X110424503Y-69406000D01*
X110630881Y-68898497D01*
X110972040Y-68451413D01*
X111415586Y-68098198D01*
X111902169Y-67880093D01*
X112538329Y-67762645D01*
X113159177Y-67780754D01*
G36*
X112011916Y-90445167D02*
G01*
X112103383Y-90859925D01*
X112091294Y-91101345D01*
X112082490Y-91349699D01*
X112127315Y-91644236D01*
X112233890Y-92029514D01*
X112294285Y-92215001D01*
X112417572Y-92628989D01*
X112502313Y-93007244D01*
X112546431Y-93324545D01*
X112547849Y-93555672D01*
X112504490Y-93675404D01*
X112414279Y-93658521D01*
X112413062Y-93657519D01*
X112301455Y-93521820D01*
X112158124Y-93292241D01*
X112064744Y-93117985D01*
X111926219Y-92856334D01*
X111800994Y-92644589D01*
X111743094Y-92562334D01*
X111645191Y-92400536D01*
X111541400Y-92165104D01*
X111524327Y-92118541D01*
X111382477Y-91861754D01*
X111162972Y-91606995D01*
X111085379Y-91538871D01*
X110873252Y-91349902D01*
X110732986Y-91160563D01*
X110624442Y-90906909D01*
X110558568Y-90699667D01*
X110530878Y-90584913D01*
X110559859Y-90567587D01*
X110669157Y-90655720D01*
X110804955Y-90783355D01*
X111002822Y-90954487D01*
X111122268Y-91007023D01*
X111184633Y-90965587D01*
X111313793Y-90879051D01*
X111498441Y-90840618D01*
X111721621Y-90796715D01*
X111835887Y-90667228D01*
X111874597Y-90413415D01*
X111874944Y-90403334D01*
X111883147Y-90149334D01*
X112011916Y-90445167D01*
G37*
X112011916Y-90445167D02*
X112103383Y-90859925D01*
X112091294Y-91101345D01*
X112082490Y-91349699D01*
X112127315Y-91644236D01*
X112233890Y-92029514D01*
X112294285Y-92215001D01*
X112417572Y-92628989D01*
X112502313Y-93007244D01*
X112546431Y-93324545D01*
X112547849Y-93555672D01*
X112504490Y-93675404D01*
X112414279Y-93658521D01*
X112413062Y-93657519D01*
X112301455Y-93521820D01*
X112158124Y-93292241D01*
X112064744Y-93117985D01*
X111926219Y-92856334D01*
X111800994Y-92644589D01*
X111743094Y-92562334D01*
X111645191Y-92400536D01*
X111541400Y-92165104D01*
X111524327Y-92118541D01*
X111382477Y-91861754D01*
X111162972Y-91606995D01*
X111085379Y-91538871D01*
X110873252Y-91349902D01*
X110732986Y-91160563D01*
X110624442Y-90906909D01*
X110558568Y-90699667D01*
X110530878Y-90584913D01*
X110559859Y-90567587D01*
X110669157Y-90655720D01*
X110804955Y-90783355D01*
X111002822Y-90954487D01*
X111122268Y-91007023D01*
X111184633Y-90965587D01*
X111313793Y-90879051D01*
X111498441Y-90840618D01*
X111721621Y-90796715D01*
X111835887Y-90667228D01*
X111874597Y-90413415D01*
X111874944Y-90403334D01*
X111883147Y-90149334D01*
X112011916Y-90445167D01*
G36*
X110272602Y-67248164D02*
G01*
X110126319Y-67357592D01*
X110057155Y-67400304D01*
X109828617Y-67575843D01*
X109588551Y-67820550D01*
X109492654Y-67939966D01*
X109177839Y-68434245D01*
X108924972Y-68987463D01*
X108728797Y-69620831D01*
X108584060Y-70355566D01*
X108485505Y-71212880D01*
X108427877Y-72213987D01*
X108426870Y-72242334D01*
X108410816Y-73110825D01*
X108423915Y-74007868D01*
X108467877Y-74945438D01*
X108544412Y-75935512D01*
X108655229Y-76990063D01*
X108802038Y-78121068D01*
X108986550Y-79340502D01*
X109210472Y-80660340D01*
X109475517Y-82092557D01*
X109783392Y-83649130D01*
X110135809Y-85342034D01*
X110534475Y-87183243D01*
X110606841Y-87511269D01*
X110696492Y-87934602D01*
X110765714Y-88296926D01*
X110809171Y-88567307D01*
X110821530Y-88714816D01*
X110817343Y-88731880D01*
X110768528Y-88749561D01*
X110768002Y-88745278D01*
X110747041Y-88642300D01*
X110690093Y-88404670D01*
X110604593Y-88061407D01*
X110497977Y-87641529D01*
X110377679Y-87174057D01*
X110251134Y-86688010D01*
X110125777Y-86212406D01*
X110009042Y-85776265D01*
X109978051Y-85662000D01*
X109644421Y-84357226D01*
X109325673Y-82958126D01*
X109028712Y-81503667D01*
X108760439Y-80032816D01*
X108527759Y-78584539D01*
X108337574Y-77197804D01*
X108196788Y-75911577D01*
X108148139Y-75332667D01*
X108087556Y-74182014D01*
X108075842Y-73054323D01*
X108112863Y-72003301D01*
X108157798Y-71438000D01*
X108280971Y-70577604D01*
X108470484Y-69761659D01*
X108716360Y-69018964D01*
X109008623Y-68378322D01*
X109337298Y-67868533D01*
X109433935Y-67753783D01*
X109605160Y-67593622D01*
X109823040Y-67427896D01*
X110043134Y-67285449D01*
X110220999Y-67195124D01*
X110311069Y-67184513D01*
X110272602Y-67248164D01*
G37*
X110272602Y-67248164D02*
X110126319Y-67357592D01*
X110057155Y-67400304D01*
X109828617Y-67575843D01*
X109588551Y-67820550D01*
X109492654Y-67939966D01*
X109177839Y-68434245D01*
X108924972Y-68987463D01*
X108728797Y-69620831D01*
X108584060Y-70355566D01*
X108485505Y-71212880D01*
X108427877Y-72213987D01*
X108426870Y-72242334D01*
X108410816Y-73110825D01*
X108423915Y-74007868D01*
X108467877Y-74945438D01*
X108544412Y-75935512D01*
X108655229Y-76990063D01*
X108802038Y-78121068D01*
X108986550Y-79340502D01*
X109210472Y-80660340D01*
X109475517Y-82092557D01*
X109783392Y-83649130D01*
X110135809Y-85342034D01*
X110534475Y-87183243D01*
X110606841Y-87511269D01*
X110696492Y-87934602D01*
X110765714Y-88296926D01*
X110809171Y-88567307D01*
X110821530Y-88714816D01*
X110817343Y-88731880D01*
X110768528Y-88749561D01*
X110768002Y-88745278D01*
X110747041Y-88642300D01*
X110690093Y-88404670D01*
X110604593Y-88061407D01*
X110497977Y-87641529D01*
X110377679Y-87174057D01*
X110251134Y-86688010D01*
X110125777Y-86212406D01*
X110009042Y-85776265D01*
X109978051Y-85662000D01*
X109644421Y-84357226D01*
X109325673Y-82958126D01*
X109028712Y-81503667D01*
X108760439Y-80032816D01*
X108527759Y-78584539D01*
X108337574Y-77197804D01*
X108196788Y-75911577D01*
X108148139Y-75332667D01*
X108087556Y-74182014D01*
X108075842Y-73054323D01*
X108112863Y-72003301D01*
X108157798Y-71438000D01*
X108280971Y-70577604D01*
X108470484Y-69761659D01*
X108716360Y-69018964D01*
X109008623Y-68378322D01*
X109337298Y-67868533D01*
X109433935Y-67753783D01*
X109605160Y-67593622D01*
X109823040Y-67427896D01*
X110043134Y-67285449D01*
X110220999Y-67195124D01*
X110311069Y-67184513D01*
X110272602Y-67248164D01*
G36*
X110911171Y-88905792D02*
G01*
X110921264Y-89038116D01*
X110904487Y-89068070D01*
X110866005Y-89042819D01*
X110860018Y-88956945D01*
X110880695Y-88866602D01*
X110911171Y-88905792D01*
G37*
X110911171Y-88905792D02*
X110921264Y-89038116D01*
X110904487Y-89068070D01*
X110866005Y-89042819D01*
X110860018Y-88956945D01*
X110880695Y-88866602D01*
X110911171Y-88905792D01*
G36*
X111022667Y-89302667D02*
G01*
X111086159Y-89482171D01*
X111094176Y-89574787D01*
X111046716Y-89548579D01*
X111022667Y-89514334D01*
X110952467Y-89333592D01*
X110945248Y-89260334D01*
X110969422Y-89209703D01*
X111022667Y-89302667D01*
G37*
X111022667Y-89302667D02*
X111086159Y-89482171D01*
X111094176Y-89574787D01*
X111046716Y-89548579D01*
X111022667Y-89514334D01*
X110952467Y-89333592D01*
X110945248Y-89260334D01*
X110969422Y-89209703D01*
X111022667Y-89302667D01*
G36*
X114699350Y-82540308D02*
G01*
X114851071Y-82548077D01*
X114972366Y-82571722D01*
X115066642Y-82628396D01*
X115137302Y-82735255D01*
X115187752Y-82909453D01*
X115221395Y-83168144D01*
X115241637Y-83528482D01*
X115251882Y-84007622D01*
X115255535Y-84622718D01*
X115256000Y-85344987D01*
X115255302Y-86066266D01*
X115252367Y-86639344D01*
X115245941Y-87085348D01*
X115234765Y-87425406D01*
X115217585Y-87680648D01*
X115193142Y-87872202D01*
X115160182Y-88021196D01*
X115117446Y-88148759D01*
X115084502Y-88228638D01*
X114852647Y-88612783D01*
X114532037Y-88874571D01*
X114102019Y-89026767D01*
X113714536Y-89075569D01*
X113146259Y-89050106D01*
X112689706Y-88898130D01*
X112343199Y-88618883D01*
X112184002Y-88383577D01*
X112126613Y-88267425D01*
X112081568Y-88144230D01*
X112046846Y-87991549D01*
X112020423Y-87786935D01*
X112000278Y-87507946D01*
X111984387Y-87132136D01*
X111970728Y-86637061D01*
X111957279Y-86000278D01*
X111954000Y-85831334D01*
X111911667Y-83630000D01*
X111278811Y-83604740D01*
X110849613Y-83565568D01*
X110565234Y-83480785D01*
X110404570Y-83338592D01*
X110346517Y-83127184D01*
X110345334Y-83082727D01*
X110390956Y-82844599D01*
X110465670Y-82693682D01*
X110546254Y-82613779D01*
X110670173Y-82564491D01*
X110874928Y-82538839D01*
X111198024Y-82529841D01*
X111348554Y-82529334D01*
X111737867Y-82535735D01*
X112002497Y-82560116D01*
X112186785Y-82610240D01*
X112335073Y-82693871D01*
X112350051Y-82704685D01*
X112505403Y-82827883D01*
X112627477Y-82957257D01*
X112720260Y-83114052D01*
X112787739Y-83319510D01*
X112833900Y-83594874D01*
X112862730Y-83961386D01*
X112878216Y-84440289D01*
X112884345Y-85052827D01*
X112885202Y-85556167D01*
X112885952Y-86207924D01*
X112889158Y-86711604D01*
X112896391Y-87088461D01*
X112909222Y-87359747D01*
X112929224Y-87546717D01*
X112957968Y-87670624D01*
X112997025Y-87752722D01*
X113047967Y-87814264D01*
X113052514Y-87818847D01*
X113261504Y-87968270D01*
X113435157Y-88040104D01*
X113669800Y-88043644D01*
X113935777Y-87974671D01*
X114153409Y-87858675D01*
X114220650Y-87788809D01*
X114237383Y-87683259D01*
X114255171Y-87429926D01*
X114273178Y-87050350D01*
X114290566Y-86566069D01*
X114306500Y-85998623D01*
X114320141Y-85369553D01*
X114324667Y-85111667D01*
X114367000Y-82529334D01*
X114699350Y-82540308D01*
G37*
X114699350Y-82540308D02*
X114851071Y-82548077D01*
X114972366Y-82571722D01*
X115066642Y-82628396D01*
X115137302Y-82735255D01*
X115187752Y-82909453D01*
X115221395Y-83168144D01*
X115241637Y-83528482D01*
X115251882Y-84007622D01*
X115255535Y-84622718D01*
X115256000Y-85344987D01*
X115255302Y-86066266D01*
X115252367Y-86639344D01*
X115245941Y-87085348D01*
X115234765Y-87425406D01*
X115217585Y-87680648D01*
X115193142Y-87872202D01*
X115160182Y-88021196D01*
X115117446Y-88148759D01*
X115084502Y-88228638D01*
X114852647Y-88612783D01*
X114532037Y-88874571D01*
X114102019Y-89026767D01*
X113714536Y-89075569D01*
X113146259Y-89050106D01*
X112689706Y-88898130D01*
X112343199Y-88618883D01*
X112184002Y-88383577D01*
X112126613Y-88267425D01*
X112081568Y-88144230D01*
X112046846Y-87991549D01*
X112020423Y-87786935D01*
X112000278Y-87507946D01*
X111984387Y-87132136D01*
X111970728Y-86637061D01*
X111957279Y-86000278D01*
X111954000Y-85831334D01*
X111911667Y-83630000D01*
X111278811Y-83604740D01*
X110849613Y-83565568D01*
X110565234Y-83480785D01*
X110404570Y-83338592D01*
X110346517Y-83127184D01*
X110345334Y-83082727D01*
X110390956Y-82844599D01*
X110465670Y-82693682D01*
X110546254Y-82613779D01*
X110670173Y-82564491D01*
X110874928Y-82538839D01*
X111198024Y-82529841D01*
X111348554Y-82529334D01*
X111737867Y-82535735D01*
X112002497Y-82560116D01*
X112186785Y-82610240D01*
X112335073Y-82693871D01*
X112350051Y-82704685D01*
X112505403Y-82827883D01*
X112627477Y-82957257D01*
X112720260Y-83114052D01*
X112787739Y-83319510D01*
X112833900Y-83594874D01*
X112862730Y-83961386D01*
X112878216Y-84440289D01*
X112884345Y-85052827D01*
X112885202Y-85556167D01*
X112885952Y-86207924D01*
X112889158Y-86711604D01*
X112896391Y-87088461D01*
X112909222Y-87359747D01*
X112929224Y-87546717D01*
X112957968Y-87670624D01*
X112997025Y-87752722D01*
X113047967Y-87814264D01*
X113052514Y-87818847D01*
X113261504Y-87968270D01*
X113435157Y-88040104D01*
X113669800Y-88043644D01*
X113935777Y-87974671D01*
X114153409Y-87858675D01*
X114220650Y-87788809D01*
X114237383Y-87683259D01*
X114255171Y-87429926D01*
X114273178Y-87050350D01*
X114290566Y-86566069D01*
X114306500Y-85998623D01*
X114320141Y-85369553D01*
X114324667Y-85111667D01*
X114367000Y-82529334D01*
X114699350Y-82540308D01*
G36*
X114208655Y-89856745D02*
G01*
X114621969Y-89872640D01*
X114910278Y-89907675D01*
X115095704Y-89968841D01*
X115200374Y-90063129D01*
X115246411Y-90197528D01*
X115256000Y-90361000D01*
X115243634Y-90539921D01*
X115191640Y-90671347D01*
X115077676Y-90762504D01*
X114879399Y-90820613D01*
X114574466Y-90852900D01*
X114140535Y-90866588D01*
X113684756Y-90869000D01*
X112379606Y-90869000D01*
X112261553Y-90586459D01*
X112136573Y-90272625D01*
X112080045Y-90077989D01*
X112087455Y-89968939D01*
X112154287Y-89911866D01*
X112170069Y-89905360D01*
X112298556Y-89887410D01*
X112563907Y-89872112D01*
X112933658Y-89860617D01*
X113375347Y-89854073D01*
X113648211Y-89853000D01*
X114208655Y-89856745D01*
G37*
X114208655Y-89856745D02*
X114621969Y-89872640D01*
X114910278Y-89907675D01*
X115095704Y-89968841D01*
X115200374Y-90063129D01*
X115246411Y-90197528D01*
X115256000Y-90361000D01*
X115243634Y-90539921D01*
X115191640Y-90671347D01*
X115077676Y-90762504D01*
X114879399Y-90820613D01*
X114574466Y-90852900D01*
X114140535Y-90866588D01*
X113684756Y-90869000D01*
X112379606Y-90869000D01*
X112261553Y-90586459D01*
X112136573Y-90272625D01*
X112080045Y-90077989D01*
X112087455Y-89968939D01*
X112154287Y-89911866D01*
X112170069Y-89905360D01*
X112298556Y-89887410D01*
X112563907Y-89872112D01*
X112933658Y-89860617D01*
X113375347Y-89854073D01*
X113648211Y-89853000D01*
X114208655Y-89856745D01*
D15*
%TO.C,U2*%
X102205000Y-120795000D02*
X98305000Y-120795000D01*
X102205000Y-115745000D02*
X98305000Y-115745000D01*
D10*
X104395000Y-120575000D02*
G75*
G03*
X104395000Y-120575000I-100000J0D01*
G01*
D13*
%TO.C,Y1*%
X108475000Y-102850000D02*
X108475000Y-115450000D01*
X113575000Y-115450000D02*
X113575000Y-102850000D01*
X108475000Y-115450000D02*
X109725000Y-115450000D01*
X112325000Y-115450000D02*
X113575000Y-115450000D01*
%TO.C,R2*%
X102002064Y-123185000D02*
X101547936Y-123185000D01*
X102002064Y-121715000D02*
X101547936Y-121715000D01*
%TO.C,C1*%
X113135000Y-97663748D02*
X113135000Y-99086252D01*
X111315000Y-97663748D02*
X111315000Y-99086252D01*
%TO.C,J7*%
X96995000Y-126830000D02*
X96995000Y-125500000D01*
X99595000Y-126830000D02*
X99595000Y-124170000D01*
X99595000Y-124170000D02*
X102195000Y-124170000D01*
X98325000Y-126830000D02*
X96995000Y-126830000D01*
X102195000Y-126830000D02*
X102195000Y-124170000D01*
X99595000Y-126830000D02*
X102195000Y-126830000D01*
%TO.C,J1*%
X88805000Y-71620000D02*
X91405000Y-71620000D01*
X88805000Y-69020000D02*
X88805000Y-71620000D01*
X91405000Y-71620000D02*
X91405000Y-119940000D01*
X86205000Y-69020000D02*
X86205000Y-119940000D01*
X90075000Y-69020000D02*
X91405000Y-69020000D01*
X86205000Y-69020000D02*
X88805000Y-69020000D01*
X86205000Y-119940000D02*
X91405000Y-119940000D01*
X91405000Y-69020000D02*
X91405000Y-70350000D01*
D15*
%TO.C,U3*%
X104885000Y-103025000D02*
X97285000Y-103025000D01*
X104885000Y-114675000D02*
X97285000Y-114675000D01*
D10*
X107705000Y-114530000D02*
G75*
G03*
X107705000Y-114530000I-100000J0D01*
G01*
D13*
%TO.C,C3*%
X107110000Y-119061252D02*
X107110000Y-117638748D01*
X105290000Y-119061252D02*
X105290000Y-117638748D01*
%TO.C,C2*%
X110688748Y-116990000D02*
X112111252Y-116990000D01*
X110688748Y-118810000D02*
X112111252Y-118810000D01*
%TO.C,R1*%
X92665000Y-113952064D02*
X92665000Y-113497936D01*
X94135000Y-113952064D02*
X94135000Y-113497936D01*
%TD*%
M02*
