%TF.GenerationSoftware,KiCad,Pcbnew,(6.0.5-0)*%
%TF.CreationDate,2024-03-04T13:36:44-05:00*%
%TF.ProjectId,CubeSat PCB V0.3,43756265-5361-4742-9050-43422056302e,rev?*%
%TF.SameCoordinates,Original*%
%TF.FileFunction,Copper,L1,Top*%
%TF.FilePolarity,Positive*%
%FSLAX46Y46*%
G04 Gerber Fmt 4.6, Leading zero omitted, Abs format (unit mm)*
G04 Created by KiCad (PCBNEW (6.0.5-0)) date 2024-03-04 13:36:44*
%MOMM*%
%LPD*%
G01*
G04 APERTURE LIST*
G04 Aperture macros list*
%AMRoundRect*
0 Rectangle with rounded corners*
0 $1 Rounding radius*
0 $2 $3 $4 $5 $6 $7 $8 $9 X,Y pos of 4 corners*
0 Add a 4 corners polygon primitive as box body*
4,1,4,$2,$3,$4,$5,$6,$7,$8,$9,$2,$3,0*
0 Add four circle primitives for the rounded corners*
1,1,$1+$1,$2,$3*
1,1,$1+$1,$4,$5*
1,1,$1+$1,$6,$7*
1,1,$1+$1,$8,$9*
0 Add four rect primitives between the rounded corners*
20,1,$1+$1,$2,$3,$4,$5,0*
20,1,$1+$1,$4,$5,$6,$7,0*
20,1,$1+$1,$6,$7,$8,$9,0*
20,1,$1+$1,$8,$9,$2,$3,0*%
G04 Aperture macros list end*
%TA.AperFunction,SMDPad,CuDef*%
%ADD10RoundRect,0.250000X-0.350000X-0.450000X0.350000X-0.450000X0.350000X0.450000X-0.350000X0.450000X0*%
%TD*%
%TA.AperFunction,SMDPad,CuDef*%
%ADD11RoundRect,0.042000X0.943000X0.258000X-0.943000X0.258000X-0.943000X-0.258000X0.943000X-0.258000X0*%
%TD*%
%TA.AperFunction,SMDPad,CuDef*%
%ADD12R,2.100000X5.600000*%
%TD*%
%TA.AperFunction,SMDPad,CuDef*%
%ADD13RoundRect,0.250000X0.350000X0.450000X-0.350000X0.450000X-0.350000X-0.450000X0.350000X-0.450000X0*%
%TD*%
%TA.AperFunction,SMDPad,CuDef*%
%ADD14RoundRect,0.250000X-0.650000X0.412500X-0.650000X-0.412500X0.650000X-0.412500X0.650000X0.412500X0*%
%TD*%
%TA.AperFunction,ComponentPad*%
%ADD15R,1.700000X1.700000*%
%TD*%
%TA.AperFunction,ComponentPad*%
%ADD16O,1.700000X1.700000*%
%TD*%
%TA.AperFunction,SMDPad,CuDef*%
%ADD17RoundRect,0.042000X0.913000X0.258000X-0.913000X0.258000X-0.913000X-0.258000X0.913000X-0.258000X0*%
%TD*%
%TA.AperFunction,SMDPad,CuDef*%
%ADD18RoundRect,0.250000X0.650000X-0.412500X0.650000X0.412500X-0.650000X0.412500X-0.650000X-0.412500X0*%
%TD*%
%TA.AperFunction,SMDPad,CuDef*%
%ADD19RoundRect,0.250000X-0.412500X-0.650000X0.412500X-0.650000X0.412500X0.650000X-0.412500X0.650000X0*%
%TD*%
%TA.AperFunction,SMDPad,CuDef*%
%ADD20RoundRect,0.250000X0.450000X-0.350000X0.450000X0.350000X-0.450000X0.350000X-0.450000X-0.350000X0*%
%TD*%
%TA.AperFunction,ComponentPad*%
%ADD21R,1.600000X1.600000*%
%TD*%
%TA.AperFunction,ComponentPad*%
%ADD22O,1.600000X1.600000*%
%TD*%
%TA.AperFunction,ComponentPad*%
%ADD23R,3.716000X3.716000*%
%TD*%
%TA.AperFunction,ComponentPad*%
%ADD24C,3.716000*%
%TD*%
%TA.AperFunction,ComponentPad*%
%ADD25O,1.200000X2.400000*%
%TD*%
%TA.AperFunction,ComponentPad*%
%ADD26R,2.775000X2.775000*%
%TD*%
%TA.AperFunction,ComponentPad*%
%ADD27C,2.775000*%
%TD*%
%TA.AperFunction,ViaPad*%
%ADD28C,0.800000*%
%TD*%
%TA.AperFunction,Conductor*%
%ADD29C,0.250000*%
%TD*%
%TA.AperFunction,Conductor*%
%ADD30C,2.000000*%
%TD*%
G04 APERTURE END LIST*
D10*
%TO.P,R3,1*%
%TO.N,Net-(J7-Pad2)*%
X95025000Y-122425000D03*
%TO.P,R3,2*%
%TO.N,Net-(J7-Pad1)*%
X97025000Y-122425000D03*
%TD*%
D11*
%TO.P,U2,1,D*%
%TO.N,/RX_CAN*%
X102725000Y-120175000D03*
%TO.P,U2,2,GND*%
%TO.N,GND*%
X102725000Y-118905000D03*
%TO.P,U2,3,VCC*%
%TO.N,+3V3*%
X102725000Y-117635000D03*
%TO.P,U2,4,R*%
%TO.N,/TX_CAN*%
X102725000Y-116365000D03*
%TO.P,U2,5,VREF*%
%TO.N,unconnected-(U2-Pad5)*%
X97785000Y-116365000D03*
%TO.P,U2,6,CANL*%
%TO.N,Net-(J7-Pad2)*%
X97785000Y-117635000D03*
%TO.P,U2,7,CANH*%
%TO.N,Net-(J7-Pad1)*%
X97785000Y-118905000D03*
%TO.P,U2,8,RS*%
%TO.N,Net-(R2-Pad2)*%
X97785000Y-120175000D03*
%TD*%
D12*
%TO.P,Y1,1,1*%
%TO.N,/OSC2*%
X111025000Y-113250000D03*
%TO.P,Y1,2,2*%
%TO.N,/OSC1*%
X111025000Y-104250000D03*
%TD*%
D13*
%TO.P,R2,1*%
%TO.N,GND*%
X102775000Y-122450000D03*
%TO.P,R2,2*%
%TO.N,Net-(R2-Pad2)*%
X100775000Y-122450000D03*
%TD*%
D14*
%TO.P,C1,1*%
%TO.N,GND*%
X112225000Y-96812500D03*
%TO.P,C1,2*%
%TO.N,/OSC1*%
X112225000Y-99937500D03*
%TD*%
D15*
%TO.P,J7,1,Pin_1*%
%TO.N,Net-(J7-Pad1)*%
X98325000Y-125500000D03*
D16*
%TO.P,J7,2,Pin_2*%
%TO.N,Net-(J7-Pad2)*%
X100865000Y-125500000D03*
%TD*%
D15*
%TO.P,J1,1,3V3*%
%TO.N,+3V3*%
X90075000Y-70350000D03*
D16*
%TO.P,J1,2,5V*%
%TO.N,+5V*%
X87535000Y-70350000D03*
%TO.P,J1,3,SDA/GPIO2*%
%TO.N,/SDA*%
X90075000Y-72890000D03*
%TO.P,J1,4,5V*%
%TO.N,+5V*%
X87535000Y-72890000D03*
%TO.P,J1,5,SCL/GPIO3*%
%TO.N,/SCL*%
X90075000Y-75430000D03*
%TO.P,J1,6,GND*%
%TO.N,GND*%
X87535000Y-75430000D03*
%TO.P,J1,7,GCLK0/GPIO4*%
%TO.N,unconnected-(J1-Pad7)*%
X90075000Y-77970000D03*
%TO.P,J1,8,GPIO14/TXD*%
%TO.N,unconnected-(J1-Pad8)*%
X87535000Y-77970000D03*
%TO.P,J1,9,GND*%
%TO.N,GND*%
X90075000Y-80510000D03*
%TO.P,J1,10,GPIO15/RXD*%
%TO.N,unconnected-(J1-Pad10)*%
X87535000Y-80510000D03*
%TO.P,J1,11,GPIO17*%
%TO.N,unconnected-(J1-Pad11)*%
X90075000Y-83050000D03*
%TO.P,J1,12,GPIO18/PWM0*%
%TO.N,/led*%
X87535000Y-83050000D03*
%TO.P,J1,13,GPIO27*%
%TO.N,unconnected-(J1-Pad13)*%
X90075000Y-85590000D03*
%TO.P,J1,14,GND*%
%TO.N,GND*%
X87535000Y-85590000D03*
%TO.P,J1,15,GPIO22*%
%TO.N,unconnected-(J1-Pad15)*%
X90075000Y-88130000D03*
%TO.P,J1,16,GPIO23*%
%TO.N,unconnected-(J1-Pad16)*%
X87535000Y-88130000D03*
%TO.P,J1,17,3V3*%
%TO.N,+3V3*%
X90075000Y-90670000D03*
%TO.P,J1,18,GPIO24*%
%TO.N,unconnected-(J1-Pad18)*%
X87535000Y-90670000D03*
%TO.P,J1,19,MOSI0/GPIO10*%
%TO.N,/P_MOSI*%
X90075000Y-93210000D03*
%TO.P,J1,20,GND*%
%TO.N,GND*%
X87535000Y-93210000D03*
%TO.P,J1,21,MISO0/GPIO9*%
%TO.N,/P_MISO*%
X90075000Y-95750000D03*
%TO.P,J1,22,GPIO25*%
%TO.N,/GP25*%
X87535000Y-95750000D03*
%TO.P,J1,23,SCLK0/GPIO11*%
%TO.N,/P_SCK*%
X90075000Y-98290000D03*
%TO.P,J1,24,~{CE0}/GPIO8*%
%TO.N,/P_CE0*%
X87535000Y-98290000D03*
%TO.P,J1,25,GND*%
%TO.N,GND*%
X90075000Y-100830000D03*
%TO.P,J1,26,~{CE1}/GPIO7*%
%TO.N,unconnected-(J1-Pad26)*%
X87535000Y-100830000D03*
%TO.P,J1,27,ID_SD/GPIO0*%
%TO.N,unconnected-(J1-Pad27)*%
X90075000Y-103370000D03*
%TO.P,J1,28,ID_SC/GPIO1*%
%TO.N,unconnected-(J1-Pad28)*%
X87535000Y-103370000D03*
%TO.P,J1,29,GCLK1/GPIO5*%
%TO.N,unconnected-(J1-Pad29)*%
X90075000Y-105910000D03*
%TO.P,J1,30,GND*%
%TO.N,GND*%
X87535000Y-105910000D03*
%TO.P,J1,31,GCLK2/GPIO6*%
%TO.N,unconnected-(J1-Pad31)*%
X90075000Y-108450000D03*
%TO.P,J1,32,PWM0/GPIO12*%
%TO.N,unconnected-(J1-Pad32)*%
X87535000Y-108450000D03*
%TO.P,J1,33,PWM1/GPIO13*%
%TO.N,unconnected-(J1-Pad33)*%
X90075000Y-110990000D03*
%TO.P,J1,34,GND*%
%TO.N,GND*%
X87535000Y-110990000D03*
%TO.P,J1,35,GPIO19/MISO1*%
%TO.N,unconnected-(J1-Pad35)*%
X90075000Y-113530000D03*
%TO.P,J1,36,GPIO16*%
%TO.N,unconnected-(J1-Pad36)*%
X87535000Y-113530000D03*
%TO.P,J1,37,GPIO26*%
%TO.N,unconnected-(J1-Pad37)*%
X90075000Y-116070000D03*
%TO.P,J1,38,GPIO20/MOSI1*%
%TO.N,unconnected-(J1-Pad38)*%
X87535000Y-116070000D03*
%TO.P,J1,39,GND*%
%TO.N,GND*%
X90075000Y-118610000D03*
%TO.P,J1,40,GPIO21/SCLK1*%
%TO.N,unconnected-(J1-Pad40)*%
X87535000Y-118610000D03*
%TD*%
D17*
%TO.P,U3,1,TXCAN*%
%TO.N,/TX_CAN*%
X105695000Y-113930000D03*
%TO.P,U3,2,RXCAN*%
%TO.N,/RX_CAN*%
X105695000Y-112660000D03*
%TO.P,U3,3,CLKOUT/SOF*%
%TO.N,unconnected-(U3-Pad3)*%
X105695000Y-111390000D03*
%TO.P,U3,4,~{TX0RTS}*%
%TO.N,unconnected-(U3-Pad4)*%
X105695000Y-110120000D03*
%TO.P,U3,5,~{TX1RTS}*%
%TO.N,unconnected-(U3-Pad5)*%
X105695000Y-108850000D03*
%TO.P,U3,6,~{TX2RTS}*%
%TO.N,unconnected-(U3-Pad6)*%
X105695000Y-107580000D03*
%TO.P,U3,7,OSC2*%
%TO.N,/OSC2*%
X105695000Y-106310000D03*
%TO.P,U3,8,OSC1*%
%TO.N,/OSC1*%
X105695000Y-105040000D03*
%TO.P,U3,9,VSS*%
%TO.N,GND*%
X105695000Y-103770000D03*
%TO.P,U3,10,~{RX1BF}*%
%TO.N,unconnected-(U3-Pad10)*%
X96475000Y-103770000D03*
%TO.P,U3,11,~{RX0BF}*%
%TO.N,unconnected-(U3-Pad11)*%
X96475000Y-105040000D03*
%TO.P,U3,12,~{INT}*%
%TO.N,/GP25*%
X96475000Y-106310000D03*
%TO.P,U3,13,SCK*%
%TO.N,/P_SCK*%
X96475000Y-107580000D03*
%TO.P,U3,14,SI*%
%TO.N,/P_MOSI*%
X96475000Y-108850000D03*
%TO.P,U3,15,SO*%
%TO.N,/P_MISO*%
X96475000Y-110120000D03*
%TO.P,U3,16,~{CS}*%
%TO.N,/P_CE0*%
X96475000Y-111390000D03*
%TO.P,U3,17,~{RESET}*%
%TO.N,Net-(R1-Pad2)*%
X96475000Y-112660000D03*
%TO.P,U3,18,VDD*%
%TO.N,+3V3*%
X96475000Y-113930000D03*
%TD*%
D18*
%TO.P,C3,1*%
%TO.N,GND*%
X106200000Y-119912500D03*
%TO.P,C3,2*%
%TO.N,+3V3*%
X106200000Y-116787500D03*
%TD*%
D19*
%TO.P,C2,1*%
%TO.N,GND*%
X109837500Y-117900000D03*
%TO.P,C2,2*%
%TO.N,/OSC2*%
X112962500Y-117900000D03*
%TD*%
D20*
%TO.P,R1,1*%
%TO.N,+3V3*%
X93400000Y-114725000D03*
%TO.P,R1,2*%
%TO.N,Net-(R1-Pad2)*%
X93400000Y-112725000D03*
%TD*%
D21*
%TO.P,U1,1,Vin*%
%TO.N,+BATT*%
X107662000Y-81340000D03*
X105122000Y-81340000D03*
D22*
%TO.P,U1,2,GND*%
%TO.N,GND*%
X96867000Y-81314600D03*
X94327000Y-81340000D03*
D21*
%TO.P,U1,3,Vout*%
%TO.N,+5V*%
X107789000Y-100136000D03*
X105249000Y-100136000D03*
D22*
%TO.P,U1,4,GND*%
%TO.N,GND*%
X94327000Y-100263000D03*
X96867000Y-100237600D03*
%TD*%
D23*
%TO.P,J4,1,+*%
%TO.N,+BATT*%
X104150000Y-69900000D03*
D24*
%TO.P,J4,2,-*%
%TO.N,Net-(J4-Pad2)*%
X96950000Y-69900000D03*
D25*
%TO.P,J4,S1*%
%TO.N,N/C*%
X107300000Y-63900000D03*
%TO.P,J4,S2*%
X93800000Y-63900000D03*
%TD*%
D26*
%TO.P,SW1,1,A*%
%TO.N,Net-(J4-Pad2)*%
X95550000Y-75975000D03*
D27*
%TO.P,SW1,2,B*%
%TO.N,GND*%
X100250000Y-75975000D03*
%TO.P,SW1,3,C*%
%TO.N,unconnected-(SW1-Pad3)*%
X104950000Y-75975000D03*
%TD*%
D15*
%TO.P,J5,1,Pin_1*%
%TO.N,+5V*%
X117550000Y-84875000D03*
D16*
%TO.P,J5,2,Pin_2*%
%TO.N,/led*%
X117550000Y-87415000D03*
%TO.P,J5,3,Pin_3*%
%TO.N,GND*%
X117550000Y-89955000D03*
%TD*%
D15*
%TO.P,J2,1,Pin_1*%
%TO.N,+5V*%
X117725000Y-78000000D03*
D16*
%TO.P,J2,2,Pin_2*%
%TO.N,/SDA*%
X117725000Y-75460000D03*
%TO.P,J2,3,Pin_3*%
%TO.N,/SCL*%
X117725000Y-72920000D03*
%TO.P,J2,4,Pin_4*%
%TO.N,GND*%
X117725000Y-70380000D03*
%TD*%
D15*
%TO.P,J3,1,Pin_1*%
%TO.N,+5V*%
X117525000Y-96650000D03*
D16*
%TO.P,J3,2,Pin_2*%
%TO.N,unconnected-(J3-Pad2)*%
X117525000Y-99190000D03*
%TO.P,J3,3,Pin_3*%
%TO.N,GND*%
X117525000Y-101730000D03*
%TO.P,J3,4,Pin_4*%
%TO.N,/SCL*%
X117525000Y-104270000D03*
%TO.P,J3,5,Pin_5*%
%TO.N,/SDA*%
X117525000Y-106810000D03*
%TO.P,J3,6,Pin_6*%
%TO.N,unconnected-(J3-Pad6)*%
X117525000Y-109350000D03*
%TO.P,J3,7,Pin_7*%
%TO.N,unconnected-(J3-Pad7)*%
X117525000Y-111890000D03*
%TO.P,J3,8,Pin_8*%
%TO.N,unconnected-(J3-Pad8)*%
X117525000Y-114430000D03*
%TO.P,J3,9,Pin_9*%
%TO.N,unconnected-(J3-Pad9)*%
X117525000Y-116970000D03*
%TD*%
D28*
%TO.N,GND*%
X105887500Y-121987500D03*
%TO.N,/led*%
X95100000Y-65500000D03*
X115400000Y-72050000D03*
%TO.N,+3V3*%
X94725000Y-115825000D03*
%TO.N,/P_SCK*%
X93450000Y-104974337D03*
%TO.N,+5V*%
X111925000Y-71450000D03*
X106125000Y-66375000D03*
%TD*%
D29*
%TO.N,/OSC1*%
X105695000Y-105040000D02*
X110235000Y-105040000D01*
X112225000Y-99937500D02*
X111025000Y-101137500D01*
X111025000Y-101137500D02*
X111025000Y-104250000D01*
X110235000Y-105040000D02*
X111025000Y-104250000D01*
%TO.N,/SCL*%
X115195000Y-72920000D02*
X117725000Y-72920000D01*
X93750000Y-68275000D02*
X94725000Y-67300000D01*
X94725000Y-67300000D02*
X106975000Y-67300000D01*
X90075000Y-75430000D02*
X93750000Y-71755000D01*
X119225000Y-74420000D02*
X117725000Y-72920000D01*
X112550000Y-70275000D02*
X115195000Y-72920000D01*
X109950000Y-70275000D02*
X112550000Y-70275000D01*
X93750000Y-71755000D02*
X93750000Y-68275000D01*
X119225000Y-102570000D02*
X119225000Y-74420000D01*
X106975000Y-67300000D02*
X109950000Y-70275000D01*
X117525000Y-104270000D02*
X119225000Y-102570000D01*
%TO.N,GND*%
X106200000Y-121675000D02*
X105887500Y-121987500D01*
X106200000Y-119912500D02*
X106200000Y-121675000D01*
X102650000Y-122450000D02*
X102775000Y-122450000D01*
X106830000Y-103770000D02*
X110125000Y-100475000D01*
X117525000Y-101730000D02*
X112607500Y-96812500D01*
X105425000Y-122450000D02*
X102775000Y-122450000D01*
X100875000Y-119800000D02*
X100875000Y-120675000D01*
X107825000Y-119912500D02*
X106200000Y-119912500D01*
X88800000Y-76695000D02*
X88800000Y-79235000D01*
X109837500Y-117900000D02*
X107825000Y-119912500D01*
X88800000Y-79235000D02*
X90075000Y-80510000D01*
X110125000Y-98912500D02*
X112225000Y-96812500D01*
X101770000Y-118905000D02*
X100875000Y-119800000D01*
X100875000Y-120675000D02*
X102650000Y-122450000D01*
X105695000Y-103770000D02*
X106830000Y-103770000D01*
X102725000Y-118905000D02*
X101770000Y-118905000D01*
X87535000Y-75430000D02*
X88800000Y-76695000D01*
X110125000Y-100475000D02*
X110125000Y-98912500D01*
X112607500Y-96812500D02*
X112225000Y-96812500D01*
X105887500Y-121987500D02*
X105425000Y-122450000D01*
%TO.N,/led*%
X115400000Y-71725000D02*
X113375000Y-69700000D01*
X113375000Y-69700000D02*
X111075929Y-69700000D01*
X115400000Y-72050000D02*
X115400000Y-71725000D01*
X106875929Y-65500000D02*
X95100000Y-65500000D01*
X111075929Y-69700000D02*
X106875929Y-65500000D01*
%TO.N,/OSC2*%
X106114337Y-106310000D02*
X111025000Y-111220663D01*
X112962500Y-115187500D02*
X111025000Y-113250000D01*
X105695000Y-106310000D02*
X106114337Y-106310000D01*
X112962500Y-117900000D02*
X112962500Y-115187500D01*
X111025000Y-111220663D02*
X111025000Y-113250000D01*
%TO.N,+3V3*%
X98180000Y-113930000D02*
X101885000Y-117635000D01*
X94500000Y-115825000D02*
X93400000Y-114725000D01*
X102725000Y-117635000D02*
X105352500Y-117635000D01*
X101885000Y-117635000D02*
X102725000Y-117635000D01*
X94725000Y-115825000D02*
X94500000Y-115825000D01*
X94195000Y-113930000D02*
X93400000Y-114725000D01*
X96475000Y-113930000D02*
X94195000Y-113930000D01*
X96475000Y-113930000D02*
X98180000Y-113930000D01*
X105352500Y-117635000D02*
X106200000Y-116787500D01*
%TO.N,/P_MOSI*%
X92400000Y-105850000D02*
X95400000Y-108850000D01*
X90075000Y-93210000D02*
X92400000Y-95535000D01*
X92400000Y-95535000D02*
X92400000Y-105850000D01*
X95400000Y-108850000D02*
X96475000Y-108850000D01*
%TO.N,/P_MISO*%
X91725000Y-97400000D02*
X90075000Y-95750000D01*
X95445000Y-110120000D02*
X91725000Y-106400000D01*
X91725000Y-106400000D02*
X91725000Y-97400000D01*
X96475000Y-110120000D02*
X95445000Y-110120000D01*
%TO.N,/GP25*%
X88800000Y-92550000D02*
X88800000Y-94485000D01*
X90750000Y-91925000D02*
X89425000Y-91925000D01*
X94725000Y-105575000D02*
X94725000Y-104525000D01*
X93025000Y-94200000D02*
X90750000Y-91925000D01*
X93025000Y-102825000D02*
X93025000Y-94200000D01*
X96475000Y-106310000D02*
X95460000Y-106310000D01*
X89425000Y-91925000D02*
X88800000Y-92550000D01*
X94725000Y-104525000D02*
X93025000Y-102825000D01*
X95460000Y-106310000D02*
X94725000Y-105575000D01*
X88800000Y-94485000D02*
X87535000Y-95750000D01*
%TO.N,/P_SCK*%
X93450000Y-105650000D02*
X93450000Y-104974337D01*
X95380000Y-107580000D02*
X93450000Y-105650000D01*
X96475000Y-107580000D02*
X95380000Y-107580000D01*
%TO.N,+5V*%
X91370479Y-68979521D02*
X88905479Y-68979521D01*
X106125000Y-66375000D02*
X93975000Y-66375000D01*
X93975000Y-66375000D02*
X91370479Y-68979521D01*
X88905479Y-68979521D02*
X87535000Y-70350000D01*
D30*
%TO.N,Net-(J4-Pad2)*%
X96950000Y-69900000D02*
X95700000Y-71150000D01*
X95700000Y-71150000D02*
X95700000Y-75825000D01*
X95700000Y-75825000D02*
X95550000Y-75975000D01*
D29*
%TO.N,/P_CE0*%
X86000000Y-111650000D02*
X86625000Y-112275000D01*
X91275000Y-112275000D02*
X92160000Y-111390000D01*
X86625000Y-112275000D02*
X91275000Y-112275000D01*
X87535000Y-98290000D02*
X86000000Y-99825000D01*
X92160000Y-111390000D02*
X96475000Y-111390000D01*
X86000000Y-99825000D02*
X86000000Y-111650000D01*
%TO.N,Net-(R1-Pad2)*%
X93400000Y-112725000D02*
X96410000Y-112725000D01*
X96410000Y-112725000D02*
X96475000Y-112660000D01*
%TO.N,Net-(R2-Pad2)*%
X97785000Y-120175000D02*
X98500000Y-120175000D01*
X98500000Y-120175000D02*
X100775000Y-122450000D01*
%TO.N,Net-(J7-Pad2)*%
X99365000Y-127000000D02*
X100865000Y-125500000D01*
X95025000Y-122425000D02*
X95025000Y-125175000D01*
X95025000Y-117750000D02*
X95025000Y-122425000D01*
X96850000Y-127000000D02*
X99365000Y-127000000D01*
X97785000Y-117635000D02*
X95140000Y-117635000D01*
X95025000Y-125175000D02*
X96850000Y-127000000D01*
X95140000Y-117635000D02*
X95025000Y-117750000D01*
%TO.N,Net-(J7-Pad1)*%
X95750000Y-119575000D02*
X95750000Y-121150000D01*
X97785000Y-118905000D02*
X96420000Y-118905000D01*
X97025000Y-122425000D02*
X98325000Y-123725000D01*
X98325000Y-123725000D02*
X98325000Y-125500000D01*
X95750000Y-121150000D02*
X97025000Y-122425000D01*
X96420000Y-118905000D02*
X95750000Y-119575000D01*
%TO.N,/RX_CAN*%
X107725000Y-117662493D02*
X107725000Y-113525000D01*
X106860000Y-112660000D02*
X105695000Y-112660000D01*
X102725000Y-120175000D02*
X103375000Y-120175000D01*
X107725000Y-113525000D02*
X106860000Y-112660000D01*
X103375000Y-120175000D02*
X105050000Y-118500000D01*
X106887493Y-118500000D02*
X107725000Y-117662493D01*
X105050000Y-118500000D02*
X106887493Y-118500000D01*
%TO.N,/TX_CAN*%
X103260000Y-116365000D02*
X102725000Y-116365000D01*
X105695000Y-113930000D02*
X103260000Y-116365000D01*
%TD*%
%TA.AperFunction,Conductor*%
%TO.N,+5V*%
G36*
X107761770Y-68986802D02*
G01*
X107782903Y-69003807D01*
X109446343Y-70667247D01*
X109453887Y-70675537D01*
X109458000Y-70682018D01*
X109463777Y-70687443D01*
X109507667Y-70728658D01*
X109510509Y-70731413D01*
X109530230Y-70751134D01*
X109533425Y-70753612D01*
X109542447Y-70761318D01*
X109574679Y-70791586D01*
X109581628Y-70795406D01*
X109592432Y-70801346D01*
X109608956Y-70812199D01*
X109624959Y-70824613D01*
X109665543Y-70842176D01*
X109676173Y-70847383D01*
X109714940Y-70868695D01*
X109722617Y-70870666D01*
X109722622Y-70870668D01*
X109734558Y-70873732D01*
X109753266Y-70880137D01*
X109771855Y-70888181D01*
X109779680Y-70889420D01*
X109779682Y-70889421D01*
X109815519Y-70895097D01*
X109827140Y-70897504D01*
X109862289Y-70906528D01*
X109869970Y-70908500D01*
X109890231Y-70908500D01*
X109909940Y-70910051D01*
X109929943Y-70913219D01*
X109937835Y-70912473D01*
X109943062Y-70911979D01*
X109973954Y-70909059D01*
X109985811Y-70908500D01*
X112235406Y-70908500D01*
X112303527Y-70928502D01*
X112324501Y-70945405D01*
X113526424Y-72147329D01*
X114691348Y-73312253D01*
X114698888Y-73320539D01*
X114703000Y-73327018D01*
X114708777Y-73332443D01*
X114752651Y-73373643D01*
X114755493Y-73376398D01*
X114775230Y-73396135D01*
X114778427Y-73398615D01*
X114787447Y-73406318D01*
X114819679Y-73436586D01*
X114826625Y-73440405D01*
X114826628Y-73440407D01*
X114837434Y-73446348D01*
X114853953Y-73457199D01*
X114869959Y-73469614D01*
X114877228Y-73472759D01*
X114877232Y-73472762D01*
X114910537Y-73487174D01*
X114921187Y-73492391D01*
X114959940Y-73513695D01*
X114967615Y-73515666D01*
X114967616Y-73515666D01*
X114979562Y-73518733D01*
X114998267Y-73525137D01*
X115016855Y-73533181D01*
X115024678Y-73534420D01*
X115024688Y-73534423D01*
X115060524Y-73540099D01*
X115072144Y-73542505D01*
X115107289Y-73551528D01*
X115114970Y-73553500D01*
X115135224Y-73553500D01*
X115154934Y-73555051D01*
X115174943Y-73558220D01*
X115182835Y-73557474D01*
X115218961Y-73554059D01*
X115230819Y-73553500D01*
X116449274Y-73553500D01*
X116517395Y-73573502D01*
X116556707Y-73613665D01*
X116624987Y-73725088D01*
X116771250Y-73893938D01*
X116943126Y-74036632D01*
X116964639Y-74049203D01*
X117016445Y-74079476D01*
X117065169Y-74131114D01*
X117078240Y-74200897D01*
X117051509Y-74266669D01*
X117011055Y-74300027D01*
X116998607Y-74306507D01*
X116994474Y-74309610D01*
X116994471Y-74309612D01*
X116824100Y-74437530D01*
X116819965Y-74440635D01*
X116816393Y-74444373D01*
X116669319Y-74598277D01*
X116665629Y-74602138D01*
X116539743Y-74786680D01*
X116445688Y-74989305D01*
X116385989Y-75204570D01*
X116362251Y-75426695D01*
X116362548Y-75431848D01*
X116362548Y-75431851D01*
X116374773Y-75643863D01*
X116375110Y-75649715D01*
X116376247Y-75654761D01*
X116376248Y-75654767D01*
X116387076Y-75702811D01*
X116424222Y-75867639D01*
X116469125Y-75978222D01*
X116497873Y-76049020D01*
X116508266Y-76074616D01*
X116624987Y-76265088D01*
X116771250Y-76433938D01*
X116775225Y-76437238D01*
X116775231Y-76437244D01*
X116780425Y-76441556D01*
X116820059Y-76500460D01*
X116821555Y-76571441D01*
X116784439Y-76631962D01*
X116744168Y-76656480D01*
X116636946Y-76696676D01*
X116621351Y-76705214D01*
X116519276Y-76781715D01*
X116506715Y-76794276D01*
X116430214Y-76896351D01*
X116421676Y-76911946D01*
X116376522Y-77032394D01*
X116372895Y-77047649D01*
X116367369Y-77098514D01*
X116367000Y-77105328D01*
X116367000Y-77727885D01*
X116371475Y-77743124D01*
X116372865Y-77744329D01*
X116380548Y-77746000D01*
X117853000Y-77746000D01*
X117921121Y-77766002D01*
X117967614Y-77819658D01*
X117979000Y-77872000D01*
X117979000Y-79339884D01*
X117983475Y-79355123D01*
X117984865Y-79356328D01*
X117992548Y-79357999D01*
X118465500Y-79357999D01*
X118533621Y-79378001D01*
X118580114Y-79431657D01*
X118591500Y-79483999D01*
X118591500Y-83392150D01*
X118571498Y-83460271D01*
X118517842Y-83506764D01*
X118454917Y-83516926D01*
X118454883Y-83517553D01*
X118452002Y-83517397D01*
X118451897Y-83517414D01*
X118451480Y-83517369D01*
X118444672Y-83517000D01*
X117822115Y-83517000D01*
X117806876Y-83521475D01*
X117805671Y-83522865D01*
X117804000Y-83530548D01*
X117804000Y-85003000D01*
X117783998Y-85071121D01*
X117730342Y-85117614D01*
X117678000Y-85129000D01*
X116210116Y-85129000D01*
X116194877Y-85133475D01*
X116193672Y-85134865D01*
X116192001Y-85142548D01*
X116192001Y-85769669D01*
X116192371Y-85776490D01*
X116197895Y-85827352D01*
X116201521Y-85842604D01*
X116246676Y-85963054D01*
X116255214Y-85978649D01*
X116331715Y-86080724D01*
X116344276Y-86093285D01*
X116446351Y-86169786D01*
X116461946Y-86178324D01*
X116570827Y-86219142D01*
X116627591Y-86261784D01*
X116652291Y-86328345D01*
X116637083Y-86397694D01*
X116617691Y-86424175D01*
X116494200Y-86553401D01*
X116490629Y-86557138D01*
X116487715Y-86561410D01*
X116487714Y-86561411D01*
X116440126Y-86631173D01*
X116364743Y-86741680D01*
X116270688Y-86944305D01*
X116210989Y-87159570D01*
X116187251Y-87381695D01*
X116187548Y-87386848D01*
X116187548Y-87386851D01*
X116191845Y-87461375D01*
X116200110Y-87604715D01*
X116201247Y-87609761D01*
X116201248Y-87609767D01*
X116218418Y-87685954D01*
X116249222Y-87822639D01*
X116333266Y-88029616D01*
X116335965Y-88034020D01*
X116437621Y-88199908D01*
X116449987Y-88220088D01*
X116596250Y-88388938D01*
X116768126Y-88531632D01*
X116778406Y-88537639D01*
X116841445Y-88574476D01*
X116890169Y-88626114D01*
X116903240Y-88695897D01*
X116876509Y-88761669D01*
X116836055Y-88795027D01*
X116823607Y-88801507D01*
X116819474Y-88804610D01*
X116819471Y-88804612D01*
X116651552Y-88930689D01*
X116644965Y-88935635D01*
X116490629Y-89097138D01*
X116487715Y-89101410D01*
X116487714Y-89101411D01*
X116440126Y-89171173D01*
X116364743Y-89281680D01*
X116270688Y-89484305D01*
X116210989Y-89699570D01*
X116187251Y-89921695D01*
X116187548Y-89926848D01*
X116187548Y-89926851D01*
X116191845Y-90001375D01*
X116200110Y-90144715D01*
X116201247Y-90149761D01*
X116201248Y-90149767D01*
X116218418Y-90225954D01*
X116249222Y-90362639D01*
X116333266Y-90569616D01*
X116335965Y-90574020D01*
X116437621Y-90739908D01*
X116449987Y-90760088D01*
X116596250Y-90928938D01*
X116768126Y-91071632D01*
X116961000Y-91184338D01*
X117169692Y-91264030D01*
X117174760Y-91265061D01*
X117174763Y-91265062D01*
X117247346Y-91279829D01*
X117388597Y-91308567D01*
X117393772Y-91308757D01*
X117393774Y-91308757D01*
X117606673Y-91316564D01*
X117606677Y-91316564D01*
X117611837Y-91316753D01*
X117616957Y-91316097D01*
X117616959Y-91316097D01*
X117828288Y-91289025D01*
X117828289Y-91289025D01*
X117833416Y-91288368D01*
X117861878Y-91279829D01*
X118042429Y-91225661D01*
X118042434Y-91225659D01*
X118047384Y-91224174D01*
X118247994Y-91125896D01*
X118252199Y-91122896D01*
X118252205Y-91122893D01*
X118392332Y-91022941D01*
X118459405Y-90999668D01*
X118528414Y-91016351D01*
X118577448Y-91067695D01*
X118591500Y-91125520D01*
X118591500Y-95169866D01*
X118571498Y-95237987D01*
X118517842Y-95284480D01*
X118451892Y-95295129D01*
X118426486Y-95292369D01*
X118419672Y-95292000D01*
X117797115Y-95292000D01*
X117781876Y-95296475D01*
X117780671Y-95297865D01*
X117779000Y-95305548D01*
X117779000Y-96778000D01*
X117758998Y-96846121D01*
X117705342Y-96892614D01*
X117653000Y-96904000D01*
X116185116Y-96904000D01*
X116169877Y-96908475D01*
X116168672Y-96909865D01*
X116167001Y-96917548D01*
X116167001Y-97544669D01*
X116167371Y-97551490D01*
X116172895Y-97602352D01*
X116176521Y-97617604D01*
X116221676Y-97738054D01*
X116230214Y-97753649D01*
X116306715Y-97855724D01*
X116319276Y-97868285D01*
X116421351Y-97944786D01*
X116436946Y-97953324D01*
X116545827Y-97994142D01*
X116602591Y-98036784D01*
X116627291Y-98103345D01*
X116612083Y-98172694D01*
X116592691Y-98199175D01*
X116542629Y-98251562D01*
X116465629Y-98332138D01*
X116462715Y-98336410D01*
X116462714Y-98336411D01*
X116401412Y-98426277D01*
X116339743Y-98516680D01*
X116306889Y-98587459D01*
X116251555Y-98706666D01*
X116245688Y-98719305D01*
X116185989Y-98934570D01*
X116162251Y-99156695D01*
X116162548Y-99161853D01*
X116162422Y-99167024D01*
X116160914Y-99166987D01*
X116146411Y-99229482D01*
X116095520Y-99278986D01*
X116025944Y-99293117D01*
X115959773Y-99267389D01*
X115947574Y-99256669D01*
X113670405Y-96979500D01*
X113636379Y-96917188D01*
X113633500Y-96890405D01*
X113633500Y-96377885D01*
X116167000Y-96377885D01*
X116171475Y-96393124D01*
X116172865Y-96394329D01*
X116180548Y-96396000D01*
X117252885Y-96396000D01*
X117268124Y-96391525D01*
X117269329Y-96390135D01*
X117271000Y-96382452D01*
X117271000Y-95310116D01*
X117266525Y-95294877D01*
X117265135Y-95293672D01*
X117257452Y-95292001D01*
X116630331Y-95292001D01*
X116623510Y-95292371D01*
X116572648Y-95297895D01*
X116557396Y-95301521D01*
X116436946Y-95346676D01*
X116421351Y-95355214D01*
X116319276Y-95431715D01*
X116306715Y-95444276D01*
X116230214Y-95546351D01*
X116221676Y-95561946D01*
X116176522Y-95682394D01*
X116172895Y-95697649D01*
X116167369Y-95748514D01*
X116167000Y-95755328D01*
X116167000Y-96377885D01*
X113633500Y-96377885D01*
X113633500Y-96349600D01*
X113622526Y-96243834D01*
X113609675Y-96205313D01*
X113568868Y-96083002D01*
X113566550Y-96076054D01*
X113473478Y-95925652D01*
X113348303Y-95800695D01*
X113342072Y-95796854D01*
X113203968Y-95711725D01*
X113203966Y-95711724D01*
X113197738Y-95707885D01*
X113037254Y-95654655D01*
X113036389Y-95654368D01*
X113036387Y-95654368D01*
X113029861Y-95652203D01*
X113023025Y-95651503D01*
X113023022Y-95651502D01*
X112979969Y-95647091D01*
X112925400Y-95641500D01*
X111524600Y-95641500D01*
X111521354Y-95641837D01*
X111521350Y-95641837D01*
X111425692Y-95651762D01*
X111425688Y-95651763D01*
X111418834Y-95652474D01*
X111412298Y-95654655D01*
X111412296Y-95654655D01*
X111329153Y-95682394D01*
X111251054Y-95708450D01*
X111100652Y-95801522D01*
X110975695Y-95926697D01*
X110971855Y-95932927D01*
X110971854Y-95932928D01*
X110967671Y-95939715D01*
X110882885Y-96077262D01*
X110858134Y-96151885D01*
X110840413Y-96205313D01*
X110827203Y-96245139D01*
X110816500Y-96349600D01*
X110816500Y-97272905D01*
X110796498Y-97341026D01*
X110779595Y-97362000D01*
X109732747Y-98408848D01*
X109724461Y-98416388D01*
X109717982Y-98420500D01*
X109712557Y-98426277D01*
X109671357Y-98470151D01*
X109668602Y-98472993D01*
X109648865Y-98492730D01*
X109646385Y-98495927D01*
X109638682Y-98504947D01*
X109608414Y-98537179D01*
X109604595Y-98544125D01*
X109604593Y-98544128D01*
X109598652Y-98554934D01*
X109587801Y-98571453D01*
X109575386Y-98587459D01*
X109572241Y-98594728D01*
X109572238Y-98594732D01*
X109557826Y-98628037D01*
X109552609Y-98638687D01*
X109531305Y-98677440D01*
X109529334Y-98685115D01*
X109529334Y-98685116D01*
X109526267Y-98697062D01*
X109519863Y-98715766D01*
X109511819Y-98734355D01*
X109510580Y-98742178D01*
X109510577Y-98742188D01*
X109504901Y-98778024D01*
X109502495Y-98789644D01*
X109491500Y-98832470D01*
X109491500Y-98852724D01*
X109489949Y-98872434D01*
X109486780Y-98892443D01*
X109487526Y-98900335D01*
X109490941Y-98936461D01*
X109491500Y-98948319D01*
X109491500Y-100160406D01*
X109471498Y-100228527D01*
X109454595Y-100249501D01*
X109292327Y-100411769D01*
X109230015Y-100445795D01*
X109159200Y-100440730D01*
X109123300Y-100413856D01*
X109120486Y-100417104D01*
X109091135Y-100391671D01*
X109083452Y-100390000D01*
X108061115Y-100390000D01*
X108045876Y-100394475D01*
X108044671Y-100395865D01*
X108043000Y-100403548D01*
X108043000Y-101425884D01*
X108047475Y-101441123D01*
X108060651Y-101452540D01*
X108099035Y-101512266D01*
X108099035Y-101583263D01*
X108067235Y-101636860D01*
X107678695Y-102025401D01*
X107616383Y-102059425D01*
X107589224Y-102062304D01*
X93784124Y-102021064D01*
X93716063Y-102000859D01*
X93669731Y-101947065D01*
X93658500Y-101895065D01*
X93658500Y-101592824D01*
X93678502Y-101524703D01*
X93732158Y-101478210D01*
X93802432Y-101468106D01*
X93837749Y-101478629D01*
X93872769Y-101494959D01*
X93872778Y-101494962D01*
X93877757Y-101497284D01*
X93883065Y-101498706D01*
X93883067Y-101498707D01*
X94093598Y-101555119D01*
X94093600Y-101555119D01*
X94098913Y-101556543D01*
X94327000Y-101576498D01*
X94555087Y-101556543D01*
X94560400Y-101555119D01*
X94560402Y-101555119D01*
X94770933Y-101498707D01*
X94770935Y-101498706D01*
X94776243Y-101497284D01*
X94781229Y-101494959D01*
X94978762Y-101402849D01*
X94978767Y-101402846D01*
X94983749Y-101400523D01*
X95139131Y-101291723D01*
X95166789Y-101272357D01*
X95166792Y-101272355D01*
X95171300Y-101269198D01*
X95333198Y-101107300D01*
X95339544Y-101098238D01*
X95441708Y-100952332D01*
X95464523Y-100919749D01*
X95466846Y-100914767D01*
X95466849Y-100914762D01*
X95488727Y-100867843D01*
X95535644Y-100814558D01*
X95603921Y-100795097D01*
X95671881Y-100815639D01*
X95717117Y-100867843D01*
X95727151Y-100889362D01*
X95727154Y-100889367D01*
X95729477Y-100894349D01*
X95750419Y-100924257D01*
X95834172Y-101043868D01*
X95860802Y-101081900D01*
X96022700Y-101243798D01*
X96027208Y-101246955D01*
X96027211Y-101246957D01*
X96082959Y-101285992D01*
X96210251Y-101375123D01*
X96215233Y-101377446D01*
X96215238Y-101377449D01*
X96357957Y-101443999D01*
X96417757Y-101471884D01*
X96423065Y-101473306D01*
X96423067Y-101473307D01*
X96633598Y-101529719D01*
X96633600Y-101529719D01*
X96638913Y-101531143D01*
X96867000Y-101551098D01*
X97095087Y-101531143D01*
X97100400Y-101529719D01*
X97100402Y-101529719D01*
X97310933Y-101473307D01*
X97310935Y-101473306D01*
X97316243Y-101471884D01*
X97376043Y-101443999D01*
X97518762Y-101377449D01*
X97518767Y-101377446D01*
X97523749Y-101375123D01*
X97651041Y-101285992D01*
X97706789Y-101246957D01*
X97706792Y-101246955D01*
X97711300Y-101243798D01*
X97873198Y-101081900D01*
X97899829Y-101043868D01*
X97944081Y-100980669D01*
X103941001Y-100980669D01*
X103941371Y-100987490D01*
X103946895Y-101038352D01*
X103950521Y-101053604D01*
X103995676Y-101174054D01*
X104004214Y-101189649D01*
X104080715Y-101291724D01*
X104093276Y-101304285D01*
X104195351Y-101380786D01*
X104210946Y-101389324D01*
X104331394Y-101434478D01*
X104346649Y-101438105D01*
X104397514Y-101443631D01*
X104404328Y-101444000D01*
X104976885Y-101444000D01*
X104992124Y-101439525D01*
X104993329Y-101438135D01*
X104995000Y-101430452D01*
X104995000Y-101425884D01*
X105503000Y-101425884D01*
X105507475Y-101441123D01*
X105508865Y-101442328D01*
X105516548Y-101443999D01*
X106093669Y-101443999D01*
X106100490Y-101443629D01*
X106151352Y-101438105D01*
X106166604Y-101434479D01*
X106287054Y-101389324D01*
X106302649Y-101380786D01*
X106404724Y-101304285D01*
X106417286Y-101291723D01*
X106418174Y-101290538D01*
X106419351Y-101289658D01*
X106423635Y-101285374D01*
X106424253Y-101285992D01*
X106475033Y-101248023D01*
X106545852Y-101242997D01*
X106608145Y-101277057D01*
X106619826Y-101290538D01*
X106620714Y-101291723D01*
X106633276Y-101304285D01*
X106735351Y-101380786D01*
X106750946Y-101389324D01*
X106871394Y-101434478D01*
X106886649Y-101438105D01*
X106937514Y-101443631D01*
X106944328Y-101444000D01*
X107516885Y-101444000D01*
X107532124Y-101439525D01*
X107533329Y-101438135D01*
X107535000Y-101430452D01*
X107535000Y-100408115D01*
X107530525Y-100392876D01*
X107529135Y-100391671D01*
X107521452Y-100390000D01*
X105521115Y-100390000D01*
X105505876Y-100394475D01*
X105504671Y-100395865D01*
X105503000Y-100403548D01*
X105503000Y-101425884D01*
X104995000Y-101425884D01*
X104995000Y-100408115D01*
X104990525Y-100392876D01*
X104989135Y-100391671D01*
X104981452Y-100390000D01*
X103959116Y-100390000D01*
X103943877Y-100394475D01*
X103942672Y-100395865D01*
X103941001Y-100403548D01*
X103941001Y-100980669D01*
X97944081Y-100980669D01*
X97983581Y-100924257D01*
X98004523Y-100894349D01*
X98006846Y-100889367D01*
X98006849Y-100889362D01*
X98098961Y-100691825D01*
X98098961Y-100691824D01*
X98101284Y-100686843D01*
X98103137Y-100679930D01*
X98159119Y-100471002D01*
X98159119Y-100471000D01*
X98160543Y-100465687D01*
X98180498Y-100237600D01*
X98160543Y-100009513D01*
X98121522Y-99863885D01*
X103941000Y-99863885D01*
X103945475Y-99879124D01*
X103946865Y-99880329D01*
X103954548Y-99882000D01*
X104976885Y-99882000D01*
X104992124Y-99877525D01*
X104993329Y-99876135D01*
X104995000Y-99868452D01*
X104995000Y-99863885D01*
X105503000Y-99863885D01*
X105507475Y-99879124D01*
X105508865Y-99880329D01*
X105516548Y-99882000D01*
X107516885Y-99882000D01*
X107532124Y-99877525D01*
X107533329Y-99876135D01*
X107535000Y-99868452D01*
X107535000Y-99863885D01*
X108043000Y-99863885D01*
X108047475Y-99879124D01*
X108048865Y-99880329D01*
X108056548Y-99882000D01*
X109078884Y-99882000D01*
X109094123Y-99877525D01*
X109095328Y-99876135D01*
X109096999Y-99868452D01*
X109096999Y-99291331D01*
X109096629Y-99284510D01*
X109091105Y-99233648D01*
X109087479Y-99218396D01*
X109042324Y-99097946D01*
X109033786Y-99082351D01*
X108957285Y-98980276D01*
X108944724Y-98967715D01*
X108842649Y-98891214D01*
X108827054Y-98882676D01*
X108706606Y-98837522D01*
X108691351Y-98833895D01*
X108640486Y-98828369D01*
X108633672Y-98828000D01*
X108061115Y-98828000D01*
X108045876Y-98832475D01*
X108044671Y-98833865D01*
X108043000Y-98841548D01*
X108043000Y-99863885D01*
X107535000Y-99863885D01*
X107535000Y-98846116D01*
X107530525Y-98830877D01*
X107529135Y-98829672D01*
X107521452Y-98828001D01*
X106944331Y-98828001D01*
X106937510Y-98828371D01*
X106886648Y-98833895D01*
X106871396Y-98837521D01*
X106750946Y-98882676D01*
X106735351Y-98891214D01*
X106633276Y-98967715D01*
X106620714Y-98980277D01*
X106619826Y-98981462D01*
X106618649Y-98982342D01*
X106614365Y-98986626D01*
X106613747Y-98986008D01*
X106562967Y-99023977D01*
X106492148Y-99029003D01*
X106429855Y-98994943D01*
X106418174Y-98981462D01*
X106417286Y-98980277D01*
X106404724Y-98967715D01*
X106302649Y-98891214D01*
X106287054Y-98882676D01*
X106166606Y-98837522D01*
X106151351Y-98833895D01*
X106100486Y-98828369D01*
X106093672Y-98828000D01*
X105521115Y-98828000D01*
X105505876Y-98832475D01*
X105504671Y-98833865D01*
X105503000Y-98841548D01*
X105503000Y-99863885D01*
X104995000Y-99863885D01*
X104995000Y-98846116D01*
X104990525Y-98830877D01*
X104989135Y-98829672D01*
X104981452Y-98828001D01*
X104404331Y-98828001D01*
X104397510Y-98828371D01*
X104346648Y-98833895D01*
X104331396Y-98837521D01*
X104210946Y-98882676D01*
X104195351Y-98891214D01*
X104093276Y-98967715D01*
X104080715Y-98980276D01*
X104004214Y-99082351D01*
X103995676Y-99097946D01*
X103950522Y-99218394D01*
X103946895Y-99233649D01*
X103941369Y-99284514D01*
X103941000Y-99291328D01*
X103941000Y-99863885D01*
X98121522Y-99863885D01*
X98108090Y-99813757D01*
X98102707Y-99793667D01*
X98102706Y-99793665D01*
X98101284Y-99788357D01*
X98090989Y-99766279D01*
X98006849Y-99585838D01*
X98006846Y-99585833D01*
X98004523Y-99580851D01*
X97894142Y-99423211D01*
X97876357Y-99397811D01*
X97876355Y-99397808D01*
X97873198Y-99393300D01*
X97711300Y-99231402D01*
X97706792Y-99228245D01*
X97706789Y-99228243D01*
X97619306Y-99166987D01*
X97523749Y-99100077D01*
X97518767Y-99097754D01*
X97518762Y-99097751D01*
X97321225Y-99005639D01*
X97321224Y-99005639D01*
X97316243Y-99003316D01*
X97310935Y-99001894D01*
X97310933Y-99001893D01*
X97100402Y-98945481D01*
X97100400Y-98945481D01*
X97095087Y-98944057D01*
X96867000Y-98924102D01*
X96638913Y-98944057D01*
X96633600Y-98945481D01*
X96633598Y-98945481D01*
X96423067Y-99001893D01*
X96423065Y-99001894D01*
X96417757Y-99003316D01*
X96412776Y-99005639D01*
X96412775Y-99005639D01*
X96215238Y-99097751D01*
X96215233Y-99097754D01*
X96210251Y-99100077D01*
X96114694Y-99166987D01*
X96027211Y-99228243D01*
X96027208Y-99228245D01*
X96022700Y-99231402D01*
X95860802Y-99393300D01*
X95857645Y-99397808D01*
X95857643Y-99397811D01*
X95839858Y-99423211D01*
X95729477Y-99580851D01*
X95727154Y-99585833D01*
X95727151Y-99585838D01*
X95705273Y-99632757D01*
X95658356Y-99686042D01*
X95590079Y-99705503D01*
X95522119Y-99684961D01*
X95476883Y-99632757D01*
X95466849Y-99611238D01*
X95466846Y-99611233D01*
X95464523Y-99606251D01*
X95333198Y-99418700D01*
X95171300Y-99256802D01*
X95166792Y-99253645D01*
X95166789Y-99253643D01*
X95043031Y-99166987D01*
X94983749Y-99125477D01*
X94978767Y-99123154D01*
X94978762Y-99123151D01*
X94781225Y-99031039D01*
X94781224Y-99031039D01*
X94776243Y-99028716D01*
X94770935Y-99027294D01*
X94770933Y-99027293D01*
X94560402Y-98970881D01*
X94560400Y-98970881D01*
X94555087Y-98969457D01*
X94327000Y-98949502D01*
X94098913Y-98969457D01*
X94093600Y-98970881D01*
X94093598Y-98970881D01*
X93883067Y-99027293D01*
X93883065Y-99027294D01*
X93877757Y-99028716D01*
X93872778Y-99031038D01*
X93872769Y-99031041D01*
X93837749Y-99047371D01*
X93767557Y-99058032D01*
X93702744Y-99029051D01*
X93663889Y-98969631D01*
X93658500Y-98933176D01*
X93658500Y-94278767D01*
X93659027Y-94267584D01*
X93660702Y-94260091D01*
X93658562Y-94192000D01*
X93658500Y-94188043D01*
X93658500Y-94160144D01*
X93657996Y-94156153D01*
X93657063Y-94144311D01*
X93655923Y-94108036D01*
X93655674Y-94100111D01*
X93653462Y-94092497D01*
X93653461Y-94092492D01*
X93650023Y-94080659D01*
X93646012Y-94061295D01*
X93644467Y-94049064D01*
X93643474Y-94041203D01*
X93640557Y-94033836D01*
X93640556Y-94033831D01*
X93627198Y-94000092D01*
X93623354Y-93988865D01*
X93613230Y-93954022D01*
X93611018Y-93946407D01*
X93600707Y-93928972D01*
X93592012Y-93911224D01*
X93584552Y-93892383D01*
X93558564Y-93856613D01*
X93552048Y-93846693D01*
X93533580Y-93815465D01*
X93533578Y-93815462D01*
X93529542Y-93808638D01*
X93515221Y-93794317D01*
X93502380Y-93779283D01*
X93495131Y-93769306D01*
X93490472Y-93762893D01*
X93456395Y-93734702D01*
X93447616Y-93726712D01*
X91256230Y-91535325D01*
X91222204Y-91473013D01*
X91227269Y-91402197D01*
X91238503Y-91381151D01*
X91237771Y-91380711D01*
X91240436Y-91376276D01*
X91243453Y-91372077D01*
X91274748Y-91308757D01*
X91340136Y-91176453D01*
X91340137Y-91176451D01*
X91342430Y-91171811D01*
X91407370Y-90958069D01*
X91436529Y-90736590D01*
X91438156Y-90670000D01*
X91419852Y-90447361D01*
X91365431Y-90230702D01*
X91276354Y-90025840D01*
X91155014Y-89838277D01*
X91004670Y-89673051D01*
X91000619Y-89669852D01*
X91000615Y-89669848D01*
X90833414Y-89537800D01*
X90833410Y-89537798D01*
X90829359Y-89534598D01*
X90788053Y-89511796D01*
X90738084Y-89461364D01*
X90723312Y-89391921D01*
X90748428Y-89325516D01*
X90775780Y-89298909D01*
X90819603Y-89267650D01*
X90954860Y-89171173D01*
X91113096Y-89013489D01*
X91166354Y-88939373D01*
X91240435Y-88836277D01*
X91243453Y-88832077D01*
X91249621Y-88819598D01*
X91340136Y-88636453D01*
X91340137Y-88636451D01*
X91342430Y-88631811D01*
X91407370Y-88418069D01*
X91436529Y-88196590D01*
X91438156Y-88130000D01*
X91419852Y-87907361D01*
X91365431Y-87690702D01*
X91276354Y-87485840D01*
X91155014Y-87298277D01*
X91004670Y-87133051D01*
X91000619Y-87129852D01*
X91000615Y-87129848D01*
X90833414Y-86997800D01*
X90833410Y-86997798D01*
X90829359Y-86994598D01*
X90788053Y-86971796D01*
X90738084Y-86921364D01*
X90723312Y-86851921D01*
X90748428Y-86785516D01*
X90775780Y-86758909D01*
X90819603Y-86727650D01*
X90954860Y-86631173D01*
X91113096Y-86473489D01*
X91169040Y-86395635D01*
X91240435Y-86296277D01*
X91243453Y-86292077D01*
X91249621Y-86279598D01*
X91340136Y-86096453D01*
X91340137Y-86096451D01*
X91342430Y-86091811D01*
X91376811Y-85978649D01*
X91405865Y-85883023D01*
X91405865Y-85883021D01*
X91407370Y-85878069D01*
X91436529Y-85656590D01*
X91438156Y-85590000D01*
X91419852Y-85367361D01*
X91365431Y-85150702D01*
X91276354Y-84945840D01*
X91155014Y-84758277D01*
X91013618Y-84602885D01*
X116192000Y-84602885D01*
X116196475Y-84618124D01*
X116197865Y-84619329D01*
X116205548Y-84621000D01*
X117277885Y-84621000D01*
X117293124Y-84616525D01*
X117294329Y-84615135D01*
X117296000Y-84607452D01*
X117296000Y-83535116D01*
X117291525Y-83519877D01*
X117290135Y-83518672D01*
X117282452Y-83517001D01*
X116655331Y-83517001D01*
X116648510Y-83517371D01*
X116597648Y-83522895D01*
X116582396Y-83526521D01*
X116461946Y-83571676D01*
X116446351Y-83580214D01*
X116344276Y-83656715D01*
X116331715Y-83669276D01*
X116255214Y-83771351D01*
X116246676Y-83786946D01*
X116201522Y-83907394D01*
X116197895Y-83922649D01*
X116192369Y-83973514D01*
X116192000Y-83980328D01*
X116192000Y-84602885D01*
X91013618Y-84602885D01*
X91004670Y-84593051D01*
X91000619Y-84589852D01*
X91000615Y-84589848D01*
X90833414Y-84457800D01*
X90833410Y-84457798D01*
X90829359Y-84454598D01*
X90788053Y-84431796D01*
X90738084Y-84381364D01*
X90723312Y-84311921D01*
X90748428Y-84245516D01*
X90775780Y-84218909D01*
X90819603Y-84187650D01*
X90954860Y-84091173D01*
X91113096Y-83933489D01*
X91172594Y-83850689D01*
X91240435Y-83756277D01*
X91243453Y-83752077D01*
X91264320Y-83709857D01*
X91340136Y-83556453D01*
X91340137Y-83556451D01*
X91342430Y-83551811D01*
X91407370Y-83338069D01*
X91436529Y-83116590D01*
X91438156Y-83050000D01*
X91419852Y-82827361D01*
X91365431Y-82610702D01*
X91276354Y-82405840D01*
X91230523Y-82334996D01*
X91157822Y-82222617D01*
X91157820Y-82222614D01*
X91155014Y-82218277D01*
X91004670Y-82053051D01*
X91000619Y-82049852D01*
X91000615Y-82049848D01*
X90833414Y-81917800D01*
X90833410Y-81917798D01*
X90829359Y-81914598D01*
X90788053Y-81891796D01*
X90738084Y-81841364D01*
X90723312Y-81771921D01*
X90748428Y-81705516D01*
X90775780Y-81678909D01*
X90825772Y-81643250D01*
X90954860Y-81551173D01*
X91113096Y-81393489D01*
X91151532Y-81340000D01*
X93013502Y-81340000D01*
X93033457Y-81568087D01*
X93034881Y-81573400D01*
X93034881Y-81573402D01*
X93088075Y-81771921D01*
X93092716Y-81789243D01*
X93095039Y-81794224D01*
X93095039Y-81794225D01*
X93187151Y-81991762D01*
X93187154Y-81991767D01*
X93189477Y-81996749D01*
X93262902Y-82101611D01*
X93303017Y-82158900D01*
X93320802Y-82184300D01*
X93482700Y-82346198D01*
X93487208Y-82349355D01*
X93487211Y-82349357D01*
X93528542Y-82378297D01*
X93670251Y-82477523D01*
X93675233Y-82479846D01*
X93675238Y-82479849D01*
X93872775Y-82571961D01*
X93877757Y-82574284D01*
X93883065Y-82575706D01*
X93883067Y-82575707D01*
X94093598Y-82632119D01*
X94093600Y-82632119D01*
X94098913Y-82633543D01*
X94327000Y-82653498D01*
X94555087Y-82633543D01*
X94560400Y-82632119D01*
X94560402Y-82632119D01*
X94770933Y-82575707D01*
X94770935Y-82575706D01*
X94776243Y-82574284D01*
X94781225Y-82571961D01*
X94978762Y-82479849D01*
X94978767Y-82479846D01*
X94983749Y-82477523D01*
X95125458Y-82378297D01*
X95166789Y-82349357D01*
X95166792Y-82349355D01*
X95171300Y-82346198D01*
X95333198Y-82184300D01*
X95350984Y-82158900D01*
X95391098Y-82101611D01*
X95464523Y-81996749D01*
X95466846Y-81991767D01*
X95466849Y-81991762D01*
X95488727Y-81944843D01*
X95535644Y-81891558D01*
X95603921Y-81872097D01*
X95671881Y-81892639D01*
X95717117Y-81944843D01*
X95727151Y-81966362D01*
X95727154Y-81966367D01*
X95729477Y-81971349D01*
X95860802Y-82158900D01*
X96022700Y-82320798D01*
X96027208Y-82323955D01*
X96027211Y-82323957D01*
X96102508Y-82376680D01*
X96210251Y-82452123D01*
X96215233Y-82454446D01*
X96215238Y-82454449D01*
X96331457Y-82508642D01*
X96417757Y-82548884D01*
X96423065Y-82550306D01*
X96423067Y-82550307D01*
X96633598Y-82606719D01*
X96633600Y-82606719D01*
X96638913Y-82608143D01*
X96867000Y-82628098D01*
X97095087Y-82608143D01*
X97100400Y-82606719D01*
X97100402Y-82606719D01*
X97310933Y-82550307D01*
X97310935Y-82550306D01*
X97316243Y-82548884D01*
X97402543Y-82508642D01*
X97518762Y-82454449D01*
X97518767Y-82454446D01*
X97523749Y-82452123D01*
X97631492Y-82376680D01*
X97706789Y-82323957D01*
X97706792Y-82323955D01*
X97711300Y-82320798D01*
X97843964Y-82188134D01*
X103813500Y-82188134D01*
X103820255Y-82250316D01*
X103871385Y-82386705D01*
X103958739Y-82503261D01*
X104075295Y-82590615D01*
X104211684Y-82641745D01*
X104273866Y-82648500D01*
X105970134Y-82648500D01*
X106032316Y-82641745D01*
X106168705Y-82590615D01*
X106285261Y-82503261D01*
X106291174Y-82495372D01*
X106291878Y-82494845D01*
X106296992Y-82489731D01*
X106297730Y-82490469D01*
X106348031Y-82452857D01*
X106418849Y-82447830D01*
X106481143Y-82481888D01*
X106492823Y-82495367D01*
X106498739Y-82503261D01*
X106615295Y-82590615D01*
X106751684Y-82641745D01*
X106813866Y-82648500D01*
X108510134Y-82648500D01*
X108572316Y-82641745D01*
X108708705Y-82590615D01*
X108825261Y-82503261D01*
X108912615Y-82386705D01*
X108963745Y-82250316D01*
X108970500Y-82188134D01*
X108970500Y-80491866D01*
X108963745Y-80429684D01*
X108912615Y-80293295D01*
X108825261Y-80176739D01*
X108708705Y-80089385D01*
X108572316Y-80038255D01*
X108510134Y-80031500D01*
X106813866Y-80031500D01*
X106751684Y-80038255D01*
X106615295Y-80089385D01*
X106498739Y-80176739D01*
X106492826Y-80184628D01*
X106492122Y-80185155D01*
X106487008Y-80190269D01*
X106486270Y-80189531D01*
X106435969Y-80227143D01*
X106365151Y-80232170D01*
X106302857Y-80198112D01*
X106291177Y-80184633D01*
X106285261Y-80176739D01*
X106168705Y-80089385D01*
X106032316Y-80038255D01*
X105970134Y-80031500D01*
X104273866Y-80031500D01*
X104211684Y-80038255D01*
X104075295Y-80089385D01*
X103958739Y-80176739D01*
X103871385Y-80293295D01*
X103820255Y-80429684D01*
X103813500Y-80491866D01*
X103813500Y-82188134D01*
X97843964Y-82188134D01*
X97873198Y-82158900D01*
X98004523Y-81971349D01*
X98006846Y-81966367D01*
X98006849Y-81966362D01*
X98098961Y-81768825D01*
X98098961Y-81768824D01*
X98101284Y-81763843D01*
X98137351Y-81629242D01*
X98159119Y-81548002D01*
X98159119Y-81548000D01*
X98160543Y-81542687D01*
X98180498Y-81314600D01*
X98160543Y-81086513D01*
X98159119Y-81081198D01*
X98102707Y-80870667D01*
X98102706Y-80870665D01*
X98101284Y-80865357D01*
X98098961Y-80860375D01*
X98006849Y-80662838D01*
X98006846Y-80662833D01*
X98004523Y-80657851D01*
X97903353Y-80513365D01*
X97876357Y-80474811D01*
X97876355Y-80474808D01*
X97873198Y-80470300D01*
X97711300Y-80308402D01*
X97706792Y-80305245D01*
X97706789Y-80305243D01*
X97595250Y-80227143D01*
X97523749Y-80177077D01*
X97518767Y-80174754D01*
X97518762Y-80174751D01*
X97321225Y-80082639D01*
X97321224Y-80082639D01*
X97316243Y-80080316D01*
X97310935Y-80078894D01*
X97310933Y-80078893D01*
X97100402Y-80022481D01*
X97100400Y-80022481D01*
X97095087Y-80021057D01*
X96867000Y-80001102D01*
X96638913Y-80021057D01*
X96633600Y-80022481D01*
X96633598Y-80022481D01*
X96423067Y-80078893D01*
X96423065Y-80078894D01*
X96417757Y-80080316D01*
X96412776Y-80082639D01*
X96412775Y-80082639D01*
X96215238Y-80174751D01*
X96215233Y-80174754D01*
X96210251Y-80177077D01*
X96138750Y-80227143D01*
X96027211Y-80305243D01*
X96027208Y-80305245D01*
X96022700Y-80308402D01*
X95860802Y-80470300D01*
X95857645Y-80474808D01*
X95857643Y-80474811D01*
X95830647Y-80513365D01*
X95729477Y-80657851D01*
X95727154Y-80662833D01*
X95727151Y-80662838D01*
X95705273Y-80709757D01*
X95658356Y-80763042D01*
X95590079Y-80782503D01*
X95522119Y-80761961D01*
X95476883Y-80709757D01*
X95466849Y-80688238D01*
X95466846Y-80688233D01*
X95464523Y-80683251D01*
X95343211Y-80510000D01*
X95336357Y-80500211D01*
X95336355Y-80500208D01*
X95333198Y-80495700D01*
X95171300Y-80333802D01*
X95166792Y-80330645D01*
X95166789Y-80330643D01*
X95051030Y-80249588D01*
X94983749Y-80202477D01*
X94978767Y-80200154D01*
X94978762Y-80200151D01*
X94781225Y-80108039D01*
X94781224Y-80108039D01*
X94776243Y-80105716D01*
X94770935Y-80104294D01*
X94770933Y-80104293D01*
X94560402Y-80047881D01*
X94560400Y-80047881D01*
X94555087Y-80046457D01*
X94327000Y-80026502D01*
X94098913Y-80046457D01*
X94093600Y-80047881D01*
X94093598Y-80047881D01*
X93883067Y-80104293D01*
X93883065Y-80104294D01*
X93877757Y-80105716D01*
X93872776Y-80108039D01*
X93872775Y-80108039D01*
X93675238Y-80200151D01*
X93675233Y-80200154D01*
X93670251Y-80202477D01*
X93602970Y-80249588D01*
X93487211Y-80330643D01*
X93487208Y-80330645D01*
X93482700Y-80333802D01*
X93320802Y-80495700D01*
X93317645Y-80500208D01*
X93317643Y-80500211D01*
X93310789Y-80510000D01*
X93189477Y-80683251D01*
X93187154Y-80688233D01*
X93187151Y-80688238D01*
X93106883Y-80860375D01*
X93092716Y-80890757D01*
X93091294Y-80896065D01*
X93091293Y-80896067D01*
X93034881Y-81106598D01*
X93033457Y-81111913D01*
X93013502Y-81340000D01*
X91151532Y-81340000D01*
X91172594Y-81310689D01*
X91240435Y-81216277D01*
X91243453Y-81212077D01*
X91264320Y-81169857D01*
X91340136Y-81016453D01*
X91340137Y-81016451D01*
X91342430Y-81011811D01*
X91407370Y-80798069D01*
X91436529Y-80576590D01*
X91438156Y-80510000D01*
X91419852Y-80287361D01*
X91365431Y-80070702D01*
X91276354Y-79865840D01*
X91155014Y-79678277D01*
X91004670Y-79513051D01*
X91000619Y-79509852D01*
X91000615Y-79509848D01*
X90833414Y-79377800D01*
X90833410Y-79377798D01*
X90829359Y-79374598D01*
X90788053Y-79351796D01*
X90738084Y-79301364D01*
X90723312Y-79231921D01*
X90748428Y-79165516D01*
X90775780Y-79138909D01*
X90825213Y-79103649D01*
X90954860Y-79011173D01*
X91071772Y-78894669D01*
X116367001Y-78894669D01*
X116367371Y-78901490D01*
X116372895Y-78952352D01*
X116376521Y-78967604D01*
X116421676Y-79088054D01*
X116430214Y-79103649D01*
X116506715Y-79205724D01*
X116519276Y-79218285D01*
X116621351Y-79294786D01*
X116636946Y-79303324D01*
X116757394Y-79348478D01*
X116772649Y-79352105D01*
X116823514Y-79357631D01*
X116830328Y-79358000D01*
X117452885Y-79358000D01*
X117468124Y-79353525D01*
X117469329Y-79352135D01*
X117471000Y-79344452D01*
X117471000Y-78272115D01*
X117466525Y-78256876D01*
X117465135Y-78255671D01*
X117457452Y-78254000D01*
X116385116Y-78254000D01*
X116369877Y-78258475D01*
X116368672Y-78259865D01*
X116367001Y-78267548D01*
X116367001Y-78894669D01*
X91071772Y-78894669D01*
X91113096Y-78853489D01*
X91172594Y-78770689D01*
X91240435Y-78676277D01*
X91243453Y-78672077D01*
X91342430Y-78471811D01*
X91374900Y-78364940D01*
X91405865Y-78263023D01*
X91405865Y-78263021D01*
X91407370Y-78258069D01*
X91436529Y-78036590D01*
X91438156Y-77970000D01*
X91419852Y-77747361D01*
X91365431Y-77530702D01*
X91276354Y-77325840D01*
X91155014Y-77138277D01*
X91004670Y-76973051D01*
X91000619Y-76969852D01*
X91000615Y-76969848D01*
X90833414Y-76837800D01*
X90833410Y-76837798D01*
X90829359Y-76834598D01*
X90788053Y-76811796D01*
X90738084Y-76761364D01*
X90723312Y-76691921D01*
X90748428Y-76625516D01*
X90775780Y-76598909D01*
X90819603Y-76567650D01*
X90954860Y-76471173D01*
X90974158Y-76451943D01*
X91036209Y-76390107D01*
X91113096Y-76313489D01*
X91147876Y-76265088D01*
X91240435Y-76136277D01*
X91243453Y-76132077D01*
X91262097Y-76094355D01*
X91340136Y-75936453D01*
X91340137Y-75936451D01*
X91342430Y-75931811D01*
X91407370Y-75718069D01*
X91436529Y-75496590D01*
X91438156Y-75430000D01*
X91419852Y-75207361D01*
X91391821Y-75095765D01*
X91394625Y-75024823D01*
X91424930Y-74975974D01*
X93976405Y-72424500D01*
X94038717Y-72390474D01*
X94109533Y-72395539D01*
X94166368Y-72438086D01*
X94191179Y-72504606D01*
X94191500Y-72513595D01*
X94191500Y-73957567D01*
X94171498Y-74025688D01*
X94117842Y-74072181D01*
X94079108Y-74082830D01*
X94073543Y-74083435D01*
X94052184Y-74085755D01*
X93915795Y-74136885D01*
X93799239Y-74224239D01*
X93711885Y-74340795D01*
X93660755Y-74477184D01*
X93654000Y-74539366D01*
X93654000Y-77410634D01*
X93660755Y-77472816D01*
X93711885Y-77609205D01*
X93799239Y-77725761D01*
X93915795Y-77813115D01*
X94052184Y-77864245D01*
X94114366Y-77871000D01*
X96985634Y-77871000D01*
X97047816Y-77864245D01*
X97184205Y-77813115D01*
X97300761Y-77725761D01*
X97388115Y-77609205D01*
X97439245Y-77472816D01*
X97446000Y-77410634D01*
X97446000Y-75915293D01*
X98350095Y-75915293D01*
X98350270Y-75919745D01*
X98356167Y-76069829D01*
X98360636Y-76183588D01*
X98408875Y-76447720D01*
X98493850Y-76702421D01*
X98547618Y-76810027D01*
X98590752Y-76896351D01*
X98613865Y-76942608D01*
X98616394Y-76946267D01*
X98746460Y-77134457D01*
X98766524Y-77163488D01*
X98948783Y-77360655D01*
X98952237Y-77363467D01*
X99153548Y-77527360D01*
X99153552Y-77527363D01*
X99157005Y-77530174D01*
X99387035Y-77668664D01*
X99391130Y-77670398D01*
X99391132Y-77670399D01*
X99565725Y-77744329D01*
X99634284Y-77773360D01*
X99638577Y-77774498D01*
X99638582Y-77774500D01*
X99763908Y-77807729D01*
X99893818Y-77842174D01*
X100160458Y-77873733D01*
X100428885Y-77867407D01*
X100433279Y-77866676D01*
X100433286Y-77866675D01*
X100689341Y-77824056D01*
X100689345Y-77824055D01*
X100693743Y-77823323D01*
X100933931Y-77747361D01*
X100945501Y-77743702D01*
X100945503Y-77743701D01*
X100949747Y-77742359D01*
X100953758Y-77740433D01*
X100953763Y-77740431D01*
X101187770Y-77628062D01*
X101187771Y-77628061D01*
X101191789Y-77626132D01*
X101195495Y-77623656D01*
X101411332Y-77479439D01*
X101411336Y-77479436D01*
X101415040Y-77476961D01*
X101615045Y-77297821D01*
X101787814Y-77092287D01*
X101864175Y-76969848D01*
X101927542Y-76868242D01*
X101927542Y-76868241D01*
X101929900Y-76864461D01*
X102038467Y-76618888D01*
X102111349Y-76360467D01*
X102127665Y-76238990D01*
X102146665Y-76097537D01*
X102146666Y-76097529D01*
X102147092Y-76094355D01*
X102150843Y-75975000D01*
X102146616Y-75915293D01*
X103050095Y-75915293D01*
X103050270Y-75919745D01*
X103056167Y-76069829D01*
X103060636Y-76183588D01*
X103108875Y-76447720D01*
X103193850Y-76702421D01*
X103247618Y-76810027D01*
X103290752Y-76896351D01*
X103313865Y-76942608D01*
X103316394Y-76946267D01*
X103446460Y-77134457D01*
X103466524Y-77163488D01*
X103648783Y-77360655D01*
X103652237Y-77363467D01*
X103853548Y-77527360D01*
X103853552Y-77527363D01*
X103857005Y-77530174D01*
X104087035Y-77668664D01*
X104091130Y-77670398D01*
X104091132Y-77670399D01*
X104265725Y-77744329D01*
X104334284Y-77773360D01*
X104338577Y-77774498D01*
X104338582Y-77774500D01*
X104463908Y-77807729D01*
X104593818Y-77842174D01*
X104860458Y-77873733D01*
X105128885Y-77867407D01*
X105133279Y-77866676D01*
X105133286Y-77866675D01*
X105389341Y-77824056D01*
X105389345Y-77824055D01*
X105393743Y-77823323D01*
X105633931Y-77747361D01*
X105645501Y-77743702D01*
X105645503Y-77743701D01*
X105649747Y-77742359D01*
X105653758Y-77740433D01*
X105653763Y-77740431D01*
X105887770Y-77628062D01*
X105887771Y-77628061D01*
X105891789Y-77626132D01*
X105895495Y-77623656D01*
X106111332Y-77479439D01*
X106111336Y-77479436D01*
X106115040Y-77476961D01*
X106315045Y-77297821D01*
X106487814Y-77092287D01*
X106564175Y-76969848D01*
X106627542Y-76868242D01*
X106627542Y-76868241D01*
X106629900Y-76864461D01*
X106738467Y-76618888D01*
X106811349Y-76360467D01*
X106827665Y-76238990D01*
X106846665Y-76097537D01*
X106846666Y-76097529D01*
X106847092Y-76094355D01*
X106850843Y-75975000D01*
X106831880Y-75707169D01*
X106819511Y-75649715D01*
X106776304Y-75449029D01*
X106776304Y-75449027D01*
X106775368Y-75444682D01*
X106682435Y-75192776D01*
X106592709Y-75026485D01*
X106557048Y-74960393D01*
X106554935Y-74956477D01*
X106395412Y-74740501D01*
X106207050Y-74549157D01*
X106203510Y-74546456D01*
X106203504Y-74546450D01*
X105997147Y-74388963D01*
X105997143Y-74388960D01*
X105993606Y-74386261D01*
X105759340Y-74255066D01*
X105508924Y-74158188D01*
X105504599Y-74157185D01*
X105504594Y-74157184D01*
X105360944Y-74123888D01*
X105247357Y-74097560D01*
X104979857Y-74074392D01*
X104975422Y-74074636D01*
X104975418Y-74074636D01*
X104716204Y-74088901D01*
X104716197Y-74088902D01*
X104711761Y-74089146D01*
X104448419Y-74141528D01*
X104195084Y-74230493D01*
X103956812Y-74354265D01*
X103953197Y-74356848D01*
X103953191Y-74356852D01*
X103741978Y-74507787D01*
X103741974Y-74507790D01*
X103738357Y-74510375D01*
X103544077Y-74695709D01*
X103377850Y-74906568D01*
X103242991Y-75138745D01*
X103241323Y-75142862D01*
X103241320Y-75142869D01*
X103214248Y-75209707D01*
X103142191Y-75387607D01*
X103077462Y-75648190D01*
X103050095Y-75915293D01*
X102146616Y-75915293D01*
X102131880Y-75707169D01*
X102119511Y-75649715D01*
X102076304Y-75449029D01*
X102076304Y-75449027D01*
X102075368Y-75444682D01*
X101982435Y-75192776D01*
X101892709Y-75026485D01*
X101857048Y-74960393D01*
X101854935Y-74956477D01*
X101695412Y-74740501D01*
X101507050Y-74549157D01*
X101503510Y-74546456D01*
X101503504Y-74546450D01*
X101297147Y-74388963D01*
X101297143Y-74388960D01*
X101293606Y-74386261D01*
X101059340Y-74255066D01*
X100808924Y-74158188D01*
X100804599Y-74157185D01*
X100804594Y-74157184D01*
X100660944Y-74123888D01*
X100547357Y-74097560D01*
X100279857Y-74074392D01*
X100275422Y-74074636D01*
X100275418Y-74074636D01*
X100016204Y-74088901D01*
X100016197Y-74088902D01*
X100011761Y-74089146D01*
X99748419Y-74141528D01*
X99495084Y-74230493D01*
X99256812Y-74354265D01*
X99253197Y-74356848D01*
X99253191Y-74356852D01*
X99041978Y-74507787D01*
X99041974Y-74507790D01*
X99038357Y-74510375D01*
X98844077Y-74695709D01*
X98677850Y-74906568D01*
X98542991Y-75138745D01*
X98541323Y-75142862D01*
X98541320Y-75142869D01*
X98514248Y-75209707D01*
X98442191Y-75387607D01*
X98377462Y-75648190D01*
X98350095Y-75915293D01*
X97446000Y-75915293D01*
X97446000Y-74539366D01*
X97439245Y-74477184D01*
X97388115Y-74340795D01*
X97300761Y-74224239D01*
X97258935Y-74192892D01*
X97216420Y-74136033D01*
X97208500Y-74092066D01*
X97208500Y-72364850D01*
X97228502Y-72296729D01*
X97282158Y-72250236D01*
X97309918Y-72241271D01*
X97559760Y-72191574D01*
X97559766Y-72191572D01*
X97563810Y-72190768D01*
X97567719Y-72189441D01*
X97567723Y-72189440D01*
X97853658Y-72092378D01*
X97853659Y-72092377D01*
X97857564Y-72091052D01*
X98049709Y-71996297D01*
X98132085Y-71955674D01*
X98132090Y-71955671D01*
X98135789Y-71953847D01*
X98393725Y-71781499D01*
X98626959Y-71576959D01*
X98831499Y-71343725D01*
X99003847Y-71085789D01*
X99048809Y-70994616D01*
X99102848Y-70885034D01*
X99141052Y-70807564D01*
X99148318Y-70786158D01*
X99239440Y-70517723D01*
X99239441Y-70517719D01*
X99240768Y-70513810D01*
X99254139Y-70446590D01*
X99300486Y-70213592D01*
X99300487Y-70213586D01*
X99301289Y-70209553D01*
X99306523Y-70129707D01*
X99321308Y-69904119D01*
X99321578Y-69900000D01*
X99319925Y-69874783D01*
X99301559Y-69594559D01*
X99301558Y-69594552D01*
X99301289Y-69590447D01*
X99288552Y-69526411D01*
X99241574Y-69290240D01*
X99241572Y-69290234D01*
X99240768Y-69286190D01*
X99232457Y-69261705D01*
X99193175Y-69145986D01*
X99190219Y-69075051D01*
X99226082Y-69013779D01*
X99289379Y-68981622D01*
X99312288Y-68979486D01*
X101657314Y-68975965D01*
X101725462Y-68995864D01*
X101772035Y-69049450D01*
X101783500Y-69101964D01*
X101783500Y-71806134D01*
X101790255Y-71868316D01*
X101841385Y-72004705D01*
X101928739Y-72121261D01*
X102045295Y-72208615D01*
X102181684Y-72259745D01*
X102243866Y-72266500D01*
X106056134Y-72266500D01*
X106118316Y-72259745D01*
X106254705Y-72208615D01*
X106371261Y-72121261D01*
X106458615Y-72004705D01*
X106509745Y-71868316D01*
X106516500Y-71806134D01*
X106516500Y-69094480D01*
X106536502Y-69026359D01*
X106590158Y-68979866D01*
X106642311Y-68968480D01*
X106668594Y-68968441D01*
X107693619Y-68966902D01*
X107761770Y-68986802D01*
G37*
%TD.AperFunction*%
%TA.AperFunction,Conductor*%
G36*
X86763544Y-69018330D02*
G01*
X86810118Y-69071916D01*
X86820327Y-69142174D01*
X86790931Y-69206799D01*
X86771236Y-69225190D01*
X86634433Y-69327905D01*
X86626726Y-69334748D01*
X86479590Y-69488717D01*
X86473104Y-69496727D01*
X86353098Y-69672649D01*
X86348000Y-69681623D01*
X86258338Y-69874783D01*
X86254775Y-69884470D01*
X86199389Y-70084183D01*
X86200912Y-70092607D01*
X86213292Y-70096000D01*
X87663000Y-70096000D01*
X87731121Y-70116002D01*
X87777614Y-70169658D01*
X87789000Y-70222000D01*
X87789000Y-73018000D01*
X87768998Y-73086121D01*
X87715342Y-73132614D01*
X87663000Y-73144000D01*
X86218225Y-73144000D01*
X86204694Y-73147973D01*
X86203257Y-73157966D01*
X86233565Y-73292446D01*
X86236645Y-73302275D01*
X86316770Y-73499603D01*
X86321413Y-73508794D01*
X86432694Y-73690388D01*
X86438777Y-73698699D01*
X86578213Y-73859667D01*
X86585580Y-73866883D01*
X86749434Y-74002916D01*
X86757881Y-74008831D01*
X86826969Y-74049203D01*
X86875693Y-74100842D01*
X86888764Y-74170625D01*
X86862033Y-74236396D01*
X86821584Y-74269752D01*
X86808607Y-74276507D01*
X86804474Y-74279610D01*
X86804471Y-74279612D01*
X86701597Y-74356852D01*
X86629965Y-74410635D01*
X86475629Y-74572138D01*
X86472720Y-74576403D01*
X86472714Y-74576411D01*
X86393430Y-74692637D01*
X86349743Y-74756680D01*
X86335818Y-74786680D01*
X86278380Y-74910420D01*
X86255688Y-74959305D01*
X86195989Y-75174570D01*
X86172251Y-75396695D01*
X86172548Y-75401848D01*
X86172548Y-75401851D01*
X86178011Y-75496590D01*
X86185110Y-75619715D01*
X86186247Y-75624761D01*
X86186248Y-75624767D01*
X86192526Y-75652624D01*
X86234222Y-75837639D01*
X86318266Y-76044616D01*
X86336650Y-76074616D01*
X86400702Y-76179139D01*
X86434987Y-76235088D01*
X86581250Y-76403938D01*
X86753126Y-76546632D01*
X86795582Y-76571441D01*
X86826445Y-76589476D01*
X86875169Y-76641114D01*
X86888240Y-76710897D01*
X86861509Y-76776669D01*
X86821055Y-76810027D01*
X86814255Y-76813567D01*
X86808607Y-76816507D01*
X86804474Y-76819610D01*
X86804471Y-76819612D01*
X86634100Y-76947530D01*
X86629965Y-76950635D01*
X86475629Y-77112138D01*
X86349743Y-77296680D01*
X86334003Y-77330590D01*
X86266060Y-77476961D01*
X86255688Y-77499305D01*
X86195989Y-77714570D01*
X86172251Y-77936695D01*
X86172548Y-77941848D01*
X86172548Y-77941851D01*
X86178011Y-78036590D01*
X86185110Y-78159715D01*
X86186247Y-78164761D01*
X86186248Y-78164767D01*
X86206119Y-78252939D01*
X86234222Y-78377639D01*
X86318266Y-78584616D01*
X86434987Y-78775088D01*
X86581250Y-78943938D01*
X86753126Y-79086632D01*
X86823595Y-79127811D01*
X86826445Y-79129476D01*
X86875169Y-79181114D01*
X86888240Y-79250897D01*
X86861509Y-79316669D01*
X86821055Y-79350027D01*
X86817006Y-79352135D01*
X86808607Y-79356507D01*
X86804474Y-79359610D01*
X86804471Y-79359612D01*
X86708516Y-79431657D01*
X86629965Y-79490635D01*
X86475629Y-79652138D01*
X86349743Y-79836680D01*
X86334003Y-79870590D01*
X86259140Y-80031869D01*
X86255688Y-80039305D01*
X86195989Y-80254570D01*
X86172251Y-80476695D01*
X86172548Y-80481848D01*
X86172548Y-80481851D01*
X86178011Y-80576590D01*
X86185110Y-80699715D01*
X86186247Y-80704761D01*
X86186248Y-80704767D01*
X86203767Y-80782503D01*
X86234222Y-80917639D01*
X86318266Y-81124616D01*
X86369019Y-81207438D01*
X86432291Y-81310688D01*
X86434987Y-81315088D01*
X86581250Y-81483938D01*
X86753126Y-81626632D01*
X86823595Y-81667811D01*
X86826445Y-81669476D01*
X86875169Y-81721114D01*
X86888240Y-81790897D01*
X86861509Y-81856669D01*
X86821055Y-81890027D01*
X86808607Y-81896507D01*
X86804474Y-81899610D01*
X86804471Y-81899612D01*
X86634100Y-82027530D01*
X86629965Y-82030635D01*
X86475629Y-82192138D01*
X86349743Y-82376680D01*
X86316189Y-82448966D01*
X86258019Y-82574284D01*
X86255688Y-82579305D01*
X86195989Y-82794570D01*
X86172251Y-83016695D01*
X86172548Y-83021848D01*
X86172548Y-83021851D01*
X86178011Y-83116590D01*
X86185110Y-83239715D01*
X86186247Y-83244761D01*
X86186248Y-83244767D01*
X86206119Y-83332939D01*
X86234222Y-83457639D01*
X86318266Y-83664616D01*
X86369019Y-83747438D01*
X86432291Y-83850688D01*
X86434987Y-83855088D01*
X86581250Y-84023938D01*
X86753126Y-84166632D01*
X86823595Y-84207811D01*
X86826445Y-84209476D01*
X86875169Y-84261114D01*
X86888240Y-84330897D01*
X86861509Y-84396669D01*
X86821055Y-84430027D01*
X86808607Y-84436507D01*
X86804474Y-84439610D01*
X86804471Y-84439612D01*
X86780247Y-84457800D01*
X86629965Y-84570635D01*
X86475629Y-84732138D01*
X86349743Y-84916680D01*
X86255688Y-85119305D01*
X86195989Y-85334570D01*
X86172251Y-85556695D01*
X86172548Y-85561848D01*
X86172548Y-85561851D01*
X86178011Y-85656590D01*
X86185110Y-85779715D01*
X86186247Y-85784761D01*
X86186248Y-85784767D01*
X86199283Y-85842604D01*
X86234222Y-85997639D01*
X86318266Y-86204616D01*
X86364215Y-86279598D01*
X86432291Y-86390688D01*
X86434987Y-86395088D01*
X86581250Y-86563938D01*
X86753126Y-86706632D01*
X86805781Y-86737401D01*
X86826445Y-86749476D01*
X86875169Y-86801114D01*
X86888240Y-86870897D01*
X86861509Y-86936669D01*
X86821055Y-86970027D01*
X86808607Y-86976507D01*
X86804474Y-86979610D01*
X86804471Y-86979612D01*
X86780247Y-86997800D01*
X86629965Y-87110635D01*
X86475629Y-87272138D01*
X86349743Y-87456680D01*
X86334003Y-87490590D01*
X86278683Y-87609767D01*
X86255688Y-87659305D01*
X86195989Y-87874570D01*
X86172251Y-88096695D01*
X86172548Y-88101848D01*
X86172548Y-88101851D01*
X86178011Y-88196590D01*
X86185110Y-88319715D01*
X86186247Y-88324761D01*
X86186248Y-88324767D01*
X86199830Y-88385031D01*
X86234222Y-88537639D01*
X86318266Y-88744616D01*
X86362687Y-88817104D01*
X86432291Y-88930688D01*
X86434987Y-88935088D01*
X86581250Y-89103938D01*
X86753126Y-89246632D01*
X86805781Y-89277401D01*
X86826445Y-89289476D01*
X86875169Y-89341114D01*
X86888240Y-89410897D01*
X86861509Y-89476669D01*
X86821055Y-89510027D01*
X86808607Y-89516507D01*
X86804474Y-89519610D01*
X86804471Y-89519612D01*
X86780247Y-89537800D01*
X86629965Y-89650635D01*
X86475629Y-89812138D01*
X86349743Y-89996680D01*
X86334003Y-90030590D01*
X86278683Y-90149767D01*
X86255688Y-90199305D01*
X86195989Y-90414570D01*
X86172251Y-90636695D01*
X86172548Y-90641848D01*
X86172548Y-90641851D01*
X86178011Y-90736590D01*
X86185110Y-90859715D01*
X86186247Y-90864761D01*
X86186248Y-90864767D01*
X86199830Y-90925031D01*
X86234222Y-91077639D01*
X86318266Y-91284616D01*
X86320965Y-91289020D01*
X86377423Y-91381151D01*
X86434987Y-91475088D01*
X86581250Y-91643938D01*
X86753126Y-91786632D01*
X86823595Y-91827811D01*
X86826445Y-91829476D01*
X86875169Y-91881114D01*
X86888240Y-91950897D01*
X86861509Y-92016669D01*
X86821055Y-92050027D01*
X86808607Y-92056507D01*
X86804474Y-92059610D01*
X86804471Y-92059612D01*
X86634100Y-92187530D01*
X86629965Y-92190635D01*
X86475629Y-92352138D01*
X86349743Y-92536680D01*
X86255688Y-92739305D01*
X86195989Y-92954570D01*
X86172251Y-93176695D01*
X86185110Y-93399715D01*
X86186247Y-93404761D01*
X86186248Y-93404767D01*
X86203333Y-93480577D01*
X86234222Y-93617639D01*
X86318266Y-93824616D01*
X86320965Y-93829020D01*
X86418918Y-93988865D01*
X86434987Y-94015088D01*
X86581250Y-94183938D01*
X86753126Y-94326632D01*
X86823595Y-94367811D01*
X86826445Y-94369476D01*
X86875169Y-94421114D01*
X86888240Y-94490897D01*
X86861509Y-94556669D01*
X86821055Y-94590027D01*
X86808607Y-94596507D01*
X86804474Y-94599610D01*
X86804471Y-94599612D01*
X86634100Y-94727530D01*
X86629965Y-94730635D01*
X86475629Y-94892138D01*
X86349743Y-95076680D01*
X86255688Y-95279305D01*
X86195989Y-95494570D01*
X86172251Y-95716695D01*
X86172548Y-95721848D01*
X86172548Y-95721851D01*
X86178011Y-95816590D01*
X86185110Y-95939715D01*
X86186247Y-95944761D01*
X86186248Y-95944767D01*
X86206119Y-96032939D01*
X86234222Y-96157639D01*
X86318266Y-96364616D01*
X86369942Y-96448944D01*
X86432291Y-96550688D01*
X86434987Y-96555088D01*
X86581250Y-96723938D01*
X86753126Y-96866632D01*
X86793809Y-96890405D01*
X86826445Y-96909476D01*
X86875169Y-96961114D01*
X86888240Y-97030897D01*
X86861509Y-97096669D01*
X86821055Y-97130027D01*
X86808607Y-97136507D01*
X86804474Y-97139610D01*
X86804471Y-97139612D01*
X86780247Y-97157800D01*
X86629965Y-97270635D01*
X86475629Y-97432138D01*
X86349743Y-97616680D01*
X86255688Y-97819305D01*
X86195989Y-98034570D01*
X86172251Y-98256695D01*
X86172548Y-98261848D01*
X86172548Y-98261851D01*
X86181696Y-98420500D01*
X86185110Y-98479715D01*
X86186247Y-98484761D01*
X86186248Y-98484767D01*
X86218453Y-98627668D01*
X86213917Y-98698520D01*
X86184631Y-98744464D01*
X86096451Y-98832644D01*
X86034139Y-98866670D01*
X85963324Y-98861605D01*
X85906488Y-98819058D01*
X85881677Y-98752538D01*
X85881356Y-98743654D01*
X85859574Y-72624183D01*
X86199389Y-72624183D01*
X86200912Y-72632607D01*
X86213292Y-72636000D01*
X87262885Y-72636000D01*
X87278124Y-72631525D01*
X87279329Y-72630135D01*
X87281000Y-72622452D01*
X87281000Y-70622115D01*
X87276525Y-70606876D01*
X87275135Y-70605671D01*
X87267452Y-70604000D01*
X86218225Y-70604000D01*
X86204694Y-70607973D01*
X86203257Y-70617966D01*
X86233565Y-70752446D01*
X86236645Y-70762275D01*
X86316770Y-70959603D01*
X86321413Y-70968794D01*
X86432694Y-71150388D01*
X86438777Y-71158699D01*
X86578213Y-71319667D01*
X86585580Y-71326883D01*
X86749434Y-71462916D01*
X86757881Y-71468831D01*
X86827479Y-71509501D01*
X86876203Y-71561140D01*
X86889274Y-71630923D01*
X86862543Y-71696694D01*
X86822087Y-71730053D01*
X86813462Y-71734542D01*
X86804738Y-71740036D01*
X86634433Y-71867905D01*
X86626726Y-71874748D01*
X86479590Y-72028717D01*
X86473104Y-72036727D01*
X86353098Y-72212649D01*
X86348000Y-72221623D01*
X86258338Y-72414783D01*
X86254775Y-72424470D01*
X86199389Y-72624183D01*
X85859574Y-72624183D01*
X85856656Y-69125606D01*
X85876601Y-69057469D01*
X85930218Y-69010931D01*
X85982467Y-68999501D01*
X86246588Y-68999104D01*
X86695395Y-68998430D01*
X86763544Y-69018330D01*
G37*
%TD.AperFunction*%
%TA.AperFunction,Conductor*%
G36*
X93058461Y-69008878D02*
G01*
X93105035Y-69062464D01*
X93116500Y-69114978D01*
X93116500Y-71440406D01*
X93096498Y-71508527D01*
X93079595Y-71529501D01*
X91651877Y-72957219D01*
X91589565Y-72991245D01*
X91518750Y-72986180D01*
X91461914Y-72943633D01*
X91437206Y-72878448D01*
X91420276Y-72672522D01*
X91419852Y-72667361D01*
X91365431Y-72450702D01*
X91276354Y-72245840D01*
X91174422Y-72088277D01*
X91157822Y-72062617D01*
X91157820Y-72062614D01*
X91155014Y-72058277D01*
X91135405Y-72036727D01*
X91007798Y-71896488D01*
X90976746Y-71832642D01*
X90985141Y-71762143D01*
X91030317Y-71707375D01*
X91056761Y-71693706D01*
X91163297Y-71653767D01*
X91171705Y-71650615D01*
X91288261Y-71563261D01*
X91375615Y-71446705D01*
X91426745Y-71310316D01*
X91433500Y-71248134D01*
X91433500Y-69451866D01*
X91426745Y-69389684D01*
X91375615Y-69253295D01*
X91330340Y-69192885D01*
X91305492Y-69126379D01*
X91320545Y-69056996D01*
X91370719Y-69006766D01*
X91430977Y-68991320D01*
X91776309Y-68990801D01*
X92990313Y-68988979D01*
X93058461Y-69008878D01*
G37*
%TD.AperFunction*%
%TA.AperFunction,Conductor*%
G36*
X88783740Y-69015297D02*
G01*
X88830313Y-69068883D01*
X88840522Y-69139142D01*
X88816604Y-69196962D01*
X88779771Y-69246108D01*
X88779770Y-69246110D01*
X88774385Y-69253295D01*
X88771233Y-69261703D01*
X88771232Y-69261705D01*
X88729722Y-69372433D01*
X88687081Y-69429198D01*
X88620519Y-69453898D01*
X88551170Y-69438691D01*
X88518546Y-69413004D01*
X88467799Y-69357234D01*
X88460273Y-69350215D01*
X88296392Y-69220791D01*
X88255329Y-69162874D01*
X88252097Y-69091951D01*
X88287722Y-69030540D01*
X88350893Y-68998137D01*
X88374290Y-68995909D01*
X88715589Y-68995397D01*
X88783740Y-69015297D01*
G37*
%TD.AperFunction*%
%TD*%
M02*
