M48
; DRILL file {KiCad (6.0.5-0)} date Monday, March 04, 2024 at 01:36:47 PM
; FORMAT={-:-/ absolute / metric / decimal}
; #@! TF.CreationDate,2024-03-04T13:36:47-05:00
; #@! TF.GenerationSoftware,Kicad,Pcbnew,(6.0.5-0)
; #@! TF.FileFunction,Plated,1,2,PTH
FMAT,2
METRIC
; #@! TA.AperFunction,Plated,PTH,ViaDrill
T1C0.400
; #@! TA.AperFunction,Plated,PTH,ComponentDrill
T2C0.600
; #@! TA.AperFunction,Plated,PTH,ComponentDrill
T3C0.800
; #@! TA.AperFunction,Plated,PTH,ComponentDrill
T4C1.000
; #@! TA.AperFunction,Plated,PTH,ComponentDrill
T5C1.850
; #@! TA.AperFunction,Plated,PTH,ComponentDrill
T6C2.700
%
G90
G05
T1
X93.45Y-104.974
X94.725Y-115.825
X95.1Y-65.5
X105.887Y-121.987
X106.125Y-66.375
X111.925Y-71.45
X115.4Y-72.05
T3
X94.327Y-81.34
X94.327Y-100.263
X96.867Y-81.315
X96.867Y-100.238
X105.122Y-81.34
X105.249Y-100.136
X107.662Y-81.34
X107.789Y-100.136
T4
X87.535Y-70.35
X87.535Y-72.89
X87.535Y-75.43
X87.535Y-77.97
X87.535Y-80.51
X87.535Y-83.05
X87.535Y-85.59
X87.535Y-88.13
X87.535Y-90.67
X87.535Y-93.21
X87.535Y-95.75
X87.535Y-98.29
X87.535Y-100.83
X87.535Y-103.37
X87.535Y-105.91
X87.535Y-108.45
X87.535Y-110.99
X87.535Y-113.53
X87.535Y-116.07
X87.535Y-118.61
X90.075Y-70.35
X90.075Y-72.89
X90.075Y-75.43
X90.075Y-77.97
X90.075Y-80.51
X90.075Y-83.05
X90.075Y-85.59
X90.075Y-88.13
X90.075Y-90.67
X90.075Y-93.21
X90.075Y-95.75
X90.075Y-98.29
X90.075Y-100.83
X90.075Y-103.37
X90.075Y-105.91
X90.075Y-108.45
X90.075Y-110.99
X90.075Y-113.53
X90.075Y-116.07
X90.075Y-118.61
X98.325Y-125.5
X100.865Y-125.5
X117.525Y-96.65
X117.525Y-99.19
X117.525Y-101.73
X117.525Y-104.27
X117.525Y-106.81
X117.525Y-109.35
X117.525Y-111.89
X117.525Y-114.43
X117.525Y-116.97
X117.55Y-84.875
X117.55Y-87.415
X117.55Y-89.955
X117.725Y-70.38
X117.725Y-72.92
X117.725Y-75.46
X117.725Y-78.0
T5
X95.55Y-75.975
X100.25Y-75.975
X104.95Y-75.975
T6
X96.95Y-69.9
X104.15Y-69.9
T2
X93.8Y-64.45G85X93.8Y-63.35
G05
X107.3Y-64.45G85X107.3Y-63.35
G05
T0
M30
