%TF.GenerationSoftware,KiCad,Pcbnew,(6.0.5-0)*%
%TF.CreationDate,2024-03-04T10:57:06-05:00*%
%TF.ProjectId,CubeSat PCB V0.2,43756265-5361-4742-9050-43422056302e,rev?*%
%TF.SameCoordinates,Original*%
%TF.FileFunction,Legend,Top*%
%TF.FilePolarity,Positive*%
%FSLAX46Y46*%
G04 Gerber Fmt 4.6, Leading zero omitted, Abs format (unit mm)*
G04 Created by KiCad (PCBNEW (6.0.5-0)) date 2024-03-04 10:57:06*
%MOMM*%
%LPD*%
G01*
G04 APERTURE LIST*
%ADD10C,0.200000*%
%ADD11C,0.150000*%
%ADD12C,0.300000*%
%ADD13C,0.010000*%
%ADD14C,0.120000*%
G04 APERTURE END LIST*
D10*
X97142714Y-93110714D02*
X97085571Y-93282142D01*
X97028428Y-93339285D01*
X96914142Y-93396428D01*
X96742714Y-93396428D01*
X96628428Y-93339285D01*
X96571285Y-93282142D01*
X96514142Y-93167857D01*
X96514142Y-92710714D01*
X97714142Y-92710714D01*
X97714142Y-93110714D01*
X97657000Y-93225000D01*
X97599857Y-93282142D01*
X97485571Y-93339285D01*
X97371285Y-93339285D01*
X97257000Y-93282142D01*
X97199857Y-93225000D01*
X97142714Y-93110714D01*
X97142714Y-92710714D01*
X97314142Y-93796428D02*
X96514142Y-94082142D01*
X97314142Y-94367857D02*
X96514142Y-94082142D01*
X96228428Y-93967857D01*
X96171285Y-93910714D01*
X96114142Y-93796428D01*
X96628428Y-94825000D02*
X96571285Y-94882142D01*
X96514142Y-94825000D01*
X96571285Y-94767857D01*
X96628428Y-94825000D01*
X96514142Y-94825000D01*
X97257000Y-94825000D02*
X97199857Y-94882142D01*
X97142714Y-94825000D01*
X97199857Y-94767857D01*
X97257000Y-94825000D01*
X97142714Y-94825000D01*
X94582142Y-91596428D02*
X95782142Y-91596428D01*
X95782142Y-91882142D01*
X95725000Y-92053571D01*
X95610714Y-92167857D01*
X95496428Y-92225000D01*
X95267857Y-92282142D01*
X95096428Y-92282142D01*
X94867857Y-92225000D01*
X94753571Y-92167857D01*
X94639285Y-92053571D01*
X94582142Y-91882142D01*
X94582142Y-91596428D01*
X95382142Y-92682142D02*
X94582142Y-92967857D01*
X95382142Y-93253571D02*
X94582142Y-92967857D01*
X94296428Y-92853571D01*
X94239285Y-92796428D01*
X94182142Y-92682142D01*
X94582142Y-93882142D02*
X94639285Y-93767857D01*
X94753571Y-93710714D01*
X95782142Y-93710714D01*
X94582142Y-94853571D02*
X95210714Y-94853571D01*
X95325000Y-94796428D01*
X95382142Y-94682142D01*
X95382142Y-94453571D01*
X95325000Y-94339285D01*
X94639285Y-94853571D02*
X94582142Y-94739285D01*
X94582142Y-94453571D01*
X94639285Y-94339285D01*
X94753571Y-94282142D01*
X94867857Y-94282142D01*
X94982142Y-94339285D01*
X95039285Y-94453571D01*
X95039285Y-94739285D01*
X95096428Y-94853571D01*
X95382142Y-95425000D02*
X94582142Y-95425000D01*
X95267857Y-95425000D02*
X95325000Y-95482142D01*
X95382142Y-95596428D01*
X95382142Y-95767857D01*
X95325000Y-95882142D01*
X95210714Y-95939285D01*
X94582142Y-95939285D01*
X93278714Y-91053571D02*
X93221571Y-91225000D01*
X93164428Y-91282142D01*
X93050142Y-91339285D01*
X92878714Y-91339285D01*
X92764428Y-91282142D01*
X92707285Y-91225000D01*
X92650142Y-91110714D01*
X92650142Y-90653571D01*
X93850142Y-90653571D01*
X93850142Y-91053571D01*
X93793000Y-91167857D01*
X93735857Y-91225000D01*
X93621571Y-91282142D01*
X93507285Y-91282142D01*
X93393000Y-91225000D01*
X93335857Y-91167857D01*
X93278714Y-91053571D01*
X93278714Y-90653571D01*
X92650142Y-92367857D02*
X93278714Y-92367857D01*
X93393000Y-92310714D01*
X93450142Y-92196428D01*
X93450142Y-91967857D01*
X93393000Y-91853571D01*
X92707285Y-92367857D02*
X92650142Y-92253571D01*
X92650142Y-91967857D01*
X92707285Y-91853571D01*
X92821571Y-91796428D01*
X92935857Y-91796428D01*
X93050142Y-91853571D01*
X93107285Y-91967857D01*
X93107285Y-92253571D01*
X93164428Y-92367857D01*
X92650142Y-93110714D02*
X92707285Y-92996428D01*
X92821571Y-92939285D01*
X93850142Y-92939285D01*
X92650142Y-93739285D02*
X92707285Y-93625000D01*
X92821571Y-93567857D01*
X93850142Y-93567857D01*
X92650142Y-94196428D02*
X93850142Y-94196428D01*
X93393000Y-94196428D02*
X93450142Y-94310714D01*
X93450142Y-94539285D01*
X93393000Y-94653571D01*
X93335857Y-94710714D01*
X93221571Y-94767857D01*
X92878714Y-94767857D01*
X92764428Y-94710714D01*
X92707285Y-94653571D01*
X92650142Y-94539285D01*
X92650142Y-94310714D01*
X92707285Y-94196428D01*
X92650142Y-95796428D02*
X93278714Y-95796428D01*
X93393000Y-95739285D01*
X93450142Y-95625000D01*
X93450142Y-95396428D01*
X93393000Y-95282142D01*
X92707285Y-95796428D02*
X92650142Y-95682142D01*
X92650142Y-95396428D01*
X92707285Y-95282142D01*
X92821571Y-95225000D01*
X92935857Y-95225000D01*
X93050142Y-95282142D01*
X93107285Y-95396428D01*
X93107285Y-95682142D01*
X93164428Y-95796428D01*
X92707285Y-96882142D02*
X92650142Y-96767857D01*
X92650142Y-96539285D01*
X92707285Y-96425000D01*
X92764428Y-96367857D01*
X92878714Y-96310714D01*
X93221571Y-96310714D01*
X93335857Y-96367857D01*
X93393000Y-96425000D01*
X93450142Y-96539285D01*
X93450142Y-96767857D01*
X93393000Y-96882142D01*
X92650142Y-97396428D02*
X93850142Y-97396428D01*
X93107285Y-97510714D02*
X92650142Y-97853571D01*
X93450142Y-97853571D02*
X92993000Y-97396428D01*
D11*
X104509523Y-67076428D02*
X104366666Y-67028809D01*
X104319047Y-66981190D01*
X104271428Y-66885952D01*
X104271428Y-66743095D01*
X104319047Y-66647857D01*
X104366666Y-66600238D01*
X104461904Y-66552619D01*
X104842857Y-66552619D01*
X104842857Y-67552619D01*
X104509523Y-67552619D01*
X104414285Y-67505000D01*
X104366666Y-67457380D01*
X104319047Y-67362142D01*
X104319047Y-67266904D01*
X104366666Y-67171666D01*
X104414285Y-67124047D01*
X104509523Y-67076428D01*
X104842857Y-67076428D01*
X103890476Y-66838333D02*
X103414285Y-66838333D01*
X103985714Y-66552619D02*
X103652380Y-67552619D01*
X103319047Y-66552619D01*
X103128571Y-67552619D02*
X102557142Y-67552619D01*
X102842857Y-66552619D02*
X102842857Y-67552619D01*
X102366666Y-67552619D02*
X101795238Y-67552619D01*
X102080952Y-66552619D02*
X102080952Y-67552619D01*
X101461904Y-67076428D02*
X101128571Y-67076428D01*
X100985714Y-66552619D02*
X101461904Y-66552619D01*
X101461904Y-67552619D01*
X100985714Y-67552619D01*
X99985714Y-66552619D02*
X100319047Y-67028809D01*
X100557142Y-66552619D02*
X100557142Y-67552619D01*
X100176190Y-67552619D01*
X100080952Y-67505000D01*
X100033333Y-67457380D01*
X99985714Y-67362142D01*
X99985714Y-67219285D01*
X100033333Y-67124047D01*
X100080952Y-67076428D01*
X100176190Y-67028809D01*
X100557142Y-67028809D01*
X99366666Y-67028809D02*
X99366666Y-66552619D01*
X99700000Y-67552619D02*
X99366666Y-67028809D01*
X99033333Y-67552619D01*
X97747619Y-67552619D02*
X97557142Y-67552619D01*
X97461904Y-67505000D01*
X97366666Y-67409761D01*
X97319047Y-67219285D01*
X97319047Y-66885952D01*
X97366666Y-66695476D01*
X97461904Y-66600238D01*
X97557142Y-66552619D01*
X97747619Y-66552619D01*
X97842857Y-66600238D01*
X97938095Y-66695476D01*
X97985714Y-66885952D01*
X97985714Y-67219285D01*
X97938095Y-67409761D01*
X97842857Y-67505000D01*
X97747619Y-67552619D01*
X96890476Y-67552619D02*
X96890476Y-66743095D01*
X96842857Y-66647857D01*
X96795238Y-66600238D01*
X96700000Y-66552619D01*
X96509523Y-66552619D01*
X96414285Y-66600238D01*
X96366666Y-66647857D01*
X96319047Y-66743095D01*
X96319047Y-67552619D01*
X95985714Y-67552619D02*
X95414285Y-67552619D01*
X95700000Y-66552619D02*
X95700000Y-67552619D01*
X105438095Y-65942619D02*
X105628571Y-65942619D01*
X105723809Y-65895000D01*
X105771428Y-65847380D01*
X105866666Y-65704523D01*
X105914285Y-65514047D01*
X105914285Y-65133095D01*
X105866666Y-65037857D01*
X105819047Y-64990238D01*
X105723809Y-64942619D01*
X105533333Y-64942619D01*
X105438095Y-64990238D01*
X105390476Y-65037857D01*
X105342857Y-65133095D01*
X105342857Y-65371190D01*
X105390476Y-65466428D01*
X105438095Y-65514047D01*
X105533333Y-65561666D01*
X105723809Y-65561666D01*
X105819047Y-65514047D01*
X105866666Y-65466428D01*
X105914285Y-65371190D01*
X104961904Y-64990238D02*
X104819047Y-64942619D01*
X104580952Y-64942619D01*
X104485714Y-64990238D01*
X104438095Y-65037857D01*
X104390476Y-65133095D01*
X104390476Y-65228333D01*
X104438095Y-65323571D01*
X104485714Y-65371190D01*
X104580952Y-65418809D01*
X104771428Y-65466428D01*
X104866666Y-65514047D01*
X104914285Y-65561666D01*
X104961904Y-65656904D01*
X104961904Y-65752142D01*
X104914285Y-65847380D01*
X104866666Y-65895000D01*
X104771428Y-65942619D01*
X104533333Y-65942619D01*
X104390476Y-65895000D01*
X102914285Y-64561666D02*
X102961904Y-64609285D01*
X103057142Y-64752142D01*
X103104761Y-64847380D01*
X103152380Y-64990238D01*
X103200000Y-65228333D01*
X103200000Y-65418809D01*
X103152380Y-65656904D01*
X103104761Y-65799761D01*
X103057142Y-65895000D01*
X102961904Y-66037857D01*
X102914285Y-66085476D01*
X102580952Y-65847380D02*
X102533333Y-65895000D01*
X102438095Y-65942619D01*
X102200000Y-65942619D01*
X102104761Y-65895000D01*
X102057142Y-65847380D01*
X102009523Y-65752142D01*
X102009523Y-65656904D01*
X102057142Y-65514047D01*
X102628571Y-64942619D01*
X102009523Y-64942619D01*
X101104761Y-65942619D02*
X101580952Y-65942619D01*
X101628571Y-65466428D01*
X101580952Y-65514047D01*
X101485714Y-65561666D01*
X101247619Y-65561666D01*
X101152380Y-65514047D01*
X101104761Y-65466428D01*
X101057142Y-65371190D01*
X101057142Y-65133095D01*
X101104761Y-65037857D01*
X101152380Y-64990238D01*
X101247619Y-64942619D01*
X101485714Y-64942619D01*
X101580952Y-64990238D01*
X101628571Y-65037857D01*
X100628571Y-65037857D02*
X100580952Y-64990238D01*
X100628571Y-64942619D01*
X100676190Y-64990238D01*
X100628571Y-65037857D01*
X100628571Y-64942619D01*
X100200000Y-65847380D02*
X100152380Y-65895000D01*
X100057142Y-65942619D01*
X99819047Y-65942619D01*
X99723809Y-65895000D01*
X99676190Y-65847380D01*
X99628571Y-65752142D01*
X99628571Y-65656904D01*
X99676190Y-65514047D01*
X100247619Y-64942619D01*
X99628571Y-64942619D01*
X99342857Y-65942619D02*
X99009523Y-64942619D01*
X98676190Y-65942619D01*
X97580952Y-64942619D02*
X97580952Y-65942619D01*
X97247619Y-65228333D01*
X96914285Y-65942619D01*
X96914285Y-64942619D01*
X96009523Y-64942619D02*
X96009523Y-65466428D01*
X96057142Y-65561666D01*
X96152380Y-65609285D01*
X96342857Y-65609285D01*
X96438095Y-65561666D01*
X96009523Y-64990238D02*
X96104761Y-64942619D01*
X96342857Y-64942619D01*
X96438095Y-64990238D01*
X96485714Y-65085476D01*
X96485714Y-65180714D01*
X96438095Y-65275952D01*
X96342857Y-65323571D01*
X96104761Y-65323571D01*
X96009523Y-65371190D01*
X95628571Y-64942619D02*
X95104761Y-65609285D01*
X95628571Y-65609285D02*
X95104761Y-64942619D01*
X94819047Y-64561666D02*
X94771428Y-64609285D01*
X94676190Y-64752142D01*
X94628571Y-64847380D01*
X94580952Y-64990238D01*
X94533333Y-65228333D01*
X94533333Y-65418809D01*
X94580952Y-65656904D01*
X94628571Y-65799761D01*
X94676190Y-65895000D01*
X94771428Y-66037857D01*
X94819047Y-66085476D01*
X96782142Y-122848571D02*
X96925000Y-122896190D01*
X96972619Y-122943809D01*
X97020238Y-123039047D01*
X97020238Y-123181904D01*
X96972619Y-123277142D01*
X96925000Y-123324761D01*
X96829761Y-123372380D01*
X96448809Y-123372380D01*
X96448809Y-122372380D01*
X96782142Y-122372380D01*
X96877380Y-122420000D01*
X96925000Y-122467619D01*
X96972619Y-122562857D01*
X96972619Y-122658095D01*
X96925000Y-122753333D01*
X96877380Y-122800952D01*
X96782142Y-122848571D01*
X96448809Y-122848571D01*
X97401190Y-123086666D02*
X97877380Y-123086666D01*
X97305952Y-123372380D02*
X97639285Y-122372380D01*
X97972619Y-123372380D01*
X98163095Y-122372380D02*
X98734523Y-122372380D01*
X98448809Y-123372380D02*
X98448809Y-122372380D01*
X98925000Y-122372380D02*
X99496428Y-122372380D01*
X99210714Y-123372380D02*
X99210714Y-122372380D01*
X99829761Y-122848571D02*
X100163095Y-122848571D01*
X100305952Y-123372380D02*
X99829761Y-123372380D01*
X99829761Y-122372380D01*
X100305952Y-122372380D01*
X101305952Y-123372380D02*
X100972619Y-122896190D01*
X100734523Y-123372380D02*
X100734523Y-122372380D01*
X101115476Y-122372380D01*
X101210714Y-122420000D01*
X101258333Y-122467619D01*
X101305952Y-122562857D01*
X101305952Y-122705714D01*
X101258333Y-122800952D01*
X101210714Y-122848571D01*
X101115476Y-122896190D01*
X100734523Y-122896190D01*
X101925000Y-122896190D02*
X101925000Y-123372380D01*
X101591666Y-122372380D02*
X101925000Y-122896190D01*
X102258333Y-122372380D01*
X103353571Y-123372380D02*
X103353571Y-122372380D01*
X103829761Y-123372380D02*
X103829761Y-122372380D01*
X104401190Y-123372380D01*
X104401190Y-122372380D01*
X95186904Y-123982380D02*
X94996428Y-123982380D01*
X94901190Y-124030000D01*
X94853571Y-124077619D01*
X94758333Y-124220476D01*
X94710714Y-124410952D01*
X94710714Y-124791904D01*
X94758333Y-124887142D01*
X94805952Y-124934761D01*
X94901190Y-124982380D01*
X95091666Y-124982380D01*
X95186904Y-124934761D01*
X95234523Y-124887142D01*
X95282142Y-124791904D01*
X95282142Y-124553809D01*
X95234523Y-124458571D01*
X95186904Y-124410952D01*
X95091666Y-124363333D01*
X94901190Y-124363333D01*
X94805952Y-124410952D01*
X94758333Y-124458571D01*
X94710714Y-124553809D01*
X95663095Y-124934761D02*
X95805952Y-124982380D01*
X96044047Y-124982380D01*
X96139285Y-124934761D01*
X96186904Y-124887142D01*
X96234523Y-124791904D01*
X96234523Y-124696666D01*
X96186904Y-124601428D01*
X96139285Y-124553809D01*
X96044047Y-124506190D01*
X95853571Y-124458571D01*
X95758333Y-124410952D01*
X95710714Y-124363333D01*
X95663095Y-124268095D01*
X95663095Y-124172857D01*
X95710714Y-124077619D01*
X95758333Y-124030000D01*
X95853571Y-123982380D01*
X96091666Y-123982380D01*
X96234523Y-124030000D01*
X97710714Y-125363333D02*
X97663095Y-125315714D01*
X97567857Y-125172857D01*
X97520238Y-125077619D01*
X97472619Y-124934761D01*
X97425000Y-124696666D01*
X97425000Y-124506190D01*
X97472619Y-124268095D01*
X97520238Y-124125238D01*
X97567857Y-124030000D01*
X97663095Y-123887142D01*
X97710714Y-123839523D01*
X98044047Y-124077619D02*
X98091666Y-124030000D01*
X98186904Y-123982380D01*
X98425000Y-123982380D01*
X98520238Y-124030000D01*
X98567857Y-124077619D01*
X98615476Y-124172857D01*
X98615476Y-124268095D01*
X98567857Y-124410952D01*
X97996428Y-124982380D01*
X98615476Y-124982380D01*
X99520238Y-123982380D02*
X99044047Y-123982380D01*
X98996428Y-124458571D01*
X99044047Y-124410952D01*
X99139285Y-124363333D01*
X99377380Y-124363333D01*
X99472619Y-124410952D01*
X99520238Y-124458571D01*
X99567857Y-124553809D01*
X99567857Y-124791904D01*
X99520238Y-124887142D01*
X99472619Y-124934761D01*
X99377380Y-124982380D01*
X99139285Y-124982380D01*
X99044047Y-124934761D01*
X98996428Y-124887142D01*
X99996428Y-124887142D02*
X100044047Y-124934761D01*
X99996428Y-124982380D01*
X99948809Y-124934761D01*
X99996428Y-124887142D01*
X99996428Y-124982380D01*
X100425000Y-124077619D02*
X100472619Y-124030000D01*
X100567857Y-123982380D01*
X100805952Y-123982380D01*
X100901190Y-124030000D01*
X100948809Y-124077619D01*
X100996428Y-124172857D01*
X100996428Y-124268095D01*
X100948809Y-124410952D01*
X100377380Y-124982380D01*
X100996428Y-124982380D01*
X101282142Y-123982380D02*
X101615476Y-124982380D01*
X101948809Y-123982380D01*
X103044047Y-124982380D02*
X103044047Y-123982380D01*
X103377380Y-124696666D01*
X103710714Y-123982380D01*
X103710714Y-124982380D01*
X104615476Y-124982380D02*
X104615476Y-124458571D01*
X104567857Y-124363333D01*
X104472619Y-124315714D01*
X104282142Y-124315714D01*
X104186904Y-124363333D01*
X104615476Y-124934761D02*
X104520238Y-124982380D01*
X104282142Y-124982380D01*
X104186904Y-124934761D01*
X104139285Y-124839523D01*
X104139285Y-124744285D01*
X104186904Y-124649047D01*
X104282142Y-124601428D01*
X104520238Y-124601428D01*
X104615476Y-124553809D01*
X104996428Y-124982380D02*
X105520238Y-124315714D01*
X104996428Y-124315714D02*
X105520238Y-124982380D01*
X105805952Y-125363333D02*
X105853571Y-125315714D01*
X105948809Y-125172857D01*
X105996428Y-125077619D01*
X106044047Y-124934761D01*
X106091666Y-124696666D01*
X106091666Y-124506190D01*
X106044047Y-124268095D01*
X105996428Y-124125238D01*
X105948809Y-124030000D01*
X105853571Y-123887142D01*
X105805952Y-123839523D01*
D10*
X106703428Y-88778571D02*
X106646285Y-88721428D01*
X106589142Y-88550000D01*
X106589142Y-88435714D01*
X106646285Y-88264285D01*
X106760571Y-88150000D01*
X106874857Y-88092857D01*
X107103428Y-88035714D01*
X107274857Y-88035714D01*
X107503428Y-88092857D01*
X107617714Y-88150000D01*
X107732000Y-88264285D01*
X107789142Y-88435714D01*
X107789142Y-88550000D01*
X107732000Y-88721428D01*
X107674857Y-88778571D01*
X107389142Y-89807142D02*
X106589142Y-89807142D01*
X107389142Y-89292857D02*
X106760571Y-89292857D01*
X106646285Y-89350000D01*
X106589142Y-89464285D01*
X106589142Y-89635714D01*
X106646285Y-89750000D01*
X106703428Y-89807142D01*
X106589142Y-90378571D02*
X107789142Y-90378571D01*
X107332000Y-90378571D02*
X107389142Y-90492857D01*
X107389142Y-90721428D01*
X107332000Y-90835714D01*
X107274857Y-90892857D01*
X107160571Y-90950000D01*
X106817714Y-90950000D01*
X106703428Y-90892857D01*
X106646285Y-90835714D01*
X106589142Y-90721428D01*
X106589142Y-90492857D01*
X106646285Y-90378571D01*
X106646285Y-91921428D02*
X106589142Y-91807142D01*
X106589142Y-91578571D01*
X106646285Y-91464285D01*
X106760571Y-91407142D01*
X107217714Y-91407142D01*
X107332000Y-91464285D01*
X107389142Y-91578571D01*
X107389142Y-91807142D01*
X107332000Y-91921428D01*
X107217714Y-91978571D01*
X107103428Y-91978571D01*
X106989142Y-91407142D01*
X106646285Y-92435714D02*
X106589142Y-92607142D01*
X106589142Y-92892857D01*
X106646285Y-93007142D01*
X106703428Y-93064285D01*
X106817714Y-93121428D01*
X106932000Y-93121428D01*
X107046285Y-93064285D01*
X107103428Y-93007142D01*
X107160571Y-92892857D01*
X107217714Y-92664285D01*
X107274857Y-92550000D01*
X107332000Y-92492857D01*
X107446285Y-92435714D01*
X107560571Y-92435714D01*
X107674857Y-92492857D01*
X107732000Y-92550000D01*
X107789142Y-92664285D01*
X107789142Y-92950000D01*
X107732000Y-93121428D01*
X106589142Y-94150000D02*
X107217714Y-94150000D01*
X107332000Y-94092857D01*
X107389142Y-93978571D01*
X107389142Y-93750000D01*
X107332000Y-93635714D01*
X106646285Y-94150000D02*
X106589142Y-94035714D01*
X106589142Y-93750000D01*
X106646285Y-93635714D01*
X106760571Y-93578571D01*
X106874857Y-93578571D01*
X106989142Y-93635714D01*
X107046285Y-93750000D01*
X107046285Y-94035714D01*
X107103428Y-94150000D01*
X107389142Y-94550000D02*
X107389142Y-95007142D01*
X107789142Y-94721428D02*
X106760571Y-94721428D01*
X106646285Y-94778571D01*
X106589142Y-94892857D01*
X106589142Y-95007142D01*
X106589142Y-96321428D02*
X107789142Y-96321428D01*
X106589142Y-96892857D02*
X107789142Y-96892857D01*
X106932000Y-97292857D01*
X107789142Y-97692857D01*
X106589142Y-97692857D01*
X107789142Y-98264285D02*
X106817714Y-98264285D01*
X106703428Y-98321428D01*
X106646285Y-98378571D01*
X106589142Y-98492857D01*
X106589142Y-98721428D01*
X106646285Y-98835714D01*
X106703428Y-98892857D01*
X106817714Y-98949999D01*
X107789142Y-98949999D01*
X107846285Y-100378571D02*
X106303428Y-99349999D01*
X105285714Y-87550000D02*
X105285714Y-87950000D01*
X104657142Y-88121428D02*
X104657142Y-87550000D01*
X105857142Y-87550000D01*
X105857142Y-88121428D01*
X105457142Y-88635714D02*
X104657142Y-88635714D01*
X105342857Y-88635714D02*
X105400000Y-88692857D01*
X105457142Y-88807142D01*
X105457142Y-88978571D01*
X105400000Y-89092857D01*
X105285714Y-89150000D01*
X104657142Y-89150000D01*
X104714285Y-90235714D02*
X104657142Y-90121428D01*
X104657142Y-89892857D01*
X104714285Y-89778571D01*
X104771428Y-89721428D01*
X104885714Y-89664285D01*
X105228571Y-89664285D01*
X105342857Y-89721428D01*
X105400000Y-89778571D01*
X105457142Y-89892857D01*
X105457142Y-90121428D01*
X105400000Y-90235714D01*
X104657142Y-90921428D02*
X104714285Y-90807142D01*
X104771428Y-90750000D01*
X104885714Y-90692857D01*
X105228571Y-90692857D01*
X105342857Y-90750000D01*
X105400000Y-90807142D01*
X105457142Y-90921428D01*
X105457142Y-91092857D01*
X105400000Y-91207142D01*
X105342857Y-91264285D01*
X105228571Y-91321428D01*
X104885714Y-91321428D01*
X104771428Y-91264285D01*
X104714285Y-91207142D01*
X104657142Y-91092857D01*
X104657142Y-90921428D01*
X104657142Y-92350000D02*
X105857142Y-92350000D01*
X104714285Y-92350000D02*
X104657142Y-92235714D01*
X104657142Y-92007142D01*
X104714285Y-91892857D01*
X104771428Y-91835714D01*
X104885714Y-91778571D01*
X105228571Y-91778571D01*
X105342857Y-91835714D01*
X105400000Y-91892857D01*
X105457142Y-92007142D01*
X105457142Y-92235714D01*
X105400000Y-92350000D01*
X104714285Y-93378571D02*
X104657142Y-93264285D01*
X104657142Y-93035714D01*
X104714285Y-92921428D01*
X104828571Y-92864285D01*
X105285714Y-92864285D01*
X105400000Y-92921428D01*
X105457142Y-93035714D01*
X105457142Y-93264285D01*
X105400000Y-93378571D01*
X105285714Y-93435714D01*
X105171428Y-93435714D01*
X105057142Y-92864285D01*
X104657142Y-93950000D02*
X105457142Y-93950000D01*
X105228571Y-93950000D02*
X105342857Y-94007142D01*
X105400000Y-94064285D01*
X105457142Y-94178571D01*
X105457142Y-94292857D01*
X104657142Y-95607142D02*
X105857142Y-95607142D01*
X105857142Y-96064285D01*
X105800000Y-96178571D01*
X105742857Y-96235714D01*
X105628571Y-96292857D01*
X105457142Y-96292857D01*
X105342857Y-96235714D01*
X105285714Y-96178571D01*
X105228571Y-96064285D01*
X105228571Y-95607142D01*
X104657142Y-96807142D02*
X105457142Y-96807142D01*
X105857142Y-96807142D02*
X105800000Y-96750000D01*
X105742857Y-96807142D01*
X105800000Y-96864285D01*
X105857142Y-96807142D01*
X105742857Y-96807142D01*
X104657142Y-98292857D02*
X105857142Y-98292857D01*
X105285714Y-98292857D02*
X105285714Y-98978571D01*
X104657142Y-98978571D02*
X105857142Y-98978571D01*
X104657142Y-100064285D02*
X105285714Y-100064285D01*
X105400000Y-100007142D01*
X105457142Y-99892857D01*
X105457142Y-99664285D01*
X105400000Y-99550000D01*
X104714285Y-100064285D02*
X104657142Y-99950000D01*
X104657142Y-99664285D01*
X104714285Y-99550000D01*
X104828571Y-99492857D01*
X104942857Y-99492857D01*
X105057142Y-99550000D01*
X105114285Y-99664285D01*
X105114285Y-99950000D01*
X105171428Y-100064285D01*
X105457142Y-100464285D02*
X105457142Y-100921428D01*
X105857142Y-100635714D02*
X104828571Y-100635714D01*
X104714285Y-100692857D01*
X104657142Y-100807142D01*
X104657142Y-100921428D01*
X103925142Y-88778571D02*
X102725142Y-89178571D01*
X103925142Y-89578571D01*
X103925142Y-90207142D02*
X103925142Y-90321428D01*
X103868000Y-90435714D01*
X103810857Y-90492857D01*
X103696571Y-90550000D01*
X103468000Y-90607142D01*
X103182285Y-90607142D01*
X102953714Y-90550000D01*
X102839428Y-90492857D01*
X102782285Y-90435714D01*
X102725142Y-90321428D01*
X102725142Y-90207142D01*
X102782285Y-90092857D01*
X102839428Y-90035714D01*
X102953714Y-89978571D01*
X103182285Y-89921428D01*
X103468000Y-89921428D01*
X103696571Y-89978571D01*
X103810857Y-90035714D01*
X103868000Y-90092857D01*
X103925142Y-90207142D01*
X102839428Y-91121428D02*
X102782285Y-91178571D01*
X102725142Y-91121428D01*
X102782285Y-91064285D01*
X102839428Y-91121428D01*
X102725142Y-91121428D01*
X103810857Y-91635714D02*
X103868000Y-91692857D01*
X103925142Y-91807142D01*
X103925142Y-92092857D01*
X103868000Y-92207142D01*
X103810857Y-92264285D01*
X103696571Y-92321428D01*
X103582285Y-92321428D01*
X103410857Y-92264285D01*
X102725142Y-91578571D01*
X102725142Y-92321428D01*
X103925142Y-93635714D02*
X103925142Y-94378571D01*
X103468000Y-93978571D01*
X103468000Y-94150000D01*
X103410857Y-94264285D01*
X103353714Y-94321428D01*
X103239428Y-94378571D01*
X102953714Y-94378571D01*
X102839428Y-94321428D01*
X102782285Y-94264285D01*
X102725142Y-94150000D01*
X102725142Y-93807142D01*
X102782285Y-93692857D01*
X102839428Y-93635714D01*
X103982285Y-95750000D02*
X102439428Y-94721428D01*
X103925142Y-96035714D02*
X103925142Y-96778571D01*
X103468000Y-96378571D01*
X103468000Y-96550000D01*
X103410857Y-96664285D01*
X103353714Y-96721428D01*
X103239428Y-96778571D01*
X102953714Y-96778571D01*
X102839428Y-96721428D01*
X102782285Y-96664285D01*
X102725142Y-96550000D01*
X102725142Y-96207142D01*
X102782285Y-96092857D01*
X102839428Y-96035714D01*
X103982285Y-98150000D02*
X102439428Y-97121428D01*
X103810857Y-98492857D02*
X103868000Y-98550000D01*
X103925142Y-98664285D01*
X103925142Y-98950000D01*
X103868000Y-99064285D01*
X103810857Y-99121428D01*
X103696571Y-99178571D01*
X103582285Y-99178571D01*
X103410857Y-99121428D01*
X102725142Y-98435714D01*
X102725142Y-99178571D01*
X103525142Y-100207142D02*
X102725142Y-100207142D01*
X103982285Y-99921428D02*
X103125142Y-99635714D01*
X103125142Y-100378571D01*
D12*
X100457142Y-73110714D02*
X100457142Y-73544047D01*
X99671428Y-73729761D02*
X99671428Y-73110714D01*
X101171428Y-73110714D01*
X101171428Y-73729761D01*
X100671428Y-74286904D02*
X99671428Y-74286904D01*
X100528571Y-74286904D02*
X100600000Y-74348809D01*
X100671428Y-74472619D01*
X100671428Y-74658333D01*
X100600000Y-74782142D01*
X100457142Y-74844047D01*
X99671428Y-74844047D01*
X100671428Y-76020238D02*
X99457142Y-76020238D01*
X99314285Y-75958333D01*
X99242857Y-75896428D01*
X99171428Y-75772619D01*
X99171428Y-75586904D01*
X99242857Y-75463095D01*
X99742857Y-76020238D02*
X99671428Y-75896428D01*
X99671428Y-75648809D01*
X99742857Y-75525000D01*
X99814285Y-75463095D01*
X99957142Y-75401190D01*
X100385714Y-75401190D01*
X100528571Y-75463095D01*
X100600000Y-75525000D01*
X100671428Y-75648809D01*
X100671428Y-75896428D01*
X100600000Y-76020238D01*
X99671428Y-76639285D02*
X100671428Y-76639285D01*
X101171428Y-76639285D02*
X101100000Y-76577380D01*
X101028571Y-76639285D01*
X101100000Y-76701190D01*
X101171428Y-76639285D01*
X101028571Y-76639285D01*
X100671428Y-77258333D02*
X99671428Y-77258333D01*
X100528571Y-77258333D02*
X100600000Y-77320238D01*
X100671428Y-77444047D01*
X100671428Y-77629761D01*
X100600000Y-77753571D01*
X100457142Y-77815476D01*
X99671428Y-77815476D01*
X99742857Y-78929761D02*
X99671428Y-78805952D01*
X99671428Y-78558333D01*
X99742857Y-78434523D01*
X99885714Y-78372619D01*
X100457142Y-78372619D01*
X100600000Y-78434523D01*
X100671428Y-78558333D01*
X100671428Y-78805952D01*
X100600000Y-78929761D01*
X100457142Y-78991666D01*
X100314285Y-78991666D01*
X100171428Y-78372619D01*
X99742857Y-80044047D02*
X99671428Y-79920238D01*
X99671428Y-79672619D01*
X99742857Y-79548809D01*
X99885714Y-79486904D01*
X100457142Y-79486904D01*
X100600000Y-79548809D01*
X100671428Y-79672619D01*
X100671428Y-79920238D01*
X100600000Y-80044047D01*
X100457142Y-80105952D01*
X100314285Y-80105952D01*
X100171428Y-79486904D01*
X99671428Y-80663095D02*
X100671428Y-80663095D01*
X100385714Y-80663095D02*
X100528571Y-80725000D01*
X100600000Y-80786904D01*
X100671428Y-80910714D01*
X100671428Y-81034523D01*
X99671428Y-81467857D02*
X100671428Y-81467857D01*
X101171428Y-81467857D02*
X101100000Y-81405952D01*
X101028571Y-81467857D01*
X101100000Y-81529761D01*
X101171428Y-81467857D01*
X101028571Y-81467857D01*
X100671428Y-82086904D02*
X99671428Y-82086904D01*
X100528571Y-82086904D02*
X100600000Y-82148809D01*
X100671428Y-82272619D01*
X100671428Y-82458333D01*
X100600000Y-82582142D01*
X100457142Y-82644047D01*
X99671428Y-82644047D01*
X100671428Y-83820238D02*
X99457142Y-83820238D01*
X99314285Y-83758333D01*
X99242857Y-83696428D01*
X99171428Y-83572619D01*
X99171428Y-83386904D01*
X99242857Y-83263095D01*
X99742857Y-83820238D02*
X99671428Y-83696428D01*
X99671428Y-83448809D01*
X99742857Y-83325000D01*
X99814285Y-83263095D01*
X99957142Y-83201190D01*
X100385714Y-83201190D01*
X100528571Y-83263095D01*
X100600000Y-83325000D01*
X100671428Y-83448809D01*
X100671428Y-83696428D01*
X100600000Y-83820238D01*
X99671428Y-85429761D02*
X101171428Y-85429761D01*
X101171428Y-85925000D01*
X101100000Y-86048809D01*
X101028571Y-86110714D01*
X100885714Y-86172619D01*
X100671428Y-86172619D01*
X100528571Y-86110714D01*
X100457142Y-86048809D01*
X100385714Y-85925000D01*
X100385714Y-85429761D01*
X99671428Y-86729761D02*
X101171428Y-86729761D01*
X99671428Y-87286904D02*
X100457142Y-87286904D01*
X100600000Y-87225000D01*
X100671428Y-87101190D01*
X100671428Y-86915476D01*
X100600000Y-86791666D01*
X100528571Y-86729761D01*
X100671428Y-87782142D02*
X99671428Y-88091666D01*
X100671428Y-88401190D02*
X99671428Y-88091666D01*
X99314285Y-87967857D01*
X99242857Y-87905952D01*
X99171428Y-87782142D01*
X99742857Y-88834523D02*
X99671428Y-88958333D01*
X99671428Y-89205952D01*
X99742857Y-89329761D01*
X99885714Y-89391666D01*
X99957142Y-89391666D01*
X100100000Y-89329761D01*
X100171428Y-89205952D01*
X100171428Y-89020238D01*
X100242857Y-88896428D01*
X100385714Y-88834523D01*
X100457142Y-88834523D01*
X100600000Y-88896428D01*
X100671428Y-89020238D01*
X100671428Y-89205952D01*
X100600000Y-89329761D01*
X99671428Y-89948809D02*
X100671428Y-89948809D01*
X101171428Y-89948809D02*
X101100000Y-89886904D01*
X101028571Y-89948809D01*
X101100000Y-90010714D01*
X101171428Y-89948809D01*
X101028571Y-89948809D01*
X99742857Y-91125000D02*
X99671428Y-91001190D01*
X99671428Y-90753571D01*
X99742857Y-90629761D01*
X99814285Y-90567857D01*
X99957142Y-90505952D01*
X100385714Y-90505952D01*
X100528571Y-90567857D01*
X100600000Y-90629761D01*
X100671428Y-90753571D01*
X100671428Y-91001190D01*
X100600000Y-91125000D01*
X99742857Y-91620238D02*
X99671428Y-91744047D01*
X99671428Y-91991666D01*
X99742857Y-92115476D01*
X99885714Y-92177380D01*
X99957142Y-92177380D01*
X100100000Y-92115476D01*
X100171428Y-91991666D01*
X100171428Y-91805952D01*
X100242857Y-91682142D01*
X100385714Y-91620238D01*
X100457142Y-91620238D01*
X100600000Y-91682142D01*
X100671428Y-91805952D01*
X100671428Y-91991666D01*
X100600000Y-92115476D01*
X99671428Y-93725000D02*
X101171428Y-93725000D01*
X101171428Y-94220238D01*
X101100000Y-94344047D01*
X101028571Y-94405952D01*
X100885714Y-94467857D01*
X100671428Y-94467857D01*
X100528571Y-94405952D01*
X100457142Y-94344047D01*
X100385714Y-94220238D01*
X100385714Y-93725000D01*
X99671428Y-95025000D02*
X100671428Y-95025000D01*
X100385714Y-95025000D02*
X100528571Y-95086904D01*
X100600000Y-95148809D01*
X100671428Y-95272619D01*
X100671428Y-95396428D01*
X99671428Y-96015476D02*
X99742857Y-95891666D01*
X99814285Y-95829761D01*
X99957142Y-95767857D01*
X100385714Y-95767857D01*
X100528571Y-95829761D01*
X100600000Y-95891666D01*
X100671428Y-96015476D01*
X100671428Y-96201190D01*
X100600000Y-96325000D01*
X100528571Y-96386904D01*
X100385714Y-96448809D01*
X99957142Y-96448809D01*
X99814285Y-96386904D01*
X99742857Y-96325000D01*
X99671428Y-96201190D01*
X99671428Y-96015476D01*
X100671428Y-97005952D02*
X99171428Y-97005952D01*
X100600000Y-97005952D02*
X100671428Y-97129761D01*
X100671428Y-97377380D01*
X100600000Y-97501190D01*
X100528571Y-97563095D01*
X100385714Y-97625000D01*
X99957142Y-97625000D01*
X99814285Y-97563095D01*
X99742857Y-97501190D01*
X99671428Y-97377380D01*
X99671428Y-97129761D01*
X99742857Y-97005952D01*
X100671428Y-98739285D02*
X99671428Y-98739285D01*
X100671428Y-98182142D02*
X99885714Y-98182142D01*
X99742857Y-98244047D01*
X99671428Y-98367857D01*
X99671428Y-98553571D01*
X99742857Y-98677380D01*
X99814285Y-98739285D01*
X99671428Y-99544047D02*
X99742857Y-99420238D01*
X99885714Y-99358333D01*
X101171428Y-99358333D01*
X99742857Y-99977380D02*
X99671428Y-100101190D01*
X99671428Y-100348809D01*
X99742857Y-100472619D01*
X99885714Y-100534523D01*
X99957142Y-100534523D01*
X100100000Y-100472619D01*
X100171428Y-100348809D01*
X100171428Y-100163095D01*
X100242857Y-100039285D01*
X100385714Y-99977380D01*
X100457142Y-99977380D01*
X100600000Y-100039285D01*
X100671428Y-100163095D01*
X100671428Y-100348809D01*
X100600000Y-100472619D01*
X99671428Y-101091666D02*
X100671428Y-101091666D01*
X101171428Y-101091666D02*
X101100000Y-101029761D01*
X101028571Y-101091666D01*
X101100000Y-101153571D01*
X101171428Y-101091666D01*
X101028571Y-101091666D01*
X99671428Y-101896428D02*
X99742857Y-101772619D01*
X99814285Y-101710714D01*
X99957142Y-101648809D01*
X100385714Y-101648809D01*
X100528571Y-101710714D01*
X100600000Y-101772619D01*
X100671428Y-101896428D01*
X100671428Y-102082142D01*
X100600000Y-102205952D01*
X100528571Y-102267857D01*
X100385714Y-102329761D01*
X99957142Y-102329761D01*
X99814285Y-102267857D01*
X99742857Y-102205952D01*
X99671428Y-102082142D01*
X99671428Y-101896428D01*
X100671428Y-102886904D02*
X99671428Y-102886904D01*
X100528571Y-102886904D02*
X100600000Y-102948809D01*
X100671428Y-103072619D01*
X100671428Y-103258333D01*
X100600000Y-103382142D01*
X100457142Y-103444047D01*
X99671428Y-103444047D01*
X99671428Y-105672619D02*
X99671428Y-105053571D01*
X101171428Y-105053571D01*
X99671428Y-106663095D02*
X100457142Y-106663095D01*
X100600000Y-106601190D01*
X100671428Y-106477380D01*
X100671428Y-106229761D01*
X100600000Y-106105952D01*
X99742857Y-106663095D02*
X99671428Y-106539285D01*
X99671428Y-106229761D01*
X99742857Y-106105952D01*
X99885714Y-106044047D01*
X100028571Y-106044047D01*
X100171428Y-106105952D01*
X100242857Y-106229761D01*
X100242857Y-106539285D01*
X100314285Y-106663095D01*
X99671428Y-107282142D02*
X101171428Y-107282142D01*
X100600000Y-107282142D02*
X100671428Y-107405952D01*
X100671428Y-107653571D01*
X100600000Y-107777380D01*
X100528571Y-107839285D01*
X100385714Y-107901190D01*
X99957142Y-107901190D01*
X99814285Y-107839285D01*
X99742857Y-107777380D01*
X99671428Y-107653571D01*
X99671428Y-107405952D01*
X99742857Y-107282142D01*
%TO.C,G\u002A\u002A\u002A*%
G36*
X110648604Y-80616074D02*
G01*
X110502321Y-80725502D01*
X110433157Y-80768214D01*
X110204619Y-80943753D01*
X109964553Y-81188460D01*
X109868656Y-81307876D01*
X109553841Y-81802155D01*
X109300974Y-82355373D01*
X109104799Y-82988741D01*
X108960062Y-83723476D01*
X108861507Y-84580790D01*
X108803879Y-85581897D01*
X108802872Y-85610244D01*
X108786818Y-86478735D01*
X108799917Y-87375778D01*
X108843879Y-88313348D01*
X108920414Y-89303422D01*
X109031231Y-90357973D01*
X109178040Y-91488978D01*
X109362552Y-92708412D01*
X109586474Y-94028250D01*
X109851519Y-95460467D01*
X110159394Y-97017040D01*
X110511811Y-98709944D01*
X110910477Y-100551153D01*
X110982843Y-100879179D01*
X111072494Y-101302512D01*
X111141716Y-101664836D01*
X111185173Y-101935217D01*
X111197532Y-102082726D01*
X111193345Y-102099790D01*
X111144530Y-102117471D01*
X111144004Y-102113188D01*
X111123043Y-102010210D01*
X111066095Y-101772580D01*
X110980595Y-101429317D01*
X110873979Y-101009439D01*
X110753681Y-100541967D01*
X110627136Y-100055920D01*
X110501779Y-99580316D01*
X110385044Y-99144175D01*
X110354053Y-99029910D01*
X110020423Y-97725136D01*
X109701675Y-96326036D01*
X109404714Y-94871577D01*
X109136441Y-93400726D01*
X108903761Y-91952449D01*
X108713576Y-90565714D01*
X108572790Y-89279487D01*
X108524141Y-88700577D01*
X108463558Y-87549924D01*
X108451844Y-86422233D01*
X108488865Y-85371211D01*
X108533800Y-84805910D01*
X108656973Y-83945514D01*
X108846486Y-83129569D01*
X109092362Y-82386874D01*
X109384625Y-81746232D01*
X109713300Y-81236443D01*
X109809937Y-81121693D01*
X109981162Y-80961532D01*
X110199042Y-80795806D01*
X110419136Y-80653359D01*
X110597001Y-80563034D01*
X110687071Y-80552423D01*
X110648604Y-80616074D01*
G37*
D13*
X110648604Y-80616074D02*
X110502321Y-80725502D01*
X110433157Y-80768214D01*
X110204619Y-80943753D01*
X109964553Y-81188460D01*
X109868656Y-81307876D01*
X109553841Y-81802155D01*
X109300974Y-82355373D01*
X109104799Y-82988741D01*
X108960062Y-83723476D01*
X108861507Y-84580790D01*
X108803879Y-85581897D01*
X108802872Y-85610244D01*
X108786818Y-86478735D01*
X108799917Y-87375778D01*
X108843879Y-88313348D01*
X108920414Y-89303422D01*
X109031231Y-90357973D01*
X109178040Y-91488978D01*
X109362552Y-92708412D01*
X109586474Y-94028250D01*
X109851519Y-95460467D01*
X110159394Y-97017040D01*
X110511811Y-98709944D01*
X110910477Y-100551153D01*
X110982843Y-100879179D01*
X111072494Y-101302512D01*
X111141716Y-101664836D01*
X111185173Y-101935217D01*
X111197532Y-102082726D01*
X111193345Y-102099790D01*
X111144530Y-102117471D01*
X111144004Y-102113188D01*
X111123043Y-102010210D01*
X111066095Y-101772580D01*
X110980595Y-101429317D01*
X110873979Y-101009439D01*
X110753681Y-100541967D01*
X110627136Y-100055920D01*
X110501779Y-99580316D01*
X110385044Y-99144175D01*
X110354053Y-99029910D01*
X110020423Y-97725136D01*
X109701675Y-96326036D01*
X109404714Y-94871577D01*
X109136441Y-93400726D01*
X108903761Y-91952449D01*
X108713576Y-90565714D01*
X108572790Y-89279487D01*
X108524141Y-88700577D01*
X108463558Y-87549924D01*
X108451844Y-86422233D01*
X108488865Y-85371211D01*
X108533800Y-84805910D01*
X108656973Y-83945514D01*
X108846486Y-83129569D01*
X109092362Y-82386874D01*
X109384625Y-81746232D01*
X109713300Y-81236443D01*
X109809937Y-81121693D01*
X109981162Y-80961532D01*
X110199042Y-80795806D01*
X110419136Y-80653359D01*
X110597001Y-80563034D01*
X110687071Y-80552423D01*
X110648604Y-80616074D01*
G36*
X113535179Y-81148664D02*
G01*
X114116174Y-81291712D01*
X114632776Y-81549083D01*
X115060444Y-81910163D01*
X115374639Y-82364336D01*
X115485575Y-82635466D01*
X115535559Y-82874382D01*
X115576492Y-83234672D01*
X115608295Y-83688685D01*
X115630891Y-84208768D01*
X115644204Y-84767272D01*
X115648157Y-85336544D01*
X115642671Y-85888933D01*
X115627669Y-86396790D01*
X115603075Y-86832461D01*
X115568811Y-87168296D01*
X115524799Y-87376644D01*
X115498955Y-87424529D01*
X115276639Y-87545850D01*
X115034075Y-87507889D01*
X114870002Y-87388244D01*
X114815857Y-87325173D01*
X114774646Y-87243620D01*
X114744614Y-87121478D01*
X114724004Y-86936638D01*
X114711062Y-86666996D01*
X114704031Y-86290443D01*
X114701156Y-85784874D01*
X114700669Y-85255975D01*
X114699577Y-84620326D01*
X114695117Y-84129777D01*
X114685516Y-83760101D01*
X114669001Y-83487074D01*
X114643796Y-83286469D01*
X114608129Y-83134060D01*
X114560225Y-83005621D01*
X114531328Y-82943228D01*
X114392200Y-82736049D01*
X114195522Y-82535272D01*
X113981532Y-82371268D01*
X113790469Y-82274409D01*
X113662569Y-82275068D01*
X113654838Y-82281630D01*
X113640124Y-82377752D01*
X113626902Y-82620293D01*
X113615727Y-82986341D01*
X113607151Y-83452986D01*
X113601729Y-83997316D01*
X113600002Y-84549088D01*
X113599121Y-85251205D01*
X113594363Y-85802252D01*
X113582558Y-86220492D01*
X113560538Y-86524186D01*
X113525132Y-86731596D01*
X113473170Y-86860985D01*
X113401482Y-86930614D01*
X113306899Y-86958746D01*
X113186250Y-86963642D01*
X113180902Y-86963614D01*
X113045687Y-86960790D01*
X112939199Y-86942001D01*
X112857764Y-86889049D01*
X112797707Y-86783740D01*
X112755354Y-86607878D01*
X112727030Y-86343268D01*
X112709060Y-85971713D01*
X112697770Y-85475019D01*
X112689485Y-84834990D01*
X112685949Y-84512760D01*
X112677188Y-83910019D01*
X112665139Y-83366707D01*
X112650621Y-82904622D01*
X112634456Y-82545564D01*
X112617464Y-82311331D01*
X112600465Y-82223723D01*
X112599769Y-82223577D01*
X112497896Y-82267314D01*
X112314654Y-82377172D01*
X112234757Y-82430073D01*
X112063738Y-82555474D01*
X111929841Y-82686410D01*
X111828552Y-82844517D01*
X111755358Y-83051432D01*
X111705748Y-83328790D01*
X111675208Y-83698226D01*
X111659226Y-84181377D01*
X111653288Y-84799879D01*
X111652669Y-85220872D01*
X111651925Y-85855455D01*
X111648552Y-86342586D01*
X111640841Y-86704145D01*
X111627083Y-86962011D01*
X111605568Y-87138065D01*
X111574587Y-87254185D01*
X111532431Y-87332251D01*
X111483336Y-87388244D01*
X111257576Y-87537203D01*
X111014366Y-87526896D01*
X110885103Y-87469931D01*
X110835204Y-87435396D01*
X110796734Y-87378451D01*
X110768321Y-87279062D01*
X110748594Y-87117194D01*
X110736180Y-86872813D01*
X110729708Y-86525884D01*
X110727804Y-86056373D01*
X110729098Y-85444246D01*
X110730002Y-85205098D01*
X110734728Y-84600834D01*
X110743484Y-84040884D01*
X110755518Y-83551212D01*
X110770076Y-83157782D01*
X110786407Y-82886558D01*
X110800505Y-82773910D01*
X111006883Y-82266407D01*
X111348042Y-81819323D01*
X111791588Y-81466108D01*
X112278171Y-81248003D01*
X112914331Y-81130555D01*
X113535179Y-81148664D01*
G37*
X113535179Y-81148664D02*
X114116174Y-81291712D01*
X114632776Y-81549083D01*
X115060444Y-81910163D01*
X115374639Y-82364336D01*
X115485575Y-82635466D01*
X115535559Y-82874382D01*
X115576492Y-83234672D01*
X115608295Y-83688685D01*
X115630891Y-84208768D01*
X115644204Y-84767272D01*
X115648157Y-85336544D01*
X115642671Y-85888933D01*
X115627669Y-86396790D01*
X115603075Y-86832461D01*
X115568811Y-87168296D01*
X115524799Y-87376644D01*
X115498955Y-87424529D01*
X115276639Y-87545850D01*
X115034075Y-87507889D01*
X114870002Y-87388244D01*
X114815857Y-87325173D01*
X114774646Y-87243620D01*
X114744614Y-87121478D01*
X114724004Y-86936638D01*
X114711062Y-86666996D01*
X114704031Y-86290443D01*
X114701156Y-85784874D01*
X114700669Y-85255975D01*
X114699577Y-84620326D01*
X114695117Y-84129777D01*
X114685516Y-83760101D01*
X114669001Y-83487074D01*
X114643796Y-83286469D01*
X114608129Y-83134060D01*
X114560225Y-83005621D01*
X114531328Y-82943228D01*
X114392200Y-82736049D01*
X114195522Y-82535272D01*
X113981532Y-82371268D01*
X113790469Y-82274409D01*
X113662569Y-82275068D01*
X113654838Y-82281630D01*
X113640124Y-82377752D01*
X113626902Y-82620293D01*
X113615727Y-82986341D01*
X113607151Y-83452986D01*
X113601729Y-83997316D01*
X113600002Y-84549088D01*
X113599121Y-85251205D01*
X113594363Y-85802252D01*
X113582558Y-86220492D01*
X113560538Y-86524186D01*
X113525132Y-86731596D01*
X113473170Y-86860985D01*
X113401482Y-86930614D01*
X113306899Y-86958746D01*
X113186250Y-86963642D01*
X113180902Y-86963614D01*
X113045687Y-86960790D01*
X112939199Y-86942001D01*
X112857764Y-86889049D01*
X112797707Y-86783740D01*
X112755354Y-86607878D01*
X112727030Y-86343268D01*
X112709060Y-85971713D01*
X112697770Y-85475019D01*
X112689485Y-84834990D01*
X112685949Y-84512760D01*
X112677188Y-83910019D01*
X112665139Y-83366707D01*
X112650621Y-82904622D01*
X112634456Y-82545564D01*
X112617464Y-82311331D01*
X112600465Y-82223723D01*
X112599769Y-82223577D01*
X112497896Y-82267314D01*
X112314654Y-82377172D01*
X112234757Y-82430073D01*
X112063738Y-82555474D01*
X111929841Y-82686410D01*
X111828552Y-82844517D01*
X111755358Y-83051432D01*
X111705748Y-83328790D01*
X111675208Y-83698226D01*
X111659226Y-84181377D01*
X111653288Y-84799879D01*
X111652669Y-85220872D01*
X111651925Y-85855455D01*
X111648552Y-86342586D01*
X111640841Y-86704145D01*
X111627083Y-86962011D01*
X111605568Y-87138065D01*
X111574587Y-87254185D01*
X111532431Y-87332251D01*
X111483336Y-87388244D01*
X111257576Y-87537203D01*
X111014366Y-87526896D01*
X110885103Y-87469931D01*
X110835204Y-87435396D01*
X110796734Y-87378451D01*
X110768321Y-87279062D01*
X110748594Y-87117194D01*
X110736180Y-86872813D01*
X110729708Y-86525884D01*
X110727804Y-86056373D01*
X110729098Y-85444246D01*
X110730002Y-85205098D01*
X110734728Y-84600834D01*
X110743484Y-84040884D01*
X110755518Y-83551212D01*
X110770076Y-83157782D01*
X110786407Y-82886558D01*
X110800505Y-82773910D01*
X111006883Y-82266407D01*
X111348042Y-81819323D01*
X111791588Y-81466108D01*
X112278171Y-81248003D01*
X112914331Y-81130555D01*
X113535179Y-81148664D01*
G36*
X115345730Y-88510341D02*
G01*
X115496072Y-88586005D01*
X115544357Y-88652677D01*
X115569256Y-88783318D01*
X115590025Y-89057017D01*
X115606641Y-89447548D01*
X115619080Y-89928686D01*
X115627320Y-90474207D01*
X115631338Y-91057883D01*
X115631111Y-91653490D01*
X115626616Y-92234802D01*
X115617831Y-92775595D01*
X115604733Y-93249642D01*
X115587298Y-93630717D01*
X115565504Y-93892596D01*
X115549003Y-93986429D01*
X115388443Y-94314095D01*
X115123576Y-94628596D01*
X114810976Y-94863923D01*
X114785336Y-94877487D01*
X114384794Y-95011363D01*
X113936762Y-95049492D01*
X113495644Y-94996272D01*
X113115845Y-94856099D01*
X112935592Y-94727982D01*
X112773088Y-94574697D01*
X112645201Y-94438292D01*
X112547365Y-94296627D01*
X112475015Y-94127558D01*
X112423585Y-93908945D01*
X112388510Y-93618645D01*
X112365225Y-93234517D01*
X112349164Y-92734418D01*
X112335762Y-92096208D01*
X112330002Y-91790910D01*
X112287669Y-89547244D01*
X111585857Y-89504910D01*
X111192058Y-89470548D01*
X110938357Y-89413129D01*
X110795621Y-89315456D01*
X110734716Y-89160334D01*
X110725207Y-88996910D01*
X110760671Y-88768863D01*
X110812784Y-88637077D01*
X110879060Y-88566454D01*
X111000686Y-88522038D01*
X111211417Y-88498240D01*
X111545008Y-88489467D01*
X111707306Y-88488910D01*
X112104995Y-88494296D01*
X112376946Y-88515402D01*
X112566554Y-88559649D01*
X112717210Y-88634458D01*
X112771012Y-88670830D01*
X112913190Y-88782687D01*
X113025020Y-88906312D01*
X113110110Y-89062488D01*
X113172067Y-89271997D01*
X113214498Y-89555624D01*
X113241012Y-89934150D01*
X113255214Y-90428359D01*
X113260713Y-91059033D01*
X113261336Y-91495706D01*
X113261336Y-93576607D01*
X113469154Y-93784425D01*
X113743804Y-93957996D01*
X113981003Y-93992244D01*
X114304023Y-93923151D01*
X114492851Y-93784425D01*
X114700669Y-93576607D01*
X114700669Y-88488910D01*
X115078690Y-88488910D01*
X115345730Y-88510341D01*
G37*
X115345730Y-88510341D02*
X115496072Y-88586005D01*
X115544357Y-88652677D01*
X115569256Y-88783318D01*
X115590025Y-89057017D01*
X115606641Y-89447548D01*
X115619080Y-89928686D01*
X115627320Y-90474207D01*
X115631338Y-91057883D01*
X115631111Y-91653490D01*
X115626616Y-92234802D01*
X115617831Y-92775595D01*
X115604733Y-93249642D01*
X115587298Y-93630717D01*
X115565504Y-93892596D01*
X115549003Y-93986429D01*
X115388443Y-94314095D01*
X115123576Y-94628596D01*
X114810976Y-94863923D01*
X114785336Y-94877487D01*
X114384794Y-95011363D01*
X113936762Y-95049492D01*
X113495644Y-94996272D01*
X113115845Y-94856099D01*
X112935592Y-94727982D01*
X112773088Y-94574697D01*
X112645201Y-94438292D01*
X112547365Y-94296627D01*
X112475015Y-94127558D01*
X112423585Y-93908945D01*
X112388510Y-93618645D01*
X112365225Y-93234517D01*
X112349164Y-92734418D01*
X112335762Y-92096208D01*
X112330002Y-91790910D01*
X112287669Y-89547244D01*
X111585857Y-89504910D01*
X111192058Y-89470548D01*
X110938357Y-89413129D01*
X110795621Y-89315456D01*
X110734716Y-89160334D01*
X110725207Y-88996910D01*
X110760671Y-88768863D01*
X110812784Y-88637077D01*
X110879060Y-88566454D01*
X111000686Y-88522038D01*
X111211417Y-88498240D01*
X111545008Y-88489467D01*
X111707306Y-88488910D01*
X112104995Y-88494296D01*
X112376946Y-88515402D01*
X112566554Y-88559649D01*
X112717210Y-88634458D01*
X112771012Y-88670830D01*
X112913190Y-88782687D01*
X113025020Y-88906312D01*
X113110110Y-89062488D01*
X113172067Y-89271997D01*
X113214498Y-89555624D01*
X113241012Y-89934150D01*
X113255214Y-90428359D01*
X113260713Y-91059033D01*
X113261336Y-91495706D01*
X113261336Y-93576607D01*
X113469154Y-93784425D01*
X113743804Y-93957996D01*
X113981003Y-93992244D01*
X114304023Y-93923151D01*
X114492851Y-93784425D01*
X114700669Y-93576607D01*
X114700669Y-88488910D01*
X115078690Y-88488910D01*
X115345730Y-88510341D01*
G36*
X115075352Y-95908218D02*
G01*
X115227073Y-95915987D01*
X115348368Y-95939632D01*
X115442644Y-95996306D01*
X115513304Y-96103165D01*
X115563754Y-96277363D01*
X115597397Y-96536054D01*
X115617639Y-96896392D01*
X115627884Y-97375532D01*
X115631537Y-97990628D01*
X115632002Y-98712897D01*
X115631304Y-99434176D01*
X115628369Y-100007254D01*
X115621943Y-100453258D01*
X115610767Y-100793316D01*
X115593587Y-101048558D01*
X115569144Y-101240112D01*
X115536184Y-101389106D01*
X115493448Y-101516669D01*
X115460504Y-101596548D01*
X115228649Y-101980693D01*
X114908039Y-102242481D01*
X114478021Y-102394677D01*
X114090538Y-102443479D01*
X113522261Y-102418016D01*
X113065708Y-102266040D01*
X112719201Y-101986793D01*
X112560004Y-101751487D01*
X112502615Y-101635335D01*
X112457570Y-101512140D01*
X112422848Y-101359459D01*
X112396425Y-101154845D01*
X112376280Y-100875856D01*
X112360389Y-100500046D01*
X112346730Y-100004971D01*
X112333281Y-99368188D01*
X112330002Y-99199244D01*
X112287669Y-96997910D01*
X111654813Y-96972650D01*
X111225615Y-96933478D01*
X110941236Y-96848695D01*
X110780572Y-96706502D01*
X110722519Y-96495094D01*
X110721336Y-96450637D01*
X110766958Y-96212509D01*
X110841672Y-96061592D01*
X110922256Y-95981689D01*
X111046175Y-95932401D01*
X111250930Y-95906749D01*
X111574026Y-95897751D01*
X111724556Y-95897244D01*
X112113869Y-95903645D01*
X112378499Y-95928026D01*
X112562787Y-95978150D01*
X112711075Y-96061781D01*
X112726053Y-96072595D01*
X112881405Y-96195793D01*
X113003479Y-96325167D01*
X113096262Y-96481962D01*
X113163741Y-96687420D01*
X113209902Y-96962784D01*
X113238732Y-97329296D01*
X113254218Y-97808199D01*
X113260347Y-98420737D01*
X113261204Y-98924077D01*
X113261954Y-99575834D01*
X113265160Y-100079514D01*
X113272393Y-100456371D01*
X113285224Y-100727657D01*
X113305226Y-100914627D01*
X113333970Y-101038534D01*
X113373027Y-101120632D01*
X113423969Y-101182174D01*
X113428516Y-101186757D01*
X113637506Y-101336180D01*
X113811159Y-101408014D01*
X114045802Y-101411554D01*
X114311779Y-101342581D01*
X114529411Y-101226585D01*
X114596652Y-101156719D01*
X114613385Y-101051169D01*
X114631173Y-100797836D01*
X114649180Y-100418260D01*
X114666568Y-99933979D01*
X114682502Y-99366533D01*
X114696143Y-98737463D01*
X114700669Y-98479577D01*
X114743002Y-95897244D01*
X115075352Y-95908218D01*
G37*
X115075352Y-95908218D02*
X115227073Y-95915987D01*
X115348368Y-95939632D01*
X115442644Y-95996306D01*
X115513304Y-96103165D01*
X115563754Y-96277363D01*
X115597397Y-96536054D01*
X115617639Y-96896392D01*
X115627884Y-97375532D01*
X115631537Y-97990628D01*
X115632002Y-98712897D01*
X115631304Y-99434176D01*
X115628369Y-100007254D01*
X115621943Y-100453258D01*
X115610767Y-100793316D01*
X115593587Y-101048558D01*
X115569144Y-101240112D01*
X115536184Y-101389106D01*
X115493448Y-101516669D01*
X115460504Y-101596548D01*
X115228649Y-101980693D01*
X114908039Y-102242481D01*
X114478021Y-102394677D01*
X114090538Y-102443479D01*
X113522261Y-102418016D01*
X113065708Y-102266040D01*
X112719201Y-101986793D01*
X112560004Y-101751487D01*
X112502615Y-101635335D01*
X112457570Y-101512140D01*
X112422848Y-101359459D01*
X112396425Y-101154845D01*
X112376280Y-100875856D01*
X112360389Y-100500046D01*
X112346730Y-100004971D01*
X112333281Y-99368188D01*
X112330002Y-99199244D01*
X112287669Y-96997910D01*
X111654813Y-96972650D01*
X111225615Y-96933478D01*
X110941236Y-96848695D01*
X110780572Y-96706502D01*
X110722519Y-96495094D01*
X110721336Y-96450637D01*
X110766958Y-96212509D01*
X110841672Y-96061592D01*
X110922256Y-95981689D01*
X111046175Y-95932401D01*
X111250930Y-95906749D01*
X111574026Y-95897751D01*
X111724556Y-95897244D01*
X112113869Y-95903645D01*
X112378499Y-95928026D01*
X112562787Y-95978150D01*
X112711075Y-96061781D01*
X112726053Y-96072595D01*
X112881405Y-96195793D01*
X113003479Y-96325167D01*
X113096262Y-96481962D01*
X113163741Y-96687420D01*
X113209902Y-96962784D01*
X113238732Y-97329296D01*
X113254218Y-97808199D01*
X113260347Y-98420737D01*
X113261204Y-98924077D01*
X113261954Y-99575834D01*
X113265160Y-100079514D01*
X113272393Y-100456371D01*
X113285224Y-100727657D01*
X113305226Y-100914627D01*
X113333970Y-101038534D01*
X113373027Y-101120632D01*
X113423969Y-101182174D01*
X113428516Y-101186757D01*
X113637506Y-101336180D01*
X113811159Y-101408014D01*
X114045802Y-101411554D01*
X114311779Y-101342581D01*
X114529411Y-101226585D01*
X114596652Y-101156719D01*
X114613385Y-101051169D01*
X114631173Y-100797836D01*
X114649180Y-100418260D01*
X114666568Y-99933979D01*
X114682502Y-99366533D01*
X114696143Y-98737463D01*
X114700669Y-98479577D01*
X114743002Y-95897244D01*
X115075352Y-95908218D01*
G36*
X110904860Y-104713166D02*
G01*
X111060649Y-104851410D01*
X111255294Y-105030297D01*
X111652669Y-105400350D01*
X111652669Y-107085791D01*
X111649507Y-107731927D01*
X111636907Y-108228216D01*
X111610199Y-108594081D01*
X111564711Y-108848941D01*
X111495773Y-109012217D01*
X111398714Y-109103330D01*
X111268864Y-109141700D01*
X111156802Y-109147577D01*
X111022149Y-109141857D01*
X110918629Y-109111667D01*
X110842331Y-109037461D01*
X110789343Y-108899694D01*
X110755752Y-108678818D01*
X110737647Y-108355290D01*
X110731116Y-107909562D01*
X110732248Y-107322090D01*
X110734022Y-107035144D01*
X110739243Y-106469668D01*
X110746798Y-105949553D01*
X110756061Y-105502706D01*
X110766409Y-105157034D01*
X110777216Y-104940447D01*
X110781979Y-104893077D01*
X110813872Y-104724449D01*
X110837584Y-104660244D01*
X110904860Y-104713166D01*
G37*
X110904860Y-104713166D02*
X111060649Y-104851410D01*
X111255294Y-105030297D01*
X111652669Y-105400350D01*
X111652669Y-107085791D01*
X111649507Y-107731927D01*
X111636907Y-108228216D01*
X111610199Y-108594081D01*
X111564711Y-108848941D01*
X111495773Y-109012217D01*
X111398714Y-109103330D01*
X111268864Y-109141700D01*
X111156802Y-109147577D01*
X111022149Y-109141857D01*
X110918629Y-109111667D01*
X110842331Y-109037461D01*
X110789343Y-108899694D01*
X110755752Y-108678818D01*
X110737647Y-108355290D01*
X110731116Y-107909562D01*
X110732248Y-107322090D01*
X110734022Y-107035144D01*
X110739243Y-106469668D01*
X110746798Y-105949553D01*
X110756061Y-105502706D01*
X110766409Y-105157034D01*
X110777216Y-104940447D01*
X110781979Y-104893077D01*
X110813872Y-104724449D01*
X110837584Y-104660244D01*
X110904860Y-104713166D01*
G36*
X112387918Y-103813077D02*
G01*
X112479385Y-104227835D01*
X112467296Y-104469255D01*
X112458492Y-104717609D01*
X112503317Y-105012146D01*
X112609892Y-105397424D01*
X112670287Y-105582911D01*
X112793574Y-105996899D01*
X112878315Y-106375154D01*
X112922433Y-106692455D01*
X112923851Y-106923582D01*
X112880492Y-107043314D01*
X112790281Y-107026431D01*
X112789064Y-107025429D01*
X112677457Y-106889730D01*
X112534126Y-106660151D01*
X112440746Y-106485895D01*
X112302221Y-106224244D01*
X112176996Y-106012499D01*
X112119096Y-105930244D01*
X112021193Y-105768446D01*
X111917402Y-105533014D01*
X111900329Y-105486451D01*
X111758479Y-105229664D01*
X111538974Y-104974905D01*
X111461381Y-104906781D01*
X111249254Y-104717812D01*
X111108988Y-104528473D01*
X111000444Y-104274819D01*
X110934570Y-104067577D01*
X110906880Y-103952823D01*
X110935861Y-103935497D01*
X111045159Y-104023630D01*
X111180957Y-104151265D01*
X111378824Y-104322397D01*
X111498270Y-104374933D01*
X111560635Y-104333497D01*
X111689795Y-104246961D01*
X111874443Y-104208528D01*
X112097623Y-104164625D01*
X112211889Y-104035138D01*
X112250599Y-103781325D01*
X112250946Y-103771244D01*
X112259149Y-103517244D01*
X112387918Y-103813077D01*
G37*
X112387918Y-103813077D02*
X112479385Y-104227835D01*
X112467296Y-104469255D01*
X112458492Y-104717609D01*
X112503317Y-105012146D01*
X112609892Y-105397424D01*
X112670287Y-105582911D01*
X112793574Y-105996899D01*
X112878315Y-106375154D01*
X112922433Y-106692455D01*
X112923851Y-106923582D01*
X112880492Y-107043314D01*
X112790281Y-107026431D01*
X112789064Y-107025429D01*
X112677457Y-106889730D01*
X112534126Y-106660151D01*
X112440746Y-106485895D01*
X112302221Y-106224244D01*
X112176996Y-106012499D01*
X112119096Y-105930244D01*
X112021193Y-105768446D01*
X111917402Y-105533014D01*
X111900329Y-105486451D01*
X111758479Y-105229664D01*
X111538974Y-104974905D01*
X111461381Y-104906781D01*
X111249254Y-104717812D01*
X111108988Y-104528473D01*
X111000444Y-104274819D01*
X110934570Y-104067577D01*
X110906880Y-103952823D01*
X110935861Y-103935497D01*
X111045159Y-104023630D01*
X111180957Y-104151265D01*
X111378824Y-104322397D01*
X111498270Y-104374933D01*
X111560635Y-104333497D01*
X111689795Y-104246961D01*
X111874443Y-104208528D01*
X112097623Y-104164625D01*
X112211889Y-104035138D01*
X112250599Y-103781325D01*
X112250946Y-103771244D01*
X112259149Y-103517244D01*
X112387918Y-103813077D01*
G36*
X111287173Y-102273702D02*
G01*
X111297266Y-102406026D01*
X111280489Y-102435980D01*
X111242007Y-102410729D01*
X111236020Y-102324855D01*
X111256697Y-102234512D01*
X111287173Y-102273702D01*
G37*
X111287173Y-102273702D02*
X111297266Y-102406026D01*
X111280489Y-102435980D01*
X111242007Y-102410729D01*
X111236020Y-102324855D01*
X111256697Y-102234512D01*
X111287173Y-102273702D01*
G36*
X111398669Y-102670577D02*
G01*
X111462161Y-102850081D01*
X111470178Y-102942697D01*
X111422718Y-102916489D01*
X111398669Y-102882244D01*
X111328469Y-102701502D01*
X111321250Y-102628244D01*
X111345424Y-102577613D01*
X111398669Y-102670577D01*
G37*
X111398669Y-102670577D02*
X111462161Y-102850081D01*
X111470178Y-102942697D01*
X111422718Y-102916489D01*
X111398669Y-102882244D01*
X111328469Y-102701502D01*
X111321250Y-102628244D01*
X111345424Y-102577613D01*
X111398669Y-102670577D01*
G36*
X114584657Y-103224655D02*
G01*
X114997971Y-103240550D01*
X115286280Y-103275585D01*
X115471706Y-103336751D01*
X115576376Y-103431039D01*
X115622413Y-103565438D01*
X115632002Y-103728910D01*
X115619636Y-103907831D01*
X115567642Y-104039257D01*
X115453678Y-104130414D01*
X115255401Y-104188523D01*
X114950468Y-104220810D01*
X114516537Y-104234498D01*
X114060758Y-104236910D01*
X112755608Y-104236910D01*
X112637555Y-103954369D01*
X112512575Y-103640535D01*
X112456047Y-103445899D01*
X112463457Y-103336849D01*
X112530289Y-103279776D01*
X112546071Y-103273270D01*
X112674558Y-103255320D01*
X112939909Y-103240022D01*
X113309660Y-103228527D01*
X113751349Y-103221983D01*
X114024213Y-103220910D01*
X114584657Y-103224655D01*
G37*
X114584657Y-103224655D02*
X114997971Y-103240550D01*
X115286280Y-103275585D01*
X115471706Y-103336751D01*
X115576376Y-103431039D01*
X115622413Y-103565438D01*
X115632002Y-103728910D01*
X115619636Y-103907831D01*
X115567642Y-104039257D01*
X115453678Y-104130414D01*
X115255401Y-104188523D01*
X114950468Y-104220810D01*
X114516537Y-104234498D01*
X114060758Y-104236910D01*
X112755608Y-104236910D01*
X112637555Y-103954369D01*
X112512575Y-103640535D01*
X112456047Y-103445899D01*
X112463457Y-103336849D01*
X112530289Y-103279776D01*
X112546071Y-103273270D01*
X112674558Y-103255320D01*
X112939909Y-103240022D01*
X113309660Y-103228527D01*
X113751349Y-103221983D01*
X114024213Y-103220910D01*
X114584657Y-103224655D01*
D14*
%TO.C,J1*%
X91405000Y-69020000D02*
X91405000Y-70350000D01*
X86205000Y-119940000D02*
X91405000Y-119940000D01*
X86205000Y-69020000D02*
X88805000Y-69020000D01*
X90075000Y-69020000D02*
X91405000Y-69020000D01*
X86205000Y-69020000D02*
X86205000Y-119940000D01*
X91405000Y-71620000D02*
X91405000Y-119940000D01*
X88805000Y-69020000D02*
X88805000Y-71620000D01*
X88805000Y-71620000D02*
X91405000Y-71620000D01*
%TD*%
M02*
