%TF.GenerationSoftware,KiCad,Pcbnew,(6.0.5-0)*%
%TF.CreationDate,2024-03-04T10:57:06-05:00*%
%TF.ProjectId,CubeSat PCB V0.2,43756265-5361-4742-9050-43422056302e,rev?*%
%TF.SameCoordinates,Original*%
%TF.FileFunction,Legend,Bot*%
%TF.FilePolarity,Positive*%
%FSLAX46Y46*%
G04 Gerber Fmt 4.6, Leading zero omitted, Abs format (unit mm)*
G04 Created by KiCad (PCBNEW (6.0.5-0)) date 2024-03-04 10:57:06*
%MOMM*%
%LPD*%
G01*
G04 APERTURE LIST*
%ADD10C,0.200000*%
%ADD11C,0.150000*%
%ADD12C,0.300000*%
%ADD13C,0.500000*%
%ADD14C,0.100000*%
%ADD15C,0.120000*%
%ADD16C,0.127000*%
G04 APERTURE END LIST*
D10*
X104014285Y-85264285D02*
X104071428Y-85435714D01*
X104128571Y-85492857D01*
X104242857Y-85550000D01*
X104414285Y-85550000D01*
X104528571Y-85492857D01*
X104585714Y-85435714D01*
X104642857Y-85321428D01*
X104642857Y-84864285D01*
X103442857Y-84864285D01*
X103442857Y-85264285D01*
X103500000Y-85378571D01*
X103557142Y-85435714D01*
X103671428Y-85492857D01*
X103785714Y-85492857D01*
X103900000Y-85435714D01*
X103957142Y-85378571D01*
X104014285Y-85264285D01*
X104014285Y-84864285D01*
X103842857Y-85950000D02*
X104642857Y-86235714D01*
X103842857Y-86521428D02*
X104642857Y-86235714D01*
X104928571Y-86121428D01*
X104985714Y-86064285D01*
X105042857Y-85950000D01*
X104528571Y-86978571D02*
X104585714Y-87035714D01*
X104642857Y-86978571D01*
X104585714Y-86921428D01*
X104528571Y-86978571D01*
X104642857Y-86978571D01*
X103900000Y-86978571D02*
X103957142Y-87035714D01*
X104014285Y-86978571D01*
X103957142Y-86921428D01*
X103900000Y-86978571D01*
X104014285Y-86978571D01*
X104642857Y-88464285D02*
X103442857Y-88464285D01*
X103442857Y-88750000D01*
X103500000Y-88921428D01*
X103614285Y-89035714D01*
X103728571Y-89092857D01*
X103957142Y-89150000D01*
X104128571Y-89150000D01*
X104357142Y-89092857D01*
X104471428Y-89035714D01*
X104585714Y-88921428D01*
X104642857Y-88750000D01*
X104642857Y-88464285D01*
X103842857Y-89550000D02*
X104642857Y-89835714D01*
X103842857Y-90121428D02*
X104642857Y-89835714D01*
X104928571Y-89721428D01*
X104985714Y-89664285D01*
X105042857Y-89550000D01*
X104642857Y-90750000D02*
X104585714Y-90635714D01*
X104471428Y-90578571D01*
X103442857Y-90578571D01*
X104642857Y-91721428D02*
X104014285Y-91721428D01*
X103900000Y-91664285D01*
X103842857Y-91550000D01*
X103842857Y-91321428D01*
X103900000Y-91207142D01*
X104585714Y-91721428D02*
X104642857Y-91607142D01*
X104642857Y-91321428D01*
X104585714Y-91207142D01*
X104471428Y-91150000D01*
X104357142Y-91150000D01*
X104242857Y-91207142D01*
X104185714Y-91321428D01*
X104185714Y-91607142D01*
X104128571Y-91721428D01*
X103842857Y-92292857D02*
X104642857Y-92292857D01*
X103957142Y-92292857D02*
X103900000Y-92350000D01*
X103842857Y-92464285D01*
X103842857Y-92635714D01*
X103900000Y-92750000D01*
X104014285Y-92807142D01*
X104642857Y-92807142D01*
X104014285Y-94692857D02*
X104071428Y-94864285D01*
X104128571Y-94921428D01*
X104242857Y-94978571D01*
X104414285Y-94978571D01*
X104528571Y-94921428D01*
X104585714Y-94864285D01*
X104642857Y-94750000D01*
X104642857Y-94292857D01*
X103442857Y-94292857D01*
X103442857Y-94692857D01*
X103500000Y-94807142D01*
X103557142Y-94864285D01*
X103671428Y-94921428D01*
X103785714Y-94921428D01*
X103900000Y-94864285D01*
X103957142Y-94807142D01*
X104014285Y-94692857D01*
X104014285Y-94292857D01*
X104642857Y-96007142D02*
X104014285Y-96007142D01*
X103900000Y-95950000D01*
X103842857Y-95835714D01*
X103842857Y-95607142D01*
X103900000Y-95492857D01*
X104585714Y-96007142D02*
X104642857Y-95892857D01*
X104642857Y-95607142D01*
X104585714Y-95492857D01*
X104471428Y-95435714D01*
X104357142Y-95435714D01*
X104242857Y-95492857D01*
X104185714Y-95607142D01*
X104185714Y-95892857D01*
X104128571Y-96007142D01*
X104642857Y-96750000D02*
X104585714Y-96635714D01*
X104471428Y-96578571D01*
X103442857Y-96578571D01*
X104642857Y-97378571D02*
X104585714Y-97264285D01*
X104471428Y-97207142D01*
X103442857Y-97207142D01*
X104642857Y-97835714D02*
X103442857Y-97835714D01*
X103900000Y-97835714D02*
X103842857Y-97950000D01*
X103842857Y-98178571D01*
X103900000Y-98292857D01*
X103957142Y-98350000D01*
X104071428Y-98407142D01*
X104414285Y-98407142D01*
X104528571Y-98350000D01*
X104585714Y-98292857D01*
X104642857Y-98178571D01*
X104642857Y-97950000D01*
X104585714Y-97835714D01*
X104642857Y-99435714D02*
X104014285Y-99435714D01*
X103900000Y-99378571D01*
X103842857Y-99264285D01*
X103842857Y-99035714D01*
X103900000Y-98921428D01*
X104585714Y-99435714D02*
X104642857Y-99321428D01*
X104642857Y-99035714D01*
X104585714Y-98921428D01*
X104471428Y-98864285D01*
X104357142Y-98864285D01*
X104242857Y-98921428D01*
X104185714Y-99035714D01*
X104185714Y-99321428D01*
X104128571Y-99435714D01*
X104585714Y-100521428D02*
X104642857Y-100407142D01*
X104642857Y-100178571D01*
X104585714Y-100064285D01*
X104528571Y-100007142D01*
X104414285Y-99950000D01*
X104071428Y-99950000D01*
X103957142Y-100007142D01*
X103900000Y-100064285D01*
X103842857Y-100178571D01*
X103842857Y-100407142D01*
X103900000Y-100521428D01*
X104642857Y-101035714D02*
X103442857Y-101035714D01*
X104185714Y-101150000D02*
X104642857Y-101492857D01*
X103842857Y-101492857D02*
X104300000Y-101035714D01*
D11*
X115954761Y-74535714D02*
X116002380Y-74678571D01*
X116002380Y-74916666D01*
X115954761Y-75011904D01*
X115907142Y-75059523D01*
X115811904Y-75107142D01*
X115716666Y-75107142D01*
X115621428Y-75059523D01*
X115573809Y-75011904D01*
X115526190Y-74916666D01*
X115478571Y-74726190D01*
X115430952Y-74630952D01*
X115383333Y-74583333D01*
X115288095Y-74535714D01*
X115192857Y-74535714D01*
X115097619Y-74583333D01*
X115050000Y-74630952D01*
X115002380Y-74726190D01*
X115002380Y-74964285D01*
X115050000Y-75107142D01*
X116002380Y-75535714D02*
X115002380Y-75535714D01*
X115002380Y-75773809D01*
X115050000Y-75916666D01*
X115145238Y-76011904D01*
X115240476Y-76059523D01*
X115430952Y-76107142D01*
X115573809Y-76107142D01*
X115764285Y-76059523D01*
X115859523Y-76011904D01*
X115954761Y-75916666D01*
X116002380Y-75773809D01*
X116002380Y-75535714D01*
X115716666Y-76488095D02*
X115716666Y-76964285D01*
X116002380Y-76392857D02*
X115002380Y-76726190D01*
X116002380Y-77059523D01*
D12*
X92253571Y-109185714D02*
X92253571Y-109528571D01*
X92325000Y-109700000D01*
X92467857Y-109871428D01*
X92753571Y-109957142D01*
X93253571Y-109957142D01*
X93539285Y-109871428D01*
X93682142Y-109700000D01*
X93753571Y-109528571D01*
X93753571Y-109185714D01*
X93682142Y-109014285D01*
X93539285Y-108842857D01*
X93253571Y-108757142D01*
X92753571Y-108757142D01*
X92467857Y-108842857D01*
X92325000Y-109014285D01*
X92253571Y-109185714D01*
X92967857Y-111328571D02*
X92967857Y-110728571D01*
X93753571Y-110728571D02*
X92253571Y-110728571D01*
X92253571Y-111585714D01*
X92967857Y-112871428D02*
X92967857Y-112271428D01*
X93753571Y-112271428D02*
X92253571Y-112271428D01*
X92253571Y-113128571D01*
D11*
X115002380Y-78409523D02*
X115002380Y-77933333D01*
X115478571Y-77885714D01*
X115430952Y-77933333D01*
X115383333Y-78028571D01*
X115383333Y-78266666D01*
X115430952Y-78361904D01*
X115478571Y-78409523D01*
X115573809Y-78457142D01*
X115811904Y-78457142D01*
X115907142Y-78409523D01*
X115954761Y-78361904D01*
X116002380Y-78266666D01*
X116002380Y-78028571D01*
X115954761Y-77933333D01*
X115907142Y-77885714D01*
X115002380Y-78742857D02*
X116002380Y-79076190D01*
X115002380Y-79409523D01*
X107096428Y-81728571D02*
X106953571Y-81776190D01*
X106905952Y-81823809D01*
X106858333Y-81919047D01*
X106858333Y-82061904D01*
X106905952Y-82157142D01*
X106953571Y-82204761D01*
X107048809Y-82252380D01*
X107429761Y-82252380D01*
X107429761Y-81252380D01*
X107096428Y-81252380D01*
X107001190Y-81300000D01*
X106953571Y-81347619D01*
X106905952Y-81442857D01*
X106905952Y-81538095D01*
X106953571Y-81633333D01*
X107001190Y-81680952D01*
X107096428Y-81728571D01*
X107429761Y-81728571D01*
X106525000Y-81585714D02*
X106286904Y-82252380D01*
X106048809Y-81585714D02*
X106286904Y-82252380D01*
X106382142Y-82490476D01*
X106429761Y-82538095D01*
X106525000Y-82585714D01*
X105667857Y-82157142D02*
X105620238Y-82204761D01*
X105667857Y-82252380D01*
X105715476Y-82204761D01*
X105667857Y-82157142D01*
X105667857Y-82252380D01*
X105667857Y-81633333D02*
X105620238Y-81680952D01*
X105667857Y-81728571D01*
X105715476Y-81680952D01*
X105667857Y-81633333D01*
X105667857Y-81728571D01*
X104429761Y-82252380D02*
X104429761Y-81252380D01*
X104191666Y-81252380D01*
X104048809Y-81300000D01*
X103953571Y-81395238D01*
X103905952Y-81490476D01*
X103858333Y-81680952D01*
X103858333Y-81823809D01*
X103905952Y-82014285D01*
X103953571Y-82109523D01*
X104048809Y-82204761D01*
X104191666Y-82252380D01*
X104429761Y-82252380D01*
X103525000Y-81585714D02*
X103286904Y-82252380D01*
X103048809Y-81585714D02*
X103286904Y-82252380D01*
X103382142Y-82490476D01*
X103429761Y-82538095D01*
X103525000Y-82585714D01*
X102525000Y-82252380D02*
X102620238Y-82204761D01*
X102667857Y-82109523D01*
X102667857Y-81252380D01*
X101715476Y-82252380D02*
X101715476Y-81728571D01*
X101763095Y-81633333D01*
X101858333Y-81585714D01*
X102048809Y-81585714D01*
X102144047Y-81633333D01*
X101715476Y-82204761D02*
X101810714Y-82252380D01*
X102048809Y-82252380D01*
X102144047Y-82204761D01*
X102191666Y-82109523D01*
X102191666Y-82014285D01*
X102144047Y-81919047D01*
X102048809Y-81871428D01*
X101810714Y-81871428D01*
X101715476Y-81823809D01*
X101239285Y-81585714D02*
X101239285Y-82252380D01*
X101239285Y-81680952D02*
X101191666Y-81633333D01*
X101096428Y-81585714D01*
X100953571Y-81585714D01*
X100858333Y-81633333D01*
X100810714Y-81728571D01*
X100810714Y-82252380D01*
X99239285Y-81728571D02*
X99096428Y-81776190D01*
X99048809Y-81823809D01*
X99001190Y-81919047D01*
X99001190Y-82061904D01*
X99048809Y-82157142D01*
X99096428Y-82204761D01*
X99191666Y-82252380D01*
X99572619Y-82252380D01*
X99572619Y-81252380D01*
X99239285Y-81252380D01*
X99144047Y-81300000D01*
X99096428Y-81347619D01*
X99048809Y-81442857D01*
X99048809Y-81538095D01*
X99096428Y-81633333D01*
X99144047Y-81680952D01*
X99239285Y-81728571D01*
X99572619Y-81728571D01*
X98144047Y-82252380D02*
X98144047Y-81728571D01*
X98191666Y-81633333D01*
X98286904Y-81585714D01*
X98477380Y-81585714D01*
X98572619Y-81633333D01*
X98144047Y-82204761D02*
X98239285Y-82252380D01*
X98477380Y-82252380D01*
X98572619Y-82204761D01*
X98620238Y-82109523D01*
X98620238Y-82014285D01*
X98572619Y-81919047D01*
X98477380Y-81871428D01*
X98239285Y-81871428D01*
X98144047Y-81823809D01*
X97525000Y-82252380D02*
X97620238Y-82204761D01*
X97667857Y-82109523D01*
X97667857Y-81252380D01*
X97001190Y-82252380D02*
X97096428Y-82204761D01*
X97144047Y-82109523D01*
X97144047Y-81252380D01*
X96620238Y-82252380D02*
X96620238Y-81252380D01*
X96620238Y-81633333D02*
X96525000Y-81585714D01*
X96334523Y-81585714D01*
X96239285Y-81633333D01*
X96191666Y-81680952D01*
X96144047Y-81776190D01*
X96144047Y-82061904D01*
X96191666Y-82157142D01*
X96239285Y-82204761D01*
X96334523Y-82252380D01*
X96525000Y-82252380D01*
X96620238Y-82204761D01*
X95286904Y-82252380D02*
X95286904Y-81728571D01*
X95334523Y-81633333D01*
X95429761Y-81585714D01*
X95620238Y-81585714D01*
X95715476Y-81633333D01*
X95286904Y-82204761D02*
X95382142Y-82252380D01*
X95620238Y-82252380D01*
X95715476Y-82204761D01*
X95763095Y-82109523D01*
X95763095Y-82014285D01*
X95715476Y-81919047D01*
X95620238Y-81871428D01*
X95382142Y-81871428D01*
X95286904Y-81823809D01*
X94382142Y-82204761D02*
X94477380Y-82252380D01*
X94667857Y-82252380D01*
X94763095Y-82204761D01*
X94810714Y-82157142D01*
X94858333Y-82061904D01*
X94858333Y-81776190D01*
X94810714Y-81680952D01*
X94763095Y-81633333D01*
X94667857Y-81585714D01*
X94477380Y-81585714D01*
X94382142Y-81633333D01*
X93953571Y-82252380D02*
X93953571Y-81252380D01*
X93858333Y-81871428D02*
X93572619Y-82252380D01*
X93572619Y-81585714D02*
X93953571Y-81966666D01*
X114400000Y-100338095D02*
X114352380Y-100242857D01*
X114352380Y-100100000D01*
X114400000Y-99957142D01*
X114495238Y-99861904D01*
X114590476Y-99814285D01*
X114780952Y-99766666D01*
X114923809Y-99766666D01*
X115114285Y-99814285D01*
X115209523Y-99861904D01*
X115304761Y-99957142D01*
X115352380Y-100100000D01*
X115352380Y-100195238D01*
X115304761Y-100338095D01*
X115257142Y-100385714D01*
X114923809Y-100385714D01*
X114923809Y-100195238D01*
X115352380Y-100814285D02*
X114352380Y-100814285D01*
X115352380Y-101385714D01*
X114352380Y-101385714D01*
X115352380Y-101861904D02*
X114352380Y-101861904D01*
X114352380Y-102100000D01*
X114400000Y-102242857D01*
X114495238Y-102338095D01*
X114590476Y-102385714D01*
X114780952Y-102433333D01*
X114923809Y-102433333D01*
X115114285Y-102385714D01*
X115209523Y-102338095D01*
X115304761Y-102242857D01*
X115352380Y-102100000D01*
X115352380Y-101861904D01*
X114352380Y-98116666D02*
X115352380Y-98783333D01*
X114352380Y-98783333D02*
X115352380Y-98116666D01*
X114325000Y-90688095D02*
X114277380Y-90592857D01*
X114277380Y-90450000D01*
X114325000Y-90307142D01*
X114420238Y-90211904D01*
X114515476Y-90164285D01*
X114705952Y-90116666D01*
X114848809Y-90116666D01*
X115039285Y-90164285D01*
X115134523Y-90211904D01*
X115229761Y-90307142D01*
X115277380Y-90450000D01*
X115277380Y-90545238D01*
X115229761Y-90688095D01*
X115182142Y-90735714D01*
X114848809Y-90735714D01*
X114848809Y-90545238D01*
X115277380Y-91164285D02*
X114277380Y-91164285D01*
X115277380Y-91735714D01*
X114277380Y-91735714D01*
X115277380Y-92211904D02*
X114277380Y-92211904D01*
X114277380Y-92450000D01*
X114325000Y-92592857D01*
X114420238Y-92688095D01*
X114515476Y-92735714D01*
X114705952Y-92783333D01*
X114848809Y-92783333D01*
X115039285Y-92735714D01*
X115134523Y-92688095D01*
X115229761Y-92592857D01*
X115277380Y-92450000D01*
X115277380Y-92211904D01*
X115050000Y-68388095D02*
X115002380Y-68292857D01*
X115002380Y-68150000D01*
X115050000Y-68007142D01*
X115145238Y-67911904D01*
X115240476Y-67864285D01*
X115430952Y-67816666D01*
X115573809Y-67816666D01*
X115764285Y-67864285D01*
X115859523Y-67911904D01*
X115954761Y-68007142D01*
X116002380Y-68150000D01*
X116002380Y-68245238D01*
X115954761Y-68388095D01*
X115907142Y-68435714D01*
X115573809Y-68435714D01*
X115573809Y-68245238D01*
X116002380Y-68864285D02*
X115002380Y-68864285D01*
X116002380Y-69435714D01*
X115002380Y-69435714D01*
X116002380Y-69911904D02*
X115002380Y-69911904D01*
X115002380Y-70150000D01*
X115050000Y-70292857D01*
X115145238Y-70388095D01*
X115240476Y-70435714D01*
X115430952Y-70483333D01*
X115573809Y-70483333D01*
X115764285Y-70435714D01*
X115859523Y-70388095D01*
X115954761Y-70292857D01*
X116002380Y-70150000D01*
X116002380Y-69911904D01*
D12*
X112096428Y-69978571D02*
X112172619Y-69907142D01*
X112248809Y-69692857D01*
X112248809Y-69550000D01*
X112172619Y-69335714D01*
X112020238Y-69192857D01*
X111867857Y-69121428D01*
X111563095Y-69050000D01*
X111334523Y-69050000D01*
X111029761Y-69121428D01*
X110877380Y-69192857D01*
X110725000Y-69335714D01*
X110648809Y-69550000D01*
X110648809Y-69692857D01*
X110725000Y-69907142D01*
X110801190Y-69978571D01*
X111182142Y-71264285D02*
X112248809Y-71264285D01*
X111182142Y-70621428D02*
X112020238Y-70621428D01*
X112172619Y-70692857D01*
X112248809Y-70835714D01*
X112248809Y-71050000D01*
X112172619Y-71192857D01*
X112096428Y-71264285D01*
X112248809Y-71978571D02*
X110648809Y-71978571D01*
X111258333Y-71978571D02*
X111182142Y-72121428D01*
X111182142Y-72407142D01*
X111258333Y-72550000D01*
X111334523Y-72621428D01*
X111486904Y-72692857D01*
X111944047Y-72692857D01*
X112096428Y-72621428D01*
X112172619Y-72550000D01*
X112248809Y-72407142D01*
X112248809Y-72121428D01*
X112172619Y-71978571D01*
X112172619Y-73907142D02*
X112248809Y-73764285D01*
X112248809Y-73478571D01*
X112172619Y-73335714D01*
X112020238Y-73264285D01*
X111410714Y-73264285D01*
X111258333Y-73335714D01*
X111182142Y-73478571D01*
X111182142Y-73764285D01*
X111258333Y-73907142D01*
X111410714Y-73978571D01*
X111563095Y-73978571D01*
X111715476Y-73264285D01*
X112172619Y-74550000D02*
X112248809Y-74764285D01*
X112248809Y-75121428D01*
X112172619Y-75264285D01*
X112096428Y-75335714D01*
X111944047Y-75407142D01*
X111791666Y-75407142D01*
X111639285Y-75335714D01*
X111563095Y-75264285D01*
X111486904Y-75121428D01*
X111410714Y-74835714D01*
X111334523Y-74692857D01*
X111258333Y-74621428D01*
X111105952Y-74550000D01*
X110953571Y-74550000D01*
X110801190Y-74621428D01*
X110725000Y-74692857D01*
X110648809Y-74835714D01*
X110648809Y-75192857D01*
X110725000Y-75407142D01*
X112248809Y-76692857D02*
X111410714Y-76692857D01*
X111258333Y-76621428D01*
X111182142Y-76478571D01*
X111182142Y-76192857D01*
X111258333Y-76050000D01*
X112172619Y-76692857D02*
X112248809Y-76550000D01*
X112248809Y-76192857D01*
X112172619Y-76050000D01*
X112020238Y-75978571D01*
X111867857Y-75978571D01*
X111715476Y-76050000D01*
X111639285Y-76192857D01*
X111639285Y-76550000D01*
X111563095Y-76692857D01*
X111182142Y-77192857D02*
X111182142Y-77764285D01*
X110648809Y-77407142D02*
X112020238Y-77407142D01*
X112172619Y-77478571D01*
X112248809Y-77621428D01*
X112248809Y-77764285D01*
X112248809Y-79407142D02*
X110648809Y-79407142D01*
X112248809Y-80121428D02*
X110648809Y-80121428D01*
X111791666Y-80621428D01*
X110648809Y-81121428D01*
X112248809Y-81121428D01*
X110648809Y-81835714D02*
X111944047Y-81835714D01*
X112096428Y-81907142D01*
X112172619Y-81978571D01*
X112248809Y-82121428D01*
X112248809Y-82407142D01*
X112172619Y-82550000D01*
X112096428Y-82621428D01*
X111944047Y-82692857D01*
X110648809Y-82692857D01*
X110572619Y-84478571D02*
X112629761Y-83192857D01*
X111410714Y-84978571D02*
X111410714Y-85478571D01*
X112248809Y-85692857D02*
X112248809Y-84978571D01*
X110648809Y-84978571D01*
X110648809Y-85692857D01*
X111182142Y-86335714D02*
X112248809Y-86335714D01*
X111334523Y-86335714D02*
X111258333Y-86407142D01*
X111182142Y-86550000D01*
X111182142Y-86764285D01*
X111258333Y-86907142D01*
X111410714Y-86978571D01*
X112248809Y-86978571D01*
X112172619Y-88335714D02*
X112248809Y-88192857D01*
X112248809Y-87907142D01*
X112172619Y-87764285D01*
X112096428Y-87692857D01*
X111944047Y-87621428D01*
X111486904Y-87621428D01*
X111334523Y-87692857D01*
X111258333Y-87764285D01*
X111182142Y-87907142D01*
X111182142Y-88192857D01*
X111258333Y-88335714D01*
X112248809Y-89192857D02*
X112172619Y-89050000D01*
X112096428Y-88978571D01*
X111944047Y-88907142D01*
X111486904Y-88907142D01*
X111334523Y-88978571D01*
X111258333Y-89050000D01*
X111182142Y-89192857D01*
X111182142Y-89407142D01*
X111258333Y-89550000D01*
X111334523Y-89621428D01*
X111486904Y-89692857D01*
X111944047Y-89692857D01*
X112096428Y-89621428D01*
X112172619Y-89550000D01*
X112248809Y-89407142D01*
X112248809Y-89192857D01*
X112248809Y-90978571D02*
X110648809Y-90978571D01*
X112172619Y-90978571D02*
X112248809Y-90835714D01*
X112248809Y-90550000D01*
X112172619Y-90407142D01*
X112096428Y-90335714D01*
X111944047Y-90264285D01*
X111486904Y-90264285D01*
X111334523Y-90335714D01*
X111258333Y-90407142D01*
X111182142Y-90550000D01*
X111182142Y-90835714D01*
X111258333Y-90978571D01*
X112172619Y-92264285D02*
X112248809Y-92121428D01*
X112248809Y-91835714D01*
X112172619Y-91692857D01*
X112020238Y-91621428D01*
X111410714Y-91621428D01*
X111258333Y-91692857D01*
X111182142Y-91835714D01*
X111182142Y-92121428D01*
X111258333Y-92264285D01*
X111410714Y-92335714D01*
X111563095Y-92335714D01*
X111715476Y-91621428D01*
X112248809Y-92978571D02*
X111182142Y-92978571D01*
X111486904Y-92978571D02*
X111334523Y-93050000D01*
X111258333Y-93121428D01*
X111182142Y-93264285D01*
X111182142Y-93407142D01*
X112248809Y-95050000D02*
X110648809Y-95050000D01*
X110648809Y-95621428D01*
X110725000Y-95764285D01*
X110801190Y-95835714D01*
X110953571Y-95907142D01*
X111182142Y-95907142D01*
X111334523Y-95835714D01*
X111410714Y-95764285D01*
X111486904Y-95621428D01*
X111486904Y-95050000D01*
X112248809Y-96550000D02*
X111182142Y-96550000D01*
X110648809Y-96550000D02*
X110725000Y-96478571D01*
X110801190Y-96550000D01*
X110725000Y-96621428D01*
X110648809Y-96550000D01*
X110801190Y-96550000D01*
X112248809Y-98407142D02*
X110648809Y-98407142D01*
X111410714Y-98407142D02*
X111410714Y-99264285D01*
X112248809Y-99264285D02*
X110648809Y-99264285D01*
X112248809Y-100621428D02*
X111410714Y-100621428D01*
X111258333Y-100550000D01*
X111182142Y-100407142D01*
X111182142Y-100121428D01*
X111258333Y-99978571D01*
X112172619Y-100621428D02*
X112248809Y-100478571D01*
X112248809Y-100121428D01*
X112172619Y-99978571D01*
X112020238Y-99907142D01*
X111867857Y-99907142D01*
X111715476Y-99978571D01*
X111639285Y-100121428D01*
X111639285Y-100478571D01*
X111563095Y-100621428D01*
X111182142Y-101121428D02*
X111182142Y-101692857D01*
X110648809Y-101335714D02*
X112020238Y-101335714D01*
X112172619Y-101407142D01*
X112248809Y-101550000D01*
X112248809Y-101692857D01*
X110648809Y-103121428D02*
X112248809Y-103621428D01*
X110648809Y-104121428D01*
X110648809Y-104907142D02*
X110648809Y-105050000D01*
X110725000Y-105192857D01*
X110801190Y-105264285D01*
X110953571Y-105335714D01*
X111258333Y-105407142D01*
X111639285Y-105407142D01*
X111944047Y-105335714D01*
X112096428Y-105264285D01*
X112172619Y-105192857D01*
X112248809Y-105050000D01*
X112248809Y-104907142D01*
X112172619Y-104764285D01*
X112096428Y-104692857D01*
X111944047Y-104621428D01*
X111639285Y-104550000D01*
X111258333Y-104550000D01*
X110953571Y-104621428D01*
X110801190Y-104692857D01*
X110725000Y-104764285D01*
X110648809Y-104907142D01*
X112096428Y-106050000D02*
X112172619Y-106121428D01*
X112248809Y-106050000D01*
X112172619Y-105978571D01*
X112096428Y-106050000D01*
X112248809Y-106050000D01*
X110801190Y-106692857D02*
X110725000Y-106764285D01*
X110648809Y-106907142D01*
X110648809Y-107264285D01*
X110725000Y-107407142D01*
X110801190Y-107478571D01*
X110953571Y-107550000D01*
X111105952Y-107550000D01*
X111334523Y-107478571D01*
X112248809Y-106621428D01*
X112248809Y-107550000D01*
D11*
X114375000Y-86009523D02*
X114327380Y-85914285D01*
X114327380Y-85771428D01*
X114375000Y-85628571D01*
X114470238Y-85533333D01*
X114565476Y-85485714D01*
X114755952Y-85438095D01*
X114898809Y-85438095D01*
X115089285Y-85485714D01*
X115184523Y-85533333D01*
X115279761Y-85628571D01*
X115327380Y-85771428D01*
X115327380Y-85866666D01*
X115279761Y-86009523D01*
X115232142Y-86057142D01*
X114898809Y-86057142D01*
X114898809Y-85866666D01*
X115327380Y-86485714D02*
X114327380Y-86485714D01*
X114327380Y-86866666D01*
X114375000Y-86961904D01*
X114422619Y-87009523D01*
X114517857Y-87057142D01*
X114660714Y-87057142D01*
X114755952Y-87009523D01*
X114803571Y-86961904D01*
X114851190Y-86866666D01*
X114851190Y-86485714D01*
X115327380Y-88009523D02*
X115327380Y-87438095D01*
X115327380Y-87723809D02*
X114327380Y-87723809D01*
X114470238Y-87628571D01*
X114565476Y-87533333D01*
X114613095Y-87438095D01*
X114755952Y-88580952D02*
X114708333Y-88485714D01*
X114660714Y-88438095D01*
X114565476Y-88390476D01*
X114517857Y-88390476D01*
X114422619Y-88438095D01*
X114375000Y-88485714D01*
X114327380Y-88580952D01*
X114327380Y-88771428D01*
X114375000Y-88866666D01*
X114422619Y-88914285D01*
X114517857Y-88961904D01*
X114565476Y-88961904D01*
X114660714Y-88914285D01*
X114708333Y-88866666D01*
X114755952Y-88771428D01*
X114755952Y-88580952D01*
X114803571Y-88485714D01*
X114851190Y-88438095D01*
X114946428Y-88390476D01*
X115136904Y-88390476D01*
X115232142Y-88438095D01*
X115279761Y-88485714D01*
X115327380Y-88580952D01*
X115327380Y-88771428D01*
X115279761Y-88866666D01*
X115232142Y-88914285D01*
X115136904Y-88961904D01*
X114946428Y-88961904D01*
X114851190Y-88914285D01*
X114803571Y-88866666D01*
X114755952Y-88771428D01*
X115304761Y-103059523D02*
X115352380Y-103202380D01*
X115352380Y-103440476D01*
X115304761Y-103535714D01*
X115257142Y-103583333D01*
X115161904Y-103630952D01*
X115066666Y-103630952D01*
X114971428Y-103583333D01*
X114923809Y-103535714D01*
X114876190Y-103440476D01*
X114828571Y-103250000D01*
X114780952Y-103154761D01*
X114733333Y-103107142D01*
X114638095Y-103059523D01*
X114542857Y-103059523D01*
X114447619Y-103107142D01*
X114400000Y-103154761D01*
X114352380Y-103250000D01*
X114352380Y-103488095D01*
X114400000Y-103630952D01*
X115257142Y-104630952D02*
X115304761Y-104583333D01*
X115352380Y-104440476D01*
X115352380Y-104345238D01*
X115304761Y-104202380D01*
X115209523Y-104107142D01*
X115114285Y-104059523D01*
X114923809Y-104011904D01*
X114780952Y-104011904D01*
X114590476Y-104059523D01*
X114495238Y-104107142D01*
X114400000Y-104202380D01*
X114352380Y-104345238D01*
X114352380Y-104440476D01*
X114400000Y-104583333D01*
X114447619Y-104630952D01*
X115352380Y-105535714D02*
X115352380Y-105059523D01*
X114352380Y-105059523D01*
X115354761Y-106235714D02*
X115402380Y-106378571D01*
X115402380Y-106616666D01*
X115354761Y-106711904D01*
X115307142Y-106759523D01*
X115211904Y-106807142D01*
X115116666Y-106807142D01*
X115021428Y-106759523D01*
X114973809Y-106711904D01*
X114926190Y-106616666D01*
X114878571Y-106426190D01*
X114830952Y-106330952D01*
X114783333Y-106283333D01*
X114688095Y-106235714D01*
X114592857Y-106235714D01*
X114497619Y-106283333D01*
X114450000Y-106330952D01*
X114402380Y-106426190D01*
X114402380Y-106664285D01*
X114450000Y-106807142D01*
X115402380Y-107235714D02*
X114402380Y-107235714D01*
X114402380Y-107473809D01*
X114450000Y-107616666D01*
X114545238Y-107711904D01*
X114640476Y-107759523D01*
X114830952Y-107807142D01*
X114973809Y-107807142D01*
X115164285Y-107759523D01*
X115259523Y-107711904D01*
X115354761Y-107616666D01*
X115402380Y-107473809D01*
X115402380Y-107235714D01*
X115116666Y-108188095D02*
X115116666Y-108664285D01*
X115402380Y-108092857D02*
X114402380Y-108426190D01*
X115402380Y-108759523D01*
X114327380Y-83359523D02*
X114327380Y-82883333D01*
X114803571Y-82835714D01*
X114755952Y-82883333D01*
X114708333Y-82978571D01*
X114708333Y-83216666D01*
X114755952Y-83311904D01*
X114803571Y-83359523D01*
X114898809Y-83407142D01*
X115136904Y-83407142D01*
X115232142Y-83359523D01*
X115279761Y-83311904D01*
X115327380Y-83216666D01*
X115327380Y-82978571D01*
X115279761Y-82883333D01*
X115232142Y-82835714D01*
X114327380Y-83692857D02*
X115327380Y-84026190D01*
X114327380Y-84359523D01*
X114452380Y-96409523D02*
X114452380Y-95933333D01*
X114928571Y-95885714D01*
X114880952Y-95933333D01*
X114833333Y-96028571D01*
X114833333Y-96266666D01*
X114880952Y-96361904D01*
X114928571Y-96409523D01*
X115023809Y-96457142D01*
X115261904Y-96457142D01*
X115357142Y-96409523D01*
X115404761Y-96361904D01*
X115452380Y-96266666D01*
X115452380Y-96028571D01*
X115404761Y-95933333D01*
X115357142Y-95885714D01*
X114452380Y-96742857D02*
X115452380Y-97076190D01*
X114452380Y-97409523D01*
X115904761Y-71309523D02*
X115952380Y-71452380D01*
X115952380Y-71690476D01*
X115904761Y-71785714D01*
X115857142Y-71833333D01*
X115761904Y-71880952D01*
X115666666Y-71880952D01*
X115571428Y-71833333D01*
X115523809Y-71785714D01*
X115476190Y-71690476D01*
X115428571Y-71500000D01*
X115380952Y-71404761D01*
X115333333Y-71357142D01*
X115238095Y-71309523D01*
X115142857Y-71309523D01*
X115047619Y-71357142D01*
X115000000Y-71404761D01*
X114952380Y-71500000D01*
X114952380Y-71738095D01*
X115000000Y-71880952D01*
X115857142Y-72880952D02*
X115904761Y-72833333D01*
X115952380Y-72690476D01*
X115952380Y-72595238D01*
X115904761Y-72452380D01*
X115809523Y-72357142D01*
X115714285Y-72309523D01*
X115523809Y-72261904D01*
X115380952Y-72261904D01*
X115190476Y-72309523D01*
X115095238Y-72357142D01*
X115000000Y-72452380D01*
X114952380Y-72595238D01*
X114952380Y-72690476D01*
X115000000Y-72833333D01*
X115047619Y-72880952D01*
X115952380Y-73785714D02*
X115952380Y-73309523D01*
X114952380Y-73309523D01*
D13*
X112010714Y-109997619D02*
X112010714Y-110914285D01*
X113582142Y-111307142D02*
X113582142Y-109997619D01*
X110582142Y-109997619D01*
X110582142Y-111307142D01*
X113582142Y-112485714D02*
X110582142Y-112485714D01*
X110582142Y-113533333D01*
X110725000Y-113795238D01*
X110867857Y-113926190D01*
X111153571Y-114057142D01*
X111582142Y-114057142D01*
X111867857Y-113926190D01*
X112010714Y-113795238D01*
X112153571Y-113533333D01*
X112153571Y-112485714D01*
X113582142Y-115235714D02*
X110582142Y-115235714D01*
X110582142Y-116283333D01*
X110725000Y-116545238D01*
X110867857Y-116676190D01*
X111153571Y-116807142D01*
X111582142Y-116807142D01*
X111867857Y-116676190D01*
X112010714Y-116545238D01*
X112153571Y-116283333D01*
X112153571Y-115235714D01*
X113582142Y-119295238D02*
X113582142Y-117985714D01*
X110582142Y-117985714D01*
D11*
%TO.C,U1*%
X93011180Y-93274095D02*
X93820704Y-93274095D01*
X93915942Y-93321714D01*
X93963561Y-93369333D01*
X94011180Y-93464571D01*
X94011180Y-93655047D01*
X93963561Y-93750285D01*
X93915942Y-93797904D01*
X93820704Y-93845523D01*
X93011180Y-93845523D01*
X94011180Y-94845523D02*
X94011180Y-94274095D01*
X94011180Y-94559809D02*
X93011180Y-94559809D01*
X93154038Y-94464571D01*
X93249276Y-94369333D01*
X93296895Y-94274095D01*
X95217728Y-87127247D02*
X95217728Y-87889152D01*
X95598680Y-87508200D02*
X94836776Y-87508200D01*
X95192328Y-101757647D02*
X95192328Y-102519552D01*
X95573280Y-102138600D02*
X94811376Y-102138600D01*
X103093009Y-103575314D02*
X103093009Y-104241980D01*
X103331104Y-103194361D02*
X103569200Y-103908647D01*
X102950152Y-103908647D01*
X102569200Y-104146742D02*
X102521580Y-104194361D01*
X102569200Y-104241980D01*
X102616819Y-104194361D01*
X102569200Y-104146742D01*
X102569200Y-104241980D01*
X101616819Y-103241980D02*
X102093009Y-103241980D01*
X102140628Y-103718171D01*
X102093009Y-103670552D01*
X101997771Y-103622933D01*
X101759676Y-103622933D01*
X101664438Y-103670552D01*
X101616819Y-103718171D01*
X101569200Y-103813409D01*
X101569200Y-104051504D01*
X101616819Y-104146742D01*
X101664438Y-104194361D01*
X101759676Y-104241980D01*
X101997771Y-104241980D01*
X102093009Y-104194361D01*
X102140628Y-104146742D01*
X101140628Y-103861028D02*
X100378723Y-103861028D01*
X99950152Y-103337219D02*
X99902533Y-103289600D01*
X99807295Y-103241980D01*
X99569200Y-103241980D01*
X99473961Y-103289600D01*
X99426342Y-103337219D01*
X99378723Y-103432457D01*
X99378723Y-103527695D01*
X99426342Y-103670552D01*
X99997771Y-104241980D01*
X99378723Y-104241980D01*
X98807295Y-103670552D02*
X98902533Y-103622933D01*
X98950152Y-103575314D01*
X98997771Y-103480076D01*
X98997771Y-103432457D01*
X98950152Y-103337219D01*
X98902533Y-103289600D01*
X98807295Y-103241980D01*
X98616819Y-103241980D01*
X98521580Y-103289600D01*
X98473961Y-103337219D01*
X98426342Y-103432457D01*
X98426342Y-103480076D01*
X98473961Y-103575314D01*
X98521580Y-103622933D01*
X98616819Y-103670552D01*
X98807295Y-103670552D01*
X98902533Y-103718171D01*
X98950152Y-103765790D01*
X98997771Y-103861028D01*
X98997771Y-104051504D01*
X98950152Y-104146742D01*
X98902533Y-104194361D01*
X98807295Y-104241980D01*
X98616819Y-104241980D01*
X98521580Y-104194361D01*
X98473961Y-104146742D01*
X98426342Y-104051504D01*
X98426342Y-103861028D01*
X98473961Y-103765790D01*
X98521580Y-103718171D01*
X98616819Y-103670552D01*
X98140628Y-103241980D02*
X97807295Y-104241980D01*
X97473961Y-103241980D01*
X105873028Y-87228847D02*
X105873028Y-87990752D01*
X105873028Y-101808447D02*
X105873028Y-102570352D01*
X102585104Y-84674580D02*
X102251771Y-85674580D01*
X101918438Y-84674580D01*
X101394628Y-84674580D02*
X101204152Y-84674580D01*
X101108914Y-84722200D01*
X101013676Y-84817438D01*
X100966057Y-85007914D01*
X100966057Y-85341247D01*
X101013676Y-85531723D01*
X101108914Y-85626961D01*
X101204152Y-85674580D01*
X101394628Y-85674580D01*
X101489866Y-85626961D01*
X101585104Y-85531723D01*
X101632723Y-85341247D01*
X101632723Y-85007914D01*
X101585104Y-84817438D01*
X101489866Y-84722200D01*
X101394628Y-84674580D01*
X100537485Y-84674580D02*
X100537485Y-85484104D01*
X100489866Y-85579342D01*
X100442247Y-85626961D01*
X100347009Y-85674580D01*
X100156533Y-85674580D01*
X100061295Y-85626961D01*
X100013676Y-85579342D01*
X99966057Y-85484104D01*
X99966057Y-84674580D01*
X99632723Y-84674580D02*
X99061295Y-84674580D01*
X99347009Y-85674580D02*
X99347009Y-84674580D01*
%TO.C,J6*%
X94095833Y-78027380D02*
X94095833Y-78741666D01*
X94143452Y-78884523D01*
X94238690Y-78979761D01*
X94381547Y-79027380D01*
X94476785Y-79027380D01*
X93191071Y-78027380D02*
X93381547Y-78027380D01*
X93476785Y-78075000D01*
X93524404Y-78122619D01*
X93619642Y-78265476D01*
X93667261Y-78455952D01*
X93667261Y-78836904D01*
X93619642Y-78932142D01*
X93572023Y-78979761D01*
X93476785Y-79027380D01*
X93286309Y-79027380D01*
X93191071Y-78979761D01*
X93143452Y-78932142D01*
X93095833Y-78836904D01*
X93095833Y-78598809D01*
X93143452Y-78503571D01*
X93191071Y-78455952D01*
X93286309Y-78408333D01*
X93476785Y-78408333D01*
X93572023Y-78455952D01*
X93619642Y-78503571D01*
X93667261Y-78598809D01*
X103681547Y-74653571D02*
X104443452Y-74653571D01*
X104062500Y-74272619D02*
X104062500Y-75034523D01*
X96381547Y-74753571D02*
X97143452Y-74753571D01*
%TO.C,SW1*%
X105383333Y-106809761D02*
X105240476Y-106857380D01*
X105002380Y-106857380D01*
X104907142Y-106809761D01*
X104859523Y-106762142D01*
X104811904Y-106666904D01*
X104811904Y-106571666D01*
X104859523Y-106476428D01*
X104907142Y-106428809D01*
X105002380Y-106381190D01*
X105192857Y-106333571D01*
X105288095Y-106285952D01*
X105335714Y-106238333D01*
X105383333Y-106143095D01*
X105383333Y-106047857D01*
X105335714Y-105952619D01*
X105288095Y-105905000D01*
X105192857Y-105857380D01*
X104954761Y-105857380D01*
X104811904Y-105905000D01*
X104478571Y-105857380D02*
X104240476Y-106857380D01*
X104050000Y-106143095D01*
X103859523Y-106857380D01*
X103621428Y-105857380D01*
X102716666Y-106857380D02*
X103288095Y-106857380D01*
X103002380Y-106857380D02*
X103002380Y-105857380D01*
X103097619Y-106000238D01*
X103192857Y-106095476D01*
X103288095Y-106143095D01*
%TO.C,J5*%
X117883333Y-81997380D02*
X117883333Y-82711666D01*
X117930952Y-82854523D01*
X118026190Y-82949761D01*
X118169047Y-82997380D01*
X118264285Y-82997380D01*
X116930952Y-81997380D02*
X117407142Y-81997380D01*
X117454761Y-82473571D01*
X117407142Y-82425952D01*
X117311904Y-82378333D01*
X117073809Y-82378333D01*
X116978571Y-82425952D01*
X116930952Y-82473571D01*
X116883333Y-82568809D01*
X116883333Y-82806904D01*
X116930952Y-82902142D01*
X116978571Y-82949761D01*
X117073809Y-82997380D01*
X117311904Y-82997380D01*
X117407142Y-82949761D01*
X117454761Y-82902142D01*
%TO.C,J2*%
X118058333Y-79782380D02*
X118058333Y-80496666D01*
X118105952Y-80639523D01*
X118201190Y-80734761D01*
X118344047Y-80782380D01*
X118439285Y-80782380D01*
X117629761Y-79877619D02*
X117582142Y-79830000D01*
X117486904Y-79782380D01*
X117248809Y-79782380D01*
X117153571Y-79830000D01*
X117105952Y-79877619D01*
X117058333Y-79972857D01*
X117058333Y-80068095D01*
X117105952Y-80210952D01*
X117677380Y-80782380D01*
X117058333Y-80782380D01*
%TO.C,J3*%
X117858333Y-93772380D02*
X117858333Y-94486666D01*
X117905952Y-94629523D01*
X118001190Y-94724761D01*
X118144047Y-94772380D01*
X118239285Y-94772380D01*
X117477380Y-93772380D02*
X116858333Y-93772380D01*
X117191666Y-94153333D01*
X117048809Y-94153333D01*
X116953571Y-94200952D01*
X116905952Y-94248571D01*
X116858333Y-94343809D01*
X116858333Y-94581904D01*
X116905952Y-94677142D01*
X116953571Y-94724761D01*
X117048809Y-94772380D01*
X117334523Y-94772380D01*
X117429761Y-94724761D01*
X117477380Y-94677142D01*
%TO.C,U1*%
G36*
X103414000Y-99268400D02*
G01*
X102804400Y-99268400D01*
X102804400Y-98862000D01*
X103414000Y-98862000D01*
X103414000Y-99268400D01*
G37*
D14*
X103414000Y-99268400D02*
X102804400Y-99268400D01*
X102804400Y-98862000D01*
X103414000Y-98862000D01*
X103414000Y-99268400D01*
G36*
X103414000Y-96271200D02*
G01*
X102804400Y-96271200D01*
X102804400Y-95864800D01*
X103414000Y-95864800D01*
X103414000Y-96271200D01*
G37*
X103414000Y-96271200D02*
X102804400Y-96271200D01*
X102804400Y-95864800D01*
X103414000Y-95864800D01*
X103414000Y-96271200D01*
G36*
X103414000Y-100741600D02*
G01*
X102804400Y-100741600D01*
X102804400Y-100335200D01*
X103414000Y-100335200D01*
X103414000Y-100741600D01*
G37*
X103414000Y-100741600D02*
X102804400Y-100741600D01*
X102804400Y-100335200D01*
X103414000Y-100335200D01*
X103414000Y-100741600D01*
G36*
X103414000Y-97795200D02*
G01*
X102804400Y-97795200D01*
X102804400Y-97388800D01*
X103414000Y-97388800D01*
X103414000Y-97795200D01*
G37*
X103414000Y-97795200D02*
X102804400Y-97795200D01*
X102804400Y-97388800D01*
X103414000Y-97388800D01*
X103414000Y-97795200D01*
G36*
X98232400Y-97795200D02*
G01*
X97622800Y-97795200D01*
X97622800Y-97388800D01*
X98232400Y-97388800D01*
X98232400Y-97795200D01*
G37*
X98232400Y-97795200D02*
X97622800Y-97795200D01*
X97622800Y-97388800D01*
X98232400Y-97388800D01*
X98232400Y-97795200D01*
G36*
X98232400Y-99268400D02*
G01*
X97622800Y-99268400D01*
X97622800Y-98862000D01*
X98232400Y-98862000D01*
X98232400Y-99268400D01*
G37*
X98232400Y-99268400D02*
X97622800Y-99268400D01*
X97622800Y-98862000D01*
X98232400Y-98862000D01*
X98232400Y-99268400D01*
G36*
X98232400Y-96271200D02*
G01*
X97622800Y-96271200D01*
X97622800Y-95864800D01*
X98232400Y-95864800D01*
X98232400Y-96271200D01*
G37*
X98232400Y-96271200D02*
X97622800Y-96271200D01*
X97622800Y-95864800D01*
X98232400Y-95864800D01*
X98232400Y-96271200D01*
G36*
X98232400Y-100741600D02*
G01*
X97622800Y-100741600D01*
X97622800Y-100335200D01*
X98232400Y-100335200D01*
X98232400Y-100741600D01*
G37*
X98232400Y-100741600D02*
X97622800Y-100741600D01*
X97622800Y-100335200D01*
X98232400Y-100335200D01*
X98232400Y-100741600D01*
D15*
X106502741Y-87609800D02*
G75*
G03*
X106502741Y-87609800I-764641J0D01*
G01*
X95822041Y-102138600D02*
G75*
G03*
X95822041Y-102138600I-764641J0D01*
G01*
X95847441Y-87508200D02*
G75*
G03*
X95847441Y-87508200I-764641J0D01*
G01*
X106502741Y-102189400D02*
G75*
G03*
X106502741Y-102189400I-764641J0D01*
G01*
X102753600Y-101452800D02*
X102753600Y-95356800D01*
X92238000Y-83876000D02*
X108367000Y-83876000D01*
X106639800Y-96906200D02*
X105369800Y-96906200D01*
X98283200Y-95356800D02*
X98283200Y-101452800D01*
X98283200Y-95356800D02*
X102753600Y-95356800D01*
X105369800Y-96906200D02*
X105369800Y-100335200D01*
X100073900Y-89476700D02*
X100835900Y-89476700D01*
X105369800Y-100335200D02*
X106639800Y-100335200D01*
X97673600Y-87025600D02*
X97673600Y-93680400D01*
X108367000Y-105212000D02*
X92238000Y-105212000D01*
X104328400Y-87025600D02*
X97673600Y-87025600D01*
X100835900Y-92105600D02*
X100835900Y-89476700D01*
X101470900Y-89476700D02*
X102169400Y-89476700D01*
X92238000Y-105212000D02*
X92238000Y-83876000D01*
X100835900Y-92105600D02*
X101470900Y-92105600D01*
X102169400Y-89476700D02*
X101153400Y-88206700D01*
X101470900Y-92105600D02*
X101470900Y-89476700D01*
X104328400Y-93680400D02*
X104328400Y-87025600D01*
X98283200Y-101452800D02*
X102753600Y-101452800D01*
X108367000Y-83876000D02*
X108367000Y-105212000D01*
X106639800Y-100335200D02*
X106639800Y-96906200D01*
X104328400Y-93680400D02*
X97673600Y-93680400D01*
X101153400Y-88206700D02*
X100073900Y-89476700D01*
D16*
%TO.C,J4*%
X92650000Y-117525000D02*
X94622000Y-117525000D01*
X98978000Y-117525000D02*
X101822000Y-117525000D01*
X97860000Y-122875000D02*
X96590000Y-122875000D01*
X108150000Y-117525000D02*
X106178000Y-117525000D01*
X95320000Y-122875000D02*
X96590000Y-122875000D01*
X96590000Y-122875000D02*
X96590000Y-124145000D01*
X96590000Y-122875000D02*
X96590000Y-121605000D01*
%TO.C,J6*%
X108112500Y-62575000D02*
X92612500Y-62575000D01*
X92612500Y-62575000D02*
X92612500Y-79775000D01*
X106072500Y-79775000D02*
X108112500Y-79775000D01*
X108112500Y-79775000D02*
X108112500Y-62575000D01*
X98872500Y-79775000D02*
X101852500Y-79775000D01*
X92612500Y-79775000D02*
X94652500Y-79775000D01*
D10*
X92162500Y-77925000D02*
G75*
G03*
X92162500Y-77925000I-100000J0D01*
G01*
D16*
%TO.C,SW1*%
X107300000Y-114150000D02*
X107300000Y-112600000D01*
X107300000Y-107550000D02*
X94450000Y-107550000D01*
X94450000Y-112600000D02*
X94450000Y-114150000D01*
X94450000Y-114150000D02*
X107300000Y-114150000D01*
X107300000Y-109100000D02*
X107300000Y-107550000D01*
X94450000Y-107550000D02*
X94450000Y-109100000D01*
D10*
X108275000Y-110750000D02*
G75*
G03*
X108275000Y-110750000I-100000J0D01*
G01*
D15*
%TO.C,J5*%
X118880000Y-86145000D02*
X116220000Y-86145000D01*
X118880000Y-83545000D02*
X117550000Y-83545000D01*
X118880000Y-91285000D02*
X116220000Y-91285000D01*
X118880000Y-86145000D02*
X118880000Y-91285000D01*
X116220000Y-86145000D02*
X116220000Y-91285000D01*
X118880000Y-84875000D02*
X118880000Y-83545000D01*
%TO.C,J2*%
X116395000Y-76730000D02*
X116395000Y-69050000D01*
X116395000Y-76730000D02*
X119055000Y-76730000D01*
X116395000Y-79330000D02*
X117725000Y-79330000D01*
X116395000Y-78000000D02*
X116395000Y-79330000D01*
X119055000Y-76730000D02*
X119055000Y-69050000D01*
X116395000Y-69050000D02*
X119055000Y-69050000D01*
%TO.C,J3*%
X118855000Y-118300000D02*
X116195000Y-118300000D01*
X118855000Y-97920000D02*
X116195000Y-97920000D01*
X116195000Y-97920000D02*
X116195000Y-118300000D01*
X118855000Y-96650000D02*
X118855000Y-95320000D01*
X118855000Y-97920000D02*
X118855000Y-118300000D01*
X118855000Y-95320000D02*
X117525000Y-95320000D01*
%TD*%
M02*
