%TF.GenerationSoftware,KiCad,Pcbnew,(6.0.5-0)*%
%TF.CreationDate,2024-03-04T10:57:06-05:00*%
%TF.ProjectId,CubeSat PCB V0.2,43756265-5361-4742-9050-43422056302e,rev?*%
%TF.SameCoordinates,Original*%
%TF.FileFunction,Copper,L1,Top*%
%TF.FilePolarity,Positive*%
%FSLAX46Y46*%
G04 Gerber Fmt 4.6, Leading zero omitted, Abs format (unit mm)*
G04 Created by KiCad (PCBNEW (6.0.5-0)) date 2024-03-04 10:57:06*
%MOMM*%
%LPD*%
G01*
G04 APERTURE LIST*
%TA.AperFunction,ComponentPad*%
%ADD10O,1.600000X1.600000*%
%TD*%
%TA.AperFunction,ComponentPad*%
%ADD11R,1.600000X1.600000*%
%TD*%
%TA.AperFunction,ComponentPad*%
%ADD12R,3.716000X3.716000*%
%TD*%
%TA.AperFunction,ComponentPad*%
%ADD13C,3.716000*%
%TD*%
%TA.AperFunction,ComponentPad*%
%ADD14O,1.200000X2.400000*%
%TD*%
%TA.AperFunction,ComponentPad*%
%ADD15O,1.300000X2.600000*%
%TD*%
%TA.AperFunction,ComponentPad*%
%ADD16R,2.775000X2.775000*%
%TD*%
%TA.AperFunction,ComponentPad*%
%ADD17C,2.775000*%
%TD*%
%TA.AperFunction,ComponentPad*%
%ADD18R,1.700000X1.700000*%
%TD*%
%TA.AperFunction,ComponentPad*%
%ADD19O,1.700000X1.700000*%
%TD*%
%TA.AperFunction,ViaPad*%
%ADD20C,0.800000*%
%TD*%
%TA.AperFunction,Conductor*%
%ADD21C,0.250000*%
%TD*%
%TA.AperFunction,Conductor*%
%ADD22C,1.000000*%
%TD*%
%TA.AperFunction,Conductor*%
%ADD23C,2.000000*%
%TD*%
G04 APERTURE END LIST*
D10*
%TO.P,U1,4,GND*%
%TO.N,GND*%
X104557000Y-85298400D03*
X107097000Y-85273000D03*
D11*
%TO.P,U1,3,Vout*%
%TO.N,+5V*%
X96175000Y-85400000D03*
X93635000Y-85400000D03*
D10*
%TO.P,U1,2,GND*%
%TO.N,GND*%
X107097000Y-104196000D03*
X104557000Y-104221400D03*
D11*
%TO.P,U1,1,Vin*%
%TO.N,+BATT*%
X96302000Y-104196000D03*
X93762000Y-104196000D03*
%TD*%
D12*
%TO.P,J4,1,+*%
%TO.N,+BATT*%
X96800000Y-119375000D03*
D13*
%TO.P,J4,2,-*%
%TO.N,Net-(J4-Pad2)*%
X104000000Y-119375000D03*
D14*
%TO.P,J4,S1*%
%TO.N,N/C*%
X93650000Y-125375000D03*
%TO.P,J4,S2*%
X107150000Y-125375000D03*
%TD*%
D13*
%TO.P,J6,1,-*%
%TO.N,GND*%
X96762500Y-77925000D03*
%TO.P,J6,2,+*%
%TO.N,+BATT*%
X103962500Y-77925000D03*
D15*
%TO.P,J6,S1,SHIELD*%
%TO.N,N/C*%
X93612500Y-71925000D03*
%TO.P,J6,S2,SHIELD*%
X107112500Y-71925000D03*
%TD*%
D16*
%TO.P,SW1,1,A*%
%TO.N,Net-(J4-Pad2)*%
X105575000Y-110850000D03*
D17*
%TO.P,SW1,2,B*%
%TO.N,GND*%
X100875000Y-110850000D03*
%TO.P,SW1,3,C*%
%TO.N,unconnected-(SW1-Pad3)*%
X96175000Y-110850000D03*
%TD*%
D18*
%TO.P,J5,1,Pin_1*%
%TO.N,+5V*%
X117550000Y-84875000D03*
D19*
%TO.P,J5,2,Pin_2*%
%TO.N,/led*%
X117550000Y-87415000D03*
%TO.P,J5,3,Pin_3*%
%TO.N,GND*%
X117550000Y-89955000D03*
%TD*%
%TO.P,J1,40,GPIO21/SCLK1*%
%TO.N,unconnected-(J1-Pad40)*%
X87535000Y-118610000D03*
%TO.P,J1,39,GND*%
%TO.N,GND*%
X90075000Y-118610000D03*
%TO.P,J1,38,GPIO20/MOSI1*%
%TO.N,unconnected-(J1-Pad38)*%
X87535000Y-116070000D03*
%TO.P,J1,37,GPIO26*%
%TO.N,unconnected-(J1-Pad37)*%
X90075000Y-116070000D03*
%TO.P,J1,36,GPIO16*%
%TO.N,unconnected-(J1-Pad36)*%
X87535000Y-113530000D03*
%TO.P,J1,35,GPIO19/MISO1*%
%TO.N,unconnected-(J1-Pad35)*%
X90075000Y-113530000D03*
%TO.P,J1,34,GND*%
%TO.N,GND*%
X87535000Y-110990000D03*
%TO.P,J1,33,PWM1/GPIO13*%
%TO.N,unconnected-(J1-Pad33)*%
X90075000Y-110990000D03*
%TO.P,J1,32,PWM0/GPIO12*%
%TO.N,unconnected-(J1-Pad32)*%
X87535000Y-108450000D03*
%TO.P,J1,31,GCLK2/GPIO6*%
%TO.N,unconnected-(J1-Pad31)*%
X90075000Y-108450000D03*
%TO.P,J1,30,GND*%
%TO.N,GND*%
X87535000Y-105910000D03*
%TO.P,J1,29,GCLK1/GPIO5*%
%TO.N,unconnected-(J1-Pad29)*%
X90075000Y-105910000D03*
%TO.P,J1,28,ID_SC/GPIO1*%
%TO.N,unconnected-(J1-Pad28)*%
X87535000Y-103370000D03*
%TO.P,J1,27,ID_SD/GPIO0*%
%TO.N,unconnected-(J1-Pad27)*%
X90075000Y-103370000D03*
%TO.P,J1,26,~{CE1}/GPIO7*%
%TO.N,unconnected-(J1-Pad26)*%
X87535000Y-100830000D03*
%TO.P,J1,25,GND*%
%TO.N,GND*%
X90075000Y-100830000D03*
%TO.P,J1,24,~{CE0}/GPIO8*%
%TO.N,unconnected-(J1-Pad24)*%
X87535000Y-98290000D03*
%TO.P,J1,23,SCLK0/GPIO11*%
%TO.N,unconnected-(J1-Pad23)*%
X90075000Y-98290000D03*
%TO.P,J1,22,GPIO25*%
%TO.N,unconnected-(J1-Pad22)*%
X87535000Y-95750000D03*
%TO.P,J1,21,MISO0/GPIO9*%
%TO.N,unconnected-(J1-Pad21)*%
X90075000Y-95750000D03*
%TO.P,J1,20,GND*%
%TO.N,GND*%
X87535000Y-93210000D03*
%TO.P,J1,19,MOSI0/GPIO10*%
%TO.N,unconnected-(J1-Pad19)*%
X90075000Y-93210000D03*
%TO.P,J1,18,GPIO24*%
%TO.N,unconnected-(J1-Pad18)*%
X87535000Y-90670000D03*
%TO.P,J1,17,3V3*%
%TO.N,unconnected-(J1-Pad17)*%
X90075000Y-90670000D03*
%TO.P,J1,16,GPIO23*%
%TO.N,unconnected-(J1-Pad16)*%
X87535000Y-88130000D03*
%TO.P,J1,15,GPIO22*%
%TO.N,unconnected-(J1-Pad15)*%
X90075000Y-88130000D03*
%TO.P,J1,14,GND*%
%TO.N,GND*%
X87535000Y-85590000D03*
%TO.P,J1,13,GPIO27*%
%TO.N,unconnected-(J1-Pad13)*%
X90075000Y-85590000D03*
%TO.P,J1,12,GPIO18/PWM0*%
%TO.N,/led*%
X87535000Y-83050000D03*
%TO.P,J1,11,GPIO17*%
%TO.N,unconnected-(J1-Pad11)*%
X90075000Y-83050000D03*
%TO.P,J1,10,GPIO15/RXD*%
%TO.N,unconnected-(J1-Pad10)*%
X87535000Y-80510000D03*
%TO.P,J1,9,GND*%
%TO.N,GND*%
X90075000Y-80510000D03*
%TO.P,J1,8,GPIO14/TXD*%
%TO.N,unconnected-(J1-Pad8)*%
X87535000Y-77970000D03*
%TO.P,J1,7,GCLK0/GPIO4*%
%TO.N,unconnected-(J1-Pad7)*%
X90075000Y-77970000D03*
%TO.P,J1,6,GND*%
%TO.N,GND*%
X87535000Y-75430000D03*
%TO.P,J1,5,SCL/GPIO3*%
%TO.N,/SCL*%
X90075000Y-75430000D03*
%TO.P,J1,4,5V*%
%TO.N,+5V*%
X87535000Y-72890000D03*
%TO.P,J1,3,SDA/GPIO2*%
%TO.N,/SDA*%
X90075000Y-72890000D03*
%TO.P,J1,2,5V*%
%TO.N,+5V*%
X87535000Y-70350000D03*
D18*
%TO.P,J1,1,3V3*%
%TO.N,unconnected-(J1-Pad1)*%
X90075000Y-70350000D03*
%TD*%
%TO.P,J2,1,Pin_1*%
%TO.N,+5V*%
X117725000Y-78000000D03*
D19*
%TO.P,J2,2,Pin_2*%
%TO.N,/SDA*%
X117725000Y-75460000D03*
%TO.P,J2,3,Pin_3*%
%TO.N,/SCL*%
X117725000Y-72920000D03*
%TO.P,J2,4,Pin_4*%
%TO.N,GND*%
X117725000Y-70380000D03*
%TD*%
D18*
%TO.P,J3,1,Pin_1*%
%TO.N,+5V*%
X117525000Y-96650000D03*
D19*
%TO.P,J3,2,Pin_2*%
%TO.N,unconnected-(J3-Pad2)*%
X117525000Y-99190000D03*
%TO.P,J3,3,Pin_3*%
%TO.N,GND*%
X117525000Y-101730000D03*
%TO.P,J3,4,Pin_4*%
%TO.N,/SCL*%
X117525000Y-104270000D03*
%TO.P,J3,5,Pin_5*%
%TO.N,/SDA*%
X117525000Y-106810000D03*
%TO.P,J3,6,Pin_6*%
%TO.N,unconnected-(J3-Pad6)*%
X117525000Y-109350000D03*
%TO.P,J3,7,Pin_7*%
%TO.N,unconnected-(J3-Pad7)*%
X117525000Y-111890000D03*
%TO.P,J3,8,Pin_8*%
%TO.N,unconnected-(J3-Pad8)*%
X117525000Y-114430000D03*
%TO.P,J3,9,Pin_9*%
%TO.N,unconnected-(J3-Pad9)*%
X117525000Y-116970000D03*
%TD*%
D20*
%TO.N,/SCL*%
X113775000Y-98600000D03*
X113775000Y-83600000D03*
%TO.N,+5V*%
X108500000Y-94825000D03*
%TD*%
D21*
%TO.N,+5V*%
X92167500Y-84325000D02*
X93242500Y-85400000D01*
X93242500Y-85400000D02*
X93635000Y-85400000D01*
D22*
X110100000Y-94825000D02*
X112250000Y-92675000D01*
X112250000Y-92675000D02*
X112250000Y-86750000D01*
X112250000Y-86750000D02*
X114125000Y-84875000D01*
X108500000Y-94825000D02*
X110100000Y-94825000D01*
X114125000Y-84875000D02*
X117550000Y-84875000D01*
X108500000Y-94825000D02*
X110325000Y-96650000D01*
X110325000Y-96650000D02*
X117525000Y-96650000D01*
D23*
X96120000Y-85375000D02*
X93580000Y-85375000D01*
D21*
%TO.N,/SCL*%
X113775000Y-98600000D02*
X113775000Y-103650000D01*
X113775000Y-103650000D02*
X114395000Y-104270000D01*
X114395000Y-104270000D02*
X117525000Y-104270000D01*
X113775000Y-83600000D02*
X113775000Y-76870000D01*
X113775000Y-76870000D02*
X116770000Y-73875000D01*
%TO.N,/SDA*%
X90075000Y-72890000D02*
X90075000Y-72750000D01*
X90075000Y-72750000D02*
X93050000Y-69775000D01*
X118250000Y-71650000D02*
X119175000Y-72575000D01*
X119175000Y-72575000D02*
X119175000Y-74010000D01*
X93050000Y-69775000D02*
X114875000Y-69775000D01*
X114875000Y-69775000D02*
X116750000Y-71650000D01*
X116750000Y-71650000D02*
X118250000Y-71650000D01*
X119175000Y-74010000D02*
X117725000Y-75460000D01*
X117725000Y-75460000D02*
X119175000Y-76910000D01*
X119175000Y-76910000D02*
X119175000Y-105160000D01*
X119175000Y-105160000D02*
X117525000Y-106810000D01*
%TO.N,/SCL*%
X90075000Y-75430000D02*
X91630000Y-73875000D01*
X91630000Y-73875000D02*
X116770000Y-73875000D01*
X116770000Y-73875000D02*
X117725000Y-72920000D01*
%TO.N,+5V*%
X92167500Y-84325000D02*
X92167500Y-83017500D01*
X88800000Y-81225000D02*
X88800000Y-71615000D01*
X92167500Y-83017500D02*
X90900000Y-81750000D01*
X89325000Y-81750000D02*
X88800000Y-81225000D01*
X90900000Y-81750000D02*
X89325000Y-81750000D01*
X88800000Y-71615000D02*
X87535000Y-70350000D01*
D22*
X117725000Y-78000000D02*
X117725000Y-84700000D01*
X117725000Y-84700000D02*
X117550000Y-84875000D01*
D21*
X86525000Y-84325000D02*
X92167500Y-84325000D01*
X86185000Y-72890000D02*
X86075000Y-73000000D01*
X87535000Y-72890000D02*
X86185000Y-72890000D01*
X86075000Y-73000000D02*
X86075000Y-83875000D01*
X86075000Y-83875000D02*
X86525000Y-84325000D01*
D23*
%TO.N,Net-(J4-Pad2)*%
X104000000Y-119375000D02*
X104000000Y-115900000D01*
X105575000Y-114325000D02*
X105575000Y-110850000D01*
X104000000Y-115900000D02*
X105575000Y-114325000D01*
%TD*%
%TA.AperFunction,Conductor*%
%TO.N,+BATT*%
G36*
X102070296Y-74631709D02*
G01*
X109846586Y-74698891D01*
X109914531Y-74719481D01*
X109960559Y-74773536D01*
X109971449Y-74828368D01*
X109827223Y-80041653D01*
X109449530Y-93693984D01*
X109427652Y-93761526D01*
X109372731Y-93806517D01*
X109323578Y-93816500D01*
X108557904Y-93816500D01*
X108545171Y-93815855D01*
X108509666Y-93812248D01*
X108509661Y-93812248D01*
X108503538Y-93811626D01*
X108453385Y-93816367D01*
X108451526Y-93816500D01*
X108450231Y-93816500D01*
X108447167Y-93816800D01*
X108447156Y-93816801D01*
X108403469Y-93821085D01*
X108403153Y-93821116D01*
X108306638Y-93830239D01*
X108304935Y-93830747D01*
X108303167Y-93830920D01*
X108210698Y-93858838D01*
X108210277Y-93858965D01*
X108122731Y-93885063D01*
X108122726Y-93885065D01*
X108117104Y-93886741D01*
X108115529Y-93887571D01*
X108113831Y-93888084D01*
X108028164Y-93933634D01*
X108027897Y-93933775D01*
X107942154Y-93978982D01*
X107940775Y-93980099D01*
X107939204Y-93980934D01*
X107863880Y-94042367D01*
X107863630Y-94042569D01*
X107793021Y-94099747D01*
X107793016Y-94099752D01*
X107788453Y-94103447D01*
X107787317Y-94104810D01*
X107785938Y-94105935D01*
X107723905Y-94180920D01*
X107661854Y-94255396D01*
X107661005Y-94256953D01*
X107659870Y-94258325D01*
X107657065Y-94263512D01*
X107657062Y-94263517D01*
X107613631Y-94343839D01*
X107613470Y-94344137D01*
X107567178Y-94429041D01*
X107566646Y-94430737D01*
X107565802Y-94432299D01*
X107564071Y-94437891D01*
X107537157Y-94524837D01*
X107537026Y-94525257D01*
X107508035Y-94617768D01*
X107507843Y-94619536D01*
X107507318Y-94621232D01*
X107497168Y-94717803D01*
X107486676Y-94814388D01*
X107486831Y-94816157D01*
X107486645Y-94817925D01*
X107495445Y-94914625D01*
X107503913Y-95011413D01*
X107504409Y-95013121D01*
X107504570Y-95014888D01*
X107532000Y-95108087D01*
X107559091Y-95201336D01*
X107559907Y-95202911D01*
X107560410Y-95204619D01*
X107605467Y-95290805D01*
X107650108Y-95376926D01*
X107651216Y-95378314D01*
X107652040Y-95379890D01*
X107712875Y-95455553D01*
X107746738Y-95497973D01*
X107747661Y-95498896D01*
X107748862Y-95500312D01*
X107775968Y-95534025D01*
X107780696Y-95537992D01*
X107814154Y-95566067D01*
X107822258Y-95573493D01*
X109316770Y-97068004D01*
X109350795Y-97130316D01*
X109353627Y-97160583D01*
X108638718Y-123002178D01*
X108616840Y-123069720D01*
X108561919Y-123114711D01*
X108512766Y-123124694D01*
X100518971Y-123124703D01*
X92259983Y-123124712D01*
X92191862Y-123104710D01*
X92145369Y-123051054D01*
X92133985Y-122998085D01*
X92142552Y-121277669D01*
X94434001Y-121277669D01*
X94434371Y-121284490D01*
X94439895Y-121335352D01*
X94443521Y-121350604D01*
X94488676Y-121471054D01*
X94497214Y-121486649D01*
X94573715Y-121588724D01*
X94586276Y-121601285D01*
X94688351Y-121677786D01*
X94703946Y-121686324D01*
X94824394Y-121731478D01*
X94839649Y-121735105D01*
X94890514Y-121740631D01*
X94897328Y-121741000D01*
X96031885Y-121741000D01*
X96047124Y-121736525D01*
X96048329Y-121735135D01*
X96050000Y-121727452D01*
X96050000Y-121722884D01*
X97550000Y-121722884D01*
X97554475Y-121738123D01*
X97555865Y-121739328D01*
X97563548Y-121740999D01*
X98702669Y-121740999D01*
X98709490Y-121740629D01*
X98760352Y-121735105D01*
X98775604Y-121731479D01*
X98896054Y-121686324D01*
X98911649Y-121677786D01*
X99013724Y-121601285D01*
X99026285Y-121588724D01*
X99102786Y-121486649D01*
X99111324Y-121471054D01*
X99156478Y-121350606D01*
X99160105Y-121335351D01*
X99165631Y-121284486D01*
X99166000Y-121277672D01*
X99166000Y-120143115D01*
X99161525Y-120127876D01*
X99160135Y-120126671D01*
X99152452Y-120125000D01*
X97568115Y-120125000D01*
X97552876Y-120129475D01*
X97551671Y-120130865D01*
X97550000Y-120138548D01*
X97550000Y-121722884D01*
X96050000Y-121722884D01*
X96050000Y-120143115D01*
X96045525Y-120127876D01*
X96044135Y-120126671D01*
X96036452Y-120125000D01*
X94452116Y-120125000D01*
X94436877Y-120129475D01*
X94435672Y-120130865D01*
X94434001Y-120138548D01*
X94434001Y-121277669D01*
X92142552Y-121277669D01*
X92152026Y-119375000D01*
X101628422Y-119375000D01*
X101648711Y-119684553D01*
X101709232Y-119988810D01*
X101710559Y-119992719D01*
X101710560Y-119992723D01*
X101756981Y-120129475D01*
X101808948Y-120282564D01*
X101946153Y-120560789D01*
X102118501Y-120818725D01*
X102323041Y-121051959D01*
X102556275Y-121256499D01*
X102814211Y-121428847D01*
X102817910Y-121430671D01*
X102817915Y-121430674D01*
X102931422Y-121486649D01*
X103092436Y-121566052D01*
X103096341Y-121567377D01*
X103096342Y-121567378D01*
X103382277Y-121664440D01*
X103382281Y-121664441D01*
X103386190Y-121665768D01*
X103390234Y-121666572D01*
X103390240Y-121666574D01*
X103686408Y-121725486D01*
X103686414Y-121725487D01*
X103690447Y-121726289D01*
X103694552Y-121726558D01*
X103694559Y-121726559D01*
X103995881Y-121746308D01*
X104000000Y-121746578D01*
X104004119Y-121746308D01*
X104305441Y-121726559D01*
X104305448Y-121726558D01*
X104309553Y-121726289D01*
X104313586Y-121725487D01*
X104313592Y-121725486D01*
X104609760Y-121666574D01*
X104609766Y-121666572D01*
X104613810Y-121665768D01*
X104617719Y-121664441D01*
X104617723Y-121664440D01*
X104903658Y-121567378D01*
X104903659Y-121567377D01*
X104907564Y-121566052D01*
X105068578Y-121486649D01*
X105182085Y-121430674D01*
X105182090Y-121430671D01*
X105185789Y-121428847D01*
X105443725Y-121256499D01*
X105676959Y-121051959D01*
X105881499Y-120818725D01*
X106053847Y-120560789D01*
X106191052Y-120282564D01*
X106243019Y-120129475D01*
X106289440Y-119992723D01*
X106289441Y-119992719D01*
X106290768Y-119988810D01*
X106351289Y-119684553D01*
X106371578Y-119375000D01*
X106351289Y-119065447D01*
X106290768Y-118761190D01*
X106243562Y-118622124D01*
X106192378Y-118471342D01*
X106192377Y-118471341D01*
X106191052Y-118467436D01*
X106053847Y-118189211D01*
X105881499Y-117931275D01*
X105676959Y-117698041D01*
X105551421Y-117587948D01*
X105513395Y-117527995D01*
X105508500Y-117493217D01*
X105508500Y-116577031D01*
X105528502Y-116508910D01*
X105545405Y-116487936D01*
X106624684Y-115408658D01*
X106627206Y-115406204D01*
X106629820Y-115403732D01*
X106699681Y-115337668D01*
X106747412Y-115275239D01*
X106751554Y-115270107D01*
X106799187Y-115214138D01*
X106799189Y-115214135D01*
X106802470Y-115210280D01*
X106805090Y-115205954D01*
X106805095Y-115205947D01*
X106819491Y-115182176D01*
X106827163Y-115170929D01*
X106847120Y-115144826D01*
X106884247Y-115075584D01*
X106887510Y-115069863D01*
X106925602Y-115006966D01*
X106925603Y-115006965D01*
X106928220Y-115002643D01*
X106940534Y-114972166D01*
X106946303Y-114959850D01*
X106961831Y-114930891D01*
X106987423Y-114856567D01*
X106989718Y-114850429D01*
X107017258Y-114782267D01*
X107017259Y-114782263D01*
X107019155Y-114777571D01*
X107026432Y-114745539D01*
X107030163Y-114732441D01*
X107040862Y-114701369D01*
X107054243Y-114623900D01*
X107055526Y-114617482D01*
X107071815Y-114545786D01*
X107071815Y-114545785D01*
X107072935Y-114540856D01*
X107074999Y-114508047D01*
X107076585Y-114494547D01*
X107082179Y-114462164D01*
X107083500Y-114433075D01*
X107083500Y-114376893D01*
X107083749Y-114368981D01*
X107087860Y-114303642D01*
X107088178Y-114298588D01*
X107084101Y-114257009D01*
X107083500Y-114244713D01*
X107083500Y-112822568D01*
X107103502Y-112754447D01*
X107157158Y-112707954D01*
X107165269Y-112704586D01*
X107181975Y-112698323D01*
X107209205Y-112688115D01*
X107325761Y-112600761D01*
X107413115Y-112484205D01*
X107464245Y-112347816D01*
X107471000Y-112285634D01*
X107471000Y-109414366D01*
X107464245Y-109352184D01*
X107413115Y-109215795D01*
X107325761Y-109099239D01*
X107209205Y-109011885D01*
X107072816Y-108960755D01*
X107010634Y-108954000D01*
X104139366Y-108954000D01*
X104077184Y-108960755D01*
X103940795Y-109011885D01*
X103824239Y-109099239D01*
X103736885Y-109215795D01*
X103685755Y-109352184D01*
X103679000Y-109414366D01*
X103679000Y-112285634D01*
X103685755Y-112347816D01*
X103736885Y-112484205D01*
X103824239Y-112600761D01*
X103940795Y-112688115D01*
X103968025Y-112698323D01*
X103984731Y-112704586D01*
X104041495Y-112747228D01*
X104066194Y-112813790D01*
X104066500Y-112822568D01*
X104066500Y-113647969D01*
X104046498Y-113716090D01*
X104029595Y-113737064D01*
X102950334Y-114816325D01*
X102947812Y-114818779D01*
X102911118Y-114853479D01*
X102875319Y-114887332D01*
X102872252Y-114891344D01*
X102827592Y-114949757D01*
X102823448Y-114954892D01*
X102772530Y-115014720D01*
X102769911Y-115019045D01*
X102769907Y-115019050D01*
X102755509Y-115042824D01*
X102747837Y-115054071D01*
X102727880Y-115080174D01*
X102725490Y-115084632D01*
X102725489Y-115084633D01*
X102690761Y-115149401D01*
X102687496Y-115155126D01*
X102646779Y-115222358D01*
X102644884Y-115227049D01*
X102634473Y-115252817D01*
X102628693Y-115265158D01*
X102613169Y-115294109D01*
X102611523Y-115298890D01*
X102611521Y-115298894D01*
X102587588Y-115368401D01*
X102585278Y-115374579D01*
X102555845Y-115447429D01*
X102554723Y-115452368D01*
X102548568Y-115479460D01*
X102544837Y-115492559D01*
X102534138Y-115523631D01*
X102520757Y-115601100D01*
X102519477Y-115607504D01*
X102502065Y-115684144D01*
X102500001Y-115716953D01*
X102498415Y-115730453D01*
X102492821Y-115762836D01*
X102491500Y-115791925D01*
X102491500Y-115848108D01*
X102491251Y-115856019D01*
X102486822Y-115926413D01*
X102487316Y-115931448D01*
X102490899Y-115967992D01*
X102491500Y-115980288D01*
X102491500Y-117493217D01*
X102471498Y-117561338D01*
X102448580Y-117587947D01*
X102323041Y-117698041D01*
X102118501Y-117931275D01*
X101946153Y-118189211D01*
X101808948Y-118467436D01*
X101807623Y-118471341D01*
X101807622Y-118471342D01*
X101756439Y-118622124D01*
X101709232Y-118761190D01*
X101648711Y-119065447D01*
X101628422Y-119375000D01*
X92152026Y-119375000D01*
X92155851Y-118606885D01*
X94434000Y-118606885D01*
X94438475Y-118622124D01*
X94439865Y-118623329D01*
X94447548Y-118625000D01*
X96031885Y-118625000D01*
X96047124Y-118620525D01*
X96048329Y-118619135D01*
X96050000Y-118611452D01*
X96050000Y-118606885D01*
X97550000Y-118606885D01*
X97554475Y-118622124D01*
X97555865Y-118623329D01*
X97563548Y-118625000D01*
X99147884Y-118625000D01*
X99163123Y-118620525D01*
X99164328Y-118619135D01*
X99165999Y-118611452D01*
X99165999Y-117472331D01*
X99165629Y-117465510D01*
X99160105Y-117414648D01*
X99156479Y-117399396D01*
X99111324Y-117278946D01*
X99102786Y-117263351D01*
X99026285Y-117161276D01*
X99013724Y-117148715D01*
X98911649Y-117072214D01*
X98896054Y-117063676D01*
X98775606Y-117018522D01*
X98760351Y-117014895D01*
X98709486Y-117009369D01*
X98702672Y-117009000D01*
X97568115Y-117009000D01*
X97552876Y-117013475D01*
X97551671Y-117014865D01*
X97550000Y-117022548D01*
X97550000Y-118606885D01*
X96050000Y-118606885D01*
X96050000Y-117027116D01*
X96045525Y-117011877D01*
X96044135Y-117010672D01*
X96036452Y-117009001D01*
X94897331Y-117009001D01*
X94890510Y-117009371D01*
X94839648Y-117014895D01*
X94824396Y-117018521D01*
X94703946Y-117063676D01*
X94688351Y-117072214D01*
X94586276Y-117148715D01*
X94573715Y-117161276D01*
X94497214Y-117263351D01*
X94488676Y-117278946D01*
X94443522Y-117399394D01*
X94439895Y-117414649D01*
X94434369Y-117465514D01*
X94434000Y-117472328D01*
X94434000Y-118606885D01*
X92155851Y-118606885D01*
X92194775Y-110790293D01*
X94275095Y-110790293D01*
X94285636Y-111058588D01*
X94333875Y-111322720D01*
X94418850Y-111577421D01*
X94538865Y-111817608D01*
X94691524Y-112038488D01*
X94873783Y-112235655D01*
X94877237Y-112238467D01*
X95078548Y-112402360D01*
X95078552Y-112402363D01*
X95082005Y-112405174D01*
X95312035Y-112543664D01*
X95316130Y-112545398D01*
X95316132Y-112545399D01*
X95446875Y-112600761D01*
X95559284Y-112648360D01*
X95563577Y-112649498D01*
X95563582Y-112649500D01*
X95688908Y-112682729D01*
X95818818Y-112717174D01*
X96085458Y-112748733D01*
X96353885Y-112742407D01*
X96358279Y-112741676D01*
X96358286Y-112741675D01*
X96614341Y-112699056D01*
X96614345Y-112699055D01*
X96618743Y-112698323D01*
X96874747Y-112617359D01*
X96878758Y-112615433D01*
X96878763Y-112615431D01*
X97112770Y-112503062D01*
X97112771Y-112503061D01*
X97116789Y-112501132D01*
X97120495Y-112498656D01*
X97336332Y-112354439D01*
X97336336Y-112354436D01*
X97340040Y-112351961D01*
X97540045Y-112172821D01*
X97712814Y-111967287D01*
X97854900Y-111739461D01*
X97963467Y-111493888D01*
X98036349Y-111235467D01*
X98037248Y-111228772D01*
X98071665Y-110972537D01*
X98071666Y-110972529D01*
X98072092Y-110969355D01*
X98075843Y-110850000D01*
X98071616Y-110790293D01*
X98975095Y-110790293D01*
X98985636Y-111058588D01*
X99033875Y-111322720D01*
X99118850Y-111577421D01*
X99238865Y-111817608D01*
X99391524Y-112038488D01*
X99573783Y-112235655D01*
X99577237Y-112238467D01*
X99778548Y-112402360D01*
X99778552Y-112402363D01*
X99782005Y-112405174D01*
X100012035Y-112543664D01*
X100016130Y-112545398D01*
X100016132Y-112545399D01*
X100146875Y-112600761D01*
X100259284Y-112648360D01*
X100263577Y-112649498D01*
X100263582Y-112649500D01*
X100388908Y-112682729D01*
X100518818Y-112717174D01*
X100785458Y-112748733D01*
X101053885Y-112742407D01*
X101058279Y-112741676D01*
X101058286Y-112741675D01*
X101314341Y-112699056D01*
X101314345Y-112699055D01*
X101318743Y-112698323D01*
X101574747Y-112617359D01*
X101578758Y-112615433D01*
X101578763Y-112615431D01*
X101812770Y-112503062D01*
X101812771Y-112503061D01*
X101816789Y-112501132D01*
X101820495Y-112498656D01*
X102036332Y-112354439D01*
X102036336Y-112354436D01*
X102040040Y-112351961D01*
X102240045Y-112172821D01*
X102412814Y-111967287D01*
X102554900Y-111739461D01*
X102663467Y-111493888D01*
X102736349Y-111235467D01*
X102737248Y-111228772D01*
X102771665Y-110972537D01*
X102771666Y-110972529D01*
X102772092Y-110969355D01*
X102775843Y-110850000D01*
X102756880Y-110582169D01*
X102700368Y-110319682D01*
X102607435Y-110067776D01*
X102479935Y-109831477D01*
X102320412Y-109615501D01*
X102132050Y-109424157D01*
X102128510Y-109421456D01*
X102128504Y-109421450D01*
X101922147Y-109263963D01*
X101922143Y-109263960D01*
X101918606Y-109261261D01*
X101684340Y-109130066D01*
X101433924Y-109033188D01*
X101429599Y-109032185D01*
X101429594Y-109032184D01*
X101285944Y-108998888D01*
X101172357Y-108972560D01*
X100904857Y-108949392D01*
X100900422Y-108949636D01*
X100900418Y-108949636D01*
X100641204Y-108963901D01*
X100641197Y-108963902D01*
X100636761Y-108964146D01*
X100373419Y-109016528D01*
X100120084Y-109105493D01*
X99881812Y-109229265D01*
X99878197Y-109231848D01*
X99878191Y-109231852D01*
X99666978Y-109382787D01*
X99666974Y-109382790D01*
X99663357Y-109385375D01*
X99469077Y-109570709D01*
X99302850Y-109781568D01*
X99167991Y-110013745D01*
X99166323Y-110017862D01*
X99166320Y-110017869D01*
X99147693Y-110063858D01*
X99067191Y-110262607D01*
X99002462Y-110523190D01*
X98975095Y-110790293D01*
X98071616Y-110790293D01*
X98056880Y-110582169D01*
X98000368Y-110319682D01*
X97907435Y-110067776D01*
X97779935Y-109831477D01*
X97620412Y-109615501D01*
X97432050Y-109424157D01*
X97428510Y-109421456D01*
X97428504Y-109421450D01*
X97222147Y-109263963D01*
X97222143Y-109263960D01*
X97218606Y-109261261D01*
X96984340Y-109130066D01*
X96733924Y-109033188D01*
X96729599Y-109032185D01*
X96729594Y-109032184D01*
X96585944Y-108998888D01*
X96472357Y-108972560D01*
X96204857Y-108949392D01*
X96200422Y-108949636D01*
X96200418Y-108949636D01*
X95941204Y-108963901D01*
X95941197Y-108963902D01*
X95936761Y-108964146D01*
X95673419Y-109016528D01*
X95420084Y-109105493D01*
X95181812Y-109229265D01*
X95178197Y-109231848D01*
X95178191Y-109231852D01*
X94966978Y-109382787D01*
X94966974Y-109382790D01*
X94963357Y-109385375D01*
X94769077Y-109570709D01*
X94602850Y-109781568D01*
X94467991Y-110013745D01*
X94466323Y-110017862D01*
X94466320Y-110017869D01*
X94447693Y-110063858D01*
X94367191Y-110262607D01*
X94302462Y-110523190D01*
X94275095Y-110790293D01*
X92194775Y-110790293D01*
X92221101Y-105503629D01*
X92222783Y-105165855D01*
X92243124Y-105097834D01*
X92297010Y-105051609D01*
X92367333Y-105041855D01*
X92431767Y-105071670D01*
X92466763Y-105122252D01*
X92508676Y-105234054D01*
X92517214Y-105249649D01*
X92593715Y-105351724D01*
X92606276Y-105364285D01*
X92708351Y-105440786D01*
X92723946Y-105449324D01*
X92844394Y-105494478D01*
X92859649Y-105498105D01*
X92910514Y-105503631D01*
X92917328Y-105504000D01*
X92993885Y-105504000D01*
X93009124Y-105499525D01*
X93010329Y-105498135D01*
X93012000Y-105490452D01*
X93012000Y-105485884D01*
X94512000Y-105485884D01*
X94516475Y-105501123D01*
X94517865Y-105502328D01*
X94525548Y-105503999D01*
X94606669Y-105503999D01*
X94613490Y-105503629D01*
X94664352Y-105498105D01*
X94679604Y-105494479D01*
X94800054Y-105449324D01*
X94815649Y-105440786D01*
X94917724Y-105364285D01*
X94930286Y-105351723D01*
X94931174Y-105350538D01*
X94932351Y-105349658D01*
X94936635Y-105345374D01*
X94937253Y-105345992D01*
X94988033Y-105308023D01*
X95058852Y-105302997D01*
X95121145Y-105337057D01*
X95132826Y-105350538D01*
X95133714Y-105351723D01*
X95146276Y-105364285D01*
X95248351Y-105440786D01*
X95263946Y-105449324D01*
X95384394Y-105494478D01*
X95399649Y-105498105D01*
X95450514Y-105503631D01*
X95457328Y-105504000D01*
X95533885Y-105504000D01*
X95549124Y-105499525D01*
X95550329Y-105498135D01*
X95552000Y-105490452D01*
X95552000Y-105485884D01*
X97052000Y-105485884D01*
X97056475Y-105501123D01*
X97057865Y-105502328D01*
X97065548Y-105503999D01*
X97146669Y-105503999D01*
X97153490Y-105503629D01*
X97204352Y-105498105D01*
X97219604Y-105494479D01*
X97340054Y-105449324D01*
X97355649Y-105440786D01*
X97457724Y-105364285D01*
X97470285Y-105351724D01*
X97546786Y-105249649D01*
X97555324Y-105234054D01*
X97600478Y-105113606D01*
X97604105Y-105098351D01*
X97609631Y-105047486D01*
X97610000Y-105040672D01*
X97610000Y-104964115D01*
X97605525Y-104948876D01*
X97604135Y-104947671D01*
X97596452Y-104946000D01*
X97070115Y-104946000D01*
X97054876Y-104950475D01*
X97053671Y-104951865D01*
X97052000Y-104959548D01*
X97052000Y-105485884D01*
X95552000Y-105485884D01*
X95552000Y-104964115D01*
X95547525Y-104948876D01*
X95546135Y-104947671D01*
X95538452Y-104946000D01*
X94530115Y-104946000D01*
X94514876Y-104950475D01*
X94513671Y-104951865D01*
X94512000Y-104959548D01*
X94512000Y-105485884D01*
X93012000Y-105485884D01*
X93012000Y-104221400D01*
X103243502Y-104221400D01*
X103263457Y-104449487D01*
X103322716Y-104670643D01*
X103325039Y-104675624D01*
X103325039Y-104675625D01*
X103417151Y-104873162D01*
X103417154Y-104873167D01*
X103419477Y-104878149D01*
X103471094Y-104951865D01*
X103534106Y-105041855D01*
X103550802Y-105065700D01*
X103712700Y-105227598D01*
X103717208Y-105230755D01*
X103717211Y-105230757D01*
X103721920Y-105234054D01*
X103900251Y-105358923D01*
X103905233Y-105361246D01*
X103905238Y-105361249D01*
X104075808Y-105440786D01*
X104107757Y-105455684D01*
X104113065Y-105457106D01*
X104113067Y-105457107D01*
X104323598Y-105513519D01*
X104323600Y-105513519D01*
X104328913Y-105514943D01*
X104557000Y-105534898D01*
X104785087Y-105514943D01*
X104790400Y-105513519D01*
X104790402Y-105513519D01*
X105000933Y-105457107D01*
X105000935Y-105457106D01*
X105006243Y-105455684D01*
X105038192Y-105440786D01*
X105208762Y-105361249D01*
X105208767Y-105361246D01*
X105213749Y-105358923D01*
X105392080Y-105234054D01*
X105396789Y-105230757D01*
X105396792Y-105230755D01*
X105401300Y-105227598D01*
X105563198Y-105065700D01*
X105579895Y-105041855D01*
X105642906Y-104951865D01*
X105694523Y-104878149D01*
X105696846Y-104873167D01*
X105696849Y-104873162D01*
X105718727Y-104826243D01*
X105765644Y-104772958D01*
X105833921Y-104753497D01*
X105901881Y-104774039D01*
X105947117Y-104826243D01*
X105957151Y-104847762D01*
X105957154Y-104847767D01*
X105959477Y-104852749D01*
X106090802Y-105040300D01*
X106252700Y-105202198D01*
X106257208Y-105205355D01*
X106257211Y-105205357D01*
X106283409Y-105223701D01*
X106440251Y-105333523D01*
X106445233Y-105335846D01*
X106445238Y-105335849D01*
X106642775Y-105427961D01*
X106647757Y-105430284D01*
X106653065Y-105431706D01*
X106653067Y-105431707D01*
X106863598Y-105488119D01*
X106863600Y-105488119D01*
X106868913Y-105489543D01*
X107097000Y-105509498D01*
X107325087Y-105489543D01*
X107330400Y-105488119D01*
X107330402Y-105488119D01*
X107540933Y-105431707D01*
X107540935Y-105431706D01*
X107546243Y-105430284D01*
X107551225Y-105427961D01*
X107748762Y-105335849D01*
X107748767Y-105335846D01*
X107753749Y-105333523D01*
X107910591Y-105223701D01*
X107936789Y-105205357D01*
X107936792Y-105205355D01*
X107941300Y-105202198D01*
X108103198Y-105040300D01*
X108234523Y-104852749D01*
X108236846Y-104847767D01*
X108236849Y-104847762D01*
X108328961Y-104650225D01*
X108328961Y-104650224D01*
X108331284Y-104645243D01*
X108385206Y-104444007D01*
X108389119Y-104429402D01*
X108389119Y-104429400D01*
X108390543Y-104424087D01*
X108410498Y-104196000D01*
X108390543Y-103967913D01*
X108331284Y-103746757D01*
X108248693Y-103569638D01*
X108236849Y-103544238D01*
X108236846Y-103544233D01*
X108234523Y-103539251D01*
X108124142Y-103381611D01*
X108106357Y-103356211D01*
X108106355Y-103356208D01*
X108103198Y-103351700D01*
X107941300Y-103189802D01*
X107936792Y-103186645D01*
X107936789Y-103186643D01*
X107858611Y-103131902D01*
X107753749Y-103058477D01*
X107748767Y-103056154D01*
X107748762Y-103056151D01*
X107551225Y-102964039D01*
X107551224Y-102964039D01*
X107546243Y-102961716D01*
X107540935Y-102960294D01*
X107540933Y-102960293D01*
X107330402Y-102903881D01*
X107330400Y-102903881D01*
X107325087Y-102902457D01*
X107097000Y-102882502D01*
X106868913Y-102902457D01*
X106863600Y-102903881D01*
X106863598Y-102903881D01*
X106653067Y-102960293D01*
X106653065Y-102960294D01*
X106647757Y-102961716D01*
X106642776Y-102964039D01*
X106642775Y-102964039D01*
X106445238Y-103056151D01*
X106445233Y-103056154D01*
X106440251Y-103058477D01*
X106335389Y-103131902D01*
X106257211Y-103186643D01*
X106257208Y-103186645D01*
X106252700Y-103189802D01*
X106090802Y-103351700D01*
X106087645Y-103356208D01*
X106087643Y-103356211D01*
X106069858Y-103381611D01*
X105959477Y-103539251D01*
X105957154Y-103544233D01*
X105957151Y-103544238D01*
X105935273Y-103591157D01*
X105888356Y-103644442D01*
X105820079Y-103663903D01*
X105752119Y-103643361D01*
X105706883Y-103591157D01*
X105696849Y-103569638D01*
X105696846Y-103569633D01*
X105694523Y-103564651D01*
X105621098Y-103459789D01*
X105566357Y-103381611D01*
X105566355Y-103381608D01*
X105563198Y-103377100D01*
X105401300Y-103215202D01*
X105396792Y-103212045D01*
X105396789Y-103212043D01*
X105297258Y-103142351D01*
X105213749Y-103083877D01*
X105208767Y-103081554D01*
X105208762Y-103081551D01*
X105011225Y-102989439D01*
X105011224Y-102989439D01*
X105006243Y-102987116D01*
X105000935Y-102985694D01*
X105000933Y-102985693D01*
X104790402Y-102929281D01*
X104790400Y-102929281D01*
X104785087Y-102927857D01*
X104557000Y-102907902D01*
X104328913Y-102927857D01*
X104323600Y-102929281D01*
X104323598Y-102929281D01*
X104113067Y-102985693D01*
X104113065Y-102985694D01*
X104107757Y-102987116D01*
X104102776Y-102989439D01*
X104102775Y-102989439D01*
X103905238Y-103081551D01*
X103905233Y-103081554D01*
X103900251Y-103083877D01*
X103816742Y-103142351D01*
X103717211Y-103212043D01*
X103717208Y-103212045D01*
X103712700Y-103215202D01*
X103550802Y-103377100D01*
X103547645Y-103381608D01*
X103547643Y-103381611D01*
X103492902Y-103459789D01*
X103419477Y-103564651D01*
X103417154Y-103569633D01*
X103417151Y-103569638D01*
X103407117Y-103591157D01*
X103322716Y-103772157D01*
X103321294Y-103777465D01*
X103321293Y-103777467D01*
X103264881Y-103987998D01*
X103263457Y-103993313D01*
X103243502Y-104221400D01*
X93012000Y-104221400D01*
X93012000Y-103427885D01*
X94512000Y-103427885D01*
X94516475Y-103443124D01*
X94517865Y-103444329D01*
X94525548Y-103446000D01*
X95533885Y-103446000D01*
X95549124Y-103441525D01*
X95550329Y-103440135D01*
X95552000Y-103432452D01*
X95552000Y-103427885D01*
X97052000Y-103427885D01*
X97056475Y-103443124D01*
X97057865Y-103444329D01*
X97065548Y-103446000D01*
X97591884Y-103446000D01*
X97607123Y-103441525D01*
X97608328Y-103440135D01*
X97609999Y-103432452D01*
X97609999Y-103351331D01*
X97609629Y-103344510D01*
X97604105Y-103293648D01*
X97600479Y-103278396D01*
X97555324Y-103157946D01*
X97546786Y-103142351D01*
X97470285Y-103040276D01*
X97457724Y-103027715D01*
X97355649Y-102951214D01*
X97340054Y-102942676D01*
X97219606Y-102897522D01*
X97204351Y-102893895D01*
X97153486Y-102888369D01*
X97146672Y-102888000D01*
X97070115Y-102888000D01*
X97054876Y-102892475D01*
X97053671Y-102893865D01*
X97052000Y-102901548D01*
X97052000Y-103427885D01*
X95552000Y-103427885D01*
X95552000Y-102906116D01*
X95547525Y-102890877D01*
X95546135Y-102889672D01*
X95538452Y-102888001D01*
X95457331Y-102888001D01*
X95450510Y-102888371D01*
X95399648Y-102893895D01*
X95384396Y-102897521D01*
X95263946Y-102942676D01*
X95248351Y-102951214D01*
X95146276Y-103027715D01*
X95133714Y-103040277D01*
X95132826Y-103041462D01*
X95131649Y-103042342D01*
X95127365Y-103046626D01*
X95126747Y-103046008D01*
X95075967Y-103083977D01*
X95005148Y-103089003D01*
X94942855Y-103054943D01*
X94931174Y-103041462D01*
X94930286Y-103040277D01*
X94917724Y-103027715D01*
X94815649Y-102951214D01*
X94800054Y-102942676D01*
X94679606Y-102897522D01*
X94664351Y-102893895D01*
X94613486Y-102888369D01*
X94606672Y-102888000D01*
X94530115Y-102888000D01*
X94514876Y-102892475D01*
X94513671Y-102893865D01*
X94512000Y-102901548D01*
X94512000Y-103427885D01*
X93012000Y-103427885D01*
X93012000Y-102906116D01*
X93007525Y-102890877D01*
X93006135Y-102889672D01*
X92998452Y-102888001D01*
X92917331Y-102888001D01*
X92910510Y-102888371D01*
X92859648Y-102893895D01*
X92844396Y-102897521D01*
X92723946Y-102942676D01*
X92708351Y-102951214D01*
X92606276Y-103027715D01*
X92593715Y-103040276D01*
X92517214Y-103142351D01*
X92508676Y-103157946D01*
X92476558Y-103243619D01*
X92433916Y-103300384D01*
X92367354Y-103325083D01*
X92298005Y-103309875D01*
X92247887Y-103259589D01*
X92232579Y-103198764D01*
X92314752Y-86696866D01*
X92335093Y-86628847D01*
X92388979Y-86582622D01*
X92459302Y-86572868D01*
X92516315Y-86596669D01*
X92588295Y-86650615D01*
X92724684Y-86701745D01*
X92786866Y-86708500D01*
X92842999Y-86708500D01*
X92902540Y-86723456D01*
X92974109Y-86761831D01*
X93203631Y-86840862D01*
X93302978Y-86858022D01*
X93438926Y-86881504D01*
X93438932Y-86881505D01*
X93442836Y-86882179D01*
X93446797Y-86882359D01*
X93446798Y-86882359D01*
X93470506Y-86883436D01*
X93470525Y-86883436D01*
X93471925Y-86883500D01*
X96181001Y-86883500D01*
X96183509Y-86883298D01*
X96183514Y-86883298D01*
X96356924Y-86869346D01*
X96356929Y-86869345D01*
X96361965Y-86868940D01*
X96366873Y-86867734D01*
X96366876Y-86867734D01*
X96592792Y-86812244D01*
X96597706Y-86811037D01*
X96602358Y-86809062D01*
X96602362Y-86809061D01*
X96815672Y-86718516D01*
X96864904Y-86708500D01*
X97023134Y-86708500D01*
X97085316Y-86701745D01*
X97221705Y-86650615D01*
X97338261Y-86563261D01*
X97425615Y-86446705D01*
X97476745Y-86310316D01*
X97483500Y-86248134D01*
X97483500Y-86055767D01*
X97491869Y-86010613D01*
X97570020Y-85807022D01*
X97570021Y-85807018D01*
X97571833Y-85802298D01*
X97572868Y-85797345D01*
X97620440Y-85569631D01*
X97620440Y-85569627D01*
X97621474Y-85564680D01*
X97632486Y-85322183D01*
X97629734Y-85298400D01*
X103243502Y-85298400D01*
X103263457Y-85526487D01*
X103322716Y-85747643D01*
X103325039Y-85752624D01*
X103325039Y-85752625D01*
X103417151Y-85950162D01*
X103417154Y-85950167D01*
X103419477Y-85955149D01*
X103471134Y-86028922D01*
X103533017Y-86117300D01*
X103550802Y-86142700D01*
X103712700Y-86304598D01*
X103717208Y-86307755D01*
X103717211Y-86307757D01*
X103720866Y-86310316D01*
X103900251Y-86435923D01*
X103905233Y-86438246D01*
X103905238Y-86438249D01*
X104102775Y-86530361D01*
X104107757Y-86532684D01*
X104113065Y-86534106D01*
X104113067Y-86534107D01*
X104323598Y-86590519D01*
X104323600Y-86590519D01*
X104328913Y-86591943D01*
X104557000Y-86611898D01*
X104785087Y-86591943D01*
X104790400Y-86590519D01*
X104790402Y-86590519D01*
X105000933Y-86534107D01*
X105000935Y-86534106D01*
X105006243Y-86532684D01*
X105011225Y-86530361D01*
X105208762Y-86438249D01*
X105208767Y-86438246D01*
X105213749Y-86435923D01*
X105393134Y-86310316D01*
X105396789Y-86307757D01*
X105396792Y-86307755D01*
X105401300Y-86304598D01*
X105563198Y-86142700D01*
X105580984Y-86117300D01*
X105642866Y-86028922D01*
X105694523Y-85955149D01*
X105696846Y-85950167D01*
X105696849Y-85950162D01*
X105718727Y-85903243D01*
X105765644Y-85849958D01*
X105833921Y-85830497D01*
X105901881Y-85851039D01*
X105947117Y-85903243D01*
X105957151Y-85924762D01*
X105957154Y-85924767D01*
X105959477Y-85929749D01*
X106090802Y-86117300D01*
X106252700Y-86279198D01*
X106257208Y-86282355D01*
X106257211Y-86282357D01*
X106283409Y-86300701D01*
X106440251Y-86410523D01*
X106445233Y-86412846D01*
X106445238Y-86412849D01*
X106642775Y-86504961D01*
X106647757Y-86507284D01*
X106653065Y-86508706D01*
X106653067Y-86508707D01*
X106863598Y-86565119D01*
X106863600Y-86565119D01*
X106868913Y-86566543D01*
X107097000Y-86586498D01*
X107325087Y-86566543D01*
X107330400Y-86565119D01*
X107330402Y-86565119D01*
X107540933Y-86508707D01*
X107540935Y-86508706D01*
X107546243Y-86507284D01*
X107551225Y-86504961D01*
X107748762Y-86412849D01*
X107748767Y-86412846D01*
X107753749Y-86410523D01*
X107910591Y-86300701D01*
X107936789Y-86282357D01*
X107936792Y-86282355D01*
X107941300Y-86279198D01*
X108103198Y-86117300D01*
X108234523Y-85929749D01*
X108236846Y-85924767D01*
X108236849Y-85924762D01*
X108328961Y-85727225D01*
X108328961Y-85727224D01*
X108331284Y-85722243D01*
X108385206Y-85521007D01*
X108389119Y-85506402D01*
X108389119Y-85506400D01*
X108390543Y-85501087D01*
X108410498Y-85273000D01*
X108390543Y-85044913D01*
X108339513Y-84854467D01*
X108332707Y-84829067D01*
X108332706Y-84829065D01*
X108331284Y-84823757D01*
X108248693Y-84646638D01*
X108236849Y-84621238D01*
X108236846Y-84621233D01*
X108234523Y-84616251D01*
X108124142Y-84458611D01*
X108106357Y-84433211D01*
X108106355Y-84433208D01*
X108103198Y-84428700D01*
X107941300Y-84266802D01*
X107936792Y-84263645D01*
X107936789Y-84263643D01*
X107858611Y-84208902D01*
X107753749Y-84135477D01*
X107748767Y-84133154D01*
X107748762Y-84133151D01*
X107551225Y-84041039D01*
X107551224Y-84041039D01*
X107546243Y-84038716D01*
X107540935Y-84037294D01*
X107540933Y-84037293D01*
X107330402Y-83980881D01*
X107330400Y-83980881D01*
X107325087Y-83979457D01*
X107097000Y-83959502D01*
X106868913Y-83979457D01*
X106863600Y-83980881D01*
X106863598Y-83980881D01*
X106653067Y-84037293D01*
X106653065Y-84037294D01*
X106647757Y-84038716D01*
X106642776Y-84041039D01*
X106642775Y-84041039D01*
X106445238Y-84133151D01*
X106445233Y-84133154D01*
X106440251Y-84135477D01*
X106335389Y-84208902D01*
X106257211Y-84263643D01*
X106257208Y-84263645D01*
X106252700Y-84266802D01*
X106090802Y-84428700D01*
X106087645Y-84433208D01*
X106087643Y-84433211D01*
X106069858Y-84458611D01*
X105959477Y-84616251D01*
X105957154Y-84621233D01*
X105957151Y-84621238D01*
X105935273Y-84668157D01*
X105888356Y-84721442D01*
X105820079Y-84740903D01*
X105752119Y-84720361D01*
X105706883Y-84668157D01*
X105696849Y-84646638D01*
X105696846Y-84646633D01*
X105694523Y-84641651D01*
X105588114Y-84489684D01*
X105566357Y-84458611D01*
X105566355Y-84458608D01*
X105563198Y-84454100D01*
X105401300Y-84292202D01*
X105396792Y-84289045D01*
X105396789Y-84289043D01*
X105314406Y-84231358D01*
X105213749Y-84160877D01*
X105208767Y-84158554D01*
X105208762Y-84158551D01*
X105011225Y-84066439D01*
X105011224Y-84066439D01*
X105006243Y-84064116D01*
X105000935Y-84062694D01*
X105000933Y-84062693D01*
X104790402Y-84006281D01*
X104790400Y-84006281D01*
X104785087Y-84004857D01*
X104557000Y-83984902D01*
X104328913Y-84004857D01*
X104323600Y-84006281D01*
X104323598Y-84006281D01*
X104113067Y-84062693D01*
X104113065Y-84062694D01*
X104107757Y-84064116D01*
X104102776Y-84066439D01*
X104102775Y-84066439D01*
X103905238Y-84158551D01*
X103905233Y-84158554D01*
X103900251Y-84160877D01*
X103799594Y-84231358D01*
X103717211Y-84289043D01*
X103717208Y-84289045D01*
X103712700Y-84292202D01*
X103550802Y-84454100D01*
X103547645Y-84458608D01*
X103547643Y-84458611D01*
X103525886Y-84489684D01*
X103419477Y-84641651D01*
X103417154Y-84646633D01*
X103417151Y-84646638D01*
X103336883Y-84818775D01*
X103322716Y-84849157D01*
X103321294Y-84854465D01*
X103321293Y-84854467D01*
X103264881Y-85064998D01*
X103263457Y-85070313D01*
X103243502Y-85298400D01*
X97629734Y-85298400D01*
X97627429Y-85278475D01*
X97605167Y-85086071D01*
X97605166Y-85086067D01*
X97604585Y-85081044D01*
X97601549Y-85070313D01*
X97557524Y-84914734D01*
X97538490Y-84847468D01*
X97536356Y-84842892D01*
X97536354Y-84842886D01*
X97495305Y-84754857D01*
X97483500Y-84701607D01*
X97483500Y-84551866D01*
X97476745Y-84489684D01*
X97425615Y-84353295D01*
X97338261Y-84236739D01*
X97221705Y-84149385D01*
X97085316Y-84098255D01*
X97023134Y-84091500D01*
X96950251Y-84091500D01*
X96890709Y-84076544D01*
X96871864Y-84066439D01*
X96725891Y-83988169D01*
X96721110Y-83986523D01*
X96721106Y-83986521D01*
X96501158Y-83910787D01*
X96496369Y-83909138D01*
X96397022Y-83891978D01*
X96261074Y-83868496D01*
X96261068Y-83868495D01*
X96257164Y-83867821D01*
X96253203Y-83867641D01*
X96253202Y-83867641D01*
X96229494Y-83866564D01*
X96229475Y-83866564D01*
X96228075Y-83866500D01*
X93518999Y-83866500D01*
X93516491Y-83866702D01*
X93516486Y-83866702D01*
X93343076Y-83880654D01*
X93343071Y-83880655D01*
X93338035Y-83881060D01*
X93333127Y-83882266D01*
X93333124Y-83882266D01*
X93217007Y-83910787D01*
X93102294Y-83938963D01*
X93097642Y-83940938D01*
X93097638Y-83940939D01*
X92976232Y-83992473D01*
X92905711Y-84000677D01*
X92841949Y-83969453D01*
X92805190Y-83908714D01*
X92801000Y-83876489D01*
X92801000Y-83096268D01*
X92801527Y-83085085D01*
X92803202Y-83077592D01*
X92801062Y-83009501D01*
X92801000Y-83005544D01*
X92801000Y-82977644D01*
X92800496Y-82973653D01*
X92799563Y-82961811D01*
X92798423Y-82925536D01*
X92798174Y-82917611D01*
X92795962Y-82909997D01*
X92795961Y-82909992D01*
X92792523Y-82898159D01*
X92788512Y-82878795D01*
X92786967Y-82866564D01*
X92785974Y-82858703D01*
X92783057Y-82851336D01*
X92783056Y-82851331D01*
X92769698Y-82817592D01*
X92765854Y-82806365D01*
X92755730Y-82771522D01*
X92753518Y-82763907D01*
X92743207Y-82746472D01*
X92734512Y-82728724D01*
X92727052Y-82709883D01*
X92701064Y-82674113D01*
X92694548Y-82664193D01*
X92676080Y-82632965D01*
X92676078Y-82632962D01*
X92672042Y-82626138D01*
X92657721Y-82611817D01*
X92644880Y-82596783D01*
X92637631Y-82586806D01*
X92632972Y-82580393D01*
X92598895Y-82552202D01*
X92590116Y-82544212D01*
X92373858Y-82327954D01*
X92339832Y-82265642D01*
X92336955Y-82238232D01*
X92353223Y-78971319D01*
X92358433Y-77925000D01*
X94390922Y-77925000D01*
X94411211Y-78234553D01*
X94412013Y-78238586D01*
X94412014Y-78238592D01*
X94470926Y-78534760D01*
X94471732Y-78538810D01*
X94571448Y-78832564D01*
X94573272Y-78836262D01*
X94653265Y-78998472D01*
X94708653Y-79110789D01*
X94881001Y-79368725D01*
X95085541Y-79601959D01*
X95318775Y-79806499D01*
X95576711Y-79978847D01*
X95580410Y-79980671D01*
X95580415Y-79980674D01*
X95678965Y-80029273D01*
X95854936Y-80116052D01*
X95858841Y-80117377D01*
X95858842Y-80117378D01*
X96144777Y-80214440D01*
X96144781Y-80214441D01*
X96148690Y-80215768D01*
X96152734Y-80216572D01*
X96152740Y-80216574D01*
X96448908Y-80275486D01*
X96448914Y-80275487D01*
X96452947Y-80276289D01*
X96457052Y-80276558D01*
X96457059Y-80276559D01*
X96758381Y-80296308D01*
X96762500Y-80296578D01*
X96766619Y-80296308D01*
X97067941Y-80276559D01*
X97067948Y-80276558D01*
X97072053Y-80276289D01*
X97076086Y-80275487D01*
X97076092Y-80275486D01*
X97372260Y-80216574D01*
X97372266Y-80216572D01*
X97376310Y-80215768D01*
X97380219Y-80214441D01*
X97380223Y-80214440D01*
X97666158Y-80117378D01*
X97666159Y-80117377D01*
X97670064Y-80116052D01*
X97820931Y-80041653D01*
X102912127Y-80041653D01*
X102916181Y-80047069D01*
X103051430Y-80113766D01*
X103059034Y-80116916D01*
X103344913Y-80213959D01*
X103352865Y-80216090D01*
X103648969Y-80274988D01*
X103657127Y-80276062D01*
X103958381Y-80295807D01*
X103966619Y-80295807D01*
X104267873Y-80276062D01*
X104276031Y-80274988D01*
X104572135Y-80216090D01*
X104580087Y-80213959D01*
X104865966Y-80116916D01*
X104873570Y-80113766D01*
X105002677Y-80050097D01*
X105013056Y-80040550D01*
X105010957Y-80034117D01*
X103975312Y-78998472D01*
X103961368Y-78990858D01*
X103959535Y-78990989D01*
X103952920Y-78995240D01*
X102918887Y-80029273D01*
X102912127Y-80041653D01*
X97820931Y-80041653D01*
X97846035Y-80029273D01*
X97944585Y-79980674D01*
X97944590Y-79980671D01*
X97948289Y-79978847D01*
X98206225Y-79806499D01*
X98439459Y-79601959D01*
X98643999Y-79368725D01*
X98816347Y-79110789D01*
X98871736Y-78998472D01*
X98951728Y-78836262D01*
X98953552Y-78832564D01*
X99053268Y-78538810D01*
X99054074Y-78534760D01*
X99112986Y-78238592D01*
X99112987Y-78238586D01*
X99113789Y-78234553D01*
X99133808Y-77929119D01*
X101591693Y-77929119D01*
X101611438Y-78230373D01*
X101612512Y-78238531D01*
X101671410Y-78534635D01*
X101673541Y-78542587D01*
X101770584Y-78828466D01*
X101773734Y-78836070D01*
X101837403Y-78965177D01*
X101846950Y-78975556D01*
X101853383Y-78973457D01*
X102889028Y-77937812D01*
X102895406Y-77926132D01*
X105028358Y-77926132D01*
X105028489Y-77927965D01*
X105032740Y-77934580D01*
X106066773Y-78968613D01*
X106079153Y-78975373D01*
X106084569Y-78971319D01*
X106151266Y-78836070D01*
X106154416Y-78828466D01*
X106251459Y-78542587D01*
X106253590Y-78534635D01*
X106312488Y-78238531D01*
X106313562Y-78230373D01*
X106333307Y-77929119D01*
X106333307Y-77920881D01*
X106313562Y-77619627D01*
X106312488Y-77611469D01*
X106253590Y-77315365D01*
X106251459Y-77307413D01*
X106154416Y-77021534D01*
X106151266Y-77013930D01*
X106087597Y-76884823D01*
X106078050Y-76874444D01*
X106071617Y-76876543D01*
X105035972Y-77912188D01*
X105028358Y-77926132D01*
X102895406Y-77926132D01*
X102896642Y-77923868D01*
X102896511Y-77922035D01*
X102892260Y-77915420D01*
X101858227Y-76881387D01*
X101845847Y-76874627D01*
X101840431Y-76878681D01*
X101773734Y-77013930D01*
X101770584Y-77021534D01*
X101673541Y-77307413D01*
X101671410Y-77315365D01*
X101612512Y-77611469D01*
X101611438Y-77619627D01*
X101591693Y-77920881D01*
X101591693Y-77929119D01*
X99133808Y-77929119D01*
X99134078Y-77925000D01*
X99113789Y-77615447D01*
X99054099Y-77315365D01*
X99054074Y-77315240D01*
X99054072Y-77315234D01*
X99053268Y-77311190D01*
X98953552Y-77017436D01*
X98873329Y-76854760D01*
X98818174Y-76742915D01*
X98818171Y-76742910D01*
X98816347Y-76739211D01*
X98643999Y-76481275D01*
X98439459Y-76248041D01*
X98206225Y-76043501D01*
X97948289Y-75871153D01*
X97944590Y-75869329D01*
X97944585Y-75869326D01*
X97823167Y-75809450D01*
X102911944Y-75809450D01*
X102914043Y-75815883D01*
X103949688Y-76851528D01*
X103963632Y-76859142D01*
X103965465Y-76859011D01*
X103972080Y-76854760D01*
X105006113Y-75820727D01*
X105012873Y-75808347D01*
X105008819Y-75802931D01*
X104873570Y-75736234D01*
X104865966Y-75733084D01*
X104580087Y-75636041D01*
X104572135Y-75633910D01*
X104276031Y-75575012D01*
X104267873Y-75573938D01*
X103966619Y-75554193D01*
X103958381Y-75554193D01*
X103657127Y-75573938D01*
X103648969Y-75575012D01*
X103352865Y-75633910D01*
X103344913Y-75636041D01*
X103059034Y-75733084D01*
X103051430Y-75736234D01*
X102922323Y-75799903D01*
X102911944Y-75809450D01*
X97823167Y-75809450D01*
X97801725Y-75798876D01*
X97670064Y-75733948D01*
X97628648Y-75719889D01*
X97380223Y-75635560D01*
X97380219Y-75635559D01*
X97376310Y-75634232D01*
X97372266Y-75633428D01*
X97372260Y-75633426D01*
X97076092Y-75574514D01*
X97076086Y-75574513D01*
X97072053Y-75573711D01*
X97067948Y-75573442D01*
X97067941Y-75573441D01*
X96766619Y-75553692D01*
X96762500Y-75553422D01*
X96758381Y-75553692D01*
X96457059Y-75573441D01*
X96457052Y-75573442D01*
X96452947Y-75573711D01*
X96448914Y-75574513D01*
X96448908Y-75574514D01*
X96152740Y-75633426D01*
X96152734Y-75633428D01*
X96148690Y-75634232D01*
X96144781Y-75635559D01*
X96144777Y-75635560D01*
X95896352Y-75719889D01*
X95854936Y-75733948D01*
X95723275Y-75798876D01*
X95580415Y-75869326D01*
X95580410Y-75869329D01*
X95576711Y-75871153D01*
X95318775Y-76043501D01*
X95085541Y-76248041D01*
X94881001Y-76481275D01*
X94708653Y-76739211D01*
X94706829Y-76742910D01*
X94706826Y-76742915D01*
X94651671Y-76854760D01*
X94571448Y-77017436D01*
X94471732Y-77311190D01*
X94470928Y-77315234D01*
X94470926Y-77315240D01*
X94470902Y-77315365D01*
X94411211Y-77615447D01*
X94390922Y-77925000D01*
X92358433Y-77925000D01*
X92374620Y-74674410D01*
X92394961Y-74606390D01*
X92448847Y-74560165D01*
X92501705Y-74549043D01*
X102070296Y-74631709D01*
G37*
%TD.AperFunction*%
%TD*%
M02*
