M48
; DRILL file {KiCad (6.0.5-0)} date Monday, March 04, 2024 at 10:57:08 AM
; FORMAT={-:-/ absolute / metric / decimal}
; #@! TF.CreationDate,2024-03-04T10:57:08-05:00
; #@! TF.GenerationSoftware,Kicad,Pcbnew,(6.0.5-0)
; #@! TF.FileFunction,Plated,1,2,PTH
FMAT,2
METRIC
; #@! TA.AperFunction,Plated,PTH,ViaDrill
T1C0.400
; #@! TA.AperFunction,Plated,PTH,ComponentDrill
T2C0.600
; #@! TA.AperFunction,Plated,PTH,ComponentDrill
T3C0.800
; #@! TA.AperFunction,Plated,PTH,ComponentDrill
T4C1.000
; #@! TA.AperFunction,Plated,PTH,ComponentDrill
T5C1.850
; #@! TA.AperFunction,Plated,PTH,ComponentDrill
T6C2.700
%
G90
G05
T1
X108.5Y-94.825
X113.775Y-83.6
X113.775Y-98.6
T3
X93.635Y-85.4
X93.762Y-104.196
X96.175Y-85.4
X96.302Y-104.196
X104.557Y-85.298
X104.557Y-104.221
X107.097Y-85.273
X107.097Y-104.196
T4
X87.535Y-70.35
X87.535Y-72.89
X87.535Y-75.43
X87.535Y-77.97
X87.535Y-80.51
X87.535Y-83.05
X87.535Y-85.59
X87.535Y-88.13
X87.535Y-90.67
X87.535Y-93.21
X87.535Y-95.75
X87.535Y-98.29
X87.535Y-100.83
X87.535Y-103.37
X87.535Y-105.91
X87.535Y-108.45
X87.535Y-110.99
X87.535Y-113.53
X87.535Y-116.07
X87.535Y-118.61
X90.075Y-70.35
X90.075Y-72.89
X90.075Y-75.43
X90.075Y-77.97
X90.075Y-80.51
X90.075Y-83.05
X90.075Y-85.59
X90.075Y-88.13
X90.075Y-90.67
X90.075Y-93.21
X90.075Y-95.75
X90.075Y-98.29
X90.075Y-100.83
X90.075Y-103.37
X90.075Y-105.91
X90.075Y-108.45
X90.075Y-110.99
X90.075Y-113.53
X90.075Y-116.07
X90.075Y-118.61
X117.525Y-96.65
X117.525Y-99.19
X117.525Y-101.73
X117.525Y-104.27
X117.525Y-106.81
X117.525Y-109.35
X117.525Y-111.89
X117.525Y-114.43
X117.525Y-116.97
X117.55Y-84.875
X117.55Y-87.415
X117.55Y-89.955
X117.725Y-70.38
X117.725Y-72.92
X117.725Y-75.46
X117.725Y-78.0
T5
X96.175Y-110.85
X100.875Y-110.85
X105.575Y-110.85
T6
X96.762Y-77.925
X96.8Y-119.375
X103.962Y-77.925
X104.0Y-119.375
T2
X93.612Y-71.375G85X93.612Y-72.475
G05
X93.65Y-124.825G85X93.65Y-125.925
G05
X107.112Y-71.375G85X107.112Y-72.475
G05
X107.15Y-124.825G85X107.15Y-125.925
G05
T0
M30
