%TF.GenerationSoftware,KiCad,Pcbnew,(6.0.5-0)*%
%TF.CreationDate,2024-03-03T20:53:33-05:00*%
%TF.ProjectId,power_PCB_v0.1,706f7765-725f-4504-9342-5f76302e312e,rev?*%
%TF.SameCoordinates,Original*%
%TF.FileFunction,Legend,Bot*%
%TF.FilePolarity,Positive*%
%FSLAX46Y46*%
G04 Gerber Fmt 4.6, Leading zero omitted, Abs format (unit mm)*
G04 Created by KiCad (PCBNEW (6.0.5-0)) date 2024-03-03 20:53:33*
%MOMM*%
%LPD*%
G01*
G04 APERTURE LIST*
%ADD10C,0.150000*%
%ADD11C,0.010000*%
G04 APERTURE END LIST*
D10*
X130735714Y-99635714D02*
X130678571Y-99464285D01*
X130621428Y-99407142D01*
X130507142Y-99350000D01*
X130335714Y-99350000D01*
X130221428Y-99407142D01*
X130164285Y-99464285D01*
X130107142Y-99578571D01*
X130107142Y-100035714D01*
X131307142Y-100035714D01*
X131307142Y-99635714D01*
X131250000Y-99521428D01*
X131192857Y-99464285D01*
X131078571Y-99407142D01*
X130964285Y-99407142D01*
X130850000Y-99464285D01*
X130792857Y-99521428D01*
X130735714Y-99635714D01*
X130735714Y-100035714D01*
X130907142Y-98950000D02*
X130107142Y-98664285D01*
X130907142Y-98378571D02*
X130107142Y-98664285D01*
X129821428Y-98778571D01*
X129764285Y-98835714D01*
X129707142Y-98950000D01*
X130221428Y-97921428D02*
X130164285Y-97864285D01*
X130107142Y-97921428D01*
X130164285Y-97978571D01*
X130221428Y-97921428D01*
X130107142Y-97921428D01*
X130850000Y-97921428D02*
X130792857Y-97864285D01*
X130735714Y-97921428D01*
X130792857Y-97978571D01*
X130850000Y-97921428D01*
X130735714Y-97921428D01*
X130107142Y-96435714D02*
X131307142Y-96435714D01*
X131307142Y-96150000D01*
X131250000Y-95978571D01*
X131135714Y-95864285D01*
X131021428Y-95807142D01*
X130792857Y-95750000D01*
X130621428Y-95750000D01*
X130392857Y-95807142D01*
X130278571Y-95864285D01*
X130164285Y-95978571D01*
X130107142Y-96150000D01*
X130107142Y-96435714D01*
X130907142Y-95350000D02*
X130107142Y-95064285D01*
X130907142Y-94778571D02*
X130107142Y-95064285D01*
X129821428Y-95178571D01*
X129764285Y-95235714D01*
X129707142Y-95350000D01*
X130107142Y-94150000D02*
X130164285Y-94264285D01*
X130278571Y-94321428D01*
X131307142Y-94321428D01*
X130107142Y-93178571D02*
X130735714Y-93178571D01*
X130850000Y-93235714D01*
X130907142Y-93350000D01*
X130907142Y-93578571D01*
X130850000Y-93692857D01*
X130164285Y-93178571D02*
X130107142Y-93292857D01*
X130107142Y-93578571D01*
X130164285Y-93692857D01*
X130278571Y-93750000D01*
X130392857Y-93750000D01*
X130507142Y-93692857D01*
X130564285Y-93578571D01*
X130564285Y-93292857D01*
X130621428Y-93178571D01*
X130907142Y-92607142D02*
X130107142Y-92607142D01*
X130792857Y-92607142D02*
X130850000Y-92550000D01*
X130907142Y-92435714D01*
X130907142Y-92264285D01*
X130850000Y-92150000D01*
X130735714Y-92092857D01*
X130107142Y-92092857D01*
X130735714Y-90207142D02*
X130678571Y-90035714D01*
X130621428Y-89978571D01*
X130507142Y-89921428D01*
X130335714Y-89921428D01*
X130221428Y-89978571D01*
X130164285Y-90035714D01*
X130107142Y-90150000D01*
X130107142Y-90607142D01*
X131307142Y-90607142D01*
X131307142Y-90207142D01*
X131250000Y-90092857D01*
X131192857Y-90035714D01*
X131078571Y-89978571D01*
X130964285Y-89978571D01*
X130850000Y-90035714D01*
X130792857Y-90092857D01*
X130735714Y-90207142D01*
X130735714Y-90607142D01*
X130107142Y-88892857D02*
X130735714Y-88892857D01*
X130850000Y-88950000D01*
X130907142Y-89064285D01*
X130907142Y-89292857D01*
X130850000Y-89407142D01*
X130164285Y-88892857D02*
X130107142Y-89007142D01*
X130107142Y-89292857D01*
X130164285Y-89407142D01*
X130278571Y-89464285D01*
X130392857Y-89464285D01*
X130507142Y-89407142D01*
X130564285Y-89292857D01*
X130564285Y-89007142D01*
X130621428Y-88892857D01*
X130107142Y-88150000D02*
X130164285Y-88264285D01*
X130278571Y-88321428D01*
X131307142Y-88321428D01*
X130107142Y-87521428D02*
X130164285Y-87635714D01*
X130278571Y-87692857D01*
X131307142Y-87692857D01*
X130107142Y-87064285D02*
X131307142Y-87064285D01*
X130850000Y-87064285D02*
X130907142Y-86950000D01*
X130907142Y-86721428D01*
X130850000Y-86607142D01*
X130792857Y-86550000D01*
X130678571Y-86492857D01*
X130335714Y-86492857D01*
X130221428Y-86550000D01*
X130164285Y-86607142D01*
X130107142Y-86721428D01*
X130107142Y-86950000D01*
X130164285Y-87064285D01*
X130107142Y-85464285D02*
X130735714Y-85464285D01*
X130850000Y-85521428D01*
X130907142Y-85635714D01*
X130907142Y-85864285D01*
X130850000Y-85978571D01*
X130164285Y-85464285D02*
X130107142Y-85578571D01*
X130107142Y-85864285D01*
X130164285Y-85978571D01*
X130278571Y-86035714D01*
X130392857Y-86035714D01*
X130507142Y-85978571D01*
X130564285Y-85864285D01*
X130564285Y-85578571D01*
X130621428Y-85464285D01*
X130164285Y-84378571D02*
X130107142Y-84492857D01*
X130107142Y-84721428D01*
X130164285Y-84835714D01*
X130221428Y-84892857D01*
X130335714Y-84950000D01*
X130678571Y-84950000D01*
X130792857Y-84892857D01*
X130850000Y-84835714D01*
X130907142Y-84721428D01*
X130907142Y-84492857D01*
X130850000Y-84378571D01*
X130107142Y-83864285D02*
X131307142Y-83864285D01*
X130564285Y-83750000D02*
X130107142Y-83407142D01*
X130907142Y-83407142D02*
X130450000Y-83864285D01*
X132442857Y-109354761D02*
X132395238Y-109402380D01*
X132347619Y-109545238D01*
X132347619Y-109640476D01*
X132395238Y-109783333D01*
X132490476Y-109878571D01*
X132585714Y-109926190D01*
X132776190Y-109973809D01*
X132919047Y-109973809D01*
X133109523Y-109926190D01*
X133204761Y-109878571D01*
X133300000Y-109783333D01*
X133347619Y-109640476D01*
X133347619Y-109545238D01*
X133300000Y-109402380D01*
X133252380Y-109354761D01*
X133014285Y-108497619D02*
X132347619Y-108497619D01*
X133014285Y-108926190D02*
X132490476Y-108926190D01*
X132395238Y-108878571D01*
X132347619Y-108783333D01*
X132347619Y-108640476D01*
X132395238Y-108545238D01*
X132442857Y-108497619D01*
X132347619Y-108021428D02*
X133347619Y-108021428D01*
X132966666Y-108021428D02*
X133014285Y-107926190D01*
X133014285Y-107735714D01*
X132966666Y-107640476D01*
X132919047Y-107592857D01*
X132823809Y-107545238D01*
X132538095Y-107545238D01*
X132442857Y-107592857D01*
X132395238Y-107640476D01*
X132347619Y-107735714D01*
X132347619Y-107926190D01*
X132395238Y-108021428D01*
X132395238Y-106735714D02*
X132347619Y-106830952D01*
X132347619Y-107021428D01*
X132395238Y-107116666D01*
X132490476Y-107164285D01*
X132871428Y-107164285D01*
X132966666Y-107116666D01*
X133014285Y-107021428D01*
X133014285Y-106830952D01*
X132966666Y-106735714D01*
X132871428Y-106688095D01*
X132776190Y-106688095D01*
X132680952Y-107164285D01*
X132395238Y-106307142D02*
X132347619Y-106164285D01*
X132347619Y-105926190D01*
X132395238Y-105830952D01*
X132442857Y-105783333D01*
X132538095Y-105735714D01*
X132633333Y-105735714D01*
X132728571Y-105783333D01*
X132776190Y-105830952D01*
X132823809Y-105926190D01*
X132871428Y-106116666D01*
X132919047Y-106211904D01*
X132966666Y-106259523D01*
X133061904Y-106307142D01*
X133157142Y-106307142D01*
X133252380Y-106259523D01*
X133300000Y-106211904D01*
X133347619Y-106116666D01*
X133347619Y-105878571D01*
X133300000Y-105735714D01*
X132347619Y-104878571D02*
X132871428Y-104878571D01*
X132966666Y-104926190D01*
X133014285Y-105021428D01*
X133014285Y-105211904D01*
X132966666Y-105307142D01*
X132395238Y-104878571D02*
X132347619Y-104973809D01*
X132347619Y-105211904D01*
X132395238Y-105307142D01*
X132490476Y-105354761D01*
X132585714Y-105354761D01*
X132680952Y-105307142D01*
X132728571Y-105211904D01*
X132728571Y-104973809D01*
X132776190Y-104878571D01*
X133014285Y-104545238D02*
X133014285Y-104164285D01*
X133347619Y-104402380D02*
X132490476Y-104402380D01*
X132395238Y-104354761D01*
X132347619Y-104259523D01*
X132347619Y-104164285D01*
X132347619Y-103069047D02*
X133347619Y-103069047D01*
X133347619Y-102688095D01*
X133300000Y-102592857D01*
X133252380Y-102545238D01*
X133157142Y-102497619D01*
X133014285Y-102497619D01*
X132919047Y-102545238D01*
X132871428Y-102592857D01*
X132823809Y-102688095D01*
X132823809Y-103069047D01*
X132347619Y-101926190D02*
X132395238Y-102021428D01*
X132442857Y-102069047D01*
X132538095Y-102116666D01*
X132823809Y-102116666D01*
X132919047Y-102069047D01*
X132966666Y-102021428D01*
X133014285Y-101926190D01*
X133014285Y-101783333D01*
X132966666Y-101688095D01*
X132919047Y-101640476D01*
X132823809Y-101592857D01*
X132538095Y-101592857D01*
X132442857Y-101640476D01*
X132395238Y-101688095D01*
X132347619Y-101783333D01*
X132347619Y-101926190D01*
X133014285Y-101259523D02*
X132347619Y-101069047D01*
X132823809Y-100878571D01*
X132347619Y-100688095D01*
X133014285Y-100497619D01*
X132395238Y-99735714D02*
X132347619Y-99830952D01*
X132347619Y-100021428D01*
X132395238Y-100116666D01*
X132490476Y-100164285D01*
X132871428Y-100164285D01*
X132966666Y-100116666D01*
X133014285Y-100021428D01*
X133014285Y-99830952D01*
X132966666Y-99735714D01*
X132871428Y-99688095D01*
X132776190Y-99688095D01*
X132680952Y-100164285D01*
X132347619Y-99259523D02*
X133014285Y-99259523D01*
X132823809Y-99259523D02*
X132919047Y-99211904D01*
X132966666Y-99164285D01*
X133014285Y-99069047D01*
X133014285Y-98973809D01*
X132347619Y-97878571D02*
X133347619Y-97878571D01*
X133347619Y-97640476D01*
X133300000Y-97497619D01*
X133204761Y-97402380D01*
X133109523Y-97354761D01*
X132919047Y-97307142D01*
X132776190Y-97307142D01*
X132585714Y-97354761D01*
X132490476Y-97402380D01*
X132395238Y-97497619D01*
X132347619Y-97640476D01*
X132347619Y-97878571D01*
X132347619Y-96878571D02*
X133014285Y-96878571D01*
X133347619Y-96878571D02*
X133300000Y-96926190D01*
X133252380Y-96878571D01*
X133300000Y-96830952D01*
X133347619Y-96878571D01*
X133252380Y-96878571D01*
X132395238Y-96450000D02*
X132347619Y-96354761D01*
X132347619Y-96164285D01*
X132395238Y-96069047D01*
X132490476Y-96021428D01*
X132538095Y-96021428D01*
X132633333Y-96069047D01*
X132680952Y-96164285D01*
X132680952Y-96307142D01*
X132728571Y-96402380D01*
X132823809Y-96450000D01*
X132871428Y-96450000D01*
X132966666Y-96402380D01*
X133014285Y-96307142D01*
X133014285Y-96164285D01*
X132966666Y-96069047D01*
X133014285Y-95735714D02*
X133014285Y-95354761D01*
X133347619Y-95592857D02*
X132490476Y-95592857D01*
X132395238Y-95545238D01*
X132347619Y-95450000D01*
X132347619Y-95354761D01*
X132347619Y-95021428D02*
X133014285Y-95021428D01*
X132823809Y-95021428D02*
X132919047Y-94973809D01*
X132966666Y-94926190D01*
X133014285Y-94830952D01*
X133014285Y-94735714D01*
X132347619Y-94402380D02*
X133014285Y-94402380D01*
X133347619Y-94402380D02*
X133300000Y-94450000D01*
X133252380Y-94402380D01*
X133300000Y-94354761D01*
X133347619Y-94402380D01*
X133252380Y-94402380D01*
X132347619Y-93926190D02*
X133347619Y-93926190D01*
X132966666Y-93926190D02*
X133014285Y-93830952D01*
X133014285Y-93640476D01*
X132966666Y-93545238D01*
X132919047Y-93497619D01*
X132823809Y-93450000D01*
X132538095Y-93450000D01*
X132442857Y-93497619D01*
X132395238Y-93545238D01*
X132347619Y-93640476D01*
X132347619Y-93830952D01*
X132395238Y-93926190D01*
X133014285Y-92592857D02*
X132347619Y-92592857D01*
X133014285Y-93021428D02*
X132490476Y-93021428D01*
X132395238Y-92973809D01*
X132347619Y-92878571D01*
X132347619Y-92735714D01*
X132395238Y-92640476D01*
X132442857Y-92592857D01*
X133014285Y-92259523D02*
X133014285Y-91878571D01*
X133347619Y-92116666D02*
X132490476Y-92116666D01*
X132395238Y-92069047D01*
X132347619Y-91973809D01*
X132347619Y-91878571D01*
X132347619Y-91545238D02*
X133014285Y-91545238D01*
X133347619Y-91545238D02*
X133300000Y-91592857D01*
X133252380Y-91545238D01*
X133300000Y-91497619D01*
X133347619Y-91545238D01*
X133252380Y-91545238D01*
X132347619Y-90926190D02*
X132395238Y-91021428D01*
X132442857Y-91069047D01*
X132538095Y-91116666D01*
X132823809Y-91116666D01*
X132919047Y-91069047D01*
X132966666Y-91021428D01*
X133014285Y-90926190D01*
X133014285Y-90783333D01*
X132966666Y-90688095D01*
X132919047Y-90640476D01*
X132823809Y-90592857D01*
X132538095Y-90592857D01*
X132442857Y-90640476D01*
X132395238Y-90688095D01*
X132347619Y-90783333D01*
X132347619Y-90926190D01*
X133014285Y-90164285D02*
X132347619Y-90164285D01*
X132919047Y-90164285D02*
X132966666Y-90116666D01*
X133014285Y-90021428D01*
X133014285Y-89878571D01*
X132966666Y-89783333D01*
X132871428Y-89735714D01*
X132347619Y-89735714D01*
X132871428Y-88164285D02*
X132823809Y-88021428D01*
X132776190Y-87973809D01*
X132680952Y-87926190D01*
X132538095Y-87926190D01*
X132442857Y-87973809D01*
X132395238Y-88021428D01*
X132347619Y-88116666D01*
X132347619Y-88497619D01*
X133347619Y-88497619D01*
X133347619Y-88164285D01*
X133300000Y-88069047D01*
X133252380Y-88021428D01*
X133157142Y-87973809D01*
X133061904Y-87973809D01*
X132966666Y-88021428D01*
X132919047Y-88069047D01*
X132871428Y-88164285D01*
X132871428Y-88497619D01*
X132347619Y-87354761D02*
X132395238Y-87450000D01*
X132442857Y-87497619D01*
X132538095Y-87545238D01*
X132823809Y-87545238D01*
X132919047Y-87497619D01*
X132966666Y-87450000D01*
X133014285Y-87354761D01*
X133014285Y-87211904D01*
X132966666Y-87116666D01*
X132919047Y-87069047D01*
X132823809Y-87021428D01*
X132538095Y-87021428D01*
X132442857Y-87069047D01*
X132395238Y-87116666D01*
X132347619Y-87211904D01*
X132347619Y-87354761D01*
X132347619Y-86164285D02*
X132871428Y-86164285D01*
X132966666Y-86211904D01*
X133014285Y-86307142D01*
X133014285Y-86497619D01*
X132966666Y-86592857D01*
X132395238Y-86164285D02*
X132347619Y-86259523D01*
X132347619Y-86497619D01*
X132395238Y-86592857D01*
X132490476Y-86640476D01*
X132585714Y-86640476D01*
X132680952Y-86592857D01*
X132728571Y-86497619D01*
X132728571Y-86259523D01*
X132776190Y-86164285D01*
X132347619Y-85688095D02*
X133014285Y-85688095D01*
X132823809Y-85688095D02*
X132919047Y-85640476D01*
X132966666Y-85592857D01*
X133014285Y-85497619D01*
X133014285Y-85402380D01*
X132347619Y-84640476D02*
X133347619Y-84640476D01*
X132395238Y-84640476D02*
X132347619Y-84735714D01*
X132347619Y-84926190D01*
X132395238Y-85021428D01*
X132442857Y-85069047D01*
X132538095Y-85116666D01*
X132823809Y-85116666D01*
X132919047Y-85069047D01*
X132966666Y-85021428D01*
X133014285Y-84926190D01*
X133014285Y-84735714D01*
X132966666Y-84640476D01*
X133347619Y-83545238D02*
X132347619Y-83211904D01*
X133347619Y-82878571D01*
X133347619Y-82354761D02*
X133347619Y-82259523D01*
X133300000Y-82164285D01*
X133252380Y-82116666D01*
X133157142Y-82069047D01*
X132966666Y-82021428D01*
X132728571Y-82021428D01*
X132538095Y-82069047D01*
X132442857Y-82116666D01*
X132395238Y-82164285D01*
X132347619Y-82259523D01*
X132347619Y-82354761D01*
X132395238Y-82450000D01*
X132442857Y-82497619D01*
X132538095Y-82545238D01*
X132728571Y-82592857D01*
X132966666Y-82592857D01*
X133157142Y-82545238D01*
X133252380Y-82497619D01*
X133300000Y-82450000D01*
X133347619Y-82354761D01*
X132442857Y-81592857D02*
X132395238Y-81545238D01*
X132347619Y-81592857D01*
X132395238Y-81640476D01*
X132442857Y-81592857D01*
X132347619Y-81592857D01*
X132347619Y-80592857D02*
X132347619Y-81164285D01*
X132347619Y-80878571D02*
X133347619Y-80878571D01*
X133204761Y-80973809D01*
X133109523Y-81069047D01*
X133061904Y-81164285D01*
X133347619Y-79497619D02*
X133347619Y-78878571D01*
X132966666Y-79211904D01*
X132966666Y-79069047D01*
X132919047Y-78973809D01*
X132871428Y-78926190D01*
X132776190Y-78878571D01*
X132538095Y-78878571D01*
X132442857Y-78926190D01*
X132395238Y-78973809D01*
X132347619Y-79069047D01*
X132347619Y-79354761D01*
X132395238Y-79450000D01*
X132442857Y-79497619D01*
X133395238Y-77735714D02*
X132109523Y-78592857D01*
X133347619Y-77497619D02*
X133347619Y-76878571D01*
X132966666Y-77211904D01*
X132966666Y-77069047D01*
X132919047Y-76973809D01*
X132871428Y-76926190D01*
X132776190Y-76878571D01*
X132538095Y-76878571D01*
X132442857Y-76926190D01*
X132395238Y-76973809D01*
X132347619Y-77069047D01*
X132347619Y-77354761D01*
X132395238Y-77450000D01*
X132442857Y-77497619D01*
X133395238Y-75735714D02*
X132109523Y-76592857D01*
X133252380Y-75450000D02*
X133300000Y-75402380D01*
X133347619Y-75307142D01*
X133347619Y-75069047D01*
X133300000Y-74973809D01*
X133252380Y-74926190D01*
X133157142Y-74878571D01*
X133061904Y-74878571D01*
X132919047Y-74926190D01*
X132347619Y-75497619D01*
X132347619Y-74878571D01*
X133014285Y-74021428D02*
X132347619Y-74021428D01*
X133395238Y-74259523D02*
X132680952Y-74497619D01*
X132680952Y-73878571D01*
%TO.C,G\u002A\u002A\u002A*%
G36*
X148142862Y-76551210D02*
G01*
X148272712Y-76589580D01*
X148369771Y-76680693D01*
X148438709Y-76843969D01*
X148484197Y-77098829D01*
X148510905Y-77464694D01*
X148523505Y-77960983D01*
X148526667Y-78607119D01*
X148526667Y-80292560D01*
X148129292Y-80662613D01*
X147934647Y-80841500D01*
X147778858Y-80979744D01*
X147711582Y-81032666D01*
X147687870Y-80968461D01*
X147655977Y-80799833D01*
X147651214Y-80752463D01*
X147640407Y-80535876D01*
X147630059Y-80190204D01*
X147620796Y-79743357D01*
X147613241Y-79223242D01*
X147608020Y-78657766D01*
X147606246Y-78370820D01*
X147605114Y-77783348D01*
X147611645Y-77337620D01*
X147629750Y-77014092D01*
X147663341Y-76793216D01*
X147716329Y-76655449D01*
X147792627Y-76581243D01*
X147896147Y-76551053D01*
X148030800Y-76545333D01*
X148142862Y-76551210D01*
G37*
D11*
X148142862Y-76551210D02*
X148272712Y-76589580D01*
X148369771Y-76680693D01*
X148438709Y-76843969D01*
X148484197Y-77098829D01*
X148510905Y-77464694D01*
X148523505Y-77960983D01*
X148526667Y-78607119D01*
X148526667Y-80292560D01*
X148129292Y-80662613D01*
X147934647Y-80841500D01*
X147778858Y-80979744D01*
X147711582Y-81032666D01*
X147687870Y-80968461D01*
X147655977Y-80799833D01*
X147651214Y-80752463D01*
X147640407Y-80535876D01*
X147630059Y-80190204D01*
X147620796Y-79743357D01*
X147613241Y-79223242D01*
X147608020Y-78657766D01*
X147606246Y-78370820D01*
X147605114Y-77783348D01*
X147611645Y-77337620D01*
X147629750Y-77014092D01*
X147663341Y-76793216D01*
X147716329Y-76655449D01*
X147792627Y-76581243D01*
X147896147Y-76551053D01*
X148030800Y-76545333D01*
X148142862Y-76551210D01*
G36*
X151352019Y-83298233D02*
G01*
X151782037Y-83450429D01*
X152102647Y-83712217D01*
X152334502Y-84096362D01*
X152367446Y-84176241D01*
X152410182Y-84303804D01*
X152443142Y-84452798D01*
X152467585Y-84644352D01*
X152484765Y-84899594D01*
X152495941Y-85239652D01*
X152502367Y-85685656D01*
X152505302Y-86258734D01*
X152506000Y-86980013D01*
X152505535Y-87702282D01*
X152501882Y-88317378D01*
X152491637Y-88796518D01*
X152471395Y-89156856D01*
X152437752Y-89415547D01*
X152387302Y-89589745D01*
X152316642Y-89696604D01*
X152222366Y-89753278D01*
X152101071Y-89776923D01*
X151949350Y-89784692D01*
X151617000Y-89795666D01*
X151574667Y-87213333D01*
X151570141Y-86955447D01*
X151556500Y-86326377D01*
X151540566Y-85758931D01*
X151523178Y-85274650D01*
X151505171Y-84895074D01*
X151487383Y-84641741D01*
X151470650Y-84536191D01*
X151403409Y-84466325D01*
X151185777Y-84350329D01*
X150919800Y-84281356D01*
X150685157Y-84284896D01*
X150511504Y-84356730D01*
X150302514Y-84506153D01*
X150297967Y-84510736D01*
X150247025Y-84572278D01*
X150207968Y-84654376D01*
X150179224Y-84778283D01*
X150159222Y-84965253D01*
X150146391Y-85236539D01*
X150139158Y-85613396D01*
X150135952Y-86117076D01*
X150135202Y-86768833D01*
X150134345Y-87272173D01*
X150128216Y-87884711D01*
X150112730Y-88363614D01*
X150083900Y-88730126D01*
X150037739Y-89005490D01*
X149970260Y-89210948D01*
X149877477Y-89367743D01*
X149755403Y-89497117D01*
X149600051Y-89620315D01*
X149585073Y-89631129D01*
X149436785Y-89714760D01*
X149252497Y-89764884D01*
X148987867Y-89789265D01*
X148598554Y-89795666D01*
X148448024Y-89795159D01*
X148124928Y-89786161D01*
X147920173Y-89760509D01*
X147796254Y-89711221D01*
X147715670Y-89631318D01*
X147640956Y-89480401D01*
X147595334Y-89242273D01*
X147596517Y-89197816D01*
X147654570Y-88986408D01*
X147815234Y-88844215D01*
X148099613Y-88759432D01*
X148528811Y-88720260D01*
X149161667Y-88695000D01*
X149204000Y-86493666D01*
X149207279Y-86324722D01*
X149220728Y-85687939D01*
X149234387Y-85192864D01*
X149250278Y-84817054D01*
X149270423Y-84538065D01*
X149296846Y-84333451D01*
X149331568Y-84180770D01*
X149376613Y-84057575D01*
X149434002Y-83941423D01*
X149593199Y-83706117D01*
X149939706Y-83426870D01*
X150396259Y-83274894D01*
X150964536Y-83249431D01*
X151352019Y-83298233D01*
G37*
X151352019Y-83298233D02*
X151782037Y-83450429D01*
X152102647Y-83712217D01*
X152334502Y-84096362D01*
X152367446Y-84176241D01*
X152410182Y-84303804D01*
X152443142Y-84452798D01*
X152467585Y-84644352D01*
X152484765Y-84899594D01*
X152495941Y-85239652D01*
X152502367Y-85685656D01*
X152505302Y-86258734D01*
X152506000Y-86980013D01*
X152505535Y-87702282D01*
X152501882Y-88317378D01*
X152491637Y-88796518D01*
X152471395Y-89156856D01*
X152437752Y-89415547D01*
X152387302Y-89589745D01*
X152316642Y-89696604D01*
X152222366Y-89753278D01*
X152101071Y-89776923D01*
X151949350Y-89784692D01*
X151617000Y-89795666D01*
X151574667Y-87213333D01*
X151570141Y-86955447D01*
X151556500Y-86326377D01*
X151540566Y-85758931D01*
X151523178Y-85274650D01*
X151505171Y-84895074D01*
X151487383Y-84641741D01*
X151470650Y-84536191D01*
X151403409Y-84466325D01*
X151185777Y-84350329D01*
X150919800Y-84281356D01*
X150685157Y-84284896D01*
X150511504Y-84356730D01*
X150302514Y-84506153D01*
X150297967Y-84510736D01*
X150247025Y-84572278D01*
X150207968Y-84654376D01*
X150179224Y-84778283D01*
X150159222Y-84965253D01*
X150146391Y-85236539D01*
X150139158Y-85613396D01*
X150135952Y-86117076D01*
X150135202Y-86768833D01*
X150134345Y-87272173D01*
X150128216Y-87884711D01*
X150112730Y-88363614D01*
X150083900Y-88730126D01*
X150037739Y-89005490D01*
X149970260Y-89210948D01*
X149877477Y-89367743D01*
X149755403Y-89497117D01*
X149600051Y-89620315D01*
X149585073Y-89631129D01*
X149436785Y-89714760D01*
X149252497Y-89764884D01*
X148987867Y-89789265D01*
X148598554Y-89795666D01*
X148448024Y-89795159D01*
X148124928Y-89786161D01*
X147920173Y-89760509D01*
X147796254Y-89711221D01*
X147715670Y-89631318D01*
X147640956Y-89480401D01*
X147595334Y-89242273D01*
X147596517Y-89197816D01*
X147654570Y-88986408D01*
X147815234Y-88844215D01*
X148099613Y-88759432D01*
X148528811Y-88720260D01*
X149161667Y-88695000D01*
X149204000Y-86493666D01*
X149207279Y-86324722D01*
X149220728Y-85687939D01*
X149234387Y-85192864D01*
X149250278Y-84817054D01*
X149270423Y-84538065D01*
X149296846Y-84333451D01*
X149331568Y-84180770D01*
X149376613Y-84057575D01*
X149434002Y-83941423D01*
X149593199Y-83706117D01*
X149939706Y-83426870D01*
X150396259Y-83274894D01*
X150964536Y-83249431D01*
X151352019Y-83298233D01*
G36*
X149797849Y-78769328D02*
G01*
X149796431Y-79000455D01*
X149752313Y-79317756D01*
X149667572Y-79696011D01*
X149544285Y-80109999D01*
X149483890Y-80295486D01*
X149377315Y-80680764D01*
X149332490Y-80975301D01*
X149341294Y-81223655D01*
X149353383Y-81465075D01*
X149261916Y-81879833D01*
X149133147Y-82175666D01*
X149124944Y-81921666D01*
X149124597Y-81911585D01*
X149085887Y-81657772D01*
X148971621Y-81528285D01*
X148748441Y-81484382D01*
X148563793Y-81445949D01*
X148434633Y-81359413D01*
X148372268Y-81317977D01*
X148252822Y-81370513D01*
X148054955Y-81541645D01*
X147919157Y-81669280D01*
X147809859Y-81757413D01*
X147780878Y-81740087D01*
X147808568Y-81625333D01*
X147874442Y-81418091D01*
X147982986Y-81164437D01*
X148123252Y-80975098D01*
X148335379Y-80786129D01*
X148412972Y-80718005D01*
X148632477Y-80463246D01*
X148774327Y-80206459D01*
X148791400Y-80159896D01*
X148895191Y-79924464D01*
X148993094Y-79762666D01*
X149050994Y-79680411D01*
X149176219Y-79468666D01*
X149314744Y-79207015D01*
X149408124Y-79032759D01*
X149551455Y-78803180D01*
X149663062Y-78667481D01*
X149664279Y-78666479D01*
X149754490Y-78649596D01*
X149797849Y-78769328D01*
G37*
X149797849Y-78769328D02*
X149796431Y-79000455D01*
X149752313Y-79317756D01*
X149667572Y-79696011D01*
X149544285Y-80109999D01*
X149483890Y-80295486D01*
X149377315Y-80680764D01*
X149332490Y-80975301D01*
X149341294Y-81223655D01*
X149353383Y-81465075D01*
X149261916Y-81879833D01*
X149133147Y-82175666D01*
X149124944Y-81921666D01*
X149124597Y-81911585D01*
X149085887Y-81657772D01*
X148971621Y-81528285D01*
X148748441Y-81484382D01*
X148563793Y-81445949D01*
X148434633Y-81359413D01*
X148372268Y-81317977D01*
X148252822Y-81370513D01*
X148054955Y-81541645D01*
X147919157Y-81669280D01*
X147809859Y-81757413D01*
X147780878Y-81740087D01*
X147808568Y-81625333D01*
X147874442Y-81418091D01*
X147982986Y-81164437D01*
X148123252Y-80975098D01*
X148335379Y-80786129D01*
X148412972Y-80718005D01*
X148632477Y-80463246D01*
X148774327Y-80206459D01*
X148791400Y-80159896D01*
X148895191Y-79924464D01*
X148993094Y-79762666D01*
X149050994Y-79680411D01*
X149176219Y-79468666D01*
X149314744Y-79207015D01*
X149408124Y-79032759D01*
X149551455Y-78803180D01*
X149663062Y-78667481D01*
X149664279Y-78666479D01*
X149754490Y-78649596D01*
X149797849Y-78769328D01*
G36*
X152372953Y-98268381D02*
G01*
X152398797Y-98316266D01*
X152442809Y-98524614D01*
X152477073Y-98860449D01*
X152501667Y-99296120D01*
X152516669Y-99803977D01*
X152522155Y-100356366D01*
X152518202Y-100925638D01*
X152504889Y-101484142D01*
X152482293Y-102004225D01*
X152450490Y-102458238D01*
X152409557Y-102818528D01*
X152359573Y-103057444D01*
X152248637Y-103328574D01*
X151934442Y-103782747D01*
X151506774Y-104143827D01*
X150990172Y-104401198D01*
X150409177Y-104544246D01*
X149788329Y-104562355D01*
X149152169Y-104444907D01*
X148665586Y-104226802D01*
X148222040Y-103873587D01*
X147880881Y-103426503D01*
X147674503Y-102919000D01*
X147660405Y-102806352D01*
X147644074Y-102535128D01*
X147629516Y-102141698D01*
X147617482Y-101652026D01*
X147608726Y-101092076D01*
X147604000Y-100487812D01*
X147603096Y-100248664D01*
X147601802Y-99636537D01*
X147603706Y-99167026D01*
X147610178Y-98820097D01*
X147622592Y-98575716D01*
X147642319Y-98413848D01*
X147670732Y-98314459D01*
X147709202Y-98257514D01*
X147759101Y-98222979D01*
X147888364Y-98166014D01*
X148131574Y-98155707D01*
X148357334Y-98304666D01*
X148406429Y-98360659D01*
X148448585Y-98438725D01*
X148479566Y-98554845D01*
X148501081Y-98730899D01*
X148514839Y-98988765D01*
X148522550Y-99350324D01*
X148525923Y-99837455D01*
X148526667Y-100472038D01*
X148527286Y-100893031D01*
X148533224Y-101511533D01*
X148549206Y-101994684D01*
X148579746Y-102364120D01*
X148629356Y-102641478D01*
X148702550Y-102848393D01*
X148803839Y-103006500D01*
X148937736Y-103137436D01*
X149108755Y-103262837D01*
X149188652Y-103315738D01*
X149371894Y-103425596D01*
X149473767Y-103469333D01*
X149474463Y-103469187D01*
X149491462Y-103381579D01*
X149508454Y-103147346D01*
X149524619Y-102788288D01*
X149539137Y-102326203D01*
X149551186Y-101782891D01*
X149559947Y-101180150D01*
X149563483Y-100857920D01*
X149571768Y-100217891D01*
X149583058Y-99721197D01*
X149601028Y-99349642D01*
X149629352Y-99085032D01*
X149671705Y-98909170D01*
X149731762Y-98803861D01*
X149813197Y-98750909D01*
X149919685Y-98732120D01*
X150054900Y-98729296D01*
X150060248Y-98729268D01*
X150180897Y-98734164D01*
X150275480Y-98762296D01*
X150347168Y-98831925D01*
X150399130Y-98961314D01*
X150434536Y-99168724D01*
X150456556Y-99472418D01*
X150468361Y-99890658D01*
X150473119Y-100441705D01*
X150474000Y-101143822D01*
X150475727Y-101695594D01*
X150481149Y-102239924D01*
X150489725Y-102706569D01*
X150500900Y-103072617D01*
X150514122Y-103315158D01*
X150528836Y-103411280D01*
X150536567Y-103417842D01*
X150664467Y-103418501D01*
X150855530Y-103321642D01*
X151069520Y-103157638D01*
X151266198Y-102956861D01*
X151405326Y-102749682D01*
X151434223Y-102687289D01*
X151482127Y-102558850D01*
X151517794Y-102406441D01*
X151542999Y-102205836D01*
X151559514Y-101932809D01*
X151569115Y-101563133D01*
X151573575Y-101072584D01*
X151574667Y-100436935D01*
X151575154Y-99908036D01*
X151578029Y-99402467D01*
X151585060Y-99025914D01*
X151598002Y-98756272D01*
X151618612Y-98571432D01*
X151648644Y-98449290D01*
X151689855Y-98367737D01*
X151744000Y-98304666D01*
X151908073Y-98185021D01*
X152150637Y-98147060D01*
X152372953Y-98268381D01*
G37*
X152372953Y-98268381D02*
X152398797Y-98316266D01*
X152442809Y-98524614D01*
X152477073Y-98860449D01*
X152501667Y-99296120D01*
X152516669Y-99803977D01*
X152522155Y-100356366D01*
X152518202Y-100925638D01*
X152504889Y-101484142D01*
X152482293Y-102004225D01*
X152450490Y-102458238D01*
X152409557Y-102818528D01*
X152359573Y-103057444D01*
X152248637Y-103328574D01*
X151934442Y-103782747D01*
X151506774Y-104143827D01*
X150990172Y-104401198D01*
X150409177Y-104544246D01*
X149788329Y-104562355D01*
X149152169Y-104444907D01*
X148665586Y-104226802D01*
X148222040Y-103873587D01*
X147880881Y-103426503D01*
X147674503Y-102919000D01*
X147660405Y-102806352D01*
X147644074Y-102535128D01*
X147629516Y-102141698D01*
X147617482Y-101652026D01*
X147608726Y-101092076D01*
X147604000Y-100487812D01*
X147603096Y-100248664D01*
X147601802Y-99636537D01*
X147603706Y-99167026D01*
X147610178Y-98820097D01*
X147622592Y-98575716D01*
X147642319Y-98413848D01*
X147670732Y-98314459D01*
X147709202Y-98257514D01*
X147759101Y-98222979D01*
X147888364Y-98166014D01*
X148131574Y-98155707D01*
X148357334Y-98304666D01*
X148406429Y-98360659D01*
X148448585Y-98438725D01*
X148479566Y-98554845D01*
X148501081Y-98730899D01*
X148514839Y-98988765D01*
X148522550Y-99350324D01*
X148525923Y-99837455D01*
X148526667Y-100472038D01*
X148527286Y-100893031D01*
X148533224Y-101511533D01*
X148549206Y-101994684D01*
X148579746Y-102364120D01*
X148629356Y-102641478D01*
X148702550Y-102848393D01*
X148803839Y-103006500D01*
X148937736Y-103137436D01*
X149108755Y-103262837D01*
X149188652Y-103315738D01*
X149371894Y-103425596D01*
X149473767Y-103469333D01*
X149474463Y-103469187D01*
X149491462Y-103381579D01*
X149508454Y-103147346D01*
X149524619Y-102788288D01*
X149539137Y-102326203D01*
X149551186Y-101782891D01*
X149559947Y-101180150D01*
X149563483Y-100857920D01*
X149571768Y-100217891D01*
X149583058Y-99721197D01*
X149601028Y-99349642D01*
X149629352Y-99085032D01*
X149671705Y-98909170D01*
X149731762Y-98803861D01*
X149813197Y-98750909D01*
X149919685Y-98732120D01*
X150054900Y-98729296D01*
X150060248Y-98729268D01*
X150180897Y-98734164D01*
X150275480Y-98762296D01*
X150347168Y-98831925D01*
X150399130Y-98961314D01*
X150434536Y-99168724D01*
X150456556Y-99472418D01*
X150468361Y-99890658D01*
X150473119Y-100441705D01*
X150474000Y-101143822D01*
X150475727Y-101695594D01*
X150481149Y-102239924D01*
X150489725Y-102706569D01*
X150500900Y-103072617D01*
X150514122Y-103315158D01*
X150528836Y-103411280D01*
X150536567Y-103417842D01*
X150664467Y-103418501D01*
X150855530Y-103321642D01*
X151069520Y-103157638D01*
X151266198Y-102956861D01*
X151405326Y-102749682D01*
X151434223Y-102687289D01*
X151482127Y-102558850D01*
X151517794Y-102406441D01*
X151542999Y-102205836D01*
X151559514Y-101932809D01*
X151569115Y-101563133D01*
X151573575Y-101072584D01*
X151574667Y-100436935D01*
X151575154Y-99908036D01*
X151578029Y-99402467D01*
X151585060Y-99025914D01*
X151598002Y-98756272D01*
X151618612Y-98571432D01*
X151648644Y-98449290D01*
X151689855Y-98367737D01*
X151744000Y-98304666D01*
X151908073Y-98185021D01*
X152150637Y-98147060D01*
X152372953Y-98268381D01*
G36*
X148336159Y-82842829D02*
G01*
X148272667Y-83022333D01*
X148219422Y-83115297D01*
X148195248Y-83064666D01*
X148202467Y-82991408D01*
X148272667Y-82810666D01*
X148296716Y-82776421D01*
X148344176Y-82750213D01*
X148336159Y-82842829D01*
G37*
X148336159Y-82842829D02*
X148272667Y-83022333D01*
X148219422Y-83115297D01*
X148195248Y-83064666D01*
X148202467Y-82991408D01*
X148272667Y-82810666D01*
X148296716Y-82776421D01*
X148344176Y-82750213D01*
X148336159Y-82842829D01*
G36*
X148171264Y-83286884D02*
G01*
X148161171Y-83419208D01*
X148130695Y-83458398D01*
X148110018Y-83368055D01*
X148116005Y-83282181D01*
X148154487Y-83256930D01*
X148171264Y-83286884D01*
G37*
X148171264Y-83286884D02*
X148161171Y-83419208D01*
X148130695Y-83458398D01*
X148110018Y-83368055D01*
X148116005Y-83282181D01*
X148154487Y-83256930D01*
X148171264Y-83286884D01*
G36*
X148067343Y-83593120D02*
G01*
X148071530Y-83610184D01*
X148059171Y-83757693D01*
X148015714Y-84028074D01*
X147946492Y-84390398D01*
X147856841Y-84813731D01*
X147784475Y-85141757D01*
X147385809Y-86982966D01*
X147033392Y-88675870D01*
X146725517Y-90232443D01*
X146460472Y-91664660D01*
X146236550Y-92984498D01*
X146052038Y-94203932D01*
X145905229Y-95334937D01*
X145794412Y-96389488D01*
X145717877Y-97379562D01*
X145673915Y-98317132D01*
X145660816Y-99214175D01*
X145676870Y-100082666D01*
X145677877Y-100111013D01*
X145735505Y-101112120D01*
X145834060Y-101969434D01*
X145978797Y-102704169D01*
X146174972Y-103337537D01*
X146427839Y-103890755D01*
X146742654Y-104385034D01*
X146838551Y-104504450D01*
X147078617Y-104749157D01*
X147307155Y-104924696D01*
X147376319Y-104967408D01*
X147522602Y-105076836D01*
X147561069Y-105140487D01*
X147470999Y-105129876D01*
X147293134Y-105039551D01*
X147073040Y-104897104D01*
X146855160Y-104731378D01*
X146683935Y-104571217D01*
X146587298Y-104456467D01*
X146258623Y-103946678D01*
X145966360Y-103306036D01*
X145720484Y-102563341D01*
X145530971Y-101747396D01*
X145407798Y-100887000D01*
X145362863Y-100321699D01*
X145325842Y-99270677D01*
X145337556Y-98142986D01*
X145398139Y-96992333D01*
X145446788Y-96413423D01*
X145587574Y-95127196D01*
X145777759Y-93740461D01*
X146010439Y-92292184D01*
X146278712Y-90821333D01*
X146575673Y-89366874D01*
X146894421Y-87967774D01*
X147228051Y-86663000D01*
X147259042Y-86548735D01*
X147375777Y-86112594D01*
X147501134Y-85636990D01*
X147627679Y-85150943D01*
X147747977Y-84683471D01*
X147854593Y-84263593D01*
X147940093Y-83920330D01*
X147997041Y-83682700D01*
X148018002Y-83579722D01*
X148018528Y-83575439D01*
X148067343Y-83593120D01*
G37*
X148067343Y-83593120D02*
X148071530Y-83610184D01*
X148059171Y-83757693D01*
X148015714Y-84028074D01*
X147946492Y-84390398D01*
X147856841Y-84813731D01*
X147784475Y-85141757D01*
X147385809Y-86982966D01*
X147033392Y-88675870D01*
X146725517Y-90232443D01*
X146460472Y-91664660D01*
X146236550Y-92984498D01*
X146052038Y-94203932D01*
X145905229Y-95334937D01*
X145794412Y-96389488D01*
X145717877Y-97379562D01*
X145673915Y-98317132D01*
X145660816Y-99214175D01*
X145676870Y-100082666D01*
X145677877Y-100111013D01*
X145735505Y-101112120D01*
X145834060Y-101969434D01*
X145978797Y-102704169D01*
X146174972Y-103337537D01*
X146427839Y-103890755D01*
X146742654Y-104385034D01*
X146838551Y-104504450D01*
X147078617Y-104749157D01*
X147307155Y-104924696D01*
X147376319Y-104967408D01*
X147522602Y-105076836D01*
X147561069Y-105140487D01*
X147470999Y-105129876D01*
X147293134Y-105039551D01*
X147073040Y-104897104D01*
X146855160Y-104731378D01*
X146683935Y-104571217D01*
X146587298Y-104456467D01*
X146258623Y-103946678D01*
X145966360Y-103306036D01*
X145720484Y-102563341D01*
X145530971Y-101747396D01*
X145407798Y-100887000D01*
X145362863Y-100321699D01*
X145325842Y-99270677D01*
X145337556Y-98142986D01*
X145398139Y-96992333D01*
X145446788Y-96413423D01*
X145587574Y-95127196D01*
X145777759Y-93740461D01*
X146010439Y-92292184D01*
X146278712Y-90821333D01*
X146575673Y-89366874D01*
X146894421Y-87967774D01*
X147228051Y-86663000D01*
X147259042Y-86548735D01*
X147375777Y-86112594D01*
X147501134Y-85636990D01*
X147627679Y-85150943D01*
X147747977Y-84683471D01*
X147854593Y-84263593D01*
X147940093Y-83920330D01*
X147997041Y-83682700D01*
X148018002Y-83579722D01*
X148018528Y-83575439D01*
X148067343Y-83593120D01*
G36*
X151258792Y-90681547D02*
G01*
X151659334Y-90815423D01*
X151684974Y-90828987D01*
X151997574Y-91064314D01*
X152262441Y-91378815D01*
X152423001Y-91706481D01*
X152439502Y-91800314D01*
X152461296Y-92062193D01*
X152478731Y-92443268D01*
X152491829Y-92917315D01*
X152500614Y-93458108D01*
X152505109Y-94039420D01*
X152505336Y-94635027D01*
X152501318Y-95218703D01*
X152493078Y-95764224D01*
X152480639Y-96245362D01*
X152464023Y-96635893D01*
X152443254Y-96909592D01*
X152418355Y-97040233D01*
X152370070Y-97106905D01*
X152219728Y-97182569D01*
X151952688Y-97204000D01*
X151574667Y-97204000D01*
X151574667Y-92116303D01*
X151366849Y-91908485D01*
X151178021Y-91769759D01*
X150855001Y-91700666D01*
X150617802Y-91734914D01*
X150343152Y-91908485D01*
X150135334Y-92116303D01*
X150135334Y-94197204D01*
X150134711Y-94633877D01*
X150129212Y-95264551D01*
X150115010Y-95758760D01*
X150088496Y-96137286D01*
X150046065Y-96420913D01*
X149984108Y-96630422D01*
X149899018Y-96786598D01*
X149787188Y-96910223D01*
X149645010Y-97022080D01*
X149591208Y-97058452D01*
X149440552Y-97133261D01*
X149250944Y-97177508D01*
X148978993Y-97198614D01*
X148581304Y-97204000D01*
X148419006Y-97203443D01*
X148085415Y-97194670D01*
X147874684Y-97170872D01*
X147753058Y-97126456D01*
X147686782Y-97055833D01*
X147634669Y-96924047D01*
X147599205Y-96696000D01*
X147608714Y-96532576D01*
X147669619Y-96377454D01*
X147812355Y-96279781D01*
X148066056Y-96222362D01*
X148459855Y-96188000D01*
X149161667Y-96145666D01*
X149204000Y-93902000D01*
X149209760Y-93596702D01*
X149223162Y-92958492D01*
X149239223Y-92458393D01*
X149262508Y-92074265D01*
X149297583Y-91783965D01*
X149349013Y-91565352D01*
X149421363Y-91396283D01*
X149519199Y-91254618D01*
X149647086Y-91118213D01*
X149809590Y-90964928D01*
X149989843Y-90836811D01*
X150369642Y-90696638D01*
X150810760Y-90643418D01*
X151258792Y-90681547D01*
G37*
X151258792Y-90681547D02*
X151659334Y-90815423D01*
X151684974Y-90828987D01*
X151997574Y-91064314D01*
X152262441Y-91378815D01*
X152423001Y-91706481D01*
X152439502Y-91800314D01*
X152461296Y-92062193D01*
X152478731Y-92443268D01*
X152491829Y-92917315D01*
X152500614Y-93458108D01*
X152505109Y-94039420D01*
X152505336Y-94635027D01*
X152501318Y-95218703D01*
X152493078Y-95764224D01*
X152480639Y-96245362D01*
X152464023Y-96635893D01*
X152443254Y-96909592D01*
X152418355Y-97040233D01*
X152370070Y-97106905D01*
X152219728Y-97182569D01*
X151952688Y-97204000D01*
X151574667Y-97204000D01*
X151574667Y-92116303D01*
X151366849Y-91908485D01*
X151178021Y-91769759D01*
X150855001Y-91700666D01*
X150617802Y-91734914D01*
X150343152Y-91908485D01*
X150135334Y-92116303D01*
X150135334Y-94197204D01*
X150134711Y-94633877D01*
X150129212Y-95264551D01*
X150115010Y-95758760D01*
X150088496Y-96137286D01*
X150046065Y-96420913D01*
X149984108Y-96630422D01*
X149899018Y-96786598D01*
X149787188Y-96910223D01*
X149645010Y-97022080D01*
X149591208Y-97058452D01*
X149440552Y-97133261D01*
X149250944Y-97177508D01*
X148978993Y-97198614D01*
X148581304Y-97204000D01*
X148419006Y-97203443D01*
X148085415Y-97194670D01*
X147874684Y-97170872D01*
X147753058Y-97126456D01*
X147686782Y-97055833D01*
X147634669Y-96924047D01*
X147599205Y-96696000D01*
X147608714Y-96532576D01*
X147669619Y-96377454D01*
X147812355Y-96279781D01*
X148066056Y-96222362D01*
X148459855Y-96188000D01*
X149161667Y-96145666D01*
X149204000Y-93902000D01*
X149209760Y-93596702D01*
X149223162Y-92958492D01*
X149239223Y-92458393D01*
X149262508Y-92074265D01*
X149297583Y-91783965D01*
X149349013Y-91565352D01*
X149421363Y-91396283D01*
X149519199Y-91254618D01*
X149647086Y-91118213D01*
X149809590Y-90964928D01*
X149989843Y-90836811D01*
X150369642Y-90696638D01*
X150810760Y-90643418D01*
X151258792Y-90681547D01*
G36*
X151390535Y-81458412D02*
G01*
X151824466Y-81472100D01*
X152129399Y-81504387D01*
X152327676Y-81562496D01*
X152441640Y-81653653D01*
X152493634Y-81785079D01*
X152506000Y-81964000D01*
X152496411Y-82127472D01*
X152450374Y-82261871D01*
X152345704Y-82356159D01*
X152160278Y-82417325D01*
X151871969Y-82452360D01*
X151458655Y-82468255D01*
X150898211Y-82472000D01*
X150625347Y-82470927D01*
X150183658Y-82464383D01*
X149813907Y-82452888D01*
X149548556Y-82437590D01*
X149420069Y-82419640D01*
X149404287Y-82413134D01*
X149337455Y-82356061D01*
X149330045Y-82247011D01*
X149386573Y-82052375D01*
X149511553Y-81738541D01*
X149629606Y-81456000D01*
X150934756Y-81456000D01*
X151390535Y-81458412D01*
G37*
X151390535Y-81458412D02*
X151824466Y-81472100D01*
X152129399Y-81504387D01*
X152327676Y-81562496D01*
X152441640Y-81653653D01*
X152493634Y-81785079D01*
X152506000Y-81964000D01*
X152496411Y-82127472D01*
X152450374Y-82261871D01*
X152345704Y-82356159D01*
X152160278Y-82417325D01*
X151871969Y-82452360D01*
X151458655Y-82468255D01*
X150898211Y-82472000D01*
X150625347Y-82470927D01*
X150183658Y-82464383D01*
X149813907Y-82452888D01*
X149548556Y-82437590D01*
X149420069Y-82419640D01*
X149404287Y-82413134D01*
X149337455Y-82356061D01*
X149330045Y-82247011D01*
X149386573Y-82052375D01*
X149511553Y-81738541D01*
X149629606Y-81456000D01*
X150934756Y-81456000D01*
X151390535Y-81458412D01*
%TD*%
M02*
