%TF.GenerationSoftware,KiCad,Pcbnew,(6.0.5-0)*%
%TF.CreationDate,2024-03-03T20:53:32-05:00*%
%TF.ProjectId,power_PCB_v0.1,706f7765-725f-4504-9342-5f76302e312e,rev?*%
%TF.SameCoordinates,Original*%
%TF.FileFunction,Copper,L1,Top*%
%TF.FilePolarity,Positive*%
%FSLAX46Y46*%
G04 Gerber Fmt 4.6, Leading zero omitted, Abs format (unit mm)*
G04 Created by KiCad (PCBNEW (6.0.5-0)) date 2024-03-03 20:53:32*
%MOMM*%
%LPD*%
G01*
G04 APERTURE LIST*
%TA.AperFunction,ComponentPad*%
%ADD10R,3.716000X3.716000*%
%TD*%
%TA.AperFunction,ComponentPad*%
%ADD11C,3.716000*%
%TD*%
%TA.AperFunction,ComponentPad*%
%ADD12O,2.400000X1.200000*%
%TD*%
%TA.AperFunction,ComponentPad*%
%ADD13C,2.550000*%
%TD*%
%TA.AperFunction,ComponentPad*%
%ADD14R,2.550000X2.550000*%
%TD*%
%TA.AperFunction,ComponentPad*%
%ADD15C,1.508000*%
%TD*%
%TA.AperFunction,ComponentPad*%
%ADD16O,2.600000X1.300000*%
%TD*%
G04 APERTURE END LIST*
D10*
%TO.P,J5,1,+*%
%TO.N,+BATT*%
X136750000Y-76750000D03*
D11*
%TO.P,J5,2,-*%
%TO.N,-BATT*%
X136750000Y-69550000D03*
D12*
%TO.P,J5,S1*%
%TO.N,N/C*%
X142750000Y-79900000D03*
%TO.P,J5,S2*%
X142750000Y-66400000D03*
%TD*%
D13*
%TO.P,J2,N,N*%
%TO.N,-BATT*%
X117450000Y-106144250D03*
D14*
%TO.P,J2,P,P*%
%TO.N,+BATT*%
X122450000Y-106144250D03*
D15*
%TO.P,J2,S1*%
%TO.N,N/C*%
X114450000Y-116144250D03*
%TO.P,J2,S2*%
X125450000Y-116144250D03*
%TD*%
D10*
%TO.P,J4,1,+*%
%TO.N,+BATT*%
X136800000Y-95750000D03*
D11*
%TO.P,J4,2,-*%
%TO.N,-BATT*%
X136800000Y-88550000D03*
D12*
%TO.P,J4,S1*%
%TO.N,N/C*%
X142800000Y-98900000D03*
%TO.P,J4,S2*%
X142800000Y-85400000D03*
%TD*%
D10*
%TO.P,J3,1,+*%
%TO.N,+BATT*%
X136750000Y-114850000D03*
D11*
%TO.P,J3,2,-*%
%TO.N,-BATT*%
X136750000Y-107650000D03*
D12*
%TO.P,J3,S1*%
%TO.N,N/C*%
X142750000Y-118000000D03*
%TO.P,J3,S2*%
X142750000Y-104500000D03*
%TD*%
D11*
%TO.P,J1,1,-*%
%TO.N,-BATT*%
X126150000Y-88537500D03*
%TO.P,J1,2,+*%
%TO.N,+BATT*%
X126150000Y-95737500D03*
D16*
%TO.P,J1,S1,SHIELD*%
%TO.N,N/C*%
X120150000Y-85387500D03*
%TO.P,J1,S2,SHIELD*%
X120150000Y-98887500D03*
%TD*%
D13*
%TO.P,J6,N,N*%
%TO.N,-BATT*%
X122450000Y-78200000D03*
D14*
%TO.P,J6,P,P*%
%TO.N,+BATT*%
X117450000Y-78200000D03*
D15*
%TO.P,J6,S1*%
%TO.N,N/C*%
X125450000Y-68200000D03*
%TO.P,J6,S2*%
X114450000Y-68200000D03*
%TD*%
%TA.AperFunction,Conductor*%
%TO.N,+BATT*%
G36*
X153592236Y-64820002D02*
G01*
X153638729Y-64873658D01*
X153650115Y-64925884D01*
X153697825Y-117215999D01*
X153699885Y-119473885D01*
X153679945Y-119542024D01*
X153626332Y-119588566D01*
X153573885Y-119600000D01*
X110625885Y-119600000D01*
X110557764Y-119579998D01*
X110511271Y-119526342D01*
X110499885Y-119474115D01*
X110499271Y-118800500D01*
X110498535Y-117994376D01*
X141344455Y-117994376D01*
X141363227Y-118172983D01*
X141421103Y-118342993D01*
X141515206Y-118495955D01*
X141520132Y-118500986D01*
X141520135Y-118500989D01*
X141523838Y-118504770D01*
X141640859Y-118624268D01*
X141646784Y-118628087D01*
X141646786Y-118628088D01*
X141785891Y-118717735D01*
X141791817Y-118721554D01*
X141798437Y-118723963D01*
X141798440Y-118723965D01*
X141953961Y-118780570D01*
X141953964Y-118780571D01*
X141960578Y-118782978D01*
X141987121Y-118786331D01*
X142095355Y-118800004D01*
X142095358Y-118800004D01*
X142099283Y-118800500D01*
X143395155Y-118800500D01*
X143528472Y-118785546D01*
X143535847Y-118782978D01*
X143603451Y-118759436D01*
X143698073Y-118726485D01*
X143705965Y-118721554D01*
X143844401Y-118635049D01*
X143850375Y-118631316D01*
X143914365Y-118567771D01*
X143972810Y-118509733D01*
X143972813Y-118509729D01*
X143977807Y-118504770D01*
X144074037Y-118353136D01*
X144084643Y-118323352D01*
X144131919Y-118190586D01*
X144131920Y-118190581D01*
X144134281Y-118183951D01*
X144135114Y-118176965D01*
X144135115Y-118176961D01*
X144154711Y-118012617D01*
X144155545Y-118005624D01*
X144136773Y-117827017D01*
X144078897Y-117657007D01*
X143984794Y-117504045D01*
X143979868Y-117499014D01*
X143979865Y-117499011D01*
X143919024Y-117436883D01*
X143859141Y-117375732D01*
X143842413Y-117364951D01*
X143714109Y-117282265D01*
X143708183Y-117278446D01*
X143701563Y-117276037D01*
X143701560Y-117276035D01*
X143546039Y-117219430D01*
X143546036Y-117219429D01*
X143539422Y-117217022D01*
X143482692Y-117209856D01*
X143404645Y-117199996D01*
X143404642Y-117199996D01*
X143400717Y-117199500D01*
X142104845Y-117199500D01*
X141971528Y-117214454D01*
X141964875Y-117216771D01*
X141964874Y-117216771D01*
X141896549Y-117240564D01*
X141801927Y-117273515D01*
X141795953Y-117277248D01*
X141795951Y-117277249D01*
X141787924Y-117282265D01*
X141649625Y-117368684D01*
X141585635Y-117432229D01*
X141527190Y-117490267D01*
X141527187Y-117490271D01*
X141522193Y-117495230D01*
X141425963Y-117646864D01*
X141423598Y-117653506D01*
X141368081Y-117809414D01*
X141368080Y-117809419D01*
X141365719Y-117816049D01*
X141364886Y-117823035D01*
X141364885Y-117823039D01*
X141349648Y-117950823D01*
X141344455Y-117994376D01*
X110498535Y-117994376D01*
X110496835Y-116130859D01*
X113490975Y-116130859D01*
X113506639Y-116317389D01*
X113558235Y-116497325D01*
X113643797Y-116663812D01*
X113647620Y-116668636D01*
X113647623Y-116668640D01*
X113753539Y-116802271D01*
X113760068Y-116810509D01*
X113764762Y-116814504D01*
X113777805Y-116825604D01*
X113902618Y-116931829D01*
X113907996Y-116934835D01*
X113907998Y-116934836D01*
X113942396Y-116954060D01*
X114066018Y-117023150D01*
X114244043Y-117080994D01*
X114429914Y-117103158D01*
X114436049Y-117102686D01*
X114436051Y-117102686D01*
X114610408Y-117089270D01*
X114610413Y-117089269D01*
X114616549Y-117088797D01*
X114622479Y-117087141D01*
X114622481Y-117087141D01*
X114790913Y-117040114D01*
X114790912Y-117040114D01*
X114796841Y-117038459D01*
X114827148Y-117023150D01*
X114948897Y-116961649D01*
X114963921Y-116954060D01*
X114974169Y-116946054D01*
X115106571Y-116842610D01*
X115106572Y-116842610D01*
X115111427Y-116838816D01*
X115233738Y-116697117D01*
X115326198Y-116534358D01*
X115385283Y-116356741D01*
X115408744Y-116171030D01*
X115409118Y-116144250D01*
X115407805Y-116130859D01*
X124490975Y-116130859D01*
X124506639Y-116317389D01*
X124558235Y-116497325D01*
X124643797Y-116663812D01*
X124647620Y-116668636D01*
X124647623Y-116668640D01*
X124753539Y-116802271D01*
X124760068Y-116810509D01*
X124764762Y-116814504D01*
X124777805Y-116825604D01*
X124902618Y-116931829D01*
X124907996Y-116934835D01*
X124907998Y-116934836D01*
X124942396Y-116954060D01*
X125066018Y-117023150D01*
X125244043Y-117080994D01*
X125429914Y-117103158D01*
X125436049Y-117102686D01*
X125436051Y-117102686D01*
X125610408Y-117089270D01*
X125610413Y-117089269D01*
X125616549Y-117088797D01*
X125622479Y-117087141D01*
X125622481Y-117087141D01*
X125790913Y-117040114D01*
X125790912Y-117040114D01*
X125796841Y-117038459D01*
X125827148Y-117023150D01*
X125948897Y-116961649D01*
X125963921Y-116954060D01*
X125974169Y-116946054D01*
X126106571Y-116842610D01*
X126106572Y-116842610D01*
X126111427Y-116838816D01*
X126185787Y-116752669D01*
X134384001Y-116752669D01*
X134384371Y-116759490D01*
X134389895Y-116810352D01*
X134393521Y-116825604D01*
X134438676Y-116946054D01*
X134447214Y-116961649D01*
X134523715Y-117063724D01*
X134536276Y-117076285D01*
X134638351Y-117152786D01*
X134653946Y-117161324D01*
X134774394Y-117206478D01*
X134789649Y-117210105D01*
X134840514Y-117215631D01*
X134847328Y-117216000D01*
X136477885Y-117216000D01*
X136493124Y-117211525D01*
X136494329Y-117210135D01*
X136496000Y-117202452D01*
X136496000Y-117197884D01*
X137004000Y-117197884D01*
X137008475Y-117213123D01*
X137009865Y-117214328D01*
X137017548Y-117215999D01*
X138652669Y-117215999D01*
X138659490Y-117215629D01*
X138710352Y-117210105D01*
X138725604Y-117206479D01*
X138846054Y-117161324D01*
X138861649Y-117152786D01*
X138963724Y-117076285D01*
X138976285Y-117063724D01*
X139052786Y-116961649D01*
X139061324Y-116946054D01*
X139106478Y-116825606D01*
X139110105Y-116810351D01*
X139115631Y-116759486D01*
X139116000Y-116752672D01*
X139116000Y-115122115D01*
X139111525Y-115106876D01*
X139110135Y-115105671D01*
X139102452Y-115104000D01*
X137022115Y-115104000D01*
X137006876Y-115108475D01*
X137005671Y-115109865D01*
X137004000Y-115117548D01*
X137004000Y-117197884D01*
X136496000Y-117197884D01*
X136496000Y-115122115D01*
X136491525Y-115106876D01*
X136490135Y-115105671D01*
X136482452Y-115104000D01*
X134402116Y-115104000D01*
X134386877Y-115108475D01*
X134385672Y-115109865D01*
X134384001Y-115117548D01*
X134384001Y-116752669D01*
X126185787Y-116752669D01*
X126233738Y-116697117D01*
X126326198Y-116534358D01*
X126385283Y-116356741D01*
X126408744Y-116171030D01*
X126409118Y-116144250D01*
X126390852Y-115957956D01*
X126336749Y-115778759D01*
X126248870Y-115613482D01*
X126244980Y-115608712D01*
X126244977Y-115608708D01*
X126134457Y-115473198D01*
X126134454Y-115473195D01*
X126130562Y-115468423D01*
X125986332Y-115349105D01*
X125821673Y-115260074D01*
X125732265Y-115232398D01*
X125648744Y-115206544D01*
X125648741Y-115206543D01*
X125642857Y-115204722D01*
X125636732Y-115204078D01*
X125636731Y-115204078D01*
X125462824Y-115185799D01*
X125462823Y-115185799D01*
X125456696Y-115185155D01*
X125380143Y-115192122D01*
X125276418Y-115201562D01*
X125276415Y-115201563D01*
X125270279Y-115202121D01*
X125264373Y-115203859D01*
X125264369Y-115203860D01*
X125129075Y-115243679D01*
X125090708Y-115254971D01*
X124924822Y-115341694D01*
X124920022Y-115345554D01*
X124920021Y-115345554D01*
X124910718Y-115353034D01*
X124778940Y-115458986D01*
X124658619Y-115602380D01*
X124655655Y-115607772D01*
X124655652Y-115607776D01*
X124581455Y-115742741D01*
X124568441Y-115766413D01*
X124566580Y-115772280D01*
X124566579Y-115772282D01*
X124562653Y-115784659D01*
X124511841Y-115944838D01*
X124490975Y-116130859D01*
X115407805Y-116130859D01*
X115390852Y-115957956D01*
X115336749Y-115778759D01*
X115248870Y-115613482D01*
X115244980Y-115608712D01*
X115244977Y-115608708D01*
X115134457Y-115473198D01*
X115134454Y-115473195D01*
X115130562Y-115468423D01*
X114986332Y-115349105D01*
X114821673Y-115260074D01*
X114732265Y-115232398D01*
X114648744Y-115206544D01*
X114648741Y-115206543D01*
X114642857Y-115204722D01*
X114636732Y-115204078D01*
X114636731Y-115204078D01*
X114462824Y-115185799D01*
X114462823Y-115185799D01*
X114456696Y-115185155D01*
X114380143Y-115192122D01*
X114276418Y-115201562D01*
X114276415Y-115201563D01*
X114270279Y-115202121D01*
X114264373Y-115203859D01*
X114264369Y-115203860D01*
X114129075Y-115243679D01*
X114090708Y-115254971D01*
X113924822Y-115341694D01*
X113920022Y-115345554D01*
X113920021Y-115345554D01*
X113910718Y-115353034D01*
X113778940Y-115458986D01*
X113658619Y-115602380D01*
X113655655Y-115607772D01*
X113655652Y-115607776D01*
X113581455Y-115742741D01*
X113568441Y-115766413D01*
X113566580Y-115772280D01*
X113566579Y-115772282D01*
X113562653Y-115784659D01*
X113511841Y-115944838D01*
X113490975Y-116130859D01*
X110496835Y-116130859D01*
X110495418Y-114577885D01*
X134384000Y-114577885D01*
X134388475Y-114593124D01*
X134389865Y-114594329D01*
X134397548Y-114596000D01*
X136477885Y-114596000D01*
X136493124Y-114591525D01*
X136494329Y-114590135D01*
X136496000Y-114582452D01*
X136496000Y-114577885D01*
X137004000Y-114577885D01*
X137008475Y-114593124D01*
X137009865Y-114594329D01*
X137017548Y-114596000D01*
X139097884Y-114596000D01*
X139113123Y-114591525D01*
X139114328Y-114590135D01*
X139115999Y-114582452D01*
X139115999Y-112947331D01*
X139115629Y-112940510D01*
X139110105Y-112889648D01*
X139106479Y-112874396D01*
X139061324Y-112753946D01*
X139052786Y-112738351D01*
X138976285Y-112636276D01*
X138963724Y-112623715D01*
X138861649Y-112547214D01*
X138846054Y-112538676D01*
X138725606Y-112493522D01*
X138710351Y-112489895D01*
X138659486Y-112484369D01*
X138652672Y-112484000D01*
X137022115Y-112484000D01*
X137006876Y-112488475D01*
X137005671Y-112489865D01*
X137004000Y-112497548D01*
X137004000Y-114577885D01*
X136496000Y-114577885D01*
X136496000Y-112502116D01*
X136491525Y-112486877D01*
X136490135Y-112485672D01*
X136482452Y-112484001D01*
X134847331Y-112484001D01*
X134840510Y-112484371D01*
X134789648Y-112489895D01*
X134774396Y-112493521D01*
X134653946Y-112538676D01*
X134638351Y-112547214D01*
X134536276Y-112623715D01*
X134523715Y-112636276D01*
X134447214Y-112738351D01*
X134438676Y-112753946D01*
X134393522Y-112874394D01*
X134389895Y-112889649D01*
X134384369Y-112940514D01*
X134384000Y-112947328D01*
X134384000Y-114577885D01*
X110495418Y-114577885D01*
X110487690Y-106108077D01*
X115969885Y-106108077D01*
X115970182Y-106113229D01*
X115970182Y-106113233D01*
X115981684Y-106312703D01*
X115983852Y-106350304D01*
X115984989Y-106355350D01*
X115984990Y-106355356D01*
X115997710Y-106411798D01*
X116037193Y-106586997D01*
X116039135Y-106591779D01*
X116039136Y-106591783D01*
X116078725Y-106689279D01*
X116128476Y-106811800D01*
X116255249Y-107018675D01*
X116414109Y-107202068D01*
X116600787Y-107357051D01*
X116810272Y-107479464D01*
X117036938Y-107566020D01*
X117042004Y-107567051D01*
X117042005Y-107567051D01*
X117100326Y-107578916D01*
X117274696Y-107614392D01*
X117411350Y-107619403D01*
X117511998Y-107623094D01*
X117512002Y-107623094D01*
X117517162Y-107623283D01*
X117522282Y-107622627D01*
X117522284Y-107622627D01*
X117598754Y-107612831D01*
X117757825Y-107592453D01*
X117762774Y-107590968D01*
X117762780Y-107590967D01*
X117985278Y-107524214D01*
X117990221Y-107522731D01*
X117994855Y-107520461D01*
X118110272Y-107463919D01*
X120667001Y-107463919D01*
X120667371Y-107470740D01*
X120672895Y-107521602D01*
X120676521Y-107536854D01*
X120721676Y-107657304D01*
X120730214Y-107672899D01*
X120806715Y-107774974D01*
X120819276Y-107787535D01*
X120921351Y-107864036D01*
X120936946Y-107872574D01*
X121057394Y-107917728D01*
X121072649Y-107921355D01*
X121123514Y-107926881D01*
X121130328Y-107927250D01*
X122177885Y-107927250D01*
X122193124Y-107922775D01*
X122194329Y-107921385D01*
X122196000Y-107913702D01*
X122196000Y-107909134D01*
X122704000Y-107909134D01*
X122708475Y-107924373D01*
X122709865Y-107925578D01*
X122717548Y-107927249D01*
X123769669Y-107927249D01*
X123776490Y-107926879D01*
X123827352Y-107921355D01*
X123842604Y-107917729D01*
X123963054Y-107872574D01*
X123978649Y-107864036D01*
X124080724Y-107787535D01*
X124093285Y-107774974D01*
X124169786Y-107672899D01*
X124178324Y-107657304D01*
X124189162Y-107628393D01*
X134686803Y-107628393D01*
X134702960Y-107908601D01*
X134703785Y-107912806D01*
X134703786Y-107912814D01*
X134714711Y-107968497D01*
X134756996Y-108184024D01*
X134758383Y-108188074D01*
X134758384Y-108188079D01*
X134846522Y-108445509D01*
X134847911Y-108449565D01*
X134974022Y-108700310D01*
X134976448Y-108703839D01*
X134976451Y-108703845D01*
X135085012Y-108861801D01*
X135132997Y-108931620D01*
X135321894Y-109139215D01*
X135325183Y-109141965D01*
X135533925Y-109316501D01*
X135533930Y-109316505D01*
X135537217Y-109319253D01*
X135592424Y-109353884D01*
X135771341Y-109466119D01*
X135771345Y-109466121D01*
X135774981Y-109468402D01*
X136030788Y-109583903D01*
X136034907Y-109585123D01*
X136295790Y-109662401D01*
X136295795Y-109662402D01*
X136299903Y-109663619D01*
X136304137Y-109664267D01*
X136304142Y-109664268D01*
X136548514Y-109701662D01*
X136577347Y-109706074D01*
X136720292Y-109708319D01*
X136853694Y-109710415D01*
X136853700Y-109710415D01*
X136857985Y-109710482D01*
X137136626Y-109676763D01*
X137408112Y-109605540D01*
X137412072Y-109603900D01*
X137412077Y-109603898D01*
X137551600Y-109546105D01*
X137667420Y-109498131D01*
X137718296Y-109468402D01*
X137906054Y-109358685D01*
X137906055Y-109358685D01*
X137909752Y-109356524D01*
X138130624Y-109183338D01*
X138325948Y-108981779D01*
X138328481Y-108978331D01*
X138328485Y-108978326D01*
X138489572Y-108759032D01*
X138492110Y-108755577D01*
X138626036Y-108508916D01*
X138725247Y-108246362D01*
X138787907Y-107972773D01*
X138792494Y-107921385D01*
X138812637Y-107695677D01*
X138812637Y-107695675D01*
X138812857Y-107693211D01*
X138813310Y-107650000D01*
X138810895Y-107614581D01*
X138794512Y-107374254D01*
X138794511Y-107374248D01*
X138794220Y-107369977D01*
X138788923Y-107344396D01*
X138738172Y-107099332D01*
X138737303Y-107095135D01*
X138643612Y-106830561D01*
X138633401Y-106810776D01*
X138516847Y-106584957D01*
X138516847Y-106584956D01*
X138514882Y-106581150D01*
X138504595Y-106566512D01*
X138395859Y-106411798D01*
X138353493Y-106351517D01*
X138162433Y-106145912D01*
X137945237Y-105968139D01*
X137705923Y-105821487D01*
X137683348Y-105811577D01*
X137452853Y-105710397D01*
X137448921Y-105708671D01*
X137429519Y-105703144D01*
X137286419Y-105662381D01*
X137178986Y-105631778D01*
X136973217Y-105602493D01*
X136905365Y-105592836D01*
X136905363Y-105592836D01*
X136901113Y-105592231D01*
X136896824Y-105592209D01*
X136896817Y-105592208D01*
X136624730Y-105590783D01*
X136624723Y-105590783D01*
X136620444Y-105590761D01*
X136616199Y-105591320D01*
X136616197Y-105591320D01*
X136552813Y-105599665D01*
X136342172Y-105627397D01*
X136071446Y-105701459D01*
X135813277Y-105811577D01*
X135704462Y-105876702D01*
X135576123Y-105953511D01*
X135576119Y-105953514D01*
X135572441Y-105955715D01*
X135353395Y-106131204D01*
X135350451Y-106134306D01*
X135350447Y-106134310D01*
X135269228Y-106219897D01*
X135160192Y-106334797D01*
X134996408Y-106562727D01*
X134865073Y-106810776D01*
X134863601Y-106814799D01*
X134863599Y-106814803D01*
X134856354Y-106834602D01*
X134768616Y-107074355D01*
X134767703Y-107078541D01*
X134767703Y-107078542D01*
X134724195Y-107278093D01*
X134708825Y-107348585D01*
X134686803Y-107628393D01*
X124189162Y-107628393D01*
X124223478Y-107536856D01*
X124227105Y-107521601D01*
X124232631Y-107470736D01*
X124233000Y-107463922D01*
X124233000Y-106416365D01*
X124228525Y-106401126D01*
X124227135Y-106399921D01*
X124219452Y-106398250D01*
X122722115Y-106398250D01*
X122706876Y-106402725D01*
X122705671Y-106404115D01*
X122704000Y-106411798D01*
X122704000Y-107909134D01*
X122196000Y-107909134D01*
X122196000Y-106416365D01*
X122191525Y-106401126D01*
X122190135Y-106399921D01*
X122182452Y-106398250D01*
X120685116Y-106398250D01*
X120669877Y-106402725D01*
X120668672Y-106404115D01*
X120667001Y-106411798D01*
X120667001Y-107463919D01*
X118110272Y-107463919D01*
X118203474Y-107418260D01*
X118203477Y-107418258D01*
X118208109Y-107415989D01*
X118231607Y-107399228D01*
X118401433Y-107278093D01*
X118401435Y-107278091D01*
X118405637Y-107275094D01*
X118577501Y-107103828D01*
X118598680Y-107074355D01*
X118635885Y-107022578D01*
X118719085Y-106906793D01*
X118826587Y-106689279D01*
X118866094Y-106559248D01*
X118895616Y-106462080D01*
X118895617Y-106462074D01*
X118897120Y-106457128D01*
X118928789Y-106216575D01*
X118930557Y-106144250D01*
X118915277Y-105958397D01*
X118911100Y-105907588D01*
X118911099Y-105907582D01*
X118910676Y-105902437D01*
X118903065Y-105872135D01*
X120667000Y-105872135D01*
X120671475Y-105887374D01*
X120672865Y-105888579D01*
X120680548Y-105890250D01*
X122177885Y-105890250D01*
X122193124Y-105885775D01*
X122194329Y-105884385D01*
X122196000Y-105876702D01*
X122196000Y-105872135D01*
X122704000Y-105872135D01*
X122708475Y-105887374D01*
X122709865Y-105888579D01*
X122717548Y-105890250D01*
X124214884Y-105890250D01*
X124230123Y-105885775D01*
X124231328Y-105884385D01*
X124232999Y-105876702D01*
X124232999Y-104824581D01*
X124232629Y-104817760D01*
X124227105Y-104766898D01*
X124223479Y-104751646D01*
X124178324Y-104631196D01*
X124169786Y-104615601D01*
X124093285Y-104513526D01*
X124080724Y-104500965D01*
X124071932Y-104494376D01*
X141344455Y-104494376D01*
X141363227Y-104672983D01*
X141365498Y-104679654D01*
X141404358Y-104793804D01*
X141421103Y-104842993D01*
X141424793Y-104848991D01*
X141424794Y-104848993D01*
X141450891Y-104891413D01*
X141515206Y-104995955D01*
X141520132Y-105000986D01*
X141520135Y-105000989D01*
X141576196Y-105058236D01*
X141640859Y-105124268D01*
X141646784Y-105128087D01*
X141646786Y-105128088D01*
X141771977Y-105208768D01*
X141791817Y-105221554D01*
X141798437Y-105223963D01*
X141798440Y-105223965D01*
X141953961Y-105280570D01*
X141953964Y-105280571D01*
X141960578Y-105282978D01*
X141987121Y-105286331D01*
X142095355Y-105300004D01*
X142095358Y-105300004D01*
X142099283Y-105300500D01*
X143395155Y-105300500D01*
X143528472Y-105285546D01*
X143535847Y-105282978D01*
X143656693Y-105240895D01*
X143698073Y-105226485D01*
X143705965Y-105221554D01*
X143844401Y-105135049D01*
X143850375Y-105131316D01*
X143914365Y-105067771D01*
X143972810Y-105009733D01*
X143972813Y-105009729D01*
X143977807Y-105004770D01*
X144074037Y-104853136D01*
X144110177Y-104751644D01*
X144131919Y-104690586D01*
X144131920Y-104690581D01*
X144134281Y-104683951D01*
X144135114Y-104676965D01*
X144135115Y-104676961D01*
X144154711Y-104512617D01*
X144155545Y-104505624D01*
X144140991Y-104367145D01*
X144137510Y-104334025D01*
X144137509Y-104334021D01*
X144136773Y-104327017D01*
X144078897Y-104157007D01*
X143984794Y-104004045D01*
X143979868Y-103999014D01*
X143979865Y-103999011D01*
X143919024Y-103936883D01*
X143859141Y-103875732D01*
X143842413Y-103864951D01*
X143714109Y-103782265D01*
X143708183Y-103778446D01*
X143701563Y-103776037D01*
X143701560Y-103776035D01*
X143546039Y-103719430D01*
X143546036Y-103719429D01*
X143539422Y-103717022D01*
X143482692Y-103709856D01*
X143404645Y-103699996D01*
X143404642Y-103699996D01*
X143400717Y-103699500D01*
X142104845Y-103699500D01*
X141971528Y-103714454D01*
X141964875Y-103716771D01*
X141964874Y-103716771D01*
X141896549Y-103740564D01*
X141801927Y-103773515D01*
X141795953Y-103777248D01*
X141795951Y-103777249D01*
X141787924Y-103782265D01*
X141649625Y-103868684D01*
X141585635Y-103932229D01*
X141527190Y-103990267D01*
X141527187Y-103990271D01*
X141522193Y-103995230D01*
X141425963Y-104146864D01*
X141423598Y-104153506D01*
X141368081Y-104309414D01*
X141368080Y-104309419D01*
X141365719Y-104316049D01*
X141364886Y-104323035D01*
X141364885Y-104323039D01*
X141352791Y-104424464D01*
X141344455Y-104494376D01*
X124071932Y-104494376D01*
X123978649Y-104424464D01*
X123963054Y-104415926D01*
X123842606Y-104370772D01*
X123827351Y-104367145D01*
X123776486Y-104361619D01*
X123769672Y-104361250D01*
X122722115Y-104361250D01*
X122706876Y-104365725D01*
X122705671Y-104367115D01*
X122704000Y-104374798D01*
X122704000Y-105872135D01*
X122196000Y-105872135D01*
X122196000Y-104379366D01*
X122191525Y-104364127D01*
X122190135Y-104362922D01*
X122182452Y-104361251D01*
X121130331Y-104361251D01*
X121123510Y-104361621D01*
X121072648Y-104367145D01*
X121057396Y-104370771D01*
X120936946Y-104415926D01*
X120921351Y-104424464D01*
X120819276Y-104500965D01*
X120806715Y-104513526D01*
X120730214Y-104615601D01*
X120721676Y-104631196D01*
X120676522Y-104751644D01*
X120672895Y-104766899D01*
X120667369Y-104817764D01*
X120667000Y-104824578D01*
X120667000Y-105872135D01*
X118903065Y-105872135D01*
X118861710Y-105707495D01*
X118852827Y-105672128D01*
X118852826Y-105672124D01*
X118851568Y-105667117D01*
X118838911Y-105638008D01*
X118756880Y-105449349D01*
X118756878Y-105449346D01*
X118754820Y-105444612D01*
X118623030Y-105240895D01*
X118606521Y-105222751D01*
X118463215Y-105065261D01*
X118463213Y-105065260D01*
X118459737Y-105061439D01*
X118455686Y-105058240D01*
X118455682Y-105058236D01*
X118273386Y-104914268D01*
X118269328Y-104911063D01*
X118056914Y-104793804D01*
X117932960Y-104749910D01*
X117833077Y-104714539D01*
X117833073Y-104714538D01*
X117828202Y-104712813D01*
X117823109Y-104711906D01*
X117823106Y-104711905D01*
X117594422Y-104671170D01*
X117594416Y-104671169D01*
X117589333Y-104670264D01*
X117509558Y-104669289D01*
X117351892Y-104667363D01*
X117351890Y-104667363D01*
X117346722Y-104667300D01*
X117106884Y-104704000D01*
X116876261Y-104779379D01*
X116661046Y-104891413D01*
X116656913Y-104894516D01*
X116656910Y-104894518D01*
X116471154Y-105033987D01*
X116467019Y-105037092D01*
X116299391Y-105212505D01*
X116296477Y-105216777D01*
X116296476Y-105216778D01*
X116280025Y-105240895D01*
X116162663Y-105412941D01*
X116147962Y-105444612D01*
X116079440Y-105592231D01*
X116060508Y-105633016D01*
X115995668Y-105866821D01*
X115969885Y-106108077D01*
X110487690Y-106108077D01*
X110481058Y-98839744D01*
X118645819Y-98839744D01*
X118646176Y-98846561D01*
X118646176Y-98846565D01*
X118654302Y-99001611D01*
X118655490Y-99024281D01*
X118657301Y-99030854D01*
X118657301Y-99030857D01*
X118682930Y-99123902D01*
X118704562Y-99202436D01*
X118790746Y-99365898D01*
X118910020Y-99507040D01*
X118915444Y-99511187D01*
X118915445Y-99511188D01*
X119051399Y-99615133D01*
X119051403Y-99615136D01*
X119056820Y-99619277D01*
X119063000Y-99622159D01*
X119063002Y-99622160D01*
X119218120Y-99694493D01*
X119218123Y-99694494D01*
X119224297Y-99697373D01*
X119230942Y-99698858D01*
X119230947Y-99698860D01*
X119339207Y-99723058D01*
X119404637Y-99737683D01*
X119410307Y-99738000D01*
X120846164Y-99738000D01*
X120983709Y-99723058D01*
X121158848Y-99664117D01*
X121317244Y-99568943D01*
X121353086Y-99535049D01*
X121446549Y-99446665D01*
X121446551Y-99446663D01*
X121451507Y-99441976D01*
X121555375Y-99289140D01*
X121557910Y-99282803D01*
X121621466Y-99123902D01*
X121621467Y-99123897D01*
X121624000Y-99117565D01*
X121654181Y-98935256D01*
X121652039Y-98894376D01*
X141394455Y-98894376D01*
X141395191Y-98901379D01*
X141395191Y-98901380D01*
X141398752Y-98935256D01*
X141413227Y-99072983D01*
X141415498Y-99079654D01*
X141455056Y-99195854D01*
X141471103Y-99242993D01*
X141565206Y-99395955D01*
X141570132Y-99400986D01*
X141570135Y-99400989D01*
X141573838Y-99404770D01*
X141690859Y-99524268D01*
X141696784Y-99528087D01*
X141696786Y-99528088D01*
X141835891Y-99617735D01*
X141841817Y-99621554D01*
X141848437Y-99623963D01*
X141848440Y-99623965D01*
X142003961Y-99680570D01*
X142003964Y-99680571D01*
X142010578Y-99682978D01*
X142037121Y-99686331D01*
X142145355Y-99700004D01*
X142145358Y-99700004D01*
X142149283Y-99700500D01*
X143445155Y-99700500D01*
X143578472Y-99685546D01*
X143585847Y-99682978D01*
X143653451Y-99659436D01*
X143748073Y-99626485D01*
X143754995Y-99622160D01*
X143894401Y-99535049D01*
X143900375Y-99531316D01*
X143996022Y-99436334D01*
X144022810Y-99409733D01*
X144022813Y-99409729D01*
X144027807Y-99404770D01*
X144124037Y-99253136D01*
X144139940Y-99208475D01*
X144181919Y-99090586D01*
X144181920Y-99090581D01*
X144184281Y-99083951D01*
X144185114Y-99076965D01*
X144185115Y-99076961D01*
X144204711Y-98912617D01*
X144205545Y-98905624D01*
X144197913Y-98833006D01*
X144187510Y-98734025D01*
X144187509Y-98734021D01*
X144186773Y-98727017D01*
X144165377Y-98664167D01*
X144131168Y-98563677D01*
X144131167Y-98563674D01*
X144128897Y-98557007D01*
X144034794Y-98404045D01*
X144029868Y-98399014D01*
X144029865Y-98399011D01*
X143965245Y-98333024D01*
X143909141Y-98275732D01*
X143897082Y-98267960D01*
X143764109Y-98182265D01*
X143758183Y-98178446D01*
X143751563Y-98176037D01*
X143751560Y-98176035D01*
X143596039Y-98119430D01*
X143596036Y-98119429D01*
X143589422Y-98117022D01*
X143520434Y-98108307D01*
X143454645Y-98099996D01*
X143454642Y-98099996D01*
X143450717Y-98099500D01*
X142154845Y-98099500D01*
X142021528Y-98114454D01*
X142014875Y-98116771D01*
X142014874Y-98116771D01*
X141946549Y-98140564D01*
X141851927Y-98173515D01*
X141845953Y-98177248D01*
X141845951Y-98177249D01*
X141799849Y-98206057D01*
X141699625Y-98268684D01*
X141639556Y-98328335D01*
X141577190Y-98390267D01*
X141577187Y-98390271D01*
X141572193Y-98395230D01*
X141568419Y-98401176D01*
X141568418Y-98401178D01*
X141562791Y-98410045D01*
X141475963Y-98546864D01*
X141473598Y-98553506D01*
X141418081Y-98709414D01*
X141418080Y-98709419D01*
X141415719Y-98716049D01*
X141414886Y-98723035D01*
X141414885Y-98723039D01*
X141412369Y-98744143D01*
X141394455Y-98894376D01*
X121652039Y-98894376D01*
X121648823Y-98833006D01*
X121644867Y-98757532D01*
X121644510Y-98750719D01*
X121637982Y-98727017D01*
X121597251Y-98579146D01*
X121595438Y-98572564D01*
X121509254Y-98409102D01*
X121389980Y-98267960D01*
X121384555Y-98263812D01*
X121248601Y-98159867D01*
X121248597Y-98159864D01*
X121243180Y-98155723D01*
X121237000Y-98152841D01*
X121236998Y-98152840D01*
X121081880Y-98080507D01*
X121081877Y-98080506D01*
X121075703Y-98077627D01*
X121069058Y-98076142D01*
X121069053Y-98076140D01*
X120929129Y-98044865D01*
X120895363Y-98037317D01*
X120889693Y-98037000D01*
X119453836Y-98037000D01*
X119316291Y-98051942D01*
X119141152Y-98110883D01*
X118982756Y-98206057D01*
X118977796Y-98210748D01*
X118977794Y-98210749D01*
X118903751Y-98280769D01*
X118848493Y-98333024D01*
X118744625Y-98485860D01*
X118742092Y-98492194D01*
X118742090Y-98492197D01*
X118678534Y-98651098D01*
X118678533Y-98651103D01*
X118676000Y-98657435D01*
X118645819Y-98839744D01*
X110481058Y-98839744D01*
X110479911Y-97582887D01*
X124670070Y-97582887D01*
X124676528Y-97592247D01*
X124703488Y-97615891D01*
X124710003Y-97620889D01*
X124961028Y-97788619D01*
X124968165Y-97792740D01*
X125238930Y-97926266D01*
X125246534Y-97929416D01*
X125532413Y-98026459D01*
X125540365Y-98028590D01*
X125836469Y-98087488D01*
X125844627Y-98088562D01*
X126145881Y-98108307D01*
X126154119Y-98108307D01*
X126455373Y-98088562D01*
X126463531Y-98087488D01*
X126759635Y-98028590D01*
X126767587Y-98026459D01*
X127053466Y-97929416D01*
X127061070Y-97926266D01*
X127331835Y-97792740D01*
X127338972Y-97788619D01*
X127542435Y-97652669D01*
X134434001Y-97652669D01*
X134434371Y-97659490D01*
X134439895Y-97710352D01*
X134443521Y-97725604D01*
X134488676Y-97846054D01*
X134497214Y-97861649D01*
X134573715Y-97963724D01*
X134586276Y-97976285D01*
X134688351Y-98052786D01*
X134703946Y-98061324D01*
X134824394Y-98106478D01*
X134839649Y-98110105D01*
X134890514Y-98115631D01*
X134897328Y-98116000D01*
X136527885Y-98116000D01*
X136543124Y-98111525D01*
X136544329Y-98110135D01*
X136546000Y-98102452D01*
X136546000Y-98097884D01*
X137054000Y-98097884D01*
X137058475Y-98113123D01*
X137059865Y-98114328D01*
X137067548Y-98115999D01*
X138702669Y-98115999D01*
X138709490Y-98115629D01*
X138760352Y-98110105D01*
X138775604Y-98106479D01*
X138896054Y-98061324D01*
X138911649Y-98052786D01*
X139013724Y-97976285D01*
X139026285Y-97963724D01*
X139102786Y-97861649D01*
X139111324Y-97846054D01*
X139156478Y-97725606D01*
X139160105Y-97710351D01*
X139165631Y-97659486D01*
X139166000Y-97652672D01*
X139166000Y-96022115D01*
X139161525Y-96006876D01*
X139160135Y-96005671D01*
X139152452Y-96004000D01*
X137072115Y-96004000D01*
X137056876Y-96008475D01*
X137055671Y-96009865D01*
X137054000Y-96017548D01*
X137054000Y-98097884D01*
X136546000Y-98097884D01*
X136546000Y-96022115D01*
X136541525Y-96006876D01*
X136540135Y-96005671D01*
X136532452Y-96004000D01*
X134452116Y-96004000D01*
X134436877Y-96008475D01*
X134435672Y-96009865D01*
X134434001Y-96017548D01*
X134434001Y-97652669D01*
X127542435Y-97652669D01*
X127589997Y-97620889D01*
X127596512Y-97615891D01*
X127621609Y-97593881D01*
X127630004Y-97580646D01*
X127624169Y-97570879D01*
X126162812Y-96109522D01*
X126148868Y-96101908D01*
X126147035Y-96102039D01*
X126140420Y-96106290D01*
X124677584Y-97569126D01*
X124670070Y-97582887D01*
X110479911Y-97582887D01*
X110478231Y-95741619D01*
X123779193Y-95741619D01*
X123798938Y-96042873D01*
X123800012Y-96051031D01*
X123858910Y-96347135D01*
X123861041Y-96355087D01*
X123958081Y-96640957D01*
X123961236Y-96648576D01*
X124094761Y-96919335D01*
X124098882Y-96926473D01*
X124266611Y-97177497D01*
X124271609Y-97184012D01*
X124293619Y-97209109D01*
X124306854Y-97217504D01*
X124316621Y-97211669D01*
X125777978Y-95750312D01*
X125784356Y-95738632D01*
X126514408Y-95738632D01*
X126514539Y-95740465D01*
X126518790Y-95747080D01*
X127981626Y-97209916D01*
X127995387Y-97217430D01*
X128004747Y-97210972D01*
X128028391Y-97184012D01*
X128033389Y-97177497D01*
X128201118Y-96926473D01*
X128205239Y-96919335D01*
X128338764Y-96648576D01*
X128341919Y-96640957D01*
X128438959Y-96355087D01*
X128441090Y-96347135D01*
X128499988Y-96051031D01*
X128501062Y-96042873D01*
X128520807Y-95741619D01*
X128520807Y-95733381D01*
X128504061Y-95477885D01*
X134434000Y-95477885D01*
X134438475Y-95493124D01*
X134439865Y-95494329D01*
X134447548Y-95496000D01*
X136527885Y-95496000D01*
X136543124Y-95491525D01*
X136544329Y-95490135D01*
X136546000Y-95482452D01*
X136546000Y-95477885D01*
X137054000Y-95477885D01*
X137058475Y-95493124D01*
X137059865Y-95494329D01*
X137067548Y-95496000D01*
X139147884Y-95496000D01*
X139163123Y-95491525D01*
X139164328Y-95490135D01*
X139165999Y-95482452D01*
X139165999Y-93847331D01*
X139165629Y-93840510D01*
X139160105Y-93789648D01*
X139156479Y-93774396D01*
X139111324Y-93653946D01*
X139102786Y-93638351D01*
X139026285Y-93536276D01*
X139013724Y-93523715D01*
X138911649Y-93447214D01*
X138896054Y-93438676D01*
X138775606Y-93393522D01*
X138760351Y-93389895D01*
X138709486Y-93384369D01*
X138702672Y-93384000D01*
X137072115Y-93384000D01*
X137056876Y-93388475D01*
X137055671Y-93389865D01*
X137054000Y-93397548D01*
X137054000Y-95477885D01*
X136546000Y-95477885D01*
X136546000Y-93402116D01*
X136541525Y-93386877D01*
X136540135Y-93385672D01*
X136532452Y-93384001D01*
X134897331Y-93384001D01*
X134890510Y-93384371D01*
X134839648Y-93389895D01*
X134824396Y-93393521D01*
X134703946Y-93438676D01*
X134688351Y-93447214D01*
X134586276Y-93523715D01*
X134573715Y-93536276D01*
X134497214Y-93638351D01*
X134488676Y-93653946D01*
X134443522Y-93774394D01*
X134439895Y-93789649D01*
X134434369Y-93840514D01*
X134434000Y-93847328D01*
X134434000Y-95477885D01*
X128504061Y-95477885D01*
X128501062Y-95432127D01*
X128499988Y-95423969D01*
X128441090Y-95127865D01*
X128438959Y-95119913D01*
X128341919Y-94834043D01*
X128338764Y-94826424D01*
X128205239Y-94555665D01*
X128201118Y-94548527D01*
X128033389Y-94297503D01*
X128028391Y-94290988D01*
X128006381Y-94265891D01*
X127993146Y-94257496D01*
X127983379Y-94263331D01*
X126522022Y-95724688D01*
X126514408Y-95738632D01*
X125784356Y-95738632D01*
X125785592Y-95736368D01*
X125785461Y-95734535D01*
X125781210Y-95727920D01*
X124318374Y-94265084D01*
X124304613Y-94257570D01*
X124295253Y-94264028D01*
X124271609Y-94290988D01*
X124266611Y-94297503D01*
X124098882Y-94548527D01*
X124094761Y-94555665D01*
X123961236Y-94826424D01*
X123958081Y-94834043D01*
X123861041Y-95119913D01*
X123858910Y-95127865D01*
X123800012Y-95423969D01*
X123798938Y-95432127D01*
X123779193Y-95733381D01*
X123779193Y-95741619D01*
X110478231Y-95741619D01*
X110476545Y-93894354D01*
X124669996Y-93894354D01*
X124675831Y-93904121D01*
X126137188Y-95365478D01*
X126151132Y-95373092D01*
X126152965Y-95372961D01*
X126159580Y-95368710D01*
X127622416Y-93905874D01*
X127629930Y-93892113D01*
X127623472Y-93882753D01*
X127596512Y-93859109D01*
X127589997Y-93854111D01*
X127338972Y-93686381D01*
X127331835Y-93682260D01*
X127061070Y-93548734D01*
X127053466Y-93545584D01*
X126767587Y-93448541D01*
X126759635Y-93446410D01*
X126463531Y-93387512D01*
X126455373Y-93386438D01*
X126154119Y-93366693D01*
X126145881Y-93366693D01*
X125844627Y-93386438D01*
X125836469Y-93387512D01*
X125540365Y-93446410D01*
X125532413Y-93448541D01*
X125246543Y-93545581D01*
X125238924Y-93548736D01*
X124968165Y-93682261D01*
X124961027Y-93686382D01*
X124710003Y-93854111D01*
X124703488Y-93859109D01*
X124678391Y-93881119D01*
X124669996Y-93894354D01*
X110476545Y-93894354D01*
X110471638Y-88515893D01*
X124086803Y-88515893D01*
X124102960Y-88796101D01*
X124103785Y-88800306D01*
X124103786Y-88800314D01*
X124118002Y-88872773D01*
X124156996Y-89071524D01*
X124158383Y-89075574D01*
X124158384Y-89075579D01*
X124183994Y-89150380D01*
X124247911Y-89337065D01*
X124374022Y-89587810D01*
X124376448Y-89591339D01*
X124376451Y-89591345D01*
X124485012Y-89749301D01*
X124532997Y-89819120D01*
X124721894Y-90026715D01*
X124725183Y-90029465D01*
X124933925Y-90204001D01*
X124933930Y-90204005D01*
X124937217Y-90206753D01*
X125016559Y-90256524D01*
X125171341Y-90353619D01*
X125171345Y-90353621D01*
X125174981Y-90355902D01*
X125178891Y-90357667D01*
X125178892Y-90357668D01*
X125206577Y-90370168D01*
X125430788Y-90471403D01*
X125434907Y-90472623D01*
X125695790Y-90549901D01*
X125695795Y-90549902D01*
X125699903Y-90551119D01*
X125704137Y-90551767D01*
X125704142Y-90551768D01*
X125948514Y-90589162D01*
X125977347Y-90593574D01*
X126120292Y-90595819D01*
X126253694Y-90597915D01*
X126253700Y-90597915D01*
X126257985Y-90597982D01*
X126536626Y-90564263D01*
X126808112Y-90493040D01*
X126812072Y-90491400D01*
X126812077Y-90491398D01*
X127042464Y-90395968D01*
X127067420Y-90385631D01*
X127118296Y-90355902D01*
X127306054Y-90246185D01*
X127306055Y-90246185D01*
X127309752Y-90244024D01*
X127530624Y-90070838D01*
X127725948Y-89869279D01*
X127728481Y-89865831D01*
X127728485Y-89865826D01*
X127889572Y-89646532D01*
X127892110Y-89643077D01*
X128026036Y-89396416D01*
X128075642Y-89265139D01*
X128123729Y-89137880D01*
X128123730Y-89137876D01*
X128125247Y-89133862D01*
X128185044Y-88872773D01*
X128186949Y-88864457D01*
X128186950Y-88864453D01*
X128187907Y-88860273D01*
X128211742Y-88593211D01*
X128212637Y-88583177D01*
X128212637Y-88583175D01*
X128212857Y-88580711D01*
X128213310Y-88537500D01*
X128212689Y-88528393D01*
X134736803Y-88528393D01*
X134752960Y-88808601D01*
X134753785Y-88812806D01*
X134753786Y-88812814D01*
X134764711Y-88868497D01*
X134806996Y-89084024D01*
X134808383Y-89088074D01*
X134808384Y-89088079D01*
X134893631Y-89337065D01*
X134897911Y-89349565D01*
X135024022Y-89600310D01*
X135026448Y-89603839D01*
X135026451Y-89603845D01*
X135135012Y-89761801D01*
X135182997Y-89831620D01*
X135371894Y-90039215D01*
X135375183Y-90041965D01*
X135583925Y-90216501D01*
X135583930Y-90216505D01*
X135587217Y-90219253D01*
X135642424Y-90253884D01*
X135821341Y-90366119D01*
X135821345Y-90366121D01*
X135824981Y-90368402D01*
X136080788Y-90483903D01*
X136084907Y-90485123D01*
X136345790Y-90562401D01*
X136345795Y-90562402D01*
X136349903Y-90563619D01*
X136354137Y-90564267D01*
X136354142Y-90564268D01*
X136598514Y-90601662D01*
X136627347Y-90606074D01*
X136770292Y-90608319D01*
X136903694Y-90610415D01*
X136903700Y-90610415D01*
X136907985Y-90610482D01*
X137186626Y-90576763D01*
X137458112Y-90505540D01*
X137462072Y-90503900D01*
X137462077Y-90503898D01*
X137601600Y-90446105D01*
X137717420Y-90398131D01*
X137738812Y-90385631D01*
X137956054Y-90258685D01*
X137956055Y-90258685D01*
X137959752Y-90256524D01*
X138180624Y-90083338D01*
X138192738Y-90070838D01*
X138372965Y-89884857D01*
X138375948Y-89881779D01*
X138378481Y-89878331D01*
X138378485Y-89878326D01*
X138539572Y-89659032D01*
X138542110Y-89655577D01*
X138576985Y-89591345D01*
X138673986Y-89412692D01*
X138673987Y-89412690D01*
X138676036Y-89408916D01*
X138775247Y-89146362D01*
X138837907Y-88872773D01*
X138838650Y-88864457D01*
X138862637Y-88595677D01*
X138862637Y-88595675D01*
X138862857Y-88593211D01*
X138863310Y-88550000D01*
X138844220Y-88269977D01*
X138841632Y-88257477D01*
X138788172Y-87999332D01*
X138787303Y-87995135D01*
X138693612Y-87730561D01*
X138687161Y-87718061D01*
X138566847Y-87484957D01*
X138566847Y-87484956D01*
X138564882Y-87481150D01*
X138558773Y-87472457D01*
X138405956Y-87255022D01*
X138403493Y-87251517D01*
X138212433Y-87045912D01*
X137995237Y-86868139D01*
X137755923Y-86721487D01*
X137733348Y-86711577D01*
X137502853Y-86610397D01*
X137498921Y-86608671D01*
X137479519Y-86603144D01*
X137233114Y-86532954D01*
X137233115Y-86532954D01*
X137228986Y-86531778D01*
X137023217Y-86502493D01*
X136955365Y-86492836D01*
X136955363Y-86492836D01*
X136951113Y-86492231D01*
X136946824Y-86492209D01*
X136946817Y-86492208D01*
X136674730Y-86490783D01*
X136674723Y-86490783D01*
X136670444Y-86490761D01*
X136666199Y-86491320D01*
X136666197Y-86491320D01*
X136602813Y-86499665D01*
X136392172Y-86527397D01*
X136171284Y-86587825D01*
X136134467Y-86597897D01*
X136121446Y-86601459D01*
X135863277Y-86711577D01*
X135717721Y-86798691D01*
X135626123Y-86853511D01*
X135626119Y-86853514D01*
X135622441Y-86855715D01*
X135403395Y-87031204D01*
X135400451Y-87034306D01*
X135400447Y-87034310D01*
X135213142Y-87231688D01*
X135210192Y-87234797D01*
X135046408Y-87462727D01*
X135044404Y-87466512D01*
X134923697Y-87694489D01*
X134915073Y-87710776D01*
X134913601Y-87714799D01*
X134913599Y-87714803D01*
X134906354Y-87734602D01*
X134818616Y-87974355D01*
X134817703Y-87978541D01*
X134817703Y-87978542D01*
X134762464Y-88231896D01*
X134758825Y-88248585D01*
X134736803Y-88528393D01*
X128212689Y-88528393D01*
X128195364Y-88274254D01*
X128194512Y-88261754D01*
X128194511Y-88261748D01*
X128194220Y-88257477D01*
X128188923Y-88231896D01*
X128140761Y-87999332D01*
X128137303Y-87982635D01*
X128043612Y-87718061D01*
X128037898Y-87706989D01*
X127916847Y-87472457D01*
X127916847Y-87472456D01*
X127914882Y-87468650D01*
X127910720Y-87462727D01*
X127834188Y-87353834D01*
X127753493Y-87239017D01*
X127681983Y-87162064D01*
X127565354Y-87036555D01*
X127565351Y-87036552D01*
X127562433Y-87033412D01*
X127345237Y-86855639D01*
X127113744Y-86713780D01*
X127109580Y-86711228D01*
X127105923Y-86708987D01*
X127083348Y-86699077D01*
X126852853Y-86597897D01*
X126848921Y-86596171D01*
X126829519Y-86590644D01*
X126626996Y-86532954D01*
X126578986Y-86519278D01*
X126373217Y-86489993D01*
X126305365Y-86480336D01*
X126305363Y-86480336D01*
X126301113Y-86479731D01*
X126296824Y-86479709D01*
X126296817Y-86479708D01*
X126024730Y-86478283D01*
X126024723Y-86478283D01*
X126020444Y-86478261D01*
X126016199Y-86478820D01*
X126016197Y-86478820D01*
X125952813Y-86487165D01*
X125742172Y-86514897D01*
X125471446Y-86588959D01*
X125213277Y-86699077D01*
X125067721Y-86786191D01*
X124976123Y-86841011D01*
X124976119Y-86841014D01*
X124972441Y-86843215D01*
X124753395Y-87018704D01*
X124750451Y-87021806D01*
X124750447Y-87021810D01*
X124563142Y-87219188D01*
X124560192Y-87222297D01*
X124396408Y-87450227D01*
X124265073Y-87698276D01*
X124263601Y-87702299D01*
X124263599Y-87702303D01*
X124253258Y-87730561D01*
X124168616Y-87961855D01*
X124167703Y-87966041D01*
X124167703Y-87966042D01*
X124165891Y-87974355D01*
X124108825Y-88236085D01*
X124086803Y-88515893D01*
X110471638Y-88515893D01*
X110468740Y-85339744D01*
X118645819Y-85339744D01*
X118646176Y-85346561D01*
X118646176Y-85346565D01*
X118654302Y-85501611D01*
X118655490Y-85524281D01*
X118657301Y-85530854D01*
X118657301Y-85530857D01*
X118682930Y-85623902D01*
X118704562Y-85702436D01*
X118790746Y-85865898D01*
X118910020Y-86007040D01*
X118915444Y-86011187D01*
X118915445Y-86011188D01*
X119051399Y-86115133D01*
X119051403Y-86115136D01*
X119056820Y-86119277D01*
X119063000Y-86122159D01*
X119063002Y-86122160D01*
X119218120Y-86194493D01*
X119218123Y-86194494D01*
X119224297Y-86197373D01*
X119230942Y-86198858D01*
X119230947Y-86198860D01*
X119339207Y-86223058D01*
X119404637Y-86237683D01*
X119410307Y-86238000D01*
X120846164Y-86238000D01*
X120983709Y-86223058D01*
X121158848Y-86164117D01*
X121317244Y-86068943D01*
X121353086Y-86035049D01*
X121446549Y-85946665D01*
X121446551Y-85946663D01*
X121451507Y-85941976D01*
X121555375Y-85789140D01*
X121557910Y-85782803D01*
X121621466Y-85623902D01*
X121621467Y-85623897D01*
X121624000Y-85617565D01*
X121654181Y-85435256D01*
X121652039Y-85394376D01*
X141394455Y-85394376D01*
X141395191Y-85401379D01*
X141395191Y-85401380D01*
X141398752Y-85435256D01*
X141413227Y-85572983D01*
X141415498Y-85579654D01*
X141455056Y-85695854D01*
X141471103Y-85742993D01*
X141565206Y-85895955D01*
X141570132Y-85900986D01*
X141570135Y-85900989D01*
X141573838Y-85904770D01*
X141690859Y-86024268D01*
X141696784Y-86028087D01*
X141696786Y-86028088D01*
X141835891Y-86117735D01*
X141841817Y-86121554D01*
X141848437Y-86123963D01*
X141848440Y-86123965D01*
X142003961Y-86180570D01*
X142003964Y-86180571D01*
X142010578Y-86182978D01*
X142037121Y-86186331D01*
X142145355Y-86200004D01*
X142145358Y-86200004D01*
X142149283Y-86200500D01*
X143445155Y-86200500D01*
X143578472Y-86185546D01*
X143585847Y-86182978D01*
X143653451Y-86159436D01*
X143748073Y-86126485D01*
X143754995Y-86122160D01*
X143894401Y-86035049D01*
X143900375Y-86031316D01*
X143996022Y-85936334D01*
X144022810Y-85909733D01*
X144022813Y-85909729D01*
X144027807Y-85904770D01*
X144124037Y-85753136D01*
X144139940Y-85708475D01*
X144181919Y-85590586D01*
X144181920Y-85590581D01*
X144184281Y-85583951D01*
X144185114Y-85576965D01*
X144185115Y-85576961D01*
X144204711Y-85412617D01*
X144205545Y-85405624D01*
X144197913Y-85333006D01*
X144187510Y-85234025D01*
X144187509Y-85234021D01*
X144186773Y-85227017D01*
X144165377Y-85164167D01*
X144131168Y-85063677D01*
X144131167Y-85063674D01*
X144128897Y-85057007D01*
X144034794Y-84904045D01*
X144029868Y-84899014D01*
X144029865Y-84899011D01*
X143965245Y-84833024D01*
X143909141Y-84775732D01*
X143897082Y-84767960D01*
X143764109Y-84682265D01*
X143758183Y-84678446D01*
X143751563Y-84676037D01*
X143751560Y-84676035D01*
X143596039Y-84619430D01*
X143596036Y-84619429D01*
X143589422Y-84617022D01*
X143523592Y-84608706D01*
X143454645Y-84599996D01*
X143454642Y-84599996D01*
X143450717Y-84599500D01*
X142154845Y-84599500D01*
X142021528Y-84614454D01*
X142014875Y-84616771D01*
X142014874Y-84616771D01*
X141946549Y-84640564D01*
X141851927Y-84673515D01*
X141845953Y-84677248D01*
X141845951Y-84677249D01*
X141799849Y-84706057D01*
X141699625Y-84768684D01*
X141639556Y-84828335D01*
X141577190Y-84890267D01*
X141577187Y-84890271D01*
X141572193Y-84895230D01*
X141568419Y-84901176D01*
X141568418Y-84901178D01*
X141562791Y-84910045D01*
X141475963Y-85046864D01*
X141473598Y-85053506D01*
X141418081Y-85209414D01*
X141418080Y-85209419D01*
X141415719Y-85216049D01*
X141414886Y-85223035D01*
X141414885Y-85223039D01*
X141412369Y-85244143D01*
X141394455Y-85394376D01*
X121652039Y-85394376D01*
X121648823Y-85333006D01*
X121644867Y-85257532D01*
X121644510Y-85250719D01*
X121637982Y-85227017D01*
X121597251Y-85079146D01*
X121595438Y-85072564D01*
X121509254Y-84909102D01*
X121389980Y-84767960D01*
X121384555Y-84763812D01*
X121248601Y-84659867D01*
X121248597Y-84659864D01*
X121243180Y-84655723D01*
X121237000Y-84652841D01*
X121236998Y-84652840D01*
X121081880Y-84580507D01*
X121081877Y-84580506D01*
X121075703Y-84577627D01*
X121069058Y-84576142D01*
X121069053Y-84576140D01*
X120929129Y-84544865D01*
X120895363Y-84537317D01*
X120889693Y-84537000D01*
X119453836Y-84537000D01*
X119316291Y-84551942D01*
X119141152Y-84610883D01*
X118982756Y-84706057D01*
X118977796Y-84710748D01*
X118977794Y-84710749D01*
X118903751Y-84780769D01*
X118848493Y-84833024D01*
X118744625Y-84985860D01*
X118742092Y-84992194D01*
X118742090Y-84992197D01*
X118678534Y-85151098D01*
X118678533Y-85151103D01*
X118676000Y-85157435D01*
X118645819Y-85339744D01*
X110468740Y-85339744D01*
X110463430Y-79519669D01*
X115667001Y-79519669D01*
X115667371Y-79526490D01*
X115672895Y-79577352D01*
X115676521Y-79592604D01*
X115721676Y-79713054D01*
X115730214Y-79728649D01*
X115806715Y-79830724D01*
X115819276Y-79843285D01*
X115921351Y-79919786D01*
X115936946Y-79928324D01*
X116057394Y-79973478D01*
X116072649Y-79977105D01*
X116123514Y-79982631D01*
X116130328Y-79983000D01*
X117177885Y-79983000D01*
X117193124Y-79978525D01*
X117194329Y-79977135D01*
X117196000Y-79969452D01*
X117196000Y-79964884D01*
X117704000Y-79964884D01*
X117708475Y-79980123D01*
X117709865Y-79981328D01*
X117717548Y-79982999D01*
X118769669Y-79982999D01*
X118776490Y-79982629D01*
X118827352Y-79977105D01*
X118842604Y-79973479D01*
X118963054Y-79928324D01*
X118978649Y-79919786D01*
X119012553Y-79894376D01*
X141344455Y-79894376D01*
X141345191Y-79901379D01*
X141345191Y-79901380D01*
X141353770Y-79983000D01*
X141363227Y-80072983D01*
X141421103Y-80242993D01*
X141515206Y-80395955D01*
X141520132Y-80400986D01*
X141520135Y-80400989D01*
X141523838Y-80404770D01*
X141640859Y-80524268D01*
X141646784Y-80528087D01*
X141646786Y-80528088D01*
X141785891Y-80617735D01*
X141791817Y-80621554D01*
X141798437Y-80623963D01*
X141798440Y-80623965D01*
X141953961Y-80680570D01*
X141953964Y-80680571D01*
X141960578Y-80682978D01*
X141987121Y-80686331D01*
X142095355Y-80700004D01*
X142095358Y-80700004D01*
X142099283Y-80700500D01*
X143395155Y-80700500D01*
X143528472Y-80685546D01*
X143535847Y-80682978D01*
X143603451Y-80659436D01*
X143698073Y-80626485D01*
X143705965Y-80621554D01*
X143844401Y-80535049D01*
X143850375Y-80531316D01*
X143914365Y-80467771D01*
X143972810Y-80409733D01*
X143972813Y-80409729D01*
X143977807Y-80404770D01*
X144074037Y-80253136D01*
X144084643Y-80223352D01*
X144131919Y-80090586D01*
X144131920Y-80090581D01*
X144134281Y-80083951D01*
X144135114Y-80076965D01*
X144135115Y-80076961D01*
X144154711Y-79912617D01*
X144155545Y-79905624D01*
X144136773Y-79727017D01*
X144086712Y-79579964D01*
X144081168Y-79563677D01*
X144081167Y-79563674D01*
X144078897Y-79557007D01*
X144055927Y-79519669D01*
X143988485Y-79410045D01*
X143984794Y-79404045D01*
X143979868Y-79399014D01*
X143979865Y-79399011D01*
X143909542Y-79327200D01*
X143859141Y-79275732D01*
X143842413Y-79264951D01*
X143714109Y-79182265D01*
X143708183Y-79178446D01*
X143701563Y-79176037D01*
X143701560Y-79176035D01*
X143546039Y-79119430D01*
X143546036Y-79119429D01*
X143539422Y-79117022D01*
X143482692Y-79109856D01*
X143404645Y-79099996D01*
X143404642Y-79099996D01*
X143400717Y-79099500D01*
X142104845Y-79099500D01*
X141971528Y-79114454D01*
X141964875Y-79116771D01*
X141964874Y-79116771D01*
X141896549Y-79140564D01*
X141801927Y-79173515D01*
X141795953Y-79177248D01*
X141795951Y-79177249D01*
X141787924Y-79182265D01*
X141649625Y-79268684D01*
X141590699Y-79327200D01*
X141527190Y-79390267D01*
X141527187Y-79390271D01*
X141522193Y-79395230D01*
X141518419Y-79401176D01*
X141518418Y-79401178D01*
X141512791Y-79410045D01*
X141425963Y-79546864D01*
X141423598Y-79553506D01*
X141368081Y-79709414D01*
X141368080Y-79709419D01*
X141365719Y-79716049D01*
X141364886Y-79723035D01*
X141364885Y-79723039D01*
X141352045Y-79830724D01*
X141344455Y-79894376D01*
X119012553Y-79894376D01*
X119080724Y-79843285D01*
X119093285Y-79830724D01*
X119169786Y-79728649D01*
X119178324Y-79713054D01*
X119223478Y-79592606D01*
X119227105Y-79577351D01*
X119232631Y-79526486D01*
X119233000Y-79519672D01*
X119233000Y-78472115D01*
X119228525Y-78456876D01*
X119227135Y-78455671D01*
X119219452Y-78454000D01*
X117722115Y-78454000D01*
X117706876Y-78458475D01*
X117705671Y-78459865D01*
X117704000Y-78467548D01*
X117704000Y-79964884D01*
X117196000Y-79964884D01*
X117196000Y-78472115D01*
X117191525Y-78456876D01*
X117190135Y-78455671D01*
X117182452Y-78454000D01*
X115685116Y-78454000D01*
X115669877Y-78458475D01*
X115668672Y-78459865D01*
X115667001Y-78467548D01*
X115667001Y-79519669D01*
X110463430Y-79519669D01*
X110462193Y-78163827D01*
X120969885Y-78163827D01*
X120970182Y-78168979D01*
X120970182Y-78168983D01*
X120981684Y-78368453D01*
X120983852Y-78406054D01*
X120984989Y-78411100D01*
X120984990Y-78411106D01*
X120997710Y-78467548D01*
X121037193Y-78642747D01*
X121039135Y-78647529D01*
X121039136Y-78647533D01*
X121078725Y-78745029D01*
X121128476Y-78867550D01*
X121255249Y-79074425D01*
X121414109Y-79257818D01*
X121600787Y-79412801D01*
X121810272Y-79535214D01*
X122036938Y-79621770D01*
X122042004Y-79622801D01*
X122042005Y-79622801D01*
X122100326Y-79634666D01*
X122274696Y-79670142D01*
X122411350Y-79675153D01*
X122511998Y-79678844D01*
X122512002Y-79678844D01*
X122517162Y-79679033D01*
X122522282Y-79678377D01*
X122522284Y-79678377D01*
X122598754Y-79668581D01*
X122757825Y-79648203D01*
X122762774Y-79646718D01*
X122762780Y-79646717D01*
X122985278Y-79579964D01*
X122990221Y-79578481D01*
X123034055Y-79557007D01*
X123203474Y-79474010D01*
X123203477Y-79474008D01*
X123208109Y-79471739D01*
X123405637Y-79330844D01*
X123577501Y-79159578D01*
X123719085Y-78962543D01*
X123826587Y-78745029D01*
X123854649Y-78652669D01*
X134384001Y-78652669D01*
X134384371Y-78659490D01*
X134389895Y-78710352D01*
X134393521Y-78725604D01*
X134438676Y-78846054D01*
X134447214Y-78861649D01*
X134523715Y-78963724D01*
X134536276Y-78976285D01*
X134638351Y-79052786D01*
X134653946Y-79061324D01*
X134774394Y-79106478D01*
X134789649Y-79110105D01*
X134840514Y-79115631D01*
X134847328Y-79116000D01*
X136477885Y-79116000D01*
X136493124Y-79111525D01*
X136494329Y-79110135D01*
X136496000Y-79102452D01*
X136496000Y-79097884D01*
X137004000Y-79097884D01*
X137008475Y-79113123D01*
X137009865Y-79114328D01*
X137017548Y-79115999D01*
X138652669Y-79115999D01*
X138659490Y-79115629D01*
X138710352Y-79110105D01*
X138725604Y-79106479D01*
X138846054Y-79061324D01*
X138861649Y-79052786D01*
X138963724Y-78976285D01*
X138976285Y-78963724D01*
X139052786Y-78861649D01*
X139061324Y-78846054D01*
X139106478Y-78725606D01*
X139110105Y-78710351D01*
X139115631Y-78659486D01*
X139116000Y-78652672D01*
X139116000Y-77022115D01*
X139111525Y-77006876D01*
X139110135Y-77005671D01*
X139102452Y-77004000D01*
X137022115Y-77004000D01*
X137006876Y-77008475D01*
X137005671Y-77009865D01*
X137004000Y-77017548D01*
X137004000Y-79097884D01*
X136496000Y-79097884D01*
X136496000Y-77022115D01*
X136491525Y-77006876D01*
X136490135Y-77005671D01*
X136482452Y-77004000D01*
X134402116Y-77004000D01*
X134386877Y-77008475D01*
X134385672Y-77009865D01*
X134384001Y-77017548D01*
X134384001Y-78652669D01*
X123854649Y-78652669D01*
X123859195Y-78637705D01*
X123895616Y-78517830D01*
X123895617Y-78517824D01*
X123897120Y-78512878D01*
X123928789Y-78272325D01*
X123930557Y-78200000D01*
X123922707Y-78104525D01*
X123911100Y-77963338D01*
X123911099Y-77963332D01*
X123910676Y-77958187D01*
X123851568Y-77722867D01*
X123838911Y-77693758D01*
X123756880Y-77505099D01*
X123756878Y-77505096D01*
X123754820Y-77500362D01*
X123623030Y-77296645D01*
X123601086Y-77272528D01*
X123463215Y-77121011D01*
X123463213Y-77121010D01*
X123459737Y-77117189D01*
X123455686Y-77113990D01*
X123455682Y-77113986D01*
X123273386Y-76970018D01*
X123269328Y-76966813D01*
X123056914Y-76849554D01*
X122932960Y-76805660D01*
X122833077Y-76770289D01*
X122833073Y-76770288D01*
X122828202Y-76768563D01*
X122823109Y-76767656D01*
X122823106Y-76767655D01*
X122594422Y-76726920D01*
X122594416Y-76726919D01*
X122589333Y-76726014D01*
X122509558Y-76725039D01*
X122351892Y-76723113D01*
X122351890Y-76723113D01*
X122346722Y-76723050D01*
X122106884Y-76759750D01*
X121876261Y-76835129D01*
X121661046Y-76947163D01*
X121656913Y-76950266D01*
X121656910Y-76950268D01*
X121471154Y-77089737D01*
X121467019Y-77092842D01*
X121299391Y-77268255D01*
X121296477Y-77272527D01*
X121296476Y-77272528D01*
X121280025Y-77296645D01*
X121162663Y-77468691D01*
X121060508Y-77688766D01*
X120995668Y-77922571D01*
X120969885Y-78163827D01*
X110462193Y-78163827D01*
X110461978Y-77927885D01*
X115667000Y-77927885D01*
X115671475Y-77943124D01*
X115672865Y-77944329D01*
X115680548Y-77946000D01*
X117177885Y-77946000D01*
X117193124Y-77941525D01*
X117194329Y-77940135D01*
X117196000Y-77932452D01*
X117196000Y-77927885D01*
X117704000Y-77927885D01*
X117708475Y-77943124D01*
X117709865Y-77944329D01*
X117717548Y-77946000D01*
X119214884Y-77946000D01*
X119230123Y-77941525D01*
X119231328Y-77940135D01*
X119232999Y-77932452D01*
X119232999Y-76880331D01*
X119232629Y-76873510D01*
X119227105Y-76822648D01*
X119223479Y-76807396D01*
X119178324Y-76686946D01*
X119169786Y-76671351D01*
X119093285Y-76569276D01*
X119080724Y-76556715D01*
X118978649Y-76480214D01*
X118974395Y-76477885D01*
X134384000Y-76477885D01*
X134388475Y-76493124D01*
X134389865Y-76494329D01*
X134397548Y-76496000D01*
X136477885Y-76496000D01*
X136493124Y-76491525D01*
X136494329Y-76490135D01*
X136496000Y-76482452D01*
X136496000Y-76477885D01*
X137004000Y-76477885D01*
X137008475Y-76493124D01*
X137009865Y-76494329D01*
X137017548Y-76496000D01*
X139097884Y-76496000D01*
X139113123Y-76491525D01*
X139114328Y-76490135D01*
X139115999Y-76482452D01*
X139115999Y-74847331D01*
X139115629Y-74840510D01*
X139110105Y-74789648D01*
X139106479Y-74774396D01*
X139061324Y-74653946D01*
X139052786Y-74638351D01*
X138976285Y-74536276D01*
X138963724Y-74523715D01*
X138861649Y-74447214D01*
X138846054Y-74438676D01*
X138725606Y-74393522D01*
X138710351Y-74389895D01*
X138659486Y-74384369D01*
X138652672Y-74384000D01*
X137022115Y-74384000D01*
X137006876Y-74388475D01*
X137005671Y-74389865D01*
X137004000Y-74397548D01*
X137004000Y-76477885D01*
X136496000Y-76477885D01*
X136496000Y-74402116D01*
X136491525Y-74386877D01*
X136490135Y-74385672D01*
X136482452Y-74384001D01*
X134847331Y-74384001D01*
X134840510Y-74384371D01*
X134789648Y-74389895D01*
X134774396Y-74393521D01*
X134653946Y-74438676D01*
X134638351Y-74447214D01*
X134536276Y-74523715D01*
X134523715Y-74536276D01*
X134447214Y-74638351D01*
X134438676Y-74653946D01*
X134393522Y-74774394D01*
X134389895Y-74789649D01*
X134384369Y-74840514D01*
X134384000Y-74847328D01*
X134384000Y-76477885D01*
X118974395Y-76477885D01*
X118963054Y-76471676D01*
X118842606Y-76426522D01*
X118827351Y-76422895D01*
X118776486Y-76417369D01*
X118769672Y-76417000D01*
X117722115Y-76417000D01*
X117706876Y-76421475D01*
X117705671Y-76422865D01*
X117704000Y-76430548D01*
X117704000Y-77927885D01*
X117196000Y-77927885D01*
X117196000Y-76435116D01*
X117191525Y-76419877D01*
X117190135Y-76418672D01*
X117182452Y-76417001D01*
X116130331Y-76417001D01*
X116123510Y-76417371D01*
X116072648Y-76422895D01*
X116057396Y-76426521D01*
X115936946Y-76471676D01*
X115921351Y-76480214D01*
X115819276Y-76556715D01*
X115806715Y-76569276D01*
X115730214Y-76671351D01*
X115721676Y-76686946D01*
X115676522Y-76807394D01*
X115672895Y-76822649D01*
X115667369Y-76873514D01*
X115667000Y-76880328D01*
X115667000Y-77927885D01*
X110461978Y-77927885D01*
X110454314Y-69528393D01*
X134686803Y-69528393D01*
X134702960Y-69808601D01*
X134703785Y-69812806D01*
X134703786Y-69812814D01*
X134714711Y-69868497D01*
X134756996Y-70084024D01*
X134758383Y-70088074D01*
X134758384Y-70088079D01*
X134846522Y-70345509D01*
X134847911Y-70349565D01*
X134974022Y-70600310D01*
X134976448Y-70603839D01*
X134976451Y-70603845D01*
X135085012Y-70761801D01*
X135132997Y-70831620D01*
X135321894Y-71039215D01*
X135325183Y-71041965D01*
X135533925Y-71216501D01*
X135533930Y-71216505D01*
X135537217Y-71219253D01*
X135592424Y-71253884D01*
X135771341Y-71366119D01*
X135771345Y-71366121D01*
X135774981Y-71368402D01*
X136030788Y-71483903D01*
X136034907Y-71485123D01*
X136295790Y-71562401D01*
X136295795Y-71562402D01*
X136299903Y-71563619D01*
X136304137Y-71564267D01*
X136304142Y-71564268D01*
X136548514Y-71601662D01*
X136577347Y-71606074D01*
X136720292Y-71608319D01*
X136853694Y-71610415D01*
X136853700Y-71610415D01*
X136857985Y-71610482D01*
X137136626Y-71576763D01*
X137408112Y-71505540D01*
X137412072Y-71503900D01*
X137412077Y-71503898D01*
X137551600Y-71446105D01*
X137667420Y-71398131D01*
X137718296Y-71368402D01*
X137906054Y-71258685D01*
X137906055Y-71258685D01*
X137909752Y-71256524D01*
X138130624Y-71083338D01*
X138325948Y-70881779D01*
X138328481Y-70878331D01*
X138328485Y-70878326D01*
X138489572Y-70659032D01*
X138492110Y-70655577D01*
X138626036Y-70408916D01*
X138725247Y-70146362D01*
X138787907Y-69872773D01*
X138812857Y-69593211D01*
X138813310Y-69550000D01*
X138794220Y-69269977D01*
X138788923Y-69244396D01*
X138738172Y-68999332D01*
X138737303Y-68995135D01*
X138643612Y-68730561D01*
X138635109Y-68714085D01*
X138516847Y-68484957D01*
X138516847Y-68484956D01*
X138514882Y-68481150D01*
X138504595Y-68466512D01*
X138355956Y-68255022D01*
X138353493Y-68251517D01*
X138162433Y-68045912D01*
X137945237Y-67868139D01*
X137705923Y-67721487D01*
X137683348Y-67711577D01*
X137452853Y-67610397D01*
X137448921Y-67608671D01*
X137429519Y-67603144D01*
X137183114Y-67532954D01*
X137183115Y-67532954D01*
X137178986Y-67531778D01*
X136973217Y-67502493D01*
X136905365Y-67492836D01*
X136905363Y-67492836D01*
X136901113Y-67492231D01*
X136896824Y-67492209D01*
X136896817Y-67492208D01*
X136624730Y-67490783D01*
X136624723Y-67490783D01*
X136620444Y-67490761D01*
X136616199Y-67491320D01*
X136616197Y-67491320D01*
X136552813Y-67499665D01*
X136342172Y-67527397D01*
X136071446Y-67601459D01*
X135813277Y-67711577D01*
X135667721Y-67798691D01*
X135576123Y-67853511D01*
X135576119Y-67853514D01*
X135572441Y-67855715D01*
X135353395Y-68031204D01*
X135350451Y-68034306D01*
X135350447Y-68034310D01*
X135163142Y-68231688D01*
X135160192Y-68234797D01*
X134996408Y-68462727D01*
X134865073Y-68710776D01*
X134863601Y-68714799D01*
X134863599Y-68714803D01*
X134856354Y-68734602D01*
X134768616Y-68974355D01*
X134767703Y-68978541D01*
X134767703Y-68978542D01*
X134731406Y-69145020D01*
X134708825Y-69248585D01*
X134686803Y-69528393D01*
X110454314Y-69528393D01*
X110453090Y-68186609D01*
X113490975Y-68186609D01*
X113506639Y-68373139D01*
X113558235Y-68553075D01*
X113561050Y-68558552D01*
X113561051Y-68558555D01*
X113640982Y-68714085D01*
X113643797Y-68719562D01*
X113647620Y-68724386D01*
X113647623Y-68724390D01*
X113670194Y-68752867D01*
X113760068Y-68866259D01*
X113764762Y-68870254D01*
X113892000Y-68978542D01*
X113902618Y-68987579D01*
X113907996Y-68990585D01*
X113907998Y-68990586D01*
X113942396Y-69009810D01*
X114066018Y-69078900D01*
X114244043Y-69136744D01*
X114429914Y-69158908D01*
X114436049Y-69158436D01*
X114436051Y-69158436D01*
X114610408Y-69145020D01*
X114610413Y-69145019D01*
X114616549Y-69144547D01*
X114622479Y-69142891D01*
X114622481Y-69142891D01*
X114790913Y-69095864D01*
X114790912Y-69095864D01*
X114796841Y-69094209D01*
X114827148Y-69078900D01*
X114875774Y-69054337D01*
X114963921Y-69009810D01*
X114977333Y-68999332D01*
X115106571Y-68898360D01*
X115106572Y-68898360D01*
X115111427Y-68894566D01*
X115233738Y-68752867D01*
X115326198Y-68590108D01*
X115385283Y-68412491D01*
X115408744Y-68226780D01*
X115409118Y-68200000D01*
X115407805Y-68186609D01*
X124490975Y-68186609D01*
X124506639Y-68373139D01*
X124558235Y-68553075D01*
X124561050Y-68558552D01*
X124561051Y-68558555D01*
X124640982Y-68714085D01*
X124643797Y-68719562D01*
X124647620Y-68724386D01*
X124647623Y-68724390D01*
X124670194Y-68752867D01*
X124760068Y-68866259D01*
X124764762Y-68870254D01*
X124892000Y-68978542D01*
X124902618Y-68987579D01*
X124907996Y-68990585D01*
X124907998Y-68990586D01*
X124942396Y-69009810D01*
X125066018Y-69078900D01*
X125244043Y-69136744D01*
X125429914Y-69158908D01*
X125436049Y-69158436D01*
X125436051Y-69158436D01*
X125610408Y-69145020D01*
X125610413Y-69145019D01*
X125616549Y-69144547D01*
X125622479Y-69142891D01*
X125622481Y-69142891D01*
X125790913Y-69095864D01*
X125790912Y-69095864D01*
X125796841Y-69094209D01*
X125827148Y-69078900D01*
X125875774Y-69054337D01*
X125963921Y-69009810D01*
X125977333Y-68999332D01*
X126106571Y-68898360D01*
X126106572Y-68898360D01*
X126111427Y-68894566D01*
X126233738Y-68752867D01*
X126326198Y-68590108D01*
X126385283Y-68412491D01*
X126408744Y-68226780D01*
X126409118Y-68200000D01*
X126390852Y-68013706D01*
X126336749Y-67834509D01*
X126277846Y-67723728D01*
X126251764Y-67674674D01*
X126251762Y-67674671D01*
X126248870Y-67669232D01*
X126244980Y-67664462D01*
X126244977Y-67664458D01*
X126134457Y-67528948D01*
X126134454Y-67528945D01*
X126130562Y-67524173D01*
X125986332Y-67404855D01*
X125821673Y-67315824D01*
X125732265Y-67288148D01*
X125648744Y-67262294D01*
X125648741Y-67262293D01*
X125642857Y-67260472D01*
X125636732Y-67259828D01*
X125636731Y-67259828D01*
X125462824Y-67241549D01*
X125462823Y-67241549D01*
X125456696Y-67240905D01*
X125380143Y-67247872D01*
X125276418Y-67257312D01*
X125276415Y-67257313D01*
X125270279Y-67257871D01*
X125264373Y-67259609D01*
X125264369Y-67259610D01*
X125129075Y-67299429D01*
X125090708Y-67310721D01*
X124924822Y-67397444D01*
X124920022Y-67401304D01*
X124920021Y-67401304D01*
X124910718Y-67408784D01*
X124778940Y-67514736D01*
X124658619Y-67658130D01*
X124655655Y-67663522D01*
X124655652Y-67663526D01*
X124623788Y-67721487D01*
X124568441Y-67822163D01*
X124566580Y-67828030D01*
X124566579Y-67828032D01*
X124556947Y-67858397D01*
X124511841Y-68000588D01*
X124490975Y-68186609D01*
X115407805Y-68186609D01*
X115390852Y-68013706D01*
X115336749Y-67834509D01*
X115277846Y-67723728D01*
X115251764Y-67674674D01*
X115251762Y-67674671D01*
X115248870Y-67669232D01*
X115244980Y-67664462D01*
X115244977Y-67664458D01*
X115134457Y-67528948D01*
X115134454Y-67528945D01*
X115130562Y-67524173D01*
X114986332Y-67404855D01*
X114821673Y-67315824D01*
X114732265Y-67288148D01*
X114648744Y-67262294D01*
X114648741Y-67262293D01*
X114642857Y-67260472D01*
X114636732Y-67259828D01*
X114636731Y-67259828D01*
X114462824Y-67241549D01*
X114462823Y-67241549D01*
X114456696Y-67240905D01*
X114380143Y-67247872D01*
X114276418Y-67257312D01*
X114276415Y-67257313D01*
X114270279Y-67257871D01*
X114264373Y-67259609D01*
X114264369Y-67259610D01*
X114129075Y-67299429D01*
X114090708Y-67310721D01*
X113924822Y-67397444D01*
X113920022Y-67401304D01*
X113920021Y-67401304D01*
X113910718Y-67408784D01*
X113778940Y-67514736D01*
X113658619Y-67658130D01*
X113655655Y-67663522D01*
X113655652Y-67663526D01*
X113623788Y-67721487D01*
X113568441Y-67822163D01*
X113566580Y-67828030D01*
X113566579Y-67828032D01*
X113556947Y-67858397D01*
X113511841Y-68000588D01*
X113490975Y-68186609D01*
X110453090Y-68186609D01*
X110451455Y-66394376D01*
X141344455Y-66394376D01*
X141363227Y-66572983D01*
X141421103Y-66742993D01*
X141515206Y-66895955D01*
X141520132Y-66900986D01*
X141520135Y-66900989D01*
X141523838Y-66904770D01*
X141640859Y-67024268D01*
X141646784Y-67028087D01*
X141646786Y-67028088D01*
X141785891Y-67117735D01*
X141791817Y-67121554D01*
X141798437Y-67123963D01*
X141798440Y-67123965D01*
X141953961Y-67180570D01*
X141953964Y-67180571D01*
X141960578Y-67182978D01*
X141987121Y-67186331D01*
X142095355Y-67200004D01*
X142095358Y-67200004D01*
X142099283Y-67200500D01*
X143395155Y-67200500D01*
X143528472Y-67185546D01*
X143535847Y-67182978D01*
X143603451Y-67159436D01*
X143698073Y-67126485D01*
X143705965Y-67121554D01*
X143844401Y-67035049D01*
X143850375Y-67031316D01*
X143914365Y-66967771D01*
X143972810Y-66909733D01*
X143972813Y-66909729D01*
X143977807Y-66904770D01*
X144074037Y-66753136D01*
X144084643Y-66723352D01*
X144131919Y-66590586D01*
X144131920Y-66590581D01*
X144134281Y-66583951D01*
X144135114Y-66576965D01*
X144135115Y-66576961D01*
X144154711Y-66412617D01*
X144155545Y-66405624D01*
X144136773Y-66227017D01*
X144078897Y-66057007D01*
X143984794Y-65904045D01*
X143979868Y-65899014D01*
X143979865Y-65899011D01*
X143919024Y-65836883D01*
X143859141Y-65775732D01*
X143842413Y-65764951D01*
X143714109Y-65682265D01*
X143708183Y-65678446D01*
X143701563Y-65676037D01*
X143701560Y-65676035D01*
X143546039Y-65619430D01*
X143546036Y-65619429D01*
X143539422Y-65617022D01*
X143482692Y-65609856D01*
X143404645Y-65599996D01*
X143404642Y-65599996D01*
X143400717Y-65599500D01*
X142104845Y-65599500D01*
X141971528Y-65614454D01*
X141964875Y-65616771D01*
X141964874Y-65616771D01*
X141896549Y-65640564D01*
X141801927Y-65673515D01*
X141795953Y-65677248D01*
X141795951Y-65677249D01*
X141787924Y-65682265D01*
X141649625Y-65768684D01*
X141585635Y-65832229D01*
X141527190Y-65890267D01*
X141527187Y-65890271D01*
X141522193Y-65895230D01*
X141425963Y-66046864D01*
X141423598Y-66053506D01*
X141368081Y-66209414D01*
X141368080Y-66209419D01*
X141365719Y-66216049D01*
X141364886Y-66223035D01*
X141364885Y-66223039D01*
X141349648Y-66350823D01*
X141344455Y-66394376D01*
X110451455Y-66394376D01*
X110450115Y-64926115D01*
X110470055Y-64857976D01*
X110523668Y-64811434D01*
X110576115Y-64800000D01*
X153524115Y-64800000D01*
X153592236Y-64820002D01*
G37*
%TD.AperFunction*%
%TD*%
M02*
