%TF.GenerationSoftware,KiCad,Pcbnew,(6.0.5-0)*%
%TF.CreationDate,2024-03-03T20:53:33-05:00*%
%TF.ProjectId,power_PCB_v0.1,706f7765-725f-4504-9342-5f76302e312e,rev?*%
%TF.SameCoordinates,Original*%
%TF.FileFunction,Legend,Top*%
%TF.FilePolarity,Positive*%
%FSLAX46Y46*%
G04 Gerber Fmt 4.6, Leading zero omitted, Abs format (unit mm)*
G04 Created by KiCad (PCBNEW (6.0.5-0)) date 2024-03-03 20:53:33*
%MOMM*%
%LPD*%
G01*
G04 APERTURE LIST*
%ADD10C,0.150000*%
%ADD11C,0.127000*%
%ADD12C,0.200000*%
G04 APERTURE END LIST*
D10*
%TO.C,J5*%
X155717119Y-68659880D02*
X156431720Y-68659880D01*
X156574640Y-68707520D01*
X156669920Y-68802800D01*
X156717560Y-68945720D01*
X156717560Y-69041000D01*
X155717119Y-67707079D02*
X155717119Y-68183479D01*
X156193519Y-68231119D01*
X156145879Y-68183479D01*
X156098239Y-68088199D01*
X156098239Y-67849999D01*
X156145879Y-67754719D01*
X156193519Y-67707079D01*
X156288800Y-67659439D01*
X156527000Y-67659439D01*
X156622280Y-67707079D01*
X156669920Y-67754719D01*
X156717560Y-67849999D01*
X156717560Y-68088199D01*
X156669920Y-68183479D01*
X156622280Y-68231119D01*
%TO.C,J2*%
X122791666Y-101309130D02*
X122791666Y-102023416D01*
X122744047Y-102166273D01*
X122648809Y-102261511D01*
X122505952Y-102309130D01*
X122410714Y-102309130D01*
X123220238Y-101404369D02*
X123267857Y-101356750D01*
X123363095Y-101309130D01*
X123601190Y-101309130D01*
X123696428Y-101356750D01*
X123744047Y-101404369D01*
X123791666Y-101499607D01*
X123791666Y-101594845D01*
X123744047Y-101737702D01*
X123172619Y-102309130D01*
X123791666Y-102309130D01*
%TO.C,J4*%
X155767119Y-87659880D02*
X156481720Y-87659880D01*
X156624640Y-87707520D01*
X156719920Y-87802800D01*
X156767560Y-87945720D01*
X156767560Y-88041000D01*
X156100599Y-86754719D02*
X156767560Y-86754719D01*
X155719479Y-86992919D02*
X156434080Y-87231119D01*
X156434080Y-86611799D01*
%TO.C,J3*%
X155717119Y-106759880D02*
X156431720Y-106759880D01*
X156574640Y-106807520D01*
X156669920Y-106902800D01*
X156717560Y-107045720D01*
X156717560Y-107141000D01*
X155717119Y-106378759D02*
X155717119Y-105759439D01*
X156098239Y-106092919D01*
X156098239Y-105949999D01*
X156145879Y-105854719D01*
X156193519Y-105807079D01*
X156288800Y-105759439D01*
X156527000Y-105759439D01*
X156622280Y-105807079D01*
X156669920Y-105854719D01*
X156717560Y-105949999D01*
X156717560Y-106235839D01*
X156669920Y-106331119D01*
X156622280Y-106378759D01*
%TO.C,J1*%
X128487380Y-87895833D02*
X129201666Y-87895833D01*
X129344523Y-87943452D01*
X129439761Y-88038690D01*
X129487380Y-88181547D01*
X129487380Y-88276785D01*
X129487380Y-86895833D02*
X129487380Y-87467261D01*
X129487380Y-87181547D02*
X128487380Y-87181547D01*
X128630238Y-87276785D01*
X128725476Y-87372023D01*
X128773095Y-87467261D01*
X126078571Y-101256547D02*
X126078571Y-102018452D01*
X125697619Y-101637500D02*
X126459523Y-101637500D01*
X126078571Y-81756547D02*
X126078571Y-82518452D01*
%TO.C,J6*%
X116441666Y-81939880D02*
X116441666Y-82654166D01*
X116394047Y-82797023D01*
X116298809Y-82892261D01*
X116155952Y-82939880D01*
X116060714Y-82939880D01*
X117346428Y-81939880D02*
X117155952Y-81939880D01*
X117060714Y-81987500D01*
X117013095Y-82035119D01*
X116917857Y-82177976D01*
X116870238Y-82368452D01*
X116870238Y-82749404D01*
X116917857Y-82844642D01*
X116965476Y-82892261D01*
X117060714Y-82939880D01*
X117251190Y-82939880D01*
X117346428Y-82892261D01*
X117394047Y-82844642D01*
X117441666Y-82749404D01*
X117441666Y-82511309D01*
X117394047Y-82416071D01*
X117346428Y-82368452D01*
X117251190Y-82320833D01*
X117060714Y-82320833D01*
X116965476Y-82368452D01*
X116917857Y-82416071D01*
X116870238Y-82511309D01*
D11*
%TO.C,J5*%
X134900000Y-80900000D02*
X134900000Y-78928000D01*
X134900000Y-80900000D02*
X153100000Y-80900000D01*
X134900000Y-65400000D02*
X134900000Y-67372000D01*
X134900000Y-71728000D02*
X134900000Y-74572000D01*
X153100000Y-65400000D02*
X134900000Y-65400000D01*
X132590000Y-76960000D02*
X133860000Y-76960000D01*
X132590000Y-76960000D02*
X131320000Y-76960000D01*
X132590000Y-68245000D02*
X132590000Y-69515000D01*
X132590000Y-78230000D02*
X132590000Y-76960000D01*
X153100000Y-80900000D02*
X153100000Y-65400000D01*
X132590000Y-75690000D02*
X132590000Y-76960000D01*
X132590000Y-70785000D02*
X132590000Y-69515000D01*
%TO.C,J2*%
X113300000Y-117394250D02*
X113300000Y-114894250D01*
X117950000Y-103894250D02*
X116950000Y-103894250D01*
X124900000Y-114894250D02*
X126600000Y-114894250D01*
X126600000Y-117394250D02*
X124900000Y-117394250D01*
X115000000Y-117394250D02*
X113300000Y-117394250D01*
X124900000Y-110094250D02*
X124900000Y-114894250D01*
X122450000Y-103394250D02*
X122450000Y-104394250D01*
X113300000Y-114894250D02*
X115000000Y-114894250D01*
X124900000Y-117394250D02*
X124900000Y-119094250D01*
X126600000Y-114894250D02*
X126600000Y-117394250D01*
X115000000Y-119094250D02*
X115000000Y-117394250D01*
X124900000Y-119094250D02*
X115000000Y-119094250D01*
X115000000Y-110094250D02*
X124900000Y-110094250D01*
X115000000Y-114894250D02*
X115000000Y-110094250D01*
X122950000Y-103894250D02*
X121950000Y-103894250D01*
%TO.C,J4*%
X132640000Y-95960000D02*
X133910000Y-95960000D01*
X132640000Y-87245000D02*
X132640000Y-88515000D01*
X134950000Y-90728000D02*
X134950000Y-93572000D01*
X132640000Y-94690000D02*
X132640000Y-95960000D01*
X132640000Y-97230000D02*
X132640000Y-95960000D01*
X134950000Y-99900000D02*
X134950000Y-97928000D01*
X134950000Y-84400000D02*
X134950000Y-86372000D01*
X134950000Y-99900000D02*
X153150000Y-99900000D01*
X132640000Y-95960000D02*
X131370000Y-95960000D01*
X153150000Y-84400000D02*
X134950000Y-84400000D01*
X153150000Y-99900000D02*
X153150000Y-84400000D01*
X132640000Y-89785000D02*
X132640000Y-88515000D01*
%TO.C,J3*%
X134900000Y-119000000D02*
X134900000Y-117028000D01*
X153100000Y-103500000D02*
X134900000Y-103500000D01*
X134900000Y-103500000D02*
X134900000Y-105472000D01*
X134900000Y-119000000D02*
X153100000Y-119000000D01*
X132590000Y-108885000D02*
X132590000Y-107615000D01*
X132590000Y-115060000D02*
X131320000Y-115060000D01*
X132590000Y-116330000D02*
X132590000Y-115060000D01*
X132590000Y-113790000D02*
X132590000Y-115060000D01*
X153100000Y-119000000D02*
X153100000Y-103500000D01*
X132590000Y-106345000D02*
X132590000Y-107615000D01*
X134900000Y-109828000D02*
X134900000Y-112672000D01*
X132590000Y-115060000D02*
X133860000Y-115060000D01*
%TO.C,J1*%
X110800000Y-99887500D02*
X110800000Y-84387500D01*
X110800000Y-84387500D02*
X128000000Y-84387500D01*
X128000000Y-90647500D02*
X128000000Y-93627500D01*
X128000000Y-97847500D02*
X128000000Y-99887500D01*
X128000000Y-99887500D02*
X110800000Y-99887500D01*
X128000000Y-84387500D02*
X128000000Y-86427500D01*
D12*
X126250000Y-83837500D02*
G75*
G03*
X126250000Y-83837500I-100000J0D01*
G01*
D11*
%TO.C,J6*%
X115000000Y-69450000D02*
X113300000Y-69450000D01*
X115000000Y-74250000D02*
X115000000Y-69450000D01*
X116950000Y-80450000D02*
X117950000Y-80450000D01*
X117450000Y-80950000D02*
X117450000Y-79950000D01*
X126600000Y-66950000D02*
X126600000Y-69450000D01*
X113300000Y-66950000D02*
X115000000Y-66950000D01*
X124900000Y-66950000D02*
X126600000Y-66950000D01*
X115000000Y-65250000D02*
X124900000Y-65250000D01*
X124900000Y-65250000D02*
X124900000Y-66950000D01*
X124900000Y-69450000D02*
X124900000Y-74250000D01*
X126600000Y-69450000D02*
X124900000Y-69450000D01*
X113300000Y-69450000D02*
X113300000Y-66950000D01*
X121950000Y-80450000D02*
X122950000Y-80450000D01*
X115000000Y-66950000D02*
X115000000Y-65250000D01*
X124900000Y-74250000D02*
X115000000Y-74250000D01*
%TD*%
M02*
