M48
; DRILL file {KiCad (6.0.5-0)} date Sunday, March 03, 2024 at 08:53:35 PM
; FORMAT={-:-/ absolute / metric / decimal}
; #@! TF.CreationDate,2024-03-03T20:53:35-05:00
; #@! TF.GenerationSoftware,Kicad,Pcbnew,(6.0.5-0)
; #@! TF.FileFunction,Plated,1,2,PTH
FMAT,2
METRIC
; #@! TA.AperFunction,Plated,PTH,ComponentDrill
T1C0.600
; #@! TA.AperFunction,Plated,PTH,ComponentDrill
T2C1.000
; #@! TA.AperFunction,Plated,PTH,ComponentDrill
T3C1.700
; #@! TA.AperFunction,Plated,PTH,ComponentDrill
T4C2.700
%
G90
G05
T2
X114.45Y-68.2
X114.45Y-116.144
X125.45Y-68.2
X125.45Y-116.144
T3
X117.45Y-78.2
X117.45Y-106.144
X122.45Y-78.2
X122.45Y-106.144
T4
X126.15Y-88.537
X126.15Y-95.737
X136.75Y-69.55
X136.75Y-76.75
X136.75Y-107.65
X136.75Y-114.85
X136.8Y-88.55
X136.8Y-95.75
T1
X120.7Y-85.388G85X119.6Y-85.388
G05
X120.7Y-98.887G85X119.6Y-98.887
G05
X143.3Y-66.4G85X142.2Y-66.4
G05
X143.3Y-79.9G85X142.2Y-79.9
G05
X143.3Y-104.5G85X142.2Y-104.5
G05
X143.3Y-118.0G85X142.2Y-118.0
G05
X143.35Y-85.4G85X142.25Y-85.4
G05
X143.35Y-98.9G85X142.25Y-98.9
G05
T0
M30
